<svg width="1em" height="1em" viewBox="0 0 48 48" fill="none" xmlns="http://www.w3.org/2000/svg">
<mask id="mask0_4210_104122" style="mask-type:alpha" maskUnits="userSpaceOnUse" x="0" y="0" width="48" height="48">
<path d="M47.724 24C47.724 10.7452 37.1027 0 24.0007 0C10.8986 0 0.277344 10.7452 0.277344 24C0.277344 37.2548 10.8986 48 24.0007 48C37.1027 48 47.724 37.2548 47.724 24Z" fill="url(#paint0_linear_4210_104122)"/>
</mask>
<g mask="url(#mask0_4210_104122)">
<path fill-rule="evenodd" clip-rule="evenodd" d="M47.724 0V48H46.9474L33.2028 21.317C33.1845 21.2814 33.1657 21.2462 33.1465 21.2113L33.0873 21.1077L29.2829 13.7232C28.5722 12.3436 27.162 11.4783 25.6241 11.4783H20.0283C19.8624 11.4783 19.6988 11.5188 19.5517 11.5964C19.0465 11.8627 18.8504 12.4929 19.1136 13.004L36.6174 46.9839L36.6229 46.9793L37.1488 48H10.7539L22.3313 25.5257L22.3618 25.4612C22.5777 24.9628 22.3774 24.3733 21.8933 24.1181C21.7461 24.0405 21.5826 24 21.4166 24H15.8208L15.6893 24.0021C14.2029 24.0499 12.8524 24.9047 12.162 26.245L0.955748 48H0.277344V0H47.724Z" fill="white"/>
</g>
<defs>
<linearGradient id="paint0_linear_4210_104122" x1="47.724" y1="0" x2="-0.272767" y2="47.4435" gradientUnits="userSpaceOnUse">
<stop stop-color="#21D4FD"/>
<stop offset="1" stop-color="#B721FF"/>
</linearGradient>
</defs>
</svg>
