<svg width="1em" height="1em" viewBox="0 0 52 48" fill="none" xmlns="http://www.w3.org/2000/svg">
<path fill-rule="evenodd" clip-rule="evenodd" d="M47.5091 5.46344H46.875V1.64783H48.4451C49.2149 1.64783 49.7281 2.06353 49.7281 2.73159C49.7281 3.281 49.4564 3.59272 49.0337 3.69662V3.71142C49.6168 3.82208 49.6592 4.54611 49.687 5.02008C49.7003 5.24557 49.7102 5.41457 49.7734 5.43369V5.46344H49.0941C49.0488 5.41874 49.0439 5.28308 49.0379 5.10947C49.0216 4.64829 48.9959 3.91938 48.1733 3.91938H47.5091V5.46344ZM48.1733 2.22685H47.5091V3.35516H48.1733C48.1832 3.35516 48.1931 3.35516 48.2032 3.35516C48.6047 3.35559 49.079 3.35602 49.079 2.79094C49.079 2.22396 48.6249 2.22544 48.2289 2.22672C48.2102 2.22678 48.1917 2.22685 48.1733 2.22685Z" fill="white"/>
<path fill-rule="evenodd" clip-rule="evenodd" d="M51.7951 3.59284C51.7951 5.65657 50.21 7.18568 48.2022 7.18568C46.1944 7.18568 44.6094 5.65657 44.6094 3.59284C44.6094 1.52918 46.1944 0 48.2022 0C50.21 0 51.7951 1.52918 51.7951 3.59284ZM45.2133 3.59284C45.2133 5.32991 46.5416 6.59186 48.2022 6.59186C49.8628 6.59186 51.1912 5.32991 51.1912 3.59284C51.1912 1.87065 49.8628 0.593854 48.2022 0.593854C46.5416 0.593854 45.2133 1.87065 45.2133 3.59284Z" fill="white"/>
<path fill-rule="evenodd" clip-rule="evenodd" d="M29.2333 10.379H19.1733V0.529799C14.7975 1.46332 10.632 3.62976 7.2326 7.02916C-2.14003 16.4019 -2.14003 31.5979 7.2326 40.9706C16.6053 50.3432 31.8013 50.3432 41.174 40.9706C50.5466 31.5979 50.5466 16.4019 41.174 7.02916C37.7746 3.62976 33.6091 1.46329 29.2333 0.529785V10.379ZM29.2333 10.3804C31.1427 11.0842 32.9336 12.2029 34.467 13.7361C40.1355 19.4046 40.1355 28.5951 34.467 34.2636C28.7986 39.9321 19.6081 39.9321 13.9396 34.2636C8.27107 28.5951 8.27107 19.4046 13.9396 13.7361C15.473 12.2029 17.264 11.0843 19.1733 10.3804V20.4677H29.2333V10.3804Z" fill="white"/>
</svg>
