<svg width="48" height="48" viewBox="0 0 48 48" fill="none" xmlns="http://www.w3.org/2000/svg">
<path fill-rule="evenodd" clip-rule="evenodd" d="M6.00049 0.785276V2.02423C6.00049 2.292 6.139 2.53851 6.34985 2.70356C7.20568 3.37348 8.42477 4.73773 8.35633 6.38037V41.6196C8.35633 44.0104 7.19269 45.3366 6.35142 45.9859C6.13944 46.1495 6.00049 46.3951 6.00049 46.6629V47.2147C6.00049 47.6484 6.35207 48 6.78577 48H34.6154C38.1791 48 41.0679 45.1111 41.0679 41.5475V30.3723C41.0679 28.8307 40.49 27.1997 39.4483 26.0633L38.1603 24.8035C37.9581 24.5829 37.8412 24.298 37.8296 24C37.8412 23.702 37.9581 23.4171 38.1603 23.1965L39.4483 21.7914C40.49 20.655 41.0679 19.1693 41.0679 17.6277V6.45247C41.0679 2.88887 38.1791 0 34.6154 0H6.78577C6.35207 0 6.00049 0.35158 6.00049 0.785276ZM26.4893 21.0454C26.4893 20.6117 26.8408 20.2601 27.2745 20.2601H31.1272C32.2115 20.2601 33.0904 19.3812 33.0904 18.2969L33.0315 8.34356C33.0315 7.25932 32.1526 6.38037 31.0683 6.38037H18.4911C17.4069 6.38037 16.5279 7.25932 16.5279 8.34356L16.5868 18.2969C16.5868 19.3812 17.465 20.2601 18.5493 20.2601H22.1829C22.6166 20.2601 22.9672 20.6117 22.9672 21.0454V26.8957C22.9672 27.3294 22.5578 27.681 22.1241 27.681H18.4904C17.4062 27.681 16.5279 28.5599 16.5279 29.6442V39.4314C16.5279 40.5157 17.4069 41.3946 18.4911 41.3946H31.0683C32.1526 41.3946 33.0315 40.5157 33.0315 39.4314V29.6442C33.0315 28.5599 32.1526 27.681 31.0683 27.681H27.2157C26.782 27.681 26.4304 27.3294 26.4304 26.8957L26.4893 21.0454Z" fill="#595959"/>
</svg>
