<svg width="1em" height="1em" viewBox="0 0 46 48" fill="none" xmlns="http://www.w3.org/2000/svg">
<g clip-path="url(#clip0_4210_104114)">
<path d="M41.3527 8.92956L26.0938 0.755492C24.2198 -0.250417 21.9862 -0.250418 20.1123 0.747039L4.69432 8.95493C2.36866 10.3666 0.193585 12.0318 0.101562 16.8838V20.7976H6.09976V15.4469L23.1073 6.28377L39.9891 15.4469V20.7976H45.9873V16.8838C45.8869 12.0065 43.6952 10.3497 41.3527 8.92956Z" fill="white"/>
<path d="M39.9807 32.9869L26.1022 40.8397V34.5C30.9793 33.3419 34.1918 29.3268 34.1918 23.959C34.1918 17.4502 29.7412 13.08 23.1073 13.08C16.4732 13.08 12.0227 17.4502 12.0227 23.959C12.0227 29.3351 15.2267 33.3419 20.1123 34.5V40.8481L6.10813 32.9869V27.1374H0.101562V31.0427C0.201951 35.8863 2.36866 37.56 4.69432 38.9716L20.1123 47.1795C21.9862 48.1769 24.2282 48.1769 26.0938 47.1711L41.3444 38.9969C43.6868 37.5853 45.8869 35.9201 45.979 31.0427V27.1374H39.9807V32.9869ZM17.5942 23.959C17.5942 20.3919 19.5517 18.4308 23.1073 18.4308C26.6627 18.4308 28.6202 20.3919 28.6202 23.959C28.6202 27.4164 26.5623 29.4873 23.1073 29.4873C19.6521 29.4873 17.5942 27.4247 17.5942 23.959Z" fill="white"/>
</g>
<defs>
<clipPath id="clip0_4210_104114">
<rect width="46" height="48" fill="white"/>
</clipPath>
</defs>
</svg>
