<svg width="1em" height="1em" viewBox="0 0 140 48" fill="none" xmlns="http://www.w3.org/2000/svg">
<g clip-path="url(#clip0_4210_104184)">
<g clip-path="url(#clip1_4210_104184)">
<path d="M25.3853 29.7234C25.3853 30.4891 25.1939 31.0631 24.8113 31.4456C24.4282 31.8288 23.8899 32.0199 23.1956 32.0199C22.4479 32.0199 21.9005 31.8108 21.5531 31.3922C21.2059 30.9742 21.0325 30.4088 21.0325 29.6968V14.1033H17V29.51C17 30.24 17.1023 30.9162 17.3071 31.539C17.5117 32.1625 17.85 32.7007 18.322 33.1544C18.7934 33.6084 19.4034 33.9647 20.1511 34.2227C20.8991 34.4803 21.8245 34.6098 22.9285 34.6098C24.2105 34.6098 25.1985 34.4361 25.8927 34.0889C26.587 33.7421 27.0853 33.3639 27.3881 32.9544C27.6907 33.3639 28.1981 33.7421 28.9104 34.0889C29.6221 34.4361 30.6195 34.6098 31.9012 34.6098C32.9695 34.6098 33.8775 34.4849 34.6252 34.2358C35.3729 33.987 35.9826 33.6399 36.4543 33.1947C36.926 32.7499 37.2688 32.2113 37.4826 31.5793C37.6963 30.9477 37.8031 30.2574 37.8031 29.51V14.1033H33.824V29.6968C33.824 30.3911 33.6457 30.9516 33.2897 31.3791C32.9334 31.8062 32.3821 32.0199 31.6341 32.0199C30.9221 32.0199 30.3747 31.8288 29.9918 31.4456C29.6089 31.0631 29.4178 30.4891 29.4178 29.7234V14.1033H25.3853V29.7234ZM41.1411 34.2092H52.0901V31.6459H45.1467V24.9972H51.3958V22.3808H45.1467V16.6667H51.8229V14.1033H41.1411V34.2092ZM63.4393 34.2092H67.4184V18.5892C67.4184 17.8415 67.6095 17.2721 67.9927 16.8801C68.3752 16.489 68.9226 16.2927 69.6349 16.2927C70.3826 16.2927 70.9343 16.5021 71.2906 16.9204C71.6466 17.3387 71.8246 17.9129 71.8246 18.6426V34.2092H75.8302V18.8026C75.8302 18.0909 75.7322 17.4236 75.5365 16.8001C75.3405 16.1773 75.0114 15.6387 74.5486 15.1847C74.0854 14.7307 73.4803 14.3701 72.7326 14.1033C71.9849 13.8362 71.0503 13.7028 69.9286 13.7028C68.6643 13.7028 67.6809 13.8722 66.9778 14.2102C66.2744 14.5485 65.7627 14.949 65.4421 15.4115C65.1392 14.9671 64.6318 14.5704 63.9202 14.2233C63.2079 13.8765 62.2199 13.7028 60.9559 13.7028C59.8876 13.7028 58.9796 13.8276 58.2319 14.0764C57.4842 14.3262 56.87 14.6734 56.3894 15.1178C55.9089 15.563 55.5614 16.1016 55.348 16.7332C55.1343 17.3655 55.0274 18.0552 55.0274 18.8026V34.2092H59.0331V18.6426C59.0331 17.9129 59.2111 17.3387 59.5674 16.9204C59.923 16.5021 60.4839 16.2927 61.2496 16.2927C62.7093 16.2927 63.4393 17.0584 63.4393 18.5892V34.2092ZM83.7884 25.4247L85.177 16.6667H86.6189L88.0078 25.4247H83.7884ZM88.3815 28.0146L89.3429 34.2092H93.5354L90.064 14.1033H81.7322L78.3139 34.2092H82.4799L83.4144 28.0146H88.3815ZM109.265 19.2031C109.265 17.6012 108.779 16.3507 107.809 15.4519C106.839 14.5531 105.259 14.1033 103.069 14.1033H96.0456V34.2092H103.069C105.259 34.2092 106.839 33.7913 107.809 32.9544C108.779 32.1179 109.265 30.9342 109.265 29.4031V19.2031ZM100.051 16.6667H102.775C103.754 16.6667 104.413 16.8892 104.752 17.3341C105.089 17.7792 105.259 18.4289 105.259 19.2835V29.0291C105.259 29.9371 105.045 30.6006 104.618 31.0185C104.191 31.4368 103.496 31.6459 102.535 31.6459H100.051V16.6667ZM112.416 34.2092H123.391V31.6459H116.421V24.9972H122.723V22.3808H116.421V16.6667H123.098V14.1033H112.416V34.2092Z" fill="white"/>
</g>
</g>
<defs>
<clipPath id="clip0_4210_104184">
<rect width="140" height="48" fill="white"/>
</clipPath>
<clipPath id="clip1_4210_104184">
<rect width="106.391" height="20.9071" fill="white" transform="translate(17 13.7026)"/>
</clipPath>
</defs>
</svg>
