<svg width="1em" height="1em" viewBox="0 0 140 48" fill="none" xmlns="http://www.w3.org/2000/svg">
<path d="M21.3304 15.97V21.3884H30.4282V24.7237H21.3304V32.85H17.6836V12.6318H31.5278V15.9672H21.3304V15.97Z" fill="white" stroke="white" stroke-width="0.221649" stroke-miterlimit="10"/>
<path d="M34.2109 32.8499V18.0222H37.7997V32.8499H34.2109Z" fill="white" stroke="white" stroke-width="0.221649" stroke-miterlimit="10"/>
<path d="M54.6055 34.8176C54.6055 35.788 54.39 36.5939 53.9563 37.2409C53.5226 37.8878 52.9673 38.3953 52.2904 38.7662C51.6135 39.1371 50.8484 39.3992 50.003 39.5498C49.1548 39.7032 48.3261 39.7785 47.5167 39.7785C46.6132 39.7785 45.7126 39.7115 44.8203 39.5777C43.9252 39.4438 43.0937 39.1036 42.3201 38.5514C41.7566 38.1527 41.3173 37.687 41.0079 37.1544C40.6985 36.6218 40.541 36.0056 40.541 35.3C40.541 34.6531 40.693 34.0591 40.9941 33.5181C41.2952 32.9771 41.729 32.5644 42.2925 32.2772C41.8229 32.0123 41.4582 31.6442 41.2041 31.1785C40.9499 30.7128 40.8228 30.2332 40.8228 29.7368C40.8228 28.4625 41.4058 27.467 42.5743 26.7419C42.1212 26.2846 41.7648 25.7548 41.5024 25.1441C41.2372 24.5362 41.1074 23.853 41.1074 23.0917C41.1074 22.2161 41.2676 21.438 41.5881 20.7521C41.9085 20.0661 42.3422 19.4973 42.8893 19.0399C43.4363 18.5825 44.0716 18.2368 44.7954 17.9998C45.5193 17.7627 46.2955 17.6428 47.1243 17.6428C47.7266 17.6428 48.3123 17.7237 48.8758 17.8855C49.4394 18.0472 49.967 18.2703 50.4588 18.5547C50.7792 17.9077 51.2019 17.4393 51.7296 17.1437C52.2573 16.8481 52.8319 16.7031 53.4535 16.7031C53.5668 16.7031 53.7269 16.7031 53.9342 16.7031C54.1414 16.7031 54.3016 16.7226 54.4149 16.7589V19.5251L54.1331 19.4973C53.7187 19.4973 53.3457 19.5641 53.017 19.698C52.6883 19.8319 52.4644 20.08 52.354 20.4398C52.8623 21.2763 53.1165 22.1687 53.1165 23.1196C53.1165 23.9757 52.9507 24.7369 52.622 25.4007C52.2932 26.067 51.854 26.6276 51.3097 27.0821C50.7627 27.5395 50.1273 27.8908 49.4035 28.1362C48.6769 28.3844 47.92 28.507 47.1299 28.507C46.3011 28.507 45.511 28.3733 44.7568 28.1083C44.5883 28.2031 44.4225 28.3426 44.2623 28.5211C44.1021 28.7023 44.0219 28.917 44.0219 29.1624C44.0219 29.6002 44.196 29.8902 44.5441 30.0324C44.8922 30.1747 45.2541 30.2472 45.6325 30.2472H48.0609C48.4173 30.2472 48.804 30.2527 49.2184 30.2611C49.6328 30.2722 50.0527 30.3085 50.4754 30.3754C50.8981 30.4424 51.3124 30.5427 51.7185 30.6738C52.1246 30.8076 52.4949 30.9973 52.8347 31.2427C53.4756 31.6805 53.9314 32.2048 54.2049 32.8099C54.4701 33.4289 54.6055 34.0954 54.6055 34.8176ZM51.2738 34.904C51.2738 34.4467 51.1522 34.0954 50.9063 33.8499C50.6605 33.6018 50.3649 33.4233 50.0168 33.309C49.6687 33.1947 49.2903 33.1277 48.8869 33.111C48.4808 33.0915 48.1106 33.0831 47.7708 33.0831H45.0027C44.6242 33.1974 44.3092 33.4122 44.0551 33.7245C43.801 34.0395 43.6739 34.4328 43.6739 34.9068C43.6739 35.3809 43.801 35.7518 44.0551 36.0195C44.3092 36.2844 44.6242 36.4908 45.0027 36.6329C45.3784 36.7752 45.7845 36.8644 46.2182 36.9035C46.6519 36.9425 47.0387 36.9592 47.3757 36.9592C47.7321 36.9592 48.1382 36.9453 48.5913 36.9174C49.0443 36.8895 49.467 36.8086 49.862 36.6748C50.2572 36.5409 50.5914 36.3374 50.8649 36.0613C51.1357 35.7825 51.2738 35.3976 51.2738 34.904ZM49.7185 23.0972C49.7185 22.2997 49.4864 21.6389 49.025 21.1146C48.5637 20.5904 47.9283 20.331 47.1188 20.331C46.3094 20.331 45.6739 20.5932 45.2126 21.1146C44.7512 21.6361 44.5192 22.2969 44.5192 23.0972C44.5192 23.8948 44.7485 24.5529 45.2126 25.066C45.6739 25.579 46.3094 25.8356 47.1188 25.8356C47.9283 25.8356 48.5637 25.579 49.025 25.066C49.4891 24.5529 49.7185 23.8976 49.7185 23.0972Z" fill="white" stroke="white" stroke-width="0.221649" stroke-miterlimit="10"/>
<path d="M73.9853 32.85V23.6389C73.9853 22.727 73.8306 22.0186 73.5184 21.5139C73.2089 21.0119 72.6094 20.7581 71.7253 20.7581C71.217 20.7581 70.7833 20.878 70.4269 21.1151C70.0705 21.3521 69.7721 21.6673 69.5372 22.0549C69.3024 22.4453 69.1283 22.8776 69.0151 23.3517C68.9018 23.8286 68.8466 24.2914 68.8466 24.7488V32.8472H65.3434V23.6389C65.3434 22.727 65.1887 22.0186 64.8765 21.5139C64.567 21.0119 63.9675 20.7581 63.0834 20.7581C62.5751 20.7581 62.1413 20.878 61.7849 21.1151C61.4285 21.3521 61.1246 21.6673 60.8815 22.0549C60.6356 22.4453 60.4588 22.8776 60.3455 23.3517C60.2323 23.8286 60.177 24.2914 60.177 24.7488V32.8472H56.6738V18.0224H59.6106L59.8924 19.9912C60.3068 19.308 60.8622 18.7475 61.5584 18.3097C62.2546 17.8718 63.0944 17.6543 64.0725 17.6543C65.1085 17.6543 65.976 17.8691 66.6723 18.2957C67.3685 18.7224 67.9072 19.3192 68.2829 20.0777C68.7167 19.2997 69.3135 18.7 70.076 18.2818C70.8385 17.8635 71.7198 17.6543 72.7172 17.6543C74.3002 17.6543 75.491 18.134 76.2922 19.0961C77.0934 20.0582 77.494 21.3047 77.494 22.8469V32.8556H73.9853V32.85Z" fill="white" stroke="white" stroke-width="0.221649" stroke-miterlimit="10"/>
<path d="M93.5343 25.5515C93.515 25.6854 93.5066 25.808 93.5066 25.9224V26.5499H83.6768C83.6768 27.1216 83.7651 27.6626 83.9447 28.1757C84.1243 28.6889 84.3951 29.1155 84.7487 29.4585C85.0139 29.7067 85.3206 29.9186 85.6687 30.0999C86.0168 30.2812 86.4339 30.3704 86.9258 30.3704C87.4341 30.3704 87.8541 30.3174 88.1828 30.2142C88.5116 30.111 88.81 29.9242 89.0724 29.6593C89.4094 29.3163 89.6471 28.8979 89.7797 28.4044H93.1696C93.1309 28.8422 92.9845 29.3219 92.7304 29.8461C92.4762 30.3704 92.2082 30.7999 91.9264 31.1429C91.3047 31.8847 90.5616 32.4174 89.6941 32.7409C88.8266 33.0643 87.9231 33.2261 86.9837 33.2261C85.9643 33.2261 85.0858 33.0587 84.3425 32.7269C83.5966 32.395 82.9336 31.9516 82.3506 31.4022C81.6157 30.68 81.0549 29.8154 80.6681 28.8088C80.2813 27.802 80.0879 26.6893 80.0879 25.4734C80.0879 24.2771 80.2619 23.1672 80.6101 22.152C80.9582 21.1342 81.4914 20.2669 82.2042 19.5418C82.7512 18.9729 83.4142 18.5155 84.1961 18.1726C84.978 17.8296 85.8759 17.6594 86.8953 17.6594C87.9894 17.6594 89.0033 17.8825 89.9482 18.3287C90.8875 18.7749 91.6611 19.4637 92.2662 20.3952C92.8104 21.2123 93.1586 22.0461 93.3105 22.8911C93.4569 23.7305 93.5343 24.6201 93.5343 25.5515ZM90.0035 23.9536C89.9813 22.8716 89.6802 22.0042 89.0973 21.3601C88.8542 21.0951 88.5475 20.886 88.18 20.7326C87.8126 20.582 87.3761 20.5039 86.865 20.5039C86.3207 20.5039 85.84 20.6099 85.4228 20.8191C85.0112 21.0282 84.6686 21.3043 84.4061 21.6473C84.1409 21.9708 83.953 22.3138 83.8397 22.6735C83.7292 23.0333 83.6602 23.4628 83.6436 23.9564H90.0035V23.9536Z" fill="white" stroke="white" stroke-width="0.221649" stroke-miterlimit="10"/>
<path d="M105.258 32.85V23.7532C105.258 22.8803 105.086 22.1943 104.75 21.7007C104.41 21.207 103.772 20.9589 102.83 20.9589C102.208 20.9589 101.688 21.1346 101.274 21.4859C100.859 21.8373 100.531 22.2891 100.285 22.8413C100.039 23.3935 99.8984 24.0348 99.8622 24.7655C99.8234 25.4989 99.8044 26.1765 99.8044 26.804V32.85H96.2734V18.0224H99.2403L99.4951 19.9327C99.929 19.1546 100.545 18.5773 101.346 18.2064C102.147 17.8355 102.971 17.6487 103.816 17.6487C104.609 17.6487 105.311 17.7825 105.921 18.0475C106.531 18.3152 107.051 18.6805 107.477 19.1462C107.899 19.6119 108.225 20.1724 108.451 20.8278C108.678 21.4832 108.791 22.1915 108.791 22.9528V32.8471H105.258V32.85Z" fill="white" stroke="white" stroke-width="0.221649" stroke-miterlimit="10"/>
<path d="M120.709 32.6519C119.692 32.9169 118.684 33.0507 117.686 33.0507C116.198 33.0507 115.087 32.6463 114.352 31.8376C113.617 31.0289 113.25 29.9134 113.25 28.4884V20.9589H110.564V18.0223H113.25V14.2576L116.781 13.3735V18.0223H120.482V20.9589H116.781V28.1733C116.781 28.7449 116.91 29.1576 117.176 29.4142C117.441 29.6708 117.856 29.7991 118.419 29.7991C118.794 29.7991 119.148 29.7908 119.477 29.7712C119.805 29.7517 120.214 29.7155 120.706 29.6569V32.6519H120.709Z" fill="white" stroke="white" stroke-width="0.221649" stroke-miterlimit="10"/>
<path fill-rule="evenodd" clip-rule="evenodd" d="M38.0926 14.7346C38.0926 13.6247 37.2031 12.6487 35.9985 12.6487C34.7691 12.6487 33.9043 13.6247 33.9043 14.7346C33.9043 15.8975 34.7691 16.7676 35.9985 16.7676C37.2031 16.7676 38.0926 15.8975 38.0926 14.7346Z" fill="white"/>
</svg>
 