<svg width="1em" height="1em" viewBox="0 0 116 128" fill="none" xmlns="http://www.w3.org/2000/svg">
<g clip-path="url(#clip0_3875_100943)">
<path d="M9.28486 30.2999L0.651245 11.7216L3.41108 10.8663C5.27611 15.1199 8.22948 22.0492 9.43094 25.4106L9.48018 25.3955C8.71592 21.589 7.61648 14.3791 6.85459 9.79891L9.41719 9.00472C11.4089 13.3091 14.3951 19.4187 15.9389 23.2632L16.0054 23.2427C15.1239 19.582 13.8178 12.6162 12.9299 7.91599L15.5593 7.10101L18.6381 27.401L15.9395 28.2374C13.9964 23.9879 11.1422 18.0512 9.63336 14.5044L9.58412 14.5199C10.3343 18.4858 11.256 24.9647 11.9632 29.4698L9.28486 30.2999Z" fill="white"/>
<path d="M28.4955 9.65424L30.5567 19.2333C31.3465 22.9044 30.1953 25.0145 27.0155 25.7039C23.8659 26.3873 22.1494 24.7785 21.3935 21.2647L19.3206 11.6322C18.5415 8.01121 19.9121 5.88216 22.7954 5.2566C25.7614 4.61323 27.7354 6.12235 28.4955 9.65424ZM21.9788 10.8436L24.156 20.9616C24.5637 22.8561 25.424 23.5306 26.6192 23.2714C27.8943 22.995 28.3414 22.0803 27.9107 20.0789L25.7449 10.0141C25.3577 8.21429 24.5751 7.41088 23.2585 7.6965C22.022 7.96489 21.5735 8.96069 21.9788 10.8436Z" fill="white"/>
<path d="M33.7079 24.0386L30.8961 3.9271L34.0383 3.48413C35.404 6.56532 39.385 16.3914 39.8286 17.6633L39.8674 17.6577C39.3761 15.1059 38.9626 12.2782 38.502 8.98444L37.6616 2.97347L40.1586 2.62164L42.9703 22.7331L39.9422 23.1601C38.7111 20.2944 34.4144 9.63613 33.9764 8.51178L33.9463 8.51593C34.427 10.9258 34.8516 13.8547 35.358 17.4769L36.2258 23.6838L33.7079 24.0386Z" fill="white"/>
<path d="M44.1039 2.22575L48.1449 1.95884C52.4591 1.67412 53.4533 4.04751 53.6847 7.57969L54.1999 15.4478C54.4032 18.5509 54.1137 21.9159 49.412 22.2262L45.431 22.489L44.1039 2.22575ZM47.9849 19.982L49.075 19.9098C51.2887 19.7634 51.6227 18.3858 51.47 16.0546L50.9103 7.50992C50.775 5.4453 50.325 4.17488 48.0513 4.32481L46.9643 4.39666L47.9849 19.982Z" fill="white"/>
<path d="M63.9109 12.3475L59.4265 12.3481L59.4275 19.3561L64.5632 19.3552L64.2122 21.8595L56.7151 21.8607L56.7122 1.55087L64.1607 1.54968L64.161 4.07538L59.4251 4.07627L59.426 9.84379L63.9106 9.8432L63.9109 12.3475Z" fill="white"/>
<path d="M69.1122 12.85L68.5359 22.0829L65.8284 21.9125L67.094 1.64276L71.0763 1.89334C74.1318 2.08573 75.7307 3.45947 75.5107 6.98304L75.4584 7.82C75.2736 10.7824 74.0721 11.6446 73.1383 11.9359C74.3264 12.5347 74.911 13.4759 74.7404 16.2103C74.6331 17.9275 74.3989 21.197 74.5414 22.4606L71.9188 22.2955C71.7333 21.0381 71.9945 17.6793 72.0852 16.2287C72.2434 13.6926 71.9454 13.0285 70.0567 12.9094L69.1122 12.85ZM69.2535 10.5847L70.2223 10.6456C71.9835 10.7563 72.5977 9.96181 72.7343 7.77368L72.7831 6.99136C72.8884 5.30498 72.5536 4.2608 70.6803 4.14263L69.6598 4.0785L69.2535 10.5847Z" fill="white"/>
<path d="M83.4888 3.05774L87.4885 3.69636C91.7585 4.37804 92.2044 6.91384 91.6506 10.4098L90.4175 18.1974C89.931 21.2688 88.9064 24.4854 84.2529 23.7425L80.3129 23.1137L83.4888 3.05774ZM83.3566 21.2367L84.4353 21.4089C86.6265 21.7587 87.2561 20.4894 87.6213 18.182L88.9605 9.72485C89.2843 7.68161 89.1255 6.34231 86.8752 5.98306L85.7991 5.81116L83.3566 21.2367Z" fill="white"/>
<path d="M95.0591 19.8024L92.941 25.3393L90.2574 24.714L98.0286 5.67639L101.772 6.54838L100.528 27.1064L97.7649 26.4627L98.2117 20.5367L95.0591 19.8024ZM98.4536 18.0225C98.7756 14.1145 99.0728 10.745 99.3445 8.61329L99.244 8.58984C98.7975 10.1589 97.1581 14.3363 95.9652 17.4427L98.4536 18.0225Z" fill="white"/>
<path d="M114.935 15.7554L112.062 25.1207C110.961 28.7096 108.928 29.9839 105.819 29.0225C102.74 28.0701 102.028 25.8238 103.082 22.3887L105.971 12.9708C107.057 9.43092 109.29 8.24808 112.109 9.11977C115.009 10.0164 115.994 12.3025 114.935 15.7554ZM108.673 13.5898L105.639 23.4819C105.07 25.3339 105.491 26.3451 106.66 26.7064C107.907 27.0921 108.742 26.5144 109.343 24.5575L112.361 14.7175C112.901 12.9581 112.61 11.8729 111.323 11.4748C110.114 11.101 109.238 11.7488 108.673 13.5898Z" fill="white"/>
<path d="M55.588 123.582L55.9438 53.9396C53.6548 54.5509 49.1077 55.1108 47.1018 55.1637L47.1465 46.3975C52.2308 45.736 56.8276 42.9179 59.1022 40.2639L67.3891 40.3064L66.9636 123.641L55.588 123.582Z" fill="white"/>
<path d="M52.9997 126.154L53.3525 57.0907C51.119 57.4471 48.6365 57.7093 47.1692 57.7479L44.5132 57.8177L44.583 44.1234L46.8156 43.8331C51.3239 43.2469 55.3331 40.6977 57.1502 38.5774L57.9262 37.6722L69.9774 37.7341L69.5253 126.24L52.9997 126.154V126.154Z" stroke="white" stroke-width="0.886594"/>
<path d="M55.588 123.582L55.9438 53.9392C53.6547 54.5504 49.1076 55.1106 47.1018 55.1633L47.1465 46.397C52.2308 45.7358 56.8276 42.9177 59.1022 40.2635L67.3891 40.3062L66.9636 123.641L55.588 123.582Z" fill="white"/>
</g>
<defs>
<clipPath id="clip0_3875_100943">
<rect width="115" height="128" fill="white" transform="translate(0.5)"/>
</clipPath>
</defs>
</svg>
