<svg width="48" height="48" viewBox="0 0 48 48" fill="none" xmlns="http://www.w3.org/2000/svg">
<path d="M15.0504 35.0277C6.7946 35.0277 0 28.3062 0 19.9773C0.0730602 11.7215 6.7946 5 15.0504 5C16.95 5 18.7765 5.3653 20.5299 6.02284C20.7491 6.0959 20.9683 6.16896 21.1144 6.24202C21.1144 6.24202 20.4569 6.68038 20.0916 7.04569C19.5801 7.55711 19.1418 7.99547 19.1418 7.99547C17.8267 7.55711 16.4385 7.33793 15.0504 7.33793C8.10968 7.33793 2.48405 12.9636 2.48405 19.9043C2.48405 26.845 8.10968 32.4706 15.0504 32.4706" fill="#595959"/>
<path d="M15.1226 30.3516C9.4239 30.3516 4.74805 25.6758 4.74805 19.9771C4.74805 14.2784 9.4239 9.60254 15.1226 9.60254C15.8532 9.60254 16.5107 9.6756 17.2413 9.82172C17.3875 9.82172 17.6066 9.89478 17.7528 9.96784C17.7528 9.96784 17.3144 10.5523 17.0952 10.9907C16.876 11.429 16.5107 12.1596 16.5107 12.1596C16.0724 12.0866 15.634 12.0135 15.1957 12.0135C10.812 12.0135 7.30515 15.5935 7.30515 19.904C7.30515 24.2146 10.8851 27.7945 15.1957 27.7945" fill="#595959"/>
<path d="M15.0501 25.53C11.9816 25.53 9.49756 23.0459 9.49756 19.9774C9.49756 16.9089 11.9816 14.4248 15.0501 14.4248H15.6346C15.6346 14.4248 15.4885 15.2285 15.4154 15.5938C15.3424 16.1052 15.2693 16.8358 15.2693 16.8358H15.1232C13.4428 16.8358 12.0547 18.2239 12.0547 19.9043C12.0547 21.5847 13.4428 22.9728 15.1232 22.9728" fill="#595959"/>
<path d="M20.164 42.6991H17.9722V20.0504C17.9722 11.7215 24.7668 5 33.0226 5C41.2784 5 47.9999 11.7215 47.9999 20.0504C47.9999 28.3793 41.2784 35.1008 32.9495 35.1008V32.6898C40.1094 32.6898 45.5889 27.0642 45.5889 20.1235C45.5889 13.1827 39.8172 7.55711 32.8764 7.55711C25.9357 7.55711 20.164 13.1827 20.164 20.1235V42.6991Z" fill="#595959"/>
<path d="M24.9864 42.6988H22.6484V19.9771C22.6484 14.2784 27.3973 9.60254 33.096 9.60254C38.7947 9.60254 43.3975 14.2784 43.3975 19.9771C43.3975 25.6758 38.7947 30.3516 32.9499 30.3516V27.9406C37.4797 27.9406 40.9865 24.3607 40.9865 20.0501C40.9865 15.7396 37.3335 12.1596 32.9499 12.1596C28.5663 12.1596 24.9864 15.7396 24.9864 20.0501V42.6988Z" fill="#595959"/>
<path d="M29.9548 42.6993H27.4707V20.0506C27.4707 16.9821 30.0278 14.498 33.0963 14.498C36.1649 14.498 38.5759 16.9821 38.5759 20.0506C38.5759 23.1192 36.1649 25.6032 33.0233 25.6032V23.1922C34.7767 23.1922 36.2379 21.8041 36.2379 20.1237C36.2379 18.4433 34.8498 17.0552 33.1694 17.0552C31.489 17.0552 30.1009 18.4433 30.1009 20.1237V42.6993H29.9548Z" fill="#595959"/>
</svg>
