<svg width="1em" height="1em" viewBox="0 0 36 48" fill="none" xmlns="http://www.w3.org/2000/svg">
<g clip-path="url(#clip0_6289_147664)">
<path d="M12.3425 9.93363L18.0045 6.68602L23.8101 10.0179L36 0.204085V37.6715L18.0045 48L0.00897308 37.6715V20.0669H0V0L12.3425 9.93363ZM3.15404 21.7706V35.8658L18.0045 44.3886L32.8549 35.8658V21.9924L17.991 30.6838L3.15404 21.7706ZM3.75075 18.4742L18.009 27.0369L32.4556 18.5895L18 10.293L3.74626 18.4742H3.75075ZM27.0494 11.4288L32.8504 14.8139V6.76144C30.9168 8.3187 28.9831 9.87596 27.0494 11.4288ZM3.14507 14.6054L8.94616 11.2203L3.14507 6.55735V14.6099V14.6054Z" fill="#595959"/>
</g>
<defs>
<clipPath id="clip0_6289_147664">
<rect width="36" height="48" fill="white"/>
</clipPath>
</defs>
</svg>
 