<svg width="1em" height="1em" viewBox="0 0 140 48" fill="none" xmlns="http://www.w3.org/2000/svg">
<path d="M110.031 34.0942H110.008C109.79 34.0798 109.587 33.9788 109.444 33.8134C109.299 33.6479 109.227 33.4315 109.241 33.2119C109.241 33.2053 109.241 33.1987 109.241 33.1921C109.237 33.0838 109.255 32.9759 109.293 32.8745C109.33 32.773 109.387 32.6801 109.461 32.6011C109.535 32.5222 109.623 32.4586 109.721 32.4141C109.819 32.3696 109.924 32.345 110.031 32.3418C110.188 32.3446 110.34 32.3958 110.468 32.4885C110.595 32.5812 110.691 32.711 110.743 32.8604H111.53C111.468 32.535 111.292 32.2431 111.034 32.0373C110.75 31.7899 110.383 31.6594 110.008 31.6718C109.612 31.673 109.233 31.83 108.95 32.1095C108.667 32.3889 108.503 32.7688 108.493 33.1682C108.485 33.3798 108.522 33.5906 108.599 33.7872C108.677 33.9838 108.796 34.1615 108.946 34.309C109.232 34.5954 109.619 34.7561 110.022 34.756H110.056C110.396 34.7561 110.726 34.641 110.993 34.4293C111.261 34.2175 111.45 33.9213 111.53 33.588H110.743C110.689 33.7351 110.592 33.8621 110.465 33.9525C110.338 34.0428 110.187 34.0922 110.031 34.0942Z" fill="white"/>
<path d="M112.822 32.0201C112.669 31.654 112.447 31.3211 112.169 31.0398C111.892 30.7588 111.561 30.5351 111.199 30.3813C110.823 30.2199 110.419 30.1376 110.011 30.1393C109.603 30.1382 109.198 30.2205 108.823 30.3813C108.46 30.5355 108.13 30.7591 107.852 31.0398C107.574 31.321 107.352 31.6539 107.2 32.0201C107.039 32.3999 106.956 32.8082 106.955 33.221C106.956 33.6332 107.039 34.041 107.2 34.4202C107.352 34.7864 107.574 35.1193 107.852 35.4005C108.13 35.6809 108.46 35.9044 108.823 36.059C109.198 36.2212 109.603 36.3051 110.011 36.3059H110.017C110.423 36.3044 110.825 36.2204 111.199 36.059C111.561 35.9052 111.892 35.6815 112.169 35.4005C112.447 35.1192 112.669 34.7863 112.822 34.4202C112.981 34.0408 113.062 33.6329 113.061 33.221C113.062 32.8084 112.981 32.4 112.822 32.0201ZM112.211 34.1601C112.09 34.4463 111.917 34.7065 111.699 34.9264C111.482 35.1471 111.223 35.3229 110.939 35.4442C110.644 35.5701 110.328 35.6345 110.009 35.6335C109.689 35.6348 109.372 35.5704 109.078 35.4442C108.794 35.3228 108.536 35.147 108.318 34.9264C108.1 34.7067 107.926 34.4466 107.805 34.1601C107.681 33.8628 107.618 33.5435 107.618 33.221C107.618 32.8979 107.682 32.5781 107.805 32.2802C107.925 31.9933 108.1 31.7328 108.318 31.5131C108.536 31.293 108.794 31.1174 109.078 30.9962C109.371 30.8711 109.686 30.8068 110.004 30.8068H110.009C110.329 30.8063 110.645 30.8707 110.939 30.9962C111.224 31.1172 111.482 31.2927 111.7 31.5131C111.918 31.7335 112.091 31.9938 112.212 32.2802C112.336 32.578 112.4 32.8978 112.399 33.221C112.399 33.5433 112.336 33.8624 112.211 34.1593V34.1601Z" fill="white"/>
<path d="M41.9345 13.8984C40.2789 12.9659 37.9542 12.4514 35.0246 12.4514H33.709V17.7884H35.7574C39.2282 17.7884 41.3614 20.1358 41.3614 24.3797C41.3614 28.7199 39.1964 30.9069 35.7256 30.9069H33.709V36.2438H35.4387C42.7944 36.2438 47.3795 32.1926 47.3795 24.3476C47.3795 19.4922 45.2781 15.8269 41.9345 13.8984Z" fill="white"/>
<path d="M27 36.2602H33.0222V30.9232H33.0181V17.8047H33.0222V12.4678H27V36.2602Z" fill="white"/>
<path d="M59.8284 22.1297L59.57 22.0161L58.1802 26.8279C59.3947 27.4387 60.3378 28.1951 60.3378 29.3351C60.3394 29.6353 60.2819 29.9327 60.1688 30.2104C60.0558 30.4879 59.8893 30.7402 59.6792 30.9524C59.469 31.1647 59.2192 31.3327 58.9443 31.4469C58.6693 31.5611 58.3747 31.619 58.0775 31.6175C56.5809 31.6175 55.6255 30.3319 55.5937 28.3704H49.6074V28.8857C49.6074 33.9979 52.9829 36.6985 58.1092 36.6985C63.2038 36.6985 66.3241 33.9979 66.3241 29.4001C66.3241 26.2773 65.0183 24.38 59.8284 22.1297Z" fill="white"/>
<path d="M55.5931 25.7306C56.2306 25.9899 56.9096 26.2458 57.5494 26.529L58.9352 21.7336C56.9544 20.834 55.9746 20.187 55.9746 18.9458C55.9746 17.8848 56.9291 17.0815 58.0442 17.0815C59.2221 17.0815 59.919 17.6922 60.1774 19.3961H66.132C66.1002 16.2131 64.8897 14.3159 62.3742 12.9981C61.0842 12.33 59.6529 11.988 58.2032 12.0014C53.8732 12.0014 49.9883 14.9596 49.9883 19.0108C49.9891 22.0974 51.74 24.1552 55.5931 25.7306Z" fill="white"/>
<path d="M81.0326 21.0038C81.0326 22.7406 80.1848 23.8024 78.7274 24.2139L81.6831 27.9648C84.8694 27.0552 86.7964 24.1431 86.7964 20.6466C86.7964 17.2719 85.0129 14.4734 82.4656 13.3153C81.2241 12.7688 79.3453 12.4478 76.8933 12.4478H75.5215V17.7847H77.2439C79.5042 17.7888 81.0326 18.9461 81.0326 21.0038Z" fill="white"/>
<path d="M84.1699 32.2367L82.9521 30.691L80.9387 28.1394H80.9436L77.9692 24.3655C77.7078 24.3961 77.4449 24.4111 77.1818 24.4107H74.9524V24.3943H74.8366V12.4503H68.8145V36.2444H74.8366V28.5567H75.016L80.461 36.2411H87.3391L84.1715 32.2318L84.1699 32.2367Z" fill="white"/>
<path d="M103.847 12.4514L99.5552 27.2976L99.0286 29.138H99.0229L96.9688 36.2438H102.117L110.013 12.4514H103.847Z" fill="white"/>
<path d="M94.2181 12.4514H88.041L95.9062 36.2438H96.2518L98.6369 27.9931L94.2181 12.4514Z" fill="white"/>
</svg>
