<svg width="1em" height="1em" viewBox="0 0 140 48" fill="none" xmlns="http://www.w3.org/2000/svg">
<path d="M55.1054 20.8375C54.0568 20.0396 52.7751 19.6084 51.4574 19.6104C50.594 19.5885 49.7352 19.7447 48.9348 20.0693C48.1343 20.3938 47.4092 20.8797 46.8047 21.4966C46.2011 22.1101 45.7272 22.8388 45.4112 23.6393C45.0952 24.4398 44.9436 25.2957 44.9654 26.156C44.9423 27.0286 45.093 27.897 45.4088 28.7107C45.7246 29.5245 46.1991 30.2672 46.8047 30.8958C47.4245 31.5179 48.1652 32.0062 48.9811 32.3306C49.7971 32.6551 50.6709 32.8087 51.5485 32.7821C52.8286 32.7746 54.075 32.3707 55.1161 31.6259V32.4431H58.9154V19.9386H55.1054V20.8362V20.8375ZM54.3686 23.7205C54.9928 24.3984 55.3251 25.2946 55.2929 26.2163C55.326 27.1364 54.9937 28.0322 54.3686 28.7081C54.056 29.0158 53.6835 29.2559 53.2742 29.4135C52.8649 29.5712 52.4275 29.643 51.9893 29.6244C51.5646 29.6356 51.1425 29.5566 50.7506 29.3926C50.3587 29.2287 50.006 28.9835 49.7159 28.6733C49.0999 27.9828 48.7778 27.0791 48.8183 26.1547C48.7933 25.2581 49.1237 24.388 49.7373 23.7339C50.0313 23.4283 50.3855 23.1869 50.7775 23.0251C51.1695 22.8632 51.5908 22.7843 52.0147 22.7934C52.4497 22.7781 52.8831 22.8526 53.2881 23.0121C53.6931 23.1716 54.0608 23.4127 54.3686 23.7205ZM69.8981 19.8327C68.7782 19.8305 67.6862 20.1822 66.778 20.8375V19.9346H62.9961V32.4431H66.778V26.779C66.778 25.3696 66.9615 24.3609 67.3246 23.8223C67.6876 23.2824 68.2409 23.0788 69.0876 23.0788C69.8552 23.0788 70.3764 23.2583 70.6443 23.6173C70.8493 23.8853 71.0958 24.4921 71.0958 25.8626V32.4431H74.8817V25.2075C74.8817 23.4204 74.4825 22.0995 73.6974 21.285C72.7838 20.3217 71.5044 19.8327 69.8981 19.8327ZM88.2704 20.2909C87.2527 19.5367 86.0135 19.1414 84.7471 19.1669C83.8773 19.1363 83.0115 19.298 82.2114 19.6405C81.4114 19.983 80.6967 20.4978 80.1185 21.1483C79.0492 22.3839 78.4776 23.9731 78.5149 25.6068C78.4919 26.4348 78.6332 27.2592 78.9307 28.0323C79.2283 28.8054 79.6762 29.5118 80.2485 30.1107C81.2964 31.1457 82.6759 31.7778 84.144 31.8957C85.6122 32.0135 87.0748 31.6097 88.2745 30.7551V31.5482C88.2745 33.7239 87.393 34.7206 85.5013 34.7206C85.0724 34.7495 84.6426 34.6811 84.2438 34.5206C83.845 34.3601 83.4877 34.1115 83.1984 33.7935C82.9471 33.4572 82.7837 33.0635 82.7228 32.6481L82.6666 32.356H79.0159L79.0615 32.7472C79.1237 33.4792 79.339 34.1899 79.6935 34.8334C80.048 35.4768 80.5337 36.0386 81.1192 36.4823C82.258 37.353 83.7236 37.7951 85.4732 37.7951C87.5524 37.7951 89.2109 37.1521 90.4072 35.8941C91.0466 35.235 91.4936 34.4137 91.7 33.5189C91.7764 33.1491 91.8313 32.774 91.8661 32.3976C91.905 31.9783 91.9224 31.492 91.9224 30.9454V19.4844H88.2704V20.2909ZM87.4988 23.1391C87.7974 23.4642 88.0285 23.8453 88.1787 24.2604C88.3288 24.6755 88.3951 25.1163 88.3736 25.5572C88.4078 26.4067 88.1219 27.2381 87.5725 27.8869C87.2728 28.1899 86.9161 28.4304 86.5229 28.5946C86.1296 28.7587 85.7077 28.8432 85.2816 28.8432C84.8555 28.8432 84.4336 28.7587 84.0404 28.5946C83.6472 28.4304 83.2904 28.1899 82.9908 27.8869C82.4555 27.2311 82.1799 26.4015 82.2164 25.5558C82.18 24.702 82.4552 23.864 82.9908 23.198C83.2719 22.873 83.6236 22.6165 84.019 22.4482C84.4144 22.2798 84.8431 22.2041 85.2722 22.2267C85.6866 22.2138 86.0991 22.2884 86.4828 22.4456C86.8664 22.6028 87.2126 22.8391 87.4988 23.1391ZM100.476 11.2146H96.2643V32.419H100.476V11.2159V11.2146ZM42.8286 11.0002H37.5958L34.6257 15.2832L37.3439 19.1669L42.8272 11.0002H42.8286ZM43.2827 32.3949L28.912 11.0002H23.7047L30.4861 21.2742L23 32.419H28.1846L33.1682 25.1754L38.1477 32.419L43.2841 32.3949H43.2827ZM117.253 25.4781C117.253 23.332 116.664 21.6226 115.491 20.4008C114.318 19.1763 112.689 18.5252 110.673 18.5252C108.656 18.5252 107.061 19.1736 105.827 20.453C104.593 21.7324 104.022 23.4311 104.022 25.4929C104.022 27.5546 104.649 29.2681 105.887 30.5327C107.124 31.7987 108.79 32.4431 110.821 32.4431C111.484 32.4471 112.148 32.3761 112.795 32.2288C113.401 32.0814 113.983 31.8443 114.519 31.5228C115.064 31.1952 115.562 30.7945 115.999 30.3318C116.37 29.9383 116.707 29.5139 117.007 29.0631L113.877 27.3537C113.529 27.8869 113.101 28.3625 112.608 28.763C112.109 29.0846 111.523 29.2426 110.93 29.2185C110.536 29.2334 110.144 29.1695 109.775 29.0308C109.407 28.8921 109.07 28.6813 108.784 28.4107C108.274 27.8865 107.952 27.2089 107.867 26.4829H117.21L117.253 25.4781ZM107.942 23.8183C108.086 23.1595 108.45 22.5696 108.975 22.1466C109.5 21.7235 110.154 21.4929 110.829 21.4929C111.503 21.4929 112.157 21.7235 112.682 22.1466C113.207 22.5696 113.571 23.1595 113.715 23.8183H107.941H107.942Z" fill="white"/>
</svg>
