<svg width="1em" height="1em" viewBox="0 0 52 48" fill="none" xmlns="http://www.w3.org/2000/svg">
<g clip-path="url(#clip0_4210_104170)">
<path d="M17.5801 38.6481L7.7242 21.4372C7.22474 20.565 7.22474 19.4859 7.7242 18.6137L17.5801 1.41177C18.0796 0.539528 19.0072 0 20.0062 0H39.718C40.717 0 41.6446 0.539528 42.1441 1.41177L51.9999 18.6227L47.1566 21.4462L38.0945 5.64706H21.6116L13.3702 20.0345L22.4144 35.8338L17.5712 38.6571L17.5801 38.6481Z" fill="white"/>
<path d="M31.9849 48H12.2819C11.283 48 10.3554 47.4606 9.85588 46.5883L0 29.3774L4.84322 26.5538L13.8874 42.353H30.3614L38.6031 27.9656L29.5588 12.1664L34.402 9.3429L44.2578 26.5538C44.7573 27.4261 44.7573 28.5051 44.2578 29.3774L34.402 46.5883C33.9026 47.4606 32.9749 48 31.976 48H31.9849Z" fill="white"/>
</g>
<defs>
<clipPath id="clip0_4210_104170">
<rect width="52" height="48" fill="white"/>
</clipPath>
</defs>
</svg>
