<svg width="1em" height="1em" viewBox="0 0 48 48" fill="none" xmlns="http://www.w3.org/2000/svg">
<path fill-rule="evenodd" clip-rule="evenodd" d="M24 48C37.2548 48 48 37.2548 48 24C48 10.7452 37.2548 0 24 0C10.7452 0 0 10.7452 0 24C0 37.2548 10.7452 48 24 48ZM7.2002 15.2H12.0002L18.0002 26.4L19.2002 28.6399L20.4002 26.4L20.8002 25.6533L23.2002 30.1333L19.2002 37.5999L7.2002 15.2ZM22.8002 26.4L21.6002 24.16L16.8002 15.2H21.6002L24.0002 19.68L26.4002 24.16L27.6002 26.4L28.8002 28.6399L30.0002 26.4L36.0002 15.2H40.8002L28.8002 37.5999L25.8002 31.9999L24.0002 28.6399L22.8002 26.4ZM27.2002 22.6666L31.2002 15.2H26.4002L24.8002 18.1866L27.2002 22.6666Z" fill="white"/>
</svg>
