<svg width="1em" height="1em" viewBox="0 0 48 48" fill="none" xmlns="http://www.w3.org/2000/svg">
<g clip-path="url(#clip0_4210_104132)">
<path fill-rule="evenodd" clip-rule="evenodd" d="M21.6791 15.6037L19.4008 13.7832L19.4031 13.7812L19.4008 13.7826L25.4549 8.63875L25.4623 8.63879C25.9429 6.60614 26.5524 5.13226 27.2907 4.21003C29.1465 1.88631 30.7891 1.14987 32.7413 1.02801C33.7955 0.444825 34.6021 0.260414 34.8538 0.202855C34.8768 0.197613 34.8951 0.193423 34.9086 0.19008C36.0019 -0.084528 38.4251 -0.193863 40.2711 0.802864C40.9322 1.16138 41.7865 1.6928 42.5366 2.79377C42.9104 3.36079 43.3223 4.26344 43.6579 5.41018C43.2663 4.83045 42.7578 4.27615 42.1349 3.75236C40.622 2.48357 39.5617 2.25473 38.4073 2.25473C37.7554 2.25473 37.1824 2.34788 36.6768 2.50497C37.1861 3.01154 37.6655 3.64906 38.1021 4.42107H38.0996C37.5097 3.84388 36.9656 3.49045 36.3451 3.37095C35.925 3.29068 35.5197 3.26941 35.1404 3.28684C34.3112 3.90058 33.7635 4.66774 33.3575 5.23639L33.355 5.23982C32.8261 5.98228 32.2312 7.11631 31.5751 8.647C31.7949 8.80815 31.9997 8.9608 32.1895 9.10493C32.7445 9.03344 33.1609 8.92046 33.4388 8.77133C33.749 8.60097 34.1762 8.16872 34.7254 7.46694C34.9619 8.26534 34.9619 8.96203 34.7254 9.55193C34.5793 9.91647 34.3322 10.3033 33.9835 10.7125C35.3657 12.3739 35.9583 13.6865 36.353 14.7568C37.9695 18.4632 37.9984 21.9847 36.4469 25.3191C36.261 25.7186 36.0766 26.1 35.8938 26.4633L42.0106 30.5312C42.1886 30.905 42.1886 31.1974 42.0106 31.4135C41.8352 31.6296 39.6993 34.124 35.6056 38.8966C35.0412 38.3728 34.2148 38.3728 33.1291 38.8966C32.0459 39.4204 31.1916 39.489 30.5712 39.1026L31.3721 36.3005L34.6191 37.0048L40.9097 31.4135C36.4346 31.7466 33.7622 31.7466 32.8926 31.4135C32.7668 31.3655 32.6431 31.3128 32.5215 31.2555C32.3519 31.3888 32.184 31.5026 32.0176 31.5969C31.7996 31.7524 31.5759 31.8997 31.3465 32.0389L25.6789 42.896L27.53 44.1673C28.3767 44.1292 28.9005 44.2004 29.1039 44.3784C29.3607 44.6047 29.5768 44.9327 29.7472 45.3649L26.8663 46.232L24.9721 43.1045L26.0172 33.7316C24.6399 33.8712 23.1456 33.846 21.5341 33.6565C20.1634 33.4944 18.947 33.226 17.8853 32.8511C18.2084 33.5107 18.2533 34.3146 17.7051 35.4335L17.7025 35.436L11.6561 43.8777C13.8784 44.7295 15.4065 45.388 16.2405 45.8559C16.4532 45.974 16.8266 45.9968 17.2683 46.0238C17.8824 46.0614 18.6286 46.1071 19.2587 46.428C19.7214 46.6645 20.2783 47.3027 20.9292 48.3452H17.2016C17.194 47.8265 17.0669 47.44 16.8177 47.1857C16.5711 46.9314 16.0752 46.6797 15.3277 46.428L10.2347 44.61L11.1933 38.444C11.2086 38.3474 11.1526 38.2533 11.0611 38.2177C10.978 38.1859 10.896 38.1529 10.815 38.1188L6.43559 41.3933C6.4931 44.5762 6.45226 46.1807 6.31549 46.209C6.42658 46.2083 7.81939 46.2181 8.77739 47.0253C9.02657 47.2338 9.36983 47.6406 9.81226 48.2483H6.5907C6.39745 48.2153 6.23981 48.0322 6.11776 47.6966C5.99571 47.3609 5.76178 47.0329 5.41344 46.7126C5.47701 45.8557 5.47701 45.0497 5.41344 44.2945C5.34987 43.5419 5.16934 42.451 4.86931 41.0195L7.68581 35.5512C7.6079 35.4337 7.53285 35.3131 7.46067 35.1894C6.83451 34.116 6.85789 32.7184 7.30419 31.3763C6.59643 31.4752 6.07876 31.4717 5.74427 31.3659C5.40101 31.2592 4.82128 30.9057 4 30.3107C4.67889 30.3362 5.1798 30.2446 5.50526 30.0336C6.00285 29.7123 6.34611 29.3352 6.62511 29.0287C6.86506 28.7651 7.05749 28.5537 7.2597 28.4749V28.4775C7.85173 28.2442 8.48529 28.2088 9.16039 28.3659C9.3752 28.152 9.60101 27.9554 9.83552 27.7801C11.2518 26.7223 13.3393 25.8527 16.0981 25.1814C16.1378 25.1721 16.1818 25.1756 16.2183 25.1881C20.9465 23.2864 24.4065 21.7719 26.594 20.6431C27.2855 20.2864 28.0169 19.8826 28.788 19.4317C29.7718 18.3012 30.2631 17.0249 30.2631 15.6037C30.2631 13.7298 27.4026 13.7273 21.6791 15.6037Z" fill="white"/>
</g>
<defs>
<clipPath id="clip0_4210_104132">
<rect width="48" height="48" fill="white"/>
</clipPath>
</defs>
</svg>
