<svg width="1em" height="1em" viewBox="0 0 50 63" fill="none" xmlns="http://www.w3.org/2000/svg">
<path fill-rule="evenodd" clip-rule="evenodd" d="M50 0.25H0V49.2298H50V0.25ZM24.9999 49.2301H0L24.9999 62.25V49.2301ZM25.0001 49.2301H50L25.0001 62.25V49.2301Z" fill="#5E5FF5"/>
<path fill-rule="evenodd" clip-rule="evenodd" d="M50 0.25H0V49.2298H50V0.25ZM24.9999 49.2301H0L24.9999 62.25V49.2301ZM25.0001 49.2301H50L25.0001 62.25V49.2301Z" fill="url(#paint0_angular_1949_31143)" style="mix-blend-mode:multiply"/>
<path opacity="0.16" fill-rule="evenodd" clip-rule="evenodd" d="M2.5 41.4062V38.5938L16.3064 46.25H13.972L2.5 41.4062ZM2.5 42.5V46.25H10.0987L2.5 42.5ZM10.0987 46.25H2.5L25 57.8125L47.5 46.2501H41.8124L33.2812 50.4688L25 55.9375L14.5312 48.4375L10.0987 46.25ZM41.8125 46.25H47.5V43.4375L41.8125 46.25ZM47.5 41.7188V38.2812L41.7188 43.2812L36.5446 46.25H39.3145L47.5 41.7188ZM36.5445 46.2501H39.3144L30 51.4062L32.1875 48.75L36.5445 46.2501ZM33.4688 46.25L41.7188 41.875L47.5 36.25V31.25L43.125 38.5938L30.1562 45.625L29.8181 46.25H33.4688ZM29.8181 46.2501H33.4686L31.4062 47.3438L25 55.1562L29.8181 46.2501ZM16.3064 46.25L19.6875 48.125L25 55.1562L16.5625 47.3438L13.9721 46.25H16.3064Z" fill="white"/>
<path fill-rule="evenodd" clip-rule="evenodd" d="M12.5 15.8334H7.5L20 39.1667L24.1667 31.3889L21.6667 26.7223L21.25 27.5L20 29.8334L18.75 27.5L12.5 15.8334ZM22.5 25.1667L23.75 27.5L25 29.8334L26.875 33.3334L30 39.1667L42.5 15.8334H37.5L31.25 27.5L30 29.8334L28.75 27.5L27.5 25.1667L25 20.5L22.5 15.8334H17.5L22.5 25.1667ZM32.5 15.8334L28.3333 23.6112L25.8333 18.9445L27.5 15.8334H32.5Z" fill="white"/>
<defs>
<radialGradient id="paint0_angular_1949_31143" cx="0" cy="0" r="1" gradientUnits="userSpaceOnUse" gradientTransform="translate(25 31.715) rotate(90) scale(30.225 25)">
<stop stop-color="#5E5FF5" stop-opacity="0.4"/>
<stop offset="1" stop-color="#5E5FF5" stop-opacity="0"/>
</radialGradient>
</defs>
</svg>
