<svg width="1em" height="1em" viewBox="0 0 186 80" fill="none" xmlns="http://www.w3.org/2000/svg">
<path d="M42.1196 47.847H42.4955V45.3867H42.1196V47.847Z" fill="white"/>
<path d="M44.3921 47.846V45.2148L46.169 47.0942V45.3857H46.5449V47.9998L44.768 46.1204V47.846H44.3921Z" fill="white"/>
<path d="M48.4414 47.8456V45.4023H48.954C49.2103 45.4023 49.3982 45.4194 49.5349 45.4707C49.6886 45.5219 49.8253 45.6074 49.962 45.7099C50.2183 45.932 50.3379 46.2566 50.3379 46.6154C50.3379 46.9742 50.2012 47.2988 49.9449 47.5209C49.8082 47.6405 49.6716 47.726 49.5178 47.7601C49.3982 47.8114 49.1932 47.8285 48.954 47.8285H48.4414V47.8456ZM48.8173 47.5039H48.9881C49.159 47.5039 49.2786 47.4868 49.3982 47.4526C49.5178 47.4013 49.6032 47.3501 49.6886 47.2817C49.8766 47.1109 49.962 46.9059 49.962 46.6325C49.962 46.3591 49.8766 46.1541 49.6886 45.9832C49.5349 45.8295 49.2957 45.7611 48.9711 45.7611H48.8002V47.5039H48.8173Z" fill="white"/>
<path d="M51.9951 46.6003C51.9951 46.2585 52.1147 45.9681 52.371 45.7118C52.6273 45.4555 52.9177 45.3359 53.2765 45.3359C53.6182 45.3359 53.9087 45.4555 54.165 45.7118C54.4212 45.951 54.5408 46.2585 54.5408 46.6003C54.5408 46.9591 54.4212 47.2495 54.165 47.4887C53.9087 47.745 53.6182 47.8646 53.2424 47.8646C52.9348 47.8646 52.6444 47.7621 52.3881 47.54C52.1489 47.3178 51.9951 46.9932 51.9951 46.6003ZM52.371 46.6173C52.371 46.8907 52.4735 47.0957 52.6614 47.2837C52.8323 47.4545 53.0373 47.54 53.2936 47.54C53.5499 47.54 53.7549 47.4545 53.9429 47.2666C54.1137 47.0957 54.1991 46.8736 54.1991 46.6173C54.1991 46.3611 54.1137 46.139 53.9429 45.9681C53.772 45.7802 53.5499 45.6947 53.2936 45.6947C53.0373 45.6947 52.8323 45.7802 52.6614 45.9681C52.4735 46.139 52.371 46.344 52.371 46.6173Z" fill="white"/>
<path d="M56.3516 47.846V45.2148L58.1284 47.0942V45.3857H58.5043V47.9998L56.7274 46.1204V47.846H56.3516Z" fill="white"/>
<path d="M61.7506 45.7284H60.7768V46.3264H61.7335V46.6681H60.7768V47.5053H61.7506V47.847H60.4009V45.3867H61.7506V45.7284Z" fill="white"/>
<path d="M64.9459 45.7465L64.6384 45.9344C64.5871 45.8319 64.5358 45.7806 64.4846 45.7465C64.4333 45.7123 64.365 45.6952 64.2796 45.6952C64.16 45.6952 64.0916 45.7294 64.0233 45.7806C63.9549 45.8319 63.9208 45.9002 63.9208 45.9857C63.9208 46.1053 64.0062 46.1907 64.1771 46.2761L64.4333 46.3786C64.6384 46.447 64.775 46.5495 64.8605 46.6691C64.963 46.7887 64.9972 46.9424 64.9972 47.0962C64.9972 47.3183 64.9288 47.5063 64.775 47.66C64.6213 47.7967 64.4333 47.8651 64.2112 47.8651C64.0062 47.8651 63.8353 47.8138 63.6816 47.6771C63.5449 47.5575 63.4595 47.3867 63.4253 47.1475L63.8012 47.062C63.8183 47.1987 63.8524 47.3012 63.8866 47.3525C63.9549 47.455 64.0745 47.5063 64.2112 47.5063C64.3308 47.5063 64.4162 47.4721 64.5017 47.3867C64.57 47.3012 64.6213 47.2158 64.6213 47.0962C64.6213 47.062 64.6042 47.0108 64.5871 46.9766C64.57 46.9424 64.5529 46.9083 64.5358 46.857C64.5017 46.8228 64.4675 46.8058 64.4162 46.7716C64.3821 46.7374 64.3137 46.7203 64.2625 46.6862L64.0404 46.5836C63.6987 46.447 63.5278 46.2249 63.5278 45.9515C63.5278 45.7635 63.5961 45.6098 63.7328 45.4902C63.8695 45.3535 64.0404 45.2852 64.2625 45.2852C64.57 45.3364 64.775 45.4731 64.9459 45.7465Z" fill="white"/>
<path d="M66.7739 47.847H67.1498V45.3867H66.7739V47.847Z" fill="white"/>
<path d="M70.4815 47.249H69.4222L69.1488 47.847H68.7559L69.9689 45.25L71.1478 47.847H70.7378L70.4815 47.249ZM70.3277 46.9073L69.9689 46.0701L69.576 46.9073H70.3277Z" fill="white"/>
<path d="M75.0942 47.8456V45.4023H75.6068C75.846 45.4023 76.051 45.4194 76.1877 45.4707C76.3415 45.5219 76.4782 45.6074 76.5978 45.7099C76.854 45.932 76.9907 46.2566 76.9907 46.6154C76.9907 46.9742 76.854 47.2988 76.5978 47.5209C76.4611 47.6405 76.3244 47.726 76.1877 47.7601C76.0681 47.8114 75.8631 47.8285 75.6068 47.8285H75.0942V47.8456ZM75.453 47.5039H75.6068C75.7777 47.5039 75.9143 47.4868 76.0339 47.4526C76.1364 47.4013 76.239 47.3501 76.3244 47.2817C76.4952 47.1109 76.5978 46.9059 76.5978 46.6325C76.5978 46.3591 76.5123 46.1541 76.3244 45.9832C76.1535 45.8295 75.9314 45.7611 75.6068 45.7611H75.453V47.5039Z" fill="white"/>
<path d="M78.751 47.847H79.1269V45.3867H78.751V47.847Z" fill="white"/>
<path d="M82.3048 46.5646H83.3129V46.6501C83.3129 46.838 83.2958 47.0088 83.2616 47.1455C83.2103 47.2651 83.142 47.3847 83.0395 47.5043C82.8174 47.7606 82.5269 47.8802 82.1681 47.8802C81.8264 47.8802 81.536 47.7606 81.2797 47.5043C81.0405 47.2651 80.9209 46.9576 80.9209 46.6159C80.9209 46.2571 81.0405 45.9666 81.2968 45.7274C81.536 45.4712 81.8435 45.3516 82.2023 45.3516C82.3902 45.3516 82.5782 45.3857 82.732 45.4712C82.9028 45.5395 83.0566 45.6762 83.2103 45.847L82.9541 46.1033C82.749 45.83 82.5098 45.7104 82.2194 45.7104C81.9631 45.7104 81.741 45.7958 81.5701 45.9837C81.3993 46.1546 81.3139 46.3767 81.3139 46.633C81.3139 46.9234 81.4164 47.1284 81.6043 47.3164C81.7923 47.4702 81.9802 47.5556 82.2023 47.5556C82.3902 47.5556 82.5611 47.5043 82.6978 47.3676C82.8345 47.248 82.9199 47.0943 82.937 46.9234H82.3219V46.5646H82.3048Z" fill="white"/>
<path d="M85.0894 47.847H85.4482V45.3867H85.0894V47.847Z" fill="white"/>
<path d="M88.0452 45.7284V47.847H87.6693V45.7284H87.1055V45.3867H88.5919V45.7284H88.0452Z" fill="white"/>
<path d="M91.5479 47.249H90.4886L90.2152 47.847H89.8223L91.0353 45.25L92.2142 47.847H91.8042L91.5479 47.249ZM91.3941 46.9073L91.0353 46.0701L90.6424 46.9073H91.3941Z" fill="white"/>
<path d="M94.2133 45.3867V47.5053H94.9309V47.847H93.8374V45.3867H94.2133Z" fill="white"/>
<path d="M100.347 47.249H99.3045L99.0311 47.847H98.6382L99.8512 45.25L101.013 47.847H100.62L100.347 47.249ZM100.193 46.9073L99.8342 46.0701L99.4583 46.9073H100.193Z" fill="white"/>
<path d="M104.02 45.7465L103.713 45.9344C103.661 45.8319 103.593 45.7806 103.559 45.7465C103.508 45.7123 103.422 45.6952 103.337 45.6952C103.234 45.6952 103.149 45.7294 103.08 45.7806C103.012 45.8319 102.978 45.9002 102.978 45.9857C102.978 46.1053 103.063 46.1907 103.251 46.2761L103.49 46.3786C103.695 46.447 103.832 46.5495 103.935 46.6691C104.02 46.7887 104.071 46.9424 104.071 47.0962C104.071 47.3183 104.003 47.5063 103.849 47.66C103.695 47.7967 103.508 47.8651 103.285 47.8651C103.08 47.8651 102.91 47.8138 102.756 47.6771C102.602 47.5404 102.534 47.3867 102.5 47.1475L102.875 47.062C102.892 47.1987 102.91 47.3012 102.961 47.3525C103.046 47.455 103.166 47.5063 103.303 47.5063C103.422 47.5063 103.508 47.4721 103.593 47.3867C103.661 47.3012 103.713 47.2158 103.713 47.0962C103.713 47.062 103.713 47.0108 103.695 46.9766C103.678 46.9424 103.661 46.9083 103.627 46.857C103.593 46.8228 103.576 46.8058 103.525 46.7716C103.49 46.7374 103.422 46.7203 103.371 46.6862L103.132 46.5836C102.79 46.447 102.619 46.2249 102.619 45.9515C102.619 45.7635 102.687 45.6098 102.841 45.4902C102.978 45.3535 103.166 45.2852 103.371 45.2852C103.644 45.3364 103.866 45.4731 104.02 45.7465Z" fill="white"/>
<path d="M107.232 45.7465L106.924 45.9344C106.873 45.8319 106.805 45.7806 106.754 45.7465C106.719 45.7123 106.634 45.6952 106.549 45.6952C106.446 45.6952 106.361 45.7294 106.292 45.7806C106.224 45.8319 106.19 45.9002 106.19 45.9857C106.19 46.1053 106.275 46.1907 106.463 46.2761L106.702 46.3786C106.907 46.447 107.044 46.5495 107.147 46.6691C107.232 46.7887 107.283 46.9424 107.283 47.0962C107.283 47.3183 107.215 47.5063 107.061 47.66C106.924 47.7967 106.719 47.8651 106.497 47.8651C106.292 47.8651 106.104 47.8138 105.968 47.6771C105.831 47.5575 105.746 47.3867 105.711 47.1475L106.087 47.062C106.104 47.1987 106.121 47.3012 106.173 47.3525C106.258 47.455 106.361 47.5063 106.514 47.5063C106.634 47.5063 106.719 47.4721 106.805 47.3867C106.873 47.3012 106.924 47.2158 106.924 47.0962C106.924 47.062 106.924 47.0108 106.907 46.9766C106.89 46.9424 106.873 46.9083 106.839 46.857C106.805 46.8228 106.788 46.8058 106.737 46.7716C106.685 46.7374 106.634 46.7203 106.566 46.6862L106.344 46.5836C106.002 46.447 105.831 46.2249 105.831 45.9515C105.831 45.7635 105.899 45.6098 106.053 45.4902C106.19 45.3535 106.361 45.2852 106.583 45.2852C106.856 45.3364 107.078 45.4731 107.232 45.7465Z" fill="white"/>
<path d="M110.41 45.7284H109.419V46.3264H110.376V46.6681H109.419V47.5053H110.41V47.847H109.061V45.3867H110.41V45.7284Z" fill="white"/>
<path d="M112.887 45.7284V47.847H112.512V45.7284H111.965V45.3867H113.451V45.7284H112.887Z" fill="white"/>
<path d="M118.765 45.7284H117.791V46.3264H118.748V46.6681H117.791V47.5053H118.765V47.847H117.415V45.3867H118.765V45.7284Z" fill="white"/>
<path d="M121.089 46.5656L120.405 45.3867H120.832L121.294 46.2239L121.789 45.3867H122.216L121.499 46.5656L122.25 47.847H121.823L121.277 46.9073L120.73 47.847H120.303L121.089 46.5656Z" fill="white"/>
<path d="M125.633 45.5211V45.9653C125.411 45.7774 125.206 45.692 124.984 45.692C124.728 45.692 124.506 45.7774 124.352 45.9653C124.181 46.1533 124.096 46.3583 124.096 46.6317C124.096 46.8879 124.181 47.093 124.352 47.2638C124.523 47.4518 124.745 47.5372 124.984 47.5372C125.104 47.5372 125.223 47.503 125.309 47.4859C125.36 47.4518 125.411 47.4347 125.462 47.3834C125.514 47.3492 125.582 47.3151 125.633 47.2638V47.7251C125.411 47.8447 125.206 47.896 124.967 47.896C124.625 47.896 124.335 47.7764 124.079 47.5372C123.839 47.2809 123.703 46.9905 123.703 46.6487C123.703 46.3412 123.822 46.0508 124.01 45.8116C124.266 45.5211 124.591 45.3503 124.984 45.3503C125.223 45.3332 125.428 45.4015 125.633 45.5211Z" fill="white"/>
<path d="M127.854 46.3435H128.914V45.3867H129.29V47.847H128.914V46.7023H127.854V47.847H127.479V45.3867H127.854V46.3435Z" fill="white"/>
<path d="M132.638 47.249H131.579L131.306 47.847H130.913L132.126 45.25L133.305 47.847H132.895L132.638 47.249ZM132.467 46.9073L132.109 46.0701L131.716 46.9073H132.467Z" fill="white"/>
<path d="M134.911 47.846V45.2148L136.705 47.0942V45.3857H137.063V47.9998L135.287 46.1204V47.846H134.911Z" fill="white"/>
<path d="M140.258 46.5646H141.266V46.6501C141.266 46.838 141.232 47.0088 141.198 47.1455C141.164 47.2651 141.079 47.3847 140.993 47.5043C140.771 47.7606 140.481 47.8802 140.122 47.8802C139.78 47.8802 139.49 47.7606 139.233 47.5043C138.994 47.2651 138.857 46.9576 138.857 46.6159C138.857 46.2571 138.977 45.9666 139.233 45.7274C139.472 45.4712 139.78 45.3516 140.139 45.3516C140.327 45.3516 140.515 45.3857 140.668 45.4712C140.822 45.5395 140.976 45.6762 141.147 45.847L140.891 46.1033C140.686 45.83 140.429 45.7104 140.156 45.7104C139.9 45.7104 139.678 45.7958 139.507 45.9837C139.336 46.1546 139.25 46.3767 139.25 46.633C139.25 46.9234 139.336 47.1284 139.541 47.3164C139.729 47.4702 139.934 47.5556 140.139 47.5556C140.327 47.5556 140.481 47.5043 140.634 47.3676C140.771 47.248 140.856 47.0943 140.874 46.9234H140.258V46.5646Z" fill="white"/>
<path d="M144.41 45.7284H143.419V46.3264H144.376V46.6681H143.419V47.5053H144.41V47.847H143.061V45.3867H144.41V45.7284Z" fill="white"/>
<path d="M42 31.4102H45.1437V42.7036H42V31.4102ZM44.5116 32.0423H42.6322V42.0885H44.5116V32.0423ZM42.9397 41.1318C42.9397 40.9097 43.0593 40.7217 43.2472 40.585V33.5117C43.0422 33.375 42.9397 33.2041 42.9397 32.9649C42.9397 32.777 42.991 32.6403 43.1276 32.5036C43.2472 32.384 43.401 32.3157 43.5719 32.3157C43.7598 32.3157 43.8965 32.384 44.0332 32.5036C44.1528 32.6232 44.204 32.777 44.204 32.9649C44.204 33.187 44.1015 33.375 43.8965 33.5117V40.585C44.1015 40.7217 44.204 40.8926 44.204 41.1318C44.204 41.3026 44.1528 41.4564 44.0332 41.576C43.9136 41.7127 43.7598 41.7639 43.5719 41.7639C43.401 41.7639 43.2472 41.7127 43.1276 41.576C43.008 41.4735 42.9397 41.3026 42.9397 41.1318Z" fill="white"/>
<path d="M48.1165 41.2167C48.1165 40.9946 48.219 40.8237 48.424 40.687V32.7423H51.1577L59.3074 40.8921H61.1356V32.1101H60.5034V40.2599H59.5808L51.4139 32.1101H47.8089V42.1564H49.6883V33.9895H50.6109L58.7948 42.1564H62.3999V32.5031C62.1948 32.3835 62.0923 32.1956 62.0923 31.9564C62.0923 31.7684 62.1436 31.6318 62.2632 31.4951C62.3999 31.3755 62.5366 31.3242 62.7245 31.3242C62.8954 31.3242 63.0491 31.3755 63.1687 31.4951C63.2883 31.6147 63.3567 31.7684 63.3567 31.9564C63.3567 32.1956 63.2371 32.3835 63.0491 32.5031V42.7885H58.5557L50.423 34.6217H50.3376V42.7885H47.1768V31.4951H51.6531L59.8029 39.6448H59.8712V31.4951H61.7506V41.5413H59.034L50.8672 33.3745H49.0562V40.687C49.2612 40.8066 49.3637 40.9775 49.3637 41.2167C49.3637 41.4046 49.3124 41.5413 49.1928 41.678C49.0732 41.7976 48.9195 41.8659 48.7315 41.8659C48.5607 41.8659 48.4069 41.7976 48.2873 41.678C48.1677 41.5413 48.1165 41.3875 48.1165 41.2167Z" fill="white"/>
<path d="M68.3458 39.7288C68.3458 39.5408 68.397 39.4041 68.5166 39.2674C68.6533 39.1479 68.79 39.0966 68.9779 39.0966C69.2001 39.0966 69.3709 39.1991 69.5076 39.4041H75.5558C75.6925 39.4041 75.8121 39.387 75.8975 39.387C75.983 39.37 76.0342 39.3529 76.0855 39.3016C76.1367 39.2675 76.1538 39.1991 76.1709 39.1137C76.188 39.0283 76.188 38.9087 76.188 38.772V34.9961C76.188 34.6886 76.1538 34.5177 76.0855 34.4494C76.0342 34.3981 75.8463 34.3639 75.5558 34.3639H68.0382V40.6343H76.188C76.4614 40.6343 76.6835 40.6172 76.8372 40.583C77.0081 40.5489 77.1277 40.4976 77.2131 40.4122C77.3156 40.3267 77.3669 40.2071 77.384 40.0363C77.4181 39.8654 77.4352 39.6604 77.4352 39.387V34.3639C77.4352 34.0906 77.4181 33.8685 77.384 33.6976C77.3669 33.5438 77.3156 33.4071 77.2131 33.3046C77.1277 33.2192 77.0081 33.168 76.8372 33.1338C76.6835 33.0996 76.4443 33.0996 76.188 33.0996H66.7739V42.4966H64.8945V31.2031H76.188C76.8202 31.2031 77.3327 31.2544 77.7428 31.3398C78.1357 31.4423 78.4604 31.5961 78.6996 31.8353C78.9217 32.0574 79.0925 32.3991 79.195 32.7921C79.2805 33.185 79.3317 33.7147 79.3317 34.3468V39.37C79.3317 40.0021 79.2805 40.5147 79.195 40.9247C79.0925 41.3348 78.9217 41.6423 78.6996 41.8986C78.4604 42.1207 78.1357 42.2916 77.7428 42.377C77.3327 42.4624 76.8202 42.4966 76.188 42.4966H68.2604C68.1237 42.7016 67.9528 42.8041 67.7136 42.8041C67.5428 42.8041 67.4061 42.7529 67.2694 42.6333C67.1498 42.4966 67.0815 42.3599 67.0815 42.172C67.0815 42.0011 67.1498 41.8473 67.2694 41.7277C67.4061 41.6082 67.5428 41.5398 67.7136 41.5398C67.9528 41.5398 68.1237 41.6423 68.2604 41.8473H76.188C76.7006 41.8473 77.1106 41.8132 77.4352 41.7448C77.7599 41.6765 78.0161 41.5398 78.2041 41.369C78.392 41.181 78.5116 40.9247 78.58 40.6001C78.6483 40.2755 78.6825 39.8654 78.6825 39.3529V34.3298C78.6825 33.8172 78.6483 33.3901 78.58 33.0825C78.5116 32.7579 78.3749 32.5016 78.2041 32.3137C78.0161 32.1087 77.7599 31.9891 77.4352 31.9378C77.1106 31.8695 76.7006 31.8182 76.188 31.8182H65.5267V41.8644H66.1589V32.4504H76.2051C76.581 32.4504 76.9056 32.4845 77.1619 32.5187C77.4011 32.57 77.6061 32.6554 77.7257 32.8092C77.8624 32.9458 77.9649 33.1509 78.0161 33.3901C78.0674 33.6293 78.0845 33.9539 78.0845 34.3468V39.37C78.0845 39.7629 78.0674 40.0876 78.0161 40.3267C77.982 40.5659 77.8795 40.7539 77.7257 40.8906C77.6061 41.0272 77.4011 41.1298 77.1619 41.181C76.9056 41.2152 76.598 41.2494 76.2051 41.2494H67.4232V33.7318H76.2051C76.6151 33.7318 76.8372 33.9368 76.8372 34.3639V39.387C76.8372 39.7971 76.6151 40.0192 76.2051 40.0192H69.5247C69.388 40.2242 69.2171 40.3267 68.995 40.3267C68.8071 40.3267 68.6704 40.2755 68.5337 40.1388C68.4141 40.0534 68.3458 39.8996 68.3458 39.7288Z" fill="white"/>
<path d="M100.842 39.7288C100.842 39.5408 100.894 39.4041 101.013 39.2674C101.15 39.1479 101.287 39.0966 101.475 39.0966C101.697 39.0966 101.885 39.1991 102.004 39.4041H108.07C108.206 39.4041 108.326 39.387 108.411 39.387C108.497 39.37 108.565 39.3529 108.599 39.3016C108.65 39.2675 108.667 39.1991 108.685 39.1137C108.702 39.0283 108.702 38.9087 108.702 38.772V34.9961C108.702 34.6886 108.667 34.5177 108.599 34.4494C108.548 34.3981 108.377 34.3639 108.07 34.3639H100.552V40.6343H108.702C108.975 40.6343 109.197 40.6172 109.351 40.583C109.522 40.5489 109.641 40.4976 109.727 40.4122C109.829 40.3267 109.881 40.2071 109.915 40.0363C109.932 39.8654 109.949 39.6604 109.949 39.387V34.3639C109.949 34.0906 109.932 33.8685 109.915 33.6976C109.881 33.5438 109.829 33.4071 109.727 33.3046C109.641 33.2192 109.522 33.168 109.351 33.1338C109.197 33.0996 108.958 33.0996 108.702 33.0996H99.2876V42.4966H97.4082V31.2031H108.702C109.334 31.2031 109.846 31.2544 110.256 31.3398C110.649 31.4423 110.974 31.5961 111.213 31.8353C111.452 32.0574 111.606 32.3991 111.709 32.7921C111.794 33.185 111.845 33.7147 111.845 34.3468V39.37C111.845 40.0021 111.794 40.5147 111.709 40.9247C111.606 41.3348 111.452 41.6423 111.213 41.8986C110.974 42.1207 110.649 42.2916 110.256 42.377C109.846 42.4624 109.334 42.4966 108.702 42.4966H100.774C100.637 42.7016 100.466 42.8041 100.244 42.8041C100.056 42.8041 99.9198 42.7529 99.7831 42.6333C99.6635 42.4966 99.6122 42.3599 99.6122 42.172C99.6122 42.0011 99.6635 41.8473 99.7831 41.7277C99.9198 41.6082 100.056 41.5398 100.244 41.5398C100.466 41.5398 100.637 41.6423 100.774 41.8473H108.702C109.214 41.8473 109.641 41.8132 109.949 41.7448C110.274 41.6765 110.53 41.5398 110.718 41.369C110.923 41.181 111.042 40.9247 111.094 40.6001C111.162 40.2755 111.213 39.8654 111.213 39.3529V34.3298C111.213 33.8172 111.179 33.3901 111.094 33.0825C111.042 32.7579 110.906 32.5016 110.718 32.3137C110.53 32.1087 110.274 31.9891 109.949 31.9378C109.641 31.8695 109.214 31.8182 108.702 31.8182H98.0404V41.8644H98.6725V32.4504H108.719C109.095 32.4504 109.436 32.4845 109.676 32.5187C109.915 32.57 110.12 32.6554 110.256 32.8092C110.393 32.9458 110.479 33.1509 110.53 33.3901C110.581 33.6293 110.598 33.9539 110.598 34.3468V39.37C110.598 39.7629 110.581 40.0876 110.53 40.3267C110.496 40.5659 110.41 40.7539 110.256 40.8906C110.12 41.0272 109.915 41.1298 109.676 41.181C109.436 41.2152 109.112 41.2494 108.719 41.2494H99.9368V33.7318H108.719C109.129 33.7318 109.351 33.9368 109.351 34.3639V39.387C109.351 39.7971 109.129 40.0192 108.719 40.0192H102.038C101.919 40.2242 101.731 40.3267 101.509 40.3267C101.321 40.3267 101.184 40.2755 101.047 40.1388C100.894 40.0534 100.842 39.8996 100.842 39.7288Z" fill="white"/>
<path d="M126.863 38.9448V40.6021C127.085 40.7388 127.171 40.9097 127.171 41.1488C127.171 41.3197 127.12 41.4735 127 41.5931C126.88 41.7298 126.727 41.781 126.539 41.781C126.368 41.781 126.214 41.7298 126.094 41.5931C125.958 41.4735 125.907 41.3197 125.907 41.1488C125.907 40.9267 126.009 40.7388 126.214 40.6021V39.577H116.8V42.7036H113.673V34.5539C113.673 33.9217 113.708 33.4091 113.793 32.9991C113.895 32.6061 114.049 32.2815 114.288 32.0423C114.511 31.8031 114.835 31.6494 115.245 31.5468C115.655 31.4614 116.168 31.4102 116.8 31.4102H124.967C125.599 31.4102 126.112 31.4614 126.522 31.5468C126.915 31.6494 127.239 31.8031 127.478 32.0423C127.7 32.2644 127.871 32.589 127.974 32.9991C128.059 33.4091 128.093 33.9217 128.093 34.5539V42.7036H124.967V40.8242H118.286C118.167 41.0293 117.996 41.1318 117.757 41.1318C117.569 41.1318 117.432 41.0805 117.295 40.9438C117.176 40.8242 117.125 40.6705 117.125 40.4996C117.125 40.3117 117.176 40.175 117.295 40.0383C117.415 39.9187 117.569 39.8674 117.757 39.8674C117.979 39.8674 118.15 39.97 118.286 40.175H125.599V42.0544H127.478V34.5368C127.478 34.0242 127.444 33.5971 127.376 33.2896C127.308 32.9649 127.171 32.7086 126.983 32.5207C126.795 32.3157 126.539 32.1961 126.214 32.1277C125.889 32.0594 125.479 32.0081 124.967 32.0081H116.8C116.287 32.0081 115.877 32.0594 115.553 32.1277C115.228 32.179 114.989 32.3157 114.784 32.5207C114.596 32.7086 114.476 32.9649 114.391 33.2896C114.323 33.5971 114.288 34.0242 114.288 34.5368V42.0544H116.168V38.9277H126.863V38.9448ZM124.676 36.7408C124.676 36.5187 124.779 36.3478 124.984 36.2112V35.169C124.984 34.8785 124.95 34.7076 124.881 34.6222C124.83 34.571 124.642 34.5368 124.352 34.5368H117.449C117.295 34.5368 117.176 34.5368 117.09 34.5539C117.005 34.571 116.954 34.588 116.902 34.6222C116.851 34.6735 116.834 34.7418 116.834 34.8272C116.817 34.9127 116.8 35.0323 116.8 35.169V37.6805H126.214V34.5539C126.214 34.2805 126.197 34.0584 126.18 33.9046C126.163 33.7338 126.112 33.5971 126.009 33.5117C125.924 33.4262 125.804 33.375 125.633 33.3408C125.462 33.3237 125.24 33.3066 124.984 33.3066H116.817C116.544 33.3066 116.339 33.3237 116.168 33.3408C115.997 33.375 115.86 33.4262 115.775 33.5117C115.689 33.6142 115.638 33.7338 115.604 33.9046C115.57 34.0584 115.57 34.2976 115.57 34.5539V40.6021C115.775 40.7388 115.877 40.9097 115.877 41.1488C115.877 41.3197 115.826 41.4735 115.707 41.5931C115.57 41.7298 115.433 41.781 115.245 41.781C115.074 41.781 114.921 41.7298 114.801 41.5931C114.681 41.4735 114.613 41.3197 114.613 41.1488C114.613 40.9267 114.716 40.7388 114.921 40.6021V34.5539C114.921 34.178 114.955 33.8363 114.989 33.5971C115.04 33.3579 115.126 33.1529 115.279 33.0162C115.416 32.8795 115.604 32.7941 115.843 32.7257C116.082 32.6745 116.407 32.6574 116.8 32.6574H124.967C125.343 32.6574 125.667 32.6916 125.924 32.7257C126.163 32.777 126.368 32.8624 126.487 33.0162C126.624 33.1529 126.727 33.3579 126.778 33.5971C126.829 33.8363 126.846 34.1609 126.846 34.5539V38.3127H116.185V34.5539C116.185 34.1267 116.39 33.9217 116.817 33.9217H124.984C125.394 33.9217 125.616 34.1267 125.616 34.5539V36.2112C125.821 36.3478 125.924 36.5016 125.924 36.7408C125.924 36.9288 125.872 37.0654 125.736 37.2021C125.616 37.3217 125.462 37.373 125.291 37.373C125.103 37.373 124.967 37.3217 124.847 37.2021C124.728 37.0654 124.676 36.9288 124.676 36.7408Z" fill="white"/>
<path d="M140.515 37.9709C140.515 37.8 140.566 37.6462 140.686 37.5266C140.805 37.407 140.959 37.3387 141.147 37.3387C141.318 37.3387 141.471 37.3899 141.591 37.5266C141.728 37.6462 141.779 37.8 141.779 37.9709C141.779 38.0392 141.762 38.0904 141.762 38.1246L144.53 40.8925L142.309 43.1136L137.832 38.6372H136.141L131.664 43.1136L129.443 40.8925L133.288 37.0482L129.443 33.204L131.664 31L134.586 33.9387C134.62 33.9216 134.672 33.9216 134.74 33.9216C134.911 33.9216 135.064 33.9729 135.184 34.0925C135.321 34.2291 135.372 34.3658 135.372 34.5538C135.372 34.7246 135.321 34.8784 135.184 34.998C135.064 35.1176 134.911 35.1859 134.74 35.1859C134.552 35.1859 134.415 35.1347 134.279 34.998C134.159 34.8784 134.108 34.7246 134.108 34.5538C134.108 34.4683 134.108 34.4171 134.125 34.3829L131.647 31.8884L130.315 33.2211L134.159 37.0653L130.315 40.9095L131.647 42.2422L135.867 38.005H138.054L142.292 42.2422L143.624 40.9095L141.301 38.5859C141.266 38.603 141.215 38.603 141.13 38.603C140.942 38.603 140.805 38.5518 140.668 38.4322C140.566 38.2955 140.515 38.1588 140.515 37.9709ZM141.677 33.2211C141.677 33.0503 141.745 32.8965 141.864 32.7769C141.984 32.6573 142.138 32.5889 142.309 32.5889C142.497 32.5889 142.633 32.6402 142.77 32.7769C142.89 32.8965 142.958 33.0503 142.958 33.2211C142.958 33.409 142.89 33.5457 142.77 33.6824C142.633 33.802 142.497 33.8533 142.309 33.8533C142.24 33.8533 142.172 33.8533 142.138 33.8362L138.601 37.3729H135.594L132.228 40.7729C132.262 40.8241 132.28 40.8925 132.28 40.9095C132.28 41.0975 132.211 41.2513 132.092 41.3709C131.972 41.4904 131.818 41.5588 131.63 41.5588C131.459 41.5588 131.323 41.4904 131.186 41.3709C131.066 41.2513 130.998 41.0975 130.998 40.9095C130.998 40.7387 131.066 40.602 131.186 40.4653C131.306 40.3457 131.459 40.2774 131.63 40.2774C131.682 40.2774 131.733 40.2945 131.801 40.3116L135.372 36.7236H138.328L141.694 33.3749C141.694 33.3407 141.677 33.2894 141.677 33.2211ZM141.677 40.8925C141.677 40.8241 141.694 40.7729 141.694 40.7387L138.909 37.9367L143.641 33.2211L142.309 31.8884L138.071 36.1256H134.108L131.818 33.8362C131.767 33.8533 131.733 33.8533 131.664 33.8533C131.477 33.8533 131.34 33.802 131.203 33.6824C131.084 33.5457 131.015 33.409 131.015 33.2211C131.015 33.0503 131.084 32.8965 131.203 32.7769C131.34 32.6573 131.477 32.5889 131.664 32.5889C131.835 32.5889 131.989 32.6402 132.109 32.7769C132.228 32.8965 132.297 33.0503 132.297 33.2211C132.297 33.2553 132.297 33.2724 132.28 33.3065C132.28 33.3407 132.262 33.3578 132.262 33.392L134.381 35.4935H137.832L142.309 31.0171L144.53 33.2211L139.797 37.9538L142.138 40.3116C142.206 40.2774 142.257 40.2774 142.309 40.2774C142.497 40.2774 142.633 40.3457 142.77 40.4653C142.89 40.5849 142.958 40.7387 142.958 40.9095C142.958 41.0975 142.89 41.2342 142.77 41.3709C142.633 41.4904 142.497 41.5588 142.309 41.5588C142.138 41.5588 141.984 41.4904 141.864 41.3709C141.745 41.2171 141.677 41.0804 141.677 40.8925Z" fill="white"/>
<path d="M42 31.4102H45.1437V42.7036H42V31.4102ZM44.5116 32.0423H42.6322V42.0885H44.5116V32.0423ZM42.9397 41.1318C42.9397 40.9097 43.0593 40.7217 43.2472 40.585V33.5117C43.0422 33.375 42.9397 33.2041 42.9397 32.9649C42.9397 32.777 42.991 32.6403 43.1276 32.5036C43.2472 32.384 43.401 32.3157 43.5719 32.3157C43.7598 32.3157 43.8965 32.384 44.0332 32.5036C44.1528 32.6232 44.204 32.777 44.204 32.9649C44.204 33.187 44.1015 33.375 43.8965 33.5117V40.585C44.1015 40.7217 44.204 40.8926 44.204 41.1318C44.204 41.3026 44.1528 41.4564 44.0332 41.576C43.9136 41.7127 43.7598 41.7639 43.5719 41.7639C43.401 41.7639 43.2472 41.7127 43.1276 41.576C43.008 41.4735 42.9397 41.3026 42.9397 41.1318Z" fill="white"/>
<path d="M48.1165 41.2167C48.1165 40.9946 48.219 40.8237 48.424 40.687V32.7423H51.1577L59.3074 40.8921H61.1356V32.1101H60.5034V40.2599H59.5808L51.4139 32.1101H47.8089V42.1564H49.6883V33.9895H50.6109L58.7948 42.1564H62.3999V32.5031C62.1948 32.3835 62.0923 32.1956 62.0923 31.9564C62.0923 31.7684 62.1436 31.6318 62.2632 31.4951C62.3999 31.3755 62.5366 31.3242 62.7245 31.3242C62.8954 31.3242 63.0491 31.3755 63.1687 31.4951C63.2883 31.6147 63.3567 31.7684 63.3567 31.9564C63.3567 32.1956 63.2371 32.3835 63.0491 32.5031V42.7885H58.5557L50.423 34.6217H50.3376V42.7885H47.1768V31.4951H51.6531L59.8029 39.6448H59.8712V31.4951H61.7506V41.5413H59.034L50.8672 33.3745H49.0562V40.687C49.2612 40.8066 49.3637 40.9775 49.3637 41.2167C49.3637 41.4046 49.3124 41.5413 49.1928 41.678C49.0732 41.7976 48.9195 41.8659 48.7315 41.8659C48.5607 41.8659 48.4069 41.7976 48.2873 41.678C48.1677 41.5413 48.1165 41.3875 48.1165 41.2167Z" fill="white"/>
<path d="M68.3458 39.7288C68.3458 39.5408 68.397 39.4041 68.5166 39.2674C68.6533 39.1479 68.79 39.0966 68.9779 39.0966C69.2001 39.0966 69.3709 39.1991 69.5076 39.4041H75.5558C75.6925 39.4041 75.8121 39.387 75.8975 39.387C75.983 39.37 76.0342 39.3529 76.0855 39.3016C76.1367 39.2675 76.1538 39.1991 76.1709 39.1137C76.188 39.0283 76.188 38.9087 76.188 38.772V34.9961C76.188 34.6886 76.1538 34.5177 76.0855 34.4494C76.0342 34.3981 75.8463 34.3639 75.5558 34.3639H68.0382V40.6343H76.188C76.4614 40.6343 76.6835 40.6172 76.8372 40.583C77.0081 40.5489 77.1277 40.4976 77.2131 40.4122C77.3156 40.3267 77.3669 40.2071 77.384 40.0363C77.4181 39.8654 77.4352 39.6604 77.4352 39.387V34.3639C77.4352 34.0906 77.4181 33.8685 77.384 33.6976C77.3669 33.5438 77.3156 33.4071 77.2131 33.3046C77.1277 33.2192 77.0081 33.168 76.8372 33.1338C76.6835 33.0996 76.4443 33.0996 76.188 33.0996H66.7739V42.4966H64.8945V31.2031H76.188C76.8202 31.2031 77.3327 31.2544 77.7428 31.3398C78.1357 31.4423 78.4604 31.5961 78.6996 31.8353C78.9217 32.0574 79.0925 32.3991 79.195 32.7921C79.2805 33.185 79.3317 33.7147 79.3317 34.3468V39.37C79.3317 40.0021 79.2805 40.5147 79.195 40.9247C79.0925 41.3348 78.9217 41.6423 78.6996 41.8986C78.4604 42.1207 78.1357 42.2916 77.7428 42.377C77.3327 42.4624 76.8202 42.4966 76.188 42.4966H68.2604C68.1237 42.7016 67.9528 42.8041 67.7136 42.8041C67.5428 42.8041 67.4061 42.7529 67.2694 42.6333C67.1498 42.4966 67.0815 42.3599 67.0815 42.172C67.0815 42.0011 67.1498 41.8473 67.2694 41.7277C67.4061 41.6082 67.5428 41.5398 67.7136 41.5398C67.9528 41.5398 68.1237 41.6423 68.2604 41.8473H76.188C76.7006 41.8473 77.1106 41.8132 77.4352 41.7448C77.7599 41.6765 78.0161 41.5398 78.2041 41.369C78.392 41.181 78.5116 40.9247 78.58 40.6001C78.6483 40.2755 78.6825 39.8654 78.6825 39.3529V34.3298C78.6825 33.8172 78.6483 33.3901 78.58 33.0825C78.5116 32.7579 78.3749 32.5016 78.2041 32.3137C78.0161 32.1087 77.7599 31.9891 77.4352 31.9378C77.1106 31.8695 76.7006 31.8182 76.188 31.8182H65.5267V41.8644H66.1589V32.4504H76.2051C76.581 32.4504 76.9056 32.4845 77.1619 32.5187C77.4011 32.57 77.6061 32.6554 77.7257 32.8092C77.8624 32.9458 77.9649 33.1509 78.0161 33.3901C78.0674 33.6293 78.0845 33.9539 78.0845 34.3468V39.37C78.0845 39.7629 78.0674 40.0876 78.0161 40.3267C77.982 40.5659 77.8795 40.7539 77.7257 40.8906C77.6061 41.0272 77.4011 41.1298 77.1619 41.181C76.9056 41.2152 76.598 41.2494 76.2051 41.2494H67.4232V33.7318H76.2051C76.6151 33.7318 76.8372 33.9368 76.8372 34.3639V39.387C76.8372 39.7971 76.6151 40.0192 76.2051 40.0192H69.5247C69.388 40.2242 69.2171 40.3267 68.995 40.3267C68.8071 40.3267 68.6704 40.2755 68.5337 40.1388C68.4141 40.0534 68.3458 39.8996 68.3458 39.7288Z" fill="white"/>
<path d="M100.842 39.7288C100.842 39.5408 100.894 39.4041 101.013 39.2674C101.15 39.1479 101.287 39.0966 101.475 39.0966C101.697 39.0966 101.885 39.1991 102.004 39.4041H108.07C108.206 39.4041 108.326 39.387 108.411 39.387C108.497 39.37 108.565 39.3529 108.599 39.3016C108.65 39.2675 108.667 39.1991 108.685 39.1137C108.702 39.0283 108.702 38.9087 108.702 38.772V34.9961C108.702 34.6886 108.667 34.5177 108.599 34.4494C108.548 34.3981 108.377 34.3639 108.07 34.3639H100.552V40.6343H108.702C108.975 40.6343 109.197 40.6172 109.351 40.583C109.522 40.5489 109.641 40.4976 109.727 40.4122C109.829 40.3267 109.881 40.2071 109.915 40.0363C109.932 39.8654 109.949 39.6604 109.949 39.387V34.3639C109.949 34.0906 109.932 33.8685 109.915 33.6976C109.881 33.5438 109.829 33.4071 109.727 33.3046C109.641 33.2192 109.522 33.168 109.351 33.1338C109.197 33.0996 108.958 33.0996 108.702 33.0996H99.2876V42.4966H97.4082V31.2031H108.702C109.334 31.2031 109.846 31.2544 110.256 31.3398C110.649 31.4423 110.974 31.5961 111.213 31.8353C111.452 32.0574 111.606 32.3991 111.709 32.7921C111.794 33.185 111.845 33.7147 111.845 34.3468V39.37C111.845 40.0021 111.794 40.5147 111.709 40.9247C111.606 41.3348 111.452 41.6423 111.213 41.8986C110.974 42.1207 110.649 42.2916 110.256 42.377C109.846 42.4624 109.334 42.4966 108.702 42.4966H100.774C100.637 42.7016 100.466 42.8041 100.244 42.8041C100.056 42.8041 99.9198 42.7529 99.7831 42.6333C99.6635 42.4966 99.6122 42.3599 99.6122 42.172C99.6122 42.0011 99.6635 41.8473 99.7831 41.7277C99.9198 41.6082 100.056 41.5398 100.244 41.5398C100.466 41.5398 100.637 41.6423 100.774 41.8473H108.702C109.214 41.8473 109.641 41.8132 109.949 41.7448C110.274 41.6765 110.53 41.5398 110.718 41.369C110.923 41.181 111.042 40.9247 111.094 40.6001C111.162 40.2755 111.213 39.8654 111.213 39.3529V34.3298C111.213 33.8172 111.179 33.3901 111.094 33.0825C111.042 32.7579 110.906 32.5016 110.718 32.3137C110.53 32.1087 110.274 31.9891 109.949 31.9378C109.641 31.8695 109.214 31.8182 108.702 31.8182H98.0404V41.8644H98.6725V32.4504H108.719C109.095 32.4504 109.436 32.4845 109.676 32.5187C109.915 32.57 110.12 32.6554 110.256 32.8092C110.393 32.9458 110.479 33.1509 110.53 33.3901C110.581 33.6293 110.598 33.9539 110.598 34.3468V39.37C110.598 39.7629 110.581 40.0876 110.53 40.3267C110.496 40.5659 110.41 40.7539 110.256 40.8906C110.12 41.0272 109.915 41.1298 109.676 41.181C109.436 41.2152 109.112 41.2494 108.719 41.2494H99.9368V33.7318H108.719C109.129 33.7318 109.351 33.9368 109.351 34.3639V39.387C109.351 39.7971 109.129 40.0192 108.719 40.0192H102.038C101.919 40.2242 101.731 40.3267 101.509 40.3267C101.321 40.3267 101.184 40.2755 101.047 40.1388C100.894 40.0534 100.842 39.8996 100.842 39.7288Z" fill="white"/>
<path d="M126.863 38.9448V40.6021C127.085 40.7388 127.171 40.9097 127.171 41.1488C127.171 41.3197 127.12 41.4735 127 41.5931C126.88 41.7298 126.727 41.781 126.539 41.781C126.368 41.781 126.214 41.7298 126.094 41.5931C125.958 41.4735 125.907 41.3197 125.907 41.1488C125.907 40.9267 126.009 40.7388 126.214 40.6021V39.577H116.8V42.7036H113.673V34.5539C113.673 33.9217 113.708 33.4091 113.793 32.9991C113.895 32.6061 114.049 32.2815 114.288 32.0423C114.511 31.8031 114.835 31.6494 115.245 31.5468C115.655 31.4614 116.168 31.4102 116.8 31.4102H124.967C125.599 31.4102 126.112 31.4614 126.522 31.5468C126.915 31.6494 127.239 31.8031 127.478 32.0423C127.7 32.2644 127.871 32.589 127.974 32.9991C128.059 33.4091 128.093 33.9217 128.093 34.5539V42.7036H124.967V40.8242H118.286C118.167 41.0293 117.996 41.1318 117.757 41.1318C117.569 41.1318 117.432 41.0805 117.295 40.9438C117.176 40.8242 117.125 40.6705 117.125 40.4996C117.125 40.3117 117.176 40.175 117.295 40.0383C117.415 39.9187 117.569 39.8674 117.757 39.8674C117.979 39.8674 118.15 39.97 118.286 40.175H125.599V42.0544H127.478V34.5368C127.478 34.0242 127.444 33.5971 127.376 33.2896C127.308 32.9649 127.171 32.7086 126.983 32.5207C126.795 32.3157 126.539 32.1961 126.214 32.1277C125.889 32.0594 125.479 32.0081 124.967 32.0081H116.8C116.287 32.0081 115.877 32.0594 115.553 32.1277C115.228 32.179 114.989 32.3157 114.784 32.5207C114.596 32.7086 114.476 32.9649 114.391 33.2896C114.323 33.5971 114.288 34.0242 114.288 34.5368V42.0544H116.168V38.9277H126.863V38.9448ZM124.676 36.7408C124.676 36.5187 124.779 36.3478 124.984 36.2112V35.169C124.984 34.8785 124.95 34.7076 124.881 34.6222C124.83 34.571 124.642 34.5368 124.352 34.5368H117.449C117.295 34.5368 117.176 34.5368 117.09 34.5539C117.005 34.571 116.954 34.588 116.902 34.6222C116.851 34.6735 116.834 34.7418 116.834 34.8272C116.817 34.9127 116.8 35.0323 116.8 35.169V37.6805H126.214V34.5539C126.214 34.2805 126.197 34.0584 126.18 33.9046C126.163 33.7338 126.112 33.5971 126.009 33.5117C125.924 33.4262 125.804 33.375 125.633 33.3408C125.462 33.3237 125.24 33.3066 124.984 33.3066H116.817C116.544 33.3066 116.339 33.3237 116.168 33.3408C115.997 33.375 115.86 33.4262 115.775 33.5117C115.689 33.6142 115.638 33.7338 115.604 33.9046C115.57 34.0584 115.57 34.2976 115.57 34.5539V40.6021C115.775 40.7388 115.877 40.9097 115.877 41.1488C115.877 41.3197 115.826 41.4735 115.707 41.5931C115.57 41.7298 115.433 41.781 115.245 41.781C115.074 41.781 114.921 41.7298 114.801 41.5931C114.681 41.4735 114.613 41.3197 114.613 41.1488C114.613 40.9267 114.716 40.7388 114.921 40.6021V34.5539C114.921 34.178 114.955 33.8363 114.989 33.5971C115.04 33.3579 115.126 33.1529 115.279 33.0162C115.416 32.8795 115.604 32.7941 115.843 32.7257C116.082 32.6745 116.407 32.6574 116.8 32.6574H124.967C125.343 32.6574 125.667 32.6916 125.924 32.7257C126.163 32.777 126.368 32.8624 126.487 33.0162C126.624 33.1529 126.727 33.3579 126.778 33.5971C126.829 33.8363 126.846 34.1609 126.846 34.5539V38.3127H116.185V34.5539C116.185 34.1267 116.39 33.9217 116.817 33.9217H124.984C125.394 33.9217 125.616 34.1267 125.616 34.5539V36.2112C125.821 36.3478 125.924 36.5016 125.924 36.7408C125.924 36.9288 125.872 37.0654 125.736 37.2021C125.616 37.3217 125.462 37.373 125.291 37.373C125.103 37.373 124.967 37.3217 124.847 37.2021C124.728 37.0654 124.676 36.9288 124.676 36.7408Z" fill="white"/>
<path d="M140.515 37.9709C140.515 37.8 140.566 37.6462 140.686 37.5266C140.805 37.407 140.959 37.3387 141.147 37.3387C141.318 37.3387 141.471 37.3899 141.591 37.5266C141.728 37.6462 141.779 37.8 141.779 37.9709C141.779 38.0392 141.762 38.0904 141.762 38.1246L144.53 40.8925L142.309 43.1136L137.832 38.6372H136.141L131.664 43.1136L129.443 40.8925L133.288 37.0482L129.443 33.204L131.664 31L134.586 33.9387C134.62 33.9216 134.672 33.9216 134.74 33.9216C134.911 33.9216 135.064 33.9729 135.184 34.0925C135.321 34.2291 135.372 34.3658 135.372 34.5538C135.372 34.7246 135.321 34.8784 135.184 34.998C135.064 35.1176 134.911 35.1859 134.74 35.1859C134.552 35.1859 134.415 35.1347 134.279 34.998C134.159 34.8784 134.108 34.7246 134.108 34.5538C134.108 34.4683 134.108 34.4171 134.125 34.3829L131.647 31.8884L130.315 33.2211L134.159 37.0653L130.315 40.9095L131.647 42.2422L135.867 38.005H138.054L142.292 42.2422L143.624 40.9095L141.301 38.5859C141.266 38.603 141.215 38.603 141.13 38.603C140.942 38.603 140.805 38.5518 140.668 38.4322C140.566 38.2955 140.515 38.1588 140.515 37.9709ZM141.677 33.2211C141.677 33.0503 141.745 32.8965 141.864 32.7769C141.984 32.6573 142.138 32.5889 142.309 32.5889C142.497 32.5889 142.633 32.6402 142.77 32.7769C142.89 32.8965 142.958 33.0503 142.958 33.2211C142.958 33.409 142.89 33.5457 142.77 33.6824C142.633 33.802 142.497 33.8533 142.309 33.8533C142.24 33.8533 142.172 33.8533 142.138 33.8362L138.601 37.3729H135.594L132.228 40.7729C132.262 40.8241 132.28 40.8925 132.28 40.9095C132.28 41.0975 132.211 41.2513 132.092 41.3709C131.972 41.4904 131.818 41.5588 131.63 41.5588C131.459 41.5588 131.323 41.4904 131.186 41.3709C131.066 41.2513 130.998 41.0975 130.998 40.9095C130.998 40.7387 131.066 40.602 131.186 40.4653C131.306 40.3457 131.459 40.2774 131.63 40.2774C131.682 40.2774 131.733 40.2945 131.801 40.3116L135.372 36.7236H138.328L141.694 33.3749C141.694 33.3407 141.677 33.2894 141.677 33.2211ZM141.677 40.8925C141.677 40.8241 141.694 40.7729 141.694 40.7387L138.909 37.9367L143.641 33.2211L142.309 31.8884L138.071 36.1256H134.108L131.818 33.8362C131.767 33.8533 131.733 33.8533 131.664 33.8533C131.477 33.8533 131.34 33.802 131.203 33.6824C131.084 33.5457 131.015 33.409 131.015 33.2211C131.015 33.0503 131.084 32.8965 131.203 32.7769C131.34 32.6573 131.477 32.5889 131.664 32.5889C131.835 32.5889 131.989 32.6402 132.109 32.7769C132.228 32.8965 132.297 33.0503 132.297 33.2211C132.297 33.2553 132.297 33.2724 132.28 33.3065C132.28 33.3407 132.262 33.3578 132.262 33.392L134.381 35.4935H137.832L142.309 31.0171L144.53 33.2211L139.797 37.9538L142.138 40.3116C142.206 40.2774 142.257 40.2774 142.309 40.2774C142.497 40.2774 142.633 40.3457 142.77 40.4653C142.89 40.5849 142.958 40.7387 142.958 40.9095C142.958 41.0975 142.89 41.2342 142.77 41.3709C142.633 41.4904 142.497 41.5588 142.309 41.5588C142.138 41.5588 141.984 41.4904 141.864 41.3709C141.745 41.2171 141.677 41.0804 141.677 40.8925Z" fill="white"/>
<path d="M95.5456 34.7759L92.0602 31.2734H84.4742L81.1426 34.6734V39.6111L84.4401 42.7036L91.8722 42.6182L94.2129 39.1498V35.3056L91.5134 32.6061L85.021 32.589L82.4752 35.3227L82.5607 39.0986L85.021 41.3538L91.1717 41.3368L92.9144 38.586V35.8523L90.9838 33.9217H85.6019L83.8933 35.8523L84.0129 38.5518L85.6531 40.0553L89.6682 40.0212C89.7707 40.2262 89.9757 40.3458 90.2149 40.3458C90.5737 40.3458 90.8642 40.0553 90.8642 39.7136C90.8642 39.3378 90.5737 39.0644 90.2149 39.0644C89.9416 39.0644 89.7024 39.2352 89.6169 39.4744L85.9265 39.5086L84.628 38.2955L84.5767 36.1257L85.8923 34.5709L90.7275 34.588L92.2652 36.1257V38.4151L90.7788 40.6533L85.3798 40.6875L83.3124 38.8252L83.1757 35.5619L85.3285 33.2383H91.2742L93.5808 35.5619L93.5466 38.7569L91.5989 41.8835L84.7818 42.0031L81.8773 39.3036V34.9297L84.7989 31.9227L91.8381 31.9398L94.9305 35.0322L94.8451 39.3548L93.5124 41.4051C93.5124 41.4051 93.5124 41.4051 93.4953 41.4051C93.1365 41.4051 92.8632 41.6955 92.8632 42.0373C92.8632 42.4131 93.1536 42.6865 93.4953 42.6865C93.8541 42.6865 94.1446 42.396 94.1446 42.0373C94.1446 41.9518 94.1275 41.8835 94.0933 41.7981L95.5114 39.6282L95.5456 34.7759Z" fill="white"/>
</svg>
