<svg width="186" height="80" viewBox="0 0 186 80" fill="none" xmlns="http://www.w3.org/2000/svg">
<g clip-path="url(#clip0_1267_26228)">
<path d="M50.2642 27.9306C48.2951 26.3121 45.5833 25.5 42.1307 25.5H33.5309V26.699H41.9733C44.9078 26.699 47.5639 27.3023 49.1875 28.7005C50.8092 30.1006 52.0394 32.1826 52.0394 34.753C52.0394 37.3234 50.9743 39.0721 49.2873 40.4626C47.6004 41.8532 44.5911 42.4661 41.5799 42.4661H31.8804V43.6651C31.8804 43.6651 40.1367 43.6651 41.6452 43.6651C45.2782 43.6651 48.1166 42.876 50.1586 41.3035C52.2006 39.7291 53.2216 37.5149 53.2216 34.6572C53.2216 31.7996 52.2371 29.5509 50.2642 27.9306Z" fill="white"/>
<path d="M49.5365 29.6661C48.3102 28.7372 46.9015 27.9883 42.9134 27.9883C38.6145 27.9883 38.0867 27.9883 36.2808 27.9883V29.1586C36.2808 29.1586 39.2497 29.1202 42.7657 29.1586C46.1645 29.193 47.412 29.5761 48.5558 30.4208C50.0202 31.501 50.9279 32.8341 50.9279 34.6977C50.9279 36.5613 50.0067 37.768 48.5347 38.8483C47.0301 39.9553 44.7309 39.9668 43.7943 39.9879C43.4412 39.9975 38.8697 39.9879 38.8697 39.9879V41.1582C38.8697 41.1582 41.144 41.1907 42.5507 41.1582C45.7769 41.0854 47.6922 40.8938 49.4732 39.5723C51.1467 38.335 52.0315 36.6993 52.0315 34.6288C52.0315 31.8975 50.6631 30.5223 49.5346 29.6661" fill="white"/>
<path d="M48.9436 31.2134C48.0243 30.6369 47.2164 30.25 43.4068 30.25H38.6396V31.0181H43.2763C46.6502 31.0181 47.9303 31.6176 48.318 31.8531C49.0761 32.3167 50.0759 33.0713 50.0759 34.6093C50.0759 35.5919 49.4925 36.8273 48.6327 37.3119C47.8478 37.7524 46.4142 38.1469 43.8885 38.1469H28.3105V38.915H43.9423C46.988 38.915 48.0339 38.5779 49.1068 37.9861C50.1834 37.3942 50.9012 36.178 50.9012 34.6151C50.9012 32.8702 49.9243 31.8225 48.9436 31.2096" fill="white"/>
<path d="M51.9741 39.6962C50.0031 38.0758 47.2913 37.2656 43.8407 37.2656C39.225 37.2656 40.0273 37.2656 38.087 37.2656V38.4646H43.6795C46.6139 38.4646 49.2719 39.068 50.8956 40.4662C52.5173 41.8663 53.7455 43.9482 53.7455 46.5206C53.7455 49.0929 52.6823 50.8377 50.9954 52.2283C49.3084 53.6188 46.2972 54.2317 43.286 54.2317H33.5903V55.4307C33.5903 55.4307 41.8447 55.4288 43.3551 55.4288C46.9881 55.4288 49.8247 54.6416 51.8667 53.0672C53.9087 51.4947 54.9316 49.2786 54.9316 46.4229C54.9316 43.5671 53.9471 41.3147 51.9741 39.6962Z" fill="white"/>
<path d="M51.2468 41.4357C50.0205 40.5086 48.6118 39.7578 44.6237 39.7578C40.3228 39.7578 37.4134 39.7578 35.6074 39.7578V40.9281C35.6074 40.9281 40.9581 40.8898 44.4759 40.9281C47.8748 40.9626 49.1204 41.3456 50.2642 42.1903C51.7304 43.2725 52.6382 44.6036 52.6382 46.4673C52.6382 48.3309 51.717 49.5395 50.245 50.6197C48.7404 51.7249 46.4412 51.7383 45.5027 51.7593C45.1496 51.767 40.5781 51.7593 40.5781 51.7593V52.9277C40.5781 52.9277 42.8523 52.9583 44.261 52.9277C47.4852 52.853 49.4025 52.6615 51.1835 51.3418C52.8551 50.1026 53.7398 48.4669 53.7398 46.3964C53.7398 43.667 52.3734 42.2899 51.2449 41.4337" fill="white"/>
<path d="M45.9863 44.75H37.5361V45.4031H45.9863V44.75Z" fill="white"/>
<path d="M45.9385 47.125H41.0234V47.6862H45.9385V47.125Z" fill="white"/>
<path d="M36.0949 44.75H33.5903V45.4031H36.0949V44.75Z" fill="white"/>
<path d="M39.6341 47.0781H32.0303V47.7313H39.6341V47.0781Z" fill="white"/>
<path d="M36.8665 30.4258H33.9033V30.964H36.8665V30.4258Z" fill="white"/>
<path d="M38.6261 34.7109H31.8398V35.3373H38.6261V34.7109Z" fill="white"/>
<path d="M39.185 52.0625H32.0303V52.8459H39.185V52.0625Z" fill="white"/>
<path d="M32.0338 54.25H30.2451V55.3839H32.0338V54.25Z" fill="white"/>
<path d="M45.9536 32.7969H34.7188V33.4232H45.9536V32.7969Z" fill="white"/>
<path d="M45.7403 34.7109H40.3359V35.3373H45.7403V34.7109Z" fill="white"/>
<path d="M50.6536 43.0949C49.7324 42.5376 48.9244 42.1641 45.1168 42.1641H39.0426V42.9072H44.9843C48.3583 42.9072 49.6403 43.4856 50.026 43.7155C50.7822 44.1637 51.784 44.8896 51.784 46.3759C51.784 47.3259 51.2025 48.5153 50.3388 48.9827C49.5539 49.4098 48.1203 49.791 45.5946 49.791H30.0205V50.5341C30.0205 50.5341 44.3856 50.5341 45.6503 50.5341C48.698 50.5341 49.742 50.2085 50.8167 49.6377C51.8915 49.065 52.6092 47.8909 52.6092 46.3816C52.6092 44.6981 51.6343 43.6887 50.6536 43.0968" fill="white"/>
<path d="M66.6557 41.4151V48.249H70.3962C72.0122 48.249 73.2673 47.9407 74.1597 47.322C75.0502 46.7033 75.4955 45.8549 75.4955 44.7803C75.4955 42.5356 73.6032 41.4151 69.8205 41.4151H66.6557ZM66.6557 33.2806V39.4136H69.4789C70.9873 39.4136 72.1734 39.1205 73.037 38.5344C73.9006 37.9464 74.3344 37.119 74.3344 36.0502C74.3344 34.2038 72.8297 33.2806 69.8243 33.2806H66.6596H66.6557ZM63.8998 50.264V31.2695H70.592C72.6244 31.2695 74.2384 31.6718 75.4283 32.4743C76.6201 33.2787 77.2151 34.3245 77.2151 35.6135C77.2151 36.6919 76.8543 37.6265 76.1326 38.4233C75.411 39.2163 74.415 39.7832 73.1483 40.1184V40.1701C74.7336 40.3214 76.0002 40.8041 76.9521 41.62C77.904 42.4379 78.3781 43.5009 78.3781 44.8072C78.3781 46.4314 77.6565 47.7491 76.2132 48.7547C74.7681 49.7602 72.9487 50.264 70.7513 50.264H63.894H63.8998Z" fill="white"/>
<path d="M81.4507 50.265H84.1394V36.7006H81.4507V50.265ZM82.8286 33.2549C82.3469 33.2549 81.9362 33.1227 81.5984 32.8584C81.2587 32.5941 81.0898 32.257 81.0898 31.8529C81.0898 31.4487 81.2587 31.1078 81.5984 30.8377C81.9362 30.5696 82.3469 30.4336 82.8286 30.4336C83.3103 30.4336 83.7383 30.5696 84.0838 30.8377C84.4292 31.1078 84.6 31.4449 84.6 31.8529C84.6 32.2608 84.4292 32.573 84.0838 32.845C83.7383 33.1189 83.3199 33.2549 82.8286 33.2549Z" fill="white"/>
<path d="M96.0306 50.1304C95.3954 50.4139 94.5605 50.5537 93.5223 50.5537C90.5802 50.5537 89.1101 49.2302 89.1101 46.5794V38.5522H86.2236V36.6981H89.1101V33.3865L91.8008 32.6836V36.6981H96.0325V38.5522H91.8008V46.1963C91.8008 47.1061 91.9927 47.7554 92.3746 48.1442C92.7584 48.533 93.3918 48.7265 94.2784 48.7265C94.9559 48.7265 95.5393 48.5771 96.0325 48.2745V50.1304" fill="white"/>
<path d="M120.45 50.2646H117.93V38.5427C117.93 37.6157 118.001 36.4838 118.141 35.1411H118.082C117.84 35.9302 117.623 36.4933 117.433 36.8362L110.041 50.2646H108.805L101.427 36.9319C101.216 36.5412 100.999 35.9455 100.779 35.1411H100.719C100.8 35.8402 100.84 36.9817 100.84 38.5657V50.2646H98.395V32.7891H101.744L108.382 44.9745C108.897 45.9091 109.227 46.6063 109.378 47.0718H109.469C109.9 46.1122 110.248 45.3977 110.511 44.9266L117.285 32.7891H120.454V50.2646" fill="white"/>
<path d="M134.119 43.4025L130.069 43.8546C128.822 43.9944 127.881 44.2453 127.246 44.6035C126.613 44.9616 126.296 45.5956 126.296 46.5035C126.296 47.1662 126.588 47.7082 127.173 48.1277C127.756 48.5471 128.538 48.7559 129.511 48.7559C130.844 48.7559 131.946 48.3786 132.815 47.6239C133.685 46.8693 134.119 45.9135 134.119 44.7567V43.4045V43.4025ZM136.809 50.2652H134.119V48.1449H134.053C132.883 49.7691 131.161 50.5812 128.887 50.5812C127.213 50.5812 125.904 50.2231 124.958 49.5086C124.014 48.7942 123.54 47.8442 123.54 46.6605C123.54 44.1265 125.388 42.6517 129.085 42.2361L134.119 41.6672C134.119 39.3612 132.965 38.21 130.658 38.21C128.637 38.21 126.81 38.7674 125.181 39.8783V37.6546C126.831 36.8061 128.735 36.3828 130.889 36.3828C134.834 36.3828 136.809 38.0683 136.809 41.4431V50.2652Z" fill="white"/>
<path d="M149.29 38.8973C148.82 38.6061 148.14 38.4606 147.256 38.4606C146.108 38.4606 145.148 38.8973 144.377 39.7726C143.605 40.6479 143.221 41.8392 143.221 43.3485V50.2629H140.531V36.6984H143.221V39.4948H143.287C143.671 38.5391 144.254 37.7978 145.043 37.2616C145.83 36.7272 146.709 36.4609 147.682 36.4609C148.382 36.4609 148.918 36.5222 149.29 36.6467V38.8973Z" fill="white"/>
<path d="M158.656 50.1304C158.02 50.4139 157.186 50.5537 156.147 50.5537C153.205 50.5537 151.735 49.2302 151.735 46.5794V38.5522H148.849V36.6981H151.735V33.3865L154.426 32.6836V36.6981H158.658V38.5522H154.426V46.1963C154.426 47.1061 154.618 47.7554 155 48.1442C155.383 48.533 156.017 48.7265 156.903 48.7265C157.581 48.7265 158.164 48.5771 158.658 48.2745V50.1304" fill="white"/>
</g>
<defs>
<clipPath id="clip0_1267_26228">
<rect width="130.345" height="29.931" fill="white" transform="translate(28.3105 25.5)"/>
</clipPath>
</defs>
</svg>
