<svg width="1em" height="1em" viewBox="0 0 186 80" fill="none" xmlns="http://www.w3.org/2000/svg">
<g clip-path="url(#clip0_1036_27247)">
<path d="M49.3075 32.5845L46.5625 31.0173C46.3047 30.8904 46.02 30.8242 45.7313 30.8242C45.4426 30.8242 45.1579 30.8904 44.9001 31.0173L42.1552 32.5827C41.5678 32.9221 41.5567 33.4764 42.1552 33.8068L44.9001 35.392C45.1561 35.5247 45.4415 35.5942 45.7313 35.5942C46.0211 35.5942 46.3065 35.5247 46.5625 35.392L49.3075 33.8068C49.4741 33.7513 49.6115 33.6335 49.6894 33.4791C49.7673 33.3248 49.7794 33.1465 49.7231 32.9835C49.6904 32.8897 49.6359 32.8046 49.5637 32.7351C49.4916 32.6655 49.4038 32.6133 49.3075 32.5827" fill="white"/>
<path d="M60.0137 30.6442L46.7491 23.1931C46.4912 23.0661 46.2065 23 45.9178 23C45.6291 23 45.3444 23.0661 45.0866 23.1931L31.8275 30.6442C31.5877 30.8001 31.3881 31.0083 31.2445 31.2523C31.101 31.4964 31.0172 31.7696 31 32.0507V46.9528C31.0172 47.2336 31.101 47.5066 31.2446 47.7504C31.3882 47.9941 31.5877 48.202 31.8275 48.3575L45.0921 55.8104C45.35 55.9374 45.6347 56.0035 45.9234 56.0035C46.2121 56.0035 46.4968 55.9374 46.7546 55.8104L60.0192 48.3575C60.259 48.202 60.4586 47.9941 60.6022 47.7504C60.7458 47.5066 60.8295 47.2336 60.8468 46.9528V32.0507C60.8295 31.7696 60.7458 31.4964 60.6022 31.2523C60.4586 31.0083 60.2591 30.8001 60.0192 30.6442M54.1082 34.1053L46.5607 38.4474C46.3046 38.5802 46.0192 38.6496 45.7294 38.6496C45.4396 38.6496 45.1542 38.5802 44.8982 38.4474L40.1158 35.7103C39.5284 35.3582 39.026 35.6363 39.026 36.3061V44.6112C39.0396 44.6982 39.0356 44.787 39.0141 44.8725C38.9926 44.958 38.9541 45.0385 38.9007 45.1094C38.8474 45.1804 38.7803 45.2403 38.7032 45.2859C38.6261 45.3314 38.5406 45.3617 38.4515 45.3749C38.3618 45.389 38.27 45.3853 38.1817 45.3639C38.0935 45.3425 38.0106 45.3038 37.938 45.2503L37.1216 44.8351C36.8751 44.6894 36.6689 44.4871 36.5208 44.2458C36.3727 44.0044 36.2872 43.7313 36.2719 43.4503V34.423C36.289 34.1426 36.3722 33.8699 36.5152 33.6262C36.6581 33.3825 36.8568 33.1745 37.0957 33.0184L44.8926 28.5896C45.1505 28.4626 45.4352 28.3965 45.7239 28.3965C46.0126 28.3965 46.2973 28.4626 46.5551 28.5896L54.1008 32.8487C54.2463 32.8816 54.3762 32.9614 54.4696 33.0753C54.563 33.1891 54.6145 33.3304 54.6158 33.4763C54.6171 33.6223 54.5681 33.7644 54.4767 33.8798C54.3853 33.9952 54.2568 34.0771 54.1119 34.1125" fill="white"/>
<path d="M76.5036 50.039C76.5003 50.0124 76.5024 49.9854 76.51 49.9596C76.5175 49.9338 76.5303 49.9098 76.5475 49.8889C76.5647 49.868 76.5861 49.8507 76.6102 49.8381C76.6344 49.8254 76.661 49.8176 76.6883 49.8151C76.7073 49.8124 76.7266 49.8124 76.7456 49.8151H77.1926C77.2532 49.8127 77.3124 49.8336 77.3574 49.8735C77.4023 49.9134 77.4294 49.9689 77.4327 50.0282V52.3608C77.429 52.4049 77.4141 52.4473 77.3892 52.4842C77.3644 52.5211 77.3304 52.5513 77.2905 52.5721C76.7208 52.9854 76.0508 53.2466 75.3464 53.3298C74.642 53.4131 73.9276 53.3155 73.2735 53.0468C72.6195 52.7781 72.0483 52.3475 71.6163 51.7974C71.1843 51.2473 70.9064 50.5966 70.8099 49.9096C70.7134 49.2226 70.8017 48.5228 71.0661 47.8793C71.3305 47.2358 71.7619 46.6707 72.3177 46.2397C72.8735 45.8086 73.5347 45.5266 74.2359 45.4213C74.9372 45.316 75.6545 45.3911 76.317 45.6391C76.6865 45.7782 77.4069 46.0977 77.4069 46.3613C77.4178 46.396 77.4178 46.4331 77.4069 46.4678L77.1797 46.856C77.1623 46.8898 77.136 46.9185 77.1036 46.9392C77.0711 46.9598 77.0336 46.9716 76.9949 46.9734C76.9229 46.9712 76.8539 46.9451 76.7991 46.8993C76.2476 46.5089 75.5849 46.2968 74.9039 46.2927C74.0978 46.285 73.3196 46.5806 72.7303 47.1183C72.1411 47.6559 71.7859 48.3945 71.7384 49.1811C71.691 49.9676 71.9548 50.7419 72.4753 51.3435C72.9958 51.9452 73.7331 52.3282 74.5345 52.4132C74.6575 52.4204 74.7809 52.4204 74.9039 52.4132C75.4935 52.4235 76.0726 52.2606 76.5664 51.9456L76.5036 50.039Z" fill="white"/>
<path d="M84.7365 52.3496C84.765 52.3479 84.7936 52.3517 84.8206 52.3609C84.8476 52.3701 84.8725 52.3844 84.8938 52.403C84.9151 52.4217 84.9324 52.4443 84.9447 52.4695C84.957 52.4947 84.9641 52.5221 84.9655 52.55C84.9674 52.5607 84.9674 52.5717 84.9655 52.5825V52.9977C84.967 53.0271 84.9625 53.0565 84.9524 53.0843C84.9422 53.112 84.9266 53.1375 84.9063 53.1593C84.8861 53.1811 84.8616 53.1988 84.8344 53.2113C84.8071 53.2239 84.7776 53.231 84.7475 53.2324H80.2053C80.1786 53.2371 80.1512 53.2365 80.1248 53.2308C80.0983 53.225 80.0732 53.2142 80.0511 53.1989C80.0289 53.1836 80.0101 53.1642 79.9956 53.1418C79.9812 53.1193 79.9715 53.0943 79.967 53.0681C79.9615 53.045 79.9615 53.0209 79.967 52.9977V45.7272C79.9653 45.6979 79.9695 45.6685 79.9795 45.6408C79.9894 45.6131 80.0049 45.5876 80.025 45.5657C80.0451 45.5439 80.0694 45.5262 80.0966 45.5136C80.1237 45.501 80.1531 45.4939 80.1832 45.4925H80.6523C80.681 45.491 80.7096 45.4951 80.7366 45.5045C80.7636 45.5138 80.7885 45.5283 80.8098 45.5471C80.8311 45.5659 80.8483 45.5886 80.8606 45.6139C80.8729 45.6393 80.88 45.6667 80.8814 45.6947C80.8823 45.7055 80.8823 45.7164 80.8814 45.7272V52.3496H84.7365Z" fill="white"/>
<path d="M94.4399 49.3917C94.4299 50.4232 94.0023 51.4089 93.2507 52.1331C92.4992 52.8573 91.4848 53.2611 90.4294 53.2562C89.374 53.2513 88.3635 52.8381 87.619 52.107C86.8745 51.3758 86.4565 50.3863 86.4565 49.3547C86.4565 48.3231 86.8745 47.3336 87.619 46.6024C88.3635 45.8713 89.374 45.4581 90.4294 45.4532C91.4848 45.4483 92.4992 45.8521 93.2507 46.5763C94.0023 47.3005 94.4299 48.2862 94.4399 49.3177C94.4399 49.343 94.4399 49.3682 94.4399 49.3917ZM90.3668 52.4483C90.9871 52.4483 91.5935 52.2688 92.1095 51.9323C92.6255 51.5958 93.028 51.1176 93.2662 50.5578C93.5044 49.998 93.5677 49.3818 93.448 48.7869C93.3283 48.192 93.0311 47.6451 92.5938 47.2152C92.1564 46.7852 91.5986 46.4915 90.9907 46.371C90.3828 46.2505 89.752 46.3088 89.1779 46.5383C88.6038 46.7678 88.1121 47.1584 87.7648 47.6608C87.4176 48.1631 87.2303 48.7548 87.2266 49.361V49.3719C87.2266 50.1834 87.5554 50.9619 88.1412 51.5371C88.7269 52.1122 89.5218 52.4373 90.3521 52.4411H90.3631" fill="white"/>
<path d="M101.66 49.0919C102.086 49.3363 102.42 49.7097 102.609 50.1555C102.799 50.6014 102.835 51.0955 102.713 51.5633C102.59 52.031 102.314 52.447 101.928 52.7483C101.542 53.0496 101.066 53.22 100.572 53.2336H97.0978C97.0376 53.2391 96.9776 53.2211 96.9308 53.1836C96.8841 53.146 96.8545 53.092 96.8484 53.0332C96.8476 53.0217 96.8476 53.0103 96.8484 52.9988V45.75C96.8393 45.6924 96.8534 45.6336 96.8879 45.586C96.9224 45.5385 96.9745 45.506 97.0331 45.4954C97.0522 45.4936 97.0714 45.4936 97.0904 45.4954H100.231C100.775 45.4653 101.31 45.6476 101.718 46.0023C102.125 46.3569 102.372 46.8551 102.405 47.3875C102.405 47.4308 102.405 47.476 102.405 47.5193C102.398 47.8195 102.327 48.115 102.196 48.3863C102.064 48.6577 101.876 48.8987 101.642 49.0937M100.216 46.4216H97.7628V48.8174H100.234C100.564 48.8103 100.877 48.6757 101.105 48.4431C101.333 48.2105 101.457 47.8991 101.45 47.5771V47.4868C101.451 47.2046 101.338 46.9334 101.135 46.7326C100.932 46.5319 100.656 46.4181 100.367 46.4162H100.24M97.7683 49.666V52.3471H100.6C100.784 52.3537 100.968 52.3239 101.141 52.2595C101.313 52.1951 101.47 52.0975 101.603 51.9723C101.736 51.8472 101.841 51.6972 101.914 51.5312C101.986 51.3653 102.023 51.1868 102.023 51.0065C102.023 50.8262 101.986 50.6478 101.914 50.4818C101.841 50.3159 101.736 50.1659 101.603 50.0407C101.47 49.9156 101.313 49.8179 101.141 49.7535C100.968 49.6891 100.784 49.6594 100.6 49.666H97.7683Z" fill="white"/>
<path d="M105.517 53.0192C105.5 53.082 105.462 53.1372 105.408 53.1759C105.355 53.2146 105.29 53.2344 105.223 53.2323H104.754C104.612 53.2323 104.536 53.2323 104.536 53.0625C104.529 53.0165 104.529 52.9696 104.536 52.9235C107.619 45.7017 107.63 45.7017 107.63 45.6855C107.645 45.6291 107.678 45.5791 107.726 45.544C107.773 45.5088 107.831 45.4906 107.891 45.4923H108.212C108.272 45.4908 108.33 45.5091 108.378 45.5442C108.425 45.5793 108.459 45.6291 108.474 45.6855L111.6 52.9344C111.604 52.977 111.604 53.0199 111.6 53.0625C111.6 53.1781 111.502 53.2323 111.36 53.2323H110.902C110.839 53.2313 110.778 53.2113 110.727 53.1751C110.677 53.1389 110.639 53.0882 110.619 53.03L109.998 51.5406H106.149L105.517 53.0192ZM106.496 50.6559H109.622L108.064 46.8446L106.496 50.6559Z" fill="white"/>
<path d="M118.608 52.3495C118.666 52.3465 118.722 52.366 118.765 52.4035C118.808 52.4411 118.834 52.4937 118.837 52.5499V52.9976C118.839 53.0271 118.834 53.0565 118.824 53.0842C118.814 53.1119 118.798 53.1374 118.778 53.1592C118.758 53.181 118.733 53.1987 118.706 53.2112C118.679 53.2238 118.649 53.231 118.619 53.2324H114.077C114.05 53.237 114.023 53.2365 113.996 53.2307C113.969 53.225 113.944 53.2142 113.922 53.1989C113.9 53.1837 113.881 53.1643 113.866 53.1418C113.851 53.1193 113.841 53.0943 113.837 53.0681C113.833 53.0447 113.833 53.021 113.837 52.9976V45.7271C113.834 45.6678 113.856 45.61 113.896 45.566C113.937 45.5221 113.994 45.4957 114.055 45.4924H114.524C114.582 45.4899 114.638 45.5098 114.681 45.5476C114.724 45.5854 114.75 45.6382 114.753 45.6946V52.3495H118.608Z" fill="white"/>
<path d="M70.5998 26.2928C70.5938 26.2428 70.5981 26.1921 70.6123 26.1437C70.6264 26.0952 70.6503 26.05 70.6823 26.0106C70.7144 25.9712 70.7542 25.9383 70.7993 25.914C70.8444 25.8896 70.894 25.8741 70.9452 25.8685C70.9679 25.8667 70.9908 25.8667 71.0135 25.8685H77.3309C78.5672 25.9073 79.7382 26.4205 80.5901 27.2971C81.442 28.1737 81.9063 29.3431 81.8823 30.5519C81.9111 31.7451 81.4553 32.9009 80.6144 33.7664C79.7735 34.6319 78.6162 35.1366 77.3955 35.1702H74.3791V39.738C74.3791 40.0251 74.2258 40.1641 73.921 40.1641H71.0135C70.7198 40.1641 70.5998 40.0251 70.5998 39.738V26.2928ZM74.3791 28.9107V32.1009H76.5569C76.76 32.0986 76.9605 32.0572 77.1472 31.979C77.3338 31.9009 77.5029 31.7876 77.6448 31.6456C77.7866 31.5036 77.8985 31.3357 77.9739 31.1514C78.0494 30.9672 78.087 30.7702 78.0845 30.5717C78.0845 30.5483 78.0845 30.5266 78.0845 30.5049C78.1006 30.0922 77.9493 29.69 77.6636 29.3857C77.3779 29.0815 76.9808 28.8997 76.5588 28.88L74.3791 28.9107Z" fill="white"/>
<path d="M85.3793 26.2915C85.375 26.2399 85.3811 26.188 85.3974 26.1387C85.4136 26.0895 85.4396 26.0439 85.4739 26.0044C85.5083 25.965 85.5502 25.9326 85.5973 25.9091C85.6445 25.8855 85.6959 25.8713 85.7487 25.8672H92.3265C93.5945 25.9064 94.7957 26.4321 95.6701 27.3306C96.5444 28.2291 97.0215 29.4281 96.998 30.6679C96.9609 31.4685 96.7223 32.2479 96.3034 32.9369C95.8846 33.626 95.2984 34.2034 94.5967 34.6182L97.4395 39.7385C97.461 39.7663 97.4767 39.798 97.4856 39.8318C97.4945 39.8656 97.4966 39.9007 97.4916 39.9353C97.4866 39.9698 97.4747 40.0031 97.4566 40.0331C97.4385 40.0631 97.4145 40.0894 97.3859 40.1104C97.3334 40.1501 97.2674 40.1688 97.2012 40.1627H93.6343C93.3517 40.1627 93.2538 40.0887 93.1005 39.7583L90.749 35.4036H89.1863V39.7366C89.1983 39.8374 89.1688 39.9387 89.1044 40.0183C89.0399 40.0979 88.9458 40.1492 88.8427 40.1609C88.8122 40.1663 88.7809 40.1663 88.7504 40.1609H85.7949C85.5123 40.1609 85.3811 40.0237 85.3811 39.7366L85.3793 26.2915ZM89.1863 28.8353V32.3163H91.3641C91.8243 32.3049 92.2616 32.1183 92.5829 31.7962C92.9042 31.474 93.084 31.0419 93.0838 30.592C93.0762 30.1359 92.8904 29.6998 92.5645 29.3732C92.2386 29.0466 91.7972 28.8542 91.3309 28.8353H89.1863Z" fill="white"/>
<path d="M107.64 25.6524C109.13 25.6502 110.588 26.0801 111.829 26.8878C113.069 27.6954 114.037 28.8445 114.609 30.1896C115.182 31.5348 115.333 33.0157 115.045 34.445C114.756 35.8744 114.04 37.1879 112.988 38.2196C111.935 39.2513 110.593 39.9548 109.132 40.2411C107.67 40.5275 106.155 40.3838 104.777 39.8282C103.399 39.2727 102.22 38.3302 101.391 37.12C100.561 35.9099 100.116 34.4863 100.114 33.0294C100.113 32.0621 100.306 31.1039 100.684 30.2097C101.061 29.3154 101.615 28.5026 102.314 27.8175C103.013 27.1325 103.843 26.5887 104.756 26.2172C105.67 25.8457 106.65 25.6538 107.64 25.6524ZM107.64 36.8299C108.13 36.8292 108.616 36.734 109.069 36.5498C109.522 36.3655 109.933 36.0959 110.28 35.7562C110.626 35.4165 110.901 35.0134 111.087 34.57C111.274 34.1267 111.37 33.6516 111.369 33.172C111.369 33.1215 111.369 33.0691 111.369 33.0186C111.334 32.3131 111.09 31.6328 110.667 31.0604C110.243 30.4879 109.659 30.048 108.985 29.7942C108.31 29.5403 107.575 29.4833 106.868 29.6303C106.161 29.7772 105.513 30.1217 105.003 30.6218C104.493 31.122 104.142 31.7562 103.994 32.4475C103.846 33.1388 103.906 33.8573 104.168 34.5157C104.429 35.174 104.881 35.7439 105.468 36.1561C106.055 36.5682 106.752 36.8048 107.473 36.8371H107.64V36.8299Z" fill="white"/>
<path d="M119.131 26.3209C119.12 26.214 119.152 26.1069 119.222 26.0233C119.291 25.9397 119.391 25.8864 119.501 25.875H125.809C126.364 25.8764 126.913 25.9847 127.425 26.1936C127.937 26.4025 128.403 26.708 128.794 27.0926C129.185 27.4772 129.495 27.9333 129.706 28.4351C129.918 28.9368 130.025 29.4742 130.024 30.0167C130.041 30.9166 129.728 31.7927 129.141 32.4866C129.617 32.9182 129.999 33.4398 130.263 34.0198C130.527 34.5998 130.668 35.2261 130.678 35.8609C130.669 36.9927 130.208 38.0763 129.393 38.88C128.577 39.6837 127.473 40.1436 126.315 40.1615H119.556C119.455 40.1727 119.354 40.1447 119.275 40.0835C119.195 40.0223 119.144 39.9329 119.131 39.8347C119.128 39.8089 119.128 39.7829 119.131 39.7571V26.3209ZM124.761 28.7059H122.953V31.5261H124.728C124.912 31.5401 125.097 31.5186 125.273 31.4627C125.449 31.4067 125.611 31.3176 125.752 31.2002C125.892 31.0828 126.007 30.9396 126.091 30.7786C126.174 30.6177 126.225 30.4422 126.239 30.2622C126.239 30.2171 126.239 30.1738 126.239 30.1304C126.245 29.7577 126.099 29.398 125.834 29.1302C125.569 28.8624 125.205 28.7085 124.824 28.7023H124.758M125.247 34.0988H122.953V37.2927H125.251C125.672 37.2702 126.067 37.0877 126.352 36.784C126.638 36.4804 126.79 36.0797 126.777 35.6678C126.769 35.2665 126.609 34.8824 126.326 34.5911C126.044 34.2997 125.66 34.1222 125.251 34.0934" fill="white"/>
<path d="M135.249 26.2921C135.249 26.0051 135.38 25.866 135.663 25.866H138.618C138.669 25.86 138.721 25.8639 138.771 25.8775C138.821 25.8911 138.867 25.9142 138.908 25.9454C138.948 25.9766 138.982 26.0153 139.007 26.0593C139.032 26.1034 139.048 26.1518 139.054 26.2019C139.058 26.2318 139.058 26.2621 139.054 26.2921V39.7373C139.066 39.8383 139.037 39.9398 138.972 40.0197C138.908 40.0995 138.814 40.1512 138.711 40.1634C138.68 40.167 138.649 40.167 138.618 40.1634H135.663C135.38 40.1634 135.249 40.0244 135.249 39.7373V26.2921Z" fill="white"/>
<path d="M143.952 26.2895C143.944 26.2411 143.946 26.1917 143.957 26.1441C143.969 26.0964 143.99 26.0515 144.02 26.0119C144.049 25.9723 144.087 25.9388 144.129 25.9134C144.172 25.8879 144.22 25.8709 144.269 25.8634C144.308 25.858 144.348 25.858 144.387 25.8634H155.072C155.121 25.8574 155.172 25.8609 155.22 25.8739C155.268 25.8868 155.313 25.909 155.352 25.939C155.392 25.969 155.425 26.0063 155.45 26.0488C155.474 26.0913 155.49 26.1381 155.496 26.1866C155.501 26.2208 155.501 26.2554 155.496 26.2895V28.7377C155.502 28.7878 155.498 28.8384 155.484 28.8869C155.47 28.9353 155.446 28.9805 155.414 29.0199C155.382 29.0594 155.342 29.0922 155.297 29.1166C155.252 29.1409 155.202 29.1564 155.151 29.162C155.125 29.1647 155.098 29.1647 155.072 29.162H151.575V39.7347C151.581 39.7846 151.577 39.8352 151.563 39.8836C151.549 39.9321 151.526 39.9774 151.494 40.0169C151.463 40.0565 151.423 40.0896 151.378 40.1143C151.334 40.1389 151.284 40.1547 151.233 40.1608C151.198 40.1653 151.163 40.1653 151.128 40.1608H148.285C148.182 40.1725 148.078 40.1437 147.997 40.0807C147.915 40.0177 147.863 39.9257 147.851 39.825C147.847 39.795 147.847 39.7647 147.851 39.7347V29.1638H144.387C144.336 29.1698 144.284 29.1659 144.235 29.1523C144.185 29.1387 144.139 29.1156 144.098 29.0844C144.058 29.0532 144.024 29.0145 143.999 28.9705C143.973 28.9265 143.957 28.8781 143.952 28.828C143.948 28.798 143.948 28.7677 143.952 28.7377V26.2895Z" fill="white"/>
<path d="M49.3075 32.5845L46.5625 31.0173C46.3047 30.8904 46.02 30.8242 45.7313 30.8242C45.4426 30.8242 45.1579 30.8904 44.9001 31.0173L42.1552 32.5827C41.5678 32.9221 41.5567 33.4764 42.1552 33.8068L44.9001 35.392C45.1561 35.5247 45.4415 35.5942 45.7313 35.5942C46.0211 35.5942 46.3065 35.5247 46.5625 35.392L49.3075 33.8068C49.4741 33.7513 49.6115 33.6335 49.6894 33.4791C49.7673 33.3248 49.7794 33.1465 49.7231 32.9835C49.6904 32.8897 49.6359 32.8046 49.5637 32.7351C49.4916 32.6655 49.4038 32.6133 49.3075 32.5827" fill="white"/>
<path d="M60.0137 30.6442L46.7491 23.1931C46.4912 23.0661 46.2065 23 45.9178 23C45.6291 23 45.3444 23.0661 45.0866 23.1931L31.8275 30.6442C31.5877 30.8001 31.3881 31.0083 31.2445 31.2523C31.101 31.4964 31.0172 31.7696 31 32.0507V46.9528C31.0172 47.2336 31.101 47.5066 31.2446 47.7504C31.3882 47.9941 31.5877 48.202 31.8275 48.3575L45.0921 55.8104C45.35 55.9374 45.6347 56.0035 45.9234 56.0035C46.2121 56.0035 46.4968 55.9374 46.7546 55.8104L60.0192 48.3575C60.259 48.202 60.4586 47.9941 60.6022 47.7504C60.7458 47.5066 60.8295 47.2336 60.8468 46.9528V32.0507C60.8295 31.7696 60.7458 31.4964 60.6022 31.2523C60.4586 31.0083 60.2591 30.8001 60.0192 30.6442M54.1082 34.1053L46.5607 38.4474C46.3046 38.5802 46.0192 38.6496 45.7294 38.6496C45.4396 38.6496 45.1542 38.5802 44.8982 38.4474L40.1158 35.7103C39.5284 35.3582 39.026 35.6363 39.026 36.3061V44.6112C39.0396 44.6982 39.0356 44.787 39.0141 44.8725C38.9926 44.958 38.9541 45.0385 38.9007 45.1094C38.8474 45.1804 38.7803 45.2403 38.7032 45.2859C38.6261 45.3314 38.5406 45.3617 38.4515 45.3749C38.3618 45.389 38.27 45.3853 38.1817 45.3639C38.0935 45.3425 38.0106 45.3038 37.938 45.2503L37.1216 44.8351C36.8751 44.6894 36.6689 44.4871 36.5208 44.2458C36.3727 44.0044 36.2872 43.7313 36.2719 43.4503V34.423C36.289 34.1426 36.3722 33.8699 36.5152 33.6262C36.6581 33.3825 36.8568 33.1745 37.0957 33.0184L44.8926 28.5896C45.1505 28.4626 45.4352 28.3965 45.7239 28.3965C46.0126 28.3965 46.2973 28.4626 46.5551 28.5896L54.1008 32.8487C54.2463 32.8816 54.3762 32.9614 54.4696 33.0753C54.563 33.1891 54.6145 33.3304 54.6158 33.4763C54.6171 33.6223 54.5681 33.7644 54.4767 33.8798C54.3853 33.9952 54.2568 34.0771 54.1119 34.1125" fill="white"/>
<path d="M76.5036 50.039C76.5003 50.0124 76.5024 49.9854 76.51 49.9596C76.5175 49.9338 76.5303 49.9098 76.5475 49.8889C76.5647 49.868 76.5861 49.8507 76.6102 49.8381C76.6344 49.8254 76.661 49.8176 76.6883 49.8151C76.7073 49.8124 76.7266 49.8124 76.7456 49.8151H77.1926C77.2532 49.8127 77.3124 49.8336 77.3574 49.8735C77.4023 49.9134 77.4294 49.9689 77.4327 50.0282V52.3608C77.429 52.4049 77.4141 52.4473 77.3892 52.4842C77.3644 52.5211 77.3304 52.5513 77.2905 52.5721C76.7208 52.9854 76.0508 53.2466 75.3464 53.3298C74.642 53.4131 73.9276 53.3155 73.2735 53.0468C72.6195 52.7781 72.0483 52.3475 71.6163 51.7974C71.1843 51.2473 70.9064 50.5966 70.8099 49.9096C70.7134 49.2226 70.8017 48.5228 71.0661 47.8793C71.3305 47.2358 71.7619 46.6707 72.3177 46.2397C72.8735 45.8086 73.5347 45.5266 74.2359 45.4213C74.9372 45.316 75.6545 45.3911 76.317 45.6391C76.6865 45.7782 77.4069 46.0977 77.4069 46.3613C77.4178 46.396 77.4178 46.4331 77.4069 46.4678L77.1797 46.856C77.1623 46.8898 77.136 46.9185 77.1036 46.9392C77.0711 46.9598 77.0336 46.9716 76.9949 46.9734C76.9229 46.9712 76.8539 46.9451 76.7991 46.8993C76.2476 46.5089 75.5849 46.2968 74.9039 46.2927C74.0978 46.285 73.3196 46.5806 72.7303 47.1183C72.1411 47.6559 71.7859 48.3945 71.7384 49.1811C71.691 49.9676 71.9548 50.7419 72.4753 51.3435C72.9958 51.9452 73.7331 52.3282 74.5345 52.4132C74.6575 52.4204 74.7809 52.4204 74.9039 52.4132C75.4935 52.4235 76.0726 52.2606 76.5664 51.9456L76.5036 50.039Z" fill="white"/>
<path d="M84.7365 52.3496C84.765 52.3479 84.7936 52.3517 84.8206 52.3609C84.8476 52.3701 84.8725 52.3844 84.8938 52.403C84.9151 52.4217 84.9324 52.4443 84.9447 52.4695C84.957 52.4947 84.9641 52.5221 84.9655 52.55C84.9674 52.5607 84.9674 52.5717 84.9655 52.5825V52.9977C84.967 53.0271 84.9625 53.0565 84.9524 53.0843C84.9422 53.112 84.9266 53.1375 84.9063 53.1593C84.8861 53.1811 84.8616 53.1988 84.8344 53.2113C84.8071 53.2239 84.7776 53.231 84.7475 53.2324H80.2053C80.1786 53.2371 80.1512 53.2365 80.1248 53.2308C80.0983 53.225 80.0732 53.2142 80.0511 53.1989C80.0289 53.1836 80.0101 53.1642 79.9956 53.1418C79.9812 53.1193 79.9715 53.0943 79.967 53.0681C79.9615 53.045 79.9615 53.0209 79.967 52.9977V45.7272C79.9653 45.6979 79.9695 45.6685 79.9795 45.6408C79.9894 45.6131 80.0049 45.5876 80.025 45.5657C80.0451 45.5439 80.0694 45.5262 80.0966 45.5136C80.1237 45.501 80.1531 45.4939 80.1832 45.4925H80.6523C80.681 45.491 80.7096 45.4951 80.7366 45.5045C80.7636 45.5138 80.7885 45.5283 80.8098 45.5471C80.8311 45.5659 80.8483 45.5886 80.8606 45.6139C80.8729 45.6393 80.88 45.6667 80.8814 45.6947C80.8823 45.7055 80.8823 45.7164 80.8814 45.7272V52.3496H84.7365Z" fill="white"/>
<path d="M94.4399 49.3917C94.4299 50.4232 94.0023 51.4089 93.2507 52.1331C92.4992 52.8573 91.4848 53.2611 90.4294 53.2562C89.374 53.2513 88.3635 52.8381 87.619 52.107C86.8745 51.3758 86.4565 50.3863 86.4565 49.3547C86.4565 48.3231 86.8745 47.3336 87.619 46.6024C88.3635 45.8713 89.374 45.4581 90.4294 45.4532C91.4848 45.4483 92.4992 45.8521 93.2507 46.5763C94.0023 47.3005 94.4299 48.2862 94.4399 49.3177C94.4399 49.343 94.4399 49.3682 94.4399 49.3917ZM90.3668 52.4483C90.9871 52.4483 91.5935 52.2688 92.1095 51.9323C92.6255 51.5958 93.028 51.1176 93.2662 50.5578C93.5044 49.998 93.5677 49.3818 93.448 48.7869C93.3283 48.192 93.0311 47.6451 92.5938 47.2152C92.1564 46.7852 91.5986 46.4915 90.9907 46.371C90.3828 46.2505 89.752 46.3088 89.1779 46.5383C88.6038 46.7678 88.1121 47.1584 87.7648 47.6608C87.4176 48.1631 87.2303 48.7548 87.2266 49.361V49.3719C87.2266 50.1834 87.5554 50.9619 88.1412 51.5371C88.7269 52.1122 89.5218 52.4373 90.3521 52.4411H90.3631" fill="white"/>
<path d="M101.66 49.0919C102.086 49.3363 102.42 49.7097 102.609 50.1555C102.799 50.6014 102.835 51.0955 102.713 51.5633C102.59 52.031 102.314 52.447 101.928 52.7483C101.542 53.0496 101.066 53.22 100.572 53.2336H97.0978C97.0376 53.2391 96.9776 53.2211 96.9308 53.1836C96.8841 53.146 96.8545 53.092 96.8484 53.0332C96.8476 53.0217 96.8476 53.0103 96.8484 52.9988V45.75C96.8393 45.6924 96.8534 45.6336 96.8879 45.586C96.9224 45.5385 96.9745 45.506 97.0331 45.4954C97.0522 45.4936 97.0714 45.4936 97.0904 45.4954H100.231C100.775 45.4653 101.31 45.6476 101.718 46.0023C102.125 46.3569 102.372 46.8551 102.405 47.3875C102.405 47.4308 102.405 47.476 102.405 47.5193C102.398 47.8195 102.327 48.115 102.196 48.3863C102.064 48.6577 101.876 48.8987 101.642 49.0937M100.216 46.4216H97.7628V48.8174H100.234C100.564 48.8103 100.877 48.6757 101.105 48.4431C101.333 48.2105 101.457 47.8991 101.45 47.5771V47.4868C101.451 47.2046 101.338 46.9334 101.135 46.7326C100.932 46.5319 100.656 46.4181 100.367 46.4162H100.24M97.7683 49.666V52.3471H100.6C100.784 52.3537 100.968 52.3239 101.141 52.2595C101.313 52.1951 101.47 52.0975 101.603 51.9723C101.736 51.8472 101.841 51.6972 101.914 51.5312C101.986 51.3653 102.023 51.1868 102.023 51.0065C102.023 50.8262 101.986 50.6478 101.914 50.4818C101.841 50.3159 101.736 50.1659 101.603 50.0407C101.47 49.9156 101.313 49.8179 101.141 49.7535C100.968 49.6891 100.784 49.6594 100.6 49.666H97.7683Z" fill="white"/>
<path d="M105.517 53.0192C105.5 53.082 105.462 53.1372 105.408 53.1759C105.355 53.2146 105.29 53.2344 105.223 53.2323H104.754C104.612 53.2323 104.536 53.2323 104.536 53.0625C104.529 53.0165 104.529 52.9696 104.536 52.9235C107.619 45.7017 107.63 45.7017 107.63 45.6855C107.645 45.6291 107.678 45.5791 107.726 45.544C107.773 45.5088 107.831 45.4906 107.891 45.4923H108.212C108.272 45.4908 108.33 45.5091 108.378 45.5442C108.425 45.5793 108.459 45.6291 108.474 45.6855L111.6 52.9344C111.604 52.977 111.604 53.0199 111.6 53.0625C111.6 53.1781 111.502 53.2323 111.36 53.2323H110.902C110.839 53.2313 110.778 53.2113 110.727 53.1751C110.677 53.1389 110.639 53.0882 110.619 53.03L109.998 51.5406H106.149L105.517 53.0192ZM106.496 50.6559H109.622L108.064 46.8446L106.496 50.6559Z" fill="white"/>
<path d="M118.608 52.3495C118.666 52.3465 118.722 52.366 118.765 52.4035C118.808 52.4411 118.834 52.4937 118.837 52.5499V52.9976C118.839 53.0271 118.834 53.0565 118.824 53.0842C118.814 53.1119 118.798 53.1374 118.778 53.1592C118.758 53.181 118.733 53.1987 118.706 53.2112C118.679 53.2238 118.649 53.231 118.619 53.2324H114.077C114.05 53.237 114.023 53.2365 113.996 53.2307C113.969 53.225 113.944 53.2142 113.922 53.1989C113.9 53.1837 113.881 53.1643 113.866 53.1418C113.851 53.1193 113.841 53.0943 113.837 53.0681C113.833 53.0447 113.833 53.021 113.837 52.9976V45.7271C113.834 45.6678 113.856 45.61 113.896 45.566C113.937 45.5221 113.994 45.4957 114.055 45.4924H114.524C114.582 45.4899 114.638 45.5098 114.681 45.5476C114.724 45.5854 114.75 45.6382 114.753 45.6946V52.3495H118.608Z" fill="white"/>
<path d="M70.5998 26.2928C70.5938 26.2428 70.5981 26.1921 70.6123 26.1437C70.6264 26.0952 70.6503 26.05 70.6823 26.0106C70.7144 25.9712 70.7542 25.9383 70.7993 25.914C70.8444 25.8896 70.894 25.8741 70.9452 25.8685C70.9679 25.8667 70.9908 25.8667 71.0135 25.8685H77.3309C78.5672 25.9073 79.7382 26.4205 80.5901 27.2971C81.442 28.1737 81.9063 29.3431 81.8823 30.5519C81.9111 31.7451 81.4553 32.9009 80.6144 33.7664C79.7735 34.6319 78.6162 35.1366 77.3955 35.1702H74.3791V39.738C74.3791 40.0251 74.2258 40.1641 73.921 40.1641H71.0135C70.7198 40.1641 70.5998 40.0251 70.5998 39.738V26.2928ZM74.3791 28.9107V32.1009H76.5569C76.76 32.0986 76.9605 32.0572 77.1472 31.979C77.3338 31.9009 77.5029 31.7876 77.6448 31.6456C77.7866 31.5036 77.8985 31.3357 77.9739 31.1514C78.0494 30.9672 78.087 30.7702 78.0845 30.5717C78.0845 30.5483 78.0845 30.5266 78.0845 30.5049C78.1006 30.0922 77.9493 29.69 77.6636 29.3857C77.3779 29.0815 76.9808 28.8997 76.5588 28.88L74.3791 28.9107Z" fill="white"/>
<path d="M85.3793 26.2915C85.375 26.2399 85.3811 26.188 85.3974 26.1387C85.4136 26.0895 85.4396 26.0439 85.4739 26.0044C85.5083 25.965 85.5502 25.9326 85.5973 25.9091C85.6445 25.8855 85.6959 25.8713 85.7487 25.8672H92.3265C93.5945 25.9064 94.7957 26.4321 95.6701 27.3306C96.5444 28.2291 97.0215 29.4281 96.998 30.6679C96.9609 31.4685 96.7223 32.2479 96.3034 32.9369C95.8846 33.626 95.2984 34.2034 94.5967 34.6182L97.4395 39.7385C97.461 39.7663 97.4767 39.798 97.4856 39.8318C97.4945 39.8656 97.4966 39.9007 97.4916 39.9353C97.4866 39.9698 97.4747 40.0031 97.4566 40.0331C97.4385 40.0631 97.4145 40.0894 97.3859 40.1104C97.3334 40.1501 97.2674 40.1688 97.2012 40.1627H93.6343C93.3517 40.1627 93.2538 40.0887 93.1005 39.7583L90.749 35.4036H89.1863V39.7366C89.1983 39.8374 89.1688 39.9387 89.1044 40.0183C89.0399 40.0979 88.9458 40.1492 88.8427 40.1609C88.8122 40.1663 88.7809 40.1663 88.7504 40.1609H85.7949C85.5123 40.1609 85.3811 40.0237 85.3811 39.7366L85.3793 26.2915ZM89.1863 28.8353V32.3163H91.3641C91.8243 32.3049 92.2616 32.1183 92.5829 31.7962C92.9042 31.474 93.084 31.0419 93.0838 30.592C93.0762 30.1359 92.8904 29.6998 92.5645 29.3732C92.2386 29.0466 91.7972 28.8542 91.3309 28.8353H89.1863Z" fill="white"/>
<path d="M107.64 25.6524C109.13 25.6502 110.588 26.0801 111.829 26.8878C113.069 27.6954 114.037 28.8445 114.609 30.1896C115.182 31.5348 115.333 33.0157 115.045 34.445C114.756 35.8744 114.04 37.1879 112.988 38.2196C111.935 39.2513 110.593 39.9548 109.132 40.2411C107.67 40.5275 106.155 40.3838 104.777 39.8282C103.399 39.2727 102.22 38.3302 101.391 37.12C100.561 35.9099 100.116 34.4863 100.114 33.0294C100.113 32.0621 100.306 31.1039 100.684 30.2097C101.061 29.3154 101.615 28.5026 102.314 27.8175C103.013 27.1325 103.843 26.5887 104.756 26.2172C105.67 25.8457 106.65 25.6538 107.64 25.6524ZM107.64 36.8299C108.13 36.8292 108.616 36.734 109.069 36.5498C109.522 36.3655 109.933 36.0959 110.28 35.7562C110.626 35.4165 110.901 35.0134 111.087 34.57C111.274 34.1267 111.37 33.6516 111.369 33.172C111.369 33.1215 111.369 33.0691 111.369 33.0186C111.334 32.3131 111.09 31.6328 110.667 31.0604C110.243 30.4879 109.659 30.048 108.985 29.7942C108.31 29.5403 107.575 29.4833 106.868 29.6303C106.161 29.7772 105.513 30.1217 105.003 30.6218C104.493 31.122 104.142 31.7562 103.994 32.4475C103.846 33.1388 103.906 33.8573 104.168 34.5157C104.429 35.174 104.881 35.7439 105.468 36.1561C106.055 36.5682 106.752 36.8048 107.473 36.8371H107.64V36.8299Z" fill="white"/>
<path d="M119.131 26.3209C119.12 26.214 119.152 26.1069 119.222 26.0233C119.291 25.9397 119.391 25.8864 119.501 25.875H125.809C126.364 25.8764 126.913 25.9847 127.425 26.1936C127.937 26.4025 128.403 26.708 128.794 27.0926C129.185 27.4772 129.495 27.9333 129.706 28.4351C129.918 28.9368 130.025 29.4742 130.024 30.0167C130.041 30.9166 129.728 31.7927 129.141 32.4866C129.617 32.9182 129.999 33.4398 130.263 34.0198C130.527 34.5998 130.668 35.2261 130.678 35.8609C130.669 36.9927 130.208 38.0763 129.393 38.88C128.577 39.6837 127.473 40.1436 126.315 40.1615H119.556C119.455 40.1727 119.354 40.1447 119.275 40.0835C119.195 40.0223 119.144 39.9329 119.131 39.8347C119.128 39.8089 119.128 39.7829 119.131 39.7571V26.3209ZM124.761 28.7059H122.953V31.5261H124.728C124.912 31.5401 125.097 31.5186 125.273 31.4627C125.449 31.4067 125.611 31.3176 125.752 31.2002C125.892 31.0828 126.007 30.9396 126.091 30.7786C126.174 30.6177 126.225 30.4422 126.239 30.2622C126.239 30.2171 126.239 30.1738 126.239 30.1304C126.245 29.7577 126.099 29.398 125.834 29.1302C125.569 28.8624 125.205 28.7085 124.824 28.7023H124.758M125.247 34.0988H122.953V37.2927H125.251C125.672 37.2702 126.067 37.0877 126.352 36.784C126.638 36.4804 126.79 36.0797 126.777 35.6678C126.769 35.2665 126.609 34.8824 126.326 34.5911C126.044 34.2997 125.66 34.1222 125.251 34.0934" fill="white"/>
<path d="M135.249 26.2921C135.249 26.0051 135.38 25.866 135.663 25.866H138.618C138.669 25.86 138.721 25.8639 138.771 25.8775C138.821 25.8911 138.867 25.9142 138.908 25.9454C138.948 25.9766 138.982 26.0153 139.007 26.0593C139.032 26.1034 139.048 26.1518 139.054 26.2019C139.058 26.2318 139.058 26.2621 139.054 26.2921V39.7373C139.066 39.8383 139.037 39.9398 138.972 40.0197C138.908 40.0995 138.814 40.1512 138.711 40.1634C138.68 40.167 138.649 40.167 138.618 40.1634H135.663C135.38 40.1634 135.249 40.0244 135.249 39.7373V26.2921Z" fill="white"/>
<path d="M143.952 26.2895C143.944 26.2411 143.946 26.1917 143.957 26.1441C143.969 26.0964 143.99 26.0515 144.02 26.0119C144.049 25.9723 144.087 25.9388 144.129 25.9134C144.172 25.8879 144.22 25.8709 144.269 25.8634C144.308 25.858 144.348 25.858 144.387 25.8634H155.072C155.121 25.8574 155.172 25.8609 155.22 25.8739C155.268 25.8868 155.313 25.909 155.352 25.939C155.392 25.969 155.425 26.0063 155.45 26.0488C155.474 26.0913 155.49 26.1381 155.496 26.1866C155.501 26.2208 155.501 26.2554 155.496 26.2895V28.7377C155.502 28.7878 155.498 28.8384 155.484 28.8869C155.47 28.9353 155.446 28.9805 155.414 29.0199C155.382 29.0594 155.342 29.0922 155.297 29.1166C155.252 29.1409 155.202 29.1564 155.151 29.162C155.125 29.1647 155.098 29.1647 155.072 29.162H151.575V39.7347C151.581 39.7846 151.577 39.8352 151.563 39.8836C151.549 39.9321 151.526 39.9774 151.494 40.0169C151.463 40.0565 151.423 40.0896 151.378 40.1143C151.334 40.1389 151.284 40.1547 151.233 40.1608C151.198 40.1653 151.163 40.1653 151.128 40.1608H148.285C148.182 40.1725 148.078 40.1437 147.997 40.0807C147.915 40.0177 147.863 39.9257 147.851 39.825C147.847 39.795 147.847 39.7647 147.851 39.7347V29.1638H144.387C144.336 29.1698 144.284 29.1659 144.235 29.1523C144.185 29.1387 144.139 29.1156 144.098 29.0844C144.058 29.0532 144.024 29.0145 143.999 28.9705C143.973 28.9265 143.957 28.8781 143.952 28.828C143.948 28.798 143.948 28.7677 143.952 28.7377V26.2895Z" fill="white"/>
</g>
<defs>
<clipPath id="clip0_1036_27247">
<rect width="124.5" height="33" fill="white" transform="translate(31 23)"/>
</clipPath>
</defs>
</svg>
