<svg width="1em" height="1em" viewBox="0 0 186 80" fill="none" xmlns="http://www.w3.org/2000/svg">
<path d="M26.7548 27.2925C27.0978 27.1703 27.4704 27.2176 27.8272 27.2097C37.8286 27.2097 47.83 27.2097 57.8314 27.2097C58.7126 27.19 59.4085 28.15 59.1798 28.9839C59.0773 29.8809 58.2612 30.6596 57.3425 30.6201C47.2149 30.6201 37.0893 30.6201 26.9657 30.6201C26.6377 30.6415 26.3123 30.5482 26.0455 30.3562C25.7787 30.1642 25.5869 29.8853 25.503 29.5674C25.3058 28.6429 25.8342 27.5961 26.7548 27.2885M30.3269 32.3549C30.5219 32.3191 30.72 32.3026 30.9183 32.3057C38.7525 32.3057 46.5867 32.3057 54.4209 32.3057C54.6399 32.314 54.8544 32.371 55.0486 32.4724C55.2429 32.5739 55.4122 32.7172 55.5443 32.8921C55.6764 33.067 55.7679 33.2691 55.8123 33.4837C55.8567 33.6984 55.8528 33.9202 55.8009 34.1331C55.724 35.0636 54.8704 35.8699 53.9261 35.8206C46.0801 35.8285 38.2387 35.8324 30.4018 35.8324C30.0769 35.8357 29.7599 35.7324 29.4993 35.5384C29.2387 35.3443 29.0488 35.0702 28.9588 34.758C28.7321 33.7724 29.3038 32.6093 30.3269 32.3628M38.8038 37.7545C39.1156 37.6864 39.4356 37.6632 39.754 37.6855C42.0132 37.6855 44.2704 37.6855 46.5276 37.6855C47.0362 37.6855 47.4127 38.1192 47.5133 38.5786C47.6927 39.6648 46.7681 40.7786 45.6602 40.7628H38.5041C38.261 40.7599 38.0256 40.6768 37.8345 40.5263C37.6434 40.3759 37.5074 40.1666 37.4475 39.9309C37.3783 39.4685 37.4757 38.9965 37.7224 38.5993C37.969 38.2021 38.3488 37.9055 38.7939 37.7624M38.0901 42.9471C38.3081 42.8607 38.542 42.8217 38.7762 42.8328C41.1556 42.8328 43.537 42.8328 45.9184 42.8328C46.4428 42.813 46.8233 43.2743 46.9376 43.7455C47.0875 44.7943 46.2378 45.8628 45.1634 45.914C42.7445 45.914 40.3257 45.914 37.9048 45.914C37.6634 45.9111 37.4296 45.8283 37.2402 45.6785C37.0508 45.5287 36.9164 45.3204 36.858 45.086C36.7892 44.6425 36.8739 44.1888 37.0979 43.7999C37.3219 43.4109 37.672 43.1101 38.0901 42.9471ZM37.8536 47.9997C40.3336 47.9623 42.8155 47.9997 45.2975 47.982C45.8179 47.9662 46.2575 48.4176 46.3462 48.9105C46.3862 49.3079 46.3044 49.7081 46.1119 50.058C45.9193 50.4079 45.625 50.6911 45.2679 50.87C44.8302 51.1224 44.3118 51.0534 43.8288 51.0672H37.3016C37.0584 51.0626 36.8237 50.9772 36.6345 50.8244C36.4453 50.6717 36.3124 50.4602 36.2568 50.2234C36.181 49.7194 36.3049 49.2057 36.602 48.7915C36.8991 48.3774 37.346 48.0954 37.8477 48.0056M36.8442 53.1548C39.2907 53.1213 41.7411 53.1548 44.1915 53.1371C44.4619 53.1285 44.726 53.2199 44.9333 53.3937C45.1406 53.5675 45.2765 53.8116 45.3152 54.0794C45.3522 54.469 45.2723 54.8607 45.0859 55.2047C44.8995 55.5488 44.6149 55.8296 44.2684 56.0113C43.8347 56.2716 43.3162 56.2085 42.8332 56.2183C40.6621 56.2183 38.4936 56.2183 36.3277 56.2183C36.0869 56.222 35.8515 56.147 35.6572 56.0047C35.463 55.8624 35.3205 55.6605 35.2514 55.4298C35.2056 55.1754 35.2108 54.9144 35.2667 54.662C35.3226 54.4097 35.428 54.1709 35.5769 53.9596C35.7259 53.7483 35.9153 53.5687 36.1342 53.4313C36.3531 53.2938 36.5971 53.2012 36.8521 53.1588L36.8442 53.1548Z" fill="#00DAE4"/>
<path d="M112.277 32.3131C112.842 32.1591 113.442 32.1867 113.992 32.392C114.433 32.5891 114.583 33.0957 114.557 33.5393C114.557 35.8208 114.557 38.1017 114.557 40.3819C114.54 40.61 114.473 40.8315 114.36 41.0305C113.392 43.0472 113.325 45.5351 114.372 47.536C114.699 48.0978 114.514 48.776 114.555 49.393C114.619 50.1934 113.678 50.5384 113.02 50.4911C112.367 50.5285 111.472 50.1717 111.525 49.393C111.525 44.0467 111.525 38.701 111.525 33.356C111.511 33.1221 111.577 32.8903 111.714 32.6999C111.85 32.5094 112.048 32.3721 112.275 32.3111M157.32 32.2914C157.884 32.1869 158.515 32.1574 159.037 32.4314C159.432 32.6384 159.548 33.1076 159.528 33.5196C159.528 38.8094 159.528 44.0973 159.528 49.3832C159.597 50.0081 158.962 50.4181 158.411 50.4635C157.661 50.5995 156.459 50.355 156.494 49.391C156.494 44.0434 156.494 38.6964 156.494 33.35C156.481 33.1043 156.557 32.8621 156.708 32.6678C156.859 32.4734 157.075 32.3398 157.316 32.2914M129.895 33.5235C129.958 32.3131 131.635 31.8893 132.457 32.6128C132.609 32.748 132.729 32.9152 132.809 33.1023C132.889 33.2894 132.926 33.4918 132.919 33.695C132.919 35.6427 132.919 37.5904 132.919 39.5401C133.494 38.3928 134.496 37.4012 135.801 37.1449C137.248 36.8847 138.866 37.2928 139.891 38.3829C140.562 39.0611 140.964 39.96 141.256 40.8511C140.728 42.8194 140.719 44.8907 141.228 46.8638C140.869 48.0308 140.193 49.1466 139.166 49.8405C137.741 50.8262 135.758 50.84 134.255 50.0061C133.664 49.671 133.27 49.0914 132.972 48.5059C132.96 49.0165 133.067 49.6217 132.692 50.0377C132.189 50.564 131.367 50.562 130.721 50.3866C130.147 50.2447 129.863 49.598 129.893 49.0559C129.893 43.8791 129.893 38.7003 129.903 33.5235M134.957 39.8181C133.711 40.1375 133.197 41.4957 133.019 42.6411C132.832 44.1038 132.799 45.7145 133.569 47.0274C134.521 48.5867 137.139 48.3383 137.983 46.7888C138.525 45.8032 138.575 44.6479 138.575 43.5499C138.537 42.4834 138.358 41.3203 137.589 40.512C136.94 39.7885 135.87 39.5796 134.955 39.8181M96.0483 36.4254C96.6599 35.5086 97.4662 34.738 98.4097 34.1686C99.3533 33.5992 100.411 33.245 101.507 33.1312C103.303 32.9656 105.231 33.0977 106.788 34.0992C107.618 34.6413 108.458 35.2485 108.978 36.1119C109.176 36.451 109.308 36.9005 109.069 37.2612C108.503 37.9709 107.407 38.3001 106.609 37.7935C106.112 37.3992 105.718 36.9044 105.19 36.5614C103.281 35.2426 100.385 35.6487 99.0053 37.5274C97.9053 38.9369 97.5426 40.792 97.6707 42.5445C97.7575 43.9797 98.2247 45.4404 99.2163 46.5109C100.476 47.8692 102.619 48.4192 104.33 47.6543C105.828 46.982 106.731 45.3517 106.711 43.7352C105.761 43.7234 104.807 43.7569 103.857 43.7194C103.435 43.6899 102.936 43.609 102.686 43.2246C102.254 42.4499 102.469 41.1212 103.502 40.9911C104.779 40.8393 106.077 40.9595 107.362 40.9201C108.044 40.9457 108.866 40.8038 109.41 41.3144C109.832 41.8486 109.804 42.5741 109.834 43.2187C109.814 44.8983 109.511 46.6509 108.541 48.0564C107.61 49.4364 106.063 50.3215 104.438 50.5916C102.207 50.9524 99.7761 50.6508 97.8876 49.3398C96.0266 48.1037 94.9305 45.9609 94.6388 43.7845C94.2977 41.271 94.6388 38.5604 96.0522 36.4116M65.5848 35.7807C65.1057 34.9922 65.4054 33.6122 66.4719 33.5531C69.9789 33.5117 73.484 33.5669 76.9911 33.5255C75.828 33.9947 75.9404 36.0074 77.2139 36.2519C74.7063 39.983 72.2092 43.7221 69.7227 47.469C72.0331 47.469 74.3455 47.4591 76.656 47.469C77.3933 47.4453 77.9551 48.155 77.8684 48.8647C77.8864 49.036 77.8687 49.2092 77.8161 49.3732C77.7636 49.5372 77.6774 49.6885 77.5632 49.8174C77.4489 49.9463 77.3091 50.05 77.1526 50.1219C76.996 50.1937 76.8262 50.2322 76.654 50.2348C73.2632 50.2525 69.8705 50.2466 66.4798 50.2348C65.7188 50.2979 65.0111 49.4127 65.4941 48.7267C68.2126 44.5691 70.9962 40.447 73.7383 36.3071H66.7814C66.5513 36.3236 66.3208 36.2829 66.1103 36.1887C65.8997 36.0944 65.7158 35.9495 65.5749 35.7669M79.1635 33.5452C82.4952 33.4979 85.8287 33.5452 89.1603 33.5215C89.7163 33.4703 90.3885 33.6556 90.6093 34.2234C90.8064 34.8286 90.8064 35.6881 90.215 36.0686C89.9005 36.2598 89.5328 36.3449 89.1663 36.311C88.107 36.311 87.0484 36.311 85.9904 36.311C85.9904 40.6145 85.9904 44.92 85.9904 49.2215C85.9948 49.5086 85.8962 49.7877 85.7125 50.0084C85.5288 50.229 85.2721 50.3765 84.9889 50.424C84.4409 50.5147 83.8061 50.5266 83.3409 50.1796C83.1785 50.043 83.0505 49.8701 82.9673 49.6749C82.884 49.4797 82.8479 49.2677 82.8618 49.0559C82.8618 44.807 82.8618 40.5587 82.8618 36.311C81.7303 36.311 80.6007 36.311 79.4691 36.311C79.2558 36.3178 79.0439 36.2751 78.85 36.1861C78.656 36.0972 78.4853 35.9645 78.3513 35.7985C77.8664 35.0257 78.1207 33.6576 79.1714 33.5511M120.781 37.141C121.528 36.965 122.303 36.9393 123.061 37.0656C123.818 37.1918 124.543 37.4674 125.193 37.8763C126.662 38.791 127.634 40.376 127.967 42.0556C128.639 45.3576 126.867 49.0441 123.742 50.3945C122.959 50.748 122.108 50.9259 121.249 50.9157C120.389 50.9054 119.543 50.7074 118.768 50.3353C117.538 49.7237 116.552 48.7114 115.973 47.465C114.94 45.2808 115.151 42.6076 116.367 40.5357C116.834 39.7015 117.466 38.9713 118.224 38.39C118.983 37.8086 119.852 37.3883 120.779 37.1548M122.198 39.6091C121.81 40.7054 121.167 41.6939 120.322 42.4934C119.477 43.293 118.455 43.8807 117.339 44.2083C118.011 44.4458 118.651 44.767 119.243 45.1644C120.505 45.9885 121.266 47.3645 121.704 48.7701C122.096 47.7364 122.7 46.7963 123.478 46.0102C124.365 45.1841 125.433 44.5766 126.597 44.2359C125.525 43.9048 124.556 43.3043 123.782 42.4918C123.009 41.6793 122.457 40.6821 122.179 39.5953M146.334 37.3125C147.454 36.9833 148.737 36.8946 149.79 37.482C150.606 37.9098 151.144 38.7102 151.483 39.548C151.501 38.9822 151.341 38.3258 151.741 37.8526C152.457 36.8472 154.432 37.2395 154.501 38.5485C154.515 42.0497 154.501 45.5528 154.501 49.0559C154.525 49.5842 154.247 50.1835 153.713 50.3432C153.06 50.5266 152.242 50.5404 151.73 50.0337C151.312 49.6394 151.442 48.9968 151.424 48.4823C151.057 49.2412 150.533 50.0041 149.709 50.3077C147.864 50.9918 145.583 50.4852 144.299 48.9633C143.261 47.745 142.837 46.1225 142.762 44.5553C142.687 42.988 142.821 41.4011 143.481 39.964C144.008 38.7417 145.027 37.6851 146.33 37.3125M147.958 39.8082C146.746 40.1059 146.064 41.34 145.924 42.5031C145.76 43.8692 145.748 45.33 146.318 46.6075C147.014 48.153 149.366 48.5788 150.553 47.3743C151.341 46.4675 151.481 45.192 151.485 44.023C151.465 42.8126 151.308 41.5056 150.537 40.5199C149.934 39.7649 148.853 39.5638 147.952 39.7984" fill="white"/>
</svg>
