<svg width="1em" height="1em" viewBox="0 0 186 80" fill="none" xmlns="http://www.w3.org/2000/svg">
<path d="M29 40C29 36.0476 29 34.0715 29.429 32.4501C30.5932 28.0501 33.9868 24.6134 38.3316 23.4344C39.9327 23 41.884 23 45.7869 23C49.6897 23 51.6411 23 53.2421 23.4344C57.5869 24.6134 60.9806 28.0501 62.1448 32.4501C62.5738 34.0715 62.5738 36.0476 62.5738 40C62.5738 43.9524 62.5738 45.9285 62.1448 47.5499C60.9806 51.9498 57.5869 55.3866 53.2421 56.5655C51.6411 57 49.6897 57 45.7869 57C41.884 57 39.9327 57 38.3316 56.5655C33.9868 55.3866 30.5932 51.9498 29.429 47.5499C29 45.9285 29 43.9524 29 40Z" fill="#14C393"/>
<path fill-rule="evenodd" clip-rule="evenodd" d="M49.4508 43.4737C49.4508 45.6143 47.7658 47.3556 45.6949 47.3556C43.6235 47.3556 41.9385 45.6143 41.9385 43.4737V39.4108H49.4508V43.4737ZM56.6763 32.7148C56.6763 34.4756 55.2995 35.8848 53.6093 35.8848H52.9253V32.7148H49.4556V35.8848H41.9454V32.7148H38.4756V35.8848H37.9473C36.255 35.8848 34.8781 34.4627 34.8781 32.7148H31.3979C31.3979 36.5603 34.2695 39.4074 37.9906 39.4074H38.4756V43.4668C38.4756 47.5815 41.7168 50.9292 45.7008 50.9292C49.6845 50.9292 52.9253 47.5815 52.9253 43.4668V39.4074H53.6527C57.3758 39.4074 60.1755 36.5725 60.1755 32.7148H56.6763Z" fill="white"/>
<path d="M71.0664 48.5019V33.6439H78.4934C79.9667 33.6439 81.0603 33.9977 81.7741 34.7053C82.5031 35.3974 82.8676 36.3818 82.8676 37.6584C82.8676 38.4581 82.7158 39.1273 82.412 39.6655C82.1082 40.1885 81.6982 40.5961 81.1818 40.8884C81.8652 41.1037 82.4044 41.4651 82.7993 41.9728C83.2094 42.4649 83.4144 43.1955 83.4144 44.1645C83.4144 45.5949 83.012 46.6793 82.2069 47.4175C81.4172 48.1405 80.2704 48.5019 78.7669 48.5019H71.0664ZM74.1421 39.804H77.9238C78.6681 39.804 79.1997 39.6425 79.5186 39.3195C79.8376 38.9811 79.997 38.512 79.997 37.9121C79.997 37.2508 79.83 36.7585 79.4958 36.4355C79.1769 36.1125 78.577 35.951 77.6961 35.951H74.1421V39.804ZM74.1421 46.2179H78.0378C78.8124 46.2179 79.382 46.0564 79.7465 45.7334C80.111 45.4104 80.2932 44.8413 80.2932 44.026C80.2932 43.3647 80.111 42.8725 79.7465 42.5495C79.3971 42.2265 78.7592 42.065 77.8328 42.065H74.1421V46.2179ZM85.9681 35.5589V33.1133H89.3171V35.5589H85.9681ZM86.2188 48.5019V39.8733H84.6013L84.8746 37.566H89.2943V48.5019H86.2188ZM96.1962 48.7326C94.9507 48.7326 94.0243 48.4019 93.4167 47.7405C92.8243 47.0792 92.5282 46.1794 92.5282 45.0413V39.9655H91.0018V37.566H92.5282V35.2128L95.6038 34.2899V37.566H98.3376L98.1554 39.9655H95.6038V44.8335C95.6038 45.4334 95.7405 45.8488 96.0138 46.0794C96.2872 46.2948 96.7125 46.4024 97.2896 46.4024C97.715 46.4024 98.1554 46.3255 98.6111 46.1718V48.3174C98.2769 48.4558 97.9124 48.5558 97.5175 48.6173C97.1226 48.6942 96.6821 48.7326 96.1962 48.7326ZM100.189 48.5019V33.6439H110.51V36.0664H103.265V39.8733H109.667V42.2726H103.265V48.5019H100.189ZM116.913 48.7326C114.893 48.7326 113.412 48.2404 112.471 47.256C111.529 46.2563 111.058 44.8489 111.058 43.034C111.058 41.219 111.529 39.8194 112.471 38.835C113.427 37.8353 114.908 37.3354 116.913 37.3354C118.933 37.3354 120.414 37.8353 121.356 38.835C122.313 39.8194 122.791 41.219 122.791 43.034C122.791 44.8489 122.32 46.2563 121.378 47.256C120.437 48.2404 118.948 48.7326 116.913 48.7326ZM116.913 46.0794C117.9 46.0794 118.607 45.8564 119.032 45.4104C119.457 44.9489 119.67 44.1568 119.67 43.034C119.67 41.9112 119.457 41.1268 119.032 40.6808C118.607 40.2193 117.9 39.9885 116.913 39.9885C115.941 39.9885 115.242 40.2193 114.817 40.6808C114.392 41.1268 114.179 41.9112 114.179 43.034C114.179 44.1568 114.392 44.9489 114.817 45.4104C115.242 45.8564 115.941 46.0794 116.913 46.0794ZM124.929 48.5019V37.566H127.777L127.914 38.6965C128.4 38.3889 129 38.1121 129.714 37.866C130.443 37.6045 131.157 37.4276 131.855 37.3354V39.6886C131.445 39.7501 130.997 39.8424 130.511 39.9655C130.025 40.0885 129.562 40.227 129.121 40.3808C128.681 40.5346 128.309 40.6961 128.005 40.8653V48.5019H124.929ZM138.611 48.7326C136.742 48.7326 135.262 48.2635 134.168 47.3253C133.074 46.3716 132.528 44.9335 132.528 43.0109C132.528 41.2729 132.983 39.8963 133.895 38.8811C134.821 37.8506 136.196 37.3354 138.018 37.3354C139.688 37.3354 140.964 37.7814 141.846 38.6735C142.742 39.5503 143.19 40.7038 143.19 42.1343V44.1184H135.375C135.542 44.995 135.938 45.5949 136.56 45.9179C137.198 46.2409 138.094 46.4024 139.249 46.4024C139.826 46.4024 140.41 46.3486 141.003 46.2409C141.611 46.1333 142.127 45.9949 142.552 45.8256V48.0405C142.05 48.2713 141.466 48.4404 140.797 48.548C140.129 48.6711 139.4 48.7326 138.611 48.7326ZM135.375 42.2034H140.502V41.6035C140.502 40.9729 140.319 40.4808 139.955 40.127C139.59 39.7579 138.975 39.5733 138.109 39.5733C137.092 39.5733 136.378 39.7809 135.968 40.1963C135.573 40.6115 135.375 41.2805 135.375 42.2034ZM143.602 48.5019L147.748 42.9418L143.761 37.566H147.087L149.411 40.7499L151.735 37.566H155.061L151.097 42.9418L155.221 48.5019H151.872L149.411 45.1565L146.951 48.5019H143.602Z" fill="white"/>
</svg>
