<svg width="1em" height="1em" viewBox="0 0 186 80" fill="none" xmlns="http://www.w3.org/2000/svg">
<path d="M126.905 39.5015C126.905 38.8006 126.905 38.1536 126.878 37.5605C126.852 36.9674 126.798 36.4012 126.717 35.889C126.636 35.3767 126.474 34.8915 126.258 34.4331C126.043 33.9748 125.719 33.5435 125.315 33.1391C124.749 32.5729 124.129 32.1416 123.428 31.845C122.727 31.5485 121.918 31.3867 121.001 31.3867C120.085 31.3867 119.276 31.5485 118.575 31.845C117.874 32.1416 117.227 32.5729 116.661 33.1391C116.256 33.5435 115.96 33.9748 115.744 34.4331C115.529 34.8915 115.367 35.3767 115.286 35.889C115.205 36.4012 115.151 36.9674 115.124 37.5605C115.097 38.1536 115.097 38.8006 115.097 39.5015C115.097 40.2025 115.097 40.8226 115.124 41.4426C115.151 42.0357 115.205 42.6019 115.286 43.1141C115.367 43.6264 115.529 44.1116 115.744 44.5699C115.96 45.0283 116.283 45.4596 116.661 45.864C117.227 46.4302 117.847 46.8615 118.575 47.1581C119.276 47.4546 120.085 47.6164 121.001 47.6164C121.918 47.6164 122.7 47.4546 123.428 47.1581C124.129 46.8615 124.776 46.4302 125.315 45.864C125.719 45.4596 126.016 45.0283 126.258 44.5699C126.474 44.1116 126.636 43.6264 126.717 43.1141C126.798 42.6019 126.878 42.0357 126.878 41.4426C126.905 40.8226 126.905 40.2025 126.905 39.5015ZM123.805 39.5015C123.805 40.2564 123.805 40.9034 123.778 41.4157C123.751 41.9279 123.724 42.3323 123.643 42.6558C123.589 42.9793 123.509 43.2489 123.401 43.4376C123.293 43.6533 123.185 43.842 123.023 44.0038C122.808 44.2734 122.511 44.4621 122.188 44.6239C121.837 44.7856 121.46 44.8395 121.028 44.8665C120.597 44.8665 120.219 44.7856 119.869 44.6239C119.519 44.4621 119.249 44.2734 119.006 44.0038C118.845 43.842 118.737 43.6533 118.629 43.4376C118.521 43.222 118.44 42.9793 118.386 42.6558C118.332 42.3323 118.278 41.9279 118.278 41.4157C118.251 40.9034 118.251 40.2834 118.251 39.5015C118.251 38.7467 118.251 38.0996 118.278 37.5874C118.305 37.0752 118.332 36.6708 118.386 36.3473C118.44 36.0238 118.521 35.7542 118.629 35.5655C118.737 35.3498 118.845 35.1611 119.006 34.9993C119.222 34.7297 119.519 34.541 119.869 34.3792C120.219 34.2175 120.597 34.1636 121.028 34.1366C121.46 34.1366 121.837 34.2175 122.188 34.3792C122.511 34.541 122.808 34.7297 123.023 34.9993C123.185 35.1611 123.293 35.3498 123.401 35.5655C123.509 35.7811 123.589 36.0238 123.643 36.3473C123.697 36.6708 123.751 37.0752 123.778 37.5874C123.778 38.0996 123.805 38.7467 123.805 39.5015Z" fill="#28CD96"/>
<path d="M151.762 31.793C151.762 31.6313 151.628 31.5234 151.493 31.5234H148.932C148.77 31.5234 148.662 31.6582 148.662 31.793V41.3098L142.381 31.6043C142.327 31.5504 142.3 31.5234 142.219 31.5234H139.819C139.685 31.5234 139.55 31.6582 139.55 31.793C139.55 36.9423 139.55 42.0916 139.55 47.2139C139.55 47.3757 139.685 47.4835 139.819 47.4835H142.381C142.542 47.4835 142.65 47.3487 142.65 47.2139V37.6702L148.932 47.4026C148.986 47.4565 149.013 47.4835 149.093 47.4835H151.493C151.655 47.4835 151.762 47.3487 151.762 47.2139V31.793Z" fill="#28CD96"/>
<path d="M134.508 31.793C134.508 31.6313 134.373 31.5234 134.238 31.5234H131.677C131.516 31.5234 131.408 31.6582 131.408 31.793V47.2139C131.408 47.3757 131.543 47.4835 131.677 47.4835H134.238C134.4 47.4835 134.508 47.3487 134.508 47.2139V31.793Z" fill="#28CD96"/>
<path d="M103.747 39.5015C103.747 38.7467 103.747 38.0996 103.774 37.5874C103.801 37.0752 103.828 36.6708 103.882 36.3473C104.124 34.9723 105.176 34.1636 106.524 34.1636C107.414 34.1636 108.195 34.4871 108.708 35.2419C108.923 35.5655 109.085 35.9429 109.193 36.3742C109.193 36.4282 109.22 36.4551 109.274 36.4551H112.293C112.347 36.4551 112.347 36.4282 112.347 36.3742C112.024 34.514 111.026 32.8156 109.247 31.9798C108.438 31.6024 107.494 31.3867 106.47 31.3867C104.772 31.3867 103.316 31.9798 102.156 33.1391C101.482 33.8131 101.051 34.6219 100.862 35.5385C100.674 36.4282 100.593 37.7492 100.593 39.5015C100.593 41.2539 100.674 42.5749 100.862 43.4646C101.051 44.3812 101.509 45.19 102.156 45.864C103.316 47.0233 104.772 47.6164 106.47 47.6164C107.494 47.6164 108.411 47.4277 109.247 47.0233C110.999 46.1875 112.024 44.516 112.347 42.6289C112.347 42.5749 112.347 42.548 112.293 42.548H109.274C109.22 42.548 109.193 42.5749 109.193 42.6289C109.085 43.0602 108.923 43.4376 108.708 43.7612C108.195 44.4891 107.414 44.8126 106.524 44.8395C105.176 44.8395 104.124 44.0308 103.882 42.6558C103.828 42.3323 103.774 41.9279 103.774 41.4157C103.747 40.9034 103.747 40.2564 103.747 39.5015Z" fill="#28CD96"/>
<path d="M71.7732 31.7926C71.7732 31.6309 71.6384 31.5231 71.5036 31.5231H68.9424C68.7807 31.5231 68.6729 31.6578 68.6729 31.7926V47.2135C68.6729 47.3753 68.8076 47.4831 68.9424 47.4831H71.5036C71.6654 47.4831 71.7732 47.3483 71.7732 47.2135V42.6843L73.8491 40.204L78.0817 47.4022C78.1087 47.4561 78.1626 47.4831 78.2435 47.4831H81.3708C81.5056 47.4831 81.5326 47.4022 81.4786 47.2674L75.925 37.8585L81.0203 31.7387C81.1282 31.6039 81.0743 31.4961 80.9125 31.4961H77.4886C77.4347 31.4961 77.4078 31.4961 77.3808 31.55L71.7732 38.2629V31.7926Z" fill="#28CD96"/>
<path d="M90.5099 44.8415C89.0541 44.8415 87.76 43.4935 87.76 41.9029V31.793C87.76 31.6313 87.6252 31.5234 87.4904 31.5234H84.9293C84.7675 31.5234 84.6597 31.6582 84.6597 31.793V41.8759C84.6597 45.4076 87.3017 47.6453 90.5368 47.6453C93.772 47.6453 96.414 45.4076 96.414 41.8759V31.793C96.414 31.6313 96.2792 31.5234 96.1444 31.5234H93.5833C93.4215 31.5234 93.3137 31.6582 93.3137 31.793V41.9029C93.2598 43.4935 91.9387 44.8415 90.5099 44.8415Z" fill="#28CD96"/>
<path d="M42.7913 39.5L50.7713 47.48L55.8128 42.4386C56.7024 41.5489 58.1583 41.5489 59.0479 42.4386C59.9376 43.3283 59.9376 44.7841 59.0479 45.6737L52.3889 52.3328C51.4992 53.2224 50.0434 53.2224 49.1538 52.3328L39.5831 42.7351V48.4506C39.5831 49.6907 38.5587 50.7421 37.2916 50.7421C36.0245 50.7421 35 49.7177 35 48.4506V30.6033C35 29.3362 36.0245 28.3118 37.2916 28.3118C38.5587 28.3118 39.5831 29.3362 39.5831 30.6033V36.2649L49.1807 26.6672C50.0704 25.7776 51.5262 25.7776 52.4159 26.6672L59.0749 33.3263C59.9646 34.2159 59.9646 35.6717 59.0749 36.5614C58.1852 37.4511 56.7294 37.4511 55.8397 36.5614L50.7983 31.52L42.7913 39.5ZM50.7983 37.2084C49.5312 37.2084 48.5067 38.2329 48.5067 39.5C48.5067 40.7671 49.5312 41.7916 50.7983 41.7916C52.0654 41.7916 53.0899 40.7671 53.0899 39.5C53.0629 38.2329 52.0384 37.2084 50.7983 37.2084Z" fill="#28CD96"/>
</svg>
