<svg width="1em" height="1em" viewBox="0 0 186 80" fill="none" xmlns="http://www.w3.org/2000/svg">
<g clip-path="url(#clip0_1036_27245)">
<path d="M35.2564 27C27.9051 27 22 32.6795 22 39.75C22 46.8205 27.9051 52.5 35.2564 52.5C42.6077 52.5 48.5128 46.8205 48.5128 39.75C48.3923 32.6795 42.4872 27 35.2564 27ZM36.4615 41.8364C36.8231 42.1841 37.0641 42.5318 37.0641 43.1114C37.0641 44.0386 36.2205 44.85 35.2564 44.85C34.7744 44.85 34.2923 44.6182 33.9308 44.2705C33.3282 43.8068 32.6051 43.4591 31.641 43.4591C30.6769 43.4591 29.9538 43.8068 29.3513 44.2705L29.2308 44.3864C28.8692 44.6182 28.5077 44.85 28.0256 44.85C27.5436 44.85 27.1821 44.7341 26.8205 44.3864C26.7 44.2705 26.7 44.2705 26.5795 44.1545C26.5795 44.1545 26.5795 44.1545 26.5795 44.0386L26.459 43.9227C26.459 43.8068 26.3385 43.6909 26.3385 43.575C26.3385 43.4591 26.2179 43.2273 26.2179 43.1114C26.2179 42.8795 26.2179 42.7636 26.3385 42.6477C26.3385 42.5318 26.459 42.4159 26.459 42.3C26.459 42.3 26.459 42.1841 26.5795 42.1841C26.5795 42.1841 26.5795 42.1841 26.5795 42.0682C26.8205 42.0682 26.8205 42.0682 26.8205 41.9523L26.941 41.8364C27.4231 41.2568 27.7846 40.5614 27.7846 39.75C27.7846 38.9386 27.5436 38.2432 26.941 37.6636C26.7 37.3159 26.459 36.8523 26.459 36.2727C26.459 35.3455 27.3026 34.5341 28.2667 34.5341C29.2308 34.5341 29.9538 35.3455 29.9538 36.2727C29.9538 36.7364 29.7128 37.2 29.3513 37.5477C28.8692 38.1273 28.5077 38.9386 28.5077 39.75C28.5077 40.5614 28.8692 41.3727 29.3513 41.9523L29.4718 42.0682C30.0744 42.5318 30.7974 42.8795 31.641 42.8795C32.4846 42.8795 33.2077 42.6477 33.8103 42.0682C33.8103 41.9523 33.9308 41.9523 34.0513 41.8364C34.5333 41.2568 34.8949 40.5614 34.8949 39.75C34.8949 38.9386 34.6538 38.2432 34.0513 37.6636C33.6897 37.3159 33.4487 36.8523 33.4487 36.2727C33.4487 35.3455 34.2923 34.5341 35.2564 34.5341C36.2205 34.5341 37.0641 35.3455 37.0641 36.2727C37.0641 36.7364 36.8231 37.2 36.4615 37.5477C35.9795 38.1273 35.6179 38.8227 35.6179 39.75C35.6179 40.5614 35.859 41.2568 36.4615 41.8364ZM38.7513 41.3727C37.7872 41.3727 36.9436 40.5614 36.9436 39.6341C36.9436 38.7068 37.7872 37.8955 38.7513 37.8955C39.7154 37.8955 40.559 38.7068 40.559 39.6341C40.559 40.6773 39.7154 41.3727 38.7513 41.3727ZM43.4513 41.8364C43.5718 41.9523 43.5718 41.9523 43.4513 41.8364C43.5718 42.0682 43.6923 42.0682 43.6923 42.0682C43.6923 42.0682 43.6923 42.0682 43.6923 42.1841L43.8128 42.3C43.8128 42.4159 43.9333 42.5318 43.9333 42.6477C43.9333 42.7636 44.0538 42.9955 44.0538 43.1114C44.0538 43.3432 44.0538 43.4591 43.9333 43.575C43.9333 43.6909 43.8128 43.8068 43.8128 43.9227C43.8128 43.9227 43.8128 44.0386 43.6923 44.0386C43.6923 44.0386 43.6923 44.0386 43.6923 44.1545C43.5718 44.2705 43.5718 44.2705 43.4513 44.3864C43.0897 44.6182 42.7282 44.85 42.2462 44.85C41.7641 44.85 41.4026 44.7341 41.041 44.3864C40.9205 44.2705 40.9205 44.2705 40.8 44.1545C40.8 44.1545 40.8 44.1545 40.8 44.0386L40.6795 43.9227C40.6795 43.8068 40.559 43.6909 40.559 43.575C40.559 43.4591 40.4385 43.2273 40.4385 43.1114C40.4385 42.8795 40.4385 42.7636 40.559 42.6477C40.559 42.5318 40.6795 42.4159 40.6795 42.3C40.6795 42.3 40.6795 42.1841 40.8 42.1841C40.8 42.1841 40.8 42.1841 40.8 42.0682L40.9205 41.9523L41.041 41.8364C41.5231 41.2568 41.8846 40.5614 41.8846 39.75C41.8846 38.9386 41.6436 38.2432 41.041 37.6636C40.6795 37.3159 40.4385 36.8523 40.4385 36.3886C40.4385 35.4614 41.2821 34.65 42.2462 34.65C43.2103 34.65 44.0538 35.4614 44.0538 36.3886C44.0538 36.8523 43.8128 37.3159 43.4513 37.6636C42.9692 38.2432 42.6077 38.9386 42.6077 39.8659C42.6077 40.5614 42.9692 41.2568 43.4513 41.8364Z" fill="#F8E19A"/>
<path d="M59.9614 49.2539V30.1289H65.023V45.4289H73.9409V49.2539H59.9614Z" fill="#F8E19A"/>
<path d="M162.277 49.2539L152.395 39.7494L162.277 30.2448H155.046L148.779 36.2721V30.1289H143.718V49.2539H148.779V43.2266L155.046 49.2539H162.277Z" fill="#F8E19A"/>
<path d="M104.552 45.5448L103.347 49.2539H98.0439L104.913 30.1289H111.662L118.531 49.2539H113.229L112.023 45.5448L110.818 41.9516L108.288 33.9539L105.636 41.9516L104.552 45.5448Z" fill="#F8E19A"/>
<path d="M126.726 36.7357V49.2539H121.905V30.1289H128.172L135.644 43.2266V30.1289H140.464V49.2539H134.198L126.726 36.7357Z" fill="#F8E19A"/>
<path d="M94.3076 41.8357C94.0666 41.2562 93.7051 40.7925 93.3435 40.3289C92.982 39.9812 92.5 39.6335 91.8974 39.4016C91.4153 39.1698 90.8128 39.0539 90.3307 38.938C90.8128 38.8221 91.2948 38.7062 91.7769 38.4744C92.2589 38.2425 92.6205 38.0107 92.982 37.663C93.3435 37.3153 93.5846 36.9675 93.7051 36.388C93.9461 35.9244 93.9461 35.3448 93.9461 34.7653C93.9461 34.1857 93.8256 33.6062 93.7051 33.0266C93.4641 32.4471 93.223 31.9835 92.6205 31.5198C92.1384 31.0562 91.5359 30.7085 90.6923 30.4766C89.8487 30.2448 88.8846 30.1289 87.6794 30.1289H82.2564H79.4846H77.1948V49.2539H79.4846H82.2564H88.4025C90.4512 49.2539 91.8974 48.7903 92.982 47.863C94.0666 46.9357 94.5487 45.6607 94.5487 44.038C94.6692 43.2266 94.5487 42.5312 94.3076 41.8357ZM82.3769 33.2585H87.6794C88.1615 33.2585 88.523 33.3744 88.8846 33.4903C89.2461 33.6062 89.4871 33.7221 89.7282 33.9539C89.9692 34.1857 90.0897 34.4175 90.2102 34.6494C90.3307 34.8812 90.3307 35.113 90.3307 35.4607C90.3307 36.0403 90.0897 36.6198 89.7282 36.9675C89.3666 37.4312 88.6435 37.5471 87.6794 37.5471H82.3769V33.2585ZM90.3307 45.1971C89.9692 45.6607 89.2461 45.7766 88.282 45.7766H82.3769V41.488H88.282C88.7641 41.488 89.1256 41.6039 89.4871 41.7198C89.8487 41.8357 90.0897 41.9516 90.3307 42.1835C90.5718 42.4153 90.6923 42.6471 90.8128 42.8789C90.9333 43.1107 90.9333 43.3425 90.9333 43.6903C90.9333 44.2698 90.8128 44.8494 90.3307 45.1971Z" fill="#F8E19A"/>
</g>
<defs>
<clipPath id="clip0_1036_27245">
<rect width="141" height="25.5" fill="white" transform="translate(22 27)"/>
</clipPath>
</defs>
</svg>
