<svg width="186" height="81" viewBox="0 0 186 81" fill="none" xmlns="http://www.w3.org/2000/svg">
<path fill-rule="evenodd" clip-rule="evenodd" d="M79.955 40.6806C79.955 30.7581 71.9 22.7031 61.9775 22.7031C52.055 22.7031 44 30.7581 44 40.6806V40.7256C44 50.6481 52.055 58.7031 61.9775 58.7031C71.9 58.7031 79.955 50.6481 79.955 40.7256V40.6806ZM69.2 41.7231C69.2 46.0131 66.05 48.7581 62 48.7581C60.065 48.7581 58.505 48.1581 57.455 46.9731V48.5481H53.99V29.7081H57.65V36.3381C58.73 35.2131 60.2 34.6881 62 34.6881C66.05 34.6881 69.2 37.4181 69.2 41.7231ZM65.81 41.7231C65.81 39.3531 64.22 37.9281 62.12 37.9281C60.02 37.9281 58.445 39.3531 58.445 41.7231C58.445 44.0781 60.035 45.5031 62.12 45.5031C64.22 45.5031 65.81 44.0781 65.81 41.7231Z" fill="#9B2AD6"/>
<path d="M69.7549 46.5659C69.7549 45.3659 70.6849 44.5859 71.8549 44.5859C73.0549 44.5859 73.9849 45.3659 73.9849 46.5659C73.9849 47.7659 73.0399 48.5909 71.8699 48.5909C70.6849 48.5909 69.7549 47.7359 69.7549 46.5659Z" fill="#FF8500"/>
<path d="M97.1151 32.0312C98.7471 31.9427 100.369 32.3507 101.765 33.2012C102.845 33.8912 103.489 35.0987 103.46 36.3812C103.459 38.2112 102.184 39.8102 100.4 40.2212C102.563 40.5377 104.167 42.4457 104.105 44.6312C104.105 46.1312 103.505 47.3162 102.305 48.1862C101.105 49.0412 99.4551 49.4762 97.4001 49.4762H88.9551V32.0312H97.1151ZM96.9201 39.0512C97.6701 39.0512 98.2701 38.9012 98.6901 38.5562C99.1401 38.2112 99.3501 37.7312 99.3501 37.1162C99.3501 36.5162 99.1401 36.0512 98.6901 35.7212C98.1741 35.3597 97.5486 35.1902 96.9201 35.2412H92.9601V39.0512H96.9201ZM96.9201 46.2512C97.8651 46.2512 98.6151 46.0712 99.1551 45.7112C99.6951 45.3362 99.9651 44.8112 99.9651 44.1362C99.9651 43.5062 99.6951 43.0112 99.1551 42.6362C98.4756 42.2387 97.6896 42.0602 96.9051 42.1262H92.9601V46.2662H96.9201V46.2512ZM120.56 32.0312H124.37V49.4762H120.71L112.115 38.2562V49.4762H108.29V32.0312H111.935L120.56 43.2812V32.0312ZM141.245 36.8912C139.559 35.8832 137.666 35.2682 135.71 35.0912C135.02 35.0912 134.465 35.2112 134.06 35.4662C133.672 35.6897 133.439 36.1127 133.46 36.5612C133.46 37.1762 133.745 37.6562 134.315 37.9862C134.915 38.2862 135.815 38.6312 137.03 38.9762C138.245 39.3362 139.25 39.6812 140.03 40.0262C140.825 40.3712 141.5 40.8962 142.055 41.6012C142.61 42.2912 142.895 43.2212 142.895 44.3612C142.895 45.4862 142.595 46.4462 141.98 47.2562C141.38 48.0512 140.57 48.6662 139.52 49.0712C138.47 49.4912 137.27 49.7012 135.935 49.7012C133.084 49.6952 130.318 48.7097 128.105 46.9112L129.695 43.6862C130.595 44.4962 131.63 45.1262 132.8 45.6062C133.955 46.1012 135.02 46.3412 135.995 46.3412C136.82 46.3412 137.465 46.1912 137.915 45.8912C138.395 45.5912 138.635 45.1412 138.635 44.5862C138.635 44.1362 138.47 43.7762 138.155 43.4912C137.855 43.1912 137.45 42.9512 136.955 42.7712C136.475 42.5912 135.83 42.3812 134.975 42.1412C133.76 41.8112 132.755 41.4812 131.975 41.1512C131.209 40.8107 130.535 40.2902 130.01 39.6362C129.416 38.8547 129.119 37.8872 129.17 36.9062C129.17 35.8562 129.455 34.9562 130.025 34.1762C130.61 33.3662 131.405 32.7662 132.44 32.3462C133.585 31.8947 134.809 31.6757 136.04 31.7012C138.425 31.6937 140.765 32.3582 142.79 33.6212L141.245 36.8912Z" fill="white"/>
</svg>
