<svg width="1em" height="1em" viewBox="0 0 186 80" fill="none" xmlns="http://www.w3.org/2000/svg">
<g clip-path="url(#clip0_1036_27249)">
<path d="M78.5099 31.9982C78.2066 31.6937 77.8578 31.4384 77.4759 31.2415C77.2875 31.142 77.0913 31.0582 76.8891 30.9911L77.0179 30.9284C77.2653 30.8007 77.4931 30.638 77.6941 30.4454C78.0283 30.1016 78.2776 29.6844 78.4222 29.2272C78.5804 28.7373 78.6583 28.225 78.653 27.7102C78.6587 27.2122 78.5751 26.7172 78.4061 26.2487C78.254 25.8293 78.0094 25.4496 77.6905 25.1377C76.9965 24.4615 75.8283 24 74.2576 24H66.0161V38.6387H74.8516C75.5414 38.6526 76.228 38.5417 76.8784 38.3113C77.4161 38.1115 77.9043 37.7978 78.3095 37.3918C78.6495 37.0431 78.909 36.6243 79.0698 36.1646C79.2515 35.6585 79.343 35.1245 79.3399 34.5868C79.3443 34.0919 79.2769 33.5989 79.1396 33.1234C79.0206 32.7043 78.8049 32.3189 78.5099 31.9982ZM75.2684 35.3918C75.1079 35.5097 74.9254 35.5942 74.7317 35.6404C74.476 35.7033 74.2133 35.7334 73.9499 35.7299H69.4508V32.7656H73.9857C74.4331 32.7452 74.8743 32.8763 75.238 33.1377C75.397 33.269 75.5165 33.4417 75.5832 33.6368C75.6592 33.8639 75.6955 34.1023 75.6905 34.3417C75.6945 34.5542 75.6599 34.7658 75.5886 34.966C75.5224 35.1343 75.4117 35.2815 75.2684 35.3918ZM74.8891 27.6995C74.9725 27.9145 75.0149 28.1432 75.0143 28.3739C75.0187 28.6316 74.9763 28.888 74.8891 29.1306C74.8213 29.3174 74.7118 29.4863 74.5689 29.6243C74.4504 29.7366 74.3088 29.8215 74.1539 29.873C73.9872 29.928 73.8124 29.9546 73.6369 29.9517H69.4508V26.8927H73.3363C73.5874 26.8877 73.8381 26.9148 74.0823 26.9732C74.266 27.0163 74.437 27.1021 74.5814 27.2236C74.7221 27.3569 74.8298 27.521 74.8963 27.703L74.8891 27.6995Z" fill="white"/>
<path d="M82.0767 38.6387H82.2682H85.6367V24H82.0767V38.6387Z" fill="white"/>
<path d="M87.7959 27.0179H92.4346V38.6387H95.9945V27.0179H100.649V24H87.7959V27.0179Z" fill="white"/>
<path d="M101.925 27.0179H106.562V38.6387H110.122V27.0179H114.778V24H101.925V27.0179Z" fill="white"/>
<path d="M128.88 31.0346C129.229 30.4318 129.429 29.5552 129.429 28.4497C129.437 27.923 129.385 27.3971 129.272 26.8826C129.176 26.4583 129.004 26.0547 128.766 25.6912C128.442 25.1419 127.958 24.7049 127.379 24.4389C126.651 24.1237 125.862 23.9735 125.07 23.9989H116.938V38.6375H120.39V33.0919H123.832L126.612 38.6375H130.547L127.181 32.4067C127.54 32.3014 127.876 32.1259 128.167 31.8904C128.459 31.6549 128.701 31.3641 128.88 31.0346ZM125.8 29.7234C125.76 29.7997 125.705 29.8672 125.639 29.9219C125.508 30.0229 125.357 30.0955 125.197 30.1348C124.984 30.1885 124.765 30.2143 124.546 30.2117H120.408V27.0167H124.365C124.695 27.0041 125.025 27.0601 125.333 27.1813C125.443 27.2295 125.544 27.2954 125.633 27.3763C125.716 27.4543 125.785 27.5463 125.835 27.6482C125.859 27.7061 125.879 27.766 125.893 27.8271C125.952 28.1149 125.981 28.4081 125.978 28.7019C125.977 28.8866 125.96 29.0709 125.928 29.2529C125.905 29.4144 125.862 29.5725 125.8 29.7234Z" fill="white"/>
<path d="M136.197 32.864H143.739V29.7746H136.197V27.0733H144.028V24H132.762V38.6387H132.955H144.118V35.585H136.197V32.864Z" fill="white"/>
<path d="M160.011 43.1562H66.0967V55.9988H160.011V43.1562Z" fill="#1C6FE8"/>
<path d="M99.9677 53.1464L99.8962 52.4791C99.5169 52.921 98.966 53.2466 97.8193 53.2466C96.7012 53.2466 95.8067 52.8494 95.2844 52.1911C94.8962 51.7027 94.6064 50.7922 94.6064 49.5918C94.6064 48.5543 94.7244 47.7868 95.2575 47.0641C95.7173 46.4415 96.5831 45.9102 98.0089 45.9102C99.5259 45.9102 100.401 46.4058 100.825 47.1625C101.05 47.5614 101.169 48.0119 101.168 48.4702H99.6511C99.6329 48.168 99.5058 47.8826 99.2933 47.667C99.127 47.5148 98.9321 47.3973 98.7198 47.3214C98.5075 47.2455 98.2823 47.2128 98.0572 47.2251C97.4239 47.2251 96.9731 47.3879 96.6672 47.7224C96.3613 48.0569 96.1985 48.6526 96.1985 49.6276C96.1985 50.6026 96.3524 51.116 96.6404 51.4773C96.8765 51.7671 97.3989 52.0015 98.0858 52.0015C98.9964 52.0015 99.6457 51.5399 99.7728 50.955V50.2966H97.7119V49.0158H101.208V51.2179C101.208 52.0927 101.216 53.1124 101.216 53.1392L99.9677 53.1464Z" fill="white"/>
<path d="M102.25 53.1444V46.0156H103.821V51.8189H107.386V53.1444H102.25Z" fill="white"/>
<path d="M113.802 47.0551C114.217 47.6061 114.406 48.4272 114.406 49.5382C114.406 50.7009 114.181 51.506 113.775 52.1088C113.279 52.8494 112.331 53.2466 110.932 53.2466C109.533 53.2466 108.623 52.8673 108.107 52.1267C107.666 51.522 107.458 50.6741 107.458 49.556C107.458 48.4988 107.648 47.6777 108.072 47.1195C108.608 46.3789 109.488 45.9102 110.934 45.9102C112.349 45.9102 113.261 46.3163 113.802 47.0551ZM112.349 51.4505C112.692 51.107 112.837 50.3593 112.837 49.5739C112.837 48.7886 112.692 48.0748 112.394 47.76C112.095 47.4451 111.717 47.209 110.932 47.209C110.147 47.209 109.794 47.4254 109.488 47.7689C109.208 48.0838 109.047 48.8154 109.047 49.5829C109.047 50.3861 109.226 51.1249 109.583 51.4863C109.873 51.7761 110.252 51.9657 110.946 51.9657C111.682 51.9657 112.061 51.7385 112.349 51.4505Z" fill="white"/>
<path d="M119.703 53.1444H115.381V46.0156H119.406C120.173 46.0156 120.731 46.241 121.057 46.5523C121.211 46.7143 121.33 46.9058 121.407 47.1152C121.485 47.3246 121.519 47.5476 121.508 47.7706C121.533 48.2458 121.371 48.712 121.057 49.0693C120.864 49.2472 120.628 49.3707 120.372 49.4271C120.786 49.486 121.17 49.6796 121.463 49.9781C121.724 50.2482 121.851 50.6936 121.851 51.2053C121.869 51.697 121.694 52.1761 121.365 52.5416C121.003 52.9101 120.47 53.1444 119.703 53.1444ZM119.631 47.4593C119.433 47.3165 119.19 47.2493 118.946 47.2697H116.907V48.9942H119.096C119.293 49.0046 119.486 48.9364 119.633 48.8046C119.721 48.7121 119.788 48.6026 119.832 48.4829C119.875 48.3632 119.893 48.2358 119.885 48.1087C119.889 47.9891 119.868 47.87 119.825 47.7584C119.782 47.6469 119.716 47.5452 119.633 47.4593H119.631ZM120.218 51.0872C120.229 50.9621 120.211 50.8362 120.165 50.719C120.12 50.6019 120.049 50.4965 119.957 50.411C119.758 50.2661 119.516 50.1929 119.27 50.2035H116.907V51.8815H119.252C119.505 51.8965 119.756 51.83 119.968 51.6919C120.054 51.6175 120.121 51.5241 120.164 51.4192C120.208 51.3142 120.226 51.2005 120.218 51.0872Z" fill="white"/>
<path d="M123.747 53.1444H122.15L124.912 46.0156H126.88L129.488 53.1444H127.864L127.259 51.4664H124.388L123.747 53.1444ZM126.032 47.9834L125.869 47.3967L125.69 47.9924L124.878 50.1766H126.789L126.032 47.9834Z" fill="white"/>
<path d="M130.162 53.1444V46.0156H131.733V51.8189H135.298V53.1444H130.162Z" fill="white"/>
<path d="M57 46.7191V24H34.2809V30.7209H38.4311V28.1503H52.8479V42.5653H47.7191V33.2826H25V56.0018H47.7191V49.2826H43.5689V51.8497H29.1503V37.4329H34.2826V46.7191H57ZM43.5653 42.5671H38.4329V37.4329H43.5653V42.5671Z" fill="#1C6FE8"/>
<path d="M154.681 31.0054L153.13 28.7943L149.91 24H145.794L150.851 31.2451L145.478 38.6386H149.497L149.576 38.5241L152.764 33.9338L155.93 38.6386H160.03L154.681 31.0054Z" fill="white"/>
<path d="M155.463 26.5259H157.503V28.517H160.031V24H155.512V26.5259H155.463Z" fill="#1C6FE8"/>
</g>
<defs>
<clipPath id="clip0_1036_27249">
<rect width="136" height="32" fill="white" transform="translate(25 24)"/>
</clipPath>
</defs>
</svg>
