<svg width="1em" height="1em" viewBox="0 0 186 80" fill="none" xmlns="http://www.w3.org/2000/svg">
<g clip-path="url(#clip0_1036_27234)">
<path d="M63.3629 36.2387C62.4233 35.3263 61.1611 34.8154 59.8468 34.8154C58.5324 34.8154 57.2702 35.3263 56.3306 36.2387C55.8701 36.6954 55.5051 37.238 55.2567 37.8353C55.0082 38.4326 54.8812 39.0727 54.883 39.7189C54.8848 40.3651 55.0153 41.0046 55.267 41.6006C55.5187 42.1965 55.8866 42.7371 56.3496 43.1913C57.2865 44.1148 58.5521 44.6348 59.8723 44.639C61.1926 44.6431 62.4614 44.1309 63.4041 43.2134C63.439 43.1787 63.5753 43.0308 63.8163 42.7664L61.4701 40.4531C61.2291 40.7301 61.1023 40.8748 61.0864 40.8874C60.768 41.2019 60.3371 41.3784 59.888 41.3784C59.4388 41.3784 59.0079 41.2019 58.6895 40.8874C58.3735 40.5793 58.1936 40.1593 58.1894 39.7196C58.1853 39.2799 58.3572 38.8565 58.6673 38.5426C58.9874 38.2364 59.4156 38.0669 59.8601 38.0704C60.3047 38.0739 60.7301 38.2502 61.0452 38.5615L67.3165 44.7399C66.4502 45.97 65.2986 46.9753 63.9589 47.671C62.6191 48.3667 61.1304 48.7323 59.6185 48.7371C58.0301 48.7376 56.4681 48.3345 55.0811 47.5662C53.6941 46.7979 52.5283 45.69 51.6946 44.3478C50.861 43.0057 50.3873 41.4741 50.3186 39.8988C50.2499 38.3236 50.5886 36.7571 51.3023 35.3485C52.016 33.9399 53.081 32.7361 54.396 31.8517C55.7109 30.9673 57.232 30.4317 58.8145 30.296C60.3969 30.1603 61.988 30.4289 63.4363 31.0763C64.8845 31.7237 66.1418 32.7284 67.0883 33.9946C66.8135 34.3135 66.1065 35.1077 64.9672 36.3772L67.2912 38.6465L71.1212 34.3817C70.1952 32.3254 68.7275 30.5552 66.8728 29.2578C65.018 27.9604 62.845 27.1838 60.5828 27.01C58.3206 26.8362 56.0531 27.2715 54.0193 28.2701C51.9856 29.2688 50.2609 30.7936 49.0272 32.684C47.7936 34.5744 47.0966 36.7602 47.0097 39.0109C46.9229 41.2617 47.4495 43.494 48.5339 45.4725C49.6183 47.451 51.2204 49.1024 53.1713 50.2525C55.1222 51.4026 57.3495 52.0088 59.6185 52.0073C62.789 52.0073 65.411 51.0284 67.976 48.8598C69.4508 47.5702 70.6238 45.976 71.4129 44.1891L63.3629 36.2387Z" fill="url(#paint0_linear_1036_27234)"/>
<path d="M115.167 41.1886V47.1687H112.678V41.0596C112.54 40.3555 112.158 39.7216 111.599 39.2682C111.039 38.8148 110.337 38.5706 109.614 38.5781C108.892 38.5856 108.195 38.8443 107.645 39.3092C107.094 39.7741 106.726 40.4157 106.603 41.1225V47.1813H104.114V36.307L106.017 37.4967C107.03 36.6464 108.314 36.1812 109.641 36.1842C111.028 36.1723 112.368 36.6815 113.393 37.6096C114.418 38.5377 115.052 39.8162 115.167 41.1886ZM89.0574 34.9284C88.2351 35.3483 87.4961 35.9124 86.876 36.5934C86.3797 35.8875 85.7085 35.3207 84.927 34.9476C84.1456 34.5745 83.2804 34.4079 82.4151 34.4637C81.5499 34.5195 80.7137 34.796 79.9875 35.2663C79.2613 35.7367 78.6696 36.3851 78.2696 37.1488C77.8695 37.9125 77.6747 38.7657 77.7038 39.626C77.733 40.4863 77.9853 41.3246 78.4361 42.0598C78.887 42.7951 79.5214 43.4025 80.2778 43.8232C81.0342 44.244 81.8872 44.464 82.7543 44.4619C83.6278 44.4692 84.4884 44.2523 85.2527 43.8325C85.5239 44.7051 85.9537 45.5212 86.5209 46.2402C85.3626 46.8633 84.0654 47.1879 82.748 47.1845C81.7187 47.2052 80.6955 47.0218 79.7385 46.645C78.7815 46.2683 77.9098 45.7058 77.1745 44.9905C76.4392 44.2752 75.855 43.4214 75.4562 42.4792C75.0575 41.5369 74.8521 40.5252 74.8521 39.5032C74.8521 38.4812 75.0575 37.4694 75.4562 36.5272C75.855 35.585 76.4392 34.7312 77.1745 34.0159C77.9098 33.3005 78.7815 32.7381 79.7385 32.3613C80.6955 31.9846 81.7187 31.8012 82.748 31.8219C83.9674 31.8192 85.1706 32.0989 86.262 32.6387C87.3534 33.1785 88.3029 33.9636 89.0352 34.9315L89.0574 34.9284ZM92.7574 47.1813C91.6797 47.1689 90.6298 46.8403 89.7399 46.2369C88.8499 45.6336 88.1596 44.7823 87.7558 43.7904C87.352 42.7984 87.2529 41.7101 87.4708 40.6623C87.6886 39.6145 88.2139 38.6541 88.9803 37.902C89.7468 37.1498 90.7202 36.6395 91.7781 36.4354C92.8361 36.2312 93.9312 36.3422 94.9257 36.7544C95.9202 37.1666 96.7697 37.8617 97.3672 38.7521C97.9647 39.6425 98.2836 40.6884 98.2836 41.7583C98.2795 42.4746 98.1332 43.1831 97.8533 43.8433C97.5733 44.5035 97.1651 45.1024 96.6519 45.606C96.1388 46.1096 95.5307 46.5079 94.8625 46.7782C94.1942 47.0485 93.4789 47.1855 92.7574 47.1813ZM92.7574 44.7704C93.3558 44.7629 93.9387 44.58 94.4326 44.2445C94.9265 43.909 95.3095 43.4361 95.5333 42.8851C95.7572 42.3341 95.8119 41.7296 95.6905 41.1479C95.5692 40.5661 95.2772 40.0329 94.8514 39.6155C94.4256 39.198 93.8849 38.9148 93.2974 38.8016C92.7099 38.6884 92.1018 38.7503 91.5496 38.9793C90.9974 39.2083 90.5257 39.5944 90.194 40.0889C89.8622 40.5834 89.6852 41.1642 89.6851 41.7583C89.6872 42.1565 89.7684 42.5503 89.924 42.9173C90.0796 43.2843 90.3065 43.6172 90.5919 43.8969C90.8773 44.1767 91.2154 44.3979 91.587 44.5478C91.9586 44.6976 92.3563 44.7733 92.7574 44.7704ZM99.8213 36.3384H102.279V47.1813H99.8213V36.3384ZM126.536 34.4185H119.51V38.3591H126.333V40.8046H119.51V44.7326H126.536V47.1813H116.863V31.9698H126.536V34.4185ZM131.704 41.7363L127.922 36.3384H131.048C131.14 36.4895 131.276 36.6972 131.454 36.9679L132.744 38.8973C132.95 39.212 133.096 39.4324 133.182 39.5803L133.309 39.7943L135.557 36.3479H138.534L134.824 41.645L138.676 47.1813H135.588L133.207 43.6373L133.077 43.823C132.973 43.9741 132.817 44.2102 132.608 44.528C132.399 44.8459 132.18 45.1827 131.942 45.5352L131.273 46.5487C131.096 46.8194 130.956 47.0302 130.87 47.1782H127.919L131.704 41.7363Z" fill="white"/>
<path d="M99.3582 33.4598C99.3568 33.2444 99.4 33.0311 99.4851 32.8329C99.5702 32.6348 99.6953 32.4561 99.8528 32.3079C100.17 31.9955 100.599 31.8203 101.047 31.8203C101.494 31.8203 101.923 31.9955 102.24 32.3079C102.401 32.4561 102.529 32.6365 102.615 32.8373C102.7 33.038 102.742 33.2544 102.738 33.4724C102.735 33.914 102.557 34.3367 102.242 34.6481C101.926 34.9595 101.499 35.1343 101.054 35.1343C100.832 35.1379 100.61 35.0969 100.404 35.0136C100.197 34.9303 100.01 34.8065 99.8528 34.6495C99.6926 34.4955 99.566 34.3104 99.4809 34.1057C99.3958 33.9011 99.3541 33.6812 99.3582 33.4598Z" fill="white"/>
</g>
<defs>
<linearGradient id="paint0_linear_1036_27234" x1="71.0428" y1="40.2156" x2="46.6451" y2="40.2156" gradientUnits="userSpaceOnUse">
<stop stop-color="#22E6B8"/>
<stop offset="1" stop-color="#00C1CE"/>
</linearGradient>
<clipPath id="clip0_1036_27234">
<rect width="91.6667" height="25" fill="white" transform="translate(47 27)"/>
</clipPath>
</defs>
</svg>
