<svg width="186" height="81" viewBox="0 0 186 81" fill="none" xmlns="http://www.w3.org/2000/svg">
<path d="M67.8047 28.6898C67.841 28.6448 67.875 28.598 67.9065 28.5495C67.9582 28.4603 68.0315 28.3856 68.1198 28.3323C68.208 28.279 68.3083 28.2489 68.4113 28.2447C68.4771 28.2391 68.5429 28.2447 68.6093 28.2447H77.2848C77.3512 28.2447 77.4176 28.2447 77.4828 28.2447C77.6274 28.2504 77.7649 28.3086 77.8695 28.4086C77.9741 28.5085 78.0386 28.6432 78.0509 28.7873C78.0574 28.8604 78.0599 28.9338 78.0584 29.0071V31.5359C78.0584 31.5943 78.0584 31.6533 78.0584 31.7116C78.0317 32.0568 77.81 32.2754 77.463 32.299C77.3903 32.3039 77.3164 32.299 77.2432 32.299H72.7928C72.6984 32.299 72.6065 32.3045 72.5016 32.3077C72.4858 32.3587 72.4733 32.4108 72.4643 32.4635C72.4581 32.5293 72.4612 32.5957 72.4612 32.6615C72.4612 34.4136 72.4612 36.1655 72.4612 37.9172C72.4586 38.0123 72.4619 38.1075 72.4712 38.2022C72.4845 38.3236 72.5405 38.4364 72.6292 38.5204C72.7178 38.6044 72.8335 38.6543 72.9554 38.661C73.0212 38.6666 73.0877 38.6647 73.1535 38.6647C74.9884 38.6647 76.823 38.6647 78.6575 38.6647C79.187 38.6699 79.712 38.567 80.2004 38.3624C81.1515 37.9607 81.724 37.2448 81.9264 36.2384C81.9723 36.0105 81.968 35.7727 81.9885 35.5393C81.9897 35.4371 81.9976 35.335 82.0121 35.2338C82.032 35.1207 82.0871 35.0167 82.1696 34.9367C82.2521 34.8568 82.3578 34.805 82.4715 34.7886C82.5728 34.7712 82.6755 34.7637 82.7782 34.7663C83.7762 34.7663 84.7741 34.7663 85.7721 34.7663C85.8528 34.7657 85.9334 34.77 86.0136 34.7793C86.3321 34.8178 86.5314 35.0215 86.5562 35.3425C86.5652 35.4816 86.5665 35.6211 86.56 35.7603C86.5408 36.6515 86.3319 37.5285 85.9472 38.3326C85.5397 39.2095 84.8957 39.9553 84.0876 40.4864C84.051 40.5106 84.015 40.5354 83.9802 40.5621C83.9675 40.5757 83.9567 40.591 83.9479 40.6075C84.0038 40.6789 84.0945 40.6944 84.1708 40.7285C84.9946 41.0882 85.7237 41.634 86.3011 42.3229C86.9846 43.1439 87.4553 44.1208 87.6713 45.1671C87.8464 45.9848 87.8414 46.8112 87.7719 47.6394C87.6965 48.4802 87.4939 49.3046 87.1709 50.0844C86.5866 51.5267 85.5964 52.6095 84.241 53.3645C83.4797 53.7798 82.6547 54.0658 81.7997 54.2107C81.1061 54.3328 80.403 54.3924 79.6987 54.3889C76 54.3864 72.3012 54.3864 68.6025 54.3889C68.5441 54.3889 68.4852 54.3889 68.4262 54.3889C68.319 54.3893 68.2136 54.3606 68.1214 54.306C68.0291 54.2513 67.9534 54.1727 67.9022 54.0785C67.8717 54.0288 67.8401 53.9822 67.8047 53.9338V28.6898ZM76.2591 50.2341C77.2492 50.2341 78.2395 50.2341 79.23 50.2341C79.9219 50.2359 80.6048 50.0769 81.2248 49.7696C82.171 49.3046 82.795 48.5639 83.0825 47.5469C83.2412 46.9722 83.2656 46.3687 83.1539 45.783C82.9446 44.6201 82.3206 43.7515 81.2515 43.2219C80.6482 42.9304 79.9863 42.7803 79.3163 42.783C78.6854 42.7762 78.0546 42.783 77.4238 42.783C76.0165 42.783 74.6092 42.783 73.2019 42.783C73.0922 42.7811 72.9827 42.7915 72.8753 42.814C72.7732 42.8326 72.6795 42.8828 72.6073 42.9574C72.5352 43.032 72.4882 43.1273 72.473 43.23C72.4576 43.3163 72.4505 43.4038 72.4519 43.4914C72.4519 45.5063 72.4519 47.5211 72.4519 49.5356C72.4519 49.579 72.4519 49.6231 72.4519 49.6672C72.4774 50.0285 72.6854 50.226 73.0479 50.2334C73.1063 50.2334 73.1653 50.2334 73.2236 50.2334L76.2591 50.2341Z" fill="white"/>
<path d="M84.2756 31.3741C83.7623 31.3741 83.2487 31.3741 82.7346 31.3741C82.6613 31.376 82.5879 31.3741 82.5148 31.3685C82.3893 31.3581 82.2715 31.3035 82.1824 31.2145C82.0933 31.1255 82.0386 31.0079 82.028 30.8824C82.0233 30.8239 82.0216 30.7653 82.0231 30.7067V27.8507C82.0212 27.7845 82.0237 27.7184 82.0305 27.6526C82.0435 27.5349 82.096 27.4251 82.1794 27.341C82.2629 27.257 82.3723 27.2038 82.49 27.19C82.5627 27.1818 82.6359 27.1784 82.7091 27.1801H85.8787C85.9296 27.1801 85.9811 27.1801 86.0327 27.1832C86.1697 27.1886 86.2998 27.2452 86.3972 27.3417C86.4947 27.4382 86.5524 27.5677 86.5592 27.7047C86.5635 27.7557 86.5629 27.8072 86.5629 27.8587V30.6911C86.5629 30.7054 86.5629 30.7203 86.5629 30.7352C86.5927 31.0798 86.3443 31.389 85.9259 31.3766C85.3764 31.3629 84.8257 31.3741 84.2756 31.3741Z" fill="#00EC96"/>
<path d="M94.7985 28.8673C94.7958 28.7337 94.7453 28.6056 94.6563 28.506C94.5672 28.4065 94.4454 28.3421 94.313 28.3246C94.2262 28.3105 94.1383 28.3039 94.0504 28.3048C93.0669 28.3048 92.0834 28.3048 91.1 28.3048C91.0046 28.304 90.9093 28.3111 90.815 28.3259C90.6863 28.3444 90.5678 28.4064 90.4793 28.5017C90.3907 28.5969 90.3374 28.7196 90.3282 28.8493C90.3227 28.9151 90.3245 28.9815 90.3245 29.0473V53.6139C90.3245 53.6797 90.3245 53.7462 90.3245 53.812C90.3338 53.9563 90.3967 54.0919 90.5009 54.1921C90.6052 54.2923 90.7431 54.3498 90.8876 54.3534C90.9392 54.3565 90.9907 54.3534 91.0416 54.3534H94.0808C94.1174 54.3534 94.154 54.3534 94.1907 54.3534C94.2699 54.357 94.349 54.3444 94.4232 54.3164C94.4973 54.2883 94.565 54.2453 94.6219 54.1901C94.6789 54.135 94.7239 54.0687 94.7543 53.9954C94.7846 53.9222 94.7997 53.8435 94.7985 53.7642C94.7985 53.6835 94.7985 53.6028 94.7985 53.522V29.1094C94.7985 29.0287 94.8022 28.948 94.7985 28.8673Z" fill="white"/>
<path d="M116.866 28.2969H98.1152C98.0348 28.2969 97.9551 28.3127 97.8807 28.3435C97.8064 28.3743 97.7388 28.4195 97.6819 28.4764C97.625 28.5333 97.5799 28.6008 97.5491 28.6752C97.5183 28.7495 97.5024 28.8292 97.5024 28.9097V32.2816C97.5024 32.4442 97.567 32.6 97.6819 32.7149C97.7968 32.8299 97.9527 32.8944 98.1152 32.8944H104.417C104.498 32.8943 104.577 32.9101 104.652 32.9408C104.726 32.9716 104.793 33.0167 104.85 33.0735C104.907 33.1304 104.952 33.1979 104.983 33.2722C105.014 33.3465 105.03 33.4262 105.03 33.5066V53.747C105.03 53.9095 105.094 54.0654 105.209 54.1803C105.324 54.2952 105.48 54.3598 105.643 54.3598H109.34C109.502 54.3598 109.658 54.2952 109.773 54.1803C109.888 54.0654 109.953 53.9095 109.953 53.747V33.5066C109.953 33.4262 109.969 33.3465 109.999 33.2722C110.03 33.1979 110.075 33.1304 110.132 33.0735C110.189 33.0167 110.257 32.9716 110.331 32.9408C110.405 32.9101 110.485 32.8943 110.566 32.8944H116.867C117.03 32.8944 117.186 32.8299 117.301 32.7149C117.416 32.6 117.48 32.4442 117.48 32.2816V28.9097C117.48 28.829 117.464 28.7492 117.433 28.6747C117.402 28.6003 117.357 28.5326 117.3 28.4757C117.243 28.4188 117.175 28.3737 117.101 28.343C117.026 28.3123 116.946 28.2966 116.866 28.2969Z" fill="white"/>
</svg>
