<svg width="1em" height="1em" viewBox="0 0 186 80" fill="none" xmlns="http://www.w3.org/2000/svg">
<g clip-path="url(#clip0_1036_27227)">
<path d="M110.445 47.0444V27H114.68V47.0444H110.445Z" fill="#F7A600"/>
<path d="M61.0804 52.9975H52V32.9531H60.7152C64.9509 32.9531 67.4189 35.1489 67.4189 38.5837C67.4189 40.8071 65.8339 42.2439 64.7368 42.7223C66.0463 43.2851 67.7226 44.5516 67.7226 47.2274C67.7226 50.9704 64.9509 52.9975 61.0804 52.9975ZM60.38 36.4446H56.2356V41.0616H60.38C62.1775 41.0616 63.1833 40.1324 63.1833 38.7524C63.1833 37.3738 62.1775 36.4446 60.38 36.4446ZM60.6538 44.5808H56.2356V49.5075H60.6538C62.5741 49.5075 63.487 48.3821 63.487 47.0296C63.487 45.6787 62.5724 44.5808 60.6538 44.5808Z" fill="white"/>
<path d="M80.6419 44.777V52.9975H76.4361V44.777L69.915 32.9531H74.5158L78.5689 41.0325L82.5606 32.9531H87.1613L80.6419 44.777Z" fill="white"/>
<path d="M99.1698 52.9975H90.0894V32.9531H98.8046C103.04 32.9531 105.508 35.1489 105.508 38.5837C105.508 40.8071 103.923 42.2439 102.826 42.7223C104.136 43.2851 105.812 44.5516 105.812 47.2274C105.812 50.9704 103.04 52.9975 99.1698 52.9975ZM98.4694 36.4446H94.325V41.0616H98.4694C100.267 41.0616 101.273 40.1324 101.273 38.7524C101.273 37.3738 100.267 36.4446 98.4694 36.4446ZM98.7432 44.5808H94.325V49.5075H98.7432C100.663 49.5075 101.576 48.3821 101.576 47.0296C101.576 45.6787 100.663 44.5808 98.7432 44.5808Z" fill="white"/>
<path d="M128.331 36.4446V52.999H124.096V36.4446H118.428V32.9531H133.999V36.4446H128.331Z" fill="white"/>
</g>
<defs>
<clipPath id="clip0_1036_27227">
<rect width="82" height="26" fill="white" transform="translate(52 27)"/>
</clipPath>
</defs>
</svg>
