<svg width="1em" height="1em" viewBox="0 0 186 80" fill="none" xmlns="http://www.w3.org/2000/svg">
<g clip-path="url(#clip0_1036_27236)">
<path d="M133.664 34.692C133.769 34.692 133.851 34.7237 133.911 34.7858C133.971 34.848 134 34.9346 134 35.0443V37.179C134 37.2887 133.971 37.374 133.911 37.4374C133.851 37.4996 133.769 37.5313 133.664 37.5313H131.876V46.0115C131.876 46.1213 131.847 46.2066 131.787 46.27C131.727 46.3322 131.646 46.3639 131.541 46.3639H128.858C128.754 46.3639 128.672 46.3322 128.612 46.27C128.552 46.2078 128.523 46.1213 128.523 46.0115V37.5301H126.734C126.63 37.5301 126.548 37.4984 126.488 37.4362C126.428 37.374 126.399 37.2875 126.399 37.1778V35.0431C126.399 34.9333 126.428 34.848 126.488 34.7846C126.548 34.7224 126.63 34.6907 126.734 34.6907H128.523V31.7039C128.523 31.5942 128.552 31.5088 128.612 31.4454C128.672 31.3833 128.754 31.3516 128.858 31.3516H131.541C131.645 31.3516 131.727 31.3833 131.787 31.4454C131.847 31.5076 131.876 31.5942 131.876 31.7039V34.6932H133.664V34.692Z" fill="#1DA2B4"/>
<path d="M125.95 40.3293C125.95 40.8449 125.898 41.2204 125.793 41.4557C125.689 41.6752 125.472 41.7837 125.146 41.7837H118.507C118.671 42.4091 118.992 42.8858 119.468 43.2149C119.96 43.5282 120.578 43.6843 121.322 43.6843C121.695 43.6843 122.045 43.6367 122.373 43.5441C122.716 43.4344 123.073 43.2552 123.446 43.0052C123.521 42.9431 123.603 42.9114 123.692 42.9114C123.767 42.9114 123.849 42.9589 123.939 43.0516L125.1 44.2244C125.16 44.2865 125.19 44.3646 125.19 44.4584C125.19 44.5523 125.146 44.6462 125.056 44.7401C124.52 45.3033 123.902 45.741 123.2 46.053C122.515 46.3505 121.778 46.498 120.988 46.498C119.871 46.498 118.864 46.2323 117.971 45.7007C117.092 45.1692 116.406 44.4499 115.914 43.5429C115.423 42.6358 115.176 41.6349 115.176 40.5402C115.176 39.4454 115.415 38.4445 115.891 37.5375C116.383 36.6304 117.052 35.9197 117.902 35.4028C118.752 34.8712 119.698 34.6055 120.74 34.6055C121.782 34.6055 122.678 34.8639 123.467 35.3796C124.257 35.8953 124.868 36.5914 125.3 37.4668C125.732 38.3421 125.947 39.2967 125.947 40.328M120.762 37.5838C120.18 37.5838 119.682 37.7557 119.265 38.0995C118.847 38.4274 118.579 38.9126 118.459 39.5539H122.974C122.87 38.9126 122.616 38.4274 122.214 38.0995C121.811 37.7557 121.327 37.5838 120.761 37.5838" fill="#1DA2B4"/>
<path d="M113.715 34.8627C113.819 34.8627 113.901 34.8944 113.961 34.9566C114.021 35.0188 114.051 35.1053 114.051 35.215V46.2615C114.051 47.4026 113.753 48.3255 113.157 49.0289C112.575 49.7482 111.838 50.2566 110.944 50.5541C110.065 50.8515 109.156 50.999 108.217 50.999C107.278 50.999 106.377 50.8588 105.513 50.5772C104.663 50.3114 103.941 49.9518 103.345 49.4983C103.256 49.4361 103.212 49.3496 103.212 49.2398C103.212 49.146 103.226 49.0753 103.256 49.0289L104.127 47.3868C104.217 47.2612 104.306 47.199 104.395 47.199C104.47 47.199 104.53 47.2149 104.574 47.2466C105.081 47.5587 105.602 47.7854 106.139 47.9268C106.69 48.067 107.293 48.1377 107.949 48.1377C108.709 48.1377 109.402 47.9659 110.028 47.6221C110.653 47.2941 110.967 46.7382 110.967 45.9567V44.8778C110.103 45.9092 109.03 46.4261 107.748 46.4261C106.749 46.4261 105.848 46.1603 105.043 45.6288C104.239 45.0973 103.606 44.378 103.143 43.4709C102.696 42.5639 102.472 41.5789 102.472 40.5158C102.472 39.4527 102.696 38.4677 103.143 37.5606C103.605 36.6536 104.239 35.9343 105.043 35.4028C105.848 34.8712 106.749 34.6055 107.748 34.6055C108.97 34.6055 110.013 35.1138 110.877 36.1306L110.944 35.2163C110.973 34.9822 111.086 34.8639 111.279 34.8639H113.715V34.8627ZM108.172 43.2125C108.858 43.2125 109.439 42.9394 109.915 42.392C110.393 41.8446 110.63 41.2119 110.63 40.4926C110.63 39.7733 110.393 39.1479 109.915 38.6164C109.439 38.069 108.858 37.7959 108.172 37.7959C107.486 37.7959 106.883 38.0617 106.407 38.5932C105.931 39.1089 105.692 39.7429 105.692 40.4926C105.692 41.2424 105.923 41.908 106.385 42.4396C106.862 42.9552 107.457 43.2137 108.173 43.2137" fill="#1DA2B4"/>
<path d="M101.35 34.692C101.454 34.692 101.536 34.7237 101.596 34.7858C101.656 34.848 101.685 34.9346 101.685 35.0443V37.179C101.685 37.2887 101.654 37.374 101.596 37.4374C101.536 37.4996 101.455 37.5313 101.35 37.5313H99.561V46.0115C99.561 46.1213 99.5304 46.2066 99.4716 46.27C99.4129 46.3334 99.3296 46.3639 99.2256 46.3639H96.5434C96.4393 46.3639 96.3573 46.3322 96.2973 46.27C96.2373 46.2078 96.208 46.1213 96.208 46.0115V37.5301H94.4194C94.3154 37.5301 94.2333 37.4984 94.1734 37.4362C94.1134 37.374 94.084 37.2875 94.084 37.1778V35.0431C94.084 34.9333 94.1134 34.848 94.1734 34.7846C94.2333 34.7224 94.3154 34.6907 94.4194 34.6907H96.208V31.7039C96.208 31.5942 96.2373 31.5088 96.2973 31.4454C96.3573 31.3833 96.4393 31.3516 96.5434 31.3516H99.2256C99.3296 31.3516 99.4117 31.3833 99.4716 31.4454C99.5316 31.5076 99.561 31.5942 99.561 31.7039V34.6932H101.35V34.692Z" fill="#1DA2B4"/>
<path d="M91.1718 33.73C90.665 33.73 90.2402 33.5495 89.8975 33.1911C89.5547 32.8156 89.3833 32.3706 89.3833 31.8537C89.3833 31.3368 89.5547 30.876 89.8975 30.5164C90.2402 30.1409 90.665 29.9531 91.1718 29.9531C91.6787 29.9531 92.1034 30.1409 92.4462 30.5164C92.789 30.876 92.9604 31.3222 92.9604 31.8537C92.9604 32.3853 92.789 32.8156 92.4462 33.1911C92.1034 33.5508 91.6787 33.73 91.1718 33.73ZM89.4959 35.0332C89.4959 34.9235 89.5253 34.8382 89.5853 34.7748C89.6453 34.7126 89.7273 34.6809 89.8314 34.6809H92.5135C92.6176 34.6809 92.6996 34.7126 92.7596 34.7748C92.8196 34.8369 92.849 34.9235 92.849 35.0332V46.0005C92.849 46.1102 92.8196 46.1955 92.7596 46.2589C92.6996 46.3211 92.6188 46.3528 92.5135 46.3528H89.8314C89.7273 46.3528 89.6453 46.3211 89.5853 46.2589C89.5253 46.1967 89.4959 46.1102 89.4959 46.0005V35.0332Z" fill="#1DA2B4"/>
<path d="M85.1954 37.6007C86.0303 37.8348 86.7452 38.3127 87.3414 39.0319C87.9523 39.7512 88.2583 40.6192 88.2583 41.6348C88.2583 43.2135 87.7735 44.4022 86.8052 45.1995C85.8516 45.981 84.3911 46.3723 82.4251 46.3723H76.9272C76.8232 46.3723 76.7411 46.3406 76.6812 46.2784C76.6212 46.2162 76.5918 46.1297 76.5918 46.02V30.3055C76.5918 30.1957 76.6212 30.1104 76.6812 30.047C76.7411 29.9848 76.8232 29.9531 76.9272 29.9531H82.403C83.386 29.9531 84.2283 30.1409 84.9285 30.5164C85.6434 30.8919 86.1809 31.4002 86.5383 32.0415C86.9105 32.6827 87.0978 33.402 87.0978 34.1993C87.0978 34.9966 86.9117 35.7245 86.5383 36.334C86.1809 36.9436 85.734 37.3654 85.1978 37.6007M83.8574 34.6687C83.8574 33.6678 83.2685 33.168 82.0921 33.168H80.0587V36.3109H82.0921C82.643 36.3109 83.0751 36.178 83.3885 35.9122C83.7019 35.6306 83.8574 35.2161 83.8574 34.6687ZM82.5609 43.1587C83.2465 43.1587 83.79 42.9941 84.1928 42.6662C84.5955 42.3382 84.7963 41.8457 84.7963 41.1886C84.7963 40.5315 84.5955 40.078 84.1928 39.7817C83.79 39.4684 83.2465 39.3123 82.5609 39.3123H80.0575V43.1587H82.5609Z" fill="#1DA2B4"/>
<path d="M57.4268 28.4925C57.7108 28.178 58.1087 28 58.5249 28H61.2193C61.5597 28 61.736 28.4182 61.5034 28.6754L56.1745 34.5711H59.1186L62.113 37.8566H56.1745L62.113 44.4277H58.5237C58.1075 44.4277 57.7096 44.2497 57.4256 43.9352L51.4026 37.2702C50.8652 36.6753 50.8652 35.7524 51.4026 35.1587L57.4268 28.4925Z" fill="#1DA2B4"/>
<path d="M65.7072 50.5094C65.4232 50.8239 65.0253 51.0019 64.6091 51.0019H61.9147C61.5743 51.0019 61.3981 50.5838 61.6294 50.3265L66.9571 44.4308H64.0129L61.0186 41.1453H66.9571L61.0186 34.5742H64.6079C65.0241 34.5742 65.422 34.7522 65.706 35.0667L71.729 41.7329C72.2664 42.3278 72.2664 43.2507 71.729 43.8457L65.706 50.5118L65.7072 50.5094Z" fill="#1DA2B4"/>
</g>
<defs>
<clipPath id="clip0_1036_27236">
<rect width="83" height="23" fill="white" transform="translate(51 28)"/>
</clipPath>
</defs>
</svg>
