<svg width="1em" height="1em" viewBox="0 0 186 80" fill="none" xmlns="http://www.w3.org/2000/svg">
<g clip-path="url(#clip0_1036_27238)">
<path d="M94.4454 45.9136C94.4535 45.5875 94.5578 45.271 94.7454 45.0038C94.933 44.7365 95.1955 44.5303 95.5 44.4111C95.8045 44.2919 96.1375 44.2648 96.4573 44.3334C96.7771 44.4019 97.0696 44.563 97.298 44.7965C97.5265 45.03 97.6808 45.3255 97.7417 45.646C97.8026 45.9665 97.7674 46.2978 97.6404 46.5985C97.5134 46.8991 97.3003 47.1557 97.0278 47.3362C96.7553 47.5167 96.4355 47.613 96.1083 47.6131C95.6621 47.6069 95.2365 47.4245 94.9247 47.106C94.613 46.7875 94.4407 46.3587 94.4454 45.9136ZM114.934 32.6819V36.0378H109.865C108.155 36.0378 106.973 36.4289 106.318 37.2111C105.685 37.9451 105.368 39.0677 105.368 40.5787C105.368 42.2618 105.886 43.4913 106.92 44.267C107.331 44.5643 107.798 44.7776 108.292 44.8948C108.975 45.0337 109.671 45.0941 110.367 45.0747H114.934V48.4422H109.138C107.884 48.4864 106.631 48.3219 105.431 47.9553C104.495 47.6151 103.666 47.0358 103.025 46.2754C101.66 44.6711 100.948 42.6147 101.029 40.5122C101.029 37.704 101.821 35.6101 103.405 34.2308C104.061 33.6585 104.842 33.2472 105.686 33.03C106.817 32.7701 107.977 32.6525 109.138 32.68L114.934 32.6819ZM125.291 32.4531C128.142 32.4531 130.243 33.2947 131.594 34.9778C132.881 36.63 133.542 38.6817 133.463 40.7723C133.512 41.8648 133.328 42.9552 132.922 43.9712C132.516 44.9871 131.898 45.9053 131.109 46.6646C129.671 48.0009 127.71 48.6698 125.226 48.6711C122.649 48.6711 120.631 47.9149 119.17 46.4025C117.82 45.0414 117.144 43.0545 117.143 40.4418C117.075 38.4328 117.765 36.4715 119.076 34.9446C120.517 33.3019 122.589 32.4714 125.291 32.4531ZM125.322 35.7542C122.768 35.7542 121.49 37.3735 121.49 40.612C121.428 41.6542 121.647 42.6941 122.124 43.6236C122.447 44.185 122.921 44.6457 123.491 44.9544C124.062 45.2631 124.707 45.4076 125.356 45.3719C127.866 45.3719 129.121 43.7625 129.121 40.5435C129.123 37.3989 127.857 35.8024 125.322 35.7542ZM136.598 32.6819H152.183C153.269 32.6446 154.355 32.7525 155.413 33.0027C156.127 33.204 156.773 33.5954 157.282 34.135C158.266 35.335 158.764 36.8598 158.676 38.408V48.4442H154.432V39.0905C154.447 38.5594 154.415 38.028 154.336 37.5025C154.271 37.1963 154.117 36.916 153.893 36.6968C153.621 36.4607 153.304 36.2808 152.962 36.1677C152.62 36.0545 152.258 36.0104 151.898 36.0378H149.649V48.4383H145.403V36.0378H140.842V48.4383H136.598V32.6761V32.6819ZM70.2283 40.5572L64.1117 32.4785H68.9673L72.6286 37.8604L76.5958 32.4785H81.4004L75.0858 40.5572L81.4004 48.8001H76.739L72.6325 43.1973L68.6084 48.8001H63.8882L70.2283 40.5572ZM87.5974 35.3905H80.4395L82.93 32.4785H97.7478V35.3905H91.5744V48.8021H87.6072V35.3905H87.5974Z" fill="white"/>
<path d="M94.4454 45.9103C94.4535 45.5841 94.5579 45.2676 94.7455 45.0004C94.9331 44.7331 95.1955 44.527 95.5 44.4077C95.8045 44.2885 96.1375 44.2614 96.4573 44.33C96.7771 44.3985 97.0696 44.5596 97.2981 44.7931C97.5265 45.0266 97.6809 45.3221 97.7418 45.6426C97.8027 45.9631 97.7674 46.2944 97.6404 46.5951C97.5135 46.8957 97.3004 47.1523 97.0279 47.3328C96.7553 47.5133 96.4355 47.6096 96.1084 47.6097C95.6621 47.6035 95.2365 47.4212 94.9248 47.1026C94.6131 46.7841 94.4407 46.3553 94.4454 45.9103Z" fill="#FFBE40"/>
<path d="M41.8657 55.5349C38.813 55.5576 35.822 54.6771 33.2711 53.0048C30.7202 51.3324 28.7238 48.9432 27.5345 46.1394C26.3452 43.3356 26.0163 40.2431 26.5894 37.2528C27.1625 34.2626 28.612 31.5091 30.7544 29.3403C32.8968 27.1716 35.636 25.685 38.6256 25.0687C41.6152 24.4524 44.7209 24.734 47.5501 25.8779C50.3792 27.0217 52.8047 28.9765 54.5197 31.495C56.2348 34.0135 57.1625 36.9826 57.1855 40.0269V40.1422C57.1959 44.2078 55.5889 48.1116 52.7169 50.9972C49.845 53.8828 45.9426 55.5147 41.8657 55.5349ZM41.8657 27.0337C39.2676 27.0164 36.7227 27.7676 34.5527 29.1923C32.3826 30.6171 30.6849 32.6514 29.674 35.0382C28.6631 37.425 28.3846 40.0571 28.8735 42.6017C29.3624 45.1464 30.5968 47.4893 32.4208 49.3345C34.2448 51.1796 36.5763 52.4441 39.1208 52.968C41.6652 53.492 44.3083 53.2519 46.716 52.2781C49.1237 51.3043 51.1878 49.6406 52.6474 47.4972C54.107 45.3538 54.8967 42.827 54.9165 40.2361V40.1422C54.9233 36.6804 53.5533 33.357 51.1069 30.9009C48.6604 28.4447 45.3372 27.0562 41.8657 27.0396V27.0337ZM42.4168 38.0302L45.374 34.4221C45.4797 34.2934 45.547 34.1376 45.5681 33.9726C45.5891 33.8076 45.5632 33.64 45.4932 33.489C45.4233 33.338 45.312 33.2097 45.1724 33.1188C45.0327 33.0279 44.8701 32.978 44.7033 32.9749C44.5753 32.9755 44.4489 33.004 44.3331 33.0583C44.2172 33.1127 44.1147 33.1917 44.0327 33.2898L41.2872 36.6378L38.5299 33.2976C38.45 33.1977 38.3481 33.1173 38.2322 33.0627C38.1163 33.0082 37.9894 32.9808 37.8612 32.9827H35.5903C35.4229 32.9843 35.2593 33.0332 35.1186 33.1239C34.978 33.2145 34.866 33.3431 34.7957 33.4947C34.7255 33.6462 34.6998 33.8146 34.7218 33.9802C34.7437 34.1457 34.8123 34.3017 34.9196 34.4299L39.0124 39.4167L33.7861 45.7881C33.6319 45.9624 33.5535 46.1906 33.568 46.4226C33.5825 46.6545 33.6888 46.8713 33.8636 47.025C34.0384 47.1788 34.2672 47.2571 34.4998 47.2426C34.7324 47.2281 34.9498 47.1221 35.104 46.9478L35.1275 46.9204L40.14 40.8071L42.4168 38.0302ZM49.2805 32.9749C49.1525 32.976 49.0263 33.0047 48.9105 33.0591C48.7947 33.1134 48.6921 33.1921 48.6098 33.2898L43.6091 39.4089L41.3382 42.18L38.375 45.7881C38.2244 45.9655 38.1507 46.1953 38.17 46.4269C38.1893 46.6585 38.3001 46.8729 38.478 47.0231C38.6558 47.1732 38.8862 47.2468 39.1185 47.2275C39.3507 47.2083 39.5658 47.0978 39.7164 46.9204L42.4619 43.5783L45.2073 46.9204C45.2881 47.0199 45.3904 47.1 45.5065 47.1545C45.6226 47.209 45.7497 47.2366 45.878 47.2353H48.143C48.3108 47.2345 48.4749 47.186 48.6161 47.0955C48.7572 47.0051 48.8696 46.8763 48.94 46.7244C49.0104 46.5725 49.0359 46.4038 49.0135 46.2379C48.9912 46.0721 48.9219 45.9161 48.8137 45.7881L44.7367 40.8071L49.9629 34.4221C50.0671 34.2915 50.1325 34.1345 50.1517 33.9687C50.1708 33.803 50.143 33.6352 50.0713 33.4844C49.9996 33.3337 49.8869 33.206 49.7461 33.1159C49.6052 33.0259 49.4419 32.977 49.2746 32.9749" fill="#FFBE40"/>
</g>
<defs>
<clipPath id="clip0_1036_27238">
<rect width="141" height="40.2857" fill="white" transform="translate(22 20)"/>
</clipPath>
</defs>
</svg>
