<svg width="1em" height="1em" viewBox="0 0 186 80" fill="none" xmlns="http://www.w3.org/2000/svg">
<g clip-path="url(#clip0_1036_27231)">
<path d="M26.997 37.75L26.0953 40.1678L26.3579 42.8686L24.2471 42.8786H22.1563L22.4387 40.1678L21.5171 37.75H26.997Z" fill="white"/>
<path d="M29.5092 38.5586L27.027 40.1771V43.0517L25.1343 44.8737V45.7326L26.9626 47.4157H28.4886L32.3384 40.6934L29.5092 38.5586Z" fill="white"/>
<path d="M20.0011 32.7695H28.4686L29.4893 37.0988H19.0151L20.0011 32.7695Z" fill="white"/>
<path d="M21.5073 40.1767L18.9953 38.5781L16.1562 40.6931L20.0259 47.4352H21.5717L23.4 45.7323V44.8734L21.5073 43.0514V40.1767Z" fill="white"/>
<path fill-rule="evenodd" clip-rule="evenodd" d="M13.0298 33.4839L24.2619 27L35.4496 33.5038V46.4866L24.2124 52.9904L13 46.4817V33.4839H13.0298ZM24.2619 28.3256L14.1495 34.1641V45.8412L24.2619 51.6797L34.3298 45.8412V34.1641L24.2619 28.3256Z" fill="white"/>
<path d="M100.365 42.3226V36.365H102.947V33.9769H100.365V30.6406H97.5907V33.9769H96.0498V36.365H97.5907V42.7297C97.5907 45.3859 99.0375 46.2944 101.059 46.2944H102.942V43.812H101.852C100.915 43.812 100.365 43.4 100.365 42.3226Z" fill="white"/>
<path d="M50.7597 46.3865C49.9325 46.3958 49.1119 46.2392 48.3463 45.9255C47.5805 45.6119 46.8853 45.1478 46.3016 44.5605C45.7179 43.9733 45.2574 43.2749 44.9474 42.5064C44.6375 41.7379 44.4843 40.915 44.497 40.0862C44.4831 39.2518 44.6357 38.4229 44.9459 37.6484C45.2561 36.8739 45.7176 36.1693 46.3033 35.5759C46.889 34.9825 47.5871 34.5124 48.3566 34.1931C49.1261 33.8738 49.9516 33.7118 50.7844 33.7165C51.6967 33.6773 52.6061 33.8455 53.4443 34.2083C54.2826 34.5711 55.0281 35.1192 55.6252 35.8116L53.9059 37.6734C53.0537 36.7748 52.1618 36.1542 50.7597 36.1542C48.7431 36.1542 47.2914 37.9018 47.2914 40.0416C47.2914 42.1814 48.7778 43.9687 50.9182 43.9687C51.5168 43.9552 52.1058 43.8156 52.6471 43.559C53.1882 43.3024 53.6695 42.9345 54.0594 42.4793L55.7341 44.1325C55.1357 44.8684 54.3749 45.4551 53.5117 45.8462C52.6485 46.2374 51.7063 46.4223 50.7597 46.3865Z" fill="white"/>
<path d="M60.986 46.387H58.2065V33.7419H60.986V36.7207C61.7392 34.9036 63.1414 33.6624 65.2769 33.7419V36.6859H65.1134C62.6806 36.6859 60.986 38.2698 60.986 41.4869V46.387Z" fill="white"/>
<path d="M73.6698 49.7946L79.8086 33.7188H76.93L73.4866 43.0823L69.8994 33.7188H66.9414L72.1983 46.3937L70.8556 49.7946H73.6698Z" fill="white"/>
<path fill-rule="evenodd" clip-rule="evenodd" d="M88.6377 46.3639C87.8309 46.3693 87.0351 46.1772 86.3193 45.8043C85.6034 45.4313 84.9893 44.889 84.5303 44.2241V49.7896H81.7358V33.7188H84.5104V35.9976C84.946 35.2997 85.5515 34.7244 86.27 34.3258C86.9886 33.9271 87.7966 33.7182 88.6179 33.7188C91.4866 33.7188 94.2613 35.9976 94.2613 40.0438C94.2613 44.09 91.5312 46.3639 88.6377 46.3639ZM87.9936 36.1316C86.1158 36.1316 84.4609 37.6756 84.4609 40.0438C84.4609 42.412 86.1158 43.9511 87.9936 43.9511C89.8714 43.9511 91.4618 42.4617 91.4618 40.0438C91.4618 37.626 89.8764 36.1316 87.9936 36.1316Z" fill="white"/>
<path fill-rule="evenodd" clip-rule="evenodd" d="M111.727 46.3887C110.888 46.4114 110.052 46.265 109.271 45.9583C108.489 45.6516 107.777 45.191 107.177 44.6034C106.576 44.0159 106.099 43.3136 105.774 42.5381C105.449 41.7625 105.283 40.9296 105.286 40.0885C105.255 38.8059 105.607 37.5433 106.296 36.4618C106.985 35.3804 107.979 34.5293 109.154 34.0171C110.328 33.5049 111.627 33.3549 112.886 33.5863C114.146 33.8177 115.308 34.4199 116.224 35.3161C117.14 36.2123 117.769 37.3618 118.03 38.6178C118.292 39.8738 118.173 41.1793 117.691 42.3677C117.208 43.556 116.383 44.5732 115.321 45.2894C114.259 46.0057 113.007 46.3884 111.727 46.3887ZM111.727 36.1565C109.502 36.1565 108.08 37.9041 108.08 40.0438C108.08 42.1837 109.616 43.971 111.776 43.971C114.021 43.971 115.442 42.2283 115.442 40.0885C115.442 37.9487 113.907 36.1565 111.727 36.1565Z" fill="white"/>
<path fill-rule="evenodd" clip-rule="evenodd" d="M142.308 45.9583C143.09 46.265 143.925 46.4114 144.764 46.3887C146.044 46.3884 147.296 46.0057 148.358 45.2894C149.42 44.5732 150.245 43.556 150.728 42.3677C151.211 41.1793 151.329 39.8738 151.068 38.6178C150.807 37.3618 150.178 36.2123 149.262 35.3161C148.346 34.4199 147.184 33.8177 145.924 33.5863C144.664 33.3549 143.365 33.5049 142.191 34.0171C141.017 34.5293 140.022 35.3804 139.334 36.4618C138.644 37.5433 138.293 38.8059 138.323 40.0885C138.321 40.9296 138.487 41.7625 138.812 42.5381C139.137 43.3136 139.614 44.0159 140.214 44.6034C140.814 45.191 141.527 45.6516 142.308 45.9583ZM141.113 40.0438C141.113 37.9041 142.534 36.1565 144.764 36.1565C146.939 36.1565 148.48 37.9487 148.48 40.0885C148.48 42.2283 147.059 43.971 144.809 43.971C142.649 43.971 141.113 42.1837 141.113 40.0438Z" fill="white"/>
<path d="M167.759 33.7189C170.395 33.7189 172 35.3969 172 38.3659V46.3888H169.226V39.2148C169.226 37.2835 168.329 36.236 166.748 36.236C165.168 36.236 164.156 37.2935 164.156 39.2446V46.374H161.382V39.1751C161.382 37.2935 160.465 36.236 158.905 36.236C157.344 36.236 156.314 37.3829 156.314 39.2694V46.374H153.579V33.7189H156.353V35.814C157.136 34.7317 158.192 33.7189 160.05 33.7189C160.793 33.6847 161.53 33.8691 162.169 34.2493C162.81 34.6295 163.325 35.1889 163.651 35.8587C164.11 35.1938 164.725 34.6514 165.441 34.2785C166.157 33.9056 166.952 33.7135 167.759 33.7189Z" fill="white"/>
<path d="M123.301 45.2356V43.8355C123.302 43.8221 123.302 43.8086 123.299 43.7954C123.297 43.7828 123.294 43.7704 123.289 43.7584C123.283 43.7464 123.277 43.7351 123.269 43.7248C123.267 43.7228 123.266 43.7208 123.264 43.7189L123.261 43.7149C123.259 43.7128 123.257 43.7109 123.255 43.7089C123.251 43.7045 123.247 43.7004 123.242 43.6965L122.033 42.9915C122.007 42.9766 121.979 42.9688 121.951 42.9688C121.922 42.9688 121.894 42.9766 121.869 42.9915L120.636 43.6965C120.611 43.7105 120.591 43.7308 120.576 43.7552C120.563 43.7796 120.556 43.8073 120.556 43.8355V45.2356C120.555 45.2638 120.562 45.2916 120.576 45.3161C120.591 45.3407 120.61 45.3609 120.636 45.3745L121.849 46.0795C121.874 46.0945 121.902 46.1023 121.931 46.1023C121.959 46.1023 121.988 46.0945 122.013 46.0795L123.222 45.3745C123.24 45.3646 123.255 45.3511 123.268 45.335C123.27 45.3319 123.273 45.3289 123.275 45.3256L123.278 45.3214L123.28 45.3161C123.294 45.2916 123.302 45.2638 123.301 45.2356Z" fill="white"/>
<path d="M131.778 46.3738C130.951 46.3677 130.133 46.1955 129.374 45.8673C128.614 45.5391 127.928 45.0618 127.356 44.4632C126.784 43.8648 126.337 43.1574 126.042 42.383C125.747 41.6086 125.61 40.7827 125.639 39.9544C125.641 39.1221 125.808 38.2985 126.132 37.5318C126.455 36.7652 126.928 36.0707 127.522 35.4891C128.116 34.9076 128.82 34.4506 129.592 34.1449C130.365 33.8392 131.191 33.6909 132.021 33.7088C132.934 33.6869 133.84 33.872 134.671 34.2503C135.503 34.6286 136.238 35.1902 136.822 35.8932L135.063 37.7203C134.694 37.2432 134.222 36.8542 133.684 36.5812C133.146 36.3082 132.554 36.158 131.952 36.1415C129.93 36.1067 128.429 37.8245 128.389 39.9594C128.35 42.0942 129.806 43.9312 131.937 43.961C132.538 43.9563 133.131 43.8242 133.678 43.5735C134.224 43.3229 134.712 42.9591 135.108 42.5062L136.753 44.1943C136.145 44.9152 135.381 45.4866 134.519 45.8645C133.657 46.2425 132.719 46.4167 131.778 46.3738Z" fill="white"/>
</g>
<defs>
<clipPath id="clip0_1036_27231">
<rect width="159" height="25.9904" fill="white" transform="translate(13 27)"/>
</clipPath>
</defs>
</svg>
