<svg width="1em" height="1em" viewBox="0 0 186 80" fill="none" xmlns="http://www.w3.org/2000/svg">
<path d="M40.4696 42.9321L34.4322 32.7695C33.1086 30.6513 29.881 30.6288 28.6038 32.8596L22.2646 43.4279C21.0803 45.3657 22.5432 47.7994 24.9118 47.7994H37.6135C40.0053 47.7994 41.7932 45.2981 40.4696 42.9321Z" fill="#3156AA"/>
<path d="M31.7625 43.7203L31.391 43.0894C31.0427 42.5035 30.2764 41.2416 30.2764 41.2416L25.1679 32.6338C23.8443 30.7185 20.7095 30.5607 19.3859 32.9718L13.4414 42.9542C12.2107 45.0498 13.6736 47.7763 16.344 47.7989H28.9761H34.3633H37.5678C34.2936 47.8214 33.2487 46.1765 31.7625 43.7203Z" fill="#1972E2"/>
<path d="M31.7631 43.7214L31.3916 43.0905C31.0433 42.5047 30.277 41.2427 30.277 41.2427L26.9796 35.6094L22.2426 43.4511C21.0583 45.3889 22.5213 47.8226 24.8898 47.8226H28.9534H34.3406H37.5683C34.2709 47.8 33.2492 46.1776 31.7631 43.7214Z" fill="url(#paint0_linear_1036_27229)"/>
<path d="M171.777 46.9906C170.771 46.9906 169.983 46.7794 169.384 46.41C168.759 46.0142 168.433 45.4337 168.433 44.642V33.1367H170.01C170.58 33.1367 171.07 33.5853 171.07 34.1659V44.299C171.07 44.3253 171.07 44.8004 171.479 45.1961C171.723 45.4337 172.022 45.5656 172.43 45.5656H172.729C172.837 45.5656 172.946 45.6712 172.946 45.7767V47.017L171.777 46.9906Z" fill="#326AD5"/>
<path d="M137.785 46.9904C136.154 46.9904 134.821 46.5682 133.815 45.7238C133.299 45.3016 132.945 44.8265 132.728 44.2988C132.51 43.771 132.401 43.0058 132.401 41.9767C132.401 40.9739 132.51 40.1822 132.728 39.6544C132.918 39.153 133.271 38.7045 133.788 38.2822C134.794 37.4378 136.127 37.0156 137.758 37.0156C139.39 37.0156 140.722 37.4378 141.728 38.2822C142.245 38.7045 142.599 39.1795 142.789 39.6544C143.007 40.2086 143.115 40.9739 143.115 41.9767C143.115 43.0058 143.007 43.771 142.789 44.2988C142.571 44.8265 142.218 45.3016 141.701 45.7238C140.749 46.5682 139.417 46.9904 137.785 46.9904ZM137.785 38.467C135.991 38.467 135.094 39.6544 135.094 42.003C135.094 44.3779 135.991 45.5654 137.785 45.5654C139.581 45.5654 140.478 44.3779 140.478 42.0294C140.478 39.6544 139.553 38.467 137.785 38.467Z" fill="#326AD5"/>
<path d="M149.045 46.9906C147.631 46.9906 146.325 46.6211 145.211 45.9086C145.102 45.8031 144.884 45.6712 144.612 45.5128C144.558 45.4864 144.504 45.4073 144.504 45.3281V33.1367H146.108C146.679 33.1367 147.168 33.6117 147.168 34.1659V37.7283L147.658 37.4644C148.229 37.1741 148.991 37.0422 149.97 37.0422C151.683 37.0422 152.988 37.5436 153.858 38.52C154.62 39.3908 155 40.5518 155 41.9768C155 43.4018 154.565 44.5629 153.695 45.4073C152.689 46.4628 151.111 46.9906 149.045 46.9906ZM149.317 38.4672C148.718 38.4672 148.039 38.6782 147.277 39.1269L147.168 39.1796V44.9059L147.277 44.9851C147.875 45.3545 148.583 45.5392 149.317 45.5392C150.295 45.5392 151.057 45.1434 151.574 44.3517C152.009 43.7184 152.254 42.9004 152.254 41.9768C152.254 39.6547 151.248 38.4672 149.317 38.4672Z" fill="#326AD5"/>
<path d="M161.279 46.964C158.289 46.964 156.412 45.064 156.412 41.9767C156.412 38.9156 158.261 37.0156 161.225 37.0156C162.367 37.0156 163.346 37.3059 164.135 37.8601L164.298 37.9656V37.2003H166.392C166.528 37.2003 166.609 37.3059 166.609 37.4115V46.7793H164.271V45.9349L164.108 46.0669C163.455 46.6473 162.422 46.964 161.279 46.964ZM161.823 38.7045C159.947 38.7045 158.832 40.103 158.832 41.9767C158.832 43.8502 159.947 45.3016 161.823 45.3016C162.422 45.3016 163.455 45.2488 164.271 44.4571L164.298 44.4308V39.6281L164.271 39.6017C163.7 38.9683 162.856 38.7045 161.823 38.7045Z" fill="#326AD5"/>
<path d="M64.6621 46.8577V33.1094H76.4367V33.9802C76.4367 34.6663 75.8656 35.2204 75.1586 35.2204H67.599V38.9148H75.1586V41.0259H67.599V44.7202H75.1586C75.8656 44.7202 76.4367 45.2744 76.4367 45.9605V46.8313L64.6621 46.8577Z" fill="#EDEFF2"/>
<path d="M93.3512 33.1094H90.5776C90.0609 33.1094 89.5986 33.3205 89.2723 33.7163L85.9276 37.8065L82.5829 33.7427C82.2565 33.3469 81.7942 33.1358 81.2776 33.1358H78.5039L84.1329 39.9967L78.5039 46.8577H81.2776C81.7942 46.8577 82.2565 46.6465 82.5829 46.2507L85.9276 42.1869L89.2995 46.2771C89.6258 46.6465 90.0881 46.884 90.6048 46.884H93.3785L87.7495 40.0231L93.3512 33.1094Z" fill="#EDEFF2"/>
<path d="M55.4445 45.4093L59.306 38.865V46.8342H62.2428V33.0859H60.4209C59.8498 33.0859 59.306 33.3762 59.034 33.8776L54.4112 42.0579L49.7884 33.8776C49.5165 33.3762 48.9726 33.0859 48.4015 33.0859H46.5796V46.8342H49.5165V38.865L53.3778 45.4093H55.4445Z" fill="#EDEFF2"/>
<path d="M101.023 47.0172C96.9443 47.0699 93.6268 43.9561 93.5996 39.9978C93.5996 37.834 94.2795 36.0396 95.5575 34.7993C96.8356 33.5855 98.6848 32.9258 100.887 32.9258C103.471 32.9258 105.51 33.7966 106.978 35.4854L106.054 36.2507C105.483 36.7257 104.64 36.7521 104.015 36.3035C103.199 35.6966 102.165 35.4063 100.996 35.4063C98.1136 35.4063 96.4005 37.0951 96.4005 39.9451C96.4005 42.8214 98.1681 44.5894 100.996 44.5894C102.193 44.5894 103.199 44.2727 104.015 43.6922C104.613 43.2436 105.455 43.27 106.054 43.745L106.978 44.5102C105.51 46.1727 103.552 47.0172 101.023 47.0172Z" fill="#EDEFF2"/>
<path d="M119.105 47.0151C114.536 47.0151 111.708 44.3235 111.708 39.9958C111.708 35.6682 114.536 32.9766 119.05 32.9766C121.226 32.9766 123.048 33.5835 124.462 34.8237L123.782 35.5626C123.483 35.8793 123.048 36.064 122.613 36.064C122.368 36.064 122.123 36.0112 121.906 35.9057C121.063 35.4834 120.083 35.2723 119.05 35.2723C116.113 35.2723 114.292 37.0931 114.292 40.0223C114.292 42.9778 116.195 44.7985 119.24 44.7985C120.709 44.7985 121.852 44.5346 122.695 43.9541L122.749 43.9277V41.1041H119.513V40.1806C119.513 39.4945 120.083 38.9403 120.79 38.9403H124.788C124.897 38.9403 125.006 39.0459 125.006 39.1514V45.2471C123.619 46.4082 121.633 47.0151 119.105 47.0151Z" fill="#326AD5"/>
<path d="M130.253 46.9906C129.247 46.9906 128.458 46.7794 127.86 46.41C127.235 46.0142 126.908 45.4337 126.908 44.642V33.1367H128.485C129.057 33.1367 129.546 33.5853 129.546 34.1659V44.299C129.546 44.3253 129.546 44.8004 129.954 45.1961C130.198 45.4337 130.498 45.5656 130.905 45.5656H131.205C131.314 45.5656 131.422 45.6712 131.422 45.7767V47.017L130.253 46.9906Z" fill="#326AD5"/>
<defs>
<linearGradient id="paint0_linear_1036_27229" x1="20.5567" y1="39.8881" x2="35.1234" y2="45.4351" gradientUnits="userSpaceOnUse">
<stop stop-color="#264CA2" stop-opacity="0"/>
<stop offset="1" stop-color="#234588"/>
</linearGradient>
</defs>
</svg>
