<svg width="1em" height="1em" viewBox="0 0 186 80" fill="none" xmlns="http://www.w3.org/2000/svg">
<path d="M74.5786 37.2989V22.4754H77.6853L82.6007 34.0025H82.6646L87.5161 22.4754H90.5801V37.2989H88.1758L88.3672 26.0089H88.2821L83.5157 37.2989H81.6644L76.898 26.2028H76.8129L76.9831 37.2989H74.5786ZM92.0249 32.0633C92.0249 31.2446 92.1524 30.4977 92.4078 29.8226C92.6633 29.1331 93.0178 28.5442 93.472 28.0558C93.9401 27.5531 94.486 27.1724 95.1105 26.9139C95.7489 26.6553 96.4368 26.526 97.1742 26.526C97.8977 26.526 98.5572 26.6409 99.1533 26.8708C99.7488 27.1006 100.26 27.4381 100.686 27.8834C101.125 28.3144 101.459 28.853 101.686 29.4993C101.912 30.1314 102.026 30.8496 102.026 31.6539V32.4296H94.3869C94.4154 32.9323 94.5005 33.3919 94.6424 33.8086C94.7983 34.2108 94.997 34.5555 95.2379 34.8428C95.4934 35.13 95.7912 35.3527 96.1318 35.5107C96.4723 35.6543 96.8481 35.7261 97.2594 35.7261C97.6139 35.7261 97.9261 35.683 98.1955 35.5969C98.4793 35.5107 98.7209 35.3958 98.9191 35.2521C99.1177 35.0941 99.2741 34.9218 99.3871 34.735C99.5151 34.5339 99.6075 34.3257 99.6637 34.1101H101.919C101.849 34.5842 101.686 35.0295 101.43 35.446C101.175 35.8626 100.841 36.2289 100.43 36.5449C100.033 36.8609 99.5574 37.1123 99.0042 37.2989C98.4654 37.4714 97.8766 37.5576 97.2382 37.5576C96.4156 37.5576 95.6776 37.4355 95.0253 37.1913C94.3869 36.9471 93.841 36.588 93.3868 36.1139C92.9471 35.6399 92.6065 35.0654 92.3655 34.3903C92.1384 33.7008 92.0249 32.9252 92.0249 32.0633ZM97.1742 28.3359C96.8342 28.3359 96.5146 28.3933 96.2169 28.5082C95.933 28.6231 95.6776 28.7884 95.4505 29.0038C95.224 29.2192 95.0253 29.4849 94.855 29.801C94.6992 30.117 94.5784 30.4689 94.4932 30.8568H99.6854C99.6425 30.4259 99.5508 30.0524 99.4088 29.7364C99.2808 29.4203 99.1105 29.1619 98.8979 28.9607C98.6853 28.7453 98.437 28.5872 98.1532 28.4867C97.8693 28.3862 97.5432 28.3359 97.1742 28.3359ZM103.493 37.2989V26.7846H105.706V28.3144H105.77C105.897 28.0271 106.046 27.7757 106.217 27.5602C106.401 27.3448 106.607 27.1581 106.834 27C107.075 26.842 107.33 26.7271 107.6 26.6553C107.884 26.5691 108.189 26.526 108.515 26.526C108.628 26.526 108.742 26.5332 108.855 26.5476C108.969 26.5619 109.082 26.5835 109.195 26.6122C109.323 26.6409 109.451 26.684 109.579 26.7415C109.706 26.7989 109.834 26.8708 109.962 26.9569L109.366 29.0253C109.252 28.9679 109.139 28.9176 109.026 28.8745C108.912 28.8314 108.806 28.7955 108.706 28.7668C108.607 28.7381 108.501 28.7165 108.387 28.7021C108.288 28.6878 108.189 28.6806 108.089 28.6806C107.706 28.6806 107.365 28.7668 107.068 28.9392C106.784 29.1115 106.543 29.3557 106.344 29.6718C106.16 29.9733 106.018 30.3324 105.919 30.749C105.834 31.1512 105.791 31.5821 105.791 32.0418V37.2989H103.493ZM110.237 32.0418C110.237 31.2087 110.365 30.4546 110.62 29.7794C110.876 29.09 111.23 28.5011 111.684 28.0127C112.152 27.5243 112.698 27.1581 113.323 26.9139C113.961 26.6553 114.656 26.526 115.408 26.526C116.103 26.526 116.727 26.6266 117.281 26.8276C117.848 27.0144 118.33 27.2801 118.728 27.6248C119.139 27.9696 119.458 28.3789 119.685 28.853C119.912 29.327 120.061 29.8369 120.132 30.3828H117.855C117.813 30.1099 117.727 29.8513 117.599 29.6071C117.472 29.3629 117.309 29.1546 117.11 28.9823C116.912 28.7955 116.671 28.6519 116.387 28.5513C116.103 28.4508 115.777 28.4005 115.408 28.4005C115.011 28.4005 114.642 28.4867 114.301 28.6591C113.961 28.8314 113.663 29.0828 113.408 29.4132C113.152 29.7291 112.954 30.117 112.812 30.5767C112.684 31.0219 112.62 31.5103 112.62 32.0418C112.62 32.5732 112.684 33.0688 112.812 33.5285C112.954 33.9738 113.152 34.3616 113.408 34.6919C113.663 35.0079 113.961 35.2521 114.301 35.4245C114.642 35.5969 115.011 35.683 115.408 35.683C115.777 35.683 116.103 35.6328 116.387 35.5322C116.684 35.4317 116.933 35.2952 117.131 35.1229C117.33 34.9361 117.486 34.7207 117.599 34.4765C117.713 34.2323 117.798 33.9738 117.855 33.7008H120.132C120.061 34.2467 119.912 34.7566 119.685 35.2306C119.458 35.7046 119.146 36.1139 118.749 36.4588C118.351 36.8035 117.869 37.0764 117.302 37.2775C116.748 37.4641 116.117 37.5576 115.408 37.5576C114.614 37.5576 113.897 37.4355 113.259 37.1913C112.62 36.9328 112.074 36.5664 111.62 36.0924C111.167 35.6184 110.819 35.0367 110.578 34.3472C110.351 33.6578 110.237 32.8892 110.237 32.0418ZM121.068 34.6058C121.068 34.1605 121.132 33.7655 121.259 33.4208C121.401 33.0616 121.607 32.7528 121.877 32.4942C122.161 32.2213 122.523 31.9987 122.962 31.8263C123.402 31.6396 123.927 31.4959 124.536 31.3954L126.558 31.0507C126.828 31.0076 127.047 30.9645 127.217 30.9214C127.388 30.8783 127.522 30.8352 127.622 30.7921C127.721 30.7347 127.792 30.67 127.835 30.5982C127.877 30.5264 127.899 30.4402 127.899 30.3397C127.899 30.0236 127.856 29.7364 127.77 29.4779C127.7 29.2192 127.579 29.0038 127.408 28.8314C127.239 28.6447 127.026 28.5082 126.77 28.4221C126.515 28.3215 126.21 28.2712 125.855 28.2712C125.515 28.2712 125.211 28.3144 124.94 28.4005C124.685 28.4867 124.465 28.616 124.281 28.7884C124.096 28.9463 123.955 29.1402 123.855 29.37C123.756 29.5999 123.692 29.8513 123.664 30.1242H121.472C121.5 29.5783 121.621 29.09 121.834 28.6591C122.061 28.2138 122.358 27.8331 122.727 27.5172C123.111 27.1867 123.565 26.9426 124.089 26.7846C124.629 26.6122 125.217 26.526 125.855 26.526C126.579 26.526 127.21 26.6122 127.75 26.7846C128.303 26.9569 128.757 27.2083 129.112 27.5387C129.481 27.869 129.75 28.2712 129.92 28.7453C130.105 29.2192 130.197 29.7651 130.197 30.3828V37.2989H128.005V35.9848H127.899C127.742 36.2432 127.55 36.4731 127.324 36.6742C127.111 36.8609 126.863 37.0189 126.579 37.1482C126.295 37.2775 125.984 37.378 125.642 37.4498C125.317 37.5217 124.962 37.5576 124.579 37.5576C124.026 37.5576 123.529 37.4858 123.089 37.3421C122.65 37.2129 122.281 37.0189 121.983 36.7603C121.685 36.4874 121.458 36.1714 121.302 35.8123C121.146 35.4532 121.068 35.051 121.068 34.6058ZM127.899 32.9899V32.0202C127.842 32.0777 127.777 32.1351 127.707 32.1926C127.636 32.25 127.558 32.3003 127.473 32.3434C127.388 32.3721 127.289 32.4009 127.175 32.4296C127.075 32.4583 126.962 32.487 126.835 32.5159L125.047 32.8174C124.749 32.8606 124.493 32.9323 124.281 33.0329C124.069 33.1191 123.891 33.2268 123.749 33.356C123.622 33.4854 123.522 33.6361 123.451 33.8086C123.394 33.9666 123.366 34.1533 123.366 34.3688C123.366 34.5842 123.402 34.7853 123.472 34.972C123.558 35.1444 123.671 35.2952 123.813 35.4245C123.955 35.5394 124.139 35.6328 124.366 35.7046C124.593 35.7764 124.849 35.8123 125.132 35.8123C125.501 35.8123 125.849 35.7549 126.175 35.6399C126.515 35.525 126.813 35.3527 127.069 35.1229C127.324 34.8787 127.522 34.577 127.664 34.2179C127.821 33.8589 127.899 33.4495 127.899 32.9899ZM131.601 32.1279C131.601 31.2805 131.722 30.512 131.963 29.8226C132.218 29.1187 132.565 28.5226 133.005 28.0342C133.445 27.5458 133.956 27.1724 134.538 26.9139C135.12 26.6553 135.744 26.526 136.41 26.526C136.793 26.526 137.148 26.5619 137.474 26.6337C137.801 26.7056 138.098 26.8205 138.367 26.9785C138.652 27.1221 138.9 27.3089 139.112 27.5387C139.339 27.7685 139.531 28.0414 139.687 28.3574H139.772C139.743 28.0414 139.723 27.711 139.708 27.3663C139.694 27.0216 139.68 26.6984 139.666 26.3968C139.666 26.0807 139.666 25.8078 139.666 25.578C139.666 25.3482 139.666 25.0968 139.666 24.8239V21.5273H141.964V37.2989H139.772V35.7261H139.687C139.531 36.0421 139.332 36.315 139.091 36.5449C138.865 36.7747 138.601 36.9687 138.304 37.1267C138.006 37.2702 137.679 37.378 137.325 37.4498C136.985 37.5217 136.623 37.5576 136.24 37.5576C135.588 37.5576 134.978 37.4427 134.41 37.2129C133.843 36.9687 133.347 36.6167 132.92 36.157C132.509 35.683 132.183 35.1085 131.942 34.4334C131.714 33.7439 131.601 32.9755 131.601 32.1279ZM133.985 32.1279C133.985 32.6881 134.055 33.1909 134.197 33.6361C134.34 34.0815 134.538 34.4549 134.793 34.7566C135.048 35.0582 135.346 35.288 135.686 35.446C136.027 35.604 136.403 35.683 136.815 35.683C137.226 35.683 137.601 35.604 137.942 35.446C138.297 35.2737 138.601 35.0295 138.857 34.7135C139.112 34.3975 139.311 34.0169 139.453 33.5715C139.594 33.1119 139.666 32.6019 139.666 32.0418C139.666 31.4816 139.594 30.9789 139.453 30.5336C139.311 30.0739 139.112 29.6861 138.857 29.37C138.601 29.0541 138.297 28.817 137.942 28.6591C137.601 28.4867 137.226 28.4005 136.815 28.4005C136.417 28.4005 136.041 28.4867 135.686 28.6591C135.346 28.8314 135.048 29.0828 134.793 29.4132C134.538 29.7291 134.34 30.1242 134.197 30.5982C134.055 31.0579 133.985 31.5678 133.985 32.1279ZM143.509 32.0418C143.509 31.2087 143.636 30.4546 143.892 29.7794C144.162 29.09 144.531 28.5011 144.998 28.0127C145.48 27.5243 146.041 27.1581 146.679 26.9139C147.332 26.6553 148.041 26.526 148.808 26.526C149.616 26.526 150.347 26.6553 150.999 26.9139C151.651 27.1581 152.205 27.5243 152.658 28.0127C153.127 28.4867 153.482 29.0684 153.722 29.7579C153.978 30.433 154.106 31.1943 154.106 32.0418C154.106 32.8749 153.978 33.6361 153.722 34.3257C153.467 35.0008 153.098 35.5825 152.616 36.0709C152.148 36.5593 151.587 36.9328 150.936 37.1913C150.282 37.4355 149.574 37.5576 148.808 37.5576C148.012 37.5576 147.29 37.4355 146.637 37.1913C145.984 36.9328 145.424 36.5664 144.956 36.0924C144.488 35.604 144.126 35.0223 143.871 34.3472C143.629 33.6578 143.509 32.8892 143.509 32.0418ZM145.893 32.0418C145.893 32.5876 145.963 33.0831 146.104 33.5285C146.246 33.9738 146.446 34.3616 146.701 34.6919C146.956 35.0079 147.261 35.2521 147.615 35.4245C147.984 35.5969 148.381 35.683 148.808 35.683C149.232 35.683 149.623 35.5969 149.978 35.4245C150.347 35.2521 150.659 35.0079 150.914 34.6919C151.169 34.3616 151.367 33.9738 151.509 33.5285C151.651 33.0831 151.722 32.5876 151.722 32.0418C151.722 31.4816 151.651 30.9789 151.509 30.5336C151.382 30.0739 151.183 29.6861 150.914 29.37C150.659 29.0541 150.354 28.817 149.999 28.6591C149.644 28.4867 149.247 28.4005 148.808 28.4005C148.381 28.4005 147.984 28.4867 147.615 28.6591C147.261 28.8314 146.956 29.0828 146.701 29.4132C146.446 29.7291 146.246 30.1099 146.104 30.5551C145.963 31.0004 145.893 31.4959 145.893 32.0418ZM74.6154 55.9526V41.129H81.0841C81.8785 41.129 82.5736 41.2152 83.1694 41.3876C83.7652 41.5599 84.2617 41.8185 84.6589 42.1632C85.0561 42.4936 85.3469 42.8958 85.5314 43.3699C85.73 43.8439 85.8292 44.3896 85.8292 45.0073C85.8292 45.3664 85.7796 45.7039 85.6803 46.0199C85.5952 46.3359 85.4533 46.6304 85.2547 46.9034C85.0702 47.1762 84.8291 47.4132 84.5312 47.6143C84.2475 47.8155 83.9141 47.9734 83.5311 48.0883V48.1746C83.9709 48.2608 84.3681 48.4044 84.7227 48.6055C85.0915 48.7922 85.3965 49.0364 85.6377 49.338C85.8931 49.6397 86.0846 49.9772 86.2123 50.3507C86.3541 50.7241 86.425 51.1263 86.425 51.5572C86.425 52.1893 86.3186 52.7782 86.1058 53.324C85.8931 53.8555 85.5738 54.3223 85.1484 54.7245C84.7369 55.1124 84.2191 55.4139 83.595 55.6294C82.985 55.8449 82.2899 55.9526 81.5097 55.9526H74.6154ZM81.3182 49.2734H77.0199V53.9489H81.3182C81.7721 53.9489 82.1622 53.8914 82.4884 53.7765C82.829 53.6616 83.1127 53.4964 83.3396 53.2809C83.5666 53.0511 83.7297 52.7926 83.829 52.5053C83.9425 52.2037 83.9992 51.8733 83.9992 51.5142C83.9992 51.1838 83.9425 50.8821 83.829 50.6092C83.7155 50.3363 83.5453 50.0993 83.3183 49.8982C83.1056 49.6971 82.829 49.5463 82.4884 49.4458C82.148 49.3309 81.7579 49.2734 81.3182 49.2734ZM80.9139 43.1328H77.0199V47.3128H80.8926C81.3039 47.3128 81.6657 47.2625 81.9778 47.1619C82.3041 47.0469 82.5736 46.8889 82.7864 46.6879C82.9992 46.4868 83.1552 46.2498 83.2545 45.9769C83.368 45.7039 83.4247 45.4095 83.4247 45.0935C83.4247 44.7919 83.3751 44.5261 83.2758 44.2962C83.1907 44.052 83.0417 43.8439 82.829 43.6714C82.6304 43.499 82.3679 43.3699 82.0417 43.2836C81.7295 43.183 81.3536 43.1328 80.9139 43.1328ZM87.6943 42.551V40.181H90.1626V42.551H87.6943ZM87.7795 55.9526V45.4382H90.0775V55.9526H87.7795ZM92.99 52.5915V47.248H91.0325V45.4382H92.99V42.2494H95.288V45.4382H97.9478V47.248H95.288V52.4622C95.288 52.7495 95.3091 52.9937 95.3521 53.1948C95.4088 53.3815 95.4939 53.5395 95.6075 53.6688C95.7204 53.7837 95.8696 53.8699 96.0539 53.9273C96.2386 53.9848 96.4657 54.0135 96.735 54.0135H97.9478V55.9526H96.3521C95.7561 55.9526 95.2458 55.8879 94.8199 55.7587C94.3942 55.6294 94.0469 55.4283 93.7775 55.1554C93.5076 54.8826 93.3089 54.5378 93.1814 54.1212C93.054 53.6903 92.99 53.1804 92.99 52.5915ZM98.4104 50.6954C98.4104 49.8623 98.5378 49.1082 98.7933 48.433C99.0487 47.7436 99.4032 47.1547 99.8574 46.6663C100.325 46.1779 100.871 45.8117 101.495 45.5675C102.134 45.3089 102.829 45.1797 103.581 45.1797C104.276 45.1797 104.9 45.2802 105.454 45.4813C106.021 45.668 106.503 45.9338 106.9 46.2785C107.312 46.6232 107.631 47.0326 107.858 47.5067C108.085 47.9807 108.234 48.4906 108.305 49.0364H106.028C105.985 48.7635 105.901 48.5049 105.772 48.2608C105.645 48.0166 105.482 47.8082 105.283 47.6359C105.085 47.4491 104.844 47.3055 104.56 47.2049C104.276 47.1044 103.95 47.0541 103.581 47.0541C103.184 47.0541 102.815 47.1403 102.474 47.3128C102.134 47.485 101.836 47.7365 101.581 48.0669C101.326 48.3828 101.127 48.7707 100.985 49.2303C100.857 49.6756 100.794 50.1639 100.794 50.6954C100.794 51.2269 100.857 51.7224 100.985 52.1821C101.127 52.6274 101.326 53.0152 101.581 53.3456C101.836 53.6616 102.134 53.9058 102.474 54.0781C102.815 54.2505 103.184 54.3367 103.581 54.3367C103.95 54.3367 104.276 54.2864 104.56 54.1859C104.858 54.0853 105.106 53.9489 105.304 53.7765C105.503 53.5898 105.659 53.3743 105.772 53.1301C105.886 52.8859 105.971 52.6274 106.028 52.3544H108.305C108.234 52.9003 108.085 53.4102 107.858 53.8842C107.631 54.3582 107.319 54.7676 106.922 55.1124C106.524 55.4571 106.042 55.73 105.475 55.9311C104.922 56.1178 104.29 56.2112 103.581 56.2112C102.787 56.2112 102.07 56.0891 101.432 55.8449C100.794 55.5864 100.247 55.22 99.7933 54.746C99.3392 54.272 98.992 53.6903 98.7504 53.0009C98.5238 52.3114 98.4104 51.5429 98.4104 50.6954ZM108.947 50.6954C108.947 49.8623 109.075 49.1082 109.33 48.433C109.599 47.7436 109.968 47.1547 110.437 46.6663C110.918 46.1779 111.479 45.8117 112.117 45.5675C112.77 45.3089 113.479 45.1797 114.245 45.1797C115.054 45.1797 115.785 45.3089 116.437 45.5675C117.09 45.8117 117.643 46.1779 118.097 46.6663C118.565 47.1403 118.92 47.7221 119.161 48.4116C119.416 49.0867 119.543 49.8479 119.543 50.6954C119.543 51.5286 119.416 52.2898 119.161 52.9793C118.905 53.6544 118.537 54.2361 118.054 54.7245C117.586 55.2129 117.026 55.5864 116.373 55.8449C115.72 56.0891 115.011 56.2112 114.245 56.2112C113.451 56.2112 112.727 56.0891 112.075 55.8449C111.422 55.5864 110.862 55.22 110.394 54.746C109.926 54.2577 109.564 53.6759 109.309 53.0009C109.067 52.3114 108.947 51.5429 108.947 50.6954ZM111.33 50.6954C111.33 51.2412 111.401 51.7368 111.543 52.1821C111.685 52.6274 111.884 53.0152 112.139 53.3456C112.394 53.6616 112.699 53.9058 113.053 54.0781C113.422 54.2505 113.82 54.3367 114.245 54.3367C114.671 54.3367 115.061 54.2505 115.416 54.0781C115.785 53.9058 116.097 53.6616 116.352 53.3456C116.607 53.0152 116.806 52.6274 116.948 52.1821C117.09 51.7368 117.16 51.2412 117.16 50.6954C117.16 50.1352 117.09 49.6325 116.948 49.1872C116.82 48.7276 116.622 48.3398 116.352 48.0237C116.097 47.7077 115.792 47.4707 115.437 47.3128C115.082 47.1403 114.685 47.0541 114.245 47.0541C113.82 47.0541 113.422 47.1403 113.053 47.3128C112.699 47.485 112.394 47.7365 112.139 48.0669C111.884 48.3828 111.685 48.7635 111.543 49.2088C111.401 49.654 111.33 50.1496 111.33 50.6954ZM120.802 42.551V40.181H123.27V42.551H120.802ZM120.888 55.9526V45.4382H123.186V55.9526H120.888ZM125.034 55.9526V45.4382H127.248V46.968H127.332C127.474 46.6663 127.652 46.4078 127.864 46.1923C128.077 45.9625 128.318 45.7758 128.587 45.6321C128.858 45.4741 129.156 45.3592 129.482 45.2874C129.807 45.2156 130.162 45.1797 130.545 45.1797C131.084 45.1797 131.588 45.2587 132.056 45.4167C132.524 45.5747 132.935 45.826 133.291 46.1708C133.645 46.5155 133.922 46.9751 134.12 47.5497C134.333 48.1099 134.439 48.785 134.439 49.575V55.9526H132.142V49.8767C132.142 49.3596 132.091 48.9214 131.992 48.5623C131.893 48.2032 131.744 47.916 131.546 47.7006C131.347 47.485 131.113 47.3271 130.843 47.2265C130.574 47.1259 130.269 47.0757 129.929 47.0757C129.56 47.0757 129.218 47.1547 128.907 47.3128C128.594 47.4564 128.318 47.6789 128.077 47.9807C127.836 48.2679 127.652 48.6269 127.524 49.0579C127.396 49.4745 127.332 49.9413 127.332 50.4584V55.9526H125.034Z" fill="#EF4723"/>
<path d="M48.0762 21.7357C49.9144 20.661 52.1792 20.661 54.0173 21.7357L64.5409 27.8878C66.3791 28.9624 67.5115 30.9483 67.5115 33.0977V45.4019C67.5115 47.5512 66.3791 49.5371 64.5409 50.6117L54.0173 56.7638C52.1792 57.8384 49.9144 57.8384 48.0762 56.7638L37.5526 50.6117C35.7144 49.5371 34.582 47.5512 34.582 45.4019V33.0977C34.582 30.9483 35.7144 28.9624 37.5526 27.8878L48.0762 21.7357Z" fill="#EF4723"/>
</svg>
