<svg width="106" height="106" viewBox="0 0 106 106" fill="none" xmlns="http://www.w3.org/2000/svg">
<path fill-rule="evenodd" clip-rule="evenodd" d="M37.6088 37.3409H35.8689V40.6874H32.5234V42.4273H35.8689V45.7728H37.6088V42.4273H40.9553V40.6874H37.6088V37.3409Z" fill="#7246EE" fill-opacity="0.6"/>
<path fill-rule="evenodd" clip-rule="evenodd" d="M60.2638 20.4773H57.7782V25.258H53V27.7436H57.7782V32.5227H60.2638V27.7436H65.0455V25.258H60.2638V20.4773Z" fill="#7246EE"/>
<path fill-rule="evenodd" clip-rule="evenodd" d="M74.6995 45.7727H73.4567V48.163H71.0664V49.4058H73.4567V51.7954H74.6995V49.4058H77.0891V48.163H74.6995V45.7727Z" fill="#7246EE" fill-opacity="0.4"/>
<path d="M25.5642 74.4322L27.7034 80.7844C26.2358 76.4265 27.5471 71.1327 32.0587 65.9125C41.1301 55.3736 59.582 48.9951 73.3021 51.7762L71.1628 45.424C57.4677 42.7166 38.9908 49.0213 29.9194 59.5602C25.4078 64.7804 24.0966 70.0742 25.5642 74.4322Z" fill="white"/>
<path d="M25.5612 74.4352L27.7004 80.7875C27.1532 79.1625 26.9467 77.3405 27.277 75.4199L25.1377 69.0677C24.8805 70.9636 24.989 72.7363 25.5612 74.4352Z" fill="white" stroke="#1A1A1A" stroke-width="0.6" stroke-miterlimit="10"/>
<path d="M25.1367 69.0638L27.2759 75.4161C27.3461 74.899 27.4645 74.2835 27.6077 73.7418L25.4685 67.3895C25.3252 67.9312 25.2068 68.5467 25.1367 69.0638Z" fill="white" stroke="#1A1A1A" stroke-width="0.6" stroke-miterlimit="10"/>
<path d="M25.4615 67.3854L27.6008 73.7377C27.6958 73.2945 27.8888 72.9005 27.9838 72.4573L25.8446 66.105C25.7496 66.5482 25.5565 66.9422 25.4615 67.3854Z" fill="white" stroke="#1A1A1A" stroke-width="0.6" stroke-miterlimit="10"/>
<path d="M25.9196 66.0813L28.0588 72.4336C28.1787 72.0642 28.3717 71.6703 28.4916 71.3009L26.3524 64.9487C26.1594 65.3426 26.0395 65.712 25.9196 66.0813Z" fill="white" stroke="#1A1A1A" stroke-width="0.6" stroke-miterlimit="10"/>
<path d="M26.3518 64.9579L28.491 71.3102C28.6109 70.9408 28.8288 70.6207 29.0218 70.2268L26.8826 63.8745C26.6895 64.2684 26.4965 64.6624 26.3518 64.9579Z" fill="white" stroke="#1A1A1A" stroke-width="0.6" stroke-miterlimit="10"/>
<path d="M26.9036 63.9422L29.0428 70.2945C29.1876 69.999 29.4055 69.6789 29.6234 69.3588L27.4841 63.0066C27.1682 63.2774 27.0234 63.5729 26.9036 63.9422Z" fill="white" stroke="#1A1A1A" stroke-width="0.6" stroke-miterlimit="10"/>
<path d="M27.3918 62.9537L29.5311 69.306C29.6759 69.0105 29.8938 68.6904 30.1116 68.3703L27.9724 62.018C27.7794 62.412 27.6097 62.6336 27.3918 62.9537Z" fill="white" stroke="#1A1A1A" stroke-width="0.6" stroke-miterlimit="10"/>
<path d="M27.9959 62.0882L30.1351 68.4405C30.353 68.1204 30.5226 67.8988 30.7405 67.5787L28.6013 61.2264C28.3585 61.4727 28.1406 61.7928 27.9959 62.0882Z" fill="white" stroke="#1A1A1A" stroke-width="0.6" stroke-miterlimit="10"/>
<path d="M28.6077 61.2309L30.747 67.5832C30.9649 67.2631 31.1345 67.0415 31.3773 66.7952L29.238 60.443C28.9953 60.6892 28.7525 60.9354 28.6077 61.2309Z" fill="white" stroke="#1A1A1A" stroke-width="0.6" stroke-miterlimit="10"/>
<path d="M29.2054 60.379L31.3446 66.7313C31.5874 66.485 31.8053 66.1649 32.0481 65.9187L29.9088 59.5664C29.5929 59.8373 29.4481 60.1328 29.2054 60.379Z" fill="white" stroke="#1A1A1A" stroke-width="0.6" stroke-miterlimit="10"/>
<path d="M29.8446 59.5819L31.9838 65.9341L32.0569 65.9095C32.2997 65.6633 32.4694 65.4417 32.7121 65.1954L30.5729 58.8431C30.3052 59.0155 30.1356 59.2371 29.8446 59.5819C29.8933 59.5654 29.8933 59.5654 29.8446 59.5819Z" fill="white"/>
<path d="M29.8446 59.5819L31.9838 65.9341L32.0569 65.9095C32.2997 65.6633 32.4694 65.4417 32.7121 65.1954L30.5729 58.8431C30.3052 59.0155 30.1356 59.2371 29.8446 59.5819C29.8933 59.5654 29.8933 59.5654 29.8446 59.5819" stroke="#1A1A1A" stroke-width="0.6" stroke-miterlimit="10"/>
<path d="M30.5516 58.7678L32.6908 65.12C32.9336 64.8738 33.1764 64.6276 33.4191 64.3813L31.2799 58.0291C31.0371 58.2753 30.7944 58.5215 30.5516 58.7678Z" fill="white" stroke="#1A1A1A" stroke-width="0.6" stroke-miterlimit="10"/>
<path d="M31.2664 58.0373L33.4057 64.3896C33.6485 64.1433 33.8912 63.8971 34.134 63.6509L31.9947 57.2986C31.8251 57.5202 31.5092 57.7911 31.2664 58.0373Z" fill="white" stroke="#1A1A1A" stroke-width="0.6" stroke-miterlimit="10"/>
<path d="M32.0672 57.269L34.2065 63.6213C34.4492 63.375 34.692 63.1288 35.0079 62.8579L32.8686 56.5056C32.5527 56.7765 32.31 57.0228 32.0672 57.269Z" fill="white" stroke="#1A1A1A" stroke-width="0.6" stroke-miterlimit="10"/>
<path d="M32.8002 56.533L34.9394 62.8853C35.1822 62.6391 35.4981 62.3682 35.7657 62.1958L33.6265 55.8435C33.3837 56.0898 33.1161 56.2621 32.8002 56.533Z" fill="white" stroke="#1A1A1A" stroke-width="0.6" stroke-miterlimit="10"/>
<path d="M33.6986 55.8177L35.8378 62.17C36.0806 61.9237 36.4214 61.7267 36.7373 61.4558L34.598 55.1036C34.2573 55.3006 33.9414 55.5714 33.6986 55.8177Z" fill="white" stroke="#1A1A1A" stroke-width="0.6" stroke-miterlimit="10"/>
<path d="M34.5345 55.141L36.6738 61.4933C36.9897 61.2225 37.2573 61.0501 37.5732 60.7792L35.434 54.4269C35.1912 54.6732 34.8504 54.8702 34.5345 55.141Z" fill="white" stroke="#1A1A1A" stroke-width="0.6" stroke-miterlimit="10"/>
<path d="M35.5111 54.3801L37.6503 60.7323C37.9662 60.4615 38.307 60.2645 38.6229 59.9936L36.4837 53.6413C36.0946 53.9368 35.7539 54.1338 35.5111 54.3801Z" fill="white" stroke="#1A1A1A" stroke-width="0.6" stroke-miterlimit="10"/>
<path d="M36.4042 53.6745L38.5434 60.0268C38.8842 59.8298 39.2001 59.5589 39.5409 59.3619L37.4016 53.0096C37.0857 53.2805 36.745 53.4775 36.4042 53.6745Z" fill="white" stroke="#1A1A1A" stroke-width="0.6" stroke-miterlimit="10"/>
<path d="M37.4003 53.0131L39.5395 59.3654C39.8803 59.1684 40.1962 58.8975 40.537 58.7005L38.3977 52.3482C38.0818 52.6191 37.7411 52.8161 37.4003 53.0131Z" fill="white" stroke="#1A1A1A" stroke-width="0.6" stroke-miterlimit="10"/>
<path d="M38.3988 52.3454L40.5381 58.6977C40.8789 58.5007 41.2196 58.3036 41.5604 58.1066L39.4212 51.7544C39.0804 51.9514 38.7396 52.1484 38.3988 52.3454Z" fill="white" stroke="#1A1A1A" stroke-width="0.6" stroke-miterlimit="10"/>
<path d="M39.4184 51.7595L41.5576 58.1118C41.8984 57.9148 42.2392 57.7178 42.5799 57.5208L40.4407 51.1685C40.0999 51.3656 39.7591 51.5625 39.4184 51.7595Z" fill="white" stroke="#1A1A1A" stroke-width="0.6" stroke-miterlimit="10"/>
<path d="M40.434 51.1657L42.5732 57.518C42.914 57.321 43.2548 57.1239 43.5956 56.9269L41.4563 50.5747C41.1155 50.7717 40.7748 50.9687 40.434 51.1657Z" fill="white" stroke="#1A1A1A" stroke-width="0.6" stroke-miterlimit="10"/>
<path d="M41.4833 50.6433L43.6226 56.9956C43.9634 56.7986 44.3041 56.6016 44.6698 56.4785L42.5305 50.1262C42.1649 50.2493 41.8241 50.4463 41.4833 50.6433Z" fill="white" stroke="#1A1A1A" stroke-width="0.6" stroke-miterlimit="10"/>
<path d="M42.4365 50.08L44.5757 56.4323C44.9165 56.2353 45.2821 56.1121 45.6229 55.9151L43.4837 49.5628C43.1429 49.7598 42.8021 49.9568 42.4365 50.08Z" fill="white" stroke="#1A1A1A" stroke-width="0.6" stroke-miterlimit="10"/>
<path d="M43.5146 49.6388L45.6538 55.9911C45.9946 55.7941 46.3603 55.6709 46.701 55.4739L44.5618 49.1217C44.221 49.3187 43.8554 49.4418 43.5146 49.6388Z" fill="white" stroke="#1A1A1A" stroke-width="0.6" stroke-miterlimit="10"/>
<path d="M44.56 49.1157L46.6993 55.468C47.1132 55.2464 47.4788 55.1232 47.9176 54.9755L45.7784 48.6232C45.3396 48.771 44.9988 48.968 44.56 49.1157Z" fill="white" stroke="#1A1A1A" stroke-width="0.6" stroke-miterlimit="10"/>
<path d="M45.7632 48.6215L47.9024 54.9738C48.3412 54.826 48.8282 54.5797 49.267 54.432L47.1277 48.0797C46.6158 48.2521 46.1771 48.3998 45.7632 48.6215Z" fill="white" stroke="#1A1A1A" stroke-width="0.6" stroke-miterlimit="10"/>
<path d="M47.1499 48.0814L49.2891 54.4337C50.0204 54.1874 50.6537 53.8919 51.385 53.6456L49.2457 47.2934C48.5145 47.5396 47.7832 47.7859 47.1499 48.0814Z" fill="white" stroke="#1A1A1A" stroke-width="0.6" stroke-miterlimit="10"/>
<path d="M49.1641 47.3301L51.3033 53.6824C52.254 53.3622 53.2778 53.0174 54.2534 52.7711L52.1141 46.4188C51.1634 46.739 50.1879 46.9853 49.1641 47.3301Z" fill="white" stroke="#1A1A1A" stroke-width="0.6" stroke-miterlimit="10"/>
<path d="M52.1406 46.4935L54.2799 52.8458C55.036 52.6734 55.8405 52.4025 56.6215 52.3039L54.4823 45.9517C53.7012 46.0502 52.945 46.2226 52.1406 46.4935Z" fill="white" stroke="#1A1A1A" stroke-width="0.6" stroke-miterlimit="10"/>
<path d="M54.4531 45.8699L56.5924 52.2222C57.1292 52.1236 57.6659 52.0251 58.2027 51.9266L56.0635 45.5743C55.5267 45.6728 54.9899 45.7713 54.4531 45.8699Z" fill="white" stroke="#1A1A1A" stroke-width="0.6" stroke-miterlimit="10"/>
<path d="M56.0586 45.5806L58.1978 51.9328C58.6615 51.8589 59.052 51.8097 59.5157 51.7358L57.3764 45.3835C56.8879 45.3835 56.4974 45.4328 56.0586 45.5806Z" fill="white" stroke="#1A1A1A" stroke-width="0.6" stroke-miterlimit="10"/>
<path d="M57.3516 45.3058L59.4908 51.6581C59.9545 51.5842 60.345 51.5349 60.8086 51.461L58.6694 45.1087C58.2057 45.1826 57.8152 45.2319 57.3516 45.3058Z" fill="white" stroke="#1A1A1A" stroke-width="0.6" stroke-miterlimit="10"/>
<path d="M58.6836 45.1089L60.8228 51.4612C61.2134 51.4119 61.677 51.338 62.0675 51.2887L59.9283 44.9364C59.5378 44.9857 59.0741 45.0596 58.6836 45.1089Z" fill="white" stroke="#1A1A1A" stroke-width="0.6" stroke-miterlimit="10"/>
<path d="M59.9375 45.0092L62.0768 51.3614C62.4673 51.3122 62.9558 51.3121 63.3463 51.2628L61.2071 44.9106C60.7917 44.886 60.328 44.9599 59.9375 45.0092Z" fill="white" stroke="#1A1A1A" stroke-width="0.6" stroke-miterlimit="10"/>
<path d="M61.1836 44.842L63.3228 51.1943C63.7134 51.145 64.2019 51.145 64.5924 51.0957L62.4532 44.7435C62.0627 44.7927 61.6721 44.842 61.1836 44.842Z" fill="white" stroke="#1A1A1A" stroke-width="0.6" stroke-miterlimit="10"/>
<path d="M62.4805 44.8115L64.6197 51.1638C65.0351 51.1884 65.4987 51.1145 65.9141 51.1391L63.7749 44.7868C63.3595 44.7622 62.9441 44.7376 62.4805 44.8115Z" fill="white" stroke="#1A1A1A" stroke-width="0.6" stroke-miterlimit="10"/>
<path d="M63.8555 44.7657L65.9947 51.118C66.4101 51.1426 66.8738 51.0687 67.2892 51.0933L65.1499 44.741C64.6614 44.7411 64.246 44.7165 63.8555 44.7657Z" fill="white" stroke="#1A1A1A" stroke-width="0.6" stroke-miterlimit="10"/>
<path d="M65.0742 44.7584L67.2135 51.1107C67.6289 51.1353 68.0443 51.1599 68.4597 51.1845L66.3204 44.8322C65.9781 44.783 65.5627 44.7584 65.0742 44.7584Z" fill="white" stroke="#1A1A1A" stroke-width="0.6" stroke-miterlimit="10"/>
<path d="M66.3906 44.8123L68.5299 51.1645C68.9453 51.1891 69.3607 51.2137 69.7029 51.2629L67.5637 44.9107C67.1234 44.8122 66.7811 44.763 66.3906 44.8123Z" fill="white" stroke="#1A1A1A" stroke-width="0.6" stroke-miterlimit="10"/>
<path d="M67.5703 44.9111L69.7096 51.2634C70.125 51.288 70.4672 51.3372 70.8826 51.3618L68.7434 45.0095C68.328 44.9849 67.9857 44.9357 67.5703 44.9111Z" fill="white" stroke="#1A1A1A" stroke-width="0.6" stroke-miterlimit="10"/>
<path d="M68.7422 45.01L70.8814 51.3623C71.2237 51.4115 71.6391 51.4361 71.9814 51.4853L69.8421 45.133C69.4999 45.0838 69.0845 45.0592 68.7422 45.01Z" fill="white" stroke="#1A1A1A" stroke-width="0.6" stroke-miterlimit="10"/>
<path d="M69.8281 45.1233L71.9674 51.4755C72.3096 51.5248 72.6519 51.574 73.019 51.6971L70.8798 45.3448C70.5126 45.2217 70.1704 45.1725 69.8281 45.1233Z" fill="white" stroke="#1A1A1A" stroke-width="0.6" stroke-miterlimit="10"/>
<path d="M70.8945 45.3523L73.0338 51.7046C73.1318 51.7538 73.2049 51.7292 73.3029 51.7784L71.1637 45.4261C71.0657 45.3769 70.9677 45.3277 70.8945 45.3523Z" fill="white" stroke="#1A1A1A" stroke-width="0.6" stroke-miterlimit="10"/>
<path d="M25.5642 74.4322L27.7034 80.7844C26.2358 76.4265 27.5471 71.1327 32.0587 65.9125C41.1301 55.3736 59.582 48.9951 73.3021 51.7762L71.1628 45.424C57.4677 42.7166 38.9908 49.0213 29.9194 59.5602C25.4078 64.7804 24.0966 70.0742 25.5642 74.4322Z" stroke="#1A1A1A" stroke-width="0.6" stroke-miterlimit="10"/>
<path d="M86.0891 60.9608L83.9498 54.6085C82.4573 50.1767 78.0646 46.8038 71.168 45.4255L73.3072 51.7778C80.2038 53.1561 84.5966 56.5289 86.0891 60.9608Z" fill="white"/>
<path d="M71.1484 45.3596L73.2877 51.7119C73.5568 51.7857 73.8011 51.7857 74.0702 51.8596L71.931 45.5073C71.6867 45.5073 71.4176 45.4335 71.1484 45.3596Z" fill="white" stroke="#1A1A1A" stroke-width="0.6" stroke-miterlimit="10"/>
<path d="M71.9219 45.5045L74.0611 51.8568C74.4034 51.906 74.6974 52.0537 75.0397 52.1029L72.9004 45.7507C72.5582 45.7014 72.2159 45.6522 71.9219 45.5045Z" fill="white" stroke="#1A1A1A" stroke-width="0.6" stroke-miterlimit="10"/>
<path d="M72.9141 45.7479L75.0533 52.1002C75.3956 52.1494 75.6896 52.2971 75.9587 52.371L73.8195 46.0187C73.5503 45.9448 73.2081 45.8956 72.9141 45.7479Z" fill="white" stroke="#1A1A1A" stroke-width="0.6" stroke-miterlimit="10"/>
<path d="M73.8438 46.1056L75.983 52.4579C76.2521 52.5317 76.6193 52.6548 76.8884 52.7286L74.7492 46.3764C74.4552 46.2287 74.186 46.1548 73.8438 46.1056Z" fill="white" stroke="#1A1A1A" stroke-width="0.6" stroke-miterlimit="10"/>
<path d="M74.7383 46.3644L76.8775 52.7166C77.1715 52.8643 77.4407 52.9382 77.7347 53.0859L75.5954 46.7336C75.3014 46.5859 75.0074 46.4382 74.7383 46.3644Z" fill="white" stroke="#1A1A1A" stroke-width="0.6" stroke-miterlimit="10"/>
<path d="M75.6055 46.7373L77.7447 53.0896C78.0387 53.2373 78.3079 53.3111 78.6019 53.4588L76.4626 47.1066C76.2417 46.9342 75.9477 46.7865 75.6055 46.7373Z" fill="white" stroke="#1A1A1A" stroke-width="0.6" stroke-miterlimit="10"/>
<path d="M76.4375 47.041L78.5767 53.3933C78.8708 53.541 79.1648 53.6887 79.4339 53.7625L77.2947 47.4103C77.0255 47.3364 76.7315 47.1887 76.4375 47.041Z" fill="white" stroke="#1A1A1A" stroke-width="0.6" stroke-miterlimit="10"/>
<path d="M77.3203 47.475L79.4596 53.8273C79.7536 53.975 80.0476 54.1227 80.2685 54.295L78.1292 47.9427C77.9083 47.7704 77.6143 47.6227 77.3203 47.475Z" fill="white" stroke="#1A1A1A" stroke-width="0.6" stroke-miterlimit="10"/>
<path d="M78.125 47.9395L80.2643 54.2917C80.5583 54.4394 80.7791 54.6118 81.098 54.8334L78.9588 48.4811C78.713 48.2349 78.419 48.0872 78.125 47.9395Z" fill="white" stroke="#1A1A1A" stroke-width="0.6" stroke-miterlimit="10"/>
<path d="M78.9258 48.4113L81.065 54.7635C81.359 54.9112 81.6048 55.1574 81.8257 55.3298L79.6864 48.9775C79.4656 48.8052 79.2447 48.6328 78.9258 48.4113Z" fill="white" stroke="#1A1A1A" stroke-width="0.6" stroke-miterlimit="10"/>
<path d="M79.7695 48.9513L81.9088 55.3036C82.2277 55.5251 82.4485 55.6975 82.6943 55.9437L80.555 49.5914C80.3342 49.4191 80.0153 49.1975 79.7695 48.9513Z" fill="white" stroke="#1A1A1A" stroke-width="0.6" stroke-miterlimit="10"/>
<path d="M80.5781 49.6737L82.7174 56.026C83.0363 56.2476 83.3069 56.5676 83.5527 56.8138L81.4134 50.4615C81.1428 50.1415 80.8239 49.9199 80.5781 49.6737Z" fill="white" stroke="#1A1A1A" stroke-width="0.6" stroke-miterlimit="10"/>
<path d="M81.4141 50.4653L83.5533 56.8176C83.8239 57.1377 84.0946 57.4577 84.3652 57.7778L82.226 51.4255C81.9553 51.1055 81.6847 50.7854 81.4141 50.4653Z" fill="white" stroke="#1A1A1A" stroke-width="0.6" stroke-miterlimit="10"/>
<path d="M82.2188 51.416L84.358 57.7683C84.6784 58.2361 84.9739 58.63 85.2211 59.1224L83.0819 52.7702C82.8346 52.2777 82.5391 51.8838 82.2188 51.416Z" fill="white" stroke="#1A1A1A" stroke-width="0.6" stroke-miterlimit="10"/>
<path d="M83.0859 52.771L85.2252 59.1233C85.5704 59.6649 85.7943 60.3297 85.9933 60.9206L83.8541 54.5683C83.7282 53.9528 83.4312 53.3127 83.0859 52.771Z" fill="white" stroke="#1A1A1A" stroke-width="0.6" stroke-miterlimit="10"/>
<path d="M86.0891 60.9608L83.9498 54.6085C82.4573 50.1767 78.0646 46.8038 71.168 45.4255L73.3072 51.7778C80.2038 53.1561 84.5966 56.5289 86.0891 60.9608Z" stroke="#1A1A1A" stroke-width="0.6" stroke-miterlimit="10"/>
<path d="M24.9062 74.6593L27.0455 81.0116C28.5629 85.5172 33.0785 89.0132 40.0731 90.4407L37.9339 84.0884C30.9144 82.5871 26.4968 79.1404 24.9062 74.6593Z" fill="white"/>
<path d="M24.9062 74.6593L27.0455 81.0116C28.5629 85.5172 33.0785 89.0132 40.0731 90.4407L37.9339 84.0884C30.9144 82.5871 26.4968 79.1404 24.9062 74.6593Z" fill="white" stroke="#1A1A1A" stroke-width="0.6" stroke-miterlimit="10"/>
<path d="M86.7308 60.7327L84.5915 54.3804C86.084 58.8123 84.7245 64.2046 80.1896 69.5971C70.9485 80.3576 52.0578 86.8839 38.0686 84.0289L40.2078 90.3811C54.1721 93.1623 73.0878 86.7099 82.3288 75.9494C86.8638 70.5568 88.2233 65.1645 86.7308 60.7327Z" fill="#1A1A1A" stroke="#1A1A1A" stroke-width="0.6"/>
<path d="M86.7308 60.7327L84.5915 54.3804C86.084 58.8123 84.7245 64.2046 80.1896 69.5971C70.9485 80.3576 52.0578 86.8839 38.0686 84.0289L40.2078 90.3811C54.1721 93.1623 73.0878 86.7099 82.3288 75.9494C86.8638 70.5568 88.2233 65.1645 86.7308 60.7327Z" stroke="#1A1A1A" stroke-width="0.6" stroke-miterlimit="10"/>
<path d="M80.1094 69.5594C89.3504 58.799 85.4729 47.7687 71.5086 44.9875C57.5443 42.2063 38.6287 48.6588 29.3877 59.4193C20.1466 70.1797 24.0241 81.21 37.9884 83.9912C51.9776 86.8462 70.8683 80.3199 80.1094 69.5594Z" fill="white" stroke="#1A1A1A" stroke-width="0.6" stroke-miterlimit="10"/>
<ellipse cx="54.3632" cy="63.2748" rx="25.485" ry="14.945" transform="rotate(-18.61 54.3632 63.2748)" fill="#7246EE"/>
<path fill-rule="evenodd" clip-rule="evenodd" d="M40.5375 62.148L35.707 63.7745L52.2346 72.9274L54.7762 67.1655L51.4707 65.3349L51.2166 65.9111L50.4541 67.6397L48.8013 66.7244L40.5375 62.148ZM51.9791 64.1825L53.6318 65.0978L55.2846 66.0131L57.7637 67.386L61.8956 69.6743L69.5205 52.3885L64.69 54.0151L60.8775 62.658L60.1151 64.3865L58.4623 63.4712L56.8095 62.556L53.504 60.7254L50.1985 58.8948L45.368 60.5214L51.9791 64.1825ZM59.8595 55.6416L57.3179 61.4036L54.0124 59.573L55.029 57.2682L59.8595 55.6416Z" fill="white"/>
</svg>
