<svg width="148" height="148" viewBox="0 0 148 148" fill="none" xmlns="http://www.w3.org/2000/svg">
<g clip-path="url(#clip0_62_92352)">
<path d="M135.274 107.935C136.242 108.49 136.242 109.374 135.295 109.929L75.9451 144.358C74.9978 144.913 73.4533 144.913 72.4854 144.358L12.7441 109.929C11.7762 109.374 11.7762 108.49 12.7235 107.935L72.0735 73.5061C73.0208 72.9511 74.5653 72.9511 75.5332 73.5061L135.274 107.935Z" fill="white" stroke="black" stroke-width="0.6" stroke-miterlimit="10"/>
<path d="M135.272 109.929L75.9219 144.358V147.4L135.272 112.971C135.745 112.704 135.972 112.334 135.993 111.984V108.942C135.993 109.292 135.745 109.662 135.272 109.929Z" fill="black" stroke="black" stroke-width="0.6" stroke-miterlimit="10"/>
<path d="M72.462 144.358L12.7208 109.929V109.95C12.6796 109.929 12.659 109.908 12.6178 109.888L12.5972 109.867C12.5766 109.847 12.556 109.847 12.5354 109.826C12.5148 109.826 12.5148 109.806 12.4942 109.806C12.4736 109.785 12.4531 109.785 12.4531 109.765C12.4325 109.765 12.4325 109.744 12.4325 109.744C12.4187 109.73 12.405 109.717 12.3913 109.703C12.3707 109.703 12.3707 109.682 12.3501 109.682L12.3295 109.662C12.3158 109.648 12.302 109.634 12.2883 109.621L12.2677 109.6C12.2471 109.58 12.2265 109.559 12.2265 109.539V109.518C12.2128 109.504 12.1991 109.491 12.1853 109.477C12.1647 109.456 12.1442 109.436 12.1236 109.395C12.103 109.374 12.103 109.354 12.0824 109.312C12.0824 109.312 12.0824 109.292 12.0618 109.292C12.0618 109.271 12.0412 109.251 12.0412 109.23V109.21C12.0412 109.189 12.0206 109.169 12.0206 109.148V109.127C12.0206 109.107 12 109.066 12 109.045V108.922V112.108C12 112.128 12 112.169 12.0206 112.19V112.211C12.0206 112.231 12.0412 112.252 12.0412 112.272V112.293C12.0412 112.313 12.0618 112.334 12.0618 112.354V112.375C12.0824 112.396 12.0824 112.416 12.103 112.457C12.1236 112.478 12.1442 112.519 12.1647 112.539C12.1647 112.56 12.1853 112.56 12.1853 112.581V112.601C12.2059 112.622 12.2265 112.642 12.2265 112.663L12.2471 112.683C12.2608 112.697 12.2746 112.711 12.2883 112.724L12.3089 112.745L12.3295 112.766C12.3295 112.766 12.3501 112.766 12.3501 112.786C12.3638 112.8 12.3775 112.814 12.3913 112.827L12.4119 112.848C12.4325 112.868 12.4531 112.868 12.4531 112.889C12.4736 112.889 12.4736 112.909 12.4942 112.909C12.5148 112.93 12.5354 112.93 12.556 112.951L12.5766 112.971C12.5972 112.992 12.6384 113.012 12.6796 113.033V113.012L72.4208 147.441L72.462 144.358Z" fill="#7246EE" stroke="black" stroke-width="0.6" stroke-miterlimit="10"/>
<path d="M75.6969 147.502C75.7175 147.502 75.7175 147.482 75.7381 147.482C75.7587 147.482 75.7793 147.461 75.7999 147.441C75.8136 147.441 75.8274 147.434 75.8411 147.42C75.8617 147.4 75.9029 147.379 75.9235 147.379V144.337C75.9029 144.357 75.8617 144.378 75.8411 144.378C75.8411 144.378 75.8205 144.378 75.8205 144.399C75.7999 144.419 75.7793 144.419 75.7587 144.44C75.7381 144.44 75.7381 144.46 75.7175 144.46C75.6969 144.46 75.6763 144.481 75.6557 144.481C75.6352 144.481 75.6352 144.501 75.6146 144.501C75.594 144.501 75.5734 144.522 75.5528 144.522C75.5116 144.542 75.4498 144.563 75.4086 144.584C75.3949 144.584 75.3812 144.59 75.3674 144.604C75.3263 144.625 75.2645 144.625 75.2233 144.645H75.2027C75.1615 144.645 75.1409 144.666 75.0997 144.666H75.0585C75.0174 144.666 74.9762 144.686 74.935 144.686H74.9144C74.8732 144.686 74.832 144.707 74.7908 144.707H74.7496C74.7085 144.707 74.6879 144.707 74.6467 144.727H73.9877C73.9259 144.727 73.8847 144.727 73.8229 144.707H73.7818C73.72 144.707 73.6788 144.686 73.617 144.686C73.5758 144.686 73.5346 144.666 73.4934 144.666H73.4523C73.4317 144.666 73.3905 144.645 73.3699 144.645H73.3287C73.3081 144.645 73.2669 144.625 73.2463 144.625C73.2257 144.625 73.2257 144.625 73.2051 144.604C73.1845 144.604 73.1434 144.584 73.1228 144.584H73.0816C73.0404 144.563 72.9786 144.563 72.9374 144.542C72.9237 144.542 72.91 144.536 72.8962 144.522C72.8551 144.501 72.8139 144.481 72.7727 144.481H72.7521C72.7109 144.46 72.6697 144.44 72.6285 144.419C72.6285 144.419 72.6079 144.419 72.6079 144.399C72.5667 144.378 72.5256 144.357 72.4844 144.337V147.379C72.5256 147.4 72.5667 147.42 72.6079 147.441C72.6079 147.441 72.6285 147.441 72.6285 147.461C72.6697 147.482 72.7109 147.502 72.7521 147.523H72.7727C72.8139 147.543 72.8551 147.564 72.8962 147.564C72.91 147.564 72.9237 147.571 72.9374 147.585C72.9786 147.605 73.0404 147.626 73.0816 147.626H73.1022C73.1228 147.626 73.164 147.646 73.1845 147.646C73.2051 147.646 73.2051 147.646 73.2257 147.667C73.2463 147.667 73.2875 147.687 73.3081 147.687H73.3493C73.3699 147.687 73.4111 147.708 73.4317 147.708H73.4729C73.514 147.708 73.5552 147.728 73.5964 147.728C73.6376 147.728 73.6994 147.749 73.7612 147.749H73.8023C73.8641 147.749 73.9053 147.749 73.9671 147.77H74.6055C74.6467 147.77 74.6673 147.77 74.7085 147.749H74.7496C74.7908 147.749 74.832 147.728 74.8732 147.728H74.8938C74.935 147.728 74.9762 147.708 75.0174 147.708H75.0585C75.0997 147.708 75.1409 147.687 75.1615 147.687H75.1821C75.2233 147.667 75.2851 147.667 75.3263 147.646C75.34 147.646 75.3537 147.639 75.3674 147.626C75.4086 147.605 75.4704 147.585 75.5116 147.564C75.5322 147.564 75.5528 147.543 75.5734 147.543C75.594 147.543 75.594 147.523 75.6146 147.523C75.6557 147.523 75.6763 147.523 75.6969 147.502Z" fill="#7246EE" stroke="black" stroke-width="0.6" stroke-miterlimit="10"/>
<path d="M94.7842 117.103C95.6007 117.552 95.6007 118.351 94.7842 118.8L90.9058 120.996C90.0893 121.446 88.7114 121.446 87.8949 120.996L51.0499 100.183C50.2334 99.7339 50.2334 98.9354 51.0499 98.4862L54.9283 96.29C55.7448 95.8408 57.1227 95.8408 57.9392 96.29L94.7842 117.103ZM90.6507 120.946L94.5291 118.75C95.2435 118.351 95.2435 117.702 94.5291 117.303L57.684 96.4897C56.9696 96.0904 55.7958 96.0904 55.0814 96.4897L51.203 98.6858C50.4885 99.0851 50.4885 99.734 51.203 100.133L88.048 120.946C88.7625 121.346 89.9362 121.346 90.6507 120.946Z" fill="black"/>
<path d="M94.854 117.339C95.5775 117.744 95.5775 118.401 94.854 118.805L90.9266 121.03C90.2031 121.434 89.0145 121.434 88.291 121.03L50.9801 99.9472C50.2566 99.5427 50.2566 98.8855 50.9801 98.481L54.9076 96.2565C55.631 95.852 56.8196 95.852 57.5431 96.2565L94.854 117.339Z" fill="black"/>
<path d="M81.0703 64.1379L84.1395 62.3145L93.3469 111.328L90.2047 113.152L81.0703 64.1379Z" fill="white" stroke="black" stroke-width="0.6" stroke-miterlimit="10"/>
<path d="M52.8633 55.8234L56.0055 54L84.1394 62.3149L81.0703 64.1383L52.8633 55.8234Z" fill="white" stroke="black" stroke-width="0.6" stroke-miterlimit="10"/>
<path d="M81.0703 64.1391L90.2047 113.153L62.0708 104.765L52.8633 55.8242L81.0703 64.1391Z" fill="white" stroke="black" stroke-width="0.6" stroke-miterlimit="10"/>
<path d="M68.2224 92.5803L68.2224 92.5804L68.2279 92.5844C70.3282 94.1392 72.6053 94.5853 74.584 93.9526C76.5636 93.3197 78.1459 91.6385 78.9194 89.1403C79.7011 86.681 79.562 83.8277 78.7334 81.2094C77.9046 78.5901 76.371 76.159 74.3072 74.5613L74.3073 74.5612L74.2986 74.5548C72.1983 73 69.9212 72.5539 67.9425 73.1866C65.9623 73.8197 64.3797 75.5016 63.6065 78.0008C62.8362 80.4907 62.9796 83.3593 63.8085 85.9786C64.6372 88.5975 66.1661 91.0141 68.2224 92.5803ZM66.288 79.6154L66.288 79.6154L66.2895 79.6105C66.8118 77.9153 67.8442 76.8825 69.0291 76.5095C70.2141 76.1365 71.6539 76.3912 73.0572 77.4803L73.0572 77.4804L73.0613 77.4835C74.4597 78.5458 75.531 80.2049 76.1153 82.0513C76.6994 83.8974 76.7831 85.8877 76.2575 87.5937C75.7354 89.2885 74.7026 90.323 73.5177 90.7037C72.333 91.0843 70.8989 90.8428 69.5083 89.7872C68.098 88.6918 67.0161 86.9992 66.4267 85.1366C65.8368 83.2727 65.7548 81.2848 66.288 79.6154Z" fill="#7246EE" stroke="#7246EE"/>
<path fill-rule="evenodd" clip-rule="evenodd" d="M59.0853 27.8633H57.3454V31.2098H54V32.9497H57.3454V36.2951H59.0853V32.9497H62.4318V31.2098H59.0853V27.8633Z" fill="#7246EE" fill-opacity="0.6"/>
<path fill-rule="evenodd" clip-rule="evenodd" d="M81.7403 11H79.2547V15.7807H74.4766V18.2663H79.2547V23.0455H81.7403V18.2663H86.522V15.7807H81.7403V11Z" fill="#7246EE"/>
<path fill-rule="evenodd" clip-rule="evenodd" d="M96.176 36.2949H94.9332V38.6853H92.543V39.9281H94.9332V42.3176H96.176V39.9281H98.5657V38.6853H96.176V36.2949Z" fill="#7246EE" fill-opacity="0.4"/>
</g>
<defs>
<clipPath id="clip0_62_92352">
<rect width="148" height="148" fill="white"/>
</clipPath>
</defs>
</svg>
