<svg width="52" height="52" viewBox="0 0 52 52" fill="none" xmlns="http://www.w3.org/2000/svg">
<rect x="7.14062" y="42.5813" width="7.13305" height="3.82688" rx="1.31253" fill="#192242"/>
<rect x="37.0166" y="42.5813" width="7.13305" height="3.82688" rx="1.31253" fill="#192242"/>
<g filter="url(#filter0_i_80_1685)">
<path d="M1.63281 9.47201C1.63281 7.65978 3.10191 6.19067 4.91414 6.19067H46.3754C48.1876 6.19067 49.6567 7.65978 49.6567 9.472V40.5036C49.6567 42.3159 48.1876 43.785 46.3754 43.785H4.91414C3.10191 43.785 1.63281 42.3159 1.63281 40.5036V9.47201Z" fill="#34495E"/>
<path d="M1.63281 9.47201C1.63281 7.65978 3.10191 6.19067 4.91414 6.19067H46.3754C48.1876 6.19067 49.6567 7.65978 49.6567 9.472V40.5036C49.6567 42.3159 48.1876 43.785 46.3754 43.785H4.91414C3.10191 43.785 1.63281 42.3159 1.63281 40.5036V9.47201Z" fill="url(#paint0_linear_80_1685)" fill-opacity="0.5"/>
</g>
<g opacity="0.5">
<path d="M26.5919 35.7824C31.0753 31.299 31.0753 24.0301 26.5919 19.5467C22.1085 15.0633 14.8395 15.0633 10.3562 19.5467C5.87278 24.0301 5.87278 31.299 10.3562 35.7824C14.8395 40.2658 22.1085 40.2658 26.5919 35.7824Z" stroke="#192142" stroke-width="2.62506"/>
<path fill-rule="evenodd" clip-rule="evenodd" d="M9.85637 19.0452C10.3689 18.5327 11.2 18.5327 11.7126 19.0452L16.1629 23.4956C15.7832 23.7062 15.4261 23.9727 15.1038 24.2951C14.7823 24.6165 14.5164 24.9725 14.306 25.3511L9.85637 20.9014C9.34379 20.3889 9.34379 19.5578 9.85637 19.0452ZM14.3055 29.9769L9.85578 34.4266C9.3432 34.9392 9.3432 35.7702 9.85578 36.2828C10.3684 36.7954 11.1994 36.7954 11.712 36.2828L16.162 31.8328C15.7826 31.6222 15.4259 31.3559 15.1038 31.0338C14.7821 30.712 14.516 30.3558 14.3055 29.9769ZM20.7865 31.8316L25.2377 36.2828C25.7503 36.7954 26.5813 36.7954 27.0939 36.2828C27.6065 35.7702 27.6065 34.9392 27.0939 34.4266L22.642 29.9747C22.4313 30.3544 22.1648 30.7114 21.8425 31.0338C21.521 31.3552 21.165 31.6212 20.7865 31.8316ZM22.6415 25.3533L27.0933 20.9014C27.6059 20.3889 27.6059 19.5578 27.0933 19.0452C26.5807 18.5327 25.7497 18.5327 25.2371 19.0452L20.7856 23.4968C21.1645 23.7073 21.5207 23.9734 21.8425 24.2951C22.1646 24.6172 22.4309 24.9739 22.6415 25.3533Z" fill="#192142"/>
<path d="M21.2632 30.4544C22.8041 28.9136 22.8041 26.4155 21.2632 24.8747C19.7224 23.3338 17.2243 23.3338 15.6834 24.8747C14.1426 26.4155 14.1426 28.9136 15.6834 30.4544C17.2243 31.9953 19.7224 31.9953 21.2632 30.4544Z" stroke="#192142" stroke-width="2.62506"/>
</g>
<g filter="url(#filter1_i_80_1685)">
<path d="M26.5919 33.3064C31.0753 28.823 31.0753 21.554 26.5919 17.0706C22.1085 12.5872 14.8395 12.5872 10.3562 17.0706C5.87278 21.554 5.87278 28.823 10.3562 33.3064C14.8395 37.7897 22.1085 37.7897 26.5919 33.3064Z" stroke="#9CA8B0" stroke-width="2.62506"/>
<path fill-rule="evenodd" clip-rule="evenodd" d="M9.85637 16.5697C10.3689 16.0571 11.2 16.0571 11.7126 16.5697L16.1627 21.0198C15.7831 21.2305 15.4261 21.497 15.1038 21.8193C14.7823 22.1408 14.5163 22.4968 14.3059 22.8754L9.85637 18.4259C9.34379 17.9133 9.34379 17.0822 9.85637 16.5697ZM14.3056 27.5012L9.85578 31.951C9.3432 32.4636 9.3432 33.2946 9.85578 33.8072C10.3684 34.3198 11.1994 34.3198 11.712 33.8072L16.1621 29.357C15.7827 29.1464 15.4259 28.8801 15.1038 28.5579C14.7821 28.2363 14.516 27.88 14.3056 27.5012ZM20.7863 29.3558L25.2377 33.8072C25.7503 34.3198 26.5813 34.3198 27.0939 33.8072C27.6065 33.2946 27.6065 32.4636 27.0939 31.951L22.6419 27.499C22.4312 27.8787 22.1648 28.2356 21.8425 28.5579C21.521 28.8794 21.1649 29.1454 20.7863 29.3558ZM22.6416 22.8776L27.0933 18.4259C27.6059 17.9133 27.6059 17.0822 27.0933 16.5697C26.5807 16.0571 25.7497 16.0571 25.2371 16.5697L20.7857 21.021C21.1646 21.2315 21.5208 21.4976 21.8425 21.8193C22.1646 22.1414 22.431 22.4982 22.6416 22.8776Z" fill="#9CA8B0"/>
<path d="M21.2632 27.9786C22.8041 26.4378 22.8041 23.9396 21.2632 22.3988C19.7224 20.858 17.2243 20.858 15.6834 22.3988C14.1426 23.9396 14.1426 26.4378 15.6834 27.9786C17.2243 29.5194 19.7224 29.5194 21.2632 27.9786Z" stroke="#9CA8B0" stroke-width="2.62506"/>
</g>
<g style="mix-blend-mode:multiply">
<path d="M41.7427 17.2489C43.5471 17.2489 45.0099 15.7861 45.0099 13.9817C45.0099 12.1774 43.5471 10.7146 41.7427 10.7146C39.9383 10.7146 38.4756 12.1774 38.4756 13.9817C38.4756 15.7861 39.9383 17.2489 41.7427 17.2489Z" fill="#6C7D88"/>
</g>
<g style="mix-blend-mode:multiply">
<path d="M41.7427 40.319C43.5471 40.319 45.0099 38.8562 45.0099 37.0518C45.0099 35.2474 43.5471 33.7847 41.7427 33.7847C39.9383 33.7847 38.4756 35.2474 38.4756 37.0518C38.4756 38.8562 39.9383 40.319 41.7427 40.319Z" fill="#6C7D88"/>
</g>
<path d="M41.7432 14.6133L41.7432 36.1326" stroke="url(#paint1_linear_80_1685)" stroke-width="2.62506" stroke-linecap="round"/>
<defs>
<filter id="filter0_i_80_1685" x="1.63281" y="6.19067" width="48.0234" height="37.5942" filterUnits="userSpaceOnUse" color-interpolation-filters="sRGB">
<feFlood flood-opacity="0" result="BackgroundImageFix"/>
<feBlend mode="normal" in="SourceGraphic" in2="BackgroundImageFix" result="shape"/>
<feColorMatrix in="SourceAlpha" type="matrix" values="0 0 0 0 0 0 0 0 0 0 0 0 0 0 0 0 0 0 127 0" result="hardAlpha"/>
<feOffset dy="1.2381"/>
<feComposite in2="hardAlpha" operator="arithmetic" k2="-1" k3="1"/>
<feColorMatrix type="matrix" values="0 0 0 0 1 0 0 0 0 1 0 0 0 0 1 0 0 0 0.25 0"/>
<feBlend mode="normal" in2="shape" result="effect1_innerShadow_80_1685"/>
</filter>
<filter id="filter1_i_80_1685" x="5.68066" y="12.3955" width="25.5859" height="26.824" filterUnits="userSpaceOnUse" color-interpolation-filters="sRGB">
<feFlood flood-opacity="0" result="BackgroundImageFix"/>
<feBlend mode="normal" in="SourceGraphic" in2="BackgroundImageFix" result="shape"/>
<feColorMatrix in="SourceAlpha" type="matrix" values="0 0 0 0 0 0 0 0 0 0 0 0 0 0 0 0 0 0 127 0" result="hardAlpha"/>
<feOffset dy="1.2381"/>
<feGaussianBlur stdDeviation="0.619048"/>
<feComposite in2="hardAlpha" operator="arithmetic" k2="-1" k3="1"/>
<feColorMatrix type="matrix" values="0 0 0 0 1 0 0 0 0 1 0 0 0 0 1 0 0 0 1 0"/>
<feBlend mode="normal" in2="shape" result="effect1_innerShadow_80_1685"/>
</filter>
<linearGradient id="paint0_linear_80_1685" x1="1.63281" y1="43.785" x2="49.6567" y2="43.785" gradientUnits="userSpaceOnUse">
<stop stop-color="#406C99"/>
<stop offset="1" stop-color="#43349A"/>
</linearGradient>
<linearGradient id="paint1_linear_80_1685" x1="42.2432" y1="14.6133" x2="42.2432" y2="36.1326" gradientUnits="userSpaceOnUse">
<stop stop-color="#BEC4C8"/>
<stop offset="1" stop-color="#BEC4C8"/>
</linearGradient>
</defs>
</svg>
