<svg width="20" height="20" viewBox="0 0 20 20" fill="none" xmlns="http://www.w3.org/2000/svg">
<path d="M3.97306 13.205V3.58955L4.61409 2.94852H5.89614L7.17819 2.30749L11.0244 3.58955L13.5885 4.23058H16.7936V13.205L15.5115 13.846L13.5885 14.487L11.0244 13.205L7.17819 11.9229L3.97306 13.205Z" fill="#7246EE" class="dao-color" />
<path fill-rule="evenodd" clip-rule="evenodd" d="M13.5525 3.8867C14.4306 3.98772 15.3492 3.79987 16.383 2.93765C16.5741 2.7783 16.8401 2.74388 17.0654 2.84936C17.2907 2.95483 17.4346 3.18114 17.4346 3.42992V13.1508C17.4346 13.341 17.3502 13.5213 17.2042 13.6431C15.907 14.725 14.6403 15.0232 13.4059 14.8812C12.2429 14.7474 11.1411 14.2222 10.155 13.7521L10.1075 13.7295C9.06605 13.2331 8.14499 12.8011 7.2142 12.694C6.40184 12.6006 5.55484 12.7543 4.61409 13.4605V17.6921C4.61409 18.0462 4.32709 18.3332 3.97306 18.3332C3.61903 18.3332 3.33203 18.0462 3.33203 17.6921V3.42997C3.33203 3.23982 3.41645 3.05949 3.56247 2.93769C4.8597 1.85574 6.12639 1.55754 7.36072 1.69954C8.52371 1.83332 9.62559 2.35859 10.6117 2.82867C10.6275 2.83622 10.6433 2.84376 10.6591 2.85128C11.7006 3.34765 12.6217 3.77963 13.5525 3.8867ZM4.61409 11.9428C5.54631 11.4469 6.46209 11.317 7.36072 11.4204C8.52372 11.5542 9.62559 12.0795 10.6117 12.5495C10.6275 12.5571 10.6433 12.5646 10.6591 12.5721C11.7006 13.0685 12.6217 13.5005 13.5525 13.6076C14.3648 13.701 15.2118 13.5473 16.1526 12.8411V4.63797C15.2203 5.1338 14.3046 5.26373 13.4059 5.16036C12.2429 5.02657 11.1411 4.5013 10.155 4.03122C10.1391 4.02367 10.1233 4.01614 10.1075 4.00861C9.06605 3.51225 8.145 3.08027 7.2142 2.97319C6.40184 2.87974 5.55484 3.0335 4.61409 3.73965V11.9428Z" fill="#7246EE"/>
</svg>
