<svg width="20" height="15" viewBox="0 0 20 15" fill="none" xmlns="http://www.w3.org/2000/svg">
<path d="M16.9419 1.25623C15.6279 0.660909 14.2407 0.238571 12.8158 0C12.6208 0.344938 12.4444 0.699833 12.2872 1.0632C10.7694 0.836865 9.22585 0.836865 7.70802 1.0632C7.55081 0.699871 7.37438 0.34498 7.17947 0C5.75362 0.240585 4.36551 0.663926 3.05017 1.25934C0.438871 5.0825 -0.26901 8.81071 0.0849306 12.486C1.61417 13.6041 3.32582 14.4544 5.14549 15C5.55523 14.4547 5.91779 13.8761 6.22934 13.2705C5.6376 13.0518 5.06647 12.782 4.52256 12.4642C4.66571 12.3615 4.80571 12.2556 4.94099 12.1529C6.52365 12.8894 8.25105 13.2713 9.99998 13.2713C11.7489 13.2713 13.4763 12.8894 15.059 12.1529C15.1958 12.2634 15.3358 12.3692 15.4774 12.4642C14.9324 12.7825 14.3603 13.0529 13.7675 13.2721C14.0786 13.8774 14.4412 14.4555 14.8513 15C16.6725 14.4566 18.3855 13.6067 19.915 12.4875C20.3303 8.2254 19.2056 4.53144 16.9419 1.25623ZM6.67766 10.2257C5.69135 10.2257 4.8765 9.33997 4.8765 8.25031C4.8765 7.16065 5.66303 6.26712 6.67452 6.26712C7.686 6.26712 8.49456 7.16065 8.47725 8.25031C8.45995 9.33997 7.68285 10.2257 6.67766 10.2257ZM13.3223 10.2257C12.3344 10.2257 11.5227 9.33997 11.5227 8.25031C11.5227 7.16065 12.3092 6.26712 13.3223 6.26712C14.3354 6.26712 15.1376 7.16065 15.1203 8.25031C15.103 9.33997 14.3275 10.2257 13.3223 10.2257Z" fill="#5865F2"/>
</svg>
