<svg width="1em" height="1em" viewBox="0 0 20 20" fill="none" xmlns="http://www.w3.org/2000/svg">
<path d="M3.97306 13.2054V3.59004L4.61409 2.94901H5.89614L7.17819 2.30798L11.0244 3.59004L13.5885 4.23106H16.7936V13.2054L15.5115 13.8465L13.5885 14.4875L11.0244 13.2054L7.17819 11.9234L3.97306 13.2054Z" fill="#7246EE"/>
<path fill-rule="evenodd" clip-rule="evenodd" d="M13.5525 3.88719C14.4306 3.98821 15.3492 3.80036 16.383 2.93813C16.5741 2.77879 16.8401 2.74437 17.0654 2.84985C17.2907 2.95532 17.4346 3.18163 17.4346 3.43041V13.1513C17.4346 13.3415 17.3502 13.5218 17.2042 13.6436C15.907 14.7255 14.6403 15.0237 13.4059 14.8817C12.2429 14.7479 11.1411 14.2227 10.155 13.7526L10.1075 13.73C9.06605 13.2336 8.14499 12.8016 7.2142 12.6945C6.40184 12.6011 5.55484 12.7548 4.61409 13.461V17.6926C4.61409 18.0467 4.32709 18.3337 3.97306 18.3337C3.61903 18.3337 3.33203 18.0467 3.33203 17.6926V3.43046C3.33203 3.24031 3.41645 3.05997 3.56247 2.93818C4.8597 1.85623 6.12639 1.55803 7.36072 1.70002C8.52371 1.83381 9.62559 2.35908 10.6117 2.82916C10.6275 2.83671 10.6433 2.84425 10.6591 2.85177C11.7006 3.34814 12.6217 3.78012 13.5525 3.88719ZM4.61409 11.9433C5.54631 11.4474 6.46209 11.3175 7.36072 11.4209C8.52372 11.5547 9.62559 12.0799 10.6117 12.55C10.6275 12.5576 10.6433 12.5651 10.6591 12.5726C11.7006 13.069 12.6217 13.501 13.5525 13.6081C14.3648 13.7015 15.2118 13.5478 16.1526 12.8416V4.63846C15.2203 5.13428 14.3046 5.26422 13.4059 5.16085C12.2429 5.02706 11.1411 4.50179 10.155 4.03171C10.1391 4.02416 10.1233 4.01662 10.1075 4.0091C9.06605 3.51273 8.145 3.08075 7.2142 2.97368C6.40184 2.88023 5.55484 3.03399 4.61409 3.74014V11.9433Z" fill="#7246EE"/>
</svg>
