<svg width="106" height="106" viewBox="0 0 106 106" fill="none" xmlns="http://www.w3.org/2000/svg">
<path fill-rule="evenodd" clip-rule="evenodd" d="M37.608 37.3408H35.8681V40.6873H32.5227V42.4272H35.8681V45.7726H37.608V42.4272H40.9545V40.6873H37.608V37.3408Z" fill="#7246EE" fill-opacity="0.6"/>
<path fill-rule="evenodd" clip-rule="evenodd" d="M60.2638 20.4773H57.7782V25.258H53V27.7436H57.7782V32.5227H60.2638V27.7436H65.0455V25.258H60.2638V20.4773Z" fill="#7246EE"/>
<path fill-rule="evenodd" clip-rule="evenodd" d="M74.7013 45.7727H73.4585V48.163H71.0682V49.4058H73.4585V51.7954H74.7013V49.4058H77.091V48.163H74.7013V45.7727Z" fill="#7246EE" fill-opacity="0.4"/>
<path d="M25.5611 74.4322L27.7004 80.7844C26.2327 76.4265 27.544 71.1327 32.0556 65.9125C41.127 55.3736 59.579 48.9951 73.299 51.7762L71.1598 45.424C57.4646 42.7166 38.9878 49.0213 29.9164 59.5602C25.4048 64.7804 24.0935 70.0742 25.5611 74.4322Z" fill="white"/>
<path d="M25.5615 74.4352L27.7008 80.7875C27.1535 79.1625 26.947 77.3405 27.2773 75.4199L25.1381 69.0677C24.8809 70.9636 24.9894 72.7363 25.5615 74.4352Z" fill="white" stroke="#1A1A1A" stroke-width="0.6" stroke-miterlimit="10"/>
<path d="M25.1357 69.0638L27.275 75.4161C27.3451 74.899 27.4635 74.2835 27.6068 73.7418L25.4675 67.3895C25.3242 67.9312 25.2058 68.5467 25.1357 69.0638Z" fill="white" stroke="#1A1A1A" stroke-width="0.6" stroke-miterlimit="10"/>
<path d="M25.4614 67.3854L27.6007 73.7377C27.6957 73.2945 27.8887 72.9005 27.9837 72.4573L25.8445 66.105C25.7494 66.5482 25.5564 66.9422 25.4614 67.3854Z" fill="white" stroke="#1A1A1A" stroke-width="0.6" stroke-miterlimit="10"/>
<path d="M25.9196 66.0812L28.0588 72.4335C28.1787 72.0641 28.3717 71.6702 28.4916 71.3008L26.3524 64.9485C26.1594 65.3425 26.0395 65.7119 25.9196 66.0812Z" fill="white" stroke="#1A1A1A" stroke-width="0.6" stroke-miterlimit="10"/>
<path d="M26.3511 64.9578L28.4904 71.31C28.6103 70.9407 28.8282 70.6206 29.0212 70.2266L26.8819 63.8744C26.6889 64.2683 26.4959 64.6623 26.3511 64.9578Z" fill="white" stroke="#1A1A1A" stroke-width="0.6" stroke-miterlimit="10"/>
<path d="M26.9025 63.9421L29.0417 70.2944C29.1865 69.9989 29.4044 69.6788 29.6223 69.3587L27.483 63.0064C27.1671 63.2773 27.0224 63.5728 26.9025 63.9421Z" fill="white" stroke="#1A1A1A" stroke-width="0.6" stroke-miterlimit="10"/>
<path d="M27.3911 62.9538L29.5304 69.3061C29.6751 69.0106 29.893 68.6905 30.1109 68.3704L27.9717 62.0182C27.7786 62.4121 27.609 62.6337 27.3911 62.9538Z" fill="white" stroke="#1A1A1A" stroke-width="0.6" stroke-miterlimit="10"/>
<path d="M27.9964 62.0882L30.1356 68.4405C30.3535 68.1204 30.5231 67.8988 30.741 67.5787L28.6018 61.2264C28.359 61.4727 28.1411 61.7928 27.9964 62.0882Z" fill="white" stroke="#1A1A1A" stroke-width="0.6" stroke-miterlimit="10"/>
<path d="M28.6047 61.2309L30.7439 67.5832C30.9618 67.2631 31.1314 67.0415 31.3742 66.7952L29.235 60.443C28.9922 60.6892 28.7494 60.9354 28.6047 61.2309Z" fill="white" stroke="#1A1A1A" stroke-width="0.6" stroke-miterlimit="10"/>
<path d="M29.2059 60.3791L31.3451 66.7314C31.5879 66.4852 31.8058 66.165 32.0485 65.9188L29.9093 59.5665C29.5934 59.8374 29.4486 60.1329 29.2059 60.3791Z" fill="white" stroke="#1A1A1A" stroke-width="0.6" stroke-miterlimit="10"/>
<path d="M29.8431 59.5819L31.9824 65.9341L32.0555 65.9095C32.2983 65.6633 32.4679 65.4417 32.7107 65.1954L30.5714 58.8431C30.3038 59.0155 30.1341 59.2371 29.8431 59.5819C29.8919 59.5654 29.8919 59.5654 29.8431 59.5819Z" fill="white"/>
<path d="M29.8431 59.5819L31.9824 65.9341L32.0555 65.9095C32.2983 65.6633 32.4679 65.4417 32.7107 65.1954L30.5714 58.8431C30.3038 59.0155 30.1341 59.2371 29.8431 59.5819C29.8919 59.5654 29.8919 59.5654 29.8431 59.5819" stroke="#1A1A1A" stroke-width="0.6" stroke-miterlimit="10"/>
<path d="M30.5504 58.7679L32.6896 65.1201C32.9324 64.8739 33.1751 64.6277 33.4179 64.3815L31.2787 58.0292C31.0359 58.2754 30.7931 58.5217 30.5504 58.7679Z" fill="white" stroke="#1A1A1A" stroke-width="0.6" stroke-miterlimit="10"/>
<path d="M31.264 58.0374L33.4032 64.3897C33.646 64.1435 33.8888 63.8972 34.1316 63.651L31.9923 57.2987C31.8227 57.5203 31.5068 57.7912 31.264 58.0374Z" fill="white" stroke="#1A1A1A" stroke-width="0.6" stroke-miterlimit="10"/>
<path d="M32.0644 57.2691L34.2037 63.6214C34.4464 63.3752 34.6892 63.1289 35.0051 62.8581L32.8658 56.5058C32.5499 56.7766 32.3072 57.0229 32.0644 57.2691Z" fill="white" stroke="#1A1A1A" stroke-width="0.6" stroke-miterlimit="10"/>
<path d="M32.7981 56.5329L34.9373 62.8852C35.1801 62.6389 35.496 62.3681 35.7637 62.1957L33.6244 55.8434C33.3816 56.0896 33.114 56.262 32.7981 56.5329Z" fill="white" stroke="#1A1A1A" stroke-width="0.6" stroke-miterlimit="10"/>
<path d="M33.6982 55.8178L35.8375 62.1701C36.0802 61.9238 36.421 61.7268 36.7369 61.456L34.5977 55.1037C34.2569 55.3007 33.941 55.5716 33.6982 55.8178Z" fill="white" stroke="#1A1A1A" stroke-width="0.6" stroke-miterlimit="10"/>
<path d="M34.534 55.141L36.6733 61.4933C36.9892 61.2225 37.2568 61.0501 37.5727 60.7792L35.4335 54.4269C35.1907 54.6732 34.8499 54.8702 34.534 55.141Z" fill="white" stroke="#1A1A1A" stroke-width="0.6" stroke-miterlimit="10"/>
<path d="M35.508 54.3801L37.6473 60.7323C37.9632 60.4615 38.304 60.2645 38.6199 59.9936L36.4806 53.6413C36.0916 53.9368 35.7508 54.1338 35.508 54.3801Z" fill="white" stroke="#1A1A1A" stroke-width="0.6" stroke-miterlimit="10"/>
<path d="M36.4025 53.6746L38.5417 60.0269C38.8825 59.8299 39.1984 59.559 39.5392 59.362L37.3999 53.0097C37.084 53.2806 36.7432 53.4776 36.4025 53.6746Z" fill="white" stroke="#1A1A1A" stroke-width="0.6" stroke-miterlimit="10"/>
<path d="M37.3989 53.0132L39.5382 59.3655C39.879 59.1685 40.1949 58.8976 40.5356 58.7006L38.3964 52.3484C38.0805 52.6192 37.7397 52.8162 37.3989 53.0132Z" fill="white" stroke="#1A1A1A" stroke-width="0.6" stroke-miterlimit="10"/>
<path d="M38.3963 52.3454L40.5355 58.6977C40.8763 58.5007 41.2171 58.3036 41.5578 58.1066L39.4186 51.7544C39.0778 51.9514 38.7371 52.1484 38.3963 52.3454Z" fill="white" stroke="#1A1A1A" stroke-width="0.6" stroke-miterlimit="10"/>
<path d="M39.4153 51.7594L41.5546 58.1117C41.8953 57.9147 42.2361 57.7177 42.5769 57.5207L40.4376 51.1684C40.0969 51.3654 39.7561 51.5624 39.4153 51.7594Z" fill="white" stroke="#1A1A1A" stroke-width="0.6" stroke-miterlimit="10"/>
<path d="M40.4344 51.1657L42.5736 57.518C42.9144 57.321 43.2552 57.1239 43.5959 56.9269L41.4567 50.5747C41.1159 50.7717 40.7751 50.9687 40.4344 51.1657Z" fill="white" stroke="#1A1A1A" stroke-width="0.6" stroke-miterlimit="10"/>
<path d="M41.4831 50.6433L43.6223 56.9956C43.9631 56.7986 44.3039 56.6016 44.6695 56.4785L42.5303 50.1262C42.1646 50.2493 41.8239 50.4463 41.4831 50.6433Z" fill="white" stroke="#1A1A1A" stroke-width="0.6" stroke-miterlimit="10"/>
<path d="M42.4346 50.0801L44.5739 56.4324C44.9147 56.2354 45.2803 56.1122 45.6211 55.9152L43.4818 49.563C43.1411 49.76 42.8003 49.957 42.4346 50.0801Z" fill="white" stroke="#1A1A1A" stroke-width="0.6" stroke-miterlimit="10"/>
<path d="M43.5147 49.6387L45.654 55.991C45.9947 55.794 46.3604 55.6708 46.7011 55.4738L44.5619 49.1216C44.2211 49.3186 43.8555 49.4417 43.5147 49.6387Z" fill="white" stroke="#1A1A1A" stroke-width="0.6" stroke-miterlimit="10"/>
<path d="M44.5603 49.1156L46.6995 55.4679C47.1134 55.2462 47.4791 55.1231 47.9179 54.9754L45.7786 48.6231C45.3398 48.7708 44.9991 48.9679 44.5603 49.1156Z" fill="white" stroke="#1A1A1A" stroke-width="0.6" stroke-miterlimit="10"/>
<path d="M45.7625 48.6215L47.9018 54.9738C48.3406 54.826 48.8276 54.5797 49.2664 54.432L47.1271 48.0797C46.6152 48.2521 46.1764 48.3998 45.7625 48.6215Z" fill="white" stroke="#1A1A1A" stroke-width="0.6" stroke-miterlimit="10"/>
<path d="M47.148 48.0814L49.2873 54.4337C50.0186 54.1874 50.6519 53.8919 51.3832 53.6456L49.2439 47.2934C48.5126 47.5396 47.7813 47.7859 47.148 48.0814Z" fill="white" stroke="#1A1A1A" stroke-width="0.6" stroke-miterlimit="10"/>
<path d="M49.1643 47.3301L51.3036 53.6824C52.2542 53.3622 53.278 53.0174 54.2536 52.7711L52.1144 46.4188C51.1637 46.739 50.1881 46.9853 49.1643 47.3301Z" fill="white" stroke="#1A1A1A" stroke-width="0.6" stroke-miterlimit="10"/>
<path d="M52.1378 46.4934L54.2771 52.8457C55.0332 52.6733 55.8377 52.4024 56.6187 52.3038L54.4795 45.9515C53.6984 46.0501 52.9422 46.2225 52.1378 46.4934Z" fill="white" stroke="#1A1A1A" stroke-width="0.6" stroke-miterlimit="10"/>
<path d="M54.4523 45.8699L56.5915 52.2222C57.1283 52.1236 57.6651 52.0251 58.2019 51.9266L56.0626 45.5743C55.5258 45.6728 54.9891 45.7713 54.4523 45.8699Z" fill="white" stroke="#1A1A1A" stroke-width="0.6" stroke-miterlimit="10"/>
<path d="M56.0563 45.5806L58.1955 51.9328C58.6592 51.8589 59.0497 51.8097 59.5134 51.7358L57.3741 45.3835C56.8856 45.3835 56.4951 45.4328 56.0563 45.5806Z" fill="white" stroke="#1A1A1A" stroke-width="0.6" stroke-miterlimit="10"/>
<path d="M57.3485 45.3057L59.4878 51.6579C59.9514 51.584 60.3419 51.5348 60.8056 51.4609L58.6663 45.1086C58.2027 45.1825 57.8122 45.2318 57.3485 45.3057Z" fill="white" stroke="#1A1A1A" stroke-width="0.6" stroke-miterlimit="10"/>
<path d="M58.6826 45.1089L60.8219 51.4612C61.2124 51.4119 61.676 51.338 62.0666 51.2887L59.9273 44.9364C59.5368 44.9857 59.0731 45.0596 58.6826 45.1089Z" fill="white" stroke="#1A1A1A" stroke-width="0.6" stroke-miterlimit="10"/>
<path d="M59.937 45.0093L62.0763 51.3616C62.4668 51.3123 62.9553 51.3122 63.3458 51.263L61.2066 44.9107C60.7912 44.8861 60.3275 44.96 59.937 45.0093Z" fill="white" stroke="#1A1A1A" stroke-width="0.6" stroke-miterlimit="10"/>
<path d="M61.1835 44.842L63.3227 51.1943C63.7132 51.145 64.2018 51.145 64.5923 51.0957L62.4531 44.7435C62.0625 44.7927 61.672 44.842 61.1835 44.842Z" fill="white" stroke="#1A1A1A" stroke-width="0.6" stroke-miterlimit="10"/>
<path d="M62.479 44.8115L64.6183 51.1638C65.0337 51.1884 65.4973 51.1145 65.9127 51.1391L63.7734 44.7868C63.358 44.7622 62.9427 44.7376 62.479 44.8115Z" fill="white" stroke="#1A1A1A" stroke-width="0.6" stroke-miterlimit="10"/>
<path d="M63.8547 44.7656L65.994 51.1179C66.4094 51.1425 66.873 51.0686 67.2884 51.0932L65.1492 44.7409C64.6607 44.7409 64.2453 44.7164 63.8547 44.7656Z" fill="white" stroke="#1A1A1A" stroke-width="0.6" stroke-miterlimit="10"/>
<path d="M65.0731 44.7585L67.2124 51.1108C67.6278 51.1354 68.0432 51.16 68.4586 51.1846L66.3193 44.8323C65.977 44.7831 65.5616 44.7585 65.0731 44.7585Z" fill="white" stroke="#1A1A1A" stroke-width="0.6" stroke-miterlimit="10"/>
<path d="M66.3878 44.8123L68.5271 51.1645C68.9425 51.1891 69.3579 51.2137 69.7001 51.2629L67.5609 44.9107C67.1206 44.8122 66.7783 44.763 66.3878 44.8123Z" fill="white" stroke="#1A1A1A" stroke-width="0.6" stroke-miterlimit="10"/>
<path d="M67.5676 44.9111L69.7069 51.2634C70.1223 51.288 70.4645 51.3372 70.8799 51.3618L68.7407 45.0095C68.3253 44.9849 67.983 44.9357 67.5676 44.9111Z" fill="white" stroke="#1A1A1A" stroke-width="0.6" stroke-miterlimit="10"/>
<path d="M68.7408 45.01L70.8801 51.3623C71.2224 51.4115 71.6378 51.4361 71.98 51.4853L69.8408 45.133C69.4985 45.0838 69.0831 45.0592 68.7408 45.01Z" fill="white" stroke="#1A1A1A" stroke-width="0.6" stroke-miterlimit="10"/>
<path d="M69.8274 45.1233L71.9666 51.4755C72.3089 51.5248 72.6512 51.574 73.0183 51.6971L70.8791 45.3448C70.5119 45.2217 70.1697 45.1725 69.8274 45.1233Z" fill="white" stroke="#1A1A1A" stroke-width="0.6" stroke-miterlimit="10"/>
<path d="M70.8947 45.3523L73.0339 51.7046C73.1319 51.7538 73.2051 51.7292 73.3031 51.7784L71.1638 45.4261C71.0658 45.3769 70.9678 45.3277 70.8947 45.3523Z" fill="white" stroke="#1A1A1A" stroke-width="0.6" stroke-miterlimit="10"/>
<path d="M25.5611 74.4322L27.7004 80.7844C26.2327 76.4265 27.544 71.1327 32.0556 65.9125C41.127 55.3736 59.579 48.9951 73.299 51.7762L71.1598 45.424C57.4646 42.7166 38.9878 49.0213 29.9164 59.5602C25.4048 64.7804 24.0935 70.0742 25.5611 74.4322Z" stroke="#1A1A1A" stroke-width="0.6" stroke-miterlimit="10"/>
<path d="M86.088 60.9608L83.9487 54.6085C82.4562 50.1767 78.0635 46.8038 71.1669 45.4255L73.3061 51.7778C80.2027 53.1561 84.5955 56.5289 86.088 60.9608Z" fill="white"/>
<path d="M71.1476 45.3596L73.2868 51.7119C73.556 51.7857 73.8002 51.7857 74.0694 51.8596L71.9301 45.5073C71.6859 45.5073 71.4167 45.4335 71.1476 45.3596Z" fill="white" stroke="#1A1A1A" stroke-width="0.6" stroke-miterlimit="10"/>
<path d="M71.9221 45.5044L74.0614 51.8567C74.4036 51.9059 74.6976 52.0536 75.0399 52.1028L72.9007 45.7505C72.5584 45.7013 72.2161 45.6521 71.9221 45.5044Z" fill="white" stroke="#1A1A1A" stroke-width="0.6" stroke-miterlimit="10"/>
<path d="M72.9122 45.748L75.0515 52.1003C75.3937 52.1495 75.6878 52.2972 75.9569 52.3711L73.8176 46.0188C73.5485 45.945 73.2062 45.8958 72.9122 45.748Z" fill="white" stroke="#1A1A1A" stroke-width="0.6" stroke-miterlimit="10"/>
<path d="M73.8412 46.1057L75.9804 52.458C76.2496 52.5318 76.6167 52.6549 76.8859 52.7287L74.7466 46.3765C74.4526 46.2288 74.1835 46.1549 73.8412 46.1057Z" fill="white" stroke="#1A1A1A" stroke-width="0.6" stroke-miterlimit="10"/>
<path d="M74.738 46.3643L76.8773 52.7165C77.1713 52.8642 77.4404 52.9381 77.7344 53.0858L75.5952 46.7335C75.3012 46.5858 75.0072 46.4381 74.738 46.3643Z" fill="white" stroke="#1A1A1A" stroke-width="0.6" stroke-miterlimit="10"/>
<path d="M75.606 46.7373L77.7452 53.0896C78.0392 53.2373 78.3084 53.3111 78.6024 53.4588L76.4631 47.1066C76.2422 46.9342 75.9482 46.7865 75.606 46.7373Z" fill="white" stroke="#1A1A1A" stroke-width="0.6" stroke-miterlimit="10"/>
<path d="M76.4353 47.041L78.5745 53.3933C78.8686 53.541 79.1626 53.6887 79.4317 53.7625L77.2925 47.4103C77.0233 47.3364 76.7293 47.1887 76.4353 47.041Z" fill="white" stroke="#1A1A1A" stroke-width="0.6" stroke-miterlimit="10"/>
<path d="M77.3193 47.4751L79.4586 53.8274C79.7526 53.9751 80.0466 54.1228 80.2675 54.2951L78.1283 47.9428C77.9074 47.7705 77.6133 47.6228 77.3193 47.4751Z" fill="white" stroke="#1A1A1A" stroke-width="0.6" stroke-miterlimit="10"/>
<path d="M78.1229 47.9395L80.2622 54.2917C80.5562 54.4394 80.7771 54.6118 81.096 54.8334L78.9567 48.4811C78.7109 48.2349 78.4169 48.0872 78.1229 47.9395Z" fill="white" stroke="#1A1A1A" stroke-width="0.6" stroke-miterlimit="10"/>
<path d="M78.9233 48.4111L81.0626 54.7634C81.3566 54.9111 81.6024 55.1573 81.8233 55.3297L79.684 48.9774C79.4631 48.805 79.2422 48.6327 78.9233 48.4111Z" fill="white" stroke="#1A1A1A" stroke-width="0.6" stroke-miterlimit="10"/>
<path d="M79.7688 48.9512L81.908 55.3035C82.2269 55.525 82.4478 55.6974 82.6936 55.9436L80.5543 49.5913C80.3334 49.419 80.0146 49.1974 79.7688 48.9512Z" fill="white" stroke="#1A1A1A" stroke-width="0.6" stroke-miterlimit="10"/>
<path d="M80.5757 49.6738L82.7149 56.0261C83.0338 56.2477 83.3045 56.5677 83.5502 56.8139L81.411 50.4617C81.1403 50.1416 80.8214 49.92 80.5757 49.6738Z" fill="white" stroke="#1A1A1A" stroke-width="0.6" stroke-miterlimit="10"/>
<path d="M81.4114 50.4653L83.5506 56.8176C83.8213 57.1377 84.0919 57.4577 84.3625 57.7778L82.2233 51.4255C81.9526 51.1055 81.682 50.7854 81.4114 50.4653Z" fill="white" stroke="#1A1A1A" stroke-width="0.6" stroke-miterlimit="10"/>
<path d="M82.2183 51.416L84.3575 57.7683C84.6779 58.2361 84.9734 58.63 85.2207 59.1224L83.0814 52.7702C82.8342 52.2777 82.5386 51.8838 82.2183 51.416Z" fill="white" stroke="#1A1A1A" stroke-width="0.6" stroke-miterlimit="10"/>
<path d="M83.0862 52.771L85.2254 59.1233C85.5707 59.6649 85.7946 60.3297 85.9936 60.9206L83.8543 54.5683C83.7284 53.9528 83.4314 53.3127 83.0862 52.771Z" fill="white" stroke="#1A1A1A" stroke-width="0.6" stroke-miterlimit="10"/>
<path d="M86.088 60.9608L83.9487 54.6085C82.4562 50.1767 78.0635 46.8038 71.1669 45.4255L73.3061 51.7778C80.2027 53.1561 84.5955 56.5289 86.088 60.9608Z" stroke="#1A1A1A" stroke-width="0.6" stroke-miterlimit="10"/>
<path d="M24.9075 74.6592L27.0467 81.0114C28.5641 85.5171 33.0798 89.0131 40.0743 90.4406L37.9351 84.0883C30.9156 82.5869 26.498 79.1402 24.9075 74.6592Z" fill="white"/>
<path d="M24.9075 74.6592L27.0467 81.0114C28.5641 85.5171 33.0798 89.0131 40.0743 90.4406L37.9351 84.0883C30.9156 82.5869 26.498 79.1402 24.9075 74.6592Z" fill="white" stroke="#1A1A1A" stroke-width="0.6" stroke-miterlimit="10"/>
<path d="M86.7316 60.7328L84.5924 54.3806C86.0849 58.8124 84.7254 64.2047 80.1904 69.5972C70.9494 80.3577 52.0586 86.884 38.0694 84.029L40.2087 90.3813C54.173 93.1624 73.0886 86.71 82.3297 75.9495C86.8646 70.5569 88.2241 65.1647 86.7316 60.7328Z" fill="#1A1A1A" stroke="#1A1A1A" stroke-width="0.6"/>
<path d="M86.7316 60.7328L84.5924 54.3806C86.0849 58.8124 84.7254 64.2047 80.1904 69.5972C70.9494 80.3577 52.0586 86.884 38.0694 84.029L40.2087 90.3813C54.173 93.1624 73.0886 86.71 82.3297 75.9495C86.8646 70.5569 88.2241 65.1647 86.7316 60.7328Z" stroke="#1A1A1A" stroke-width="0.6" stroke-miterlimit="10"/>
<path d="M80.1078 69.5594C89.3488 58.799 85.4713 47.7687 71.507 44.9875C57.5427 42.2063 38.6271 48.6588 29.3861 59.4193C20.145 70.1797 24.0225 81.21 37.9868 83.9912C51.976 86.8462 70.8668 80.3199 80.1078 69.5594Z" fill="white" stroke="#1A1A1A" stroke-width="0.6" stroke-miterlimit="10"/>
<path fill-rule="evenodd" clip-rule="evenodd" d="M43.0511 62.3491L39.0989 63.6799L52.6215 71.1687L54.701 66.4544L51.9964 64.9566L51.7885 65.428L51.1646 66.8423L49.8124 66.0935L43.0511 62.3491ZM52.4123 64.0137L53.7646 64.7626L55.1169 65.5115L57.1453 66.6348L60.5259 68.507L66.7644 54.3641L62.8122 55.6949L59.6929 62.7664L59.0691 64.1807L57.7168 63.4318L56.3646 62.6829L53.6601 61.1852L50.9555 59.6874L47.0033 61.0183L52.4123 64.0137ZM58.86 57.0257L56.7805 61.74L54.076 60.2423L54.9078 58.3566L58.86 57.0257Z" fill="#7246EE"/>
<path fill-rule="evenodd" clip-rule="evenodd" d="M73.9208 55.9685L69.5154 57.4519L70.3826 60.0271L74.5452 58.6254C74.8271 64.6486 68.0892 71.5799 58.2733 74.8853C47.3353 78.5685 36.7173 76.3544 34.5574 69.9401C32.3975 63.5258 39.5136 55.3402 50.4516 51.657C58.3529 48.9964 66.0872 49.4131 70.5869 52.2674L74.3933 50.011C68.9447 46.3872 59.3738 45.8141 49.5931 49.1076C36.2541 53.5993 27.576 63.5817 30.21 71.404C32.844 79.2264 45.7927 81.9264 59.1318 77.4347C72.4708 72.943 81.1489 62.9606 78.5149 55.1383C78.4423 54.9225 78.3618 54.7106 78.2736 54.5027L77.7492 54.6793L73.9208 55.9685Z" fill="#7246EE"/>
</svg>
