<svg width="1em" height="1em" viewBox="0 0 148 148" fill="none" xmlns="http://www.w3.org/2000/svg">
<path d="M145.875 86.8991C147.003 87.5338 147.008 88.5626 145.888 89.1949L76.1326 128.717C75.0144 129.351 73.192 129.351 72.0666 128.717L1.85416 89.1949C0.728762 88.5602 0.721501 87.5315 1.84205 86.8991L71.5971 47.3774C72.7177 46.7427 74.5376 46.7427 75.663 47.3774L145.875 86.8991Z" fill="white" stroke="#1A1A1A" stroke-width="0.748718" stroke-miterlimit="10"/>
<path d="M27.1855 103.824L100.047 60.5625" stroke="#1A1A1A" stroke-width="0.748718"/>
<path d="M45.4004 115.208L118.262 71.9468" stroke="#1A1A1A" stroke-width="0.748718"/>
<path d="M145.885 89.1987L76.4277 128.553L76.418 132.038L145.875 92.6837C146.432 92.3675 146.71 91.957 146.71 91.5441L146.72 88.0591C146.72 88.472 146.439 88.8849 145.885 89.1987Z" fill="#1A1A1A" stroke="#1A1A1A" stroke-width="0.748718"/>
<path d="M72.0644 128.705L1.85191 89.1855V89.1996C1.81319 89.1784 1.77688 89.1548 1.74058 89.1336C1.72848 89.1265 1.7188 89.1194 1.7067 89.11C1.6825 89.0934 1.66071 89.0793 1.63651 89.0628C1.62441 89.0533 1.61231 89.0439 1.60021 89.0345C1.58085 89.0203 1.56149 89.0038 1.54213 88.9896C1.53002 88.9802 1.51792 88.9707 1.50582 88.9613C1.48646 88.9472 1.46952 88.9306 1.45258 88.9165C1.44048 88.9047 1.42838 88.8952 1.41627 88.8834C1.40901 88.8764 1.40175 88.8693 1.39449 88.8622C1.37755 88.8457 1.36303 88.8315 1.34851 88.815C1.34367 88.8103 1.33641 88.8032 1.33157 88.7985C1.31221 88.7773 1.29284 88.756 1.2759 88.7348C1.27348 88.7301 1.26864 88.7254 1.26622 88.723C1.25412 88.7065 1.2396 88.69 1.2275 88.6734C1.20572 88.6451 1.18636 88.6145 1.16699 88.5838C1.15005 88.5508 1.13311 88.5224 1.11859 88.4941C1.11375 88.4847 1.10891 88.4752 1.10407 88.4658C1.09439 88.4446 1.08471 88.4233 1.07745 88.4045C1.07261 88.395 1.07019 88.3856 1.06535 88.3738C1.05566 88.3502 1.0484 88.3266 1.04356 88.303C1.04356 88.2959 1.03872 88.2912 1.03872 88.2841C1.03146 88.2535 1.0242 88.2228 1.01936 88.1921C1.01936 88.185 1.01936 88.1756 1.01694 88.1685C1.01452 88.1449 1.0121 88.1237 1.00968 88.1001C1.00968 88.0812 1.00968 88.0623 1.00968 88.0435L1 91.5285C1 91.5426 1 91.5568 1 91.5709C1 91.5756 1 91.5804 1 91.5851C1 91.6087 1.00484 91.6299 1.00726 91.6535C1.00726 91.6606 1.00726 91.67 1.00968 91.6771C1.01452 91.7078 1.02178 91.7384 1.02904 91.7691V91.7738C1.02904 91.7738 1.03388 91.7833 1.03388 91.7904C1.04114 91.8139 1.0484 91.8375 1.05566 91.8611C1.05808 91.8706 1.06293 91.88 1.06777 91.8918C1.07503 91.913 1.08471 91.9343 1.09439 91.9532C1.09681 91.9602 1.09923 91.965 1.10165 91.972C1.10165 91.9744 1.10649 91.9791 1.10649 91.9815C1.12101 92.0098 1.13795 92.0405 1.15489 92.0688C1.17425 92.1018 1.19362 92.1301 1.2154 92.1608C1.2154 92.1632 1.22024 92.1679 1.22266 92.1702C1.23234 92.1844 1.24444 92.1962 1.25412 92.2103C1.25654 92.2151 1.26138 92.2198 1.2638 92.2221C1.28074 92.2434 1.3001 92.2646 1.31947 92.2859C1.32431 92.2906 1.32915 92.2977 1.33641 92.3024C1.35093 92.3189 1.36787 92.3354 1.38481 92.3496C1.39207 92.3566 1.39933 92.3637 1.40659 92.3708C1.41143 92.3755 1.41869 92.3826 1.42354 92.3873C1.4308 92.3944 1.43806 92.3991 1.44532 92.4038C1.46226 92.4203 1.4792 92.4345 1.49856 92.4487C1.51066 92.4581 1.52276 92.4675 1.53486 92.477C1.55423 92.4911 1.57359 92.5076 1.59295 92.5218C1.60505 92.5312 1.61715 92.5407 1.62925 92.5478C1.65103 92.5643 1.67524 92.5784 1.69944 92.5949C1.71154 92.602 1.72122 92.6091 1.73332 92.6162C1.76962 92.6398 1.80593 92.661 1.84465 92.6822V92.6681L72.0571 132.187L72.0668 128.702L72.0644 128.705Z" fill="#5E5FF5" stroke="#1A1A1A" stroke-width="0.748718" stroke-miterlimit="10" stroke-linejoin="bevel"/>
<path d="M75.8567 132.336C75.8713 132.329 75.8882 132.322 75.9027 132.314C75.9269 132.303 75.9511 132.291 75.9753 132.279C75.9874 132.272 75.9995 132.267 76.0116 132.26C76.0479 132.241 76.0818 132.222 76.1181 132.204L76.1278 128.719C76.0939 128.737 76.0576 128.756 76.0213 128.775C76.0092 128.782 75.9971 128.787 75.985 128.792C75.9608 128.804 75.9366 128.815 75.91 128.827C75.8955 128.834 75.8809 128.841 75.864 128.846C75.8422 128.855 75.818 128.867 75.7962 128.877C75.7793 128.884 75.7624 128.891 75.7454 128.896C75.7236 128.905 75.7018 128.912 75.6801 128.922C75.6244 128.943 75.5663 128.962 75.5058 128.98C75.4937 128.985 75.4816 128.988 75.4671 128.992C75.409 129.011 75.3485 129.028 75.2904 129.042C75.2783 129.044 75.2686 129.047 75.2565 129.049C75.2154 129.058 75.1718 129.07 75.1307 129.08C75.1137 129.082 75.0992 129.087 75.0823 129.089C75.0363 129.098 74.9903 129.108 74.9467 129.115C74.9371 129.115 74.9298 129.117 74.9201 129.12C74.8693 129.129 74.816 129.136 74.7652 129.143C74.7507 129.143 74.7362 129.146 74.7241 129.148C74.6854 129.153 74.6466 129.157 74.6079 129.162C74.591 129.162 74.5716 129.165 74.5547 129.167C74.5159 129.169 74.4772 129.174 74.4385 129.176C74.424 129.176 74.407 129.176 74.3925 129.179C74.3393 129.181 74.286 129.183 74.2328 129.186C74.2279 129.186 74.2231 129.186 74.2183 129.186C74.1674 129.186 74.1166 129.186 74.0634 129.186C74.0464 129.186 74.0295 129.186 74.0125 129.186C73.969 129.186 73.9254 129.186 73.8819 129.181C73.8673 129.181 73.8552 129.181 73.8407 129.181C73.7778 129.179 73.7149 129.174 73.6519 129.167C73.6374 129.167 73.6253 129.165 73.6108 129.162C73.5503 129.155 73.4898 129.15 73.4293 129.141H73.4172C73.3664 129.131 73.3155 129.124 73.2671 129.117C73.2526 129.115 73.2381 129.113 73.2236 129.11C73.1873 129.103 73.1534 129.098 73.1171 129.089C73.1001 129.084 73.0808 129.082 73.0638 129.077C73.0324 129.07 72.9985 129.063 72.967 129.056C72.9501 129.051 72.9331 129.047 72.9138 129.044C72.8799 129.035 72.846 129.025 72.8121 129.016C72.7976 129.011 72.7855 129.009 72.771 129.004C72.7153 128.988 72.6597 128.971 72.604 128.952C72.5919 128.947 72.5798 128.943 72.5653 128.938C72.5144 128.922 72.466 128.903 72.4176 128.881C72.4104 128.879 72.4055 128.877 72.3983 128.874C72.345 128.853 72.2942 128.829 72.2434 128.806C72.2313 128.801 72.2192 128.794 72.2071 128.789C72.1587 128.766 72.1103 128.74 72.0619 128.714H72.0546L72.0449 132.194H72.0498C72.0957 132.225 72.1466 132.248 72.195 132.272C72.2071 132.277 72.2192 132.284 72.2313 132.289C72.2821 132.312 72.3329 132.336 72.3862 132.357C72.3934 132.359 72.3983 132.362 72.4055 132.364C72.4539 132.383 72.5023 132.402 72.5532 132.421C72.5653 132.425 72.5774 132.43 72.5919 132.435C72.6476 132.454 72.7032 132.47 72.7589 132.487H72.7661C72.7661 132.487 72.7879 132.496 72.7976 132.499C72.8315 132.508 72.8654 132.517 72.8993 132.527C72.9162 132.532 72.9331 132.536 72.9525 132.539C72.984 132.546 73.0178 132.553 73.0493 132.56C73.0662 132.565 73.0832 132.567 73.1025 132.572C73.1389 132.579 73.1727 132.586 73.209 132.593C73.2236 132.595 73.2381 132.598 73.2526 132.6C73.3034 132.609 73.3518 132.616 73.4027 132.624H73.4148C73.4753 132.633 73.5358 132.64 73.5963 132.645C73.6108 132.645 73.6229 132.647 73.6374 132.65C73.7003 132.654 73.7633 132.659 73.8262 132.664H73.8383C73.8383 132.664 73.8577 132.664 73.8673 132.664C73.9109 132.664 73.9545 132.666 73.998 132.668C74.015 132.668 74.0319 132.668 74.0488 132.668C74.0997 132.668 74.1505 132.668 74.2013 132.668C74.2062 132.668 74.211 132.668 74.2158 132.668H74.2183C74.2715 132.668 74.3248 132.664 74.378 132.661C74.3925 132.661 74.4095 132.661 74.424 132.659C74.4627 132.657 74.5014 132.654 74.5401 132.65C74.5498 132.65 74.5595 132.65 74.5692 132.65C74.5764 132.65 74.5861 132.65 74.5934 132.647C74.6321 132.642 74.6733 132.638 74.712 132.633C74.7265 132.633 74.741 132.631 74.7531 132.628C74.8064 132.621 74.8572 132.614 74.908 132.605H74.9129C74.9129 132.605 74.9274 132.6 74.9346 132.6C74.9806 132.593 75.0266 132.583 75.0726 132.574C75.0895 132.572 75.1041 132.567 75.121 132.565C75.1646 132.555 75.2057 132.546 75.2468 132.534C75.2541 132.534 75.2638 132.529 75.2735 132.527H75.2807C75.3412 132.51 75.3993 132.491 75.4574 132.475C75.4695 132.47 75.4816 132.468 75.4961 132.463C75.5542 132.444 75.6123 132.425 75.6704 132.404H75.6728C75.6946 132.395 75.7139 132.388 75.7333 132.378C75.7502 132.371 75.7672 132.364 75.7841 132.357C75.8059 132.348 75.8301 132.338 75.8519 132.326L75.8567 132.336Z" fill="#5E5FF5" stroke="#1A1A1A" stroke-width="0.748718" stroke-miterlimit="10" stroke-linejoin="bevel"/>
<path d="M90.956 92.0057C100.639 86.468 100.673 77.2732 91.059 71.5323C81.445 65.7913 65.7289 65.5872 56.0458 71.1249C46.3628 76.6625 46.3289 85.8573 55.9429 91.5983C65.5558 97.4005 81.2729 97.5433 90.956 92.0057Z" fill="#1A1A1A" stroke="#1A1A1A" stroke-width="0.748718" stroke-miterlimit="10"/>
<path d="M49.2521 75.6875L49.1631 80.958C49.2241 77.3422 51.5909 73.7653 56.3095 71.0863C65.8085 65.6682 81.1616 65.8049 90.5945 71.4814L90.6835 66.2109C81.2495 60.5956 65.8975 60.3976 56.3985 65.8158C51.6799 68.4947 49.3131 72.0716 49.2521 75.6875Z" fill="white"/>
<path d="M49.2607 75.6921L49.1717 80.9626C49.1945 79.6143 49.5217 78.2099 50.2726 76.8739L50.3616 71.6034C49.6714 72.9404 49.2845 74.2825 49.2607 75.6921Z" fill="white" stroke="#1A1A1A" stroke-width="0.748718" stroke-miterlimit="10"/>
<path d="M50.3612 71.598L50.2722 76.8686C50.4604 76.5039 50.7104 76.079 50.9593 75.7154L51.0483 70.4449C50.7994 70.8085 50.5494 71.2334 50.3612 71.598Z" fill="white" stroke="#1A1A1A" stroke-width="0.748718" stroke-miterlimit="10"/>
<path d="M51.0441 70.4405L50.9551 75.7111C51.1423 75.4077 51.3891 75.1666 51.5763 74.8633L51.6654 69.5928C51.4782 69.8961 51.2313 70.1372 51.0441 70.4405Z" fill="white" stroke="#1A1A1A" stroke-width="0.748718" stroke-miterlimit="10"/>
<path d="M51.7278 69.5972L51.6388 74.8678C51.825 74.6257 52.0718 74.3847 52.258 74.1426L52.347 68.8721C52.1002 69.1131 51.914 69.3552 51.7278 69.5972Z" fill="white" stroke="#1A1A1A" stroke-width="0.748718" stroke-miterlimit="10"/>
<path d="M52.3441 68.8787L52.2551 74.1493C52.4412 73.9072 52.6871 73.7274 52.9339 73.4864L53.0229 68.2159C52.7761 68.4569 52.5292 68.698 52.3441 68.8787Z" fill="white" stroke="#1A1A1A" stroke-width="0.748718" stroke-miterlimit="10"/>
<path d="M53.0219 68.2688L52.9329 73.5394C53.1181 73.3586 53.3639 73.1789 53.6097 72.9991L53.6987 67.7286C53.3932 67.846 53.2081 68.0268 53.0219 68.2688Z" fill="white" stroke="#1A1A1A" stroke-width="0.748718" stroke-miterlimit="10"/>
<path d="M53.643 67.6668L53.554 72.9373C53.7392 72.7566 53.985 72.5768 54.2308 72.397L54.3198 67.1265C54.0729 67.3675 53.8888 67.487 53.643 67.6668Z" fill="white" stroke="#1A1A1A" stroke-width="0.748718" stroke-miterlimit="10"/>
<path d="M54.3198 67.1861L54.2308 72.4566C54.4766 72.2769 54.6607 72.1574 54.9065 71.9776L54.9955 66.7071C54.7508 66.8255 54.505 67.0053 54.3198 67.1861Z" fill="white" stroke="#1A1A1A" stroke-width="0.748718" stroke-miterlimit="10"/>
<path d="M54.9947 66.7088L54.9057 71.9793C55.1515 71.7996 55.3356 71.6801 55.5804 71.5616L55.6694 66.2911C55.4246 66.4095 55.1798 66.528 54.9947 66.7088Z" fill="white" stroke="#1A1A1A" stroke-width="0.748718" stroke-miterlimit="10"/>
<path d="M55.6666 66.2376L55.5776 71.5081C55.8223 71.3897 56.0682 71.2099 56.3129 71.0914L56.4019 65.8209C56.0965 65.9383 55.9114 66.1191 55.6666 66.2376Z" fill="white" stroke="#1A1A1A" stroke-width="0.748718" stroke-miterlimit="10"/>
<path d="M56.3493 65.8121L56.2603 71.0826L56.3209 71.0836C56.5657 70.9651 56.7498 70.8456 56.9946 70.7272L57.0836 65.4566C56.8398 65.5138 56.6557 65.6333 56.3493 65.8121C56.3897 65.8127 56.3897 65.8127 56.3493 65.8121Z" fill="white"/>
<path d="M56.3493 65.8121L56.2603 71.0826L56.3209 71.0836C56.5657 70.9651 56.7498 70.8456 56.9946 70.7272L57.0836 65.4566C56.8398 65.5138 56.6557 65.6333 56.3493 65.8121C56.3897 65.8127 56.3897 65.8127 56.3493 65.8121" stroke="#1A1A1A" stroke-width="0.748718" stroke-miterlimit="10"/>
<path d="M57.0856 65.3965L56.9966 70.667C57.2414 70.5486 57.4861 70.4301 57.7309 70.3116L57.8199 65.0411C57.5751 65.1596 57.3304 65.2781 57.0856 65.3965Z" fill="white" stroke="#1A1A1A" stroke-width="0.748718" stroke-miterlimit="10"/>
<path d="M57.8082 65.044L57.7192 70.3145C57.964 70.1961 58.2088 70.0776 58.4536 69.9591L58.5426 64.6886C58.3585 64.8081 58.053 64.9255 57.8082 65.044Z" fill="white" stroke="#1A1A1A" stroke-width="0.748718" stroke-miterlimit="10"/>
<path d="M58.6032 64.6836L58.5142 69.9542C58.7589 69.8357 59.0037 69.7172 59.3091 69.5998L59.3982 64.3292C59.0927 64.4467 58.8479 64.5652 58.6032 64.6836Z" fill="white" stroke="#1A1A1A" stroke-width="0.748718" stroke-miterlimit="10"/>
<path d="M59.3386 64.3333L59.2496 69.6038C59.4943 69.4854 59.7998 69.3679 60.0435 69.3107L60.1325 64.0402C59.8878 64.1586 59.644 64.2158 59.3386 64.3333Z" fill="white" stroke="#1A1A1A" stroke-width="0.748718" stroke-miterlimit="10"/>
<path d="M60.198 64.0403L60.1089 69.3109C60.3537 69.1924 60.6581 69.1362 60.9636 69.0188L61.0526 63.7482C60.7482 63.8044 60.4427 63.9218 60.198 64.0403Z" fill="white" stroke="#1A1A1A" stroke-width="0.748718" stroke-miterlimit="10"/>
<path d="M60.9929 63.7591L60.9039 69.0296C61.2093 68.9122 61.453 68.855 61.7585 68.7375L61.8475 63.467C61.6027 63.5855 61.2983 63.6416 60.9929 63.7591Z" fill="white" stroke="#1A1A1A" stroke-width="0.748718" stroke-miterlimit="10"/>
<path d="M61.9167 63.4544L61.8277 68.7249C62.1331 68.6075 62.4376 68.5513 62.743 68.4339L62.832 63.1633C62.4659 63.2797 62.1615 63.3359 61.9167 63.4544Z" fill="white" stroke="#1A1A1A" stroke-width="0.748718" stroke-miterlimit="10"/>
<path d="M62.7654 63.167L62.6764 68.4376C62.9808 68.3814 63.2862 68.2639 63.5907 68.2078L63.6797 62.9372C63.3742 63.0547 63.0698 63.1109 62.7654 63.167Z" fill="white" stroke="#1A1A1A" stroke-width="0.748718" stroke-miterlimit="10"/>
<path d="M63.6775 62.9375L63.5885 68.2081C63.8929 68.1519 64.1984 68.0345 64.5028 67.9783L64.5918 62.7078C64.2863 62.8252 63.9819 62.8814 63.6775 62.9375Z" fill="white" stroke="#1A1A1A" stroke-width="0.748718" stroke-miterlimit="10"/>
<path d="M64.5926 62.7058L64.5036 67.9764C64.808 67.9202 65.1124 67.864 65.4168 67.8079L65.5058 62.5373C65.2014 62.5935 64.897 62.6497 64.5926 62.7058Z" fill="white" stroke="#1A1A1A" stroke-width="0.748718" stroke-miterlimit="10"/>
<path d="M65.5008 62.5398L65.4118 67.8103C65.7162 67.7542 66.0206 67.698 66.325 67.6419L66.414 62.3713C66.1096 62.4275 65.8052 62.4836 65.5008 62.5398Z" fill="white" stroke="#1A1A1A" stroke-width="0.748718" stroke-miterlimit="10"/>
<path d="M66.4129 62.3694L66.3239 67.6399C66.6283 67.5838 66.9327 67.5276 67.2371 67.4714L67.3262 62.2009C67.0217 62.2571 66.7173 62.3132 66.4129 62.3694Z" fill="white" stroke="#1A1A1A" stroke-width="0.748718" stroke-miterlimit="10"/>
<path d="M67.328 62.2568L67.239 67.5274C67.5434 67.4712 67.8478 67.4151 68.1512 67.4202L68.2402 62.1496C67.9368 62.1445 67.6324 62.2007 67.328 62.2568Z" fill="white" stroke="#1A1A1A" stroke-width="0.748718" stroke-miterlimit="10"/>
<path d="M68.1835 62.0904L68.0945 67.3609C68.3989 67.3047 68.7023 67.3098 69.0067 67.2537L69.0957 61.9831C68.7913 62.0393 68.4869 62.0955 68.1835 62.0904Z" fill="white" stroke="#1A1A1A" stroke-width="0.748718" stroke-miterlimit="10"/>
<path d="M69.0975 62.0508L69.0085 67.3213C69.3129 67.2652 69.6163 67.2703 69.9207 67.2141L70.0097 61.9436C69.7053 61.9998 69.402 61.9946 69.0975 62.0508Z" fill="white" stroke="#1A1A1A" stroke-width="0.748718" stroke-miterlimit="10"/>
<path d="M70.0107 61.9378L69.9217 67.2083C70.2868 67.1531 70.5902 67.1583 70.9542 67.1644L71.0432 61.8939C70.6792 61.8877 70.3747 61.9439 70.0107 61.9378Z" fill="white" stroke="#1A1A1A" stroke-width="0.748718" stroke-miterlimit="10"/>
<path d="M71.0322 61.8865L70.9432 67.157C71.3072 67.1632 71.733 67.1091 72.097 67.1152L72.186 61.8447C71.7613 61.8375 71.3973 61.8313 71.0322 61.8865Z" fill="white" stroke="#1A1A1A" stroke-width="0.748718" stroke-miterlimit="10"/>
<path d="M72.2001 61.8547L72.1111 67.1253C72.7179 67.1355 73.265 67.0835 73.8718 67.0937L73.9608 61.8232C73.354 61.8129 72.7473 61.8027 72.2001 61.8547Z" fill="white" stroke="#1A1A1A" stroke-width="0.748718" stroke-miterlimit="10"/>
<path d="M73.8945 61.8252L73.8055 67.0957C74.5943 67.1091 75.4438 67.1234 76.2315 67.198L76.3205 61.9275C75.5317 61.9142 74.744 61.8395 73.8945 61.8252Z" fill="white" stroke="#1A1A1A" stroke-width="0.748718" stroke-miterlimit="10"/>
<path d="M76.3164 61.9917L76.2274 67.2622C76.8331 67.3338 77.5006 67.345 78.1053 67.4779L78.1943 62.2073C77.5896 62.0745 76.9838 62.003 76.3164 61.9917Z" fill="white" stroke="#1A1A1A" stroke-width="0.748718" stroke-miterlimit="10"/>
<path d="M78.1953 62.1382L78.1063 67.4087C78.53 67.4772 78.9537 67.5457 79.3774 67.6141L79.4664 62.3436C79.0427 62.2751 78.619 62.2066 78.1953 62.1382Z" fill="white" stroke="#1A1A1A" stroke-width="0.748718" stroke-miterlimit="10"/>
<path d="M79.4609 62.3477L79.3719 67.6182C79.7349 67.6856 80.0373 67.752 80.4003 67.8195L80.4893 62.5489C80.1273 62.4202 79.825 62.3538 79.4609 62.3477Z" fill="white" stroke="#1A1A1A" stroke-width="0.748718" stroke-miterlimit="10"/>
<path d="M80.4883 62.4863L80.3993 67.7569C80.7623 67.8243 81.0646 67.8907 81.4276 67.9582L81.5167 62.6876C81.1536 62.6202 80.8513 62.5538 80.4883 62.4863Z" fill="white" stroke="#1A1A1A" stroke-width="0.748718" stroke-miterlimit="10"/>
<path d="M81.5312 62.6885L81.4422 67.959C81.7446 68.0254 82.1076 68.0929 82.41 68.1593L82.499 62.8887C82.1966 62.8223 81.8336 62.7549 81.5312 62.6885Z" fill="white" stroke="#1A1A1A" stroke-width="0.748718" stroke-miterlimit="10"/>
<path d="M82.4902 62.9497L82.4012 68.2202C82.7036 68.2867 83.0656 68.4154 83.3679 68.4818L83.4569 63.2112C83.1556 63.0835 82.7926 63.0161 82.4902 62.9497Z" fill="white" stroke="#1A1A1A" stroke-width="0.748718" stroke-miterlimit="10"/>
<path d="M83.4531 63.1519L83.3641 68.4224C83.6665 68.4888 84.0285 68.6175 84.3308 68.6839L84.4198 63.4134C84.1175 63.347 83.8151 63.2806 83.4531 63.1519Z" fill="white" stroke="#1A1A1A" stroke-width="0.748718" stroke-miterlimit="10"/>
<path d="M84.4199 63.4727L84.3309 68.7432C84.6322 68.8709 84.9952 68.9383 85.2965 69.066L85.3855 63.7955C85.0842 63.6678 84.7829 63.5401 84.4199 63.4727Z" fill="white" stroke="#1A1A1A" stroke-width="0.748718" stroke-miterlimit="10"/>
<path d="M85.4551 63.8013L85.3661 69.0718C85.6674 69.1995 86.0304 69.2669 86.3317 69.3946L86.4207 64.1241C86.0587 63.9954 85.7574 63.8677 85.4551 63.8013Z" fill="white" stroke="#1A1A1A" stroke-width="0.748718" stroke-miterlimit="10"/>
<path d="M86.3594 64.1138L86.2704 69.3843C86.5717 69.512 86.873 69.6397 87.1743 69.7674L87.2633 64.4969C87.0227 64.3702 86.7214 64.2425 86.3594 64.1138Z" fill="white" stroke="#1A1A1A" stroke-width="0.748718" stroke-miterlimit="10"/>
<path d="M87.3184 64.502L87.2294 69.7725C87.5307 69.9002 87.832 70.0279 88.0726 70.1546L88.1616 64.884C87.8613 64.695 87.6207 64.5684 87.3184 64.502Z" fill="white" stroke="#1A1A1A" stroke-width="0.748718" stroke-miterlimit="10"/>
<path d="M88.166 64.8862L88.077 70.1568C88.3783 70.2845 88.6189 70.4111 88.9203 70.5388L89.0093 65.2683C88.708 65.1406 88.4673 65.0139 88.166 64.8862Z" fill="white" stroke="#1A1A1A" stroke-width="0.748718" stroke-miterlimit="10"/>
<path d="M89.0098 65.2661L88.9208 70.5367C89.1614 70.6633 89.4627 70.791 89.7033 70.9177L89.7924 65.6472C89.5517 65.5205 89.2504 65.3928 89.0098 65.2661Z" fill="white" stroke="#1A1A1A" stroke-width="0.748718" stroke-miterlimit="10"/>
<path d="M89.7832 65.6387L89.6942 70.9092C89.9348 71.0359 90.1755 71.1625 90.4151 71.3505L90.5041 66.08C90.2645 65.892 90.0238 65.7653 89.7832 65.6387Z" fill="white" stroke="#1A1A1A" stroke-width="0.748718" stroke-miterlimit="10"/>
<path d="M90.5156 66.0898L90.4266 71.3604C90.4863 71.4227 90.5469 71.4237 90.6066 71.486L90.6956 66.2155C90.636 66.1532 90.5763 66.0909 90.5156 66.0898Z" fill="white" stroke="#1A1A1A" stroke-width="0.748718" stroke-miterlimit="10"/>
<path d="M49.2521 75.6875L49.1631 80.958C49.2241 77.3422 51.5909 73.7653 56.3095 71.0863C65.8085 65.6682 81.1616 65.8049 90.5945 71.4814L90.6835 66.2109C81.2495 60.5956 65.8975 60.3976 56.3985 65.8158C51.6799 68.4947 49.3131 72.0716 49.2521 75.6875Z" stroke="#1A1A1A" stroke-width="0.748718" stroke-miterlimit="10"/>
<path d="M97.6531 81.6596L97.7421 76.389C97.8042 72.7119 95.4382 69.0551 90.6914 66.2163L90.6024 71.4869C95.3492 74.3256 97.7152 77.9825 97.6531 81.6596Z" fill="white"/>
<path d="M90.6953 66.165L90.6063 71.4356C90.7863 71.5612 90.9673 71.6256 91.1472 71.7512L91.2362 66.4807C91.0552 66.4163 90.8753 66.2907 90.6953 66.165Z" fill="white" stroke="#1A1A1A" stroke-width="0.748718" stroke-miterlimit="10"/>
<path d="M91.2324 66.478L91.1434 71.7486C91.384 71.8752 91.563 72.0622 91.8036 72.1888L91.8926 66.9183C91.652 66.7916 91.4113 66.665 91.2324 66.478Z" fill="white" stroke="#1A1A1A" stroke-width="0.748718" stroke-miterlimit="10"/>
<path d="M91.9004 66.9175L91.8114 72.188C92.052 72.3147 92.2309 72.5016 92.4109 72.6273L92.4999 67.3567C92.3199 67.2311 92.0793 67.1044 91.9004 66.9175Z" fill="white" stroke="#1A1A1A" stroke-width="0.748718" stroke-miterlimit="10"/>
<path d="M92.4961 67.4243L92.4071 72.6949C92.587 72.8205 92.8266 73.0084 93.0066 73.1341L93.0956 67.8636C92.9167 67.6766 92.7367 67.551 92.4961 67.4243Z" fill="white" stroke="#1A1A1A" stroke-width="0.748718" stroke-miterlimit="10"/>
<path d="M93.0918 67.856L93.0028 73.1265C93.1817 73.3134 93.3617 73.4391 93.5406 73.626L93.6296 68.3555C93.4507 68.1685 93.2718 67.9816 93.0918 67.856Z" fill="white" stroke="#1A1A1A" stroke-width="0.748718" stroke-miterlimit="10"/>
<path d="M93.6367 68.3628L93.5477 73.6333C93.7266 73.8203 93.9066 73.9459 94.0855 74.1328L94.1745 68.8623C94.0563 68.6764 93.8774 68.4895 93.6367 68.3628Z" fill="white" stroke="#1A1A1A" stroke-width="0.748718" stroke-miterlimit="10"/>
<path d="M94.1719 68.8062L94.0829 74.0767C94.2618 74.2636 94.4407 74.4505 94.6207 74.5762L94.7097 69.3056C94.5297 69.18 94.3508 68.9931 94.1719 68.8062Z" fill="white" stroke="#1A1A1A" stroke-width="0.748718" stroke-miterlimit="10"/>
<path d="M94.7109 69.3604L94.6219 74.6309C94.8009 74.8178 94.9798 75.0048 95.098 75.1907L95.187 69.9201C95.0688 69.7342 94.8899 69.5473 94.7109 69.3604Z" fill="white" stroke="#1A1A1A" stroke-width="0.748718" stroke-miterlimit="10"/>
<path d="M95.1816 69.915L95.0926 75.1856C95.2716 75.3725 95.3898 75.5584 95.5677 75.8066L95.6567 70.5361C95.5395 70.2889 95.3606 70.102 95.1816 69.915Z" fill="white" stroke="#1A1A1A" stroke-width="0.748718" stroke-miterlimit="10"/>
<path d="M95.6543 70.4731L95.5653 75.7437C95.7442 75.9306 95.8614 76.1778 95.9797 76.3637L96.0687 71.0932C95.9504 70.9073 95.8322 70.7214 95.6543 70.4731Z" fill="white" stroke="#1A1A1A" stroke-width="0.748718" stroke-miterlimit="10"/>
<path d="M96.1387 71.0991L96.0497 76.3697C96.2276 76.6179 96.3458 76.8038 96.463 77.051L96.552 71.7804C96.4338 71.5945 96.2559 71.3463 96.1387 71.0991Z" fill="white" stroke="#1A1A1A" stroke-width="0.748718" stroke-miterlimit="10"/>
<path d="M96.5449 71.8472L96.4559 77.1177C96.6338 77.3659 96.75 77.6744 96.8672 77.9216L96.9562 72.651C96.84 72.3426 96.6621 72.0944 96.5449 71.8472Z" fill="white" stroke="#1A1A1A" stroke-width="0.748718" stroke-miterlimit="10"/>
<path d="M96.9551 72.6514L96.8661 77.9219C96.9822 78.2304 97.0984 78.5389 97.2146 78.8473L97.3036 73.5768C97.1874 73.2683 97.0713 72.9598 96.9551 72.6514Z" fill="white" stroke="#1A1A1A" stroke-width="0.748718" stroke-miterlimit="10"/>
<path d="M97.3027 73.5698L97.2137 78.8404C97.3278 79.2714 97.443 79.6412 97.4964 80.0712L97.5854 74.8007C97.532 74.3706 97.4168 74.0009 97.3027 73.5698Z" fill="white" stroke="#1A1A1A" stroke-width="0.748718" stroke-miterlimit="10"/>
<path d="M97.5918 74.8052L97.5028 80.0757C97.6159 80.5681 97.6065 81.1196 97.5983 81.6099L97.6873 76.3394C97.7562 75.8501 97.7049 75.2975 97.5918 74.8052Z" fill="white" stroke="#1A1A1A" stroke-width="0.748718" stroke-miterlimit="10"/>
<path d="M97.6531 81.6596L97.7421 76.389C97.8042 72.7119 95.4382 69.0551 90.6914 66.2163L90.6024 71.4869C95.3492 74.3256 97.7152 77.9825 97.6531 81.6596Z" stroke="#1A1A1A" stroke-width="0.748718" stroke-miterlimit="10"/>
<path d="M48.709 75.688L48.62 80.9585C48.5568 84.6969 50.9814 88.4773 55.7879 91.3784L55.8769 86.1079C51.0715 83.1455 48.7065 79.4274 48.709 75.688Z" fill="white"/>
<path d="M48.709 75.688L48.62 81.5168C48.5568 85.2552 55.085 95.9729 73.793 95.9729L73.793 90.4456C52.534 90.0204 48.7065 79.4274 48.709 75.688Z" fill="white" stroke="#1A1A1A" stroke-width="0.748718" stroke-miterlimit="10"/>
<path fill-rule="evenodd" clip-rule="evenodd" d="M80.8986 95.216C84.5629 94.5828 88.0118 93.4381 90.9175 91.7764C95.6989 88.9759 98.1273 85.3388 98.1894 81.6617L98.2784 76.3911C98.2163 80.0682 95.7879 83.7054 91.0065 86.5059C88.0774 88.181 84.596 89.3364 80.8986 89.9725L80.8986 95.216Z" fill="#1A1A1A"/>
<path d="M80.8986 95.216L80.5242 95.216L80.5242 95.6606L80.9623 95.5849L80.8986 95.216ZM90.9175 91.7764L91.1034 92.1014L91.1067 92.0994L90.9175 91.7764ZM98.1894 81.6617L97.8151 81.6553L98.1894 81.6617ZM91.0065 86.5059L91.1924 86.8309L91.1957 86.8289L91.0065 86.5059ZM80.8986 89.9725L80.8351 89.6036L80.5242 89.657L80.5242 89.9725L80.8986 89.9725ZM80.9623 95.5849C84.6605 94.9459 88.1526 93.7889 91.1033 92.1014L90.7316 91.4514C87.871 93.0874 84.4652 94.2198 80.8348 94.8472L80.9623 95.5849ZM91.1067 92.0994C95.9555 89.2595 98.4987 85.5209 98.5637 81.668L97.8151 81.6553C97.756 85.1567 95.4423 88.6924 90.7283 91.4534L91.1067 92.0994ZM98.5637 81.668L98.6527 76.3974L97.9041 76.3848L97.8151 81.6553L98.5637 81.668ZM97.9041 76.3848C97.845 79.8862 95.5313 83.4218 90.8173 86.1829L91.1957 86.8289C96.0445 83.989 98.5877 80.2503 98.6527 76.3974L97.9041 76.3848ZM90.8207 86.1809C87.9366 87.8303 84.4985 88.9733 80.8351 89.6036L80.962 90.3414C84.6936 89.6994 88.2181 88.5318 91.1924 86.8309L90.8207 86.1809ZM80.5242 89.9725L80.5242 95.216L81.2729 95.216L81.2729 89.9725L80.5242 89.9725Z" fill="#1A1A1A"/>
<path fill-rule="evenodd" clip-rule="evenodd" d="M80.9011 95.596C84.6262 94.9587 88.1404 93.7974 91.1059 92.1015L91.1092 92.0995C95.958 89.2596 98.5012 85.521 98.5663 81.6681L98.6553 76.3975L97.9067 76.3849C97.8475 79.8859 95.5343 83.4212 90.8214 86.1821C87.9522 87.8226 84.5367 88.9609 80.9011 89.5927L80.9011 90.3524C84.6594 89.7122 88.206 88.5403 91.1949 86.831L91.1982 86.829C94.5035 84.8931 96.7374 82.5396 97.8453 80.017L97.8176 81.6554C97.7585 85.1564 95.4453 88.6917 90.7324 91.4526C87.8867 93.0797 84.5036 94.2073 80.9011 94.8362L80.9011 95.596Z" fill="#1A1A1A"/>
<path d="M90.954 86.4544C100.637 80.9167 100.671 71.7219 91.057 65.981C81.4431 60.2401 65.7269 60.036 56.0439 65.5736C46.3608 71.1112 46.3269 80.3061 55.9409 86.047C65.5538 91.8492 81.271 91.992 90.954 86.4544Z" fill="white" stroke="#1A1A1A" stroke-width="0.748718" stroke-miterlimit="10"/>
<ellipse rx="20.2485" ry="11.4532" transform="matrix(0.999985 0.00540431 0.0121446 0.999926 73.6216 75.68)" fill="#5E5FF5"/>
<path fill-rule="evenodd" clip-rule="evenodd" d="M63.4481 71.4262L59.3984 71.4043L69.6523 82.1479L72.9838 78.6032L70.933 76.4545L70.5998 76.8089L69.6004 77.8723L68.575 76.798L63.4481 71.4262ZM71.5993 75.7455L72.6247 76.8199L73.6501 77.8942L75.1881 79.5058L77.7516 82.1917L87.7459 71.5575L83.6962 71.5356L78.6991 76.8527L77.6997 77.9161L76.6743 76.8418L75.6489 75.7674L73.5981 73.6187L71.5473 71.47L67.4977 71.4481L71.5993 75.7455ZM79.6466 71.5137L76.3152 75.0585L74.2644 72.9097L75.597 71.4918L79.6466 71.5137Z" fill="white"/>
<path d="M90.954 86.5682C100.637 81.0305 100.671 71.8357 91.057 66.0948C81.4431 60.3538 65.7269 60.1497 56.0439 65.6874C46.3608 71.225 46.3269 80.4198 55.9409 86.1608C65.5538 91.963 81.271 92.1058 90.954 86.5682Z" fill="#1A1A1A" stroke="#1A1A1A" stroke-width="0.748718" stroke-miterlimit="10"/>
<path d="M49.2501 70.6616L49.1611 75.9321C49.2222 72.3163 51.5889 68.7394 56.3075 66.0604C65.8065 60.6423 81.1596 60.779 90.5926 66.4556L90.6816 61.185C81.2476 55.5697 65.8955 55.3718 56.3966 60.7899C51.6779 63.4688 49.3112 67.0458 49.2501 70.6616Z" fill="white"/>
<path d="M49.2588 70.6623L49.1698 75.9328C49.1925 74.5845 49.5197 73.1801 50.2706 71.8441L50.3596 66.5736C49.6694 67.9106 49.2826 69.2527 49.2588 70.6623Z" fill="white" stroke="#1A1A1A" stroke-width="0.748718" stroke-miterlimit="10"/>
<path d="M50.3592 66.5682L50.2702 71.8388C50.4585 71.4741 50.7084 71.0492 50.9573 70.6856L51.0463 65.4151C50.7974 65.7787 50.5475 66.2036 50.3592 66.5682Z" fill="white" stroke="#1A1A1A" stroke-width="0.748718" stroke-miterlimit="10"/>
<path d="M51.0422 65.4107L50.9531 70.6813C51.1403 70.3779 51.3872 70.1369 51.5744 69.8335L51.6634 64.563C51.4762 64.8663 51.2294 65.1074 51.0422 65.4107Z" fill="white" stroke="#1A1A1A" stroke-width="0.748718" stroke-miterlimit="10"/>
<path d="M51.7259 64.5675L51.6369 69.838C51.823 69.5959 52.0699 69.3549 52.256 69.1128L52.345 63.8423C52.0982 64.0833 51.912 64.3254 51.7259 64.5675Z" fill="white" stroke="#1A1A1A" stroke-width="0.748718" stroke-miterlimit="10"/>
<path d="M52.3421 63.8489L52.2531 69.1195C52.4393 68.8774 52.6851 68.6977 52.9319 68.4566L53.021 63.1861C52.7741 63.4271 52.5273 63.6682 52.3421 63.8489Z" fill="white" stroke="#1A1A1A" stroke-width="0.748718" stroke-miterlimit="10"/>
<path d="M53.02 63.2391L52.931 68.5096C53.1161 68.3288 53.3619 68.1491 53.6077 67.9693L53.6967 62.6988C53.3913 62.8162 53.2061 62.997 53.02 63.2391Z" fill="white" stroke="#1A1A1A" stroke-width="0.748718" stroke-miterlimit="10"/>
<path d="M53.6411 62.637L53.5521 67.9076C53.7372 67.7268 53.983 67.547 54.2288 67.3673L54.3178 62.0967C54.071 62.3378 53.8869 62.4573 53.6411 62.637Z" fill="white" stroke="#1A1A1A" stroke-width="0.748718" stroke-miterlimit="10"/>
<path d="M54.3179 62.1563L54.2289 67.4268C54.4747 67.2471 54.6588 67.1276 54.9046 66.9478L54.9936 61.6773C54.7488 61.7958 54.503 61.9755 54.3179 62.1563Z" fill="white" stroke="#1A1A1A" stroke-width="0.748718" stroke-miterlimit="10"/>
<path d="M54.9928 61.679L54.9037 66.9495C55.1496 66.7698 55.3337 66.6503 55.5784 66.5318L55.6674 61.2613C55.4227 61.3797 55.1779 61.4982 54.9928 61.679Z" fill="white" stroke="#1A1A1A" stroke-width="0.748718" stroke-miterlimit="10"/>
<path d="M55.6646 61.2078L55.5756 66.4784C55.8204 66.3599 56.0662 66.1801 56.311 66.0616L56.4 60.7911C56.0945 60.9086 55.9094 61.0893 55.6646 61.2078Z" fill="white" stroke="#1A1A1A" stroke-width="0.748718" stroke-miterlimit="10"/>
<path d="M56.3473 60.7823L56.2583 66.0528L56.319 66.0538C56.5638 65.9354 56.7479 65.8159 56.9926 65.6974L57.0816 60.4268C56.8379 60.484 56.6538 60.6035 56.3473 60.7823C56.3878 60.7829 56.3878 60.7829 56.3473 60.7823Z" fill="white"/>
<path d="M56.3473 60.7823L56.2583 66.0528L56.319 66.0538C56.5638 65.9354 56.7479 65.8159 56.9926 65.6974L57.0816 60.4268C56.8379 60.484 56.6538 60.6035 56.3473 60.7823C56.3878 60.7829 56.3878 60.7829 56.3473 60.7823" stroke="#1A1A1A" stroke-width="0.748718" stroke-miterlimit="10"/>
<path d="M57.0836 60.3667L56.9946 65.6373C57.2394 65.5188 57.4842 65.4003 57.7289 65.2819L57.8179 60.0113C57.5732 60.1298 57.3284 60.2483 57.0836 60.3667Z" fill="white" stroke="#1A1A1A" stroke-width="0.748718" stroke-miterlimit="10"/>
<path d="M57.8063 60.0142L57.7173 65.2847C57.9621 65.1663 58.2068 65.0478 58.4516 64.9293L58.5406 59.6588C58.3565 59.7783 58.0511 59.8957 57.8063 60.0142Z" fill="white" stroke="#1A1A1A" stroke-width="0.748718" stroke-miterlimit="10"/>
<path d="M58.6012 59.6538L58.5122 64.9244C58.757 64.8059 59.0017 64.6874 59.3072 64.57L59.3962 59.2995C59.0908 59.4169 58.846 59.5354 58.6012 59.6538Z" fill="white" stroke="#1A1A1A" stroke-width="0.748718" stroke-miterlimit="10"/>
<path d="M59.3366 59.3035L59.2476 64.574C59.4924 64.4556 59.7978 64.3381 60.0416 64.2809L60.1306 59.0104C59.8858 59.1289 59.6421 59.186 59.3366 59.3035Z" fill="white" stroke="#1A1A1A" stroke-width="0.748718" stroke-miterlimit="10"/>
<path d="M60.196 59.0105L60.107 64.2811C60.3518 64.1626 60.6562 64.1064 60.9616 63.989L61.0507 58.7184C60.7462 58.7746 60.4408 58.8921 60.196 59.0105Z" fill="white" stroke="#1A1A1A" stroke-width="0.748718" stroke-miterlimit="10"/>
<path d="M60.9909 58.7293L60.9019 63.9998C61.2074 63.8824 61.4511 63.8252 61.7565 63.7077L61.8456 58.4372C61.6008 58.5557 61.2964 58.6118 60.9909 58.7293Z" fill="white" stroke="#1A1A1A" stroke-width="0.748718" stroke-miterlimit="10"/>
<path d="M61.9147 58.4246L61.8257 63.6951C62.1312 63.5777 62.4356 63.5215 62.7411 63.4041L62.8301 58.1335C62.4639 58.25 62.1595 58.3061 61.9147 58.4246Z" fill="white" stroke="#1A1A1A" stroke-width="0.748718" stroke-miterlimit="10"/>
<path d="M62.7634 58.1372L62.6744 63.4078C62.9788 63.3516 63.2843 63.2342 63.5887 63.178L63.6777 57.9075C63.3723 58.0249 63.0679 58.0811 62.7634 58.1372Z" fill="white" stroke="#1A1A1A" stroke-width="0.748718" stroke-miterlimit="10"/>
<path d="M63.6755 57.9077L63.5865 63.1783C63.891 63.1221 64.1964 63.0047 64.5008 62.9485L64.5898 57.678C64.2844 57.7954 63.98 57.8516 63.6755 57.9077Z" fill="white" stroke="#1A1A1A" stroke-width="0.748718" stroke-miterlimit="10"/>
<path d="M64.5906 57.6761L64.5016 62.9466C64.8061 62.8904 65.1105 62.8343 65.4149 62.7781L65.5039 57.5076C65.1995 57.5637 64.8951 57.6199 64.5906 57.6761Z" fill="white" stroke="#1A1A1A" stroke-width="0.748718" stroke-miterlimit="10"/>
<path d="M65.4988 57.51L65.4098 62.7806C65.7143 62.7244 66.0187 62.6682 66.3231 62.6121L66.4121 57.3415C66.1077 57.3977 65.8033 57.4539 65.4988 57.51Z" fill="white" stroke="#1A1A1A" stroke-width="0.748718" stroke-miterlimit="10"/>
<path d="M66.411 57.3396L66.3219 62.6102C66.6264 62.554 66.9308 62.4978 67.2352 62.4417L67.3242 57.1711C67.0198 57.2273 66.7154 57.2834 66.411 57.3396Z" fill="white" stroke="#1A1A1A" stroke-width="0.748718" stroke-miterlimit="10"/>
<path d="M67.3261 57.2271L67.237 62.4976C67.5415 62.4414 67.8459 62.3853 68.1493 62.3904L68.2383 57.1199C67.9349 57.1147 67.6305 57.1709 67.3261 57.2271Z" fill="white" stroke="#1A1A1A" stroke-width="0.748718" stroke-miterlimit="10"/>
<path d="M68.1815 57.0606L68.0925 62.3311C68.3969 62.2749 68.7003 62.2801 69.0047 62.2239L69.0937 56.9534C68.7893 57.0095 68.4849 57.0657 68.1815 57.0606Z" fill="white" stroke="#1A1A1A" stroke-width="0.748718" stroke-miterlimit="10"/>
<path d="M69.0956 57.021L69.0066 62.2915C69.311 62.2354 69.6144 62.2405 69.9188 62.1843L70.0078 56.9138C69.7034 56.97 69.4 56.9648 69.0956 57.021Z" fill="white" stroke="#1A1A1A" stroke-width="0.748718" stroke-miterlimit="10"/>
<path d="M70.0087 56.908L69.9197 62.1785C70.2848 62.1234 70.5882 62.1285 70.9523 62.1346L71.0413 56.8641C70.6772 56.858 70.3728 56.9141 70.0087 56.908Z" fill="white" stroke="#1A1A1A" stroke-width="0.748718" stroke-miterlimit="10"/>
<path d="M71.0302 56.8567L70.9412 62.1272C71.3053 62.1334 71.731 62.0793 72.0951 62.0854L72.1841 56.8149C71.7594 56.8077 71.3953 56.8016 71.0302 56.8567Z" fill="white" stroke="#1A1A1A" stroke-width="0.748718" stroke-miterlimit="10"/>
<path d="M72.1982 56.825L72.1092 62.0955C72.7159 62.1058 73.2631 62.0537 73.8698 62.0639L73.9588 56.7934C73.3521 56.7831 72.7453 56.7729 72.1982 56.825Z" fill="white" stroke="#1A1A1A" stroke-width="0.748718" stroke-miterlimit="10"/>
<path d="M73.8926 56.7954L73.8036 62.066C74.5924 62.0793 75.4418 62.0936 76.2296 62.1682L76.3186 56.8977C75.5298 56.8844 74.742 56.8098 73.8926 56.7954Z" fill="white" stroke="#1A1A1A" stroke-width="0.748718" stroke-miterlimit="10"/>
<path d="M76.3145 56.9619L76.2254 62.2325C76.8312 62.304 77.4986 62.3153 78.1033 62.4481L78.1923 57.1775C77.5876 57.0447 76.9819 56.9732 76.3145 56.9619Z" fill="white" stroke="#1A1A1A" stroke-width="0.748718" stroke-miterlimit="10"/>
<path d="M78.1934 57.1084L78.1044 62.3789C78.528 62.4474 78.9517 62.5159 79.3754 62.5843L79.4645 57.3138C79.0408 57.2453 78.6171 57.1769 78.1934 57.1084Z" fill="white" stroke="#1A1A1A" stroke-width="0.748718" stroke-miterlimit="10"/>
<path d="M79.459 57.3179L79.37 62.5884C79.733 62.6558 80.0353 62.7222 80.3984 62.7897L80.4874 57.5191C80.1254 57.3904 79.823 57.324 79.459 57.3179Z" fill="white" stroke="#1A1A1A" stroke-width="0.748718" stroke-miterlimit="10"/>
<path d="M80.4863 57.4565L80.3973 62.7271C80.7603 62.7945 81.0627 62.8609 81.4257 62.9284L81.5147 57.6578C81.1517 57.5904 80.8493 57.524 80.4863 57.4565Z" fill="white" stroke="#1A1A1A" stroke-width="0.748718" stroke-miterlimit="10"/>
<path d="M81.5293 57.6587L81.4403 62.9292C81.7426 62.9956 82.1057 63.0631 82.408 63.1295L82.497 57.8589C82.1947 57.7925 81.8316 57.7251 81.5293 57.6587Z" fill="white" stroke="#1A1A1A" stroke-width="0.748718" stroke-miterlimit="10"/>
<path d="M82.4883 57.9199L82.3993 63.1905C82.7016 63.2569 83.0636 63.3856 83.366 63.452L83.455 58.1815C83.1537 58.0538 82.7906 57.9863 82.4883 57.9199Z" fill="white" stroke="#1A1A1A" stroke-width="0.748718" stroke-miterlimit="10"/>
<path d="M83.4512 58.1221L83.3622 63.3926C83.6645 63.459 84.0265 63.5877 84.3288 63.6541L84.4179 58.3836C84.1155 58.3172 83.8132 58.2508 83.4512 58.1221Z" fill="white" stroke="#1A1A1A" stroke-width="0.748718" stroke-miterlimit="10"/>
<path d="M84.418 58.4429L84.329 63.7134C84.6303 63.8411 84.9933 63.9085 85.2946 64.0362L85.3836 58.7657C85.0823 58.638 84.781 58.5103 84.418 58.4429Z" fill="white" stroke="#1A1A1A" stroke-width="0.748718" stroke-miterlimit="10"/>
<path d="M85.4531 58.7715L85.3641 64.042C85.6654 64.1697 86.0285 64.2372 86.3298 64.3648L86.4188 59.0943C86.0568 58.9656 85.7555 58.8379 85.4531 58.7715Z" fill="white" stroke="#1A1A1A" stroke-width="0.748718" stroke-miterlimit="10"/>
<path d="M86.3574 59.084L86.2684 64.3545C86.5697 64.4822 86.871 64.6099 87.1723 64.7376L87.2614 59.4671C87.0207 59.3404 86.7194 59.2127 86.3574 59.084Z" fill="white" stroke="#1A1A1A" stroke-width="0.748718" stroke-miterlimit="10"/>
<path d="M87.3164 59.4722L87.2274 64.7427C87.5287 64.8704 87.83 64.9981 88.0706 65.1248L88.1597 59.8542C87.8594 59.6652 87.6188 59.5386 87.3164 59.4722Z" fill="white" stroke="#1A1A1A" stroke-width="0.748718" stroke-miterlimit="10"/>
<path d="M88.1641 59.8564L88.0751 65.127C88.3764 65.2547 88.617 65.3814 88.9183 65.509L89.0073 60.2385C88.706 60.1108 88.4654 59.9841 88.1641 59.8564Z" fill="white" stroke="#1A1A1A" stroke-width="0.748718" stroke-miterlimit="10"/>
<path d="M89.0078 60.2363L88.9188 65.5069C89.1594 65.6335 89.4608 65.7612 89.7014 65.8879L89.7904 60.6174C89.5498 60.4907 89.2484 60.363 89.0078 60.2363Z" fill="white" stroke="#1A1A1A" stroke-width="0.748718" stroke-miterlimit="10"/>
<path d="M89.7812 60.6089L89.6922 65.8794C89.9329 66.0061 90.1735 66.1328 90.4131 66.3207L90.5021 61.0502C90.2625 60.8622 90.0219 60.7356 89.7812 60.6089Z" fill="white" stroke="#1A1A1A" stroke-width="0.748718" stroke-miterlimit="10"/>
<path d="M90.5137 61.0601L90.4247 66.3306C90.4843 66.3929 90.545 66.3939 90.6046 66.4563L90.6936 61.1857C90.634 61.1234 90.5743 61.0611 90.5137 61.0601Z" fill="white" stroke="#1A1A1A" stroke-width="0.748718" stroke-miterlimit="10"/>
<path d="M49.2501 70.6616L49.1611 75.9321C49.2222 72.3163 51.5889 68.7394 56.3075 66.0604C65.8065 60.6423 81.1596 60.779 90.5926 66.4556L90.6816 61.185C81.2476 55.5697 65.8955 55.3718 56.3966 60.7899C51.6779 63.4688 49.3112 67.0458 49.2501 70.6616Z" stroke="#1A1A1A" stroke-width="0.748718" stroke-miterlimit="10"/>
<path d="M97.6511 76.6303L97.7402 71.3597C97.8023 67.6826 95.4363 64.0258 90.6895 61.187L90.6004 66.4576C95.3473 69.2963 97.7132 72.9532 97.6511 76.6303Z" fill="white"/>
<path d="M90.6934 61.1313L90.6044 66.4019C90.7843 66.5275 90.9653 66.5919 91.1453 66.7175L91.2343 61.447C91.0533 61.3826 90.8733 61.257 90.6934 61.1313Z" fill="white" stroke="#1A1A1A" stroke-width="0.748718" stroke-miterlimit="10"/>
<path d="M91.2305 61.4443L91.1415 66.7149C91.3821 66.8415 91.561 67.0285 91.8017 67.1551L91.8907 61.8846C91.65 61.7579 91.4094 61.6313 91.2305 61.4443Z" fill="white" stroke="#1A1A1A" stroke-width="0.748718" stroke-miterlimit="10"/>
<path d="M91.8984 61.8838L91.8094 67.1543C92.0501 67.281 92.229 67.4679 92.4089 67.5936L92.498 62.323C92.318 62.1974 92.0774 62.0707 91.8984 61.8838Z" fill="white" stroke="#1A1A1A" stroke-width="0.748718" stroke-miterlimit="10"/>
<path d="M92.4941 62.3906L92.4051 67.6612C92.5851 67.7868 92.8247 67.9748 93.0046 68.1004L93.0937 62.8299C92.9147 62.6429 92.7348 62.5173 92.4941 62.3906Z" fill="white" stroke="#1A1A1A" stroke-width="0.748718" stroke-miterlimit="10"/>
<path d="M93.0898 62.8223L93.0008 68.0928C93.1798 68.2797 93.3597 68.4054 93.5386 68.5923L93.6276 63.3218C93.4487 63.1348 93.2698 62.9479 93.0898 62.8223Z" fill="white" stroke="#1A1A1A" stroke-width="0.748718" stroke-miterlimit="10"/>
<path d="M93.6367 63.3291L93.5477 68.5996C93.7266 68.7866 93.9066 68.9122 94.0855 69.0991L94.1745 63.8286C94.0563 63.6427 93.8774 63.4558 93.6367 63.3291Z" fill="white" stroke="#1A1A1A" stroke-width="0.748718" stroke-miterlimit="10"/>
<path d="M94.1699 63.7725L94.0809 69.043C94.2598 69.2299 94.4388 69.4169 94.6187 69.5425L94.7077 64.272C94.5278 64.1463 94.3488 63.9594 94.1699 63.7725Z" fill="white" stroke="#1A1A1A" stroke-width="0.748718" stroke-miterlimit="10"/>
<path d="M94.709 64.3267L94.62 69.5972C94.7989 69.7841 94.9778 69.9711 95.0961 70.157L95.1851 64.8864C95.0668 64.7005 94.8879 64.5136 94.709 64.3267Z" fill="white" stroke="#1A1A1A" stroke-width="0.748718" stroke-miterlimit="10"/>
<path d="M95.1797 64.8813L95.0907 70.1519C95.2696 70.3388 95.3878 70.5247 95.5657 70.7729L95.6547 65.5024C95.5375 65.2552 95.3586 65.0683 95.1797 64.8813Z" fill="white" stroke="#1A1A1A" stroke-width="0.748718" stroke-miterlimit="10"/>
<path d="M95.6523 65.4395L95.5633 70.71C95.7423 70.8969 95.8595 71.1441 95.9777 71.33L96.0667 66.0595C95.9485 65.8736 95.8302 65.6877 95.6523 65.4395Z" fill="white" stroke="#1A1A1A" stroke-width="0.748718" stroke-miterlimit="10"/>
<path d="M96.1367 66.0654L96.0477 71.336C96.2256 71.5842 96.3438 71.7701 96.461 72.0173L96.5501 66.7467C96.4318 66.5608 96.2539 66.3126 96.1367 66.0654Z" fill="white" stroke="#1A1A1A" stroke-width="0.748718" stroke-miterlimit="10"/>
<path d="M96.543 66.8135L96.454 72.084C96.6318 72.3322 96.748 72.6407 96.8652 72.8879L96.9543 67.6174C96.8381 67.3089 96.6602 67.0607 96.543 66.8135Z" fill="white" stroke="#1A1A1A" stroke-width="0.748718" stroke-miterlimit="10"/>
<path d="M96.9531 67.6177L96.8641 72.8882C96.9803 73.1967 97.0965 73.5052 97.2127 73.8136L97.3017 68.5431C97.1855 68.2346 97.0693 67.9262 96.9531 67.6177Z" fill="white" stroke="#1A1A1A" stroke-width="0.748718" stroke-miterlimit="10"/>
<path d="M97.3008 68.5361L97.2118 73.8067C97.3259 74.2377 97.441 74.6075 97.4945 75.0375L97.5835 69.767C97.53 69.3369 97.4149 68.9672 97.3008 68.5361Z" fill="white" stroke="#1A1A1A" stroke-width="0.748718" stroke-miterlimit="10"/>
<path d="M97.5898 69.7715L97.5008 75.042C97.6139 75.5344 97.6046 76.0859 97.5963 76.5762L97.6853 71.3057C97.7543 70.8164 97.7029 70.2638 97.5898 69.7715Z" fill="white" stroke="#1A1A1A" stroke-width="0.748718" stroke-miterlimit="10"/>
<path d="M97.6511 76.6303L97.7402 71.3597C97.8023 67.6826 95.4363 64.0258 90.6895 61.187L90.6004 66.4576C95.3473 69.2963 97.7132 72.9532 97.6511 76.6303Z" stroke="#1A1A1A" stroke-width="0.748718" stroke-miterlimit="10"/>
<path d="M48.707 70.6582L48.618 75.9287C48.5549 79.6671 50.9795 83.4476 55.7859 86.3487L55.8749 81.0781C51.0695 78.1157 48.7046 74.3976 48.707 70.6582Z" fill="white"/>
<path d="M48.707 70.6582L48.618 76.487C48.5549 80.2254 55.0831 90.9432 73.791 90.9432L73.791 85.4158C52.532 84.9906 48.7046 74.3976 48.707 70.6582Z" fill="white" stroke="#1A1A1A" stroke-width="0.748718" stroke-miterlimit="10"/>
<path fill-rule="evenodd" clip-rule="evenodd" d="M80.8966 90.1861C84.5605 89.5528 88.0091 88.4082 90.9145 86.7466C95.6959 83.9461 98.1243 80.309 98.1864 76.6319L98.2754 71.3613C98.2133 75.0384 95.7849 78.6756 91.0035 81.4761C88.0746 83.1511 84.5937 84.3064 80.8966 84.9425L80.8966 90.1861Z" fill="#1A1A1A"/>
<path d="M80.8966 90.1861L80.5223 90.1861L80.5223 90.6307L80.9604 90.555L80.8966 90.1861ZM90.9145 86.7466L91.1004 87.0716L91.1037 87.0696L90.9145 86.7466ZM91.0035 81.4761L91.1894 81.8011L91.1927 81.7991L91.0035 81.4761ZM80.8966 84.9425L80.8331 84.5736L80.5223 84.6271L80.5223 84.9425L80.8966 84.9425ZM80.9604 90.555C84.6582 89.9158 88.1499 88.7589 91.1004 87.0716L90.7287 86.4216C87.8683 88.0575 84.4628 89.1898 80.8329 89.8172L80.9604 90.555ZM91.1037 87.0696C95.9525 84.2297 98.4957 80.4911 98.5607 76.6382L97.8121 76.6255C97.753 80.1269 95.4393 83.6626 90.7253 86.4236L91.1037 87.0696ZM98.5607 76.6382L98.6498 71.3676L97.9011 71.355L97.8121 76.6255L98.5607 76.6382ZM97.9011 71.355C97.842 74.8564 95.5283 78.392 90.8143 81.1531L91.1927 81.7991C96.0415 78.9592 98.5847 75.2205 98.6498 71.3676L97.9011 71.355ZM90.8177 81.1511C87.9339 82.8003 84.4961 83.9433 80.8331 84.5736L80.9601 85.3115C84.6913 84.6694 88.2154 83.5018 91.1894 81.8011L90.8177 81.1511ZM80.5223 84.9425L80.5223 90.1861L81.271 90.1861L81.271 84.9425L80.5223 84.9425Z" fill="#1A1A1A"/>
<path fill-rule="evenodd" clip-rule="evenodd" d="M80.8972 90.5662C84.6223 89.9289 88.1365 88.7676 91.1019 87.0717L91.1053 87.0698C95.954 84.2298 98.4972 80.4912 98.5623 76.6383L98.6513 71.3678L97.9027 71.3551C97.8436 74.8561 95.5304 78.3914 90.8174 81.1523C87.9482 82.7928 84.5328 83.9311 80.8972 84.5629L80.8972 85.3226C84.6555 84.6824 88.2021 83.5105 91.1909 81.8012L91.1943 81.7992C94.4995 79.8633 96.7334 77.5098 97.8414 74.9872L97.8137 76.6257C97.7546 80.1266 95.4414 83.6619 90.7284 86.4228C87.8828 88.0499 84.4997 89.1775 80.8972 89.8064L80.8972 90.5662Z" fill="#1A1A1A"/>
<path d="M90.9521 81.4246C100.635 75.887 100.669 66.6921 91.0551 60.9512C81.4411 55.2103 65.725 55.0062 56.0419 60.5438C46.3589 66.0814 46.325 75.2763 55.9389 81.0172C65.5519 86.8194 81.269 86.9622 90.9521 81.4246Z" fill="white" stroke="#1A1A1A" stroke-width="0.748718" stroke-miterlimit="10"/>
<ellipse rx="20.2485" ry="11.4532" transform="matrix(0.999985 0.00540431 0.0121446 0.999926 73.6236 70.6473)" fill="#5E5FF5"/>
<path fill-rule="evenodd" clip-rule="evenodd" d="M63.45 66.3935L59.4004 66.3716L69.6543 77.1152L72.9857 73.5705L70.9349 71.4217L70.6018 71.7762L69.6024 72.8396L68.577 71.7653L63.45 66.3935ZM71.6012 70.7128L72.6266 71.7872L73.652 72.8615L75.1901 74.4731L77.7536 77.159L87.7478 66.5248L83.6982 66.5029L78.7011 71.82L77.7016 72.8834L76.6762 71.809L75.6509 70.7347L73.6001 68.586L71.5493 66.4372L67.4997 66.4154L71.6012 70.7128ZM79.6486 66.481L76.3171 70.0257L74.2664 67.877L75.5989 66.4591L79.6486 66.481Z" fill="white"/>
<path d="M90.9521 78.4231C100.635 72.8855 100.669 63.6907 91.0551 57.9497C81.4411 52.2088 65.725 52.0047 56.0419 57.5423C46.3589 63.08 46.325 72.2748 55.9389 78.0157C65.5519 83.8179 81.269 83.9608 90.9521 78.4231Z" fill="#1A1A1A" stroke="#1A1A1A" stroke-width="0.748718" stroke-miterlimit="10"/>
<path d="M49.2482 62.1601L49.1591 67.4306C49.2202 63.8148 51.587 60.2379 56.3056 57.559C65.8046 52.1408 81.1576 52.2775 90.5906 57.9541L90.6796 52.6835C81.2456 47.0683 65.8936 46.8703 56.3946 52.2884C51.676 54.9674 49.3092 58.5443 49.2482 62.1601Z" fill="white"/>
<path d="M49.2568 62.1608L49.1678 67.4313C49.1906 66.0831 49.5178 64.6786 50.2686 63.3426L50.3577 58.0721C49.6674 59.4091 49.2806 60.7512 49.2568 62.1608Z" fill="white" stroke="#1A1A1A" stroke-width="0.748718" stroke-miterlimit="10"/>
<path d="M50.3573 58.0668L50.2683 63.3373C50.4565 62.9727 50.7065 62.5478 50.9554 62.1842L51.0444 56.9136C50.7955 57.2772 50.5455 57.7021 50.3573 58.0668Z" fill="white" stroke="#1A1A1A" stroke-width="0.748718" stroke-miterlimit="10"/>
<path d="M51.0402 56.9093L50.9512 62.1798C51.1384 61.8765 51.3852 61.6354 51.5724 61.332L51.6614 56.0615C51.4742 56.3649 51.2274 56.6059 51.0402 56.9093Z" fill="white" stroke="#1A1A1A" stroke-width="0.748718" stroke-miterlimit="10"/>
<path d="M51.7239 56.066L51.6349 61.3365C51.8211 61.0945 52.0679 60.8534 52.2541 60.6114L52.3431 55.3408C52.0962 55.5819 51.9101 55.8239 51.7239 56.066Z" fill="white" stroke="#1A1A1A" stroke-width="0.748718" stroke-miterlimit="10"/>
<path d="M52.3402 55.3475L52.2512 60.618C52.4373 60.376 52.6831 60.1962 52.93 59.9552L53.019 54.6846C52.7722 54.9257 52.5253 55.1667 52.3402 55.3475Z" fill="white" stroke="#1A1A1A" stroke-width="0.748718" stroke-miterlimit="10"/>
<path d="M53.018 54.7376L52.929 60.0081C53.1142 59.8274 53.36 59.6476 53.6058 59.4678L53.6948 54.1973C53.3893 54.3148 53.2042 54.4955 53.018 54.7376Z" fill="white" stroke="#1A1A1A" stroke-width="0.748718" stroke-miterlimit="10"/>
<path d="M53.6391 54.1355L53.5501 59.4061C53.7352 59.2253 53.9811 59.0456 54.2269 58.8658L54.3159 53.5953C54.069 53.8363 53.8849 53.9558 53.6391 54.1355Z" fill="white" stroke="#1A1A1A" stroke-width="0.748718" stroke-miterlimit="10"/>
<path d="M54.3159 53.6548L54.2269 58.9254C54.4727 58.7456 54.6568 58.6261 54.9026 58.4464L54.9916 53.1758C54.7469 53.2943 54.5011 53.4741 54.3159 53.6548Z" fill="white" stroke="#1A1A1A" stroke-width="0.748718" stroke-miterlimit="10"/>
<path d="M54.9908 53.1775L54.9018 58.4481C55.1476 58.2683 55.3317 58.1488 55.5765 58.0303L55.6655 52.7598C55.4207 52.8783 55.1759 52.9967 54.9908 53.1775Z" fill="white" stroke="#1A1A1A" stroke-width="0.748718" stroke-miterlimit="10"/>
<path d="M55.6627 52.7063L55.5737 57.9769C55.8184 57.8584 56.0643 57.6787 56.309 57.5602L56.398 52.2896C56.0926 52.4071 55.9075 52.5879 55.6627 52.7063Z" fill="white" stroke="#1A1A1A" stroke-width="0.748718" stroke-miterlimit="10"/>
<path d="M56.3454 52.2808L56.2563 57.5513L56.317 57.5524C56.5618 57.4339 56.7459 57.3144 56.9907 57.1959L57.0797 51.9254C56.8359 51.9826 56.6518 52.1021 56.3454 52.2808C56.3858 52.2815 56.3858 52.2815 56.3454 52.2808Z" fill="white"/>
<path d="M56.3454 52.2808L56.2563 57.5513L56.317 57.5524C56.5618 57.4339 56.7459 57.3144 56.9907 57.1959L57.0797 51.9254C56.8359 51.9826 56.6518 52.1021 56.3454 52.2808C56.3858 52.2815 56.3858 52.2815 56.3454 52.2808" stroke="#1A1A1A" stroke-width="0.748718" stroke-miterlimit="10"/>
<path d="M57.0817 51.8653L56.9927 57.1358C57.2374 57.0173 57.4822 56.8989 57.727 56.7804L57.816 51.5099C57.5712 51.6283 57.3265 51.7468 57.0817 51.8653Z" fill="white" stroke="#1A1A1A" stroke-width="0.748718" stroke-miterlimit="10"/>
<path d="M57.8043 51.5127L57.7153 56.7833C57.9601 56.6648 58.2049 56.5463 58.4497 56.4279L58.5387 51.1573C58.3546 51.2768 58.0491 51.3943 57.8043 51.5127Z" fill="white" stroke="#1A1A1A" stroke-width="0.748718" stroke-miterlimit="10"/>
<path d="M58.5993 51.1524L58.5103 56.4229C58.755 56.3045 58.9998 56.186 59.3052 56.0685L59.3942 50.798C59.0888 50.9154 58.844 51.0339 58.5993 51.1524Z" fill="white" stroke="#1A1A1A" stroke-width="0.748718" stroke-miterlimit="10"/>
<path d="M59.3347 50.802L59.2457 56.0726C59.4904 55.9541 59.7959 55.8367 60.0396 55.7795L60.1286 50.5089C59.8839 50.6274 59.6401 50.6846 59.3347 50.802Z" fill="white" stroke="#1A1A1A" stroke-width="0.748718" stroke-miterlimit="10"/>
<path d="M60.194 50.5091L60.105 55.7796C60.3498 55.6611 60.6542 55.605 60.9597 55.4875L61.0487 50.217C60.7443 50.2731 60.4388 50.3906 60.194 50.5091Z" fill="white" stroke="#1A1A1A" stroke-width="0.748718" stroke-miterlimit="10"/>
<path d="M60.989 50.2278L60.9 55.4984C61.2054 55.3809 61.4491 55.3237 61.7546 55.2063L61.8436 49.9357C61.5988 50.0542 61.2944 50.1104 60.989 50.2278Z" fill="white" stroke="#1A1A1A" stroke-width="0.748718" stroke-miterlimit="10"/>
<path d="M61.9128 49.9231L61.8238 55.1937C62.1292 55.0762 62.4337 55.0201 62.7391 54.9026L62.8281 49.6321C62.462 49.7485 62.1576 49.8047 61.9128 49.9231Z" fill="white" stroke="#1A1A1A" stroke-width="0.748718" stroke-miterlimit="10"/>
<path d="M62.7615 49.6358L62.6725 54.9063C62.9769 54.8501 63.2823 54.7327 63.5868 54.6765L63.6758 49.406C63.3703 49.5234 63.0659 49.5796 62.7615 49.6358Z" fill="white" stroke="#1A1A1A" stroke-width="0.748718" stroke-miterlimit="10"/>
<path d="M63.6736 49.4063L63.5846 54.6768C63.889 54.6207 64.1945 54.5032 64.4989 54.447L64.5879 49.1765C64.2824 49.294 63.978 49.3501 63.6736 49.4063Z" fill="white" stroke="#1A1A1A" stroke-width="0.748718" stroke-miterlimit="10"/>
<path d="M64.5887 49.1746L64.4997 54.4451C64.8041 54.389 65.1085 54.3328 65.4129 54.2766L65.5019 49.0061C65.1975 49.0623 64.8931 49.1184 64.5887 49.1746Z" fill="white" stroke="#1A1A1A" stroke-width="0.748718" stroke-miterlimit="10"/>
<path d="M65.4969 49.0086L65.4079 54.2791C65.7123 54.2229 66.0167 54.1668 66.3211 54.1106L66.4101 48.8401C66.1057 48.8962 65.8013 48.9524 65.4969 49.0086Z" fill="white" stroke="#1A1A1A" stroke-width="0.748718" stroke-miterlimit="10"/>
<path d="M66.409 48.8381L66.32 54.1087C66.6244 54.0525 66.9288 53.9964 67.2332 53.9402L67.3222 48.6697C67.0178 48.7258 66.7134 48.782 66.409 48.8381Z" fill="white" stroke="#1A1A1A" stroke-width="0.748718" stroke-miterlimit="10"/>
<path d="M67.3241 48.7256L67.2351 53.9961C67.5395 53.94 67.8439 53.8838 68.1473 53.8889L68.2363 48.6184C67.9329 48.6133 67.6285 48.6694 67.3241 48.7256Z" fill="white" stroke="#1A1A1A" stroke-width="0.748718" stroke-miterlimit="10"/>
<path d="M68.1796 48.5591L68.0906 53.8296C68.395 53.7735 68.6984 53.7786 69.0028 53.7224L69.0918 48.4519C68.7874 48.5081 68.483 48.5642 68.1796 48.5591Z" fill="white" stroke="#1A1A1A" stroke-width="0.748718" stroke-miterlimit="10"/>
<path d="M69.0936 48.5195L69.0046 53.7901C69.309 53.7339 69.6124 53.739 69.9168 53.6829L70.0058 48.4123C69.7014 48.4685 69.398 48.4634 69.0936 48.5195Z" fill="white" stroke="#1A1A1A" stroke-width="0.748718" stroke-miterlimit="10"/>
<path d="M70.0068 48.4065L69.9178 53.677C70.2829 53.6219 70.5862 53.627 70.9503 53.6332L71.0393 48.3626C70.6753 48.3565 70.3708 48.4127 70.0068 48.4065Z" fill="white" stroke="#1A1A1A" stroke-width="0.748718" stroke-miterlimit="10"/>
<path d="M71.0283 48.3552L70.9393 53.6258C71.3033 53.6319 71.7291 53.5778 72.0931 53.584L72.1821 48.3134C71.7574 48.3062 71.3934 48.3001 71.0283 48.3552Z" fill="white" stroke="#1A1A1A" stroke-width="0.748718" stroke-miterlimit="10"/>
<path d="M72.1962 48.3235L72.1072 53.594C72.714 53.6043 73.2611 53.5522 73.8679 53.5625L73.9569 48.2919C73.3501 48.2817 72.7433 48.2714 72.1962 48.3235Z" fill="white" stroke="#1A1A1A" stroke-width="0.748718" stroke-miterlimit="10"/>
<path d="M73.8906 48.2939L73.8016 53.5645C74.5904 53.5778 75.4399 53.5922 76.2276 53.6668L76.3166 48.3962C75.5278 48.3829 74.7401 48.3083 73.8906 48.2939Z" fill="white" stroke="#1A1A1A" stroke-width="0.748718" stroke-miterlimit="10"/>
<path d="M76.3125 48.4604L76.2235 53.731C76.8292 53.8025 77.4967 53.8138 78.1013 53.9466L78.1904 48.6761C77.5857 48.5432 76.9799 48.4717 76.3125 48.4604Z" fill="white" stroke="#1A1A1A" stroke-width="0.748718" stroke-miterlimit="10"/>
<path d="M78.1914 48.6069L78.1024 53.8775C78.5261 53.9459 78.9498 54.0144 79.3735 54.0829L79.4625 48.8123C79.0388 48.7439 78.6151 48.6754 78.1914 48.6069Z" fill="white" stroke="#1A1A1A" stroke-width="0.748718" stroke-miterlimit="10"/>
<path d="M79.457 48.8164L79.368 54.0869C79.731 54.1544 80.0334 54.2208 80.3964 54.2882L80.4854 49.0177C80.1234 48.889 79.8211 48.8226 79.457 48.8164Z" fill="white" stroke="#1A1A1A" stroke-width="0.748718" stroke-miterlimit="10"/>
<path d="M80.4844 48.9551L80.3954 54.2256C80.7584 54.2931 81.0607 54.3595 81.4237 54.4269L81.5128 49.1564C81.1497 49.0889 80.8474 49.0225 80.4844 48.9551Z" fill="white" stroke="#1A1A1A" stroke-width="0.748718" stroke-miterlimit="10"/>
<path d="M81.5273 49.1572L81.4383 54.4278C81.7407 54.4942 82.1037 54.5616 82.406 54.628L82.4951 49.3575C82.1927 49.2911 81.8297 49.2236 81.5273 49.1572Z" fill="white" stroke="#1A1A1A" stroke-width="0.748718" stroke-miterlimit="10"/>
<path d="M82.4863 49.4185L82.3973 54.689C82.6997 54.7554 83.0617 54.8841 83.364 54.9505L83.453 49.68C83.1517 49.5523 82.7887 49.4849 82.4863 49.4185Z" fill="white" stroke="#1A1A1A" stroke-width="0.748718" stroke-miterlimit="10"/>
<path d="M83.4492 49.6206L83.3602 54.8911C83.6626 54.9576 84.0245 55.0863 84.3269 55.1527L84.4159 49.8822C84.1136 49.8157 83.8112 49.7493 83.4492 49.6206Z" fill="white" stroke="#1A1A1A" stroke-width="0.748718" stroke-miterlimit="10"/>
<path d="M84.416 49.9414L84.327 55.2119C84.6283 55.3396 84.9913 55.4071 85.2926 55.5348L85.3816 50.2642C85.0803 50.1365 84.779 50.0088 84.416 49.9414Z" fill="white" stroke="#1A1A1A" stroke-width="0.748718" stroke-miterlimit="10"/>
<path d="M85.4512 50.27L85.3622 55.5406C85.6635 55.6683 86.0265 55.7357 86.3278 55.8634L86.4168 50.5928C86.0548 50.4641 85.7535 50.3364 85.4512 50.27Z" fill="white" stroke="#1A1A1A" stroke-width="0.748718" stroke-miterlimit="10"/>
<path d="M86.3555 50.5825L86.2665 55.8531C86.5678 55.9808 86.8691 56.1085 87.1704 56.2361L87.2594 50.9656C87.0188 50.8389 86.7175 50.7112 86.3555 50.5825Z" fill="white" stroke="#1A1A1A" stroke-width="0.748718" stroke-miterlimit="10"/>
<path d="M87.3145 50.9707L87.2254 56.2412C87.5268 56.3689 87.8281 56.4966 88.0687 56.6233L88.1577 51.3528C87.8574 51.1638 87.6168 51.0371 87.3145 50.9707Z" fill="white" stroke="#1A1A1A" stroke-width="0.748718" stroke-miterlimit="10"/>
<path d="M88.1621 51.355L88.0731 56.6255C88.3744 56.7532 88.615 56.8799 88.9164 57.0076L89.0054 51.737C88.704 51.6093 88.4634 51.4827 88.1621 51.355Z" fill="white" stroke="#1A1A1A" stroke-width="0.748718" stroke-miterlimit="10"/>
<path d="M89.0059 51.7349L88.9169 57.0054C89.1575 57.1321 89.4588 57.2598 89.6994 57.3864L89.7884 52.1159C89.5478 51.9892 89.2465 51.8615 89.0059 51.7349Z" fill="white" stroke="#1A1A1A" stroke-width="0.748718" stroke-miterlimit="10"/>
<path d="M89.7793 52.1074L89.6903 57.3779C89.9309 57.5046 90.1715 57.6313 90.4111 57.8192L90.5002 52.5487C90.2606 52.3607 90.0199 52.2341 89.7793 52.1074Z" fill="white" stroke="#1A1A1A" stroke-width="0.748718" stroke-miterlimit="10"/>
<path d="M90.5117 52.5586L90.4227 57.8291C90.4824 57.8914 90.543 57.8925 90.6027 57.9548L90.6917 52.6842C90.632 52.6219 90.5724 52.5596 90.5117 52.5586Z" fill="white" stroke="#1A1A1A" stroke-width="0.748718" stroke-miterlimit="10"/>
<path d="M49.2482 62.1601L49.1591 67.4306C49.2202 63.8148 51.587 60.2379 56.3056 57.559C65.8046 52.1408 81.1576 52.2775 90.5906 57.9541L90.6796 52.6835C81.2456 47.0683 65.8936 46.8703 56.3946 52.2884C51.676 54.9674 49.3092 58.5443 49.2482 62.1601Z" stroke="#1A1A1A" stroke-width="0.748718" stroke-miterlimit="10"/>
<path d="M97.6492 68.1283L97.7382 62.8578C97.8003 59.1807 95.4343 55.5238 90.6875 52.6851L90.5985 57.9556C95.3453 60.7944 97.7113 64.4512 97.6492 68.1283Z" fill="white"/>
<path d="M90.6914 52.6338L90.6024 57.9043C90.7824 58.03 90.9633 58.0943 91.1433 58.22L91.2323 52.9494C91.0513 52.8851 90.8714 52.7594 90.6914 52.6338Z" fill="white" stroke="#1A1A1A" stroke-width="0.748718" stroke-miterlimit="10"/>
<path d="M91.2285 52.9468L91.1395 58.2173C91.3801 58.344 91.5591 58.5309 91.7997 58.6576L91.8887 53.3871C91.6481 53.2604 91.4074 53.1337 91.2285 52.9468Z" fill="white" stroke="#1A1A1A" stroke-width="0.748718" stroke-miterlimit="10"/>
<path d="M91.8965 53.3862L91.8075 58.6568C92.0481 58.7834 92.227 58.9704 92.407 59.096L92.496 53.8255C92.316 53.6998 92.0754 53.5732 91.8965 53.3862Z" fill="white" stroke="#1A1A1A" stroke-width="0.748718" stroke-miterlimit="10"/>
<path d="M92.4922 53.8931L92.4032 59.1636C92.5831 59.2893 92.8227 59.4772 93.0027 59.6028L93.0917 54.3323C92.9128 54.1454 92.7328 54.0197 92.4922 53.8931Z" fill="white" stroke="#1A1A1A" stroke-width="0.748718" stroke-miterlimit="10"/>
<path d="M93.0879 54.3247L92.9989 59.5952C93.1778 59.7822 93.3578 59.9078 93.5367 60.0947L93.6257 54.8242C93.4468 54.6373 93.2678 54.4504 93.0879 54.3247Z" fill="white" stroke="#1A1A1A" stroke-width="0.748718" stroke-miterlimit="10"/>
<path d="M93.6328 54.8315L93.5438 60.1021C93.7227 60.289 93.9027 60.4147 94.0816 60.6016L94.1706 55.331C94.0524 55.1451 93.8734 54.9582 93.6328 54.8315Z" fill="white" stroke="#1A1A1A" stroke-width="0.748718" stroke-miterlimit="10"/>
<path d="M94.168 55.2749L94.079 60.5454C94.2579 60.7324 94.4368 60.9193 94.6168 61.0449L94.7058 55.7744C94.5258 55.6488 94.3469 55.4618 94.168 55.2749Z" fill="white" stroke="#1A1A1A" stroke-width="0.748718" stroke-miterlimit="10"/>
<path d="M94.707 55.8291L94.618 61.0996C94.7969 61.2866 94.9759 61.4735 95.0941 61.6594L95.1831 56.3889C95.0649 56.203 94.886 56.016 94.707 55.8291Z" fill="white" stroke="#1A1A1A" stroke-width="0.748718" stroke-miterlimit="10"/>
<path d="M95.1777 56.3838L95.0887 61.6543C95.2676 61.8413 95.3859 62.0272 95.5638 62.2754L95.6528 57.0048C95.5356 56.7576 95.3567 56.5707 95.1777 56.3838Z" fill="white" stroke="#1A1A1A" stroke-width="0.748718" stroke-miterlimit="10"/>
<path d="M95.6504 56.9419L95.5614 62.2124C95.7403 62.3994 95.8575 62.6466 95.9758 62.8325L96.0648 57.5619C95.9465 57.376 95.8283 57.1901 95.6504 56.9419Z" fill="white" stroke="#1A1A1A" stroke-width="0.748718" stroke-miterlimit="10"/>
<path d="M96.1348 57.5679L96.0458 62.8384C96.2236 63.0866 96.3419 63.2725 96.4591 63.5197L96.5481 58.2492C96.4299 58.0633 96.252 57.8151 96.1348 57.5679Z" fill="white" stroke="#1A1A1A" stroke-width="0.748718" stroke-miterlimit="10"/>
<path d="M96.541 58.3159L96.452 63.5865C96.6299 63.8347 96.7461 64.1431 96.8633 64.3903L96.9523 59.1198C96.8361 58.8113 96.6582 58.5631 96.541 58.3159Z" fill="white" stroke="#1A1A1A" stroke-width="0.748718" stroke-miterlimit="10"/>
<path d="M96.9512 59.1201L96.8622 64.3907C96.9783 64.6991 97.0945 65.0076 97.2107 65.3161L97.2997 60.0455C97.1835 59.7371 97.0673 59.4286 96.9512 59.1201Z" fill="white" stroke="#1A1A1A" stroke-width="0.748718" stroke-miterlimit="10"/>
<path d="M97.2988 60.0386L97.2098 65.3091C97.3239 65.7402 97.4391 66.1099 97.4925 66.5399L97.5815 61.2694C97.5281 60.8394 97.4129 60.4696 97.2988 60.0386Z" fill="white" stroke="#1A1A1A" stroke-width="0.748718" stroke-miterlimit="10"/>
<path d="M97.5879 61.2739L97.4989 66.5445C97.612 67.0368 97.6026 67.5884 97.5943 68.0787L97.6834 62.8081C97.7523 62.3189 97.701 61.7663 97.5879 61.2739Z" fill="white" stroke="#1A1A1A" stroke-width="0.748718" stroke-miterlimit="10"/>
<path d="M97.6492 68.1283L97.7382 62.8578C97.8003 59.1807 95.4343 55.5238 90.6875 52.6851L90.5985 57.9556C95.3453 60.7944 97.7113 64.4512 97.6492 68.1283Z" stroke="#1A1A1A" stroke-width="0.748718" stroke-miterlimit="10"/>
<path d="M48.7051 62.1567L48.6161 67.4273C48.5529 71.1657 50.9775 74.9461 55.784 77.8472L55.873 72.5767C51.0675 69.6143 48.7026 65.8962 48.7051 62.1567Z" fill="white"/>
<path d="M48.7051 62.1567L48.6161 67.9855C48.5529 71.7239 55.0811 82.4417 73.7891 82.4417L73.7891 76.9143C52.53 76.4892 48.7026 65.8962 48.7051 62.1567Z" fill="white" stroke="#1A1A1A" stroke-width="0.748718" stroke-miterlimit="10"/>
<path fill-rule="evenodd" clip-rule="evenodd" d="M80.8947 81.6848C84.5589 81.0515 88.0078 79.9069 90.9134 78.2452C95.6948 75.4447 98.1232 71.8075 98.1853 68.1304L98.2743 62.8599C98.2122 66.537 95.7838 70.1741 91.0024 72.9746C88.0733 74.6498 84.5921 75.8051 80.8947 76.4412L80.8947 81.6848Z" fill="#1A1A1A"/>
<path d="M80.8947 81.6848L80.5203 81.6848L80.5203 82.1294L80.9584 82.0537L80.8947 81.6848ZM90.9134 78.2452L91.0993 78.5701L91.1026 78.5682L90.9134 78.2452ZM91.0024 72.9746L91.1883 73.2996L91.1916 73.2977L91.0024 72.9746ZM80.8947 76.4412L80.8312 76.0723L80.5203 76.1258L80.5203 76.4412L80.8947 76.4412ZM80.9584 82.0537C84.6566 81.4146 88.1486 80.2576 91.0993 78.5701L90.7276 77.9202C87.867 79.5561 84.4612 80.6885 80.8309 81.3159L80.9584 82.0537ZM91.1026 78.5682C95.9514 75.7282 98.4946 71.9896 98.5596 68.1367L97.811 68.1241C97.7519 71.6254 95.4382 75.1611 90.7242 77.9221L91.1026 78.5682ZM98.5596 68.1367L98.6486 62.8662L97.9 62.8535L97.811 68.1241L98.5596 68.1367ZM97.9 62.8535C97.8409 66.3549 95.5272 69.8906 90.8132 72.6516L91.1916 73.2977C96.0404 70.4577 98.5836 66.7191 98.6486 62.8662L97.9 62.8535ZM90.8166 72.6497C87.9325 74.299 84.4945 75.442 80.8312 76.0723L80.9581 76.8101C84.6896 76.1682 88.2141 75.0005 91.1883 73.2996L90.8166 72.6497ZM80.5203 76.4412L80.5203 81.6848L81.269 81.6848L81.269 76.4412L80.5203 76.4412Z" fill="#1A1A1A"/>
<path fill-rule="evenodd" clip-rule="evenodd" d="M80.8952 82.0647C84.6203 81.4274 88.1344 80.2661 91.0998 78.5702L91.1032 78.5683C95.9519 75.7283 98.4951 71.9897 98.5602 68.1368L98.6492 62.8663L97.9006 62.8537C97.8415 66.3546 95.5283 69.8899 90.8153 72.6508C87.9462 74.2913 84.5308 75.4296 80.8952 76.0614L80.8952 76.8211C84.6535 76.1809 88.2 75.009 91.1888 73.2997L91.1922 73.2978C94.4974 71.3619 96.7313 69.0084 97.8393 66.4858L97.8116 68.1242C97.7525 71.6252 95.4393 75.1604 90.7263 77.9213C87.8807 79.5484 84.4977 80.676 80.8952 81.3049L80.8952 82.0647Z" fill="#1A1A1A"/>
<path d="M90.9501 72.9231C100.633 67.3855 100.667 58.1907 91.0531 52.4497C81.4392 46.7088 65.723 46.5047 56.04 52.0423C46.3569 57.58 46.323 66.7748 55.937 72.5157C65.5499 78.3179 81.2671 78.4608 90.9501 72.9231Z" fill="white" stroke="#1A1A1A" stroke-width="0.748718" stroke-miterlimit="10"/>
<ellipse rx="20.2485" ry="11.4532" transform="matrix(0.999985 0.00540431 0.0121446 0.999926 73.6216 62.1556)" fill="#5E5FF5"/>
<path fill-rule="evenodd" clip-rule="evenodd" d="M63.4481 57.9018L59.3984 57.8799L69.6523 68.6235L72.9838 65.0788L70.933 62.93L70.5998 63.2845L69.6004 64.3479L68.575 63.2736L63.4481 57.9018ZM71.5993 62.2211L72.6247 63.2955L73.6501 64.3698L75.1881 65.9814L77.7516 68.6673L87.7459 58.0331L83.6962 58.0112L78.6991 63.3283L77.6997 64.3917L76.6743 63.3173L75.6489 62.243L73.5981 60.0943L71.5473 57.9455L67.4977 57.9237L71.5993 62.2211ZM79.6466 57.9893L76.3152 61.534L74.2644 59.3853L75.597 57.9674L79.6466 57.9893Z" fill="white"/>
<path d="M90.954 60.7757C100.637 55.238 100.671 46.0432 91.057 40.3023C81.4431 34.5614 65.7269 34.3572 56.0439 39.8949C46.3608 45.4325 46.3269 54.6274 55.9409 60.3683C65.5538 66.1705 81.271 66.3133 90.954 60.7757Z" fill="#1A1A1A" stroke="#1A1A1A" stroke-width="0.748718" stroke-miterlimit="10"/>
<path d="M49.2501 44.58L49.1611 49.8506C49.2222 46.2347 51.5889 42.6578 56.3075 39.9789C65.8065 34.5608 81.1596 34.6975 90.5926 40.374L90.6816 35.1035C81.2476 29.4882 65.8955 29.2902 56.3966 34.7084C51.6779 37.3873 49.3112 40.9642 49.2501 44.58Z" fill="white"/>
<path d="M49.2588 44.5846L49.1698 49.8552C49.1925 48.5069 49.5197 47.1025 50.2706 45.7665L50.3596 40.4959C49.6694 41.8329 49.2826 43.1751 49.2588 44.5846Z" fill="white" stroke="#1A1A1A" stroke-width="0.748718" stroke-miterlimit="10"/>
<path d="M50.3592 40.4906L50.2702 45.7611C50.4585 45.3965 50.7084 44.9716 50.9573 44.608L51.0463 39.3374C50.7974 39.7011 50.5475 40.126 50.3592 40.4906Z" fill="white" stroke="#1A1A1A" stroke-width="0.748718" stroke-miterlimit="10"/>
<path d="M51.0422 39.3331L50.9531 44.6036C51.1403 44.3003 51.3872 44.0592 51.5744 43.7559L51.6634 38.4853C51.4762 38.7887 51.2294 39.0297 51.0422 39.3331Z" fill="white" stroke="#1A1A1A" stroke-width="0.748718" stroke-miterlimit="10"/>
<path d="M51.7259 38.4898L51.6369 43.7603C51.823 43.5183 52.0699 43.2773 52.256 43.0352L52.345 37.7646C52.0982 38.0057 51.912 38.2478 51.7259 38.4898Z" fill="white" stroke="#1A1A1A" stroke-width="0.748718" stroke-miterlimit="10"/>
<path d="M52.3421 37.7713L52.2531 43.0419C52.4393 42.7998 52.6851 42.62 52.9319 42.379L53.021 37.1084C52.7741 37.3495 52.5273 37.5905 52.3421 37.7713Z" fill="white" stroke="#1A1A1A" stroke-width="0.748718" stroke-miterlimit="10"/>
<path d="M53.02 37.1614L52.931 42.432C53.1161 42.2512 53.3619 42.0714 53.6077 41.8917L53.6967 36.6211C53.3913 36.7386 53.2061 36.9194 53.02 37.1614Z" fill="white" stroke="#1A1A1A" stroke-width="0.748718" stroke-miterlimit="10"/>
<path d="M53.6411 36.5594L53.5521 41.8299C53.7372 41.6491 53.983 41.4694 54.2288 41.2896L54.3178 36.0191C54.071 36.2601 53.8869 36.3796 53.6411 36.5594Z" fill="white" stroke="#1A1A1A" stroke-width="0.748718" stroke-miterlimit="10"/>
<path d="M54.3179 36.0787L54.2289 41.3492C54.4747 41.1694 54.6588 41.0499 54.9046 40.8702L54.9936 35.5997C54.7488 35.7181 54.503 35.8979 54.3179 36.0787Z" fill="white" stroke="#1A1A1A" stroke-width="0.748718" stroke-miterlimit="10"/>
<path d="M54.9928 35.6013L54.9037 40.8719C55.1496 40.6921 55.3337 40.5726 55.5784 40.4542L55.6674 35.1836C55.4227 35.3021 55.1779 35.4206 54.9928 35.6013Z" fill="white" stroke="#1A1A1A" stroke-width="0.748718" stroke-miterlimit="10"/>
<path d="M55.6646 35.1302L55.5756 40.4007C55.8204 40.2822 56.0662 40.1025 56.311 39.984L56.4 34.7135C56.0945 34.8309 55.9094 35.0117 55.6646 35.1302Z" fill="white" stroke="#1A1A1A" stroke-width="0.748718" stroke-miterlimit="10"/>
<path d="M56.3473 34.7046L56.2583 39.9752L56.319 39.9762C56.5638 39.8577 56.7479 39.7382 56.9926 39.6198L57.0816 34.3492C56.8379 34.4064 56.6538 34.5259 56.3473 34.7046C56.3878 34.7053 56.3878 34.7053 56.3473 34.7046Z" fill="white"/>
<path d="M56.3473 34.7046L56.2583 39.9752L56.319 39.9762C56.5638 39.8577 56.7479 39.7382 56.9926 39.6198L57.0816 34.3492C56.8379 34.4064 56.6538 34.5259 56.3473 34.7046C56.3878 34.7053 56.3878 34.7053 56.3473 34.7046" stroke="#1A1A1A" stroke-width="0.748718" stroke-miterlimit="10"/>
<path d="M57.0836 34.2891L56.9946 39.5596C57.2394 39.4412 57.4842 39.3227 57.7289 39.2042L57.8179 33.9337C57.5732 34.0522 57.3284 34.1706 57.0836 34.2891Z" fill="white" stroke="#1A1A1A" stroke-width="0.748718" stroke-miterlimit="10"/>
<path d="M57.8063 33.9366L57.7173 39.2071C57.9621 39.0886 58.2068 38.9702 58.4516 38.8517L58.5406 33.5811C58.3565 33.7006 58.0511 33.8181 57.8063 33.9366Z" fill="white" stroke="#1A1A1A" stroke-width="0.748718" stroke-miterlimit="10"/>
<path d="M58.6012 33.5762L58.5122 38.8468C58.757 38.7283 59.0017 38.6098 59.3072 38.4924L59.3962 33.2218C59.0908 33.3393 58.846 33.4577 58.6012 33.5762Z" fill="white" stroke="#1A1A1A" stroke-width="0.748718" stroke-miterlimit="10"/>
<path d="M59.3366 33.2259L59.2476 38.4964C59.4924 38.3779 59.7978 38.2605 60.0416 38.2033L60.1306 32.9328C59.8858 33.0512 59.6421 33.1084 59.3366 33.2259Z" fill="white" stroke="#1A1A1A" stroke-width="0.748718" stroke-miterlimit="10"/>
<path d="M60.196 32.9329L60.107 38.2034C60.3518 38.085 60.6562 38.0288 60.9616 37.9114L61.0507 32.6408C60.7462 32.697 60.4408 32.8144 60.196 32.9329Z" fill="white" stroke="#1A1A1A" stroke-width="0.748718" stroke-miterlimit="10"/>
<path d="M60.9909 32.6516L60.9019 37.9222C61.2074 37.8047 61.4511 37.7475 61.7565 37.6301L61.8456 32.3596C61.6008 32.478 61.2964 32.5342 60.9909 32.6516Z" fill="white" stroke="#1A1A1A" stroke-width="0.748718" stroke-miterlimit="10"/>
<path d="M61.9147 32.347L61.8257 37.6175C62.1312 37.5 62.4356 37.4439 62.7411 37.3264L62.8301 32.0559C62.4639 32.1723 62.1595 32.2285 61.9147 32.347Z" fill="white" stroke="#1A1A1A" stroke-width="0.748718" stroke-miterlimit="10"/>
<path d="M62.7634 32.0596L62.6744 37.3301C62.9788 37.274 63.2843 37.1565 63.5887 37.1004L63.6777 31.8298C63.3723 31.9473 63.0679 32.0034 62.7634 32.0596Z" fill="white" stroke="#1A1A1A" stroke-width="0.748718" stroke-miterlimit="10"/>
<path d="M63.6755 31.8301L63.5865 37.1006C63.891 37.0445 64.1964 36.927 64.5008 36.8709L64.5898 31.6003C64.2844 31.7178 63.98 31.7739 63.6755 31.8301Z" fill="white" stroke="#1A1A1A" stroke-width="0.748718" stroke-miterlimit="10"/>
<path d="M64.5906 31.5984L64.5016 36.869C64.8061 36.8128 65.1105 36.7566 65.4149 36.7005L65.5039 31.4299C65.1995 31.4861 64.8951 31.5423 64.5906 31.5984Z" fill="white" stroke="#1A1A1A" stroke-width="0.748718" stroke-miterlimit="10"/>
<path d="M65.4988 31.4324L65.4098 36.7029C65.7143 36.6468 66.0187 36.5906 66.3231 36.5344L66.4121 31.2639C66.1077 31.3201 65.8033 31.3762 65.4988 31.4324Z" fill="white" stroke="#1A1A1A" stroke-width="0.748718" stroke-miterlimit="10"/>
<path d="M66.411 31.262L66.3219 36.5325C66.6264 36.4764 66.9308 36.4202 67.2352 36.364L67.3242 31.0935C67.0198 31.1497 66.7154 31.2058 66.411 31.262Z" fill="white" stroke="#1A1A1A" stroke-width="0.748718" stroke-miterlimit="10"/>
<path d="M67.3261 31.1494L67.237 36.42C67.5415 36.3638 67.8459 36.3076 68.1493 36.3128L68.2383 31.0422C67.9349 31.0371 67.6305 31.0933 67.3261 31.1494Z" fill="white" stroke="#1A1A1A" stroke-width="0.748718" stroke-miterlimit="10"/>
<path d="M68.1815 30.9829L68.0925 36.2535C68.3969 36.1973 68.7003 36.2024 69.0047 36.1463L69.0937 30.8757C68.7893 30.9319 68.4849 30.9881 68.1815 30.9829Z" fill="white" stroke="#1A1A1A" stroke-width="0.748718" stroke-miterlimit="10"/>
<path d="M69.0956 30.9434L69.0066 36.2139C69.311 36.1577 69.6144 36.1629 69.9188 36.1067L70.0078 30.8362C69.7034 30.8923 69.4 30.8872 69.0956 30.9434Z" fill="white" stroke="#1A1A1A" stroke-width="0.748718" stroke-miterlimit="10"/>
<path d="M70.0087 30.8303L69.9197 36.1009C70.2848 36.0457 70.5882 36.0509 70.9523 36.057L71.0413 30.7865C70.6772 30.7803 70.3728 30.8365 70.0087 30.8303Z" fill="white" stroke="#1A1A1A" stroke-width="0.748718" stroke-miterlimit="10"/>
<path d="M71.0302 30.7791L70.9412 36.0496C71.3053 36.0558 71.731 36.0016 72.0951 36.0078L72.1841 30.7372C71.7594 30.7301 71.3953 30.7239 71.0302 30.7791Z" fill="white" stroke="#1A1A1A" stroke-width="0.748718" stroke-miterlimit="10"/>
<path d="M72.1982 30.7473L72.1092 36.0179C72.7159 36.0281 73.2631 35.976 73.8698 35.9863L73.9588 30.7158C73.3521 30.7055 72.7453 30.6953 72.1982 30.7473Z" fill="white" stroke="#1A1A1A" stroke-width="0.748718" stroke-miterlimit="10"/>
<path d="M73.8926 30.7178L73.8036 35.9883C74.5924 36.0016 75.4418 36.016 76.2296 36.0906L76.3186 30.8201C75.5298 30.8067 74.742 30.7321 73.8926 30.7178Z" fill="white" stroke="#1A1A1A" stroke-width="0.748718" stroke-miterlimit="10"/>
<path d="M76.3145 30.8843L76.2254 36.1548C76.8312 36.2264 77.4986 36.2376 78.1033 36.3704L78.1923 31.0999C77.5876 30.9671 76.9819 30.8955 76.3145 30.8843Z" fill="white" stroke="#1A1A1A" stroke-width="0.748718" stroke-miterlimit="10"/>
<path d="M78.1934 31.0308L78.1044 36.3013C78.528 36.3698 78.9517 36.4382 79.3754 36.5067L79.4645 31.2361C79.0408 31.1677 78.6171 31.0992 78.1934 31.0308Z" fill="white" stroke="#1A1A1A" stroke-width="0.748718" stroke-miterlimit="10"/>
<path d="M79.459 31.2402L79.37 36.5108C79.733 36.5782 80.0353 36.6446 80.3984 36.712L80.4874 31.4415C80.1254 31.3128 79.823 31.2464 79.459 31.2402Z" fill="white" stroke="#1A1A1A" stroke-width="0.748718" stroke-miterlimit="10"/>
<path d="M80.4863 31.3789L80.3973 36.6494C80.7603 36.7169 81.0627 36.7833 81.4257 36.8507L81.5147 31.5802C81.1517 31.5128 80.8493 31.4463 80.4863 31.3789Z" fill="white" stroke="#1A1A1A" stroke-width="0.748718" stroke-miterlimit="10"/>
<path d="M81.5293 31.5811L81.4403 36.8516C81.7426 36.918 82.1057 36.9854 82.408 37.0518L82.497 31.7813C82.1947 31.7149 81.8316 31.6475 81.5293 31.5811Z" fill="white" stroke="#1A1A1A" stroke-width="0.748718" stroke-miterlimit="10"/>
<path d="M82.4883 31.8423L82.3993 37.1128C82.7016 37.1792 83.0636 37.308 83.366 37.3744L83.455 32.1038C83.1537 31.9761 82.7906 31.9087 82.4883 31.8423Z" fill="white" stroke="#1A1A1A" stroke-width="0.748718" stroke-miterlimit="10"/>
<path d="M83.4512 32.0444L83.3622 37.315C83.6645 37.3814 84.0265 37.5101 84.3288 37.5765L84.4179 32.306C84.1155 32.2396 83.8132 32.1732 83.4512 32.0444Z" fill="white" stroke="#1A1A1A" stroke-width="0.748718" stroke-miterlimit="10"/>
<path d="M84.418 32.3652L84.329 37.6358C84.6303 37.7635 84.9933 37.8309 85.2946 37.9586L85.3836 32.6881C85.0823 32.5604 84.781 32.4327 84.418 32.3652Z" fill="white" stroke="#1A1A1A" stroke-width="0.748718" stroke-miterlimit="10"/>
<path d="M85.4531 32.6938L85.3641 37.9644C85.6654 38.0921 86.0285 38.1595 86.3298 38.2872L86.4188 33.0167C86.0568 32.888 85.7555 32.7603 85.4531 32.6938Z" fill="white" stroke="#1A1A1A" stroke-width="0.748718" stroke-miterlimit="10"/>
<path d="M86.3574 33.0063L86.2684 38.2769C86.5697 38.4046 86.871 38.5323 87.1723 38.66L87.2614 33.3894C87.0207 33.2628 86.7194 33.1351 86.3574 33.0063Z" fill="white" stroke="#1A1A1A" stroke-width="0.748718" stroke-miterlimit="10"/>
<path d="M87.3164 33.3945L87.2274 38.6651C87.5287 38.7928 87.83 38.9205 88.0706 39.0471L88.1597 33.7766C87.8594 33.5876 87.6188 33.4609 87.3164 33.3945Z" fill="white" stroke="#1A1A1A" stroke-width="0.748718" stroke-miterlimit="10"/>
<path d="M88.1641 33.7788L88.0751 39.0494C88.3764 39.177 88.617 39.3037 88.9183 39.4314L89.0073 34.1609C88.706 34.0332 88.4654 33.9065 88.1641 33.7788Z" fill="white" stroke="#1A1A1A" stroke-width="0.748718" stroke-miterlimit="10"/>
<path d="M89.0078 34.1587L88.9188 39.4292C89.1594 39.5559 89.4608 39.6836 89.7014 39.8103L89.7904 34.5397C89.5498 34.4131 89.2484 34.2854 89.0078 34.1587Z" fill="white" stroke="#1A1A1A" stroke-width="0.748718" stroke-miterlimit="10"/>
<path d="M89.7812 34.5312L89.6922 39.8018C89.9329 39.9284 90.1735 40.0551 90.4131 40.2431L90.5021 34.9725C90.2625 34.7846 90.0219 34.6579 89.7812 34.5312Z" fill="white" stroke="#1A1A1A" stroke-width="0.748718" stroke-miterlimit="10"/>
<path d="M90.5137 34.9824L90.4247 40.253C90.4843 40.3153 90.545 40.3163 90.6046 40.3786L90.6936 35.1081C90.634 35.0458 90.5743 34.9834 90.5137 34.9824Z" fill="white" stroke="#1A1A1A" stroke-width="0.748718" stroke-miterlimit="10"/>
<path d="M49.2501 44.58L49.1611 49.8506C49.2222 46.2347 51.5889 42.6578 56.3075 39.9789C65.8065 34.5608 81.1596 34.6975 90.5926 40.374L90.6816 35.1035C81.2476 29.4882 65.8955 29.2902 56.3966 34.7084C51.6779 37.3873 49.3112 40.9642 49.2501 44.58Z" stroke="#1A1A1A" stroke-width="0.748718" stroke-miterlimit="10"/>
<path d="M97.6511 50.5526L97.7402 45.2821C97.8023 41.605 95.4363 37.9482 90.6895 35.1094L90.6004 40.3799C95.3473 43.2187 97.7132 46.8755 97.6511 50.5526Z" fill="white"/>
<path d="M90.6953 35.0537L90.6063 40.3243C90.7863 40.4499 90.9673 40.5143 91.1472 40.6399L91.2362 35.3694C91.0552 35.305 90.8753 35.1794 90.6953 35.0537Z" fill="white" stroke="#1A1A1A" stroke-width="0.748718" stroke-miterlimit="10"/>
<path d="M91.2324 35.3667L91.1434 40.6372C91.384 40.7639 91.563 40.9508 91.8036 41.0775L91.8926 35.807C91.652 35.6803 91.4113 35.5536 91.2324 35.3667Z" fill="white" stroke="#1A1A1A" stroke-width="0.748718" stroke-miterlimit="10"/>
<path d="M91.9004 35.8062L91.8114 41.0767C92.052 41.2033 92.2309 41.3903 92.4109 41.5159L92.4999 36.2454C92.3199 36.1197 92.0793 35.9931 91.9004 35.8062Z" fill="white" stroke="#1A1A1A" stroke-width="0.748718" stroke-miterlimit="10"/>
<path d="M92.4961 36.313L92.4071 41.5835C92.587 41.7092 92.8266 41.8971 93.0066 42.0228L93.0956 36.7522C92.9167 36.5653 92.7367 36.4397 92.4961 36.313Z" fill="white" stroke="#1A1A1A" stroke-width="0.748718" stroke-miterlimit="10"/>
<path d="M93.0918 36.7446L93.0028 42.0152C93.1817 42.2021 93.3617 42.3277 93.5406 42.5147L93.6296 37.2441C93.4507 37.0572 93.2718 36.8703 93.0918 36.7446Z" fill="white" stroke="#1A1A1A" stroke-width="0.748718" stroke-miterlimit="10"/>
<path d="M93.6387 37.2515L93.5497 42.522C93.7286 42.7089 93.9085 42.8346 94.0875 43.0215L94.1765 37.751C94.0582 37.5651 93.8793 37.3781 93.6387 37.2515Z" fill="white" stroke="#1A1A1A" stroke-width="0.748718" stroke-miterlimit="10"/>
<path d="M94.1719 37.6948L94.0829 42.9653C94.2618 43.1523 94.4407 43.3392 94.6207 43.4649L94.7097 38.1943C94.5297 38.0687 94.3508 37.8818 94.1719 37.6948Z" fill="white" stroke="#1A1A1A" stroke-width="0.748718" stroke-miterlimit="10"/>
<path d="M94.7109 38.249L94.6219 43.5196C94.8009 43.7065 94.9798 43.8934 95.098 44.0793L95.187 38.8088C95.0688 38.6229 94.8899 38.436 94.7109 38.249Z" fill="white" stroke="#1A1A1A" stroke-width="0.748718" stroke-miterlimit="10"/>
<path d="M95.1816 38.8037L95.0926 44.0743C95.2716 44.2612 95.3898 44.4471 95.5677 44.6953L95.6567 39.4248C95.5395 39.1776 95.3606 38.9906 95.1816 38.8037Z" fill="white" stroke="#1A1A1A" stroke-width="0.748718" stroke-miterlimit="10"/>
<path d="M95.6543 39.3618L95.5653 44.6324C95.7442 44.8193 95.8614 45.0665 95.9797 45.2524L96.0687 39.9818C95.9504 39.7959 95.8322 39.61 95.6543 39.3618Z" fill="white" stroke="#1A1A1A" stroke-width="0.748718" stroke-miterlimit="10"/>
<path d="M96.1387 39.9878L96.0497 45.2583C96.2276 45.5066 96.3458 45.6925 96.463 45.9396L96.552 40.6691C96.4338 40.4832 96.2559 40.235 96.1387 39.9878Z" fill="white" stroke="#1A1A1A" stroke-width="0.748718" stroke-miterlimit="10"/>
<path d="M96.5449 40.7358L96.4559 46.0064C96.6338 46.2546 96.75 46.5631 96.8672 46.8103L96.9562 41.5397C96.84 41.2312 96.6621 40.983 96.5449 40.7358Z" fill="white" stroke="#1A1A1A" stroke-width="0.748718" stroke-miterlimit="10"/>
<path d="M96.9551 41.54L96.8661 46.8106C96.9822 47.1191 97.0984 47.4275 97.2146 47.736L97.3036 42.4655C97.1874 42.157 97.0713 41.8485 96.9551 41.54Z" fill="white" stroke="#1A1A1A" stroke-width="0.748718" stroke-miterlimit="10"/>
<path d="M97.3027 42.4585L97.2137 47.729C97.3278 48.1601 97.443 48.5298 97.4964 48.9599L97.5854 43.6893C97.532 43.2593 97.4168 42.8895 97.3027 42.4585Z" fill="white" stroke="#1A1A1A" stroke-width="0.748718" stroke-miterlimit="10"/>
<path d="M97.5918 43.6938L97.5028 48.9644C97.6159 49.4567 97.6065 50.0083 97.5983 50.4986L97.6873 45.228C97.7562 44.7388 97.7049 44.1862 97.5918 43.6938Z" fill="white" stroke="#1A1A1A" stroke-width="0.748718" stroke-miterlimit="10"/>
<path d="M97.6511 50.5526L97.7402 45.2821C97.8023 41.605 95.4363 37.9482 90.6895 35.1094L90.6004 40.3799C95.3473 43.2187 97.7132 46.8755 97.6511 50.5526Z" stroke="#1A1A1A" stroke-width="0.748718" stroke-miterlimit="10"/>
<path d="M48.707 44.5771L48.618 49.8477C48.5549 53.5861 50.9795 57.3665 55.7859 60.2676L55.8749 54.9971C51.0695 52.0347 48.7046 48.3166 48.707 44.5771Z" fill="white"/>
<path d="M48.707 44.5771L48.618 50.4059C48.5549 54.1444 55.0831 64.8621 73.791 64.8621L73.791 59.3347C52.532 58.9096 48.7046 48.3166 48.707 44.5771Z" fill="white" stroke="#1A1A1A" stroke-width="0.748718" stroke-miterlimit="10"/>
<path fill-rule="evenodd" clip-rule="evenodd" d="M80.8947 64.1047C84.5589 63.4715 88.0079 62.3268 90.9135 60.6651C95.6949 57.8646 98.1234 54.2274 98.1855 50.5503L98.2745 45.2798C98.2124 48.9569 95.7839 52.5941 91.0025 55.3946C88.0734 57.0697 84.5921 58.225 80.8947 58.8612L80.8947 64.1047Z" fill="#1A1A1A"/>
<path d="M80.8947 64.1047L80.5203 64.1047L80.5203 64.5493L80.9584 64.4736L80.8947 64.1047ZM90.9135 60.6651L91.0994 60.9901L91.1027 60.9881L90.9135 60.6651ZM91.0025 55.3946L91.1884 55.7195L91.1917 55.7176L91.0025 55.3946ZM80.8947 58.8612L80.8312 58.4922L80.5203 58.5457L80.5203 58.8612L80.8947 58.8612ZM80.9584 64.4736C84.6566 63.8345 88.1487 62.6775 91.0994 60.99L90.7277 60.3401C87.8671 61.9761 84.4613 63.1085 80.8309 63.7358L80.9584 64.4736ZM91.1027 60.9881C95.9515 58.1482 98.4947 54.4095 98.5598 50.5567L97.8112 50.544C97.752 54.0454 95.4383 57.581 90.7243 60.3421L91.1027 60.9881ZM98.5598 50.5567L98.6488 45.2861L97.9002 45.2735L97.8112 50.544L98.5598 50.5567ZM97.9002 45.2735C97.841 48.7748 95.5273 52.3105 90.8133 55.0715L91.1917 55.7176C96.0405 52.8776 98.5837 49.139 98.6488 45.2861L97.9002 45.2735ZM90.8167 55.0696C87.9326 56.719 84.4945 57.862 80.8312 58.4922L80.9581 59.2301C84.6897 58.5881 88.2142 57.4204 91.1884 55.7195L90.8167 55.0696ZM80.5203 58.8612L80.5203 64.1047L81.269 64.1047L81.269 58.8612L80.5203 58.8612Z" fill="#1A1A1A"/>
<path fill-rule="evenodd" clip-rule="evenodd" d="M80.8972 64.4847C84.6223 63.8474 88.1365 62.6861 91.1019 60.9902L91.1053 60.9882C95.954 58.1483 98.4972 54.4096 98.5623 50.5568L98.6513 45.2862L97.9027 45.2736C97.8436 48.7745 95.5304 52.3098 90.8174 55.0707C87.9482 56.7112 84.5328 57.8495 80.8972 58.4814L80.8972 59.2411C84.6555 58.6009 88.2021 57.4289 91.1909 55.7196L91.1943 55.7177C94.4995 53.7818 96.7334 51.4283 97.8414 48.9057L97.8137 50.5441C97.7546 54.0451 95.4414 57.5804 90.7284 60.3412C87.8828 61.9683 84.4997 63.096 80.8972 63.7249L80.8972 64.4847Z" fill="#1A1A1A"/>
<path d="M90.954 55.3431C100.637 49.8054 100.671 40.6106 91.057 34.8697C81.4431 29.1287 65.7269 28.9246 56.0439 34.4623C46.3608 39.9999 46.3269 49.1947 55.9409 54.9357C65.5538 60.7379 81.271 60.8807 90.954 55.3431Z" fill="white" stroke="#1A1A1A" stroke-width="0.748718" stroke-miterlimit="10"/>
<ellipse rx="20.2485" ry="11.4532" transform="matrix(0.999985 0.00540431 0.0121446 0.999926 73.6236 44.5657)" fill="#5E5FF5"/>
<path fill-rule="evenodd" clip-rule="evenodd" d="M63.45 40.3119L59.4004 40.29L69.6543 51.0336L72.9857 47.4889L70.9349 45.3402L70.6018 45.6947L69.6024 46.7581L68.577 45.6837L63.45 40.3119ZM71.6012 44.6313L72.6266 45.7056L73.652 46.78L75.1901 48.3915L77.7536 51.0774L87.7478 40.4432L83.6982 40.4214L78.7011 45.7384L77.7016 46.8019L76.6762 45.7275L75.6509 44.6531L73.6001 42.5044L71.5493 40.3557L67.4997 40.3338L71.6012 44.6313ZM79.6486 40.3995L76.3171 43.9442L74.2664 41.7955L75.5989 40.3776L79.6486 40.3995Z" fill="white"/>
</svg>
