<svg width="1em" height="1em" viewBox="0 0 60 60" fill="none" xmlns="http://www.w3.org/2000/svg">
<path d="M54.8367 19.3929C56.2292 22.6491 57 26.2345 57 30C57 44.9117 44.9117 57 30 57C15.0883 57 3 44.9117 3 30C3 15.0883 15.0883 3 30 3C37.0887 3 43.5393 5.73177 48.3566 10.2" stroke="#5E5FF5" stroke-linecap="round"/>
<circle cx="48" cy="10" r="4" fill="#5E5FF5"/>
<circle cx="30" cy="30" r="18" fill="#5E5FF5"/>
<path fill-rule="evenodd" clip-rule="evenodd" d="M21.0004 23.3999H17.4004L26.4004 40.1999L29.4004 34.5999L27.6004 31.2399L27.3004 31.7999L26.4004 33.4799L25.5004 31.7999L21.0004 23.3999ZM28.2004 30.1199L29.1004 31.7999L30.0004 33.4799L31.3504 35.9999L33.6004 40.1999L42.6004 23.3999H39.0004L34.5004 31.7999L33.6004 33.4799L32.7004 31.7999L31.8004 30.1199L30.0004 26.7599L28.2004 23.3999H24.6004L28.2004 30.1199ZM35.4004 23.3999L32.4004 28.9999L30.6004 25.6399L31.8004 23.3999H35.4004Z" fill="white"/>
</svg>
