<svg width="148" height="148" viewBox="0 0 148 148" fill="none" xmlns="http://www.w3.org/2000/svg">
<g clip-path="url(#clip0_694_276085)">
<path d="M135.271 107.935C136.239 108.49 136.239 109.373 135.292 109.928L75.9426 144.357C74.9953 144.912 73.4508 144.912 72.4829 144.357L12.7422 109.928C11.7743 109.373 11.7743 108.49 12.7216 107.935L72.071 73.5058C73.0183 72.9509 74.5628 72.9509 75.5307 73.5058L135.271 107.935Z" fill="white" stroke="black" stroke-width="0.598527" stroke-miterlimit="10"/>
<path d="M135.27 109.929L75.9204 144.358V147.4L135.27 112.971C135.744 112.704 135.97 112.334 135.991 111.984V108.942C135.991 109.292 135.744 109.662 135.27 109.929Z" fill="black" stroke="black" stroke-width="0.598527" stroke-miterlimit="10"/>
<path d="M72.4615 144.358L12.7208 109.929V109.949C12.6796 109.929 12.659 109.908 12.6178 109.888L12.5972 109.867C12.5766 109.847 12.556 109.847 12.5354 109.826C12.5148 109.826 12.5148 109.806 12.4942 109.806C12.4736 109.785 12.453 109.785 12.453 109.764C12.4325 109.764 12.4325 109.744 12.4325 109.744C12.4187 109.73 12.405 109.717 12.3913 109.703C12.3707 109.703 12.3707 109.682 12.3501 109.682L12.3295 109.662C12.3158 109.648 12.302 109.634 12.2883 109.621L12.2677 109.6C12.2471 109.579 12.2265 109.559 12.2265 109.538V109.518C12.2128 109.504 12.1991 109.49 12.1853 109.477C12.1647 109.456 12.1442 109.436 12.1236 109.395C12.103 109.374 12.103 109.353 12.0824 109.312C12.0824 109.312 12.0824 109.292 12.0618 109.292C12.0618 109.271 12.0412 109.251 12.0412 109.23V109.21C12.0412 109.189 12.0206 109.168 12.0206 109.148V109.127C12.0206 109.107 12 109.066 12 109.045V108.922V112.108C12 112.128 12 112.169 12.0206 112.19V112.21C12.0206 112.231 12.0412 112.252 12.0412 112.272V112.293C12.0412 112.313 12.0618 112.334 12.0618 112.354V112.375C12.0824 112.395 12.0824 112.416 12.103 112.457C12.1236 112.478 12.1442 112.519 12.1647 112.539C12.1647 112.56 12.1853 112.56 12.1853 112.58V112.601C12.2059 112.622 12.2265 112.642 12.2265 112.663L12.2471 112.683C12.2608 112.697 12.2746 112.711 12.2883 112.724L12.3089 112.745L12.3295 112.765C12.3295 112.765 12.3501 112.765 12.3501 112.786C12.3638 112.8 12.3775 112.813 12.3913 112.827L12.4119 112.848C12.4325 112.868 12.453 112.868 12.453 112.889C12.4736 112.889 12.4736 112.909 12.4942 112.909C12.5148 112.93 12.5354 112.93 12.556 112.95L12.5766 112.971C12.5972 112.992 12.6384 113.012 12.6796 113.033V113.012L72.4203 147.441L72.4615 144.358Z" fill="#7246EE" stroke="black" stroke-width="0.598527" stroke-miterlimit="10"/>
<path d="M75.6945 147.502C75.7151 147.502 75.7151 147.482 75.7356 147.482C75.7562 147.482 75.7768 147.461 75.7974 147.441C75.8112 147.441 75.8249 147.434 75.8386 147.42C75.8592 147.4 75.9004 147.379 75.921 147.379V144.337C75.9004 144.357 75.8592 144.378 75.8386 144.378C75.8386 144.378 75.818 144.378 75.818 144.399C75.7974 144.419 75.7768 144.419 75.7562 144.44C75.7357 144.44 75.7356 144.46 75.7151 144.46C75.6945 144.46 75.6739 144.481 75.6533 144.481C75.6327 144.481 75.6327 144.501 75.6121 144.501C75.5915 144.501 75.5709 144.522 75.5503 144.522C75.5091 144.542 75.4473 144.563 75.4062 144.584C75.3924 144.584 75.3787 144.59 75.365 144.604C75.3238 144.625 75.262 144.625 75.2208 144.645H75.2002C75.159 144.645 75.1384 144.666 75.0973 144.666H75.0561C75.0149 144.666 74.9737 144.686 74.9325 144.686H74.9119C74.8707 144.686 74.8295 144.707 74.7884 144.707H74.7472C74.706 144.707 74.6854 144.707 74.6442 144.727H73.9852C73.9235 144.727 73.8823 144.727 73.8205 144.707H73.7793C73.7175 144.707 73.6763 144.686 73.6146 144.686C73.5734 144.686 73.5322 144.666 73.491 144.666H73.4498C73.4292 144.666 73.388 144.645 73.3674 144.645H73.3262C73.3057 144.645 73.2645 144.625 73.2439 144.625C73.2233 144.625 73.2233 144.625 73.2027 144.604C73.1821 144.604 73.1409 144.584 73.1203 144.584H73.0791C73.0379 144.563 72.9762 144.563 72.935 144.542C72.9213 144.542 72.9075 144.536 72.8938 144.522C72.8526 144.501 72.8114 144.481 72.7702 144.481H72.7496C72.7085 144.46 72.6673 144.44 72.6261 144.419C72.6261 144.419 72.6055 144.419 72.6055 144.399C72.5643 144.378 72.5231 144.357 72.4819 144.337V147.379C72.5231 147.4 72.5643 147.42 72.6055 147.441C72.6055 147.441 72.6261 147.441 72.6261 147.461C72.6673 147.482 72.7085 147.502 72.7496 147.523H72.7702C72.8114 147.543 72.8526 147.564 72.8938 147.564C72.9075 147.564 72.9213 147.571 72.935 147.585C72.9762 147.605 73.0379 147.626 73.0791 147.626H73.0997C73.1203 147.626 73.1615 147.646 73.1821 147.646C73.2027 147.646 73.2027 147.646 73.2233 147.667C73.2439 147.667 73.2851 147.687 73.3057 147.687H73.3468C73.3674 147.687 73.4086 147.708 73.4292 147.708H73.4704C73.5116 147.708 73.5528 147.728 73.594 147.728C73.6351 147.728 73.6969 147.749 73.7587 147.749H73.7999C73.8617 147.749 73.9029 147.749 73.9646 147.77H74.603C74.6442 147.77 74.6648 147.77 74.706 147.749H74.7472C74.7884 147.749 74.8295 147.728 74.8707 147.728H74.8913C74.9325 147.728 74.9737 147.708 75.0149 147.708H75.0561C75.0973 147.708 75.1385 147.687 75.159 147.687H75.1796C75.2208 147.667 75.2826 147.667 75.3238 147.646C75.3375 147.646 75.3512 147.639 75.365 147.626C75.4062 147.605 75.4679 147.585 75.5091 147.564C75.5297 147.564 75.5503 147.543 75.5709 147.543C75.5915 147.543 75.5915 147.523 75.6121 147.523C75.6533 147.523 75.6739 147.523 75.6945 147.502Z" fill="#7246EE" stroke="black" stroke-width="0.598527" stroke-miterlimit="10"/>
<path d="M94.779 117.103C95.5955 117.552 95.5955 118.351 94.779 118.8L90.9006 120.996C90.0841 121.446 88.7062 121.446 87.8897 120.996L51.045 100.183C50.2285 99.7339 50.2285 98.9354 51.045 98.4862L54.9234 96.29C55.7399 95.8408 57.1177 95.8408 57.9342 96.29L94.779 117.103ZM90.6454 120.946L94.5238 118.75C95.2383 118.351 95.2383 117.702 94.5238 117.303L57.6791 96.4897C56.9646 96.0904 55.7909 96.0904 55.0765 96.4897L51.1981 98.6858C50.4837 99.0851 50.4837 99.7339 51.1981 100.133L88.0428 120.946C88.7573 121.346 89.931 121.346 90.6454 120.946Z" fill="black"/>
<path d="M94.8488 117.339C95.5722 117.744 95.5722 118.401 94.8488 118.805L90.9213 121.03C90.1978 121.434 89.0093 121.434 88.2858 121.03L50.9752 99.9472C50.2517 99.5427 50.2517 98.8855 50.9752 98.481L54.9026 96.2565C55.6261 95.852 56.8147 95.852 57.5382 96.2565L94.8488 117.339Z" fill="black"/>
<path d="M81.0625 64.138L84.1316 62.3146L93.339 111.329L90.1968 113.152L81.0625 64.138Z" fill="white" stroke="black" stroke-width="0.598527" stroke-miterlimit="10"/>
<path d="M52.8564 55.8234L55.9986 54L84.1323 62.3149L81.0632 64.1383L52.8564 55.8234Z" fill="white" stroke="black" stroke-width="0.598527" stroke-miterlimit="10"/>
<path d="M81.0632 64.1386L90.1975 113.153L62.0638 104.765L52.8564 55.8237L81.0632 64.1386Z" fill="white" stroke="black" stroke-width="0.598527" stroke-miterlimit="10"/>
<path d="M74.5713 75.5642L77.0828 79.0127L73.1271 84.8182L79.398 93.4319L77.8204 95.7484L71.5418 87.1358L67.5941 92.9327L65.0829 89.4849L69.0383 83.6871L62.7598 75.0736L64.3451 72.7483L70.6236 81.3697L74.5713 75.5642Z" fill="#7246EE"/>
<path fill-rule="evenodd" clip-rule="evenodd" d="M59.0853 27.8635H57.3454V31.21H54V32.9499H57.3454V36.2953H59.0853V32.9499H62.4318V31.21H59.0853V27.8635Z" fill="#7246EE" fill-opacity="0.6"/>
<path fill-rule="evenodd" clip-rule="evenodd" d="M81.7403 11H79.2547V15.7807H74.4766V18.2663H79.2547V23.0455H81.7403V18.2663H86.522V15.7807H81.7403V11Z" fill="#7246EE"/>
<path fill-rule="evenodd" clip-rule="evenodd" d="M96.176 36.2954H94.9332V38.6858H92.543V39.9285H94.9332V42.3181H96.176V39.9285H98.5657V38.6858H96.176V36.2954Z" fill="#7246EE" fill-opacity="0.4"/>
</g>
<defs>
<clipPath id="clip0_694_276085">
<rect width="148" height="148" fill="white"/>
</clipPath>
</defs>
</svg>
