<svg width="1em" height="1em" viewBox="0 0 28 28" fill="none" xmlns="http://www.w3.org/2000/svg">
<path d="M3.92488 12.264L17.7553 6.56514C19.1239 5.97183 23.7504 4.06954 23.7504 4.06954C23.7504 4.06954 25.8878 3.23874 25.7099 5.25696C25.6503 6.08776 25.1753 8.99634 24.7004 12.1424L23.2167 21.4639C23.2167 21.4639 23.0975 22.8324 22.0896 23.0667C21.0817 23.301 19.4185 22.2359 19.1215 21.9984C18.884 21.8205 14.6697 19.1494 13.1264 17.8437C12.711 17.487 12.236 16.7746 13.186 15.9438C15.3225 13.9851 17.8753 11.5515 19.4185 10.0083C20.131 9.29581 20.8426 7.63342 17.8753 9.65164L9.50295 15.2869C9.50295 15.2869 8.55382 15.8802 6.77308 15.3464C4.99235 14.8127 2.91456 14.0994 2.91456 14.0994C2.91456 14.0994 1.48965 13.2091 3.92327 12.2599L3.92488 12.264Z" fill="#1A8AD5"/>
</svg>
