<svg width="16" height="16" viewBox="0 0 16 16" fill="none" xmlns="http://www.w3.org/2000/svg">
<path d="M2.59951 9.18591C3.74173 10.3653 5.73372 12 8.00004 12C10.2664 12 12.2582 10.3653 13.4004 9.18591L13.4009 9.18536C13.702 8.87445 13.8528 8.71881 13.9487 8.41349C14.0171 8.1956 14.0171 7.80439 13.9487 7.5865C13.8528 7.28117 13.702 7.12551 13.4009 6.81457L13.4004 6.81407C12.2582 5.63472 10.2664 4 8.00004 4C5.73372 4 3.74173 5.63472 2.59951 6.81407C2.29804 7.12535 2.14729 7.281 2.05133 7.5865C1.98289 7.80439 1.98289 8.1956 2.05133 8.41349C2.14728 8.71898 2.29802 8.87462 2.59947 9.18587L2.59951 9.18591Z" stroke="#1A1A1A" stroke-linecap="round" stroke-linejoin="round"/>
<path d="M6.66602 8.00033C6.66602 8.73671 7.26297 9.33366 7.99935 9.33366C8.73573 9.33366 9.33268 8.73671 9.33268 8.00033C9.33268 7.26395 8.73573 6.66699 7.99935 6.66699C7.26297 6.66699 6.66602 7.26395 6.66602 8.00033Z" stroke="#1A1A1A" stroke-linecap="round" stroke-linejoin="round"/>
</svg>
