<svg width="13" height="12" viewBox="0 0 13 12" fill="none" xmlns="http://www.w3.org/2000/svg">
<g clip-path="url(#clip0_1496_74668)">
<path fill-rule="evenodd" clip-rule="evenodd" d="M4.92347 8.84707C6.95227 8.84707 8.59694 7.20237 8.59694 5.17353C8.59694 3.1447 6.95227 1.5 4.92347 1.5C2.89467 1.5 1.25 3.1447 1.25 5.17353C1.25 6.11663 1.60538 6.97672 2.18953 7.62719C2.23744 7.68053 2.24279 7.76031 2.2001 7.81791L1.72698 8.45624C1.60719 8.61786 1.72256 8.84697 1.92373 8.84697H4.88244C4.88247 8.84697 4.88249 8.84692 4.88246 8.84691V8.84691C4.88243 8.84689 4.88244 8.84684 4.88248 8.84684C4.89612 8.84699 4.90979 8.84707 4.92347 8.84707Z" stroke="#595959" stroke-linecap="round" stroke-linejoin="round"/>
<path d="M8.70062 4.20001C10.1596 4.52638 11.25 5.82915 11.25 7.38659C11.25 8.22488 10.9341 8.9894 10.4149 9.56758C10.3723 9.61499 10.3675 9.68591 10.4055 9.73711L10.826 10.3045C10.9325 10.4482 10.8299 10.6518 10.6511 10.6518L8.02115 10.6518C8.00902 10.6519 7.99686 10.6519 7.98469 10.6519C6.80906 10.6519 5.77854 10.0306 5.20355 9.09844" stroke="#595959" stroke-linecap="square" stroke-linejoin="round"/>
</g>
<defs>
<clipPath id="clip0_1496_74668">
<rect width="12" height="12" fill="white" transform="translate(0.25)"/>
</clipPath>
</defs>
</svg>
