<svg width="13" height="12" viewBox="0 0 13 12" fill="none" xmlns="http://www.w3.org/2000/svg">
<path d="M10.3536 4.35355L10 4.70711L10.3536 4.35355ZM7.14645 1.14645L7.5 0.792893L7.14645 1.14645ZM4.78577 8.27775C4.50962 8.27775 4.28577 8.50161 4.28577 8.77775C4.28577 9.05389 4.50962 9.27775 4.78577 9.27775V8.27775ZM8.21434 9.27775C8.49048 9.27775 8.71434 9.05389 8.71434 8.77775C8.71434 8.50161 8.49048 8.27775 8.21434 8.27775V9.27775ZM4.78577 6.61108C4.50962 6.61108 4.28577 6.83494 4.28577 7.11108C4.28577 7.38723 4.50962 7.61108 4.78577 7.61108V6.61108ZM8.21434 7.61108C8.49048 7.61108 8.71434 7.38723 8.71434 7.11108C8.71434 6.83494 8.49048 6.61108 8.21434 6.61108V7.61108ZM10 10.5H3V11.5H10V10.5ZM3 10.5V1.5H2V10.5H3ZM3 1.5H6.79289V0.5H3V1.5ZM10 4.70711V10.5H11V4.70711H10ZM6.79289 1.5L10 4.70711L10.7071 4L7.5 0.792893L6.79289 1.5ZM11 4.70711C11 4.44189 10.8946 4.18754 10.7071 4L10 4.70711L10 4.70711H11ZM6.79289 1.5L7.5 0.792893C7.31246 0.605357 7.05811 0.5 6.79289 0.5V1.5ZM3 10.5H2C2 11.0523 2.44772 11.5 3 11.5V10.5ZM10 11.5C10.5523 11.5 11 11.0523 11 10.5H10V11.5ZM3 1.5V1.5V0.5C2.44772 0.5 2 0.947716 2 1.5H3ZM10.5 4H7.25V5H10.5V4ZM7.5 4.25V1H6.5V4.25H7.5ZM7.25 4C7.38807 4 7.5 4.11193 7.5 4.25H6.5C6.5 4.66421 6.83579 5 7.25 5V4ZM4.78577 9.27775H8.21434V8.27775H4.78577V9.27775ZM4.78577 7.61108H8.21434V6.61108H4.78577V7.61108Z" fill="#A6A6A6"/>
</svg>
