<svg width="16" height="16" viewBox="0 0 16 16" fill="none" xmlns="http://www.w3.org/2000/svg">
<mask id="path-1-inside-1_7941_283997" fill="white">
<path fill-rule="evenodd" clip-rule="evenodd" d="M4 2.92773C2.89543 2.92773 2 3.82316 2 4.92773V9.49916C2 10.6037 2.89543 11.4992 4 11.4992H4.87395L8 14V11.4992H12C13.1046 11.4992 14 10.6037 14 9.49916V4.92773C14 3.82316 13.1046 2.92773 12 2.92773H4Z"/>
</mask>
<path d="M4.87395 11.4992L5.49865 10.7183L5.22473 10.4992H4.87395V11.4992ZM8 14L7.37531 14.7809L9 16.0806V14H8ZM8 11.4992V10.4992H7V11.4992H8ZM3 4.92773C3 4.37545 3.44771 3.92773 4 3.92773V1.92773C2.34315 1.92773 1 3.27088 1 4.92773H3ZM3 9.49916V4.92773H1V9.49916H3ZM4 10.4992C3.44772 10.4992 3 10.0514 3 9.49916H1C1 11.156 2.34315 12.4992 4 12.4992V10.4992ZM4.87395 10.4992H4V12.4992H4.87395V10.4992ZM4.24926 12.28L7.37531 14.7809L8.62469 13.2191L5.49865 10.7183L4.24926 12.28ZM9 14V11.4992H7V14H9ZM12 10.4992H8V12.4992H12V10.4992ZM13 9.49916C13 10.0514 12.5523 10.4992 12 10.4992V12.4992C13.6569 12.4992 15 11.156 15 9.49916H13ZM13 4.92773V9.49916H15V4.92773H13ZM12 3.92773C12.5523 3.92773 13 4.37545 13 4.92773H15C15 3.27088 13.6569 1.92773 12 1.92773V3.92773ZM4 3.92773H12V1.92773H4V3.92773Z" fill="black" mask="url(#path-1-inside-1_7941_283997)"/>
</svg>
