<svg width="12" height="12" viewBox="0 0 12 12" fill="none" xmlns="http://www.w3.org/2000/svg">
<g clip-path="url(#clip0_7686_212764)">
<path d="M6.02767 7.91664H6.52767C6.52767 7.6405 6.30381 7.41664 6.02767 7.41664V7.91664ZM6.02767 7.9722L6.02754 8.4722C6.16017 8.47223 6.28738 8.41957 6.38118 8.32579C6.47497 8.23202 6.52767 8.10483 6.52767 7.9722H6.02767ZM5.97233 7.97218H5.47233C5.47233 8.24828 5.69611 8.47211 5.97221 8.47218L5.97233 7.97218ZM5.97233 7.91664V7.41664C5.69619 7.41664 5.47233 7.6405 5.47233 7.91664H5.97233ZM6.5 4.02775C6.5 3.75161 6.27614 3.52775 6 3.52775C5.72386 3.52775 5.5 3.75161 5.5 4.02775H6.5ZM5.5 6.24997C5.5 6.52612 5.72386 6.74997 6 6.74997C6.27614 6.74997 6.5 6.52612 6.5 6.24997H5.5ZM6 10.5C3.51472 10.5 1.5 8.48528 1.5 6H0.5C0.5 9.03757 2.96243 11.5 6 11.5V10.5ZM1.5 6C1.5 3.51472 3.51472 1.5 6 1.5V0.5C2.96243 0.5 0.5 2.96243 0.5 6H1.5ZM6 1.5C8.48528 1.5 10.5 3.51472 10.5 6H11.5C11.5 2.96243 9.03757 0.5 6 0.5V1.5ZM10.5 6C10.5 8.48528 8.48528 10.5 6 10.5V11.5C9.03757 11.5 11.5 9.03757 11.5 6H10.5ZM5.52767 7.91664V7.9722H6.52767V7.91664H5.52767ZM6.02779 7.4722L5.97246 7.47218L5.97221 8.47218L6.02754 8.4722L6.02779 7.4722ZM6.47233 7.97218V7.91664H5.47233V7.97218H6.47233ZM5.97233 8.41664H6.02767V7.41664H5.97233V8.41664ZM5.5 4.02775V6.24997H6.5V4.02775H5.5Z" fill="#1A1A1A"/>
</g>
<defs>
<clipPath id="clip0_7686_212764">
<rect width="12" height="12" fill="white"/>
</clipPath>
</defs>
</svg>
