<svg width="1em" height="1em" viewBox="0 0 12 12" fill="none" xmlns="http://www.w3.org/2000/svg">
<g clip-path="url(#clip0_3544_75083)">
<circle cx="6" cy="6" r="5.5" stroke="#5E5FF5"/>
<path d="M4.85355 8.14645C5.04882 8.34171 5.04882 8.65829 4.85355 8.85355C4.65829 9.04882 4.34171 9.04882 4.14645 8.85355L4.85355 8.14645ZM2 6L1.64645 6.35355C1.45118 6.15829 1.45118 5.84171 1.64645 5.64645L2 6ZM4.14645 3.14645C4.34171 2.95118 4.65829 2.95118 4.85355 3.14645C5.04882 3.34171 5.04882 3.65829 4.85355 3.85355L4.14645 3.14645ZM8 5.5C8.27614 5.5 8.5 5.72386 8.5 6C8.5 6.27614 8.27614 6.5 8 6.5V5.5ZM7.85355 8.85355C7.65829 9.04882 7.34171 9.04882 7.14645 8.85355C6.95118 8.65829 6.95118 8.34171 7.14645 8.14645L7.85355 8.85355ZM10 6L10.3536 5.64645C10.4473 5.74021 10.5 5.86739 10.5 6C10.5 6.13261 10.4473 6.25979 10.3536 6.35355L10 6ZM7.14645 3.85355C6.95118 3.65829 6.95118 3.34171 7.14645 3.14645C7.34171 2.95118 7.65829 2.95118 7.85355 3.14645L7.14645 3.85355ZM4 6.5C3.72386 6.5 3.5 6.27614 3.5 6C3.5 5.72386 3.72386 5.5 4 5.5L4 6.5ZM4.14645 8.85355L1.64645 6.35355L2.35355 5.64645L4.85355 8.14645L4.14645 8.85355ZM1.64645 5.64645L4.14645 3.14645L4.85355 3.85355L2.35355 6.35355L1.64645 5.64645ZM8 6.5L2 6.5L2 5.5L8 5.5V6.5ZM7.14645 8.14645L9.64645 5.64645L10.3536 6.35355L7.85355 8.85355L7.14645 8.14645ZM9.64645 6.35355L7.14645 3.85355L7.85355 3.14645L10.3536 5.64645L9.64645 6.35355ZM4 5.5L10 5.5V6.5L4 6.5L4 5.5Z" fill="#5E5FF5"/>
</g>
<defs>
<clipPath id="clip0_3544_75083">
<rect width="12" height="12" fill="white"/>
</clipPath>
</defs>
</svg>
