<svg width="10" height="10" viewBox="0 0 10 10" fill="none" xmlns="http://www.w3.org/2000/svg">
<path d="M0.0168601 6.33552C0.0336887 6.39909 0.0629772 6.45869 0.103026 6.51085C0.143074 6.56301 0.193085 6.6067 0.250156 6.63938L1.20587 7.19204V8.29285C1.20587 8.42561 1.25861 8.55294 1.3525 8.64682C1.44639 8.7407 1.57373 8.79344 1.7065 8.79344H2.8074L3.3601 9.74958C3.42668 9.86435 3.53602 9.94807 3.66419 9.98241C3.79236 10.0167 3.92892 9.99891 4.04396 9.9328L4.99968 9.38064L5.95589 9.9333C6.07093 9.99941 6.20749 10.0172 6.33566 9.98291C6.46383 9.94857 6.57318 9.86485 6.63975 9.75008L7.19195 8.79444H8.29285C8.42563 8.79444 8.55296 8.7417 8.64685 8.64782C8.74074 8.55394 8.79348 8.42661 8.79348 8.29385V7.19304L9.7492 6.64038C9.80618 6.60756 9.85613 6.56382 9.89619 6.51167C9.93624 6.45952 9.96562 6.39999 9.98264 6.33647C9.99966 6.27296 10.004 6.20671 9.99537 6.14152C9.98675 6.07633 9.96537 6.01348 9.93243 5.95657L9.38023 5.00043L9.93293 4.04479C9.99931 3.92981 10.0173 3.79318 9.98294 3.66494C9.94858 3.5367 9.86468 3.42736 9.7497 3.36098L8.79399 2.80832V1.70751C8.79399 1.57474 8.74124 1.44741 8.64735 1.35353C8.55346 1.25966 8.42613 1.20691 8.29335 1.20691H7.19245L6.64026 0.251277C6.57373 0.136452 6.46449 0.0525948 6.33637 0.0179989C6.27287 0.000814082 6.20659 -0.00360994 6.14137 0.00498264C6.07614 0.0135752 6.01327 0.0350139 5.95639 0.0680585L4.99968 0.620216L4.04396 0.0675578C3.98709 0.0345362 3.92426 0.0130662 3.85907 0.00437884C3.79389 -0.00430849 3.72762 -4.20881e-05 3.66409 0.0169334C3.60055 0.0339089 3.541 0.0632594 3.48883 0.103302C3.43666 0.143344 3.39292 0.19329 3.3601 0.250275L2.8074 1.20641H1.7065C1.57373 1.20641 1.44639 1.25915 1.3525 1.35303C1.25861 1.44691 1.20587 1.57424 1.20587 1.70701V2.80782L0.250156 3.36098C0.13536 3.42754 0.0516537 3.53691 0.0173975 3.66511C-0.0168587 3.7933 0.00113228 3.92984 0.0674242 4.04479L0.619624 5.00043L0.0669236 5.95607C0.000787526 6.07098 -0.0172094 6.20738 0.0168601 6.33552Z" fill="white"/>
<path d="M3.125 5.17857L4.4375 6.25L6.875 3.75" stroke="#1E1E1E" stroke-linecap="round"/>
</svg>
