<svg width="78" height="20" viewBox="0 0 78 20" fill="none" xmlns="http://www.w3.org/2000/svg">
<g clip-path="url(#clip0_6984_2234)">
<path d="M16.0256 3.61347L16.1231 4.2053L16.1231 4.20545C16.1289 4.24006 16.2301 4.87063 16.23 5.86801C16.2301 6.81668 16.1385 8.09725 15.7897 9.51482C15.4581 10.8625 14.8541 12.4681 13.761 14.0453C12.6673 15.6226 11.0863 17.1738 8.78183 18.4202L8.50003 18.5726L8.21819 18.4202C5.91376 17.1738 4.33276 15.6226 3.23907 14.0453C2.14599 12.4681 1.54191 10.8625 1.21032 9.51481C0.861513 8.09734 0.769993 6.81683 0.770061 5.86817C0.769984 4.87075 0.871175 4.23993 0.876923 4.20559L0.876968 4.2053L0.974503 3.61346C1.00784 3.41118 0.871333 3.22009 0.669616 3.18667C0.467899 3.15324 0.277348 3.29012 0.244015 3.4924L0.146476 4.08424L0.146521 4.08395C0.135341 4.15182 0.02974 4.82023 0.0296631 5.86817C0.029731 6.86444 0.125209 8.20352 0.491475 9.69266C0.840282 11.1102 1.47631 12.8026 2.63108 14.469C3.78525 16.1352 5.45984 17.773 7.86682 19.0737L8.32434 19.3211C8.43437 19.3806 8.56573 19.3806 8.67576 19.3211L9.13323 19.0737C11.5402 17.773 13.2148 16.1352 14.369 14.469C15.5237 12.8026 16.1598 11.1102 16.5085 9.69267C16.8748 8.20344 16.9703 6.8643 16.9704 5.86801C16.9703 4.82022 16.8647 4.15171 16.8536 4.08408L16.8536 4.08423L16.7561 3.4924C16.7227 3.29011 16.5322 3.15323 16.3304 3.18667C16.1287 3.2201 15.9922 3.41118 16.0256 3.61347Z" fill="white"/>
<path d="M2.99706 3.20979L8.50048 1.52508L14.1263 3.24727C14.3219 3.30713 14.5288 3.19669 14.5885 3.0006C14.6482 2.8045 14.5381 2.59701 14.3425 2.53715L8.60857 0.781869C8.53782 0.76021 8.46315 0.76021 8.3924 0.781869L2.78089 2.49967C2.58534 2.55953 2.47521 2.76702 2.53491 2.96312C2.5946 3.15921 2.80151 3.26965 2.99706 3.20979Z" fill="white"/>
<path d="M0.279097 3.72177L8.16988 19.1632C8.23289 19.2865 8.35795 19.3639 8.49612 19.3651C8.63428 19.3663 8.76067 19.2911 8.82582 19.1689L13.6369 10.1451L13.644 10.1311L16.7237 3.71345C16.8124 3.5287 16.7349 3.30686 16.5506 3.21796C16.3664 3.12905 16.1452 3.20675 16.0565 3.3915L12.9803 9.8019L8.5063 18.1935L0.938025 3.38317C0.844779 3.2007 0.621687 3.12859 0.439731 3.22209C0.257771 3.31559 0.18585 3.53931 0.279097 3.72177Z" fill="white"/>
<path d="M4.05648 10.5994H12.8302C13.0347 10.5994 13.2004 10.4332 13.2004 10.2282C13.2004 10.0231 13.0347 9.85693 12.8302 9.85693H4.05648C3.85202 9.85693 3.68628 10.0231 3.68628 10.2282C3.68628 10.4332 3.85202 10.5994 4.05648 10.5994Z" fill="white"/>
<path d="M28.5705 7.34036H22.8752C22.7735 7.34036 22.6863 7.377 22.6133 7.44993C22.5402 7.52303 22.5038 7.61048 22.5038 7.7121V12.2874C22.5038 12.389 22.5402 12.4765 22.6133 12.5494C22.6863 12.6225 22.7735 12.6592 22.8752 12.6592H28.5705V13.4312H22.8752C22.5577 13.4312 22.2879 13.32 22.0657 13.0976C21.8433 12.8752 21.7324 12.6052 21.7324 12.2874V7.7121C21.7324 7.39445 21.8433 7.12433 22.0657 6.90191C22.2879 6.67948 22.5577 6.56836 22.8752 6.56836H28.5705V7.34036Z" fill="white"/>
<path d="M39.266 6.56885V7.34085H33.7801V9.6095H38.1897V10.391H33.7801V12.6597H39.266V13.4317H33.0088V6.56885H39.266Z" fill="white"/>
<path d="M50.5609 7.72187V9.73301C50.5609 10.051 50.4497 10.321 50.2274 10.5434C50.0052 10.7658 49.7355 10.8769 49.4179 10.8769H48.3704L50.5227 13.4314H49.5037L47.3608 10.8769H44.8466C44.7894 10.8769 44.6656 10.8643 44.4751 10.8387V13.4314H43.7036V6.57812H49.4179C49.7355 6.57812 50.0052 6.68925 50.2274 6.91167C50.4497 7.13427 50.5609 7.40422 50.5609 7.72187ZM44.8466 10.0952H49.4179C49.5194 10.0952 49.6053 10.0605 49.6752 9.99052C49.745 9.92052 49.7798 9.8348 49.7798 9.73301V7.72187C49.7798 7.62025 49.745 7.53297 49.6752 7.4597C49.6053 7.38676 49.5194 7.35013 49.4179 7.35013H44.8466C44.7449 7.35013 44.6575 7.38676 44.5846 7.4597C44.5116 7.53297 44.4751 7.62025 44.4751 7.72187V9.73301C44.4751 9.8348 44.5116 9.92052 44.5846 9.99052C44.6575 10.0605 44.7449 10.0952 44.8466 10.0952Z" fill="white"/>
<path d="M54.6548 6.56885H61.512V7.34085H58.4737V13.4317H57.7022V7.34085H54.6548V6.56885Z" fill="white"/>
<path d="M65.6663 13.4317V6.56885H66.4378V13.4317H65.6663Z" fill="white"/>
<path d="M76.7322 6.56885H77.7227L74.8562 10.0002L77.7324 13.4317H76.7322L74.18 10.391H71.9704V13.4317H71.1896V6.56885H71.9704V9.6095H74.18L76.7322 6.56885Z" fill="white"/>
</g>
<defs>
<clipPath id="clip0_6984_2234">
<rect width="78" height="20" fill="white"/>
</clipPath>
</defs>
</svg>
