<svg width="24" height="24" viewBox="0 0 24 24" fill="none" xmlns="http://www.w3.org/2000/svg">
<path d="M3.89927 13.7789C5.61259 15.5479 8.60058 18 12.0001 18C15.3995 18 18.3872 15.5479 20.1006 13.7789L20.1014 13.778C20.553 13.3117 20.7792 13.0782 20.923 12.6202C21.0257 12.2934 21.0257 11.7066 20.923 11.3798C20.7791 10.9218 20.553 10.6883 20.1013 10.2219L20.1006 10.2211C18.3872 8.45208 15.3995 6 12.0001 6C8.60058 6 5.61259 8.45208 3.89927 10.2211C3.44705 10.688 3.22093 10.9215 3.07699 11.3798C2.97434 11.7066 2.97434 12.2934 3.07699 12.6202C3.22092 13.0785 3.44703 13.3119 3.8992 13.7788L3.89927 13.7789Z" stroke="#1A1A1A" stroke-linecap="round" stroke-linejoin="round"/>
<path d="M10 12C10 13.1046 10.8954 14 12 14C13.1046 14 14 13.1046 14 12C14 10.8954 13.1046 10 12 10C10.8954 10 10 10.8954 10 12Z" stroke="#1A1A1A" stroke-linecap="round" stroke-linejoin="round"/>
</svg>
