<svg width="16" height="16" viewBox="0 0 16 16" fill="none" xmlns="http://www.w3.org/2000/svg">
<path fill-rule="evenodd" clip-rule="evenodd" d="M8 1C8.25104 1 8.45455 1.20893 8.45455 1.46667L8.45455 10.5557L11.4777 7.65884C11.6613 7.48299 11.9489 7.49317 12.1202 7.68159C12.2915 7.87 12.2815 8.1653 12.098 8.34116L8.31014 11.9708C8.13551 12.1381 7.8645 12.1381 7.68986 11.9708L3.90198 8.34116C3.71845 8.1653 3.70854 7.87 3.87982 7.68159C4.05111 7.49317 4.33874 7.48299 4.52227 7.65884L7.54545 10.5557L7.54545 1.46667C7.54545 1.20893 7.74896 1 8 1ZM3 14.5333C3 14.2756 3.20351 14.0667 3.45455 14.0667H12.5455C12.7965 14.0667 13 14.2756 13 14.5333C13 14.7911 12.7965 15 12.5455 15H3.45455C3.20351 15 3 14.7911 3 14.5333Z" fill="#1A1A1A"/>
</svg>
