<svg width="32" height="32" viewBox="0 0 32 32" fill="none" xmlns="http://www.w3.org/2000/svg">
<path fill-rule="evenodd" clip-rule="evenodd" d="M16.9533 5.49706C15.065 3.24721 15.9321 1.34544 16.6016 0.675781C14.2413 2.4837 11.7301 5.29613 10.6755 8.40982C9.83179 10.9008 10.3909 14.8381 10.7759 16.4954C8.40552 15.2499 8.04728 11.5235 8.16446 9.816C8.16446 9.816 4.95033 12.779 5.00058 18.2531C5.00113 18.3123 5.002 18.3711 5.0032 18.4294H5.0005C5.0005 21.2197 6.10894 23.8956 8.08196 25.8687C10.055 27.8417 12.731 28.9501 15.5212 28.9501C18.3115 28.9501 20.9875 27.8417 22.9605 25.8687C24.9335 23.8956 26.042 21.2197 26.042 18.4294H26.039C26.0417 18.322 26.0431 18.213 26.0431 18.1024C26.0431 12.6783 22.4592 9.95544 19.6049 7.78694C18.548 6.98398 17.5911 6.25702 16.9533 5.49706ZM15.9353 26.9103C20.2206 26.9103 23.6937 23.5882 23.6937 19.492C23.6937 16.0559 21.2517 13.1634 17.9366 12.3203C19.1617 13.63 19.9074 15.3639 19.9074 17.2623C19.9074 19.9798 18.3773 22.358 16.0961 23.6492C16.692 22.5993 17.0302 21.3956 17.0302 20.1177C17.0302 19.4549 16.9387 18.8133 16.7669 18.2008C16.3511 21.3664 13.8454 23.9117 10.6134 24.5347C10.5108 24.5533 10.4083 24.5718 10.3029 24.5877C11.1234 25.4202 12.1434 26.0698 13.2882 26.4648C14.1142 26.7538 15.0068 26.9103 15.9353 26.9103Z" fill="url(#paint0_linear_80_1639)"/>
<defs>
<linearGradient id="paint0_linear_80_1639" x1="31.7504" y1="46.1798" x2="15.029" y2="-0.28358" gradientUnits="userSpaceOnUse">
<stop stop-color="#2C00AA" stop-opacity="0"/>
<stop offset="0.249999" stop-color="#4200FF"/>
<stop offset="0.730399" stop-color="#FF2828"/>
<stop offset="1" stop-color="#FFC670"/>
</linearGradient>
</defs>
</svg>
