<svg width="564" height="219" viewBox="0 0 564 219" fill="none" xmlns="http://www.w3.org/2000/svg">
<path fill-rule="evenodd" clip-rule="evenodd" d="M438 102C434.686 102 432 99.3137 432 96C432 99.3137 429.314 102 426 102C429.314 102 432 104.686 432 108C432 104.686 434.686 102 438 102Z" fill="#BE9D76"/>
<path d="M444 102H441M423 102H420M432 114V111M432 93V90" stroke="#BE9D76" stroke-width="0.75"/>
<path fill-rule="evenodd" clip-rule="evenodd" d="M483 12C479.686 12 477 9.31371 477 6C477 9.31371 474.314 12 471 12C474.314 12 477 14.6863 477 18C477 14.6863 479.686 12 483 12Z" fill="#BE9D76"/>
<path d="M489 12H486M468 12H465M477 24V21M477 3V0" stroke="#BE9D76" stroke-width="0.75"/>
<path fill-rule="evenodd" clip-rule="evenodd" d="M348 117C344.686 117 342 114.314 342 111C342 114.314 339.314 117 336 117C339.314 117 342 119.686 342 123C342 119.686 344.686 117 348 117Z" fill="#BE9D76"/>
<path d="M354 117H351M333 117H330M342 129V126M342 108V105" stroke="#BE9D76" stroke-width="0.75"/>
<path fill-rule="evenodd" clip-rule="evenodd" d="M558 207C554.686 207 552 204.314 552 201C552 204.314 549.314 207 546 207C549.314 207 552 209.686 552 213C552 209.686 554.686 207 558 207Z" fill="#BE9D76"/>
<path d="M564 207H561M543 207H540M552 219V216M552 198V195" stroke="#BE9D76" stroke-width="0.75"/>
<path fill-rule="evenodd" clip-rule="evenodd" d="M138 132C134.686 132 132 129.314 132 126C132 129.314 129.314 132 126 132C129.314 132 132 134.686 132 138C132 134.686 134.686 132 138 132Z" fill="#BE9D76"/>
<path d="M144 132H141M123 132H120M132 144V141M132 123V120" stroke="#BE9D76" stroke-width="0.75"/>
<path fill-rule="evenodd" clip-rule="evenodd" d="M213 72C209.686 72 207 69.3137 207 66C207 69.3137 204.314 72 201 72C204.314 72 207 74.6863 207 78C207 74.6863 209.686 72 213 72Z" fill="#BE9D76"/>
<path d="M219 72H216M198 72H195M207 84V81M207 63V60" stroke="#BE9D76" stroke-width="0.75"/>
<path fill-rule="evenodd" clip-rule="evenodd" d="M63 12C59.6863 12 57 9.31371 57 6C57 9.31371 54.3137 12 51 12C54.3137 12 57 14.6863 57 18C57 14.6863 59.6863 12 63 12Z" fill="#BE9D76"/>
<path d="M69 12H66M48 12H45M57 24V21M57 3V0" stroke="#BE9D76" stroke-width="0.75"/>
<path fill-rule="evenodd" clip-rule="evenodd" d="M18 207C14.6863 207 12 204.314 12 201C12 204.314 9.31371 207 6 207C9.31371 207 12 209.686 12 213C12 209.686 14.6863 207 18 207Z" fill="#BE9D76"/>
<path d="M24 207H21M3 207H0M12 219V216M12 198V195" stroke="#BE9D76" stroke-width="0.75"/>
</svg>
