<svg width="293" height="276" viewBox="0 0 293 276" fill="none" xmlns="http://www.w3.org/2000/svg">
<path d="M228.192 62.6885H38.6621V93.2238H228.192V62.6885Z" stroke="black" stroke-width="0.8" stroke-miterlimit="10"/>
<path d="M38.671 62.6885H228.192V185.554C228.192 197.933 218.18 207.994 205.843 207.994H61.0101C48.682 207.994 38.6621 197.942 38.6621 185.554V62.6885H38.671Z" stroke="black" stroke-width="0.8" stroke-miterlimit="10"/>
<path d="M87.0981 159.559H64.9863V220.629H87.0981V159.559Z" fill="black" stroke="black" stroke-width="1.38" stroke-miterlimit="10"/>
<path d="M117.633 135.341H96.5742V220.63H117.633V135.341Z" fill="#1F8DF2" stroke="black" stroke-width="0.8" stroke-miterlimit="10"/>
<path d="M149.221 179.565H128.162V220.63H149.221V179.565Z" fill="black" stroke="black" stroke-width="1.09" stroke-miterlimit="10"/>
<path d="M55.0095 78.4823C55.0095 80.5322 53.3477 82.194 51.2977 82.194C49.2478 82.194 47.5859 80.5322 47.5859 78.4823C47.5859 76.4323 49.2478 74.7705 51.2977 74.7705C53.3477 74.7705 55.0095 76.4323 55.0095 78.4823Z" stroke="black"/>
<path d="M69.7497 78.4823C69.7497 80.5322 68.0879 82.194 66.0379 82.194C63.988 82.194 62.3262 80.5322 62.3262 78.4823C62.3262 76.4323 63.988 74.7705 66.0379 74.7705C68.0879 74.7705 69.7497 76.4323 69.7497 78.4823Z" stroke="black"/>
<circle cx="216.083" cy="185.356" r="37.9324" fill="white" stroke="black" stroke-dasharray="1.61 3.21"/>
<circle cx="216.082" cy="185.356" r="31.9184" fill="#1F8DF2"/>
<path d="M224.499 199.914C224.499 199.914 227.141 200.108 229.045 199.914C230.643 199.698 232.17 199.254 233.594 198.618C233.77 198.539 233.843 198.326 233.756 198.152L231.139 192.876L231.12 192.838C229.79 193.437 228.319 193.773 226.771 193.773C225.65 193.773 224.571 193.597 223.555 193.274C221.917 192.753 220.448 191.843 219.253 190.651C218.443 189.843 217.368 189.369 216.231 189.369H211.409C211.151 189.369 210.989 189.09 211.112 188.862L213.473 184.484L215.81 180.151C215.938 179.913 216.275 179.913 216.404 180.151C216.404 180.151 216.406 180.144 216.407 180.141L218.741 184.485L219.903 186.606C219.938 186.671 219.974 186.737 220.01 186.801C221.348 189.182 223.873 190.79 226.771 190.79C227.71 190.79 228.611 190.621 229.445 190.311C229.635 190.241 229.722 190.017 229.63 189.834L225.368 181.245L221.486 173.419L218.71 167.824L216.41 163.189C216.286 162.937 215.93 162.937 215.806 163.189L206.846 181.246L197.829 199.417C197.716 199.646 197.88 199.914 198.132 199.914C198.132 199.914 202.667 196.091 210.889 196.091C212.111 196.091 213.329 196.236 214.486 196.635C215.447 196.968 216.887 197.74 218.097 198.248C218.913 198.589 219.698 198.998 220.552 199.228C221.727 199.547 223.333 199.914 224.5 199.914H224.499Z" fill="white"/>
<path d="M29.6701 196.32L32.3781 201.295L35.086 206.279L29.435 206.143L23.7923 206.008L26.7272 201.16L29.6701 196.32Z" fill="black" stroke="black" stroke-width="0.8" stroke-miterlimit="10"/>
<path d="M241.442 49.135L244.15 54.1104L246.857 59.0941L241.207 58.9589L235.564 58.8239L238.499 53.9752L241.442 49.135Z" fill="black" stroke="black" stroke-width="0.8" stroke-miterlimit="10"/>
<path d="M262.413 214.312L266.361 221.15L270.31 228H262.413H254.516L258.464 221.15L262.413 214.312Z" stroke="black" stroke-width="0.8" stroke-miterlimit="10"/>
</svg>
