<svg width="121" height="147" viewBox="0 0 121 147" fill="none" xmlns="http://www.w3.org/2000/svg">
<path fill-rule="evenodd" clip-rule="evenodd" d="M120.979 0H0.978516V115.602H120.979V0ZM60.9785 115.603H0.978718L60.9785 146.333V115.603ZM60.9859 115.603H120.986L60.9859 146.333V115.603Z" fill="#EB605F"/>
<path fill-rule="evenodd" clip-rule="evenodd" d="M61.0054 68.0449H60.9984V111.945H61.0054V68.0449ZM61.0063 130.601L81.8042 111.945H85.8835V113.773L61.0063 134.991V130.601ZM61.0063 139.015V139.016L113.689 111.945H97.783L61.0063 139.015ZM97.7832 111.945H113.681V100.243L97.7832 111.945ZM85.8835 111.945H81.8044L85.8835 108.286V111.945ZM40.1999 111.945L60.9984 130.601V111.945H60.9992V139.016L8.31625 111.945H24.2212L60.9984 139.015V134.991L36.1203 113.773V111.945H40.1999ZM40.1992 111.945L36.1203 108.286V111.945H40.1992ZM24.2204 111.945L8.31543 100.237V111.945H24.2204Z" fill="white" fill-opacity="0.16"/>
<path fill-rule="evenodd" clip-rule="evenodd" d="M120.979 0H0.978516V115.602H0.979656L60.9785 146.332V115.602H60.9859V146.332L120.986 115.602H120.979V0Z" fill="url(#paint0_angular_166_15481)" style="mix-blend-mode:multiply"/>
<path d="M42.334 61.0947H53.6751L42.334 95.8497V61.0947Z" fill="white" fill-opacity="0.8"/>
<path d="M55.5039 80.1182L78.5519 96.581H79.2836V80.1182H55.5039Z" fill="white" fill-opacity="0.5"/>
<path d="M64.6507 71.7041C65.8214 65.8507 60.7484 62.1923 58.0655 61.0947H79.2844L78.5527 79.3868H56.2363C62.0898 79.0941 64.2848 74.1431 64.6507 71.7041Z" fill="white"/>
<path fill-rule="evenodd" clip-rule="evenodd" d="M78.5529 61.4604H43.4321V96.5813H78.5529V61.4604ZM41.9688 59.9971V98.0446H80.0163V59.9971H41.9688Z" fill="white"/>
<path fill-rule="evenodd" clip-rule="evenodd" d="M54.4074 61.4604H43.4321V96.5813H54.4074V61.4604ZM41.9688 59.9971V98.0446H55.8707V59.9971H41.9688Z" fill="white"/>
<path fill-rule="evenodd" clip-rule="evenodd" d="M78.5528 80.4844H55.8706V96.5814H78.5528V80.4844ZM54.4072 79.021V98.0448H80.0162V79.021H54.4072Z" fill="white"/>
<path d="M55.8711 80.4586C61.187 80.0835 65.383 75.6521 65.383 70.2408C65.383 64.8294 61.187 60.3981 55.8711 60.0229V61.4906C60.3779 61.8624 63.9196 65.638 63.9196 70.2408C63.9196 74.8436 60.3779 78.6191 55.8711 78.9909V80.4586Z" fill="white"/>
<path fill-rule="evenodd" clip-rule="evenodd" d="M78.8527 97.5379L55.8047 80.7092L56.6676 79.5273L79.7157 96.3561L78.8527 97.5379Z" fill="white"/>
<path fill-rule="evenodd" clip-rule="evenodd" d="M42.005 96.8517L53.7119 60.8687L55.1035 61.3214L43.3965 97.3044L42.005 96.8517Z" fill="white"/>
<g clip-path="url(#clip0_166_15481)">
<path d="M46.2858 46.1196H43.7471L43.7628 43.9975H46.2858C46.8098 43.9975 47.2526 43.8717 47.6142 43.6202C47.981 43.3687 48.2587 42.994 48.4473 42.4962C48.6412 41.9932 48.7381 41.3749 48.7381 40.6413V40.1461C48.7381 39.5959 48.6831 39.1139 48.5731 38.6999C48.4683 38.2807 48.3111 37.9322 48.1015 37.6545C47.8919 37.3716 47.6299 37.1594 47.3155 37.0179C47.0063 36.8764 46.65 36.8057 46.2465 36.8057H43.6999V34.6756H46.2465C47.0221 34.6756 47.7321 34.8093 48.3766 35.0765C49.0263 35.3385 49.587 35.7158 50.0586 36.2083C50.5354 36.6956 50.9022 37.2746 51.159 37.9453C51.421 38.6108 51.552 39.3496 51.552 40.1618V40.6413C51.552 41.4482 51.421 42.1871 51.159 42.8578C50.9022 43.5285 50.538 44.1075 50.0665 44.5948C49.5949 45.0821 49.0368 45.4594 48.3923 45.7266C47.753 45.9886 47.0509 46.1196 46.2858 46.1196ZM45.3269 34.6756V46.1196H42.5681V34.6756H45.3269ZM60.8864 37.0808L58.0961 46.1196H55.1329L59.338 34.6756H61.2165L60.8864 37.0808ZM63.1972 46.1196L60.3991 37.0808L60.0375 34.6756H61.9396L66.1682 46.1196H63.1972ZM63.0871 41.8517V43.9817H57.2158V41.8517H63.0871ZM79.7391 40.1697V40.6334C79.7391 41.5085 79.6159 42.2945 79.3697 42.9914C79.1286 43.6831 78.7854 44.2752 78.34 44.7677C77.8946 45.255 77.368 45.6297 76.7602 45.8917C76.1524 46.1484 75.4816 46.2768 74.7481 46.2768C74.0092 46.2768 73.3333 46.1484 72.7202 45.8917C72.1124 45.6297 71.5831 45.255 71.1325 44.7677C70.6871 44.2752 70.3413 43.6831 70.095 42.9914C69.854 42.2945 69.7335 41.5085 69.7335 40.6334V40.1697C69.7335 39.2946 69.854 38.5086 70.095 37.8117C70.3413 37.1148 70.6845 36.5227 71.1247 36.0354C71.57 35.5428 72.0967 35.1682 72.7045 34.9114C73.3176 34.6494 73.9935 34.5184 74.7323 34.5184C75.4659 34.5184 76.1366 34.6494 76.7445 34.9114C77.3575 35.1682 77.8868 35.5428 78.3322 36.0354C78.7776 36.5227 79.1234 37.1148 79.3697 37.8117C79.6159 38.5086 79.7391 39.2946 79.7391 40.1697ZM76.941 40.6334V40.154C76.941 39.5881 76.8912 39.0903 76.7916 38.6606C76.6973 38.2257 76.5558 37.8615 76.3672 37.5681C76.1786 37.2746 75.9454 37.0546 75.6677 36.9078C75.3952 36.7559 75.0834 36.6799 74.7323 36.6799C74.3655 36.6799 74.0459 36.7559 73.7734 36.9078C73.501 37.0546 73.273 37.2746 73.0896 37.5681C72.9062 37.8615 72.7674 38.2257 72.6731 38.6606C72.584 39.0903 72.5394 39.5881 72.5394 40.154V40.6334C72.5394 41.1941 72.584 41.6919 72.6731 42.1268C72.7674 42.5565 72.9062 42.9207 73.0896 43.2193C73.2783 43.518 73.5088 43.7433 73.7813 43.8953C74.059 44.0472 74.3813 44.1232 74.7481 44.1232C75.0991 44.1232 75.4109 44.0472 75.6834 43.8953C75.9559 43.7433 76.1838 43.518 76.3672 43.2193C76.5558 42.9207 76.6973 42.5565 76.7916 42.1268C76.8912 41.6919 76.941 41.1941 76.941 40.6334Z" fill="white"/>
<g clip-path="url(#clip1_166_15481)">
<path d="M25.7617 31.1186L21.7886 32.2747L21.6934 34.755L19.2861 35.4574L20.1788 23.2752L22.2788 22.668L29.5886 32.4576L27.1813 33.16L25.7617 31.1186ZM21.8691 30.2626L24.613 29.4651L22.0374 25.7556L21.8691 30.2626Z" fill="white"/>
<path d="M37.5865 26.6539L35.7353 26.9685L36.4377 31.0951L34.1109 31.4902L32.1865 20.208L36.3792 19.491C37.7109 19.2642 38.7938 19.3885 39.6134 19.8568C40.4402 20.3251 40.9451 21.1079 41.128 22.1908C41.2597 22.959 41.2012 23.6322 40.9597 24.2029C40.7109 24.7736 40.2792 25.2711 39.6499 25.6881L42.8768 29.8805L42.8914 29.9903L40.3963 30.4147L37.5792 26.6466L37.5865 26.6539ZM35.4134 25.0882L37.2865 24.7662C37.8719 24.6638 38.2963 24.4443 38.567 24.0931C38.8377 23.7419 38.9255 23.3029 38.8377 22.7834C38.7499 22.2493 38.5231 21.8615 38.1719 21.6055C37.8207 21.3494 37.3304 21.2762 36.7012 21.386L34.8353 21.7079L35.4134 25.0955V25.0882Z" fill="white"/>
<path d="M55.4058 19.4697L51.9083 19.6892L52.501 29.2081L50.1449 29.3544L49.5522 19.8355L46.0985 20.0477L45.9814 18.1381L55.2888 17.5601L55.4058 19.4624V19.4697Z" fill="white"/>
<path d="M68.0224 24.3279L63.5004 24.1377L63.376 27.2033L68.6882 27.4228L68.6077 29.3178L60.9395 29.0032L61.4151 17.5674L69.0614 17.882L68.9809 19.7916L63.6907 19.5721L63.5809 22.3012L68.1029 22.4915L68.0224 24.3352V24.3279Z" fill="white"/>
<path d="M83.8073 19.7408L82.6951 27.1965C82.5122 28.433 81.978 29.3549 81.0926 29.9621C80.2073 30.5694 79.0951 30.767 77.7561 30.5694C76.4317 30.3719 75.4365 29.867 74.7634 29.0476C74.0902 28.2354 73.8414 27.2111 74.0024 25.9892L75.1292 18.4458L77.4634 18.797L76.3439 26.2672C76.2341 27.0062 76.3292 27.5769 76.6365 27.9647C76.9439 28.3598 77.4048 28.6012 78.0341 28.6964C79.3439 28.8939 80.1122 28.3013 80.339 26.9257L81.4658 19.397L83.8073 19.7482V19.7408Z" fill="white"/>
<path d="M93.5444 21.9283L94.1078 30.7156L99.1858 23.5307L102.164 24.3721L99.0395 35.3836L96.7639 34.7397L97.62 31.7326L99.3248 26.6036L94.0273 33.9641L92.4687 33.5251L91.8322 24.4891L90.5883 29.7425L89.7322 32.7496L87.4639 32.1057L90.5883 21.0942L93.5517 21.9356L93.5444 21.9283Z" fill="white"/>
</g>
</g>
<defs>
<radialGradient id="paint0_angular_166_15481" cx="0" cy="0" r="1" gradientUnits="userSpaceOnUse" gradientTransform="translate(60.9821 74.2633) rotate(90) scale(71.3367 60.0036)">
<stop stop-color="#EB605F" stop-opacity="0.4"/>
<stop offset="1" stop-color="#EB605F" stop-opacity="0"/>
</radialGradient>
<clipPath id="clip0_166_15481">
<rect width="105.366" height="35.1197" fill="white" transform="translate(8.31348 14.6333)"/>
</clipPath>
<clipPath id="clip1_166_15481">
<rect width="82.8732" height="17.8964" fill="white" transform="translate(19.29 17.5605)"/>
</clipPath>
</defs>
</svg>
