<svg width="135" height="110" viewBox="0 0 135 110" fill="none" xmlns="http://www.w3.org/2000/svg">
<g clip-path="url(#clip0_6850_35383)">
<path d="M134.491 66.7751L67.2297 0.124023L0.428449 66.7751H134.491Z" fill="white"/>
<path d="M134.007 66.4672C135.049 67.0678 135.053 68.0423 134.02 68.6429L69.579 106.079C68.5455 106.68 66.8635 106.68 65.8221 106.079L0.957903 68.6429C-0.0820035 68.0423 -0.0883445 67.0678 0.946806 66.4672L65.3877 29.031C66.4213 28.4304 68.1032 28.4304 69.1447 29.031L134.007 66.4672Z" fill="white"/>
<path d="M67.0408 39.8344L115.438 67.772L67.0726 95.7255L18.644 67.772L67.0408 39.8344Z" fill="white"/>
<path d="M52.0594 46.8544L53.5019 46.0145C54.5165 45.4282 55.9273 45.5074 57.4808 46.3948L56.0383 47.2347C54.4848 46.3473 53.0739 46.2681 52.0594 46.8544Z" fill="white"/>
<path d="M52.0594 46.8544L53.5019 46.0145C54.5165 45.4282 55.9273 45.5074 57.4808 46.3948L56.0383 47.2347C54.4848 46.3473 53.0739 46.2681 52.0594 46.8544Z" fill="white"/>
<path d="M56.0394 47.2515C52.9482 45.4608 50.4277 46.9029 50.4118 50.4525C50.396 54.0022 52.9165 58.3442 55.9918 60.119C59.083 61.9097 61.6035 60.4676 61.6194 56.918C61.6352 53.3683 59.1306 49.0263 56.0394 47.2515Z" fill="white"/>
<path d="M67.1418 17.1596L115.618 67.7739L67.1735 95.7749L67.1418 17.1596Z" fill="white"/>
<path d="M65.8984 106.068L1.03584 68.6335V68.6477C1.00096 68.6271 0.966088 68.6065 0.932799 68.5843C0.921702 68.578 0.912191 68.5701 0.901094 68.5637C0.878901 68.5495 0.858293 68.5352 0.837685 68.5194C0.826589 68.5115 0.813907 68.5019 0.80281 68.494C0.783788 68.4798 0.76635 68.4655 0.748913 68.4512C0.737816 68.4417 0.72672 68.4338 0.715623 68.4243C0.698186 68.41 0.682333 68.3958 0.666481 68.3815C0.655385 68.3704 0.642703 68.3609 0.631606 68.3498C0.625265 68.3435 0.618925 68.3371 0.612584 68.3308C0.598317 68.3165 0.582464 68.3007 0.569783 68.2848C0.565027 68.2801 0.560271 68.2738 0.555516 68.269C0.536493 68.2484 0.519056 68.2278 0.503203 68.2072C0.500033 68.2024 0.496862 68.1993 0.493692 68.1945C0.48101 68.1787 0.469914 68.1628 0.458817 68.1486C0.438209 68.12 0.419187 68.0931 0.403334 68.0646V68.0614C0.385897 68.0345 0.370045 68.0059 0.357363 67.979C0.352607 67.9695 0.349437 67.9616 0.344681 67.9521C0.33517 67.9331 0.327244 67.9125 0.319317 67.8934C0.316147 67.8839 0.311391 67.8744 0.308221 67.8649C0.300295 67.8427 0.293954 67.8205 0.287613 67.7984C0.286028 67.792 0.284443 67.7857 0.282857 67.7793C0.274931 67.7508 0.270176 67.7223 0.26542 67.6938C0.26542 67.6858 0.263835 67.6795 0.262249 67.6716C0.259079 67.6494 0.257494 67.6288 0.255909 67.6066C0.255909 67.5892 0.254323 67.5718 0.254323 67.5527L0.244812 70.8536C0.244812 70.8663 0.244812 70.8805 0.244812 70.8932C0.244812 70.898 0.244812 70.9027 0.244812 70.9075C0.244812 70.9297 0.247982 70.9503 0.251153 70.9724C0.251153 70.9804 0.251153 70.9867 0.254323 70.9946C0.259079 71.0232 0.263835 71.0517 0.271761 71.0802V71.0834C0.271761 71.0834 0.274931 71.0929 0.276516 71.0976C0.282857 71.1198 0.289198 71.142 0.297124 71.1642C0.300295 71.1737 0.303465 71.1832 0.308221 71.1927C0.316147 71.2117 0.324073 71.2323 0.333584 71.2513C0.336755 71.2577 0.33834 71.2624 0.341511 71.2688C0.341511 71.2719 0.344681 71.2751 0.346266 71.2783C0.360533 71.3068 0.3748 71.3337 0.390653 71.3607V71.3639C0.409675 71.3924 0.428698 71.4209 0.447721 71.4478C0.449306 71.451 0.450891 71.4542 0.454061 71.4573C0.463573 71.47 0.473084 71.4827 0.482595 71.4954C0.485766 71.5001 0.488936 71.5033 0.492107 71.5081C0.507959 71.5287 0.526982 71.5493 0.544419 71.5699C0.549175 71.5746 0.55393 71.581 0.558686 71.5857C0.572953 71.6016 0.58722 71.6158 0.603072 71.6317C0.609413 71.638 0.615754 71.6443 0.622095 71.6507C0.626851 71.6554 0.631606 71.6602 0.637947 71.6665C0.644288 71.6729 0.650629 71.6776 0.65697 71.684C0.672822 71.6982 0.688674 71.7125 0.706112 71.7267C0.717208 71.7363 0.728305 71.7458 0.739402 71.7537C0.756839 71.7679 0.775862 71.7822 0.793299 71.7965C0.804396 71.8044 0.815492 71.8139 0.828174 71.8218C0.848782 71.8361 0.870975 71.8519 0.893168 71.8662C0.904265 71.8725 0.913776 71.8805 0.924873 71.8868C0.958162 71.9074 0.991452 71.9296 1.02791 71.9502V71.9359L65.8905 109.372L65.9 106.071L65.8984 106.068Z" fill="#7246ee" class="dao-color"/>
<path d="M69.3276 109.502C69.3419 109.496 69.3561 109.489 69.3704 109.483C69.3926 109.472 69.4148 109.461 69.4386 109.45C69.4497 109.443 69.4608 109.439 69.4718 109.432C69.5051 109.415 69.5384 109.397 69.5701 109.378L69.5796 106.078C69.5479 106.097 69.5146 106.114 69.4814 106.131C69.4703 106.138 69.4592 106.143 69.4481 106.147C69.4259 106.158 69.4021 106.171 69.3799 106.182C69.3656 106.189 69.353 106.195 69.3387 106.201C69.3181 106.211 69.2975 106.22 69.2753 106.23C69.2594 106.236 69.2452 106.242 69.2293 106.249C69.2087 106.257 69.1897 106.265 69.1691 106.272C69.1168 106.293 69.0629 106.312 69.009 106.33C68.9979 106.333 68.9852 106.337 68.9741 106.341C68.9202 106.358 68.8647 106.374 68.8092 106.388C68.7997 106.391 68.7886 106.393 68.7791 106.396C68.7411 106.406 68.7014 106.415 68.6618 106.425C68.6475 106.428 68.6333 106.431 68.6174 106.434C68.5762 106.444 68.5334 106.452 68.4906 106.459C68.4827 106.459 68.4747 106.463 68.4668 106.464C68.4193 106.472 68.3717 106.48 68.3226 106.486C68.3099 106.488 68.2972 106.49 68.2829 106.491C68.2465 106.496 68.2116 106.501 68.1751 106.504C68.1593 106.505 68.1419 106.507 68.126 106.509C68.0911 106.512 68.0547 106.515 68.0182 106.517C68.0039 106.517 67.9897 106.518 67.9754 106.52C67.9263 106.523 67.8771 106.524 67.8264 106.526C67.8216 106.526 67.8169 106.526 67.8121 106.526C67.7646 106.526 67.717 106.526 67.6694 106.526C67.6536 106.526 67.6393 106.526 67.6235 106.526C67.5839 106.526 67.5426 106.524 67.503 106.523C67.4903 106.523 67.4776 106.523 67.465 106.523C67.4063 106.52 67.3476 106.515 67.289 106.51C67.2763 106.51 67.2636 106.507 67.251 106.507C67.1939 106.501 67.1384 106.494 67.0829 106.488H67.0718C67.0259 106.48 66.9783 106.472 66.9323 106.464C66.9196 106.463 66.9054 106.459 66.8927 106.456C66.8594 106.45 66.8277 106.444 66.7944 106.437C66.7786 106.434 66.7611 106.431 66.7453 106.426C66.7151 106.42 66.685 106.412 66.6565 106.406C66.6406 106.401 66.6248 106.398 66.6089 106.393C66.5772 106.385 66.5455 106.375 66.5154 106.368C66.5027 106.364 66.49 106.361 66.4774 106.356C66.4251 106.341 66.3743 106.325 66.3236 106.306C66.3125 106.301 66.2998 106.298 66.2887 106.293C66.2428 106.276 66.1968 106.258 66.1524 106.241C66.1461 106.239 66.1413 106.236 66.135 106.234C66.0858 106.214 66.0383 106.192 65.9923 106.169C65.9812 106.165 65.9701 106.158 65.959 106.154C65.913 106.131 65.8686 106.108 65.8258 106.082L65.8195 106.079L65.81 109.38H65.8116L65.8147 109.383C65.8575 109.409 65.9035 109.432 65.9495 109.455C65.9606 109.459 65.9717 109.466 65.9828 109.47C66.0287 109.493 66.0763 109.515 66.1255 109.535C66.1318 109.538 66.1365 109.54 66.1429 109.542C66.1873 109.561 66.2332 109.578 66.2792 109.594C66.2903 109.599 66.303 109.602 66.3141 109.607C66.3648 109.624 66.4155 109.641 66.4679 109.657C66.471 109.657 66.4726 109.659 66.4758 109.661C66.4853 109.664 66.4964 109.665 66.5059 109.668C66.5376 109.678 66.5677 109.686 66.5994 109.694C66.6153 109.699 66.6311 109.702 66.647 109.706C66.6771 109.714 66.7056 109.721 66.7358 109.727C66.7516 109.73 66.7675 109.735 66.7849 109.738C66.8182 109.744 66.8499 109.751 66.8832 109.757C66.8959 109.76 66.9101 109.762 66.9228 109.765C66.9688 109.773 67.0148 109.781 67.0623 109.787H67.0655C67.0655 109.787 67.0718 109.787 67.075 109.787C67.1305 109.795 67.1875 109.802 67.243 109.806C67.2557 109.806 67.2684 109.809 67.2811 109.809C67.3397 109.814 67.3968 109.819 67.4555 109.822C67.4586 109.822 67.4618 109.822 67.4665 109.822C67.4761 109.822 67.4856 109.822 67.4935 109.822C67.5331 109.824 67.5743 109.825 67.614 109.825C67.6298 109.825 67.6441 109.825 67.6599 109.825C67.7075 109.825 67.7551 109.825 67.801 109.825C67.8058 109.825 67.809 109.825 67.8137 109.825H67.8169C67.866 109.825 67.9152 109.822 67.9659 109.819C67.9802 109.819 67.9944 109.817 68.0087 109.816C68.0452 109.813 68.08 109.811 68.1165 109.808C68.1244 109.808 68.1339 109.808 68.1418 109.806C68.1498 109.806 68.1577 109.805 68.1656 109.803C68.2021 109.8 68.2385 109.795 68.275 109.79C68.2877 109.789 68.3004 109.787 68.3131 109.786C68.3606 109.779 68.4098 109.771 68.4573 109.764H68.4621C68.4621 109.764 68.4747 109.76 68.4811 109.759C68.5239 109.751 68.5651 109.743 68.6079 109.733C68.6222 109.73 68.6364 109.727 68.6523 109.724C68.6919 109.714 68.73 109.706 68.7696 109.695C68.7775 109.694 68.7855 109.692 68.7934 109.689C68.795 109.689 68.7981 109.689 68.7997 109.687C68.8552 109.673 68.9107 109.657 68.9646 109.64C68.9757 109.637 68.9884 109.632 68.9995 109.629C69.0534 109.611 69.1073 109.592 69.1596 109.572H69.1627C69.1818 109.564 69.2008 109.556 69.2198 109.548C69.2356 109.542 69.2515 109.535 69.2674 109.529C69.288 109.519 69.3086 109.51 69.3292 109.5L69.3276 109.502Z" fill="#7246ee" class="dao-color"/>
<path d="M41.8677 71.4494C43.4212 72.3526 44.6894 74.5395 44.6894 76.3301L44.6735 82.8273L39.0301 79.5628L39.046 73.0657C39.0301 71.275 40.3142 70.5461 41.8677 71.4494Z" fill="#7246ee" class="dao-color"/>
<path d="M67.3525 0L67.1067 0.00042173L0.613795 66.3438H1.1077L67.2302 0.369949L133.808 66.3438H134.303L67.3525 0Z" fill="#1A1A1A"/>
<path d="M0.214561 71.5003C0.363229 71.7189 0.58568 71.9167 0.870957 72.0814L65.7351 109.518C66.2885 109.837 67.0012 109.991 67.7037 109.991C68.4061 109.991 69.1171 109.837 69.6667 109.517L134.108 72.0812C134.391 71.9165 135 71.5 134.966 70.8618L134.306 71.5003C134.207 71.5975 134.084 71.6915 133.933 71.7794L69.4916 109.216C69.0078 109.497 68.361 109.642 67.7037 109.642C67.0464 109.642 66.3974 109.497 65.9093 109.215L1.04521 71.7792C0.893232 71.6914 0.768558 71.5974 0.668862 71.5003H0.214561Z" fill="#1A1A1A"/>
<path d="M90.7878 41.7242L133.92 66.6186C134.409 66.9006 134.616 67.2464 134.618 67.5563C134.619 67.8658 134.417 68.2107 133.933 68.4923L69.4916 105.928C69.0078 106.21 68.361 106.355 67.7037 106.355C67.0464 106.355 66.3974 106.21 65.9093 105.928L1.04521 68.492C0.556919 68.21 0.430886 67.8825 0.429171 67.5725C0.427458 67.2631 0.549134 66.9 1.03454 66.6183L65.4754 29.1822C65.8475 28.966 66.3158 28.8299 66.8112 28.7785V28.4279C66.263 28.4804 65.7319 28.6296 65.3003 28.8804L0.859432 66.3165C0.309739 66.6355 -0.00262974 67.0782 1.668e-05 67.5563C0.00266029 68.0339 0.319373 68.4758 0.870957 68.7943L65.7351 106.231C66.2885 106.55 67.0012 106.704 67.7037 106.704C68.4061 106.704 69.1171 106.55 69.6667 106.23L134.108 68.7941C134.657 68.4751 134.969 68.0324 134.966 67.5543C134.964 67.0767 134.647 66.6348 134.094 66.3163L89.9694 40.849L90.7878 41.7242Z" fill="#1A1A1A"/>
<path d="M134.02 68.6417L69.5795 106.078L69.57 109.379L134.011 71.9426C134.525 71.6447 134.964 71.2533 134.966 70.8618L134.966 67.5543C134.966 67.9458 134.534 68.3422 134.02 68.6417Z" fill="#1A1A1A"/>
<path fill-rule="evenodd" clip-rule="evenodd" d="M0.0798021 67.5522L0.42855 67.5527C0.42855 67.5578 0.428759 67.5633 0.429171 67.5725L0.429236 67.574C0.429529 67.5806 0.429939 67.5897 0.430083 67.5996C0.431329 67.6167 0.432424 67.6296 0.434078 67.6422L0.436278 67.654C0.437245 67.6598 0.438206 67.6667 0.438852 67.6745C0.443019 67.6992 0.446211 67.7164 0.450712 67.7326L0.451926 67.737L0.455916 67.7532C0.462094 67.7748 0.466788 67.7908 0.472272 67.8062L0.473026 67.8083L0.474559 67.812L0.478657 67.8221C0.479651 67.8246 0.480803 67.8275 0.482023 67.8309C0.484223 67.8362 0.486112 67.8408 0.48779 67.8449C0.493056 67.8578 0.496252 67.8656 0.50047 67.874C0.504319 67.8817 0.507447 67.8886 0.509343 67.8927L0.513151 67.9009L0.515011 67.9047C0.524236 67.9243 0.5362 67.946 0.549546 67.9666L0.553752 67.9808L0.555584 67.9798C0.565563 67.9978 0.578518 68.0166 0.598235 68.0439C0.608456 68.0571 0.612317 68.0625 0.615508 68.0669C0.618822 68.0716 0.621413 68.0752 0.629658 68.0855L0.639139 68.0973C0.640461 68.0991 0.641731 68.1013 0.643368 68.1035C0.654861 68.1183 0.667686 68.1335 0.681932 68.149C0.684904 68.1521 0.687382 68.1548 0.689214 68.1569L0.694849 68.1633C0.69612 68.1648 0.696352 68.1651 0.696352 68.1651L0.692879 68.1614L0.705749 68.1758C0.711293 68.1827 0.719937 68.1917 0.73568 68.2074L0.754688 68.2264C0.754688 68.2264 0.755182 68.2269 0.756491 68.2281L0.763029 68.2338L0.763968 68.2346C0.768705 68.2387 0.776979 68.2458 0.785696 68.2543C0.800659 68.2677 0.812857 68.2786 0.825834 68.2892L0.828925 68.2918L0.83978 68.3005C0.84461 68.3043 0.852667 68.3106 0.860466 68.3173C0.877412 68.3311 0.891557 68.3426 0.906524 68.3539L0.938828 68.3774L0.94386 68.381C0.959082 68.3927 0.974662 68.4037 0.992415 68.4152C1.00256 68.4212 1.01102 68.4271 1.01512 68.43C1.0176 68.4317 1.02035 68.4335 1.02035 68.4335L1.02954 68.4388C1.05448 68.4554 1.08075 68.4717 1.11062 68.4894L1.12282 68.4824L65.9854 105.917L66.0542 105.99L66.0558 105.993L66.0742 106.072L66.0647 109.373L65.8032 109.523L0.954297 72.095L0.942023 72.1021C0.912689 72.0855 0.882377 72.0664 0.857792 72.0508C0.849399 72.0455 0.841673 72.0406 0.834882 72.0364C0.824035 72.03 0.814889 72.0236 0.810579 72.0206C0.808086 72.0189 0.805338 72.017 0.805338 72.017L0.79866 72.0132C0.778516 72.0003 0.757757 71.9855 0.741148 71.9739C0.737734 71.9715 0.734501 71.9693 0.731492 71.9672C0.720207 71.9599 0.71083 71.9529 0.704665 71.9482L0.691861 71.9385L0.682556 71.9319C0.67555 71.9261 0.668182 71.9199 0.658789 71.9125C0.651208 71.9066 0.641758 71.8992 0.632876 71.892C0.617309 71.8805 0.60319 71.8684 0.594145 71.8607L0.592544 71.8593L0.705964 71.7268L0.595606 71.8618C0.574995 71.845 0.556571 71.8284 0.541325 71.8147L0.533408 71.8076L0.532559 71.8066C0.529538 71.804 0.521974 71.7974 0.514556 71.79L0.478496 71.7539C0.464081 71.7395 0.447845 71.7233 0.43126 71.705C0.428604 71.7022 0.426376 71.6998 0.424693 71.6979L0.419058 71.6914L0.410747 71.683C0.408131 71.6799 0.404773 71.6752 0.400224 71.6699C0.38705 71.6548 0.367752 71.6327 0.353794 71.6145L0.34658 71.6051C0.344994 71.6031 0.343156 71.6005 0.341143 71.5977L0.318072 71.5669C0.309819 71.5569 0.303595 71.5475 0.29925 71.5401C0.280909 71.5139 0.262882 71.4868 0.246088 71.4617L0.241717 71.4484L0.240242 71.4492C0.223262 71.4204 0.208209 71.3921 0.193902 71.3638C0.190728 71.3586 0.185315 71.3491 0.180354 71.3369C0.17963 71.3351 0.178884 71.3332 0.178132 71.3312L0.17735 71.3293L0.176763 71.328C0.166313 71.3069 0.156665 71.2832 0.150624 71.2684C0.149954 71.2667 0.14933 71.2652 0.148753 71.2638C0.140226 71.2455 0.134738 71.229 0.132096 71.221L0.131566 71.2194L0.296971 71.1642L0.132779 71.2229C0.123211 71.1962 0.115705 71.1701 0.109757 71.1493L0.106343 71.139L0.104281 71.1268C0.0948766 71.0929 0.0883617 71.0602 0.0840183 71.0344C0.0788385 71.0147 0.0772533 70.9976 0.0767893 70.9861C0.0739986 70.9666 0.0702901 70.9382 0.0702901 70.9075V70.854L0.0798021 67.5522ZM0.143357 67.9222C0.133761 67.8952 0.12626 67.8689 0.120341 67.8482L0.118213 67.8408L0.114053 67.8237C0.10402 67.787 0.0981272 67.7516 0.0937415 67.7253L0.0932749 67.7225L0.0924271 67.7122M0.0924271 67.7122L0.090898 67.6938L0.0910871 67.6961C0.0911619 67.6998 0.0916011 67.703 0.0918842 67.7057C0.0921405 67.7081 0.0924271 67.7122 0.0924271 67.7122ZM0.42615 68.3862L0.427292 68.3874L0.42976 68.3901L0.435789 68.397C0.435789 68.397 0.43753 68.399 0.438575 68.4001C0.456168 68.4213 0.475349 68.4404 0.487281 68.4523L0.508215 68.4733C0.518292 68.4833 0.528388 68.4921 0.533825 68.4968L0.534763 68.4976L0.541302 68.5033C0.542748 68.5046 0.54309 68.505 0.54309 68.505L0.550848 68.5123C0.565736 68.5257 0.583654 68.5418 0.603678 68.5582C0.611514 68.5649 0.618902 68.5707 0.623753 68.5745L0.635345 68.5838L0.639501 68.5872C0.656332 68.601 0.676154 68.6172 0.698101 68.6337L0.701373 68.6361L0.733064 68.6591C0.757657 68.6779 0.781831 68.6946 0.806715 68.7106L0.813252 68.7146C0.813252 68.7146 0.815119 68.7158 0.817602 68.7176C0.821533 68.7203 0.830372 68.7264 0.839981 68.7322C0.876018 68.7561 0.912858 68.7778 0.945434 68.7971L0.947043 68.798L0.959457 68.7909L65.7252 106.17L65.7168 109.071L1.11489 71.7848L1.10252 71.792C1.08566 71.7821 1.07041 71.7724 1.05298 71.7614C1.04198 71.7544 1.03012 71.7469 1.01645 71.7384L1.01241 71.736C1.01241 71.736 1.01054 71.7347 1.00805 71.733C1.00396 71.7302 0.994656 71.7237 0.984546 71.7177C0.971495 71.7092 0.958857 71.7004 0.944257 71.6902C0.938883 71.6864 0.933243 71.6825 0.927219 71.6783L0.920489 71.6739C0.920489 71.6739 0.919071 71.673 0.915323 71.6701L0.907042 71.6638L0.900515 71.659C0.891309 71.6515 0.8821 71.6443 0.874242 71.6381C0.864849 71.6308 0.856618 71.6243 0.849612 71.6186L0.840544 71.6117C0.836866 71.609 0.831744 71.6048 0.819384 71.5942L0.816323 71.5917C0.803286 71.581 0.791035 71.5701 0.775977 71.5565C0.770165 71.551 0.76506 71.5465 0.762603 71.5444L0.760021 71.5421L0.726168 71.5082C0.709826 71.4919 0.698798 71.4808 0.688096 71.4689L0.684147 71.4647L0.678118 71.4577C0.676973 71.4564 0.675578 71.4549 0.673967 71.4531C0.66547 71.4432 0.658863 71.4356 0.653254 71.4292C0.645015 71.4198 0.638929 71.4129 0.632172 71.4043C0.629273 71.4002 0.626724 71.397 0.625075 71.3949L0.593366 71.3526L0.589987 71.3472C0.574504 71.3252 0.558807 71.3019 0.541996 71.2767L0.540768 71.2722C0.527522 71.2497 0.515169 71.2264 0.502055 71.2002C0.500515 71.1971 0.498979 71.1943 0.497545 71.1917C0.49631 71.1889 0.493304 71.1811 0.489373 71.1733C0.485155 71.1648 0.481959 71.157 0.476694 71.1442C0.474547 71.1389 0.472056 71.1329 0.469012 71.1256L0.465009 71.1166L0.462388 71.109L0.461175 71.1055C0.455457 71.0895 0.450597 71.0727 0.444022 71.0497L0.440182 71.0376L0.439615 71.0335C0.434562 71.0153 0.431157 70.9958 0.426173 70.9659L0.424488 70.9599L0.423624 70.9478C0.419945 70.922 0.419039 70.9147 0.419039 70.9075V70.854L0.42615 68.3862ZM0.423714 70.9571C0.423216 70.9542 0.4226 70.9511 0.42185 70.948C0.420429 70.9421 0.41853 70.936 0.416058 70.9298L0.423714 70.9571ZM0.498361 71.1929C0.499456 71.1951 0.500895 71.1976 0.502055 71.2002C0.502746 71.2018 0.502725 71.2037 0.503413 71.2054C0.508702 71.2185 0.515738 71.2405 0.515738 71.2688L0.498361 71.1929ZM0.590592 71.3494L0.589987 71.3472C0.58655 71.3428 0.581788 71.3386 0.577157 71.3339L0.590592 71.3494ZM0.594984 71.3555C0.601536 71.3651 0.604438 71.3716 0.603509 71.3698L0.594984 71.3555Z" fill="#1A1A1A"/>
<path d="M67.0401 17.0156L18.453 67.7725L50.4154 49.3331C50.5495 48.852 50.7641 48.1514 50.9694 47.7812C51.3864 47.0292 52.3469 46.75 52.3469 46.75L53.3801 46.0625L54.4133 45.7188H55.7908L56.3166 45.9287L67.0718 39.7239V28.875L67.0401 17.0156Z" fill="#1A1A1A"/>
<path d="M67.0725 95.5252L114.801 67.9398L115.026 68.0625L115.525 67.7302L115.525 67.9242L67.1598 95.8777L66.9855 95.8777L18.5569 67.9242L18.5569 67.622L50.5378 49.1606L50.4198 49.6316L18.993 67.7731L67.0725 95.5252Z" fill="#1A1A1A"/>
<path d="M56.6289 46.0473L67.0409 40.0369L67.1556 40.1031V39.7002L67.128 39.6843H66.9538L56.3048 45.8316L56.6289 46.0473Z" fill="#1A1A1A"/>
<path d="M61.4443 59.6737L60.0017 60.5135C61.0163 59.9272 61.6345 58.6912 61.6345 56.9163C61.6504 53.3667 59.1457 49.0247 56.0387 47.234L57.4812 46.3942C60.5724 48.1848 63.0771 52.511 63.0771 56.0765C63.0771 57.8513 62.443 59.0873 61.4443 59.6737Z" fill="#1A1A1A"/>
<path fill-rule="evenodd" clip-rule="evenodd" d="M53.5894 46.166L53.3435 46.3091C54.1576 46.2661 55.077 46.5023 56.0371 47.0341L57.1255 46.4004C55.7152 45.6731 54.4755 45.654 53.5894 46.166ZM51.9724 46.7037L52.1469 47.0058C53.089 46.4614 54.4305 46.5174 55.9521 47.3866L56.1262 47.3859L57.5688 46.546L57.5676 46.2437C55.9821 45.338 54.502 45.2356 53.415 45.8638L51.9724 46.7037Z" fill="#1A1A1A"/>
<path fill-rule="evenodd" clip-rule="evenodd" d="M57.3935 46.2433L57.5685 46.2431C59.1466 47.1573 60.5653 48.7117 61.5892 50.4823C62.613 52.2529 63.2514 54.2557 63.2514 56.0764C63.2514 57.8898 62.6019 59.1962 61.5325 59.8241L60.1046 60.6554C60.0994 60.6585 60.0941 60.6615 60.0889 60.6646L59.914 60.3627C59.9187 60.3599 59.924 60.3569 59.9287 60.3541C60.8624 59.8063 61.4601 58.6452 61.4601 56.9163V56.9155C61.4678 55.179 60.8579 53.2363 59.8566 51.5028C58.8554 49.7694 57.4724 48.2617 55.9516 47.3852L55.9509 47.0832L57.3935 46.2433ZM61.1256 59.6572L61.356 59.5231C62.2838 58.9783 62.9026 57.8126 62.9026 56.0764C62.9026 54.3316 62.2886 52.3886 61.2873 50.6571C60.3053 48.9588 58.9597 47.4794 57.4807 46.5962L56.3811 47.2364C57.8643 48.1659 59.19 49.6512 60.1586 51.3282C61.1824 53.1007 61.8168 55.1036 61.8088 56.9167C61.8088 58.0365 61.567 58.9639 61.1256 59.6572Z" fill="#1A1A1A"/>
<path fill-rule="evenodd" clip-rule="evenodd" d="M51.9697 46.6702C53.0744 46.0408 54.5593 46.1558 56.1426 47.0729C57.7271 47.9828 59.1495 49.5422 60.1734 51.3162C61.1973 53.0903 61.8339 55.0989 61.8258 56.9188C61.8177 58.7377 61.166 60.0706 60.0611 60.7002C58.9564 61.3297 57.4713 61.2146 55.8879 60.2973C54.3115 59.3875 52.8892 57.8283 51.8635 56.0544C50.8377 54.2804 50.1969 52.2718 50.205 50.4516C50.2131 48.6328 50.8648 47.2998 51.9697 46.6702ZM52.1746 47.0285C51.2425 47.5596 50.626 48.7226 50.6183 50.4534C50.6106 52.1828 51.2221 54.12 52.2214 55.8482C53.2207 57.5763 54.5962 59.0754 56.0951 59.9404C57.6028 60.8138 58.9239 60.8732 59.8562 60.3419C60.7883 59.8108 61.4048 58.6478 61.4125 56.917C61.4203 55.1873 60.8125 53.2501 59.8153 51.5221C58.818 49.7941 57.4427 48.2952 55.9362 47.4303L55.9355 47.4299C54.4277 46.5564 53.1069 46.4972 52.1746 47.0285Z" fill="#1A1A1A"/>
<path fill-rule="evenodd" clip-rule="evenodd" d="M52.5008 48.1223C53.3977 47.6115 54.6041 47.7064 55.888 48.4456L55.8887 48.446C57.1733 49.1937 58.3265 50.4588 59.1562 51.8947C59.9857 53.3303 60.5013 54.9531 60.4933 56.4256C60.4932 57.9048 59.9672 58.9873 59.0697 59.4984C58.1727 60.0093 56.9663 59.9144 55.6824 59.1752C54.4054 58.4353 53.2518 57.1697 52.4203 55.732C51.5888 54.2946 51.0691 52.6679 51.0771 51.1952C51.0772 49.7159 51.6032 48.6335 52.5008 48.1223ZM52.6733 48.4256C51.9223 48.8533 51.4258 49.7911 51.4258 51.1957V51.1966C51.4181 52.5921 51.9129 54.1583 52.7221 55.5572C53.5311 56.956 54.6447 58.1705 55.8563 58.8727C57.077 59.5755 58.1454 59.6233 58.8971 59.1952C59.6481 58.7675 60.1446 57.8296 60.1446 56.4251L60.1446 56.4241C60.1523 55.0285 59.6614 53.4662 58.8542 52.0694C58.0473 50.6729 56.9337 49.4581 55.7137 48.7479C54.4932 48.0452 53.4249 47.9975 52.6733 48.4256Z" fill="#1A1A1A"/>
<path d="M63.8696 63.0659C67.0083 64.8882 67.04 67.8199 63.9013 69.6422C60.7784 71.4646 55.6899 71.4646 52.5511 69.6422C49.4124 67.8199 49.3965 64.8882 52.5194 63.0659C55.6423 61.2435 60.7309 61.2435 63.8696 63.0659Z" fill="#1A1A1A"/>
<path fill-rule="evenodd" clip-rule="evenodd" d="M66.9676 17.1599L67.2679 17.0391L115.744 67.6534L115.705 67.9252L67.2609 95.9262L66.9993 95.7752L66.9676 17.1599ZM67.3165 17.5943L67.3479 95.4729L115.338 67.7342L67.3165 17.5943Z" fill="#1A1A1A"/>
<path fill-rule="evenodd" clip-rule="evenodd" d="M39.9543 71.3984C39.5145 71.6496 39.2123 72.2068 39.2199 73.0637L39.2199 73.0657L39.2043 79.4619L44.4994 82.5248L44.5145 76.3297C44.5145 75.4725 44.2097 74.508 43.7097 73.6439C43.2097 72.7799 42.5239 72.0326 41.7796 71.5998C41.035 71.1669 40.3949 71.1467 39.9543 71.3984ZM39.7814 71.0953C40.3672 70.7607 41.1459 70.8277 41.9548 71.2981C42.764 71.7685 43.4891 72.5663 44.0115 73.4691C44.5339 74.3718 44.8633 75.3962 44.8633 76.3297L44.8474 82.8272L44.5858 82.9779L38.9424 79.7134L38.8553 79.562L38.8711 73.0658C38.8631 72.1326 39.1949 71.4303 39.7814 71.0953Z" fill="#1A1A1A"/>
<path d="M134.656 67.0312L134.304 66.3438H133.967L134.656 67.0312Z" fill="#1A1A1A"/>
<path d="M0.344482 67.0312L0.619898 66.3438H1.03326L0.344482 67.0312Z" fill="#1A1A1A"/>
</g>
<defs>
<clipPath id="clip0_6850_35383">
<rect width="135" height="110" fill="white"/>
</clipPath>
</defs>
</svg>
