<svg width="121" height="147" viewBox="0 0 121 147" fill="none" xmlns="http://www.w3.org/2000/svg">
<path fill-rule="evenodd" clip-rule="evenodd" d="M120.993 0H0.993189V115.602L60.997 115.602V146.332L120.997 115.602L120.993 115.602V0ZM60.9891 115.603H0.989258L60.9891 146.332V115.603Z" fill="#005492"/>
<path opacity="0.16" fill-rule="evenodd" clip-rule="evenodd" d="M8.31543 68.0449H113.681V111.945H97.8304C102.986 109.195 108.746 107.046 113.68 106.86V103.164C109.721 103.282 99.7374 105.223 90.4482 111.945H89.9213C93.6354 106.828 102.683 97.0092 113.68 92.8134V68.0452H8.31543V68.0449ZM8.31543 84.6992V95.4009C18.4882 95.0316 25.8521 99.3912 34.1109 106.86C35.7903 108.379 37.5786 110.141 39.3344 111.945H41.4593C25.8817 93.0326 12.597 85.426 8.31543 84.6992ZM41.4595 111.945H39.3346C42.2701 114.96 45.1149 118.092 47.2085 120.397C48.8959 122.254 50.0953 123.575 50.4607 123.864C47.4089 119.47 44.3935 115.507 41.4595 111.945ZM34.0125 111.945C20.9295 100.432 11.6209 98.7083 8.31543 99.4669V111.945H34.0125ZM34.0127 111.945C35.794 113.512 37.6452 115.261 39.5608 117.21C48.4691 126.273 55.5723 129.974 60.9992 131.194V139.016L8.31625 111.945H34.0127ZM61.0063 131.195V139.016L113.689 111.945H97.8299C92.7352 114.662 88.2321 117.965 85.7038 120.537C81.6345 124.677 76.015 128.423 73.7139 129.778C73.4658 129.862 73.1737 129.978 72.837 130.112C70.7158 130.955 66.8252 132.501 61.0063 131.195ZM90.4478 111.945H89.9212C89.7088 112.237 89.5139 112.514 89.3371 112.774C89.706 112.49 90.0763 112.214 90.4478 111.945Z" fill="white"/>
<path fill-rule="evenodd" clip-rule="evenodd" d="M120.993 0H0.993189V115.602H60.997V146.332L120.997 115.602H120.993V0ZM60.9891 115.603H0.989258L60.9891 146.332V115.603Z" fill="url(#paint0_angular_33_19476)" style="mix-blend-mode:multiply"/>
<path d="M40.5234 63.6553L42.4356 67.0698H49.7914V80.2053L53.206 86.3026V63.6553H40.5234Z" fill="white"/>
<path fill-rule="evenodd" clip-rule="evenodd" d="M56.3766 63.6553V91.9645L61.0106 100.239L65.6446 91.9645V63.6553H56.3766ZM59.7911 91.1681L61.0106 93.3182L62.2301 91.1681V67.0698H59.7911V91.1681Z" fill="white"/>
<path fill-rule="evenodd" clip-rule="evenodd" d="M68.8152 63.6553V86.3027L72.2297 80.2053V80.1182L81.4977 63.6553H68.8152ZM72.2297 67.0698V73.2891L75.6959 67.0698H72.2297Z" fill="white"/>
<g clip-path="url(#clip0_33_19476)">
<path d="M46.2858 46.1196H43.7471L43.7628 43.9975H46.2858C46.8098 43.9975 47.2526 43.8717 47.6142 43.6202C47.981 43.3687 48.2587 42.994 48.4473 42.4962C48.6412 41.9932 48.7381 41.3749 48.7381 40.6413V40.1461C48.7381 39.5959 48.6831 39.1139 48.5731 38.6999C48.4683 38.2807 48.3111 37.9322 48.1015 37.6545C47.8919 37.3716 47.6299 37.1594 47.3155 37.0179C47.0063 36.8764 46.65 36.8057 46.2465 36.8057H43.6999V34.6756H46.2465C47.0221 34.6756 47.7321 34.8093 48.3766 35.0765C49.0263 35.3385 49.587 35.7158 50.0586 36.2083C50.5354 36.6956 50.9022 37.2746 51.159 37.9453C51.421 38.6108 51.552 39.3496 51.552 40.1618V40.6413C51.552 41.4482 51.421 42.1871 51.159 42.8578C50.9022 43.5285 50.538 44.1075 50.0665 44.5948C49.5949 45.0821 49.0368 45.4594 48.3923 45.7266C47.753 45.9886 47.0509 46.1196 46.2858 46.1196ZM45.3269 34.6756V46.1196H42.5681V34.6756H45.3269ZM60.8864 37.0808L58.0961 46.1196H55.1329L59.338 34.6756H61.2165L60.8864 37.0808ZM63.1972 46.1196L60.3991 37.0808L60.0375 34.6756H61.9396L66.1682 46.1196H63.1972ZM63.0871 41.8517V43.9817H57.2158V41.8517H63.0871ZM79.7391 40.1697V40.6334C79.7391 41.5085 79.6159 42.2945 79.3697 42.9914C79.1286 43.6831 78.7854 44.2752 78.34 44.7677C77.8946 45.255 77.368 45.6297 76.7602 45.8917C76.1524 46.1484 75.4816 46.2768 74.7481 46.2768C74.0092 46.2768 73.3333 46.1484 72.7202 45.8917C72.1124 45.6297 71.5831 45.255 71.1325 44.7677C70.6871 44.2752 70.3413 43.6831 70.095 42.9914C69.854 42.2945 69.7335 41.5085 69.7335 40.6334V40.1697C69.7335 39.2946 69.854 38.5086 70.095 37.8117C70.3413 37.1148 70.6845 36.5227 71.1247 36.0354C71.57 35.5428 72.0967 35.1682 72.7045 34.9114C73.3176 34.6494 73.9935 34.5184 74.7323 34.5184C75.4659 34.5184 76.1366 34.6494 76.7445 34.9114C77.3575 35.1682 77.8868 35.5428 78.3322 36.0354C78.7776 36.5227 79.1234 37.1148 79.3697 37.8117C79.6159 38.5086 79.7391 39.2946 79.7391 40.1697ZM76.941 40.6334V40.154C76.941 39.5881 76.8912 39.0903 76.7916 38.6606C76.6973 38.2257 76.5558 37.8615 76.3672 37.5681C76.1786 37.2746 75.9454 37.0546 75.6677 36.9078C75.3952 36.7559 75.0834 36.6799 74.7323 36.6799C74.3655 36.6799 74.0459 36.7559 73.7734 36.9078C73.501 37.0546 73.273 37.2746 73.0896 37.5681C72.9062 37.8615 72.7674 38.2257 72.6731 38.6606C72.584 39.0903 72.5394 39.5881 72.5394 40.154V40.6334C72.5394 41.1941 72.584 41.6919 72.6731 42.1268C72.7674 42.5565 72.9062 42.9207 73.0896 43.2193C73.2783 43.518 73.5088 43.7433 73.7813 43.8953C74.059 44.0472 74.3813 44.1232 74.7481 44.1232C75.0991 44.1232 75.4109 44.0472 75.6834 43.8953C75.9559 43.7433 76.1838 43.518 76.3672 43.2193C76.5558 42.9207 76.6973 42.5565 76.7916 42.1268C76.8912 41.6919 76.941 41.1941 76.941 40.6334Z" fill="white"/>
<g clip-path="url(#clip1_33_19476)">
<path d="M22.878 25.3668L19.5634 26.5155L22.6804 35.5222L20.456 36.2905L17.339 27.2837L14.0682 28.4178L13.4463 26.6106L22.256 23.5596L22.878 25.3668Z" fill="white"/>
<path d="M36.2139 26.1501C36.4773 27.2476 36.5212 28.2499 36.3383 29.1718C36.1554 30.0937 35.7529 30.862 35.1456 31.4839C34.531 32.1058 33.7627 32.5302 32.8334 32.757C31.9115 32.9838 31.0334 32.9618 30.2066 32.6911C29.3724 32.4204 28.6627 31.9302 28.0627 31.2059C27.4627 30.4815 27.031 29.5816 26.7676 28.5133L26.6359 27.9646C26.3724 26.8671 26.3285 25.8574 26.5261 24.9282C26.7163 23.999 27.1188 23.2234 27.7334 22.6015C28.348 21.9796 29.1163 21.5553 30.0383 21.3284C30.9602 21.1016 31.8456 21.1236 32.6724 21.3943C33.4993 21.665 34.2163 22.1699 34.809 22.9015C35.409 23.6405 35.8407 24.5477 36.1041 25.6379L36.2285 26.1354L36.2139 26.1501ZM33.77 26.2086C33.4846 25.0453 33.0602 24.2112 32.4968 23.7063C31.9334 23.2015 31.2602 23.0478 30.4846 23.2308C29.7163 23.421 29.1968 23.86 28.9261 24.5624C28.6554 25.2648 28.6554 26.194 28.9261 27.35L29.0578 27.8914C29.3359 29.0255 29.7602 29.8596 30.331 30.3791C30.9017 30.9059 31.5749 31.0742 32.3651 30.8766C33.1334 30.6864 33.6529 30.2474 33.9163 29.5377C34.1798 28.8353 34.1798 27.9061 33.9017 26.75L33.77 26.2086Z" fill="white"/>
<path d="M42.295 26.5882L42.8658 30.5831L40.5316 30.9124L38.9219 19.5789L43.3414 18.9497C44.1902 18.8253 44.9658 18.8765 45.6536 19.096C46.3414 19.3155 46.9048 19.6887 47.3292 20.2082C47.7536 20.7276 48.0243 21.3569 48.1268 22.0885C48.2877 23.2007 48.0316 24.1299 47.3585 24.8762C46.6853 25.6224 45.6828 26.098 44.3365 26.2883L42.2877 26.5809L42.295 26.5882ZM42.0243 24.7006L44.1097 24.4006C44.7243 24.3128 45.178 24.1006 45.4633 23.764C45.7487 23.4275 45.8511 22.9885 45.7707 22.447C45.6902 21.891 45.4633 21.4666 45.0902 21.174C44.717 20.8813 44.2414 20.7642 43.6633 20.8374L41.5268 21.1447L42.0316 24.7006H42.0243Z" fill="white"/>
<path d="M57.9566 26.1342C57.9347 25.6879 57.759 25.3587 57.4371 25.1319C57.1078 24.9124 56.5371 24.6855 55.7029 24.4587C54.8761 24.2319 54.2176 24.0051 53.7273 23.771C52.3956 23.1344 51.7005 22.2198 51.642 21.0346C51.6127 20.42 51.759 19.8566 52.081 19.3591C52.4029 18.8542 52.8859 18.4518 53.5225 18.1518C54.159 17.8518 54.8834 17.6762 55.6956 17.6323C56.5151 17.5958 57.2468 17.7055 57.8981 17.9689C58.5493 18.2323 59.0688 18.6274 59.4493 19.1469C59.8298 19.6663 60.0347 20.2736 60.0712 20.9541L57.7151 21.0711C57.6859 20.5443 57.5029 20.1492 57.159 19.8712C56.8151 19.6005 56.3468 19.4761 55.7468 19.5054C55.1688 19.5347 54.7298 19.6737 54.4225 19.9371C54.1151 20.2005 53.9688 20.5224 53.9907 20.9248C54.0127 21.298 54.2103 21.5979 54.5981 21.8321C54.9859 22.0662 55.5493 22.2711 56.2883 22.454C57.6493 22.7905 58.6517 23.2442 59.2883 23.8075C59.9249 24.3709 60.2761 25.1026 60.32 25.9952C60.3712 26.983 60.0346 27.7805 59.3103 28.3804C58.5859 28.9804 57.5981 29.3096 56.3322 29.3755C55.4542 29.4194 54.642 29.295 53.9029 29.0096C53.1639 28.7243 52.5932 28.3073 52.1834 27.7658C51.7737 27.2244 51.5542 26.5879 51.5176 25.8489L53.881 25.7318C53.9395 26.9903 54.7298 27.5829 56.2371 27.5097C56.7932 27.4805 57.2249 27.3488 57.5322 27.1073C57.8395 26.8659 57.9786 26.5366 57.9566 26.1342Z" fill="white"/>
<path d="M72.4172 19.8428L68.9123 19.7038L68.5318 29.23L66.1757 29.1349L66.5562 19.6087L63.1025 19.4697L63.1757 17.5601L72.4903 17.9332L72.4172 19.8428Z" fill="white"/>
<path d="M77.5875 25.9305L77.0607 29.9254L74.7266 29.6181L76.2339 18.2773L80.6607 18.8627C81.5168 18.9797 82.2412 19.2285 82.8485 19.6309C83.4558 20.026 83.8949 20.5382 84.1656 21.1601C84.4363 21.782 84.5241 22.4551 84.429 23.1868C84.2827 24.2989 83.7851 25.1257 82.9363 25.6671C82.0875 26.2085 80.9973 26.3915 79.651 26.2085L77.6022 25.9378L77.5875 25.9305ZM77.8363 24.0355L79.9217 24.3135C80.5363 24.394 81.0339 24.3135 81.3924 24.0648C81.7583 23.816 81.9705 23.4209 82.0436 22.8795C82.1168 22.3234 82.0144 21.8552 81.729 21.4674C81.451 21.0796 81.0192 20.8455 80.4412 20.7577L78.2973 20.4723L77.8217 24.0355H77.8363Z" fill="white"/>
<path d="M96.7268 28.133C96.4707 29.2305 96.0536 30.1451 95.4683 30.884C94.8829 31.623 94.1805 32.1279 93.3536 32.4059C92.5268 32.6839 91.6488 32.7205 90.7122 32.501C89.7902 32.2888 89.0146 31.8718 88.3927 31.2572C87.7707 30.6426 87.3609 29.8817 87.1561 28.9598C86.9512 28.0452 86.9731 27.0501 87.2146 25.9746L87.3463 25.4259C87.6024 24.3284 88.0268 23.4065 88.6195 22.6675C89.2122 21.9285 89.9146 21.4164 90.7414 21.1383C91.5683 20.8603 92.4463 20.831 93.3756 21.0505C94.3049 21.27 95.0805 21.6871 95.6951 22.3017C96.3097 22.9163 96.7195 23.6845 96.9244 24.6137C97.1219 25.5429 97.1 26.5526 96.8439 27.6428L96.7268 28.1403V28.133ZM94.517 27.0867C94.7878 25.9161 94.7878 24.9795 94.517 24.2772C94.239 23.5748 93.7122 23.1284 92.9366 22.9455C92.1683 22.7626 91.5024 22.9236 90.9463 23.4284C90.3902 23.9333 89.9731 24.76 89.6951 25.9161L89.5707 26.4575C89.3073 27.5916 89.3073 28.5281 89.578 29.2524C89.8488 29.9768 90.3756 30.4304 91.1658 30.6133C91.9341 30.7962 92.6 30.628 93.1561 30.1231C93.7122 29.6183 94.1292 28.7842 94.4 27.6282L94.5244 27.0867H94.517Z" fill="white"/>
<path d="M108.961 27.8036L105.632 26.6988L102.624 35.7495L100.385 35.0032L103.393 25.9525L100.107 24.8624L100.707 23.0479L109.554 25.9818L108.954 27.7963L108.961 27.8036Z" fill="white"/>
</g>
</g>
<defs>
<radialGradient id="paint0_angular_33_19476" cx="0" cy="0" r="1" gradientUnits="userSpaceOnUse" gradientTransform="translate(60.9931 74.2638) rotate(90) scale(71.3371 60.0038)">
<stop stop-color="#005492" stop-opacity="0.4"/>
<stop offset="1" stop-color="#005492" stop-opacity="0"/>
</radialGradient>
<clipPath id="clip0_33_19476">
<rect width="105.366" height="35.1197" fill="white" transform="translate(8.31348 14.6333)"/>
</clipPath>
<clipPath id="clip1_33_19476">
<rect width="96.1244" height="18.7378" fill="white" transform="translate(13.4404 17.5605)"/>
</clipPath>
</defs>
</svg>
