<svg width="361" height="360" viewBox="0 0 361 360" fill="none" xmlns="http://www.w3.org/2000/svg">
<g clip-path="url(#clip0_3476_129489)">
<mask id="mask0_3476_129489" style="mask-type:alpha" maskUnits="userSpaceOnUse" x="0" y="0" width="361" height="360">
<path fill-rule="evenodd" clip-rule="evenodd" d="M180.5 360C279.911 360 360.5 279.411 360.5 180C360.5 80.5887 279.911 0 180.5 0C81.0887 0 0.5 80.5887 0.5 180C0.5 279.411 81.0887 360 180.5 360ZM180.5 295C244.013 295 295.5 243.513 295.5 180C295.5 116.487 244.013 65 180.5 65C116.987 65 65.5 116.487 65.5 180C65.5 243.513 116.987 295 180.5 295Z" fill="#F2F2F2"/>
</mask>
<g mask="url(#mask0_3476_129489)">
<path d="M10.5 179.469H179.969M179.969 179.469H350.5M179.969 179.469V310M179.969 179.469V10M59.9162 299.833L179.749 180M179.749 180L300.333 59.4162M179.749 180L300.333 300.584M179.749 180L59.9162 60.1675" stroke="#976219" stroke-linecap="round" stroke-linejoin="round"/>
<path d="M53.0011 232.19L179.75 179.689M179.75 179.689L307.56 126.749M179.75 179.689L232.69 307.499M179.75 179.689L127.249 52.9404M127.249 307.06L179.75 180.311M179.75 180.311L232.69 52.5011M179.75 180.311L307.56 233.251M179.75 180.311L53.0011 127.81" stroke="#BBA07B" stroke-width="2" stroke-linecap="round" stroke-linejoin="round"/>
<path d="M124.557 42.2298C124.874 42.9952 124.511 43.8727 123.746 44.1897C122.98 44.5067 122.103 44.1433 121.786 43.3779C121.469 42.6125 121.832 41.7351 122.597 41.418C123.363 41.101 124.24 41.4645 124.557 42.2298Z" fill="#BE9D76"/>
<path d="M42.0385 234.981C42.8039 234.664 43.6813 235.027 43.9984 235.792C44.3154 236.558 43.9519 237.435 43.1866 237.752C42.4212 238.069 41.5438 237.706 41.2267 236.941C40.9097 236.175 41.2732 235.298 42.0385 234.981Z" fill="#BE9D76"/>
<path d="M316.431 121.324C317.196 121.007 318.074 121.37 318.391 122.136C318.708 122.901 318.344 123.778 317.579 124.095C316.813 124.412 315.936 124.049 315.619 123.284C315.302 122.518 315.665 121.641 316.431 121.324Z" fill="#BE9D76"/>
<path d="M43.3779 121.786C44.1433 122.103 44.5067 122.98 44.1897 123.746C43.8727 124.511 42.9952 124.874 42.2299 124.557C41.4645 124.24 41.1011 123.363 41.4181 122.597C41.7351 121.832 42.6126 121.469 43.3779 121.786Z" fill="#BE9D76"/>
<path d="M317.77 235.443C318.535 235.76 318.899 236.637 318.582 237.402C318.265 238.168 317.387 238.531 316.622 238.214C315.857 237.897 315.493 237.02 315.81 236.254C316.127 235.489 317.005 235.126 317.77 235.443Z" fill="#BE9D76"/>
<path d="M234.981 42.0385C235.298 41.2731 236.175 40.9097 236.941 41.2267C237.706 41.5437 238.069 42.4212 237.752 43.1865C237.435 43.9519 236.558 44.3154 235.793 43.9983C235.027 43.6813 234.664 42.8039 234.981 42.0385Z" fill="#BE9D76"/>
</g>
</g>
<defs>
<clipPath id="clip0_3476_129489">
<rect width="360" height="360" fill="white" transform="translate(0.5)"/>
</clipPath>
</defs>
</svg>
