<svg width="292" height="276" viewBox="0 0 292 276" fill="none" xmlns="http://www.w3.org/2000/svg">
<path d="M238 132L38 132" stroke="#7CA016" stroke-width="0.803419" stroke-dasharray="4 4"/>
<path d="M137 32V232" stroke="#211815" stroke-width="0.8" stroke-miterlimit="10"/>
<path d="M214.031 207.863L66.0313 59.8628" stroke="#7CA016" stroke-width="0.803419" stroke-dasharray="4 4"/>
<path d="M65.0312 204.825L211.031 58.8247" stroke="#7CA016" stroke-width="0.803419" stroke-dasharray="4 4"/>
<circle cx="137.5" cy="132.5" r="28" fill="white" stroke="black"/>
<circle cx="137.5" cy="132.5" r="23.5" fill="#7CA016"/>
<g clip-path="url(#clip0_6235_147125)">
<path d="M152.426 121.839C147.32 120.217 141.711 121.255 137.52 124.535C133.33 121.255 127.721 120.217 122.615 121.839L121.519 122.186L121.477 122.2L121.709 123.151L121.76 123.362C121.763 123.372 121.767 123.383 121.769 123.394C121.805 123.537 121.842 123.679 121.88 123.82C121.883 123.832 121.887 123.843 121.891 123.855C123.256 128.751 126.859 132.714 131.531 134.571C131.425 135.184 131.357 135.797 131.322 136.411C131.048 141.267 132.967 146.042 136.666 149.368L137.52 150.135L138.375 149.368C142.075 146.041 143.994 141.267 143.718 136.411C142.897 136.711 142.051 136.951 141.189 137.129C141.238 140.628 139.943 144.036 137.52 146.63C135.098 144.037 133.802 140.628 133.852 137.129C133.861 136.529 133.907 135.929 133.997 135.328C134 135.328 134.005 135.33 134.009 135.331C134.036 135.086 134.071 134.842 134.113 134.6C134.218 133.998 134.372 133.409 134.573 132.837C134.763 132.295 134.996 131.769 135.269 131.26C135.401 130.995 135.54 130.733 135.688 130.476C135.9 130.108 136.129 129.753 136.373 129.409C136.175 129.178 135.967 128.953 135.747 128.739C135.348 128.351 134.919 127.998 134.465 127.683C134.109 128.167 133.778 128.673 133.475 129.198C132.946 130.114 132.509 131.076 132.168 132.07C128.63 130.56 125.855 127.586 124.597 123.952C128.421 123.118 132.456 123.976 135.612 126.294C135.61 126.295 135.609 126.298 135.608 126.299C135.926 126.527 136.231 126.769 136.526 127.026C136.686 127.165 136.843 127.31 136.995 127.458C137.025 127.487 137.053 127.517 137.082 127.546C137.112 127.576 137.14 127.605 137.169 127.634C137.237 127.703 137.304 127.771 137.37 127.841C137.419 127.894 137.471 127.943 137.52 127.996C138.219 128.748 138.834 129.578 139.353 130.475C139.79 131.231 140.15 132.024 140.433 132.843C139.48 133.05 138.505 133.158 137.52 133.158C137.138 133.158 136.758 133.141 136.379 133.109C136.064 133.91 135.862 134.752 135.778 135.619C136.419 135.686 137.066 135.717 137.711 135.709C137.749 135.709 137.786 135.709 137.823 135.707C137.955 135.704 138.085 135.7 138.215 135.695C138.26 135.693 138.305 135.69 138.35 135.689C138.472 135.682 138.595 135.676 138.718 135.667C138.784 135.662 138.849 135.656 138.916 135.65C139.018 135.642 139.119 135.634 139.221 135.624C139.391 135.606 139.561 135.587 139.729 135.564C139.733 135.564 139.738 135.564 139.742 135.562C139.88 135.543 140.017 135.523 140.154 135.501C140.168 135.498 140.183 135.496 140.197 135.493C140.325 135.472 140.451 135.45 140.579 135.426C140.598 135.422 140.617 135.418 140.637 135.414C140.763 135.39 140.89 135.363 141.015 135.336C141.044 135.33 141.074 135.323 141.104 135.317C141.508 135.226 141.905 135.12 142.298 135C142.505 134.936 142.709 134.869 142.912 134.797L142.921 134.793C143.063 134.743 143.203 134.69 143.343 134.636C143.398 134.614 143.454 134.594 143.509 134.571C148.183 132.709 151.792 128.715 153.15 123.856C153.153 123.845 153.157 123.833 153.16 123.822C153.2 123.68 153.237 123.538 153.272 123.395C153.292 123.314 153.312 123.234 153.332 123.152C153.404 122.834 153.467 122.513 153.522 122.189L152.426 121.841V121.839ZM142.873 132.069C142.533 131.075 142.096 130.113 141.565 129.197C140.96 128.148 140.244 127.176 139.429 126.293C142.585 123.976 146.621 123.116 150.444 123.951C149.186 127.584 146.41 130.559 142.873 132.069Z" fill="white"/>
</g>
<circle cx="68.3581" cy="201.334" r="6.66667" fill="black"/>
<circle cx="208.5" cy="202.5" r="9" fill="#F9FAF7" stroke="#7CA016"/>
<circle cx="69" cy="63" r="6.59829" fill="#F9FAF7" stroke="#7CA016" stroke-width="0.803419"/>
<circle cx="203.357" cy="66.0887" r="11.1111" fill="white" stroke="black" stroke-width="0.8" stroke-miterlimit="10"/>
<circle cx="203.358" cy="65.8888" r="6.66667" fill="white" stroke="black" stroke-width="0.8" stroke-miterlimit="10"/>
<path d="M44.8889 119.333L56.917 140.166H32.8608L44.8889 119.333Z" fill="white" stroke="black" stroke-width="0.8" stroke-miterlimit="10"/>
<path d="M44.9134 124.889L52.1303 137.389H37.6965L44.9134 124.889Z" fill="#7CA016"/>
<rect x="216" y="121" width="22.2222" height="22.2222" fill="white" stroke="black" stroke-width="0.8" stroke-miterlimit="10"/>
<rect x="221.555" y="126.889" width="11.1111" height="11.1111" fill="#1A1A1A"/>
<defs>
<clipPath id="clip0_6235_147125">
<rect width="32.0454" height="29.0518" fill="white" transform="translate(121.477 121.084)"/>
</clipPath>
</defs>
</svg>
