<svg width="1200" height="546" viewBox="0 0 1200 546" fill="none" xmlns="http://www.w3.org/2000/svg">
<g clip-path="url(#clip0_2772_114748)">
<path d="M759.223 213.87L766.672 221.359L759.553 213.211L740.23 202.053L746.449 198.48V191.787L745.521 190.717C745.514 191.56 745.507 192.013 745.507 192.013L599.148 276.347L599.615 127.389L600.502 18.0083L599.835 17.2471L539.715 86.3016L539.846 92.1585L544.999 95.5533L528.281 105.189L452.514 191.794L452.582 198.37L459.33 202.259L440.358 213.225L364 300.495L364.055 307.072L599.615 442.801H599.629L599.959 304.85L759.223 213.87Z" fill="white"/>
<path d="M836 300.707L766.672 221.352L759.223 213.869L599.959 304.849L599.622 442.794L836 307.154V300.707Z" fill="#F2F2F2"/>
<path d="M599.148 276.34L745.507 192.006C745.507 192.006 745.507 191.553 745.521 190.709L670.744 105.223L654.492 95.834L660.216 92.5421L660.051 86.0886L600.502 18.001L599.615 127.381L599.148 276.34Z" fill="#F2F2F2"/>
<path d="M705.865 226.173L741.941 204.57L759.725 213.746L836.082 301.036L705.865 226.173Z" fill="#E8E8E8"/>
<path d="M621.687 120.098L658.588 98.6116L669.548 104.894L745.521 191.45L621.687 120.098Z" fill="#E8E8E8"/>
<path d="M660.491 86.3081L580.457 40.194L600.144 17.6855" fill="#E8E8E8"/>
<path d="M599.695 51.337C599.802 51.2757 599.933 51.2757 600.039 51.337L660.07 85.9294L659.726 86.5233L599.867 52.0299L540.008 86.5233L539.665 85.9294L599.695 51.337Z" fill="#CCCCCC"/>
<path d="M585.756 114.981L452.526 191.75L452.87 192.344L586.446 115.375L585.756 114.981Z" fill="#CCCCCC"/>
<path d="M745.932 192.344L612.443 115.425L613.116 115.021L746.276 191.75L745.932 192.344Z" fill="#CCCCCC"/>
<path d="M695.837 220.644L696.512 220.241L835.739 300.466L835.395 301.06L695.837 220.644Z" fill="#CCCCCC"/>
<path d="M501.429 221.291L499.517 223.171L502.11 221.677L501.429 221.291Z" fill="#CCCCCC"/>
<path d="M478.334 235.377L477.64 234.985L364 300.466L364.344 301.06L478.334 235.377Z" fill="#CCCCCC"/>
<path d="M835.993 300.721C835.993 300.639 835.972 300.557 835.917 300.495L835.842 300.406L834.488 298.856L759.567 213.204C759.567 213.204 759.512 213.156 759.484 213.136L740.25 202.053L746.469 198.48V192.232C746.51 192.184 746.545 192.129 746.552 192.068C746.565 191.965 746.538 191.862 746.469 191.786L670.757 105.23C670.757 105.23 670.709 105.189 670.682 105.168C670.682 105.168 670.675 105.161 670.668 105.154L654.499 95.8411L660.223 92.5492L660.264 85.9654L660.161 86.1163L660.223 86.1917L660.127 86.1369L660.161 86.1163L660.127 86.082L660.093 86.1163L660.058 86.0957L660.093 86.0409L660.127 86.082L660.264 85.9654L600.502 17.6652L599.945 17L597.602 19.6198L539.571 85.9586L539.591 92.3572L545.006 95.5394L528.329 105.148C528.301 105.168 528.329 105.141 528.301 105.168L452.534 191.773L452.603 198.35L459.351 202.238L440.454 213.129C440.454 213.129 440.399 213.177 440.378 213.204H440.371L365.436 298.856L364.082 300.406L364.007 300.495L364.062 307.072L599.966 443L836.007 307.154V300.707C836.007 300.707 836.007 300.721 836 300.721H835.993ZM600.302 108.337V18.4745L619.433 40.3382L658.375 84.8544L658.849 85.3962L659.076 85.6499L659.453 86.0889L659.295 86.178L648.514 92.3915L648.17 92.5904L647.827 92.7893L611.263 113.857L610.919 114.056L610.575 114.255L600.302 120.174V108.337ZM599.835 166.171V164.697V146.55L601.024 145.864L621.192 134.247L621.515 134.062L621.536 134.048L621.879 133.849L633.231 127.306L633.575 127.107L633.705 127.032L633.918 126.908L670.414 105.881L744.58 190.669L745.006 191.156L745.274 191.464L745.658 191.903L745.507 191.992L734.155 198.535L733.812 198.734L733.791 198.747L733.468 198.933L697.275 219.788L696.299 220.351L696.244 220.378L696.224 220.392L695.214 220.975L599.835 275.936V166.171ZM540.21 86.4661L540.114 86.3906L540.656 85.7665L540.718 85.698L541.357 84.971L580.478 40.2491L599.615 18.3648V120.222L588.785 114.324L588.538 114.18L588.194 113.981L587.851 113.782L551.307 92.7001L550.964 92.5012L550.62 92.3023L540.21 86.4592V86.4661ZM453.139 192.198L453.098 192.171L454.41 190.669L528.576 105.881L565.071 126.908L565.415 127.107L565.759 127.306L577.578 134.116L577.921 134.315L578.265 134.514L578.32 134.548L599.045 146.488L599.148 146.55V276.34L503.893 221.448L503.261 221.084L502.862 220.858L502.498 220.646L501.832 220.261L465.7 199.44L465.645 199.406L465.302 199.207L464.958 199.008L453.139 192.198ZM599.615 435.916L397.623 319.883L364.914 301.037L441.004 214.048L476.805 234.677L477.472 235.061L477.836 235.274L478.234 235.5L478.866 235.864L591.41 300.714L599.608 305.44V435.909L599.615 435.916ZM599.959 304.85L592.792 300.721L479.561 235.473L478.928 235.109L478.53 234.883L478.166 234.67L477.499 234.286L441.471 213.527L441.306 213.431L460.031 202.643L460.086 202.677L496.217 223.498L496.884 223.883L497.248 224.095L497.647 224.321L498.279 224.685L599.443 282.959L701.261 224.465L702.271 223.883L702.291 223.869L702.346 223.841L703.322 223.279L739.543 202.444L740.958 203.26L704.765 224.116L703.789 224.678L703.734 224.706L703.714 224.719L702.704 225.302L601.148 283.816H636.468L607.133 300.721L599.966 304.85H599.959ZM834.969 300.721L834.282 301.119L600.302 435.943V305.446L608.5 300.721L721.044 235.871L722.054 235.288L722.075 235.274L722.13 235.246L723.106 234.684L759.223 213.87L832.64 297.8L834.626 300.07L834.736 300.193L834.784 300.248L835.107 300.618L835.12 300.632L834.969 300.721Z" fill="black"/>
<path d="M364.055 307.071L599.615 442.801V435.915L364 300.494L364.055 307.071Z" fill="#5E5FF5" class="dao-color"/>
<path d="M599.148 276.34L452.527 191.779V198.397L599.21 282.828L599.148 276.34Z" fill="#5E5FF5" class="dao-color"/>
<path d="M539.571 85.958L539.591 92.3566L599.615 127.381V120.221L539.571 85.958Z" fill="#5E5FF5" class="dao-color"/>
<path d="M545 96.5L599.348 128.53H629.5L599.348 145.5L529.5 105.5L545 96.5Z" fill="white" />
</g>
<defs>
<clipPath id="clip0_2772_114748">
<rect width="472" height="426" fill="white" transform="translate(364 17)"/>
</clipPath>
</defs>
</svg>
