<svg width="292" height="276" viewBox="0 0 292 276" fill="none" xmlns="http://www.w3.org/2000/svg">
<path fill-rule="evenodd" clip-rule="evenodd" d="M150.286 238L150.286 138.693L76.8922 212.086L76.2206 211.414L149.635 138H46.498V137.05H150.028L76.8922 63.9139L77.5638 63.2423L150.286 135.964V38L151.235 38V136.4L223.978 63.6569L224.65 64.3285L151.928 137.05H255.459V138H152.321L225.321 211L224.65 211.671L151.235 138.257V238H150.286Z" fill="#7246EE"/>
<circle cx="128.183" cy="160.796" r="22.7957" fill="#D0C4F2"/>
<circle cx="150.979" cy="138" r="37.9928" fill="#1A1A1A"/>
<g clip-path="url(#clip0_3_5287)">
<path d="M150.979 115.204C138.391 115.204 128.183 125.412 128.183 138C128.183 139.363 128.311 140.694 128.539 141.989H133.599C134.247 141.989 134.634 141.779 134.885 141.374L136.663 138.428L138.938 145.491C139.162 146.202 139.69 146.571 140.402 146.576C141.131 146.58 141.733 146.133 141.874 145.404L143.525 137.626L145.321 150.027C145.43 150.843 145.827 151.253 146.648 151.253H146.657C147.473 151.253 147.865 150.811 147.979 150L151.64 125.863C151.745 125.116 151.22 124.423 150.473 124.318C149.73 124.218 149.032 124.737 148.927 125.485L146.67 140.959L145.152 130.632C145.052 129.839 144.45 129.347 143.794 129.333C143.05 129.315 142.499 129.78 142.344 130.569L140.165 140.672L138.423 135.251C138.286 134.663 137.762 134.225 137.187 134.157C136.394 134.061 135.943 134.471 135.61 135.014L132.915 139.254H131.306C131.279 138.839 131.261 138.419 131.261 138C131.261 127.108 140.087 118.282 150.979 118.282C159.76 118.282 167.2 124.026 169.749 131.959H172.958C170.31 122.303 161.479 115.204 150.979 115.204Z" fill="white"/>
<path d="M173.419 134.011H168.349C167.702 134.011 167.314 134.22 167.063 134.626L165.285 137.571L163.01 130.509C162.787 129.798 162.258 129.429 161.547 129.424C160.817 129.42 160.216 129.866 160.074 130.596L158.424 138.374L156.628 125.973C156.518 125.157 156.122 124.747 155.301 124.747H155.292C154.476 124.747 154.084 125.189 153.97 126L150.309 150.136C150.204 150.884 150.728 151.577 151.476 151.682C152.219 151.782 152.916 151.262 153.021 150.515L155.278 135.041L156.796 145.367C156.897 146.161 157.498 146.653 158.155 146.667C158.898 146.685 159.45 146.22 159.605 145.431L161.784 135.328L163.526 140.749C163.662 141.337 164.187 141.775 164.761 141.843C165.554 141.939 166.006 141.529 166.339 140.986L169.033 136.746H170.651C170.679 137.161 170.697 137.58 170.697 138C170.697 148.892 161.871 157.718 150.979 157.718C142.198 157.718 134.757 151.974 132.209 144.041H128.999C131.648 153.697 140.484 160.796 150.979 160.796C163.567 160.796 173.775 150.588 173.775 138C173.775 136.637 173.647 135.305 173.419 134.011Z" fill="white"/>
</g>
<g clip-path="url(#clip1_3_5287)">
<path d="M51.2473 99.0573L63.5858 113.305H38.9088L51.2473 99.0573Z" fill="#D0C4F2"/>
<path d="M51.2473 89.5591L63.5858 103.806H38.9088L51.2473 89.5591Z" fill="#7246EE"/>
</g>
<g clip-path="url(#clip2_3_5287)">
<path d="M241.212 188.34L249.437 199.026H232.986L241.212 188.34Z" fill="#D0C4F2"/>
<path d="M241.212 181.692L249.437 192.377H232.986L241.212 181.692Z" fill="#7246EE"/>
</g>
<circle cx="216.517" cy="107.606" r="3.79928" fill="#7246EE"/>
<circle cx="169.025" cy="64.8639" r="2.84946" fill="#D0C4F2"/>
<circle cx="82.5917" cy="173.143" r="2.84946" fill="#7246EE"/>
<circle cx="105.388" cy="213.036" r="3.32437" fill="#F3F3FC" stroke="#7246EE" stroke-width="0.949821"/>
<circle cx="195.62" cy="51.5664" r="5.22401" fill="#F3F3FC" stroke="#7246EE" stroke-width="0.949821"/>
<defs>
<clipPath id="clip0_3_5287">
<rect width="45.5914" height="45.5914" fill="white" transform="translate(128.183 115.204)"/>
</clipPath>
<clipPath id="clip1_3_5287">
<rect width="28.4946" height="28.4946" fill="white" transform="translate(37 89.5591)"/>
</clipPath>
<clipPath id="clip2_3_5287">
<rect width="18.9964" height="20.8961" fill="white" transform="translate(231.713 181.692)"/>
</clipPath>
</defs>
</svg>
