<svg width="36" height="36" viewBox="0 0 36 36" fill="none" xmlns="http://www.w3.org/2000/svg">
<g clip-path="url(#clip0_342_13206)">
<mask id="mask0_342_13206" style="mask-type:alpha" maskUnits="userSpaceOnUse" x="0" y="0" width="36" height="36">
<path fill-rule="evenodd" clip-rule="evenodd" d="M18 36C27.9411 36 36 27.9411 36 18C36 8.05887 27.9411 0 18 0C8.05887 0 0 8.05887 0 18C0 27.9411 8.05887 36 18 36ZM18.0003 30.6001C24.9591 30.6001 30.6003 24.9588 30.6003 18.0001C30.6003 11.0413 24.9591 5.40005 18.0003 5.40005C11.0415 5.40005 5.40033 11.0413 5.40033 18.0001C5.40033 24.9588 11.0415 30.6001 18.0003 30.6001Z" fill="#D9D9D9"/>
</mask>
<g mask="url(#mask0_342_13206)">
<path d="M18.45 0V17.55M18.45 17.55V36M18.45 17.55H0M18.45 17.55H36M9.38971 2.18654L18.1647 17.3853M18.1647 17.3853L27.3897 33.3635M18.1647 17.3853L2.18654 26.6103M18.1647 17.3853L33.3635 8.61029M2.63672 8.61025L17.8355 17.3852M17.8355 17.3852L33.8136 26.6102M17.8355 17.3852L8.61046 33.3634M17.8355 17.3852L26.6105 2.1865" stroke="#5D432A"/>
</g>
<path fill-rule="evenodd" clip-rule="evenodd" d="M18 28.0833C23.5689 28.0833 28.0833 23.5689 28.0833 18.0001C28.0833 12.4312 23.5689 7.91679 18 7.91679C12.4311 7.91679 7.91666 12.4312 7.91666 18.0001C7.91666 23.5689 12.4311 28.0833 18 28.0833ZM18 29C24.0751 29 29 24.0752 29 18.0001C29 11.925 24.0751 7.00012 18 7.00012C11.9249 7.00012 7 11.925 7 18.0001C7 24.0752 11.9249 29 18 29Z" fill="#5D432A"/>
<path d="M25 18.0001C25 21.8661 21.866 25.0001 18 25.0001C14.134 25.0001 11 21.8661 11 18.0001C11 14.134 14.134 11 18 11C21.866 11 25 14.134 25 18.0001Z" fill="#5D432A"/>
</g>
<defs>
<clipPath id="clip0_342_13206">
<rect width="36" height="36" fill="white"/>
</clipPath>
</defs>
</svg>
