<svg width="44" height="32" viewBox="0 0 44 32" fill="none" xmlns="http://www.w3.org/2000/svg">
<g clip-path="url(#clip0_8767_5749)">
<g clip-path="url(#clip1_8767_5749)">
<g clip-path="url(#clip2_8767_5749)">
<path fill-rule="evenodd" clip-rule="evenodd" d="M23.2537 0.321331L24.4458 1.01331L24.8877 1.95535L24.4634 2.88422V3.63166C24.7088 4.20901 24.43 4.84665 23.6375 5.28775C22.4571 5.94486 20.5788 5.92741 19.4449 5.24705C19.1516 5.07108 18.9369 4.86749 18.8001 4.65098C18.9862 4.95586 19.32 5.22672 19.7766 5.43255C20.0382 5.55468 20.2766 5.61864 20.2883 5.61864C20.3697 5.64189 20.4802 5.67098 20.5674 5.68843C20.7253 5.72192 20.769 5.72785 20.8962 5.74511C20.9236 5.74882 20.9548 5.75306 20.9919 5.75822C21.0553 5.76726 21.1398 5.77278 21.2125 5.77753C21.2332 5.77889 21.253 5.78018 21.271 5.78147C21.4571 5.79309 21.4804 5.79309 21.6665 5.79309C21.7711 5.79309 21.9572 5.78147 22.2247 5.75238C22.2376 5.75004 22.2576 5.74699 22.2835 5.74303C22.386 5.72738 22.581 5.69761 22.7946 5.64189C23.0795 5.5663 23.283 5.4849 23.3179 5.46745C23.3877 5.43839 23.4808 5.39766 23.5447 5.36279C23.6761 5.29162 23.6993 5.27714 23.818 5.20289L23.8413 5.18832L23.8454 5.18562C23.8773 5.16475 24.0413 5.05752 24.1844 4.90338C24.26 4.82779 24.3239 4.75219 24.3763 4.66498C24.3821 4.65333 24.3908 4.63876 24.3996 4.62419C24.4083 4.60967 24.417 4.59516 24.4228 4.58356C24.4272 4.57478 24.432 4.56539 24.437 4.55557L24.4372 4.55521C24.4587 4.51305 24.4843 4.46307 24.4984 4.42075C24.5013 4.40912 24.5056 4.3946 24.51 4.38008C24.5144 4.36554 24.5187 4.35096 24.5216 4.33932C24.5333 4.29281 24.5449 4.22883 24.5507 4.18232C24.5507 4.1787 24.5512 4.17232 24.5519 4.16354C24.5543 4.13367 24.5588 4.07608 24.5532 4.00522C24.7432 6.01193 24.9583 8.00032 25.1779 9.98499L31.6027 13.6944V12.8937L31.8378 12.4234L32.5432 11.9531H33.0135L33.6013 12.1883L34.6594 14.0694L34.8758 15.5841L41.5517 19.4384C41.8517 19.6117 41.8531 19.8918 41.555 20.0651L22.9941 30.8514C22.6966 31.0247 22.2116 31.0247 21.9122 30.8514L3.22963 20.0651C2.93017 19.8918 2.92824 19.6117 3.22641 19.4384L17.9325 10.8922L17.9528 10.7045C18.1767 8.63985 18.4039 6.5444 18.6207 4.10046C18.6145 3.94752 18.6432 3.79419 18.7066 3.6449V2.65005L18.3807 1.95549L18.3877 1.95265L18.8168 1.01331L18.8179 1.01265L18.8112 1.01357L19.9974 0.321566L20.0014 0.322318L20.0031 0.321331L21.6487 0.0712891L23.2537 0.321331ZM18.8461 2.90768V3.39811C18.9249 3.28772 19.0243 3.18121 19.144 3.0806L18.8461 2.90768ZM24.0809 3.11711C24.1766 3.20304 24.2575 3.29288 24.3239 3.38543V2.97539L24.0809 3.11711Z" fill="white"/>
<path d="M24.5507 3.97879L24.5532 4.00522C24.5526 3.9966 24.5517 3.98778 24.5507 3.97879Z" fill="white"/>
<path d="M25.6652 18.006L25.4891 17.5961L25.254 17.4785L24.9013 17.5961L24.3135 18.0664L23.9672 18.8893V20.9686L23.9458 20.9823L23.9672 20.9745V20.979L23.9845 20.9681C24.0551 20.942 24.1317 20.911 24.225 20.8717C24.3238 20.8367 24.5157 20.7495 24.7251 20.6333C25.2062 20.3678 25.4822 20.0972 25.6281 19.9263L25.6652 19.9027L25.6652 18.006Z" fill="#7246EE" class="dao-color-fill"/>
<path d="M21.9121 30.8474L3.22962 20.0611V20.0648C3.22324 20.0613 3.21711 20.0575 3.21107 20.0538C3.20736 20.0514 3.20367 20.0491 3.2 20.0469C3.19677 20.0448 3.1942 20.0429 3.19098 20.0404L3.18166 20.034L3.1723 20.0274L3.16264 20.0199C3.16007 20.0178 3.15749 20.0157 3.15492 20.0138C3.15234 20.0117 3.14976 20.0096 3.14719 20.0077L3.13753 19.9999C3.13415 19.9973 3.13105 19.9945 3.12804 19.9917L3.12336 19.9877L3.11853 19.983L3.1137 19.9785L3.1079 19.9729C3.1034 19.9682 3.09953 19.9644 3.09567 19.9599L3.09116 19.9555C3.08601 19.9496 3.08086 19.9437 3.07635 19.9381C3.0757 19.9367 3.07442 19.9355 3.07377 19.9348C3.07216 19.9324 3.07039 19.9303 3.06862 19.928L3.06347 19.9214C3.05767 19.9136 3.05252 19.9052 3.04737 19.8967L3.04044 19.8835C3.03836 19.8798 3.03634 19.876 3.03449 19.8722L3.03062 19.8645C3.02805 19.8588 3.02547 19.853 3.02354 19.8478L3.02162 19.8431L3.02032 19.8395C3.01774 19.833 3.01581 19.8266 3.01452 19.8203L3.01323 19.8151C3.0113 19.8066 3.00937 19.7982 3.00808 19.7899C3.00808 19.7881 3.00808 19.7855 3.00744 19.7834L3.00551 19.7648V19.7493L3.00293 20.6999V20.7154C3.00293 20.7194 3.00348 20.7234 3.00404 20.7274L3.00486 20.734C3.00486 20.7359 3.00486 20.7385 3.00551 20.7404C3.00679 20.7488 3.00873 20.7573 3.01066 20.7655V20.7669C3.01066 20.7669 3.01195 20.7695 3.01195 20.7714L3.01774 20.7907C3.01819 20.7925 3.01896 20.7942 3.01982 20.7963L3.02096 20.7991C3.02289 20.8048 3.02547 20.8107 3.02805 20.8158L3.02998 20.821L3.03062 20.8222L3.03127 20.8236C3.03513 20.8313 3.03964 20.8396 3.04415 20.8473C3.0493 20.8563 3.05445 20.864 3.06025 20.8725L3.06218 20.8751L3.07055 20.8859C3.07119 20.8873 3.07248 20.8885 3.07313 20.8892C3.07763 20.8951 3.08278 20.9007 3.08792 20.9066L3.08918 20.908L3.09245 20.9111C3.09631 20.9155 3.10082 20.92 3.10533 20.924L3.11563 20.9343L3.11871 20.9369L3.12078 20.9388C3.12529 20.9433 3.1298 20.9473 3.13495 20.951L3.14461 20.9588C3.14718 20.9607 3.14975 20.9628 3.15233 20.9649C3.1549 20.967 3.1575 20.9691 3.16007 20.971C3.16328 20.9736 3.16651 20.9762 3.16973 20.9781C3.17334 20.9809 3.17721 20.9835 3.18117 20.9861L3.1884 20.991L3.19742 20.9966C3.20708 21.0032 3.21674 21.0089 3.22704 21.0147V21.011L21.9068 31.7957L21.9068 31.7999H21.9081C21.919 31.8074 21.9308 31.8133 21.9424 31.8189L21.9467 31.821L21.9489 31.822L21.9515 31.8234L21.9564 31.8257C21.9699 31.8321 21.9834 31.8384 21.9976 31.8443L22.0002 31.8453L22.0011 31.8457L22.0027 31.8462C22.0156 31.8514 22.0285 31.8565 22.042 31.8617L22.0455 31.8631L22.0475 31.8638L22.0523 31.8655C22.0671 31.8707 22.0819 31.8751 22.0966 31.8796L22.0987 31.8798L22.1024 31.8812L22.1071 31.8829L22.1341 31.8906C22.1386 31.892 22.1431 31.8932 22.1483 31.8939L22.1611 31.8968C22.1655 31.8977 22.1699 31.8986 22.174 31.8998C22.1766 31.9005 22.1791 31.901 22.1817 31.9015L22.1854 31.9022L22.1882 31.9029C22.1979 31.9047 22.2069 31.9069 22.2165 31.9087L22.2281 31.9106L22.2366 31.9123L22.2412 31.913L22.2681 31.9172H22.2713C22.2874 31.9196 22.3035 31.9217 22.3196 31.9229L22.3259 31.9233L22.3305 31.9243L22.3808 31.928H22.3917C22.4033 31.928 22.4148 31.9287 22.4264 31.9294H22.4851C22.4945 31.9294 22.504 31.9287 22.5134 31.9283C22.5181 31.9278 22.5229 31.9276 22.5276 31.9273C22.5315 31.9273 22.536 31.9273 22.5398 31.9269C22.5501 31.9261 22.5604 31.9254 22.5707 31.9243H22.5785C22.5804 31.9243 22.583 31.9243 22.5849 31.9236L22.6165 31.9196H22.6185L22.6237 31.9191L22.6274 31.9184C22.6416 31.9165 22.6551 31.9146 22.6686 31.912H22.6699C22.6699 31.912 22.6738 31.9106 22.6757 31.9106C22.688 31.9087 22.7002 31.9062 22.7124 31.9036L22.7139 31.9033L22.7189 31.9024C22.721 31.9017 22.7231 31.9012 22.7253 31.901C22.7369 31.8984 22.7479 31.8958 22.7588 31.8925C22.7602 31.8925 22.762 31.8918 22.7639 31.8913L22.7659 31.8906H22.7678C22.7769 31.888 22.7859 31.8855 22.7947 31.8826C22.8014 31.8805 22.8081 31.8784 22.8148 31.8765L22.8206 31.8746L22.8251 31.8732C22.8406 31.8681 22.856 31.8629 22.8715 31.8572H22.8721L22.8747 31.8561L22.8783 31.8547L22.8828 31.8525L22.8882 31.8502L22.9018 31.8443L22.9059 31.8424C22.9105 31.8406 22.9154 31.8384 22.9198 31.8358L22.9211 31.838L22.9272 31.8349L22.9333 31.8321L22.9527 31.8224L22.9575 31.8199L22.9623 31.8173L22.9907 31.8018L22.9932 30.8513C22.9842 30.8565 22.9745 30.8615 22.9649 30.8666C22.9617 30.8687 22.9584 30.8699 22.9552 30.8713C22.9488 30.8744 22.9424 30.8777 22.9353 30.881C22.9314 30.8829 22.9275 30.8847 22.923 30.8861C22.9172 30.8887 22.9108 30.8918 22.905 30.8944C22.9005 30.8963 22.896 30.8984 22.8915 30.8995L22.8857 30.9019L22.8828 30.9031L22.8741 30.9066C22.8593 30.9125 22.8438 30.9177 22.8277 30.9228L22.8265 30.9233L22.8228 30.9245L22.8174 30.9259C22.802 30.9311 22.7859 30.9355 22.7704 30.9395L22.7614 30.9414L22.7448 30.9456L22.7279 30.9499C22.7256 30.9501 22.7235 30.9506 22.7215 30.951L22.7178 30.952L22.715 30.9525C22.7028 30.955 22.6906 30.9576 22.679 30.9595C22.6764 30.9595 22.6744 30.9602 22.6719 30.9607C22.6599 30.963 22.6474 30.9649 22.6352 30.9666L22.6306 30.9673C22.6274 30.9673 22.6242 30.9677 22.6214 30.9682L22.6197 30.9684L22.5888 30.9724L22.5819 30.9727L22.5746 30.9736C22.5695 30.9739 22.5643 30.9743 22.5592 30.975L22.552 30.9755L22.5437 30.9762C22.5399 30.9762 22.5353 30.9762 22.5315 30.9769L22.489 30.9788H22.4304C22.4188 30.9788 22.4072 30.9788 22.3956 30.9774H22.3846C22.3679 30.9769 22.3512 30.9755 22.3344 30.9736C22.3305 30.9736 22.3273 30.9729 22.3235 30.9724C22.3181 30.9717 22.3127 30.971 22.3074 30.9706C22.2966 30.9694 22.2859 30.9682 22.2752 30.9666H22.2719C22.2584 30.964 22.2449 30.9621 22.232 30.9602L22.2204 30.9581L22.2166 30.9574L22.2116 30.9565C22.2051 30.9553 22.1988 30.9541 22.1921 30.9525L22.1882 30.9515L22.185 30.9508C22.1826 30.9503 22.1802 30.9499 22.1779 30.9492C22.1695 30.9473 22.1605 30.9454 22.1522 30.9433C22.1477 30.9421 22.1431 30.9407 22.138 30.9402L22.111 30.9325L22.1055 30.9308L22.1037 30.9304L22.1 30.9292C22.0852 30.9247 22.0703 30.9202 22.0556 30.9151L22.0512 30.9132L22.0453 30.9111C22.0317 30.9066 22.0189 30.9014 22.006 30.8958L22.0034 30.8949L22.0008 30.8937C21.9867 30.888 21.9731 30.8815 21.9596 30.8751C21.9564 30.8739 21.9532 30.8718 21.95 30.8706C21.9374 30.8643 21.9248 30.8575 21.9121 30.8504L21.9121 30.8474Z" fill="#7246EE" class="dao-color-fill"/>
<path d="M33.3015 18.2319V19.0048L32.4 18.4539L33.3015 18.2319Z" fill="#7246EE" class="dao-color-fill"/>
<path d="M19.2182 3.11093L19.0984 3.02705C18.7507 3.31928 18.563 3.66498 18.5501 4.02059C18.5328 4.49537 18.8281 4.95943 19.4086 5.30771C19.9889 5.65594 20.7551 5.83231 21.5231 5.83966C22.2911 5.84702 23.0685 5.6854 23.6718 5.34956C24.2747 5.01395 24.6023 4.55771 24.6195 4.08385C24.6326 3.72378 24.4659 3.36987 24.1314 3.06795L24.0183 3.15593C24.3421 3.44034 24.4899 3.76448 24.4785 4.07874C24.4637 4.48586 24.1808 4.9048 23.6032 5.22629C23.0261 5.54755 22.2741 5.70577 21.5244 5.69859C20.7746 5.69141 20.0347 5.51886 19.4811 5.18674C18.9277 4.85465 18.6763 4.43192 18.691 4.02571C18.7025 3.71102 18.8741 3.38928 19.2182 3.11093Z" fill="#7246EE" class="dao-color-fill"/>
<path fill-rule="evenodd" clip-rule="evenodd" d="M33.0543 18.2753C33.5131 17.6321 33.8225 16.9307 33.8632 16.1855H34.0048C33.9662 16.9215 33.6765 17.6122 33.2486 18.2429L33.0543 18.2753ZM32.7694 18.6454C32.6661 18.7701 32.558 18.8921 32.4458 19.0115C32.3513 19.1124 32.2539 19.2112 32.1542 19.3078L32.2775 19.3847C32.3699 19.2944 32.4604 19.202 32.5486 19.1082C32.6596 18.9901 32.7668 18.8693 32.8695 18.7456L32.7694 18.6454ZM31.7971 19.8256L31.7486 19.6805C30.8065 20.5032 29.7502 21.1506 29.0288 21.5651C28.0559 22.1247 26.282 22.5821 24.2229 22.884C22.2678 23.1704 20.0648 23.3152 18.0657 23.2764C17.9623 23.2743 17.8595 23.2717 17.7573 23.2689C15.6629 23.2073 14.1788 23.6378 13.2166 24.086C12.7357 24.3101 12.3856 24.5381 12.155 24.711C12.0398 24.7975 11.9544 24.8701 11.8976 24.9214C11.8692 24.947 11.8479 24.9673 11.8336 24.9814C11.8264 24.9884 11.821 24.9941 11.8172 24.9978L11.8129 25.0023L11.8117 25.0035L11.8114 25.0037L11.8113 25.0039C11.8113 25.0039 11.8283 25.0201 11.8626 25.0524C11.8969 25.0845 11.9139 25.1008 11.9139 25.1008L11.9141 25.1006L11.9148 25.0999L11.9181 25.0963C11.9212 25.0933 11.9259 25.0883 11.9324 25.082C11.9454 25.0693 11.9652 25.0503 11.9921 25.026C12.046 24.9776 12.128 24.9075 12.2397 24.8238C12.463 24.6564 12.8048 24.4335 13.2762 24.2139C14.1992 23.7841 15.621 23.3665 17.6261 23.4067C17.6682 23.4076 17.7105 23.4085 17.7531 23.4097C19.8408 23.4711 22.1794 23.326 24.2433 23.0234C26.3043 22.7215 28.1012 22.2613 29.0991 21.6874C29.8107 21.2787 30.8549 20.6398 31.7971 19.8256Z" fill="#7246EE" class="dao-color-fill"/>
<path fill-rule="evenodd" clip-rule="evenodd" d="M31.6066 13.7779L25.2093 10.0845L25.2404 9.93948L31.5746 13.5965L31.6066 13.7779ZM34.7574 15.5971L41.5164 19.4994C41.6537 19.5787 41.7066 19.6725 41.7071 19.752C41.7075 19.8312 41.6556 19.9248 41.5194 20.0038L22.9586 30.7904C22.8232 30.8691 22.6406 30.9107 22.4538 30.9107C22.2671 30.9107 22.0839 30.8691 21.9474 30.7901L3.26494 20.0038C3.12795 19.9246 3.07488 19.8308 3.07443 19.7513C3.07398 19.672 3.12572 19.5785 3.26184 19.4992L17.9318 10.974L17.9088 10.8242L3.19096 19.3774C3.02891 19.4715 2.93252 19.6046 2.93336 19.752C2.93419 19.8992 3.03183 20.032 3.19429 20.1261L21.8768 30.9124C22.0398 31.0067 22.2488 31.0518 22.4538 31.0518C22.6588 31.0518 22.8674 31.0067 23.0295 30.9124L41.5904 20.1258C41.7524 20.0318 41.8488 19.8987 41.8481 19.7513C41.8474 19.6038 41.7496 19.4712 41.5869 19.3772L34.8122 15.4658L34.7574 15.5971Z" fill="#7246EE" class="dao-color-fill"/>
<path d="M41.5549 20.0649L22.9941 30.8512L23.0373 31.8607L41.5523 21.0153C41.7005 20.929 41.8481 20.8171 41.8481 20.7042V19.7538C41.8481 19.8664 41.7024 19.9791 41.5549 20.0649Z" fill="#7246EE" class="dao-color-fill"/>
<path fill-rule="evenodd" clip-rule="evenodd" d="M2.93506 19.7492L3.07614 19.7495V19.761L3.0773 19.7725C3.07803 19.7765 3.07832 19.7798 3.07846 19.7819L3.07854 19.7831C3.0793 19.7871 3.08034 19.7918 3.08175 19.7979L3.08225 19.7995C3.08294 19.8019 3.08362 19.8049 3.08416 19.808L3.08591 19.8134L3.08773 19.8183L3.08797 19.8188L3.08838 19.8198L3.08968 19.8233C3.09065 19.8259 3.09212 19.8292 3.09453 19.8346L3.09768 19.8409L3.10285 19.8508L3.10906 19.8626C3.11367 19.8698 3.11682 19.8748 3.12 19.879L3.12098 19.8804L3.12418 19.8847L3.12444 19.8849L3.12838 19.8901L3.12871 19.8903C3.12981 19.8917 3.13164 19.8938 3.13372 19.8969C3.13602 19.8997 3.13882 19.9028 3.14261 19.9072L3.14756 19.9122L3.14932 19.9141C3.15114 19.9162 3.1531 19.9183 3.15788 19.923L3.16367 19.9289L3.16411 19.9293L3.16582 19.9307L3.16607 19.931L3.17129 19.9359L3.17411 19.9385L3.17739 19.9413L3.17934 19.943L3.17995 19.9434L3.18171 19.9449L3.19059 19.9521C3.19392 19.9545 3.19701 19.9571 3.19917 19.9587L3.19949 19.9592L3.20506 19.9634L3.20683 19.9648L3.21407 19.9707L21.9475 30.7864L21.9127 30.8469H21.9828V30.9698L21.9825 30.9696L21.9799 31.9195L3.29768 21.1332V21.1356L3.19256 21.0763C3.18153 21.0702 3.17067 21.0636 3.15958 21.0563L3.1541 21.0528L3.15221 21.0516L3.15008 21.0502L3.14805 21.0488L3.14768 21.0486C3.14574 21.0474 3.13644 21.0413 3.12981 21.0363C3.12402 21.0326 3.11915 21.0286 3.1168 21.0267C3.1135 21.0243 3.11043 21.0218 3.10828 21.0201L3.10795 21.0199L3.10062 21.014L3.09176 21.0069C3.08527 21.002 3.07915 20.9968 3.07307 20.991L3.06585 20.9844L3.05722 20.9757C3.05228 20.9712 3.04747 20.9665 3.04298 20.9616L3.03761 20.9562L3.03475 20.9529C3.03055 20.9482 3.02505 20.942 3.01974 20.9355L3.01837 20.9338C3.01708 20.9324 3.0148 20.9296 3.01228 20.9258L3.01187 20.9254L3.01162 20.9251L3.00735 20.9197L3.00687 20.919C3.00554 20.9174 3.00275 20.9141 2.99992 20.9091C2.99449 20.9014 2.98888 20.8927 2.98315 20.8828C2.97811 20.8741 2.97313 20.8649 2.96879 20.8562L2.96836 20.8555L2.96629 20.8513L2.96564 20.8499L2.96082 20.8402V20.8386C2.95886 20.8341 2.95687 20.8294 2.95507 20.8242L2.95398 20.8217C2.95315 20.8195 2.95147 20.8155 2.94999 20.8101L2.94478 20.7927L2.94022 20.7836V20.7737C2.93893 20.768 2.93755 20.7615 2.93641 20.7546C2.93525 20.7492 2.93486 20.7448 2.93468 20.7424L2.9345 20.7389M2.9901 20.879L2.98331 20.883L2.98315 20.8828L2.983 20.8826L2.99005 20.8786L2.9901 20.879ZM3.00029 20.8727L2.99005 20.8786L2.9898 20.8727H3.00029ZM3.20574 20.9174L21.8395 31.6755L21.8416 30.8882L3.30026 20.1833V20.1856L3.19513 20.1266C3.18765 20.1224 3.17769 20.116 3.17068 20.1118C3.16772 20.1099 3.16529 20.1083 3.1638 20.1076C3.15768 20.1038 3.15284 20.1003 3.14896 20.0972L3.14191 20.0923C3.13892 20.0904 3.13548 20.088 3.13195 20.0855L3.1301 20.0843L3.11944 20.0756C3.11611 20.073 3.11301 20.0706 3.11085 20.0688L3.11053 20.0685L3.10496 20.0641L3.1032 20.0629L3.09427 20.0556C3.08966 20.0521 3.08582 20.0488 3.08321 20.0464L3.07991 20.0434L3.07755 20.0413L3.07549 20.0396L3.07357 20.7001V20.7147L3.07369 20.7156L3.07393 20.7173L3.07428 20.7198L3.07515 20.7271L3.0755 20.7307C3.07633 20.7358 3.07759 20.7417 3.07949 20.7499L3.07956 20.7502L3.08085 20.7554L3.08504 20.7692L3.08655 20.773L3.08733 20.7749L3.08798 20.777C3.08852 20.7786 3.0896 20.7812 3.09124 20.7843L3.09348 20.789L3.09459 20.7923L3.09515 20.7934L3.0957 20.7946C3.09863 20.8003 3.10193 20.8064 3.10517 20.812L3.10549 20.8125C3.10865 20.8181 3.11193 20.8231 3.11621 20.8294L3.11709 20.8301L3.12032 20.8351L3.12105 20.836L3.12131 20.8362L3.12656 20.8431L3.1289 20.8461C3.13123 20.8489 3.13404 20.8522 3.13802 20.8567L3.13977 20.8579L3.1461 20.8654C3.14761 20.867 3.14956 20.8692 3.15133 20.8706L3.15339 20.8722L3.16418 20.883L3.16537 20.8842C3.16646 20.8852 3.16848 20.8868 3.17076 20.8892C3.17271 20.891 3.17466 20.8927 3.17737 20.8948L3.17914 20.896L3.18801 20.9033C3.19134 20.9058 3.19443 20.9082 3.1966 20.9101L3.19692 20.9103L3.20249 20.9148L3.20425 20.916L3.20574 20.9174ZM3.07975 19.7922L3.07944 19.7915L3.07975 19.7922Z" fill="#7246EE" class="dao-color-fill"/>
<path fill-rule="evenodd" clip-rule="evenodd" d="M23.0641 30.7296L23.0611 31.8443L23.0238 31.8643C23.0195 31.8664 23.0153 31.8688 23.0105 31.8714C23.0063 31.8737 23.0015 31.8766 22.9967 31.8791C22.9934 31.8808 22.9906 31.8824 22.9893 31.8829L22.989 31.8831L22.9882 31.8836L22.9866 31.8846L22.9649 31.8954L22.9571 31.8991H22.9568L22.9526 31.9012L22.8969 31.929L22.8941 31.9248L22.8871 31.9278H22.884C22.8715 31.9323 22.8594 31.9365 22.848 31.9403H22.8474L22.8421 31.9419L22.8403 31.9426L22.8395 31.9429L22.8378 31.9433L22.8346 31.9445C22.8308 31.9455 22.8249 31.9473 22.8184 31.9492C22.8079 31.9525 22.7957 31.9563 22.7868 31.9589L22.7775 31.9614H22.7758L22.7743 31.9617C22.7626 31.965 22.7513 31.9676 22.7406 31.9699L22.738 31.9706L22.7361 31.9708L22.7347 31.9711L22.7344 31.9713C22.7327 31.9716 22.7293 31.9725 22.7253 31.9732C22.7143 31.9753 22.7017 31.9781 22.6888 31.9803L22.6813 31.9826H22.6751C22.6626 31.985 22.6505 31.9866 22.6389 31.9882C22.6349 31.989 22.6289 31.9899 22.6219 31.9901L22.597 31.9932C22.5925 31.9941 22.5889 31.9944 22.5867 31.9946L22.5786 31.9948H22.575C22.5649 31.996 22.555 31.9967 22.5468 31.9972C22.5393 31.9981 22.5325 31.9981 22.5292 31.9981C22.5268 31.9981 22.5239 31.9984 22.5208 31.9986C22.5104 31.9993 22.4967 32 22.4851 32H22.4226C22.4107 31.9993 22.401 31.9988 22.3917 31.9988H22.3781L22.322 31.9944L22.3189 31.9939L22.317 31.9937L22.314 31.9934C22.2979 31.992 22.2818 31.9901 22.2658 31.9878H22.2631L22.2581 31.9871C22.2446 31.9852 22.2307 31.9831 22.2158 31.9803L22.2027 31.9781L22.1744 31.9723L22.1727 31.972L22.1711 31.9716L22.1671 31.9706H22.1666C22.1646 31.9701 22.161 31.9694 22.157 31.9683L22.1459 31.9659C22.1425 31.965 22.1388 31.9643 22.1353 31.9636C22.1265 31.9621 22.1192 31.96 22.1154 31.9589L22.1147 31.9586L22.0881 31.9511L22.0819 31.9492L22.0755 31.9471C22.0612 31.9429 22.0455 31.9379 22.0296 31.9325C22.024 31.9306 22.0194 31.9288 22.0164 31.9276C22.0029 31.9224 21.9901 31.9172 21.9779 31.9125L21.9742 31.9111L21.973 31.9107L21.9709 31.9097C21.9552 31.9034 21.9404 31.8963 21.9275 31.8902L21.9237 31.8885L21.92 31.8867L21.9194 31.8864L21.9178 31.8857L21.9152 31.8843L21.9112 31.8824C21.9049 31.8794 21.8969 31.8754 21.8884 31.8707L21.836 31.8093L21.839 30.7797H21.9294L21.9453 30.7884C21.9577 30.7952 21.9688 30.8013 21.9797 30.8067L21.9826 30.8081L21.9863 30.81L21.9869 30.8102L21.9879 30.8107L21.9899 30.8116C22.0032 30.818 22.0145 30.8232 22.0261 30.8281L22.0293 30.8293L22.0316 30.83L22.0349 30.8316C22.046 30.8366 22.0566 30.8408 22.0675 30.8443L22.0802 30.849C22.093 30.8535 22.106 30.8575 22.1205 30.862L22.1223 30.8624L22.124 30.8629H22.1243L22.1532 30.8714C22.1602 30.8725 22.166 30.8742 22.1696 30.8751L22.1803 30.8775L22.1938 30.8805L22.1955 30.881L22.1967 30.8812L22.1988 30.8817L22.2038 30.8829C22.2056 30.8831 22.208 30.8838 22.2106 30.8845C22.2145 30.8855 22.217 30.8859 22.2212 30.8866C22.2241 30.8871 22.2277 30.8878 22.2331 30.889L22.243 30.8906L22.2474 30.8913C22.2567 30.8925 22.2674 30.8942 22.2783 30.8963H22.2808L22.2863 30.897C22.2953 30.8984 22.3031 30.8993 22.3124 30.9003C22.3181 30.901 22.3243 30.9015 22.3319 30.9024L22.3351 30.9029L22.337 30.9033H22.3384L22.3425 30.9038C22.357 30.9054 22.3715 30.9066 22.386 30.9071H22.3995L22.4034 30.9076C22.4104 30.9083 22.4181 30.9085 22.4304 30.9085H22.4872L22.5253 30.9066C22.5319 30.9059 22.538 30.9059 22.5414 30.9059C22.5447 30.9057 22.5482 30.9052 22.5526 30.9047H22.553C22.5571 30.9045 22.5621 30.904 22.5674 30.9036C22.5714 30.9031 22.5771 30.9024 22.5834 30.9022L22.6087 30.8989C22.6124 30.8982 22.6179 30.8975 22.6243 30.897L22.6252 30.8968C22.6368 30.8953 22.6469 30.8937 22.6565 30.892L22.6606 30.8911C22.6633 30.8904 22.6667 30.8899 22.6705 30.8895C22.6795 30.8878 22.6893 30.8859 22.7005 30.8836L22.7027 30.8831L22.7042 30.8829L22.7056 30.8824H22.7059L22.7139 30.8808L22.7271 30.8775H22.7274C22.7328 30.8761 22.739 30.8744 22.7452 30.873L22.7475 30.8723L22.7506 30.8718L22.7547 30.8709C22.7684 30.8674 22.7822 30.8636 22.7951 30.8591L22.8004 30.8575L22.8023 30.857L22.8031 30.8568L22.8038 30.8565L22.8062 30.8558C22.8215 30.8509 22.8348 30.8464 22.8471 30.8415C22.8509 30.8399 22.8545 30.8387 22.8568 30.8377L22.8572 30.8375L22.8628 30.8354L22.8673 30.8333L22.8718 30.8321L22.8724 30.8319L22.8767 30.83L22.8838 30.8267L22.8841 30.8265L22.8944 30.8217L22.8989 30.8196L22.9018 30.8189L22.9037 30.818L22.906 30.8168C22.9118 30.8142 22.9171 30.8116 22.9237 30.8083L22.9263 30.8069L22.929 30.806L22.9303 30.8053L22.9317 30.8046C22.9415 30.7994 22.9503 30.7947 22.9582 30.7902L23.0641 30.7296ZM21.9796 30.9614L21.9774 31.7578L21.9794 31.7588L21.9831 31.7604L21.9837 31.7609L21.9847 31.7611L21.9867 31.762C21.9999 31.7684 22.0113 31.7738 22.0228 31.7785L22.0261 31.7799L22.027 31.7802L22.0289 31.7809C22.0419 31.786 22.0542 31.791 22.0671 31.7959L22.0682 31.7964C22.0715 31.7978 22.073 31.7983 22.0746 31.7987L22.0755 31.7992C22.0858 31.8027 22.0962 31.806 22.1073 31.8093H22.1136L22.1272 31.8154H22.1275L22.1281 31.8159L22.1535 31.823L22.1562 31.8239L22.1575 31.8241L22.1606 31.8246L22.1641 31.8253L22.1765 31.8281C22.1807 31.8291 22.1854 31.83 22.1899 31.8312L22.1917 31.8317L22.1931 31.8319L22.1952 31.8324L22.1959 31.8326L22.2036 31.8342L22.2294 31.8394L22.2413 31.8415C22.2517 31.8434 22.2618 31.8451 22.2731 31.8467H22.2769L22.2824 31.8476C22.2961 31.8498 22.3098 31.8514 22.3234 31.8526C22.33 31.8528 22.3359 31.8538 22.3393 31.8542L22.3835 31.8577H22.3915C22.4046 31.8577 22.4176 31.8585 22.4284 31.8589H22.4851C22.4926 31.8589 22.4986 31.8587 22.5063 31.858C22.5113 31.8577 22.5171 31.8575 22.5244 31.857H22.5302L22.5318 31.8568L22.5354 31.8566C22.5461 31.8559 22.5542 31.8554 22.562 31.8545L22.5664 31.8537H22.5762L22.6077 31.8498L22.6121 31.8493H22.614L22.6157 31.849L22.6179 31.8486C22.6319 31.8467 22.6439 31.8451 22.6554 31.8427L22.6572 31.8425C22.6594 31.842 22.6627 31.8413 22.6666 31.8408C22.6761 31.8392 22.6861 31.8373 22.6979 31.8347L22.7001 31.8342L22.7017 31.834L22.703 31.8338L22.7034 31.8335L22.712 31.8319C22.7223 31.8295 22.7308 31.8274 22.7389 31.8251L22.7486 31.8222H22.7495L22.7572 31.8204H22.7579L22.7721 31.8159C22.7779 31.8142 22.7841 31.8121 22.7927 31.8095L22.8003 31.8072L22.8025 31.8067L22.8029 31.8065C22.8185 31.8013 22.8327 31.7966 22.8467 31.7912L22.8496 31.7903L22.8532 31.7889L22.8567 31.7872L22.8585 31.7863L22.8739 31.7797L22.882 31.7762L22.8855 31.7745L22.9202 31.7552L22.9224 30.9638L22.916 30.9659L22.9087 30.9689H22.9083L22.9027 30.9713L22.8998 30.9725C22.8834 30.979 22.8668 30.9845 22.8509 30.9896C22.847 30.991 22.8438 30.992 22.8422 30.9925L22.84 30.9929L22.8397 30.9932C22.8221 30.9988 22.8042 31.004 22.7875 31.0082L22.7859 31.0084L22.7842 31.0089L22.7811 31.0094L22.7765 31.0106C22.7722 31.0115 22.7676 31.0127 22.7622 31.0141H22.7619C22.7565 31.0155 22.7502 31.0171 22.744 31.0186L22.741 31.0193L22.7386 31.0197L22.7373 31.02H22.737C22.7353 31.0204 22.7319 31.0211 22.7278 31.0218C22.7163 31.0244 22.7032 31.027 22.6905 31.0291L22.6875 31.0296L22.687 31.0298L22.685 31.0303C22.6713 31.0329 22.657 31.0348 22.6451 31.0367L22.6406 31.0371L22.6356 31.0378H22.6331L22.631 31.0383L22.5932 31.043H22.5887L22.5846 31.0437L22.579 31.0442C22.5751 31.0444 22.5711 31.0449 22.5657 31.0454H22.5653C22.5604 31.0458 22.5544 31.0463 22.5481 31.0468L22.5459 31.047H22.5411L22.5389 31.0472L22.4889 31.0496H22.4292C22.4193 31.0496 22.406 31.0496 22.392 31.0482H22.3819C22.3643 31.0475 22.3467 31.0461 22.3292 31.0442C22.322 31.0437 22.3159 31.0428 22.3132 31.0423C22.31 31.0421 22.3064 31.0416 22.3025 31.0411C22.2926 31.0402 22.2809 31.0388 22.2699 31.0374H22.2653L22.2587 31.036C22.2485 31.0341 22.2383 31.0324 22.2268 31.0308L22.2215 31.0301L22.2204 31.0298L22.2066 31.0275L22.2021 31.0266C22.1952 31.0254 22.1836 31.0233 22.1739 31.0207L22.1733 31.0204L22.1711 31.0202L22.1662 31.019L22.1609 31.0179L22.1497 31.0153C22.1455 31.0143 22.1408 31.0134 22.1363 31.0122L22.1345 31.0117L22.1328 31.0113L22.1301 31.0106L22.1287 31.0103L22.1238 31.0096L22.0886 30.9995L22.0869 30.999H22.0866M22.0787 30.9967C22.0643 30.9922 22.0485 30.9875 22.0324 30.9819L22.0293 30.9807L22.0229 30.9784C22.0077 30.9732 21.9935 30.9675 21.9796 30.9614" fill="#7246EE" class="dao-color-fill"/>
<path d="M19.2792 3.23512L19.863 3.52701L21.7441 3.87972L23.39 3.52701L23.9014 3.23478C24.5125 3.81402 24.3537 4.5681 23.4398 5.05488C22.3698 5.62478 20.6718 5.60733 19.6483 5.02001C18.7964 4.53108 18.6778 3.79635 19.2792 3.23512Z" fill="#7246EE" class="dao-color-fill"/>
<path fill-rule="evenodd" clip-rule="evenodd" d="M25.7041 19.9458C25.5595 20.1205 25.2737 20.4114 24.7593 20.6952C24.5494 20.8118 24.3549 20.9007 24.2505 20.9378C24.1404 20.9842 24.0524 21.0192 23.9696 21.0488L23.9222 20.916C24.0018 20.8875 24.0877 20.8532 24.1977 20.8069L24.1996 20.8062L24.2016 20.8055C24.2954 20.7723 24.4835 20.6872 24.6909 20.5717C25.1882 20.2973 25.4608 20.0185 25.5954 19.8558L25.7041 19.9458Z" fill="#7246EE" class="dao-color-fill"/>
<path d="M18.636 2.6014L18.8049 2.93918L18.9167 2.97643V3.98396L18.916 3.98892C18.9065 4.05528 18.8548 4.11926 18.7764 4.11926C18.7064 4.11926 18.636 4.06236 18.636 3.97895V2.6014Z" fill="#7246EE" class="dao-color-fill"/>
<path fill-rule="evenodd" clip-rule="evenodd" d="M24.5225 7.36783L24.5167 6.39235C24.5167 6.22922 24.4585 6.09512 24.3439 6.02947C24.2292 5.96385 24.0834 5.98085 23.9399 6.06378C23.796 6.1469 23.6702 6.28495 23.5811 6.43922C23.4923 6.59323 23.4363 6.76991 23.4394 6.93401L23.4452 8.00933L23.4459 8.00907L23.4458 8.00984C23.4947 8.00345 23.6031 7.97429 23.6671 7.95104L23.6906 7.94067C23.7486 7.91525 23.8452 7.87285 23.9462 7.81729C24.2253 7.66029 24.4411 7.46088 24.5225 7.36783ZM24.3808 7.3075L24.3756 6.39275V6.39235C24.3756 6.25901 24.3291 6.18363 24.2737 6.15191C24.2183 6.12014 24.1286 6.11767 24.0105 6.18593C23.8926 6.25403 23.7829 6.3718 23.7033 6.50976C23.6237 6.64778 23.5779 6.79944 23.5805 6.93178L23.5805 6.93276L23.5807 6.96681L24.3808 7.3075Z" fill="#7246EE" class="dao-color-fill"/>
<path fill-rule="evenodd" clip-rule="evenodd" d="M33.949 20.4476L33.34 19.5109L32.5257 20.075L32.5984 20.1963L33.301 19.7096L33.7893 20.4608L33.949 20.4476ZM33.0491 20.5226L32.8488 20.4883L32.8958 20.5353L33.0491 20.5226Z" fill="#7246EE" class="dao-color-fill"/>
<path fill-rule="evenodd" clip-rule="evenodd" d="M33.0543 19.8176L31.2468 18.554L32.5803 20.1562L33.0543 19.8176ZM33.5979 20.0006L33.9036 20.5355H33.9539L35.4136 20.2799L33.5979 20.0006Z" fill="#7246EE" class="dao-color-fill"/>
<path fill-rule="evenodd" clip-rule="evenodd" d="M32.8867 20.4017L31.0063 18.1928L32.0691 20.5063L33.6012 21.2409L34.4705 21.4821L35.5914 20.1818L33.3252 20.5235L32.8867 20.4017ZM33.0501 20.5935L33.3318 20.9244L33.6012 21.1233L34.4249 21.3189L35.2359 20.3782L33.3163 20.6676L33.0501 20.5935ZM32.1761 20.4014L31.5645 19.0699L33.0513 20.8249L32.1761 20.4014Z" fill="#7246EE" class="dao-color-fill"/>
<path fill-rule="evenodd" clip-rule="evenodd" d="M33.4837 17.949H33.2485V18.1726L32.383 18.3856L32.363 18.5142L33.2485 19.0553V19.5949L33.4837 19.83V17.949ZM33.2309 18.8792L32.581 18.4823L33.2309 18.3221V18.8792Z" fill="#7246EE" class="dao-color-fill"/>
<path fill-rule="evenodd" clip-rule="evenodd" d="M32.0301 12.3421C32.2773 12.1988 32.6415 12.2147 33.0537 12.4521L33.0892 12.4724L33.6279 12.1597L33.5242 12.0984C33.0852 11.839 32.6709 11.8109 32.3586 11.9883L31.9594 12.2201L31.9587 12.2205L32.0297 12.3425L32.0301 12.3421ZM32.4301 12.1099C32.6349 12.117 32.859 12.1835 33.0885 12.3097L33.3448 12.1609C32.9799 11.9768 32.6619 11.9791 32.4301 12.1099Z" fill="#7246EE" class="dao-color-fill"/>
<path d="M34.5763 15.8105L34.1771 16.0424C34.4541 15.8814 34.6278 15.54 34.6278 15.0506C34.6278 14.0717 33.9389 12.8739 33.0886 12.3844L33.4879 12.1526C34.3381 12.642 35.0271 13.8399 35.0271 14.8188C35.0271 15.3082 34.8533 15.6495 34.5763 15.8105Z" fill="#7246EE" class="dao-color-fill"/>
<path d="M34.5763 15.8105L34.1771 16.0424C34.4541 15.8814 34.6278 15.54 34.6278 15.0506C34.6278 14.0717 33.9389 12.8739 33.0886 12.3844L33.4879 12.1526C34.3381 12.642 35.0271 13.8399 35.0271 14.8188C35.0271 15.3082 34.8533 15.6495 34.5763 15.8105Z" fill="#7246EE" class="dao-color-fill"/>
<path fill-rule="evenodd" clip-rule="evenodd" d="M34.6003 15.7959C34.8632 15.6294 35.0271 15.2939 35.0271 14.8188C35.0271 13.8399 34.4771 12.6494 33.6271 12.1599L33.0886 12.3844C33.1343 12.4106 33.1794 12.4389 33.2238 12.4691C34.0106 13.0016 34.6278 14.1242 34.6278 15.0506C34.6278 15.308 34.5799 15.5245 34.4938 15.6953C34.4164 15.8492 34.1891 15.9503 34.1891 16.0679L34.4242 15.9503C34.5418 15.8327 34.5926 15.8009 34.6003 15.7959ZM34.7205 15.4809C34.7524 15.3496 34.7689 15.2055 34.7689 15.0506C34.7689 14.5305 34.5869 13.9622 34.2993 13.4635C34.0548 13.0395 33.7284 12.6561 33.3586 12.3909L33.4867 12.3165C33.8585 12.551 34.2003 12.9324 34.4541 13.3726C34.7235 13.8399 34.886 14.3599 34.886 14.8187C34.886 15.107 34.8223 15.3262 34.7205 15.4809Z" fill="#7246EE" class="dao-color-fill"/>
<path fill-rule="evenodd" clip-rule="evenodd" d="M31.9621 12.2201C32.2718 12.044 32.6861 12.0777 33.1239 12.3298C33.5622 12.5821 33.9565 13.0142 34.2405 13.5051C34.5244 13.9959 34.7016 14.5523 34.6984 15.0573C34.6984 15.5618 34.5185 15.9339 34.2086 16.1102C33.8991 16.2863 33.4848 16.2526 33.047 16.0005L33.0468 16.0003C32.6085 15.7447 32.2158 15.3128 31.9327 14.8227C31.6496 14.3326 31.4725 13.778 31.4725 13.2732C31.4725 12.7686 31.6524 12.3964 31.9621 12.2201ZM32.0319 12.3428C31.7815 12.4853 31.6136 12.7989 31.6136 13.2732C31.6136 13.7473 31.7808 14.2778 32.055 14.7521C32.3289 15.2264 32.7056 15.638 33.1175 15.8783C33.5297 16.1156 33.8881 16.1302 34.139 15.9875C34.3894 15.845 34.5573 15.5313 34.5573 15.0571V15.0566C34.5603 14.5828 34.3932 14.0509 34.1183 13.5758C33.8436 13.1007 33.4653 12.6891 33.0534 12.452C32.6412 12.2147 32.2828 12.2 32.0319 12.3428Z" fill="#7246EE" class="dao-color-fill"/>
<path fill-rule="evenodd" clip-rule="evenodd" d="M32.1053 12.6138C32.3616 12.4674 32.7021 12.4962 33.0595 12.7034C33.4171 12.9106 33.7376 13.2622 33.9676 13.6605C34.1975 14.0588 34.341 14.5107 34.3377 14.9224C34.3341 15.3334 34.1865 15.6409 33.9302 15.7873C33.6736 15.9337 33.3334 15.9048 32.9758 15.6977C32.6181 15.4904 32.2993 15.1388 32.0703 14.7405C31.841 14.3421 31.6978 13.8905 31.6978 13.4792V13.4787C31.7011 13.0677 31.8488 12.7602 32.1053 12.6138ZM31.8389 13.4795C31.8389 13.8603 31.9724 14.2877 32.1925 14.6701C32.4126 15.0526 32.7152 15.3837 33.0465 15.5756C33.3783 15.7678 33.6626 15.7776 33.8601 15.6648C34.0579 15.5519 34.1933 15.3024 34.1966 14.9212C34.1996 14.5408 34.0661 14.1136 33.8453 13.7311C33.6245 13.3486 33.3202 13.0175 32.9887 12.8254C32.6572 12.6333 32.3729 12.6235 32.1751 12.7363C31.9776 12.8491 31.8419 13.0986 31.8389 13.4795Z" fill="#7246EE" class="dao-color-fill"/>
<path d="M24.3236 19.868C24.2979 19.868 24.2721 19.8424 24.2721 19.8165V19.4753C24.2721 19.4495 24.2979 19.4236 24.3236 19.4236C24.3494 19.4236 24.3752 19.4495 24.3752 19.4753V19.8165C24.3752 19.8424 24.3559 19.868 24.3236 19.868Z" fill="#7246EE" class="dao-color-fill"/>
<path fill-rule="evenodd" clip-rule="evenodd" d="M21.6488 0L23.2776 0.253757L24.4811 0.952411L24.4457 1.01343L24.5096 0.983449L24.9654 1.95507L24.5122 2.94715L23.2951 3.65716L21.6487 3.91092L19.9966 3.65719L18.7739 2.94743L18.3087 1.95585L18.7619 0.963769L19.9791 0.25371L21.6488 0ZM24.3912 1.06335L23.2297 0.389077L21.6485 0.14275L20.0269 0.389147L18.8716 1.06309L18.4642 1.95507L18.8829 2.84757L20.0443 3.52179L21.6487 3.76817L23.2471 3.52182L24.4025 2.84785L24.81 1.95585L24.3912 1.06335Z" fill="#7246EE" class="dao-color-fill"/>
<path fill-rule="evenodd" clip-rule="evenodd" d="M21.7191 0.0727212L21.5781 0.0698055L21.5694 0.490955L21.4022 0.356834L21.5024 0.538005L20.0107 0.252364L19.9842 0.390928L21.1976 0.623288L18.8018 0.943706L18.8205 1.08354L21.0946 0.779417L18.3543 1.89022L18.4073 2.02095L21.219 0.881207L18.7786 2.84263L18.8669 2.9526L21.4048 0.91288L19.9586 3.55565L20.0823 3.62337L21.5675 0.90947L21.5781 3.83981L21.7192 3.83929L21.7086 0.910693L23.2093 3.62379L23.3328 3.55551L21.8718 0.914361L24.4132 2.95269L24.5014 2.84263L22.0576 0.882477L24.8612 2.02097L24.9142 1.89026L22.1796 0.779794L24.4363 1.08347L24.4551 0.943659L22.0712 0.622841L23.267 0.390552L23.2401 0.252058L21.9041 0.511576L22.0555 0.389894L21.7097 0.530057L21.7191 0.0727212Z" fill="#7246EE" class="dao-color-fill"/>
<path d="M21.6843 21.4142C21.5748 21.4142 21.475 21.411 21.3721 21.4078C21.2008 21.4073 20.9973 21.3894 20.9386 21.3839C20.913 21.3814 20.8824 21.3777 20.8504 21.3738C20.8091 21.369 20.7659 21.3639 20.7298 21.3607C20.5988 21.3488 20.4199 21.3187 20.2929 21.2957C19.7947 21.2128 19.3657 21.0631 19.2462 21.019C19.07 20.9508 18.9316 20.8973 18.6989 20.7839C18.6441 20.7596 18.5794 20.7297 18.5297 20.6989C18.4744 20.6698 18.4019 20.625 18.3338 20.5827L18.24 20.5253C18.1511 20.4718 18.0485 20.3924 17.9592 20.3224C17.9356 20.3054 17.8704 20.2571 17.8252 20.2124C17.7402 20.1476 17.6437 20.0392 17.5943 19.9809C17.5249 19.8978 17.4481 19.8032 17.402 19.7283L17.3868 19.706C17.3639 19.6725 17.3379 19.6346 17.3216 19.5967C17.3111 19.574 17.2979 19.5476 17.2842 19.5203C17.2549 19.4617 17.224 19.3995 17.2037 19.3428C17.1969 19.3196 17.19 19.2989 17.1832 19.2785C17.1755 19.2553 17.1678 19.2321 17.1616 19.2105C17.1431 19.1363 17.1251 19.0351 17.1132 18.9577C17.1061 18.9152 17.0949 18.7813 17.1068 18.644C17.3442 15.6624 17.6057 13.2509 17.8826 10.6977C18.1078 8.62006 18.3407 6.4717 18.5607 3.97845L18.7014 3.98465V4.11841C18.7234 4.60521 19.1258 5.06193 19.8055 5.36836C20.0563 5.48547 20.2771 5.54517 20.2978 5.54896C20.3873 5.57365 20.4956 5.60223 20.5811 5.61934C20.7374 5.65252 20.7799 5.65827 20.9059 5.67526L21.0014 5.68834C21.0636 5.69718 21.146 5.70258 21.2169 5.70717L21.276 5.71119C21.4592 5.72267 21.4829 5.72267 21.6663 5.72267C21.7338 5.72267 21.895 5.71739 22.2168 5.68226L22.2724 5.67342C22.3752 5.65769 22.5663 5.62853 22.7766 5.57376C23.0535 5.50028 23.2542 5.42049 23.2863 5.40441C23.3442 5.38019 23.4441 5.33736 23.5109 5.30085C23.6399 5.23105 23.6634 5.21647 23.7786 5.14425L23.8037 5.12863C23.929 5.04631 24.0448 4.9501 24.1327 4.8555C24.2145 4.77341 24.2705 4.70406 24.3157 4.62874C24.3196 4.62048 24.329 4.6044 24.3387 4.58844C24.3465 4.57536 24.3545 4.56238 24.3598 4.55193L24.3747 4.52254C24.3945 4.48351 24.4184 4.43758 24.4314 4.39855C24.4328 4.39131 24.4376 4.37558 24.4422 4.35986C24.4464 4.34654 24.4503 4.33322 24.453 4.32254C24.4641 4.27822 24.4751 4.21772 24.4806 4.17375L24.4804 4.17467L24.4815 4.1579C24.4836 4.13058 24.4879 4.07719 24.4829 4.01244C24.4822 4.00348 24.4813 3.99441 24.4804 3.98557L24.6207 3.97111C24.6218 3.98109 24.6227 3.99108 24.6236 4.00073C24.856 6.45529 25.1304 8.92247 25.3956 11.3086C25.6606 13.6913 25.9346 16.1554 26.1667 18.6048C26.1738 18.6268 26.1738 18.6491 26.1738 18.6677V18.7203C26.1738 18.7453 26.1731 18.7664 26.1752 18.7781L26.1437 18.7837L26.191 18.8016C26.1848 18.8732 26.1731 18.9687 26.1612 19.0399C26.15 19.1129 26.1258 19.2202 26.0925 19.2996C26.0576 19.3917 26.0188 19.4881 25.978 19.5579C25.9385 19.6319 25.873 19.7336 25.8165 19.8089C25.7901 19.8447 25.7626 19.8819 25.7263 19.9237L25.6025 19.8776L25.5966 18.1329C25.5966 17.8978 25.5203 17.7244 25.3819 17.6447C25.2432 17.5648 25.0533 17.5859 24.8478 17.7053C24.3988 17.9655 24.0337 18.5981 24.0337 19.1155L24.0397 20.9586L23.9926 21.0255C23.8925 21.0606 23.8043 21.0902 23.687 21.1251C23.589 21.1577 23.4459 21.1956 23.2636 21.2369C23.2009 21.2542 23.1111 21.2723 23.0452 21.284C22.9104 21.3077 22.735 21.3371 22.6062 21.3543L22.5555 21.3596C22.455 21.3704 22.2457 21.3929 21.9607 21.4073C21.8589 21.4124 21.7686 21.4142 21.6843 21.4142ZM18.6538 4.52071C18.4479 6.79248 18.2321 8.78309 18.0228 10.7128C17.7461 13.265 17.4847 15.6757 17.2473 18.6557C17.2357 18.791 17.2487 18.9125 17.2525 18.9352C17.264 19.0098 17.2809 19.106 17.2979 19.1742C17.3029 19.1915 17.3099 19.2128 17.317 19.2339C17.3245 19.2562 17.332 19.2787 17.3379 19.2996C17.3551 19.3471 17.3836 19.4036 17.4104 19.4571C17.4247 19.4858 17.4386 19.5136 17.4506 19.5393C17.4632 19.569 17.4849 19.5995 17.5033 19.6264L17.5209 19.6525C17.5692 19.7306 17.6591 19.8383 17.7023 19.8902C17.7388 19.9334 17.8336 20.0415 17.918 20.1063C17.9509 20.1384 17.9956 20.1747 18.0439 20.2094C18.1323 20.279 18.2309 20.3552 18.3126 20.4043C18.3417 20.4218 18.3743 20.442 18.4081 20.4629C18.4735 20.5033 18.5431 20.5465 18.6 20.5768C18.6463 20.6052 18.706 20.6326 18.7586 20.6562C18.988 20.7678 19.1239 20.8204 19.296 20.8872C19.4115 20.9295 19.8299 21.0757 20.3172 21.1568C20.4423 21.1795 20.6167 21.2087 20.7423 21.2202C20.7793 21.2234 20.8243 21.2287 20.867 21.2337L20.9522 21.2434C21.0695 21.2544 21.238 21.2663 21.3582 21.2663L21.3764 21.2668C21.5556 21.2723 21.7249 21.2774 21.9537 21.2663C22.2346 21.2521 22.4412 21.2301 22.5405 21.2195L22.5902 21.2142C22.7143 21.1974 22.8879 21.1685 23.0206 21.1451C23.0826 21.1341 23.1674 21.1168 23.2294 21.1001C23.4103 21.059 23.5488 21.0225 23.6445 20.9908C23.7423 20.9614 23.8188 20.9364 23.8985 20.9088L23.8928 19.1157C23.8928 18.5439 24.281 17.8709 24.777 17.5832C25.028 17.4378 25.2677 17.4162 25.4524 17.5226C25.6363 17.6284 25.7375 17.8452 25.7375 18.1327L25.7428 19.6693C25.7867 19.6059 25.8276 19.54 25.8549 19.4891C25.8967 19.4174 25.9405 19.3026 25.9617 19.2473C25.9858 19.1894 26.0092 19.1001 26.0218 19.0174C26.0312 18.9625 26.0402 18.8936 26.0464 18.8333C26.0328 18.8062 26.0328 18.7673 26.0328 18.7203V18.6677C26.0328 18.6603 26.0333 18.653 26.0322 18.647L26.0271 18.6277C25.795 16.1763 25.5208 13.7097 25.2556 11.3242C25.0085 9.10227 24.7536 6.81028 24.5318 4.52301C24.5212 4.54574 24.5102 4.56721 24.5003 4.58661L24.4859 4.61509C24.4792 4.62841 24.4696 4.64471 24.4597 4.66101C24.4519 4.67387 24.4443 4.68661 24.439 4.69683C24.386 4.78581 24.3217 4.86583 24.2342 4.95332C24.1405 5.05424 24.0158 5.15814 23.8845 5.24425L23.8535 5.26389C23.7348 5.33817 23.7109 5.35309 23.5782 5.42485C23.5095 5.46228 23.4133 5.50419 23.3449 5.53266C23.3088 5.55092 23.0978 5.6345 22.8126 5.71016C22.5949 5.76699 22.3989 5.79684 22.2937 5.81292L22.2371 5.82187C21.9887 5.84908 21.7878 5.86366 21.6663 5.86366C21.479 5.86366 21.4548 5.86366 21.2666 5.85195L21.2077 5.84805C21.1333 5.84311 21.0467 5.83737 20.9818 5.82807L20.887 5.8151C20.7606 5.79799 20.7133 5.79156 20.5525 5.75746C20.4646 5.73978 20.352 5.71027 20.2688 5.68662C20.1973 5.67193 19.9692 5.60051 19.7466 5.49661C19.2001 5.25011 18.8201 4.9067 18.6538 4.52071Z" fill="#7246EE" class="dao-color-fill"/>
<path d="M19.7933 3.45732L19.863 3.52701L20.074 3.59732V5.25841C20.074 5.29897 20.0567 5.33473 20.0328 5.35999C20.0093 5.38479 19.9743 5.40454 19.9336 5.40454C19.8637 5.40454 19.7933 5.34762 19.7933 5.26422V3.45732Z" fill="#7246EE" class="dao-color-fill"/>
<path d="M21.4449 3.81917L21.6265 3.87971H21.7255V5.5785C21.7255 5.66191 21.6552 5.71883 21.5852 5.71883C21.5152 5.71883 21.4449 5.66191 21.4449 5.5785V3.81917Z" fill="#7246EE" class="dao-color-fill"/>
<path d="M23.0903 3.64458H23.2725L23.3709 3.57896V5.25841C23.3709 5.33048 23.3174 5.40454 23.2306 5.40454C23.1606 5.40454 23.0903 5.34762 23.0903 5.26422V3.64458Z" fill="#7246EE" class="dao-color-fill"/>
<path d="M24.2533 3.01644V3.97895C24.2533 4.06235 24.3236 4.11925 24.3936 4.11925C24.4721 4.11925 24.5238 4.05527 24.5333 3.98892L24.534 3.98396V2.66799L24.3306 2.93917L24.2533 3.01644Z" fill="#7246EE" class="dao-color-fill"/>
<path d="M2.93506 19.7492L3.07614 19.7494V19.761L3.0773 19.7725C3.07803 19.7765 3.07832 19.7798 3.07846 19.7819L3.07854 19.7831C3.0793 19.7871 3.08034 19.7918 3.08175 19.7979L3.08225 19.7995C3.08294 19.8019 3.08362 19.8049 3.08416 19.808L3.08591 19.8134L3.08773 19.8183L3.08797 19.8188L3.08838 19.8198L3.08968 19.8233C3.09065 19.8259 3.09212 19.8292 3.09453 19.8346L3.09768 19.8409L3.10285 19.8508L3.10906 19.8626C3.11367 19.8698 3.11682 19.8748 3.12 19.879L3.12098 19.8804L3.12418 19.8847L3.12444 19.8849L3.12838 19.8901L3.12871 19.8903C3.12981 19.8917 3.13164 19.8938 3.13372 19.8969C3.13602 19.8997 3.13882 19.9028 3.14261 19.9072L3.14756 19.9122L3.14932 19.9141C3.15114 19.9162 3.1531 19.9183 3.15788 19.923L3.16367 19.9289L3.16411 19.9293L3.16582 19.9307L3.16607 19.931L3.17129 19.9359L3.17411 19.9385L3.17739 19.9413L3.17934 19.943L3.17995 19.9434L3.18171 19.9449L3.19059 19.9521C3.19392 19.9545 3.19701 19.9571 3.19917 19.9587L3.19949 19.9592L3.20506 19.9634L3.20683 19.9648L3.21407 19.9707L21.9475 30.7864L21.9127 30.8469H21.9828V30.9698L21.9825 30.9696L21.9799 31.9195L3.29768 21.1332V21.1356L3.19256 21.0763C3.18153 21.0702 3.17067 21.0636 3.15958 21.0563L3.1541 21.0528L3.15221 21.0516L3.15008 21.0502L3.14805 21.0488L3.14768 21.0486C3.14574 21.0474 3.13644 21.0413 3.12981 21.0363C3.12402 21.0326 3.11915 21.0286 3.1168 21.0267C3.1135 21.0243 3.11043 21.0218 3.10828 21.0201L3.10795 21.0199L3.10062 21.014L3.09176 21.0069C3.08527 21.002 3.07915 20.9968 3.07307 20.991L3.06585 20.9844L3.05722 20.9757C3.05228 20.9712 3.04747 20.9665 3.04298 20.9616L3.03761 20.9562L3.03475 20.9529C3.03055 20.9482 3.02505 20.942 3.01974 20.9355L3.01837 20.9338C3.01708 20.9324 3.0148 20.9296 3.01228 20.9258L3.01187 20.9254L3.01162 20.9251L3.00735 20.9197L3.00687 20.919C3.00554 20.9174 3.00275 20.9141 2.99992 20.9091C2.99449 20.9014 2.98888 20.8927 2.98315 20.8828M2.98315 20.8828C2.97811 20.8741 2.97313 20.8649 2.96879 20.8562L2.96836 20.8555L2.96629 20.8513L2.96564 20.8499L2.96082 20.8402V20.8386C2.95886 20.8341 2.95687 20.8294 2.95507 20.8242L2.95398 20.8217C2.95315 20.8195 2.95147 20.8155 2.94999 20.8101L2.94478 20.7927L2.94022 20.7836V20.7737C2.93893 20.768 2.93755 20.7615 2.93641 20.7546C2.93525 20.7492 2.93486 20.7448 2.93468 20.7424L2.9345 20.7389M2.98315 20.8828L2.98331 20.883L2.9901 20.879L2.99005 20.8786M2.98315 20.8828L2.983 20.8826L2.99005 20.8786M2.99005 20.8786L3.00029 20.8727H2.9898L2.99005 20.8786ZM3.11216 20.8252L3.11233 20.8254M3.14248 20.8619L3.14266 20.8621M3.07975 19.7922L3.07944 19.7915M22.0866 30.999H22.0869L22.0886 30.9995L22.1238 31.0096L22.1287 31.0103L22.1301 31.0106L22.1328 31.0113L22.1345 31.0117L22.1363 31.0122C22.1408 31.0134 22.1455 31.0143 22.1497 31.0153L22.1609 31.0179L22.1662 31.019L22.1711 31.0202L22.1733 31.0204L22.1739 31.0207C22.1836 31.0233 22.1952 31.0254 22.2021 31.0266L22.2066 31.0275L22.2204 31.0298L22.2215 31.0301L22.2268 31.0308C22.2383 31.0324 22.2485 31.0341 22.2587 31.036L22.2653 31.0374H22.2699C22.2809 31.0388 22.2926 31.0402 22.3025 31.0411C22.3064 31.0416 22.31 31.0421 22.3132 31.0423C22.3159 31.0428 22.322 31.0437 22.3292 31.0442C22.3467 31.0461 22.3643 31.0475 22.3819 31.0482H22.392C22.406 31.0496 22.4193 31.0496 22.4292 31.0496H22.4889L22.5389 31.0472L22.5411 31.047H22.5459L22.5481 31.0468C22.5544 31.0463 22.5604 31.0458 22.5653 31.0454H22.5657C22.5711 31.0449 22.5751 31.0444 22.579 31.0442L22.5846 31.0437L22.5887 31.043H22.5932L22.631 31.0383L22.6331 31.0378H22.6356L22.6406 31.0371L22.6451 31.0367C22.657 31.0348 22.6713 31.0329 22.685 31.0303L22.687 31.0298L22.6875 31.0296L22.6905 31.0291C22.7032 31.027 22.7163 31.0244 22.7278 31.0218C22.7319 31.0211 22.7353 31.0204 22.737 31.02H22.7373L22.7386 31.0197L22.741 31.0193L22.744 31.0186C22.7502 31.0171 22.7565 31.0155 22.7619 31.0141H22.7622C22.7676 31.0127 22.7722 31.0115 22.7765 31.0106L22.7811 31.0094L22.7842 31.0089L22.7859 31.0084L22.7875 31.0082C22.8042 31.004 22.8221 30.9988 22.8397 30.9932L22.84 30.9929L22.8422 30.9925C22.8438 30.992 22.847 30.991 22.8509 30.9896C22.8668 30.9845 22.8834 30.979 22.8998 30.9725L22.9027 30.9713L22.9083 30.9689H22.9087L22.916 30.9659L22.9224 30.9638L22.9202 31.7552L22.8855 31.7745L22.882 31.7762L22.8739 31.7797L22.8585 31.7863L22.8567 31.7872L22.8532 31.7889L22.8496 31.7903L22.8467 31.7912C22.8327 31.7966 22.8185 31.8013 22.8029 31.8065L22.8025 31.8067L22.8003 31.8072L22.7927 31.8095C22.7841 31.8121 22.7779 31.8142 22.7721 31.8159L22.7579 31.8204H22.7572L22.7495 31.8222H22.7486L22.7389 31.8251C22.7308 31.8274 22.7223 31.8295 22.712 31.8319L22.7034 31.8335L22.703 31.8338L22.7017 31.834L22.7001 31.8342L22.6979 31.8347C22.6861 31.8373 22.6761 31.8392 22.6666 31.8408C22.6627 31.8413 22.6594 31.842 22.6572 31.8425L22.6554 31.8427C22.6439 31.8451 22.6319 31.8467 22.6179 31.8486L22.6157 31.849L22.614 31.8493H22.6121L22.6077 31.8498L22.5762 31.8537H22.5664L22.562 31.8545C22.5542 31.8554 22.5461 31.8559 22.5354 31.8566L22.5318 31.8568L22.5302 31.857H22.5244C22.5171 31.8575 22.5113 31.8577 22.5063 31.858C22.4986 31.8587 22.4926 31.8589 22.4851 31.8589H22.4284C22.4176 31.8585 22.4046 31.8577 22.3915 31.8577H22.3835L22.3393 31.8542C22.3359 31.8538 22.33 31.8528 22.3234 31.8526C22.3098 31.8514 22.2961 31.8498 22.2824 31.8476L22.2769 31.8467H22.2731C22.2618 31.8451 22.2517 31.8434 22.2413 31.8415L22.2294 31.8394L22.2036 31.8342L22.1959 31.8326L22.1952 31.8324L22.1931 31.8319L22.1917 31.8317L22.1899 31.8312C22.1854 31.83 22.1807 31.8291 22.1765 31.8281L22.1641 31.8253L22.1606 31.8246L22.1575 31.8241L22.1562 31.8239L22.1535 31.823L22.1281 31.8159L22.1275 31.8154H22.1272L22.1136 31.8093H22.1073C22.0962 31.806 22.0858 31.8027 22.0755 31.7992L22.0746 31.7987C22.073 31.7983 22.0715 31.7978 22.0682 31.7964L22.0671 31.7959C22.0542 31.791 22.0419 31.786 22.0289 31.7809L22.027 31.7802L22.0261 31.7799L22.0228 31.7785C22.0113 31.7738 21.9999 31.7684 21.9867 31.762L21.9847 31.7611L21.9837 31.7609L21.9831 31.7604L21.9794 31.7588L21.9774 31.7578L21.9796 30.9614C21.9935 30.9675 22.0077 30.9732 22.0229 30.9784L22.0293 30.9807L22.0324 30.9819C22.0485 30.9875 22.0643 30.9922 22.0787 30.9967M19.863 3.52701L19.2792 3.23512C18.6778 3.79635 18.7964 4.53108 19.6484 5.02001C20.6718 5.60733 22.3698 5.62478 23.4398 5.05488C24.3537 4.5681 24.5125 3.81402 23.9014 3.23478L23.39 3.52701L21.7441 3.87972L19.863 3.52701ZM19.863 3.52701L19.7933 3.45732V5.26422C19.7933 5.34762 19.8637 5.40454 19.9336 5.40454C19.9743 5.40454 20.0093 5.38479 20.0328 5.35999C20.0567 5.33473 20.074 5.29897 20.074 5.25841V3.59732L19.863 3.52701ZM34.6278 15.0506C34.6278 15.54 34.4541 15.8814 34.1771 16.0424L34.5763 15.8105C34.8533 15.6495 35.0271 15.3082 35.0271 14.8188M34.6278 15.0506C34.6278 14.0717 33.9389 12.8739 33.0886 12.3844M34.6278 15.0506C34.6278 14.1242 34.0106 13.0016 33.2238 12.4691C33.1794 12.4389 33.1343 12.4106 33.0886 12.3844M34.6278 15.0506C34.6278 15.308 34.5799 15.5245 34.4938 15.6953C34.4164 15.8492 34.1891 15.9503 34.1891 16.0679L34.4242 15.9503C34.5418 15.8327 34.5926 15.8009 34.6003 15.7959C34.8632 15.6294 35.0271 15.2939 35.0271 14.8188M33.0886 12.3844L33.4879 12.1526C34.3381 12.642 35.0271 13.8399 35.0271 14.8188M33.0886 12.3844L33.6271 12.1599C34.4771 12.6494 35.0271 13.8399 35.0271 14.8188M19.2182 3.11093L19.0984 3.02705C18.7507 3.31928 18.563 3.66498 18.5501 4.02059C18.5328 4.49537 18.8281 4.95943 19.4086 5.30771C19.9889 5.65594 20.7551 5.83231 21.5231 5.83966C22.2911 5.84702 23.0685 5.6854 23.6718 5.34956C24.2747 5.01395 24.6023 4.55771 24.6195 4.08385C24.6326 3.72378 24.4659 3.36987 24.1314 3.06795L24.0183 3.15593C24.3421 3.44034 24.4899 3.76448 24.4785 4.07874C24.4637 4.48586 24.1808 4.90479 23.6032 5.22629C23.0261 5.54755 22.2741 5.70577 21.5244 5.69859C20.7746 5.69141 20.0347 5.51886 19.4811 5.18674C18.9277 4.85465 18.6763 4.43192 18.691 4.02571C18.7025 3.71102 18.8741 3.38928 19.2182 3.11093ZM33.0543 18.2753C33.5131 17.6321 33.8225 16.9307 33.8632 16.1855H34.0048C33.9662 16.9215 33.6765 17.6122 33.2486 18.2429L33.0543 18.2753ZM32.7694 18.6454C32.6661 18.7701 32.558 18.8921 32.4458 19.0115C32.3513 19.1124 32.2539 19.2112 32.1542 19.3078L32.2775 19.3847C32.3699 19.2944 32.4604 19.202 32.5486 19.1082C32.6596 18.9901 32.7668 18.8693 32.8695 18.7456L32.7694 18.6454ZM31.7971 19.8256L31.7486 19.6805C30.8065 20.5032 29.7502 21.1506 29.0288 21.5651C28.0559 22.1247 26.282 22.5821 24.2229 22.884C22.2678 23.1704 20.0648 23.3152 18.0657 23.2764C17.9623 23.2743 17.8595 23.2717 17.7573 23.2689C15.6629 23.2073 14.1788 23.6378 13.2166 24.086C12.7357 24.3101 12.3856 24.5381 12.155 24.711C12.0398 24.7975 11.9544 24.8701 11.8976 24.9214C11.8692 24.947 11.8479 24.9673 11.8336 24.9814C11.8264 24.9884 11.821 24.9941 11.8172 24.9978L11.8129 25.0023L11.8117 25.0035L11.8114 25.0037L11.8113 25.0039C11.8113 25.0039 11.8283 25.0201 11.8626 25.0524C11.8969 25.0845 11.9139 25.1008 11.9139 25.1008L11.9141 25.1006L11.9148 25.0999L11.9181 25.0963C11.9212 25.0933 11.9259 25.0883 11.9324 25.082C11.9454 25.0693 11.9652 25.0503 11.9921 25.026C12.046 24.9776 12.128 24.9075 12.2397 24.8238C12.463 24.6564 12.8048 24.4335 13.2762 24.2139C14.1992 23.7841 15.621 23.3665 17.6261 23.4067C17.6682 23.4076 17.7105 23.4085 17.7531 23.4097C19.8408 23.4711 22.1794 23.326 24.2433 23.0234C26.3043 22.7215 28.1012 22.2613 29.0992 21.6874C29.8107 21.2787 30.8549 20.6398 31.7971 19.8256ZM31.6066 13.7779L25.2093 10.0845L25.2404 9.93948L31.5746 13.5965L31.6066 13.7779ZM34.7574 15.5971L41.5164 19.4994C41.6537 19.5787 41.7066 19.6725 41.7071 19.752C41.7075 19.8312 41.6556 19.9248 41.5194 20.0038L22.9586 30.7904C22.8232 30.8691 22.6406 30.9107 22.4538 30.9107C22.2671 30.9107 22.0839 30.8691 21.9474 30.7901L3.26494 20.0038C3.12795 19.9246 3.07488 19.8308 3.07443 19.7513C3.07398 19.672 3.12572 19.5785 3.26184 19.4992L17.9318 10.974L17.9088 10.8242L3.19096 19.3774C3.02891 19.4715 2.93252 19.6046 2.93336 19.752C2.93419 19.8992 3.03183 20.032 3.19429 20.1261L21.8768 30.9124C22.0398 31.0067 22.2488 31.0518 22.4538 31.0518C22.6588 31.0518 22.8674 31.0067 23.0295 30.9124L41.5904 20.1258C41.7524 20.0318 41.8488 19.8987 41.8481 19.7513C41.8474 19.6038 41.7496 19.4712 41.5869 19.3772L34.8122 15.4658L34.7574 15.5971ZM41.5549 20.0649L22.9941 30.8512L23.0373 31.8607L41.5523 21.0153C41.7005 20.929 41.8481 20.8171 41.8481 20.7042V19.7538C41.8481 19.8664 41.7024 19.9791 41.5549 20.0649ZM3.20574 20.9174L21.8395 31.6755L21.8416 30.8882L3.30026 20.1833V20.1856L3.19513 20.1266C3.18765 20.1224 3.17769 20.116 3.17068 20.1118C3.16772 20.1099 3.16529 20.1083 3.1638 20.1076C3.15768 20.1038 3.15284 20.1003 3.14896 20.0972L3.14191 20.0923C3.13892 20.0904 3.13548 20.088 3.13195 20.0855L3.1301 20.0843L3.11944 20.0756C3.11611 20.073 3.11301 20.0706 3.11085 20.0688L3.11053 20.0685L3.10496 20.0641L3.1032 20.0629L3.09427 20.0556C3.08966 20.0521 3.08582 20.0488 3.08321 20.0464L3.07991 20.0434L3.07755 20.0413L3.07549 20.0396L3.07357 20.7001V20.7147L3.07369 20.7156L3.07393 20.7173L3.07428 20.7198L3.07515 20.7271L3.0755 20.7307C3.07633 20.7358 3.07759 20.7417 3.07949 20.7499L3.07956 20.7502L3.08085 20.7554L3.08504 20.7692L3.08655 20.773L3.08733 20.7749L3.08798 20.777C3.08852 20.7786 3.0896 20.7812 3.09124 20.7843L3.09348 20.789L3.09459 20.7923L3.09515 20.7934L3.0957 20.7946C3.09863 20.8003 3.10193 20.8064 3.10517 20.812L3.10549 20.8125C3.10865 20.8181 3.11193 20.8231 3.11621 20.8294L3.11709 20.8301L3.12032 20.8351L3.12105 20.836L3.12131 20.8362L3.12656 20.8431L3.1289 20.8461C3.13123 20.8489 3.13404 20.8522 3.13802 20.8567L3.13977 20.8579L3.1461 20.8654C3.14761 20.867 3.14956 20.8692 3.15133 20.8706L3.15339 20.8722L3.16418 20.883L3.16537 20.8842C3.16646 20.8852 3.16848 20.8868 3.17076 20.8892C3.17271 20.891 3.17466 20.8927 3.17737 20.8948L3.17914 20.896L3.18801 20.9033C3.19134 20.9058 3.19443 20.9082 3.1966 20.9101L3.19692 20.9103L3.20249 20.9148L3.20425 20.916L3.20574 20.9174ZM23.0641 30.7296L23.0611 31.8443L23.0238 31.8643C23.0195 31.8664 23.0153 31.8688 23.0105 31.8714C23.0063 31.8737 23.0015 31.8766 22.9967 31.8791C22.9934 31.8808 22.9906 31.8824 22.9893 31.8829L22.989 31.8831L22.9882 31.8836L22.9866 31.8846L22.9649 31.8954L22.9571 31.8991H22.9568L22.9526 31.9012L22.8969 31.929L22.8941 31.9248L22.8871 31.9278H22.884C22.8715 31.9323 22.8594 31.9365 22.848 31.9403H22.8474L22.8421 31.9419L22.8403 31.9426L22.8395 31.9429L22.8378 31.9433L22.8346 31.9445C22.8308 31.9455 22.8249 31.9473 22.8184 31.9492C22.8079 31.9525 22.7957 31.9563 22.7868 31.9589L22.7775 31.9614H22.7758L22.7743 31.9617C22.7626 31.965 22.7513 31.9676 22.7406 31.9699L22.738 31.9706L22.7361 31.9708L22.7347 31.9711L22.7344 31.9713C22.7327 31.9716 22.7293 31.9725 22.7253 31.9732C22.7143 31.9753 22.7017 31.9781 22.6888 31.9803L22.6813 31.9826H22.6751C22.6626 31.985 22.6505 31.9866 22.6389 31.9882C22.6349 31.989 22.6289 31.9899 22.6219 31.9901L22.597 31.9932C22.5925 31.9941 22.5889 31.9944 22.5867 31.9946L22.5786 31.9948H22.575C22.5649 31.996 22.555 31.9967 22.5468 31.9972C22.5393 31.9981 22.5325 31.9981 22.5292 31.9981C22.5268 31.9981 22.5239 31.9984 22.5208 31.9986C22.5104 31.9993 22.4967 32 22.4851 32H22.4226C22.4107 31.9993 22.401 31.9988 22.3917 31.9988H22.3781L22.322 31.9944L22.3189 31.9939L22.317 31.9937L22.314 31.9934C22.2979 31.992 22.2818 31.9901 22.2658 31.9878H22.2631L22.2581 31.9871C22.2446 31.9852 22.2307 31.9831 22.2158 31.9803L22.2027 31.9781L22.1744 31.9723L22.1727 31.972L22.1711 31.9716L22.1671 31.9706H22.1666C22.1646 31.9701 22.161 31.9694 22.157 31.9683L22.1459 31.9659C22.1425 31.965 22.1388 31.9643 22.1353 31.9636C22.1265 31.9621 22.1192 31.96 22.1154 31.9589L22.1147 31.9586L22.0881 31.9511L22.0819 31.9492L22.0755 31.9471C22.0612 31.9429 22.0455 31.9379 22.0296 31.9325C22.024 31.9306 22.0194 31.9288 22.0164 31.9276C22.0029 31.9224 21.9901 31.9172 21.9779 31.9125L21.9742 31.9111L21.973 31.9107L21.9709 31.9097C21.9552 31.9034 21.9404 31.8963 21.9275 31.8902L21.9237 31.8886L21.92 31.8867L21.9194 31.8864L21.9178 31.8857L21.9152 31.8843L21.9112 31.8824C21.9049 31.8794 21.8969 31.8754 21.8884 31.8707L21.836 31.8093L21.839 30.7797H21.9294L21.9453 30.7884C21.9577 30.7952 21.9688 30.8013 21.9797 30.8067L21.9826 30.8081L21.9863 30.81L21.9869 30.8102L21.9879 30.8107L21.9899 30.8116C22.0032 30.818 22.0145 30.8232 22.0261 30.8281L22.0293 30.8293L22.0316 30.83L22.0349 30.8316C22.046 30.8366 22.0566 30.8408 22.0675 30.8443L22.0802 30.849C22.093 30.8535 22.106 30.8575 22.1205 30.862L22.1223 30.8624L22.124 30.8629H22.1243L22.1532 30.8714C22.1602 30.8725 22.166 30.8742 22.1696 30.8751L22.1803 30.8775L22.1938 30.8805L22.1955 30.881L22.1967 30.8812L22.1988 30.8817L22.2038 30.8829C22.2056 30.8831 22.208 30.8838 22.2106 30.8845C22.2145 30.8855 22.217 30.8859 22.2212 30.8866C22.2241 30.8871 22.2277 30.8878 22.2331 30.889L22.243 30.8906L22.2474 30.8913C22.2567 30.8925 22.2674 30.8942 22.2783 30.8963H22.2808L22.2863 30.897C22.2953 30.8984 22.3031 30.8993 22.3124 30.9003C22.3181 30.901 22.3243 30.9015 22.3319 30.9024L22.3351 30.9029L22.337 30.9033H22.3384L22.3425 30.9038C22.357 30.9054 22.3715 30.9066 22.386 30.9071H22.3995L22.4034 30.9076C22.4104 30.9083 22.4181 30.9085 22.4304 30.9085H22.4872L22.5253 30.9066C22.5319 30.9059 22.538 30.9059 22.5414 30.9059C22.5447 30.9057 22.5482 30.9052 22.5526 30.9047H22.553C22.5571 30.9045 22.5621 30.904 22.5674 30.9036C22.5714 30.9031 22.5771 30.9024 22.5834 30.9022L22.6087 30.8989C22.6124 30.8982 22.6179 30.8975 22.6243 30.897L22.6252 30.8968C22.6368 30.8953 22.6469 30.8937 22.6565 30.892L22.6606 30.8911C22.6633 30.8904 22.6667 30.8899 22.6705 30.8895C22.6795 30.8878 22.6893 30.8859 22.7005 30.8836L22.7027 30.8831L22.7042 30.8829L22.7056 30.8824H22.7059L22.7139 30.8808L22.7271 30.8775H22.7274C22.7328 30.8761 22.739 30.8744 22.7452 30.873L22.7475 30.8723L22.7506 30.8718L22.7547 30.8709C22.7684 30.8674 22.7822 30.8636 22.7951 30.8591L22.8004 30.8575L22.8023 30.857L22.8031 30.8568L22.8038 30.8565L22.8062 30.8558C22.8215 30.8509 22.8348 30.8464 22.8471 30.8415C22.8509 30.8399 22.8545 30.8387 22.8568 30.8377L22.8572 30.8375L22.8628 30.8354L22.8673 30.8333L22.8718 30.8321L22.8724 30.8319L22.8767 30.83L22.8838 30.8267L22.8841 30.8265L22.8944 30.8217L22.8989 30.8196L22.9018 30.8189L22.9037 30.818L22.906 30.8168C22.9118 30.8142 22.9171 30.8116 22.9237 30.8083L22.9263 30.8069L22.929 30.806L22.9303 30.8053L22.9317 30.8046C22.9415 30.7994 22.9503 30.7947 22.9582 30.7902L23.0641 30.7296ZM25.7041 19.9458C25.5595 20.1205 25.2737 20.4114 24.7593 20.6952C24.5494 20.8118 24.3549 20.9007 24.2505 20.9378C24.1404 20.9842 24.0524 21.0192 23.9696 21.0488L23.9222 20.916C24.0018 20.8875 24.0877 20.8532 24.1977 20.8069L24.1996 20.8062L24.2016 20.8055C24.2954 20.7723 24.4835 20.6872 24.6909 20.5717C25.1882 20.2973 25.4608 20.0185 25.5954 19.8558L25.7041 19.9458ZM18.8049 2.93918L18.636 2.6014V3.97895C18.636 4.06235 18.7064 4.11926 18.7764 4.11926C18.8548 4.11926 18.9065 4.05528 18.916 3.98892L18.9167 3.98396V2.97643L18.8049 2.93918ZM24.5225 7.36783L24.5167 6.39236C24.5167 6.22922 24.4585 6.09512 24.3439 6.02947C24.2292 5.96385 24.0834 5.98085 23.9399 6.06378C23.796 6.1469 23.6702 6.28495 23.5811 6.43922C23.4923 6.59323 23.4363 6.76991 23.4394 6.93401L23.4452 8.00933L23.4459 8.00907L23.4458 8.00984C23.4947 8.00345 23.6031 7.97429 23.6671 7.95104L23.6906 7.94067C23.7486 7.91525 23.8452 7.87285 23.9462 7.81729C24.2253 7.66029 24.4411 7.46088 24.5225 7.36783ZM24.3808 7.3075L24.3756 6.39275V6.39236C24.3756 6.25901 24.3291 6.18363 24.2737 6.15191C24.2183 6.12014 24.1286 6.11767 24.0105 6.18593C23.8926 6.25403 23.7829 6.3718 23.7033 6.50976C23.6237 6.64778 23.5779 6.79944 23.5805 6.93178L23.5805 6.93276L23.5807 6.96681L24.3808 7.3075ZM33.949 20.4476L33.34 19.5109L32.5257 20.075L32.5984 20.1963L33.301 19.7096L33.7893 20.4608L33.949 20.4476ZM33.0491 20.5226L32.8488 20.4883L32.8958 20.5353L33.0491 20.5226ZM33.0543 19.8176L31.2468 18.554L32.5803 20.1562L33.0543 19.8176ZM33.5979 20.0006L33.9036 20.5355H33.9539L35.4136 20.2799L33.5979 20.0006ZM32.8867 20.4017L31.0063 18.1928L32.0691 20.5063L33.6012 21.2409L34.4705 21.4821L35.5914 20.1818L33.3252 20.5235L32.8867 20.4017ZM33.0501 20.5935L33.3318 20.9244L33.6012 21.1233L34.4249 21.3189L35.2359 20.3782L33.3163 20.6676L33.0501 20.5935ZM32.1761 20.4014L31.5645 19.0699L33.0513 20.8249L32.1761 20.4014ZM33.4837 17.949H33.2485V18.1726L32.383 18.3856L32.363 18.5142L33.2485 19.0553V19.5949L33.4837 19.83V17.949ZM33.2309 18.8792L32.581 18.4823L33.2309 18.3221V18.8792ZM32.0301 12.3421C32.2773 12.1988 32.6415 12.2147 33.0537 12.4521L33.0892 12.4724L33.6279 12.1597L33.5242 12.0984C33.0852 11.839 32.6709 11.8109 32.3586 11.9883L31.9594 12.2201L31.9587 12.2205L32.0297 12.3425L32.0301 12.3421ZM32.4301 12.1099C32.6349 12.117 32.859 12.1835 33.0885 12.3097L33.3448 12.1609C32.9799 11.9768 32.6619 11.9791 32.4301 12.1099ZM34.7205 15.4809C34.7524 15.3496 34.7689 15.2055 34.7689 15.0506C34.7689 14.5305 34.5869 13.9622 34.2993 13.4635C34.0548 13.0395 33.7284 12.6561 33.3586 12.3909L33.4867 12.3165C33.8585 12.551 34.2003 12.9324 34.4541 13.3726C34.7235 13.8399 34.886 14.3599 34.886 14.8187C34.886 15.107 34.8223 15.3262 34.7205 15.4809ZM31.9621 12.2201C32.2718 12.044 32.6861 12.0777 33.1239 12.3298C33.5622 12.5821 33.9565 13.0142 34.2405 13.5051C34.5244 13.9959 34.7016 14.5523 34.6984 15.0573C34.6984 15.5618 34.5185 15.9339 34.2086 16.1102C33.8991 16.2863 33.4848 16.2526 33.047 16.0005L33.0468 16.0003C32.6085 15.7447 32.2158 15.3128 31.9327 14.8227C31.6496 14.3326 31.4725 13.778 31.4725 13.2732C31.4725 12.7686 31.6524 12.3964 31.9621 12.2201ZM32.0319 12.3428C31.7815 12.4853 31.6136 12.7989 31.6136 13.2732C31.6136 13.7473 31.7808 14.2778 32.055 14.7521C32.3289 15.2264 32.7056 15.638 33.1175 15.8783C33.5297 16.1156 33.8881 16.1302 34.139 15.9875C34.3894 15.845 34.5573 15.5313 34.5573 15.0571V15.0566C34.5603 14.5828 34.3932 14.0509 34.1183 13.5758C33.8436 13.1007 33.4653 12.6891 33.0534 12.452C32.6412 12.2147 32.2828 12.2 32.0319 12.3428ZM32.1053 12.6138C32.3616 12.4674 32.7021 12.4962 33.0595 12.7034C33.4171 12.9106 33.7376 13.2622 33.9676 13.6605C34.1975 14.0588 34.341 14.5107 34.3377 14.9224C34.3341 15.3334 34.1865 15.6409 33.9302 15.7873C33.6736 15.9337 33.3334 15.9048 32.9758 15.6977C32.6181 15.4904 32.2993 15.1388 32.0703 14.7405C31.841 14.3421 31.6978 13.8905 31.6978 13.4792V13.4787C31.7011 13.0677 31.8488 12.7602 32.1053 12.6138ZM31.8389 13.4795C31.8389 13.8603 31.9724 14.2877 32.1925 14.6701C32.4126 15.0526 32.7152 15.3837 33.0465 15.5756C33.3783 15.7678 33.6626 15.7776 33.8601 15.6648C34.0579 15.5519 34.1933 15.3024 34.1966 14.9212C34.1996 14.5408 34.0661 14.1136 33.8453 13.7311C33.6245 13.3486 33.3202 13.0175 32.9887 12.8254C32.6572 12.6333 32.3729 12.6235 32.1751 12.7363C31.9776 12.8491 31.8419 13.0986 31.8389 13.4795ZM24.3236 19.868C24.2979 19.868 24.2721 19.8424 24.2721 19.8165V19.4753C24.2721 19.4495 24.2979 19.4236 24.3236 19.4236C24.3494 19.4236 24.3752 19.4495 24.3752 19.4753V19.8165C24.3752 19.8424 24.3559 19.868 24.3236 19.868ZM21.6488 0L23.2776 0.253757L24.4811 0.952411L24.4457 1.01343L24.5096 0.983449L24.9654 1.95507L24.5122 2.94715L23.2951 3.65716L21.6487 3.91092L19.9966 3.65718L18.7739 2.94743L18.3087 1.95585L18.7619 0.963769L19.9791 0.25371L21.6488 0ZM24.3912 1.06335L23.2297 0.389077L21.6485 0.14275L20.0269 0.389147L18.8716 1.06309L18.4642 1.95507L18.8829 2.84757L20.0443 3.52179L21.6487 3.76817L23.2471 3.52182L24.4025 2.84785L24.81 1.95585L24.3912 1.06335ZM21.7191 0.0727212L21.5781 0.0698055L21.5694 0.490955L21.4022 0.356834L21.5024 0.538005L20.0107 0.252364L19.9842 0.390928L21.1976 0.623288L18.8018 0.943706L18.8205 1.08354L21.0946 0.779417L18.3543 1.89022L18.4073 2.02095L21.219 0.881207L18.7786 2.84263L18.8669 2.9526L21.4048 0.91288L19.9586 3.55565L20.0823 3.62337L21.5675 0.90947L21.5781 3.83981L21.7192 3.83929L21.7086 0.910693L23.2093 3.62379L23.3328 3.55551L21.8718 0.914361L24.4132 2.95269L24.5014 2.84263L22.0576 0.882477L24.8612 2.02097L24.9142 1.89026L22.1796 0.779794L24.4363 1.08347L24.4551 0.943659L22.0712 0.622841L23.267 0.390552L23.2401 0.252058L21.9041 0.511576L22.0555 0.389894L21.7097 0.530057L21.7191 0.0727212ZM21.6843 21.4142C21.5748 21.4142 21.475 21.411 21.3721 21.4078C21.2008 21.4073 20.9973 21.3894 20.9386 21.3839C20.913 21.3814 20.8824 21.3777 20.8504 21.3738C20.8091 21.369 20.7659 21.3639 20.7298 21.3607C20.5988 21.3488 20.4199 21.3187 20.2929 21.2957C19.7947 21.2128 19.3657 21.0631 19.2462 21.019C19.07 20.9508 18.9316 20.8973 18.6989 20.7839C18.6441 20.7596 18.5794 20.7297 18.5297 20.6989C18.4744 20.6698 18.4019 20.625 18.3338 20.5827L18.24 20.5253C18.1511 20.4718 18.0485 20.3924 17.9592 20.3224C17.9356 20.3054 17.8704 20.2571 17.8252 20.2124C17.7402 20.1476 17.6437 20.0392 17.5943 19.9809C17.5249 19.8978 17.4481 19.8032 17.402 19.7283L17.3868 19.706C17.3639 19.6725 17.3379 19.6346 17.3216 19.5967C17.3111 19.574 17.2979 19.5476 17.2842 19.5203C17.2549 19.4617 17.224 19.3995 17.2037 19.3428C17.1969 19.3196 17.19 19.2989 17.1832 19.2785C17.1755 19.2553 17.1678 19.2321 17.1616 19.2105C17.1431 19.1363 17.1251 19.0351 17.1132 18.9577C17.1061 18.9152 17.0949 18.7813 17.1068 18.644C17.3442 15.6624 17.6057 13.2509 17.8826 10.6977C18.1078 8.62006 18.3407 6.4717 18.5607 3.97845L18.7014 3.98465V4.11841C18.7234 4.60521 19.1258 5.06193 19.8055 5.36836C20.0563 5.48547 20.2771 5.54517 20.2978 5.54896C20.3873 5.57365 20.4956 5.60223 20.5811 5.61934C20.7374 5.65252 20.7799 5.65827 20.9059 5.67526L21.0014 5.68834C21.0636 5.69718 21.146 5.70258 21.2169 5.70717L21.276 5.71119C21.4592 5.72267 21.4829 5.72267 21.6663 5.72267C21.7338 5.72267 21.895 5.71739 22.2168 5.68226L22.2724 5.67342C22.3752 5.65769 22.5663 5.62853 22.7766 5.57376C23.0535 5.50028 23.2542 5.42049 23.2863 5.40441C23.3442 5.38019 23.4441 5.33736 23.5109 5.30085C23.6399 5.23105 23.6634 5.21647 23.7786 5.14425L23.8037 5.12863C23.929 5.04631 24.0448 4.9501 24.1327 4.8555C24.2145 4.77341 24.2705 4.70406 24.3157 4.62874C24.3196 4.62048 24.329 4.6044 24.3387 4.58844C24.3465 4.57536 24.3545 4.56238 24.3598 4.55193L24.3747 4.52254C24.3945 4.48351 24.4184 4.43758 24.4314 4.39855C24.4328 4.39131 24.4376 4.37558 24.4422 4.35986C24.4464 4.34654 24.4503 4.33322 24.453 4.32254C24.4641 4.27822 24.4751 4.21772 24.4806 4.17375L24.4804 4.17467L24.4815 4.1579C24.4836 4.13058 24.4879 4.07719 24.4829 4.01244C24.4822 4.00348 24.4813 3.99441 24.4804 3.98557L24.6207 3.97111C24.6218 3.98109 24.6227 3.99108 24.6236 4.00073C24.856 6.45529 25.1304 8.92247 25.3956 11.3086C25.6606 13.6913 25.9346 16.1554 26.1667 18.6048C26.1738 18.6268 26.1738 18.6491 26.1738 18.6677V18.7203C26.1738 18.7453 26.1731 18.7664 26.1752 18.7781L26.1437 18.7837L26.191 18.8016C26.1848 18.8732 26.1731 18.9687 26.1612 19.0399C26.1499 19.1129 26.1258 19.2202 26.0925 19.2996C26.0576 19.3917 26.0188 19.4881 25.978 19.5579C25.9385 19.6319 25.873 19.7336 25.8165 19.8089C25.7901 19.8447 25.7626 19.8819 25.7263 19.9237L25.6025 19.8776L25.5966 18.1329C25.5966 17.8978 25.5203 17.7244 25.3819 17.6447C25.2432 17.5648 25.0533 17.5859 24.8478 17.7053C24.3988 17.9655 24.0337 18.5981 24.0337 19.1155L24.0397 20.9586L23.9926 21.0255C23.8925 21.0606 23.8043 21.0902 23.687 21.1251C23.589 21.1577 23.4459 21.1956 23.2636 21.2369C23.2009 21.2542 23.1111 21.2723 23.0452 21.284C22.9104 21.3077 22.735 21.3371 22.6062 21.3543L22.5555 21.3596C22.455 21.3704 22.2457 21.3929 21.9607 21.4073C21.8589 21.4124 21.7686 21.4142 21.6843 21.4142ZM18.6538 4.52071C18.4479 6.79248 18.2321 8.78309 18.0228 10.7128C17.7461 13.265 17.4847 15.6757 17.2473 18.6557C17.2357 18.791 17.2487 18.9125 17.2525 18.9352C17.264 19.0098 17.2809 19.106 17.2979 19.1742C17.3029 19.1915 17.3099 19.2128 17.317 19.2339C17.3245 19.2562 17.332 19.2787 17.3379 19.2996C17.3551 19.3471 17.3836 19.4036 17.4104 19.4571C17.4247 19.4858 17.4386 19.5136 17.4506 19.5393C17.4632 19.569 17.4849 19.5995 17.5033 19.6264L17.5209 19.6525C17.5692 19.7306 17.6591 19.8383 17.7023 19.8902C17.7388 19.9334 17.8336 20.0415 17.918 20.1063C17.9509 20.1384 17.9956 20.1747 18.0439 20.2094C18.1323 20.279 18.2309 20.3552 18.3126 20.4043C18.3417 20.4218 18.3743 20.442 18.4081 20.4629C18.4735 20.5033 18.5431 20.5465 18.6 20.5768C18.6463 20.6052 18.706 20.6326 18.7586 20.6562C18.988 20.7678 19.1239 20.8204 19.296 20.8872C19.4115 20.9295 19.8299 21.0757 20.3172 21.1568C20.4423 21.1795 20.6167 21.2087 20.7423 21.2202C20.7793 21.2234 20.8243 21.2287 20.867 21.2337L20.9522 21.2434C21.0695 21.2544 21.238 21.2663 21.3582 21.2663L21.3764 21.2668C21.5556 21.2723 21.7249 21.2774 21.9537 21.2663C22.2346 21.2521 22.4412 21.2301 22.5405 21.2195L22.5902 21.2142C22.7143 21.1974 22.8879 21.1685 23.0206 21.1451C23.0826 21.1341 23.1674 21.1168 23.2294 21.1001C23.4103 21.059 23.5488 21.0225 23.6445 20.9908C23.7423 20.9614 23.8188 20.9364 23.8985 20.9088L23.8928 19.1157C23.8928 18.5439 24.281 17.8709 24.777 17.5832C25.028 17.4378 25.2677 17.4162 25.4524 17.5226C25.6363 17.6284 25.7375 17.8452 25.7375 18.1327L25.7428 19.6693C25.7867 19.6059 25.8276 19.54 25.8549 19.4891C25.8967 19.4174 25.9405 19.3026 25.9617 19.2473C25.9858 19.1894 26.0092 19.1001 26.0218 19.0174C26.0312 18.9625 26.0402 18.8936 26.0464 18.8332C26.0328 18.8062 26.0328 18.7673 26.0328 18.7203V18.6677C26.0328 18.6603 26.0333 18.653 26.0322 18.647L26.0271 18.6277C25.795 16.1763 25.5208 13.7097 25.2556 11.3242C25.0085 9.10227 24.7536 6.81028 24.5318 4.52301C24.5212 4.54574 24.5102 4.56721 24.5003 4.58661L24.4859 4.61509C24.4792 4.62841 24.4696 4.64471 24.4597 4.66101C24.4519 4.67387 24.4443 4.68661 24.439 4.69683C24.386 4.78581 24.3217 4.86583 24.2342 4.95332C24.1405 5.05424 24.0158 5.15814 23.8845 5.24425L23.8535 5.26389C23.7348 5.33817 23.7109 5.35309 23.5782 5.42485C23.5095 5.46228 23.4133 5.50419 23.3449 5.53266C23.3088 5.55092 23.0978 5.6345 22.8126 5.71016C22.5949 5.76699 22.3989 5.79684 22.2937 5.81292L22.2371 5.82187C21.9887 5.84908 21.7878 5.86366 21.6663 5.86366C21.479 5.86366 21.4548 5.86366 21.2666 5.85195L21.2077 5.84805C21.1333 5.84311 21.0467 5.83737 20.9818 5.82807L20.887 5.8151C20.7606 5.79799 20.7133 5.79156 20.5525 5.75746C20.4646 5.73978 20.352 5.71027 20.2688 5.68662C20.1973 5.67193 19.9692 5.60051 19.7466 5.49661C19.2001 5.25011 18.8201 4.9067 18.6538 4.52071ZM21.6265 3.87971L21.4449 3.81917V5.5785C21.4449 5.66191 21.5152 5.71883 21.5852 5.71883C21.6552 5.71883 21.7255 5.66191 21.7255 5.5785V3.87971H21.6265ZM23.2725 3.64458H23.0903V5.26422C23.0903 5.34762 23.1606 5.40454 23.2306 5.40454C23.3174 5.40454 23.3709 5.33048 23.3709 5.25841V3.57896L23.2725 3.64458ZM24.2533 3.97895V3.01644L24.3306 2.93917L24.534 2.66799V3.98396L24.5333 3.98892C24.5238 4.05527 24.4721 4.11925 24.3936 4.11925C24.3236 4.11925 24.2533 4.06235 24.2533 3.97895Z" stroke="#7246EE" stroke-width="0.1"/>
<path d="M21.6372 1.20534C22.0836 1.20534 22.4454 1.0127 22.4454 0.775022C22.4454 0.537372 22.0836 0.344727 21.6372 0.344727C21.1907 0.344727 20.8289 0.537372 20.8289 0.775022C20.8289 1.0127 21.1907 1.20534 21.6372 1.20534Z" fill="#7246EE" class="dao-color-fill"/>
<path fill-rule="evenodd" clip-rule="evenodd" d="M21.0987 0.53325C20.9615 0.606306 20.8994 0.695234 20.8994 0.77525C20.8994 0.85529 20.9615 0.944218 21.0987 1.01727C21.2329 1.08871 21.4231 1.13503 21.6371 1.13503C21.8511 1.13503 22.0414 1.08871 22.1755 1.01727C22.3128 0.944218 22.3749 0.85529 22.3749 0.77525C22.3749 0.695234 22.3128 0.606306 22.1755 0.53325C22.0414 0.461816 21.8511 0.415495 21.6371 0.415495C21.4231 0.415495 21.2329 0.461816 21.0987 0.53325ZM21.0324 0.408723C21.1908 0.324404 21.4047 0.274414 21.6371 0.274414C21.8695 0.274414 22.0835 0.324404 22.2418 0.408723C22.3971 0.491396 22.516 0.61764 22.516 0.77525C22.516 0.932884 22.3971 1.05913 22.2418 1.1418C22.0835 1.22612 21.8695 1.27611 21.6371 1.27611C21.4047 1.27611 21.1908 1.22612 21.0324 1.1418C20.8771 1.05913 20.7583 0.932884 20.7583 0.77525C20.7583 0.61764 20.8771 0.491396 21.0324 0.408723Z" fill="#7246EE" class="dao-color-fill"/>
</g>
</g>
</g>
<defs>
<clipPath id="clip0_8767_5749">
<rect width="44" height="32" fill="white"/>
</clipPath>
<clipPath id="clip1_8767_5749">
<rect width="39.2" height="32" fill="white" transform="translate(2.7334)"/>
</clipPath>
<clipPath id="clip2_8767_5749">
<rect width="39.2" height="32" fill="white" transform="translate(2.7334)"/>
</clipPath>
</defs>
</svg>
