<svg width="121" height="147" viewBox="0 0 121 147" fill="none" xmlns="http://www.w3.org/2000/svg">
<path fill-rule="evenodd" clip-rule="evenodd" d="M120.994 0H0.994165V115.602H120.994V0ZM60.998 115.603H120.998L60.998 146.332V115.603ZM60.99 115.603H0.990234L60.99 146.333V115.603Z" fill="#00B2FF"/>
<path fill-rule="evenodd" clip-rule="evenodd" d="M120.994 0H0.994165V115.602H120.994V0ZM60.998 115.603H120.998L60.998 146.332V115.603ZM60.99 115.603H0.990234L60.99 146.333V115.603Z" fill="url(#paint0_angular_166_15987)" style="mix-blend-mode:multiply"/>
<path opacity="0.16" fill-rule="evenodd" clip-rule="evenodd" d="M61.2034 123.717L61.1913 123.719V112.17L61.2034 112.173V112.013H61.2104V112.175L80.7171 117.796L61.1913 105.358V68.1133H61.1843V105.358L41.6585 117.796L61.1843 112.17V123.719L9.07031 112.294L61.2034 139.083V123.717ZM61.2104 123.715V139.083L113.372 112.28L61.2104 123.715ZM113.874 112.022L113.893 112.012H113.886V68.1133H113.874V112.022Z" fill="white"/>
<g clip-path="url(#clip0_166_15987)">
<path d="M46.2868 46.1196H43.7481L43.7638 43.9975H46.2868C46.8108 43.9975 47.2536 43.8717 47.6151 43.6202C47.9819 43.3687 48.2597 42.994 48.4483 42.4962C48.6422 41.9932 48.7391 41.3749 48.7391 40.6413V40.1461C48.7391 39.5959 48.6841 39.1139 48.574 38.6999C48.4693 38.2807 48.3121 37.9322 48.1025 37.6545C47.8929 37.3716 47.6309 37.1594 47.3165 37.0179C47.0073 36.8764 46.651 36.8057 46.2475 36.8057H43.7009V34.6756H46.2475C47.023 34.6756 47.733 34.8093 48.3776 35.0765C49.0273 35.3385 49.588 35.7158 50.0596 36.2083C50.5364 36.6956 50.9032 37.2746 51.16 37.9453C51.4219 38.6108 51.5529 39.3496 51.5529 40.1618V40.6413C51.5529 41.4482 51.4219 42.1871 51.16 42.8578C50.9032 43.5285 50.539 44.1075 50.0674 44.5948C49.5958 45.0821 49.0378 45.4594 48.3933 45.7266C47.754 45.9886 47.0519 46.1196 46.2868 46.1196ZM45.3279 34.6756V46.1196H42.5691V34.6756H45.3279ZM60.8873 37.0808L58.0971 46.1196H55.1339L59.3389 34.6756H61.2175L60.8873 37.0808ZM63.1981 46.1196L60.4 37.0808L60.0385 34.6756H61.9406L66.1692 46.1196H63.1981ZM63.0881 41.8517V43.9817H57.2168V41.8517H63.0881ZM79.7401 40.1697V40.6334C79.7401 41.5085 79.6169 42.2945 79.3706 42.9914C79.1296 43.6831 78.7864 44.2752 78.341 44.7677C77.8956 45.255 77.369 45.6297 76.7612 45.8917C76.1533 46.1484 75.4826 46.2768 74.749 46.2768C74.0102 46.2768 73.3343 46.1484 72.7212 45.8917C72.1134 45.6297 71.5841 45.255 71.1335 44.7677C70.6881 44.2752 70.3423 43.6831 70.096 42.9914C69.8549 42.2945 69.7344 41.5085 69.7344 40.6334V40.1697C69.7344 39.2946 69.8549 38.5086 70.096 37.8117C70.3423 37.1148 70.6855 36.5227 71.1256 36.0354C71.571 35.5428 72.0976 35.1682 72.7055 34.9114C73.3185 34.6494 73.9945 34.5184 74.7333 34.5184C75.4669 34.5184 76.1376 34.6494 76.7454 34.9114C77.3585 35.1682 77.8877 35.5428 78.3331 36.0354C78.7785 36.5227 79.1244 37.1148 79.3706 37.8117C79.6169 38.5086 79.7401 39.2946 79.7401 40.1697ZM76.9419 40.6334V40.154C76.9419 39.5881 76.8922 39.0903 76.7926 38.6606C76.6983 38.2257 76.5568 37.8615 76.3682 37.5681C76.1795 37.2746 75.9464 37.0546 75.6686 36.9078C75.3962 36.7559 75.0844 36.6799 74.7333 36.6799C74.3665 36.6799 74.0469 36.7559 73.7744 36.9078C73.5019 37.0546 73.274 37.2746 73.0906 37.5681C72.9072 37.8615 72.7683 38.2257 72.674 38.6606C72.5849 39.0903 72.5404 39.5881 72.5404 40.154V40.6334C72.5404 41.1941 72.5849 41.6919 72.674 42.1268C72.7683 42.5565 72.9072 42.9207 73.0906 43.2193C73.2792 43.518 73.5098 43.7433 73.7823 43.8953C74.06 44.0472 74.3822 44.1232 74.749 44.1232C75.1001 44.1232 75.4119 44.0472 75.6844 43.8953C75.9568 43.7433 76.1848 43.518 76.3682 43.2193C76.5568 42.9207 76.6983 42.5565 76.7926 42.1268C76.8922 41.6919 76.9419 41.1941 76.9419 40.6334Z" fill="white"/>
<g clip-path="url(#clip1_166_15987)">
<path d="M32.5212 32.2514L30.2676 21.035L33.7212 20.34C34.709 20.1424 35.631 20.1863 36.5017 20.479C37.3725 20.7643 38.1042 21.2765 38.7042 22.0081C39.3042 22.7398 39.7139 23.6251 39.9188 24.6714L40.0212 25.1909C40.2334 26.2371 40.2042 27.2029 39.9334 28.1029C39.67 29.0028 39.1871 29.7491 38.4993 30.3564C37.8042 30.9637 36.97 31.3661 35.9895 31.5636L32.5139 32.2587L32.5212 32.2514ZM32.9529 22.4398L34.4529 29.932L35.5725 29.7052C36.4798 29.5223 37.109 29.0906 37.4676 28.4029C37.8261 27.7151 37.8993 26.8225 37.6871 25.7177L37.57 25.125C37.3432 23.9836 36.9334 23.1715 36.3407 22.674C35.7481 22.1837 35.0017 22.0228 34.0871 22.2057L32.9456 22.4325L32.9529 22.4398Z" fill="white"/>
<path d="M52.7515 24.2618L48.2442 24.6715L48.5222 27.7225L53.8125 27.2396L53.9808 29.1273L46.3418 29.8224L45.3027 18.4231L52.9271 17.7354L53.1027 19.6377L47.8271 20.1206L48.0759 22.835L52.5832 22.4253L52.7515 24.2618Z" fill="white"/>
<path d="M61.3258 27.1082L66.3307 27.0863V28.9813L58.977 29.0179L58.9258 17.5674H61.2819L61.3258 27.1082Z" fill="white"/>
<path d="M79.1804 20.5737L75.6902 20.2298L74.7536 29.7195L72.4048 29.4853L73.3414 19.9957L69.9023 19.6592L70.0926 17.7568L79.3706 18.6714L79.1804 20.5737Z" fill="white"/>
<path d="M88.9695 29.6615L84.9231 28.8274L83.6792 30.9784L81.2207 30.4736L87.7036 20.1206L89.8475 20.5596L91.7353 32.632L89.2768 32.1271L88.9768 29.6541L88.9695 29.6615ZM85.9256 27.086L88.728 27.664L88.1792 23.1789L85.9256 27.086Z" fill="white"/>
</g>
</g>
<path fill-rule="evenodd" clip-rule="evenodd" d="M60.9902 59.3228L43.9316 69.1716V88.8691L60.9902 98.7178L78.0487 88.8691V69.1716L60.9902 59.3228ZM79.9999 68.0451L60.9902 57.0698L41.9805 68.0451V89.9956L60.9902 100.971L79.9999 89.9956V68.0451Z" fill="white"/>
<path fill-rule="evenodd" clip-rule="evenodd" d="M41.9805 68.0525L60.6172 78.0446L79.9999 68.0522V68.0451L60.9902 57.0698L41.9805 68.0451V68.0525Z" fill="white" fill-opacity="0.4"/>
<path d="M60.9901 67.3135L71.1287 73.1669V84.8739L60.9901 90.7274L50.8516 84.8739V73.1669L60.9901 67.3135Z" fill="white" fill-opacity="0.91"/>
<path d="M60.9908 79.63L50.8691 84.8738L60.9908 90.7272L71.1124 84.8738V73.1668L60.9908 67.1914V79.63Z" fill="#D9D9D9" style="mix-blend-mode:multiply"/>
<path fill-rule="evenodd" clip-rule="evenodd" d="M121 0H1V115.61V115.61H1.00085L60.9998 146.342V115.61H61.0002V146.342L120.999 115.61H121V115.61V0Z" fill="#1F8DF2"/>
<path fill-rule="evenodd" clip-rule="evenodd" d="M121 0H1V115.61V115.61H1.00085L60.9998 146.342V115.61H61.0002V146.342L120.999 115.61H121V115.61V0Z" fill="url(#paint1_angular_166_15987)" style="mix-blend-mode:multiply"/>
<path opacity="0.16" fill-rule="evenodd" clip-rule="evenodd" d="M61.1975 112.177V112.02H61.1966V112.178L41.6714 117.805L61.1972 105.365L80.7228 117.804L61.1975 112.177ZM61.1975 123.728V139.093L113.347 112.294L61.1975 123.728ZM113.88 112.02H113.88V112.02L113.88 112.02H113.88V68.1177H113.88V112.02ZM9.04726 112.294L61.1966 123.728V139.093L9.04726 112.294ZM8.51431 68.1177V112.02L8.5142 112.02L8.51367 112.02H8.5142V68.1177H8.51431Z" fill="white"/>
<g clip-path="url(#clip2_166_15987)">
<path d="M46.2883 46.1216H43.7494L43.7652 43.9993H46.2883C46.8123 43.9993 47.2551 43.8736 47.6166 43.6221C47.9834 43.3705 48.2612 42.9959 48.4498 42.4981C48.6437 41.995 48.7406 41.3767 48.7406 40.6431V40.1479C48.7406 39.5977 48.6856 39.1156 48.5756 38.7016C48.4708 38.2824 48.3136 37.9339 48.104 37.6562C47.8944 37.3732 47.6324 37.161 47.318 37.0195C47.0088 36.878 46.6525 36.8073 46.249 36.8073H43.7023V34.6772H46.249C47.0245 34.6772 47.7345 34.8108 48.3791 35.0781C49.0288 35.3401 49.5895 35.7174 50.0611 36.2099C50.538 36.6973 50.9048 37.2763 51.1616 37.947C51.4236 38.6125 51.5546 39.3514 51.5546 40.1636V40.6431C51.5546 41.45 51.4236 42.1889 51.1616 42.8596C50.9048 43.5304 50.5406 44.1094 50.069 44.5967C49.5974 45.084 49.0393 45.4613 48.3948 45.7286C47.7555 45.9906 47.0533 46.1216 46.2883 46.1216ZM45.3293 34.6772V46.1216H42.5704V34.6772H45.3293ZM60.8893 37.0824L58.0989 46.1216H55.1357L59.3408 34.6772H61.2194L60.8893 37.0824ZM63.2002 46.1216L60.402 37.0824L60.0404 34.6772H61.9426L66.1713 46.1216H63.2002ZM63.0901 41.8535V43.9836H57.2186V41.8535H63.0901ZM79.7427 40.1714V40.6352C79.7427 41.5103 79.6195 42.2963 79.3732 42.9932C79.1322 43.6849 78.789 44.2771 78.3435 44.7696C77.8981 45.257 77.3715 45.6316 76.7637 45.8936C76.1558 46.1504 75.4851 46.2788 74.7515 46.2788C74.0126 46.2788 73.3366 46.1504 72.7235 45.8936C72.1157 45.6316 71.5864 45.257 71.1358 44.7696C70.6904 44.2771 70.3445 43.6849 70.0982 42.9932C69.8572 42.2963 69.7367 41.5103 69.7367 40.6352V40.1714C69.7367 39.2964 69.8572 38.5103 70.0982 37.8134C70.3445 37.1165 70.6878 36.5243 71.1279 36.037C71.5733 35.5444 72.1 35.1698 72.7078 34.913C73.3209 34.651 73.9969 34.52 74.7357 34.52C75.4694 34.52 76.1401 34.651 76.7479 34.913C77.361 35.1698 77.8903 35.5444 78.3357 36.037C78.7811 36.5243 79.1269 37.1165 79.3732 37.8134C79.6195 38.5103 79.7427 39.2964 79.7427 40.1714ZM76.9444 40.6352V40.1557C76.9444 39.5898 76.8947 39.092 76.7951 38.6623C76.7008 38.2274 76.5593 37.8632 76.3706 37.5697C76.182 37.2763 75.9488 37.0562 75.6711 36.9095C75.3986 36.7575 75.0868 36.6815 74.7357 36.6815C74.3689 36.6815 74.0493 36.7575 73.7768 36.9095C73.5043 37.0562 73.2764 37.2763 73.093 37.5697C72.9096 37.8632 72.7707 38.2274 72.6764 38.6623C72.5873 39.092 72.5428 39.5898 72.5428 40.1557V40.6352C72.5428 41.1959 72.5873 41.6937 72.6764 42.1286C72.7707 42.5583 72.9096 42.9225 73.093 43.2212C73.2816 43.5199 73.5122 43.7452 73.7847 43.8972C74.0624 44.0491 74.3846 44.1251 74.7515 44.1251C75.1025 44.1251 75.4143 44.0491 75.6868 43.8972C75.9593 43.7452 76.1872 43.5199 76.3706 43.2212C76.5593 42.9225 76.7008 42.5583 76.7951 42.1286C76.8947 41.6937 76.9444 41.1959 76.9444 40.6352Z" fill="white"/>
<g clip-path="url(#clip3_166_15987)">
<path d="M32.5212 32.2532L30.2676 21.0361L33.7212 20.3409C34.709 20.1434 35.631 20.1873 36.5017 20.48C37.3725 20.7653 38.1042 21.2775 38.7042 22.0092C39.3042 22.741 39.7139 23.6263 39.9188 24.6727L40.0212 25.1922C40.2334 26.2385 40.2042 27.2044 39.9334 28.1044C39.67 29.0044 39.1871 29.7507 38.4993 30.3581C37.8042 30.9654 36.97 31.3678 35.9895 31.5654L32.5139 32.2605L32.5212 32.2532ZM32.9529 22.441L34.4529 29.9337L35.5725 29.7068C36.4798 29.5239 37.109 29.0922 37.4676 28.4044C37.8261 27.7166 37.8993 26.8239 37.6871 25.719L37.57 25.1263C37.3432 23.9849 36.9334 23.1727 36.3407 22.6751C35.7481 22.1849 35.0017 22.0239 34.0871 22.2068L32.9456 22.4336L32.9529 22.441Z" fill="white"/>
<path d="M52.7535 24.2627L48.2462 24.6725L48.5242 27.7237L53.8144 27.2408L53.9827 29.1286L46.3437 29.8237L45.3047 18.4236L52.9291 17.7358L53.1047 19.6383L47.8291 20.1212L48.0779 22.8359L52.5852 22.4261L52.7535 24.2627Z" fill="white"/>
<path d="M61.3277 27.1089L66.3326 27.0869V28.9821L58.979 29.0186L58.9277 17.5674H61.2838L61.3277 27.1089Z" fill="white"/>
<path d="M79.1843 20.5749L75.6941 20.231L74.7575 29.7213L72.4087 29.4871L73.3453 19.9968L69.9062 19.6603L70.0965 17.7578L79.3745 18.6724L79.1843 20.5749Z" fill="white"/>
<path d="M88.9734 29.6631L84.927 28.8289L83.6831 30.9802L81.2246 30.4753L87.7075 20.1216L89.8514 20.5606L91.7392 32.6338L89.2807 32.1289L88.9807 29.6558L88.9734 29.6631ZM85.9295 27.0875L88.7319 27.6655L88.1831 23.1801L85.9295 27.0875Z" fill="white"/>
</g>
</g>
<path d="M52.9817 85.89C52.9052 85.9079 52.8268 85.9205 52.7503 85.9349C54.6811 84.662 56.8068 83.9368 59.0837 83.6872C67.5719 82.7537 75.2277 88.292 76.8179 96.5537C76.827 96.5968 76.8343 96.6399 76.8416 96.6847C76.9072 97.0492 77.2277 97.3167 77.6048 97.3167H79.2478C79.8252 97.3167 80.1986 96.717 79.94 96.209L70.7523 78.1902L61.6921 60.4209C61.4061 59.859 60.5938 59.859 60.3078 60.4209L51.2458 78.1884L42.0581 96.2072C41.7995 96.7152 42.1729 97.3149 42.7503 97.3149H45.284C45.5663 97.3149 45.825 97.1623 45.9616 96.9181C47.2093 94.6866 49.4789 93.105 52.2549 92.7747C55.5955 92.3762 58.7631 94.1678 60.3242 96.9253C60.4608 97.1659 60.7176 97.3149 60.9981 97.3149H61.6302C62.2076 97.3149 62.5828 96.7135 62.3224 96.2054C61.5519 94.701 60.3752 93.4264 58.7868 92.3995C54.8214 89.8359 49.6665 90.3817 46.2822 93.658C46.182 93.7549 46.0782 93.8501 45.9762 93.947C46.9999 91.2793 48.805 89.3063 51.437 88.1466C58.8251 84.8954 67.2076 89.2381 68.9891 96.7242C69.071 97.0707 69.3825 97.3167 69.7432 97.3167H69.8415C70.3443 97.3167 70.7104 96.8517 70.5956 96.3706C68.7869 88.8431 61.0837 83.9008 52.9799 85.8918L52.9817 85.89Z" fill="white"/>
<defs>
<radialGradient id="paint0_angular_166_15987" cx="0" cy="0" r="1" gradientUnits="userSpaceOnUse" gradientTransform="translate(60.994 74.2639) rotate(90) scale(71.3372 60.0038)">
<stop stop-color="#00B2FF" stop-opacity="0.4"/>
<stop offset="1" stop-color="#00B2FF" stop-opacity="0"/>
</radialGradient>
<radialGradient id="paint1_angular_166_15987" cx="0" cy="0" r="1" gradientUnits="userSpaceOnUse" gradientTransform="translate(61 74.2684) rotate(90) scale(71.3415 60)">
<stop stop-color="#1F8DF2" stop-opacity="0.4"/>
<stop offset="1" stop-color="#1F8DF2" stop-opacity="0"/>
</radialGradient>
<clipPath id="clip0_166_15987">
<rect width="105.366" height="35.1197" fill="white" transform="translate(8.31445 14.6333)"/>
</clipPath>
<clipPath id="clip1_166_15987">
<rect width="61.4634" height="15.0795" fill="white" transform="translate(30.2656 17.5605)"/>
</clipPath>
<clipPath id="clip2_166_15987">
<rect width="105.366" height="35.1221" fill="white" transform="translate(8.31641 14.6338)"/>
</clipPath>
<clipPath id="clip3_166_15987">
<rect width="61.4634" height="15.0805" fill="white" transform="translate(30.2676 17.5601)"/>
</clipPath>
</defs>
</svg>
