<svg width="44" height="32" viewBox="0 0 44 32" fill="none" xmlns="http://www.w3.org/2000/svg">
<g clip-path="url(#clip0_8767_5751)">
<g clip-path="url(#clip1_8767_5751)">
<g clip-path="url(#clip2_8767_5751)">
<path d="M41.6248 15.2775C41.9272 15.452 41.9283 15.7347 41.6281 15.9085L22.9364 26.7712C22.6368 26.9457 22.1485 26.9457 21.8469 26.7712L3.03273 15.9092C2.73117 15.7347 2.72922 15.452 3.02949 15.2782L21.7211 4.41542C22.0214 4.24099 22.5091 4.24099 22.8106 4.41542L41.6248 15.2782L41.6248 15.2775Z" fill="white"/>
<path d="M33.3393 11.0726L33.3253 15.2242L22.4616 8.95075L22.4757 4.79909L33.3393 11.0726Z" fill="white"/>
<path d="M22.4757 4.79909L22.4616 8.95075L11.6685 15.2242L11.6756 11.0726L22.4757 4.79909Z" fill="white"/>
<path d="M22.5463 17.346L22.5321 21.4968L11.6685 15.2242L11.6756 11.0726L22.5463 17.346Z" fill="white"/>
<path d="M33.3393 11.0726L33.325 15.2242L22.5321 21.4968L22.5463 17.346L33.3393 11.0726Z" fill="white"/>
<path d="M15.159 8.05687L22.1903 4.2002L22.444 4.82066L11.6786 11.0745L15.159 8.05687Z" fill="white"/>
<path d="M22.2493 4.2002L29.2403 8.12736L33.339 11.0745L22.5032 4.82066L22.2493 4.2002Z" fill="white"/>
<path d="M17.666 16.4836L17.6589 16.6524L13.5073 14.2557V14.0852L17.666 16.4836Z" fill="white"/>
<path d="M18.5077 15.9883V16.1573L17.6589 16.6524L17.666 16.4836L18.5077 15.9883Z" fill="white"/>
<path d="M18.5006 15.9944L17.659 16.4832L13.5002 14.0708L14.3419 13.5834L18.5006 15.9944Z" fill="white"/>
<path d="M15.4876 20.2888V20.4585L11.3288 18.0609V17.8904L15.4876 20.2888Z" fill="white"/>
<path d="M16.3363 19.7995V19.9699L15.4875 20.4579V20.2882L16.3363 19.7995Z" fill="white"/>
<path d="M16.3292 19.8073L15.4805 20.2946L11.3218 17.8766L12.1634 17.3886L16.3292 19.8073Z" fill="white"/>
<path d="M16.209 19.0213V19.1918L12.0573 16.7934V16.6244L16.209 19.0213Z" fill="white"/>
<path d="M17.0576 18.5265V18.6968L16.209 19.1918V19.0213L17.0576 18.5265Z" fill="white"/>
<path d="M17.0507 18.5343L16.202 19.0216L12.0432 16.6104L12.8919 16.1217L17.0507 18.5343Z" fill="white"/>
<path d="M16.9375 17.7484V17.9253L12.7858 15.5205V15.3514L16.9375 17.7484Z" fill="white"/>
<path d="M17.7861 17.261V17.43L16.9375 17.9253V17.7484L17.7861 17.261Z" fill="white"/>
<path d="M17.7792 17.2675L16.9304 17.7562L12.7717 15.3372L13.6204 14.8485L17.7792 17.2675Z" fill="white"/>
<path d="M21.8469 26.7674L3.03272 15.9055V15.9092C3.02235 15.9033 3.01262 15.8969 3.00289 15.891C2.99965 15.8891 2.99705 15.8872 2.99381 15.8846L2.975 15.8716L2.96528 15.8638C2.96009 15.86 2.9549 15.8555 2.94971 15.8515L2.93998 15.8437C2.93479 15.8399 2.93026 15.8354 2.92572 15.8313C2.92247 15.8283 2.91923 15.8257 2.91599 15.8223L2.91015 15.8164C2.90561 15.8119 2.90172 15.8081 2.89783 15.8036L2.89329 15.7989C2.8881 15.7932 2.88291 15.7873 2.87837 15.7816C2.87773 15.7802 2.87643 15.779 2.87578 15.7783C2.87254 15.7738 2.86865 15.7691 2.8654 15.7646C2.85957 15.7568 2.85438 15.7485 2.84919 15.7399C2.84465 15.7309 2.84011 15.7231 2.83622 15.7153L2.83233 15.7075C2.82974 15.7018 2.82714 15.6959 2.8252 15.6907C2.8239 15.6881 2.82325 15.6855 2.82195 15.6822C2.81936 15.6758 2.81741 15.6694 2.81612 15.6628C2.81612 15.6609 2.81482 15.6597 2.81482 15.6575C2.81287 15.6493 2.81093 15.6407 2.80963 15.6325C2.80963 15.6303 2.80963 15.6277 2.80898 15.6258L2.80704 15.6071V15.5915L2.80444 16.5493V16.5649C2.80444 16.5713 2.80574 16.5772 2.80639 16.5838C2.80639 16.5857 2.80639 16.5883 2.80704 16.5902C2.80833 16.5988 2.81028 16.6071 2.81223 16.6156V16.6168C2.81223 16.6168 2.81352 16.6194 2.81352 16.6213L2.81936 16.6409C2.82001 16.6433 2.8213 16.6459 2.8226 16.6492C2.82455 16.6551 2.82714 16.6608 2.82974 16.666L2.83168 16.6712L2.83298 16.6738C2.83687 16.6816 2.84141 16.6902 2.84595 16.698C2.85114 16.707 2.85632 16.7148 2.86216 16.7231L2.86411 16.7257C2.8667 16.7297 2.86994 16.7328 2.87254 16.7368L2.87513 16.7401C2.87967 16.7458 2.88486 16.7517 2.89005 16.7576C2.89135 16.7588 2.89264 16.7607 2.89459 16.7621C2.89848 16.7666 2.90302 16.7711 2.90756 16.7749L2.91339 16.7809L2.91793 16.7854C2.91988 16.7875 2.92183 16.7887 2.92377 16.7898C2.92831 16.7946 2.93285 16.7984 2.93804 16.8024C2.94128 16.8048 2.94452 16.8074 2.94777 16.81C2.95295 16.814 2.95814 16.8185 2.96333 16.8223C2.96657 16.8249 2.96982 16.8275 2.97306 16.8296C2.9789 16.8341 2.98538 16.8379 2.99186 16.8424C2.99511 16.8445 2.9977 16.8464 3.00095 16.8483C3.01067 16.8547 3.0204 16.8606 3.03078 16.8666V16.8625L21.845 27.7247L21.8476 26.7667L21.8469 26.7674Z" fill="#7246EE" class="dao-color-fill"/>
<path d="M22.8637 27.7648C22.8676 27.7629 22.8721 27.761 22.876 27.7591L22.8955 27.7491C22.8987 27.7472 22.9019 27.7461 22.9052 27.7442C22.9149 27.739 22.924 27.7337 22.9337 27.7285L22.9363 26.7707C22.9272 26.7757 22.9175 26.7809 22.9078 26.7861C22.9045 26.788 22.9013 26.7894 22.8981 26.7906C22.8916 26.794 22.8851 26.7973 22.878 26.8006C22.8741 26.8025 22.8702 26.8044 22.8656 26.8056C22.8598 26.8082 22.8533 26.8115 22.8475 26.8141C22.8429 26.816 22.8384 26.8179 22.8338 26.8193C22.828 26.8219 22.8222 26.8238 22.8163 26.8264C22.8014 26.8323 22.7859 26.8375 22.7696 26.8427C22.7664 26.8439 22.7632 26.8446 22.7593 26.8458C22.7437 26.851 22.7275 26.8555 22.7119 26.8595L22.7029 26.8614C22.6918 26.864 22.6801 26.8674 22.6691 26.87C22.6646 26.8704 22.6607 26.8719 22.6562 26.8726C22.6438 26.8749 22.6315 26.8775 22.6198 26.8797C22.6173 26.8797 22.6153 26.8801 22.6127 26.8808C22.5991 26.8835 22.5848 26.8854 22.5712 26.8875C22.5673 26.8875 22.5634 26.888 22.5602 26.8887C22.5498 26.8898 22.5394 26.8913 22.5291 26.8925C22.5245 26.8925 22.5193 26.8932 22.5148 26.8939C22.5044 26.8946 22.494 26.8958 22.4836 26.8965C22.4798 26.8965 22.4752 26.8965 22.4713 26.8972C22.4571 26.8977 22.4428 26.8984 22.4285 26.8991H22.3695C22.3578 26.8991 22.3462 26.8991 22.3345 26.8977H22.3235C22.3066 26.8972 22.2897 26.8958 22.2729 26.8939C22.269 26.8939 22.2657 26.8932 22.2619 26.8925C22.2456 26.8906 22.2294 26.8894 22.2132 26.8868H22.21C22.1963 26.8842 22.1827 26.8823 22.1698 26.8801C22.1659 26.8797 22.162 26.879 22.1581 26.8782C22.1484 26.8764 22.1393 26.8749 22.1296 26.8726C22.125 26.8711 22.1198 26.8704 22.1153 26.8692L22.0893 26.8633C22.0848 26.8621 22.0803 26.8607 22.0751 26.8603L22.0478 26.8524C22.044 26.851 22.0407 26.8503 22.0368 26.8491C22.0219 26.8446 22.007 26.8401 21.9921 26.8349C21.9888 26.8335 21.9856 26.8323 21.9817 26.8309C21.9681 26.8264 21.9551 26.8212 21.9421 26.8155L21.937 26.8134C21.9227 26.8077 21.9091 26.8011 21.8954 26.7947C21.8922 26.7932 21.889 26.7914 21.8857 26.7902C21.8727 26.7835 21.8598 26.7764 21.8468 26.7693H21.8449L21.8423 27.7259H21.8436C21.8559 27.7345 21.8695 27.7408 21.8825 27.7472C21.8857 27.7487 21.889 27.7506 21.8922 27.7517C21.9058 27.7584 21.9194 27.7648 21.9337 27.7707L21.9389 27.7726C21.9519 27.7778 21.9648 27.783 21.9785 27.7882C21.9817 27.7894 21.9849 27.7908 21.9888 27.792C22.0037 27.7972 22.0187 27.8017 22.0336 27.8064H22.0355C22.0355 27.8064 22.0413 27.8088 22.044 27.8095L22.0712 27.8173C22.0757 27.8188 22.0803 27.8199 22.0855 27.8206C22.0939 27.8225 22.103 27.8244 22.1114 27.8263C22.1159 27.8277 22.1205 27.8285 22.1257 27.8296C22.1354 27.8315 22.1445 27.8337 22.1542 27.8356L22.1659 27.8375C22.1795 27.8401 22.1925 27.842 22.2061 27.8438H22.2093C22.2255 27.8465 22.2418 27.8486 22.258 27.8498C22.2619 27.8498 22.2651 27.8505 22.269 27.8512C22.2859 27.8524 22.3027 27.8536 22.3196 27.855H22.3306C22.3423 27.855 22.354 27.8557 22.3656 27.8562H22.4246C22.4389 27.8562 22.4532 27.855 22.4674 27.8543C22.4713 27.8543 22.4759 27.8543 22.4798 27.8536C22.4901 27.8531 22.5005 27.8524 22.5109 27.8512H22.5187C22.5206 27.8512 22.5232 27.851 22.5251 27.8505C22.5355 27.8491 22.5465 27.8479 22.5569 27.8464C22.5608 27.8464 22.5647 27.846 22.568 27.8453C22.5822 27.8434 22.5958 27.8412 22.6095 27.8386H22.6108C22.6108 27.8386 22.6146 27.8375 22.6166 27.8375C22.6289 27.8356 22.6412 27.833 22.6536 27.8304C22.6581 27.8296 22.662 27.8285 22.6665 27.8277C22.6782 27.8251 22.6892 27.8225 22.7002 27.8192C22.7022 27.8192 22.7048 27.818 22.7074 27.8173H22.7093C22.7255 27.8128 22.7411 27.8076 22.7567 27.8031C22.7599 27.8017 22.7632 27.8012 22.767 27.7998C22.7826 27.7946 22.7982 27.7894 22.8137 27.7837H22.8144C22.8202 27.7811 22.8254 27.779 22.8306 27.7766C22.8351 27.7745 22.8397 27.7726 22.8442 27.7707C22.8501 27.7681 22.8565 27.7655 22.8624 27.7622L22.8637 27.7648Z" fill="#7246EE" class="dao-color-fill"/>
<path d="M24.4543 8.86837L23.6615 9.32366L20.0443 7.25609L20.8371 6.79443L24.4543 8.86837Z" fill="#7246EE" class="dao-color-fill"/>
<path d="M22.3923 26.9717C22.1821 26.9717 21.9717 26.9252 21.8112 26.8323L2.99712 15.9703C2.82763 15.8722 2.73432 15.7377 2.73432 15.5915C2.73432 15.4465 2.82647 15.3131 2.99377 15.2162L21.6853 4.35357C22.01 4.16489 22.5201 4.16454 22.8462 4.35346L41.6603 15.2155C41.8298 15.3136 41.9232 15.4479 41.9232 15.5941C41.9235 15.7391 41.8312 15.8725 41.6636 15.9696L22.972 26.8323C22.8125 26.9252 22.6025 26.9717 22.3923 26.9717ZM22.2652 4.35438C22.0808 4.35438 21.8968 4.39508 21.7568 4.47636L3.0651 15.3393C2.94336 15.4096 2.8763 15.4993 2.87641 15.5915C2.87641 15.685 2.94451 15.7756 3.06822 15.8473L21.8823 26.7092C22.164 26.8723 22.6205 26.8723 22.9006 26.7095L41.5923 15.8466C41.7142 15.7761 41.7812 15.6863 41.7812 15.5941C41.7812 15.5071 41.7218 15.4223 41.6131 15.3531L22.775 4.47647C22.6344 4.39508 22.4497 4.35438 22.2652 4.35438Z" fill="#7246EE" class="dao-color-fill"/>
<path d="M41.6277 15.9088L22.9362 26.7717L22.9678 27.7904L41.6251 16.8668C41.7743 16.7799 41.9234 16.667 41.9234 16.5536V15.5958C41.9234 15.7092 41.7764 15.8226 41.6277 15.9088Z" fill="#7246EE" class="dao-color-fill"/>
<path d="M21.8095 27.786L2.99851 16.9256L2.99527 16.9277C2.98348 16.921 2.9725 16.9143 2.96151 16.9071L2.97446 16.8662H2.96452L2.94486 16.8962L2.90382 16.8655C2.88567 16.8511 2.87861 16.8454 2.87168 16.8377L2.86486 16.8322C2.85468 16.8229 2.84763 16.816 2.84185 16.8093L2.83965 16.8074L2.83988 16.807L2.83977 16.8068L2.84011 16.8065L2.87503 16.7397L2.82046 16.7852L2.80889 16.7605L2.80427 16.764C2.7971 16.7538 2.79074 16.7443 2.78438 16.7332C2.77895 16.7237 2.77352 16.7136 2.76901 16.7043L2.76693 16.6951L2.76519 16.6958C2.76196 16.6891 2.75814 16.6803 2.75502 16.6708L2.74115 16.6164C2.74022 16.6204 2.73849 16.6118 2.73687 16.6012L2.73536 16.5834C2.73421 16.5794 2.7334 16.5721 2.7334 16.5644L2.73594 15.5909L2.87792 15.5912L2.87942 15.6157C2.88058 15.6231 2.88058 15.6288 2.88058 15.6321L2.89688 15.6779L2.87769 15.695V15.7169L2.91272 15.7079C2.91376 15.7091 2.91758 15.7156 2.92197 15.7211L2.93318 15.7364C2.93087 15.7334 2.93295 15.7352 2.93596 15.7394L2.94648 15.7516L2.90682 15.8129L2.96093 15.7667L2.92243 15.8279L2.974 15.7789L3.02996 15.8229L3.01793 15.8744L3.03215 15.8656L3.0503 15.8365L3.0651 15.8455L3.06811 15.8437L21.8823 26.7056L21.8589 26.7463L21.9185 26.7665L21.916 27.7247L21.8095 27.786ZM3.06626 16.8007L21.7742 27.6017L21.7764 26.8085L2.9999 15.9683L2.99677 15.9701L2.97527 15.9572C2.96036 15.9482 2.95469 15.9443 2.94752 15.938L2.89364 15.8971C2.89168 15.8962 2.88532 15.8904 2.87931 15.8848L2.87723 15.8827L2.87538 16.5492L2.80462 16.569L2.87595 16.5674L2.88139 16.5993L2.87907 16.6L2.87977 16.6026L2.88197 16.6019L2.87988 16.603L2.88451 16.6208H2.84323L2.81722 16.6336L2.88752 16.6206L2.89642 16.6426L2.89688 16.6423L2.90752 16.6622C2.91145 16.6689 2.91549 16.6752 2.91989 16.6812L2.9237 16.6867L2.9222 16.6884L2.92902 16.7096L2.93827 16.7045L2.97573 16.7411L2.93804 16.8021L2.99168 16.7536L2.95353 16.8141L3.00602 16.7654L2.97295 16.8292L3.02267 16.7774L3.04036 16.7887C3.04776 16.7938 3.05516 16.7982 3.06302 16.8028L3.06626 16.8007ZM2.98383 16.8368L2.96764 16.8613L2.97805 16.8548L2.98383 16.8368ZM2.89075 16.7226L2.87503 16.7397L2.90578 16.7226H2.89075Z" fill="#7246EE" class="dao-color-fill"/>
<path d="M22.4246 27.9268L22.2632 27.9215C22.2346 27.9189 22.2165 27.9166 22.1983 27.9136L22.1245 27.9016L22.1067 27.8979L22.0502 27.8849L22.0248 27.8775L21.9119 27.8378C21.8911 27.8297 21.876 27.8225 21.8608 27.8151L21.8446 27.8075C21.8306 27.8005 21.8163 27.7931 21.8031 27.7841L21.8142 27.7679L21.7712 27.7254L21.7739 26.7688L21.8449 26.698L21.88 26.7063L21.9184 26.7267C21.9423 26.7378 21.9522 26.7426 21.9626 26.7468C21.9816 26.7549 21.9923 26.7593 22.0034 26.763L22.0487 26.778L22.0478 26.852L22.0668 26.7836L22.0751 26.8599L22.1051 26.7935L22.1022 26.8659L22.0859 26.935L22.0815 26.8608L22.0662 26.9302L22.0242 26.9191L22.0368 26.8488L22.007 26.914C21.994 26.91 21.9812 26.9059 21.9682 26.9013C21.9451 26.8934 21.9301 26.8874 21.9156 26.8809L21.9133 27.6828C21.9373 27.6944 21.9485 27.6997 21.9602 27.7043L22.119 27.755L22.1389 27.7594L22.1665 27.7652L22.2095 27.7723C22.2345 27.7756 22.2487 27.7774 22.2629 27.7786L22.2813 27.7806L22.36 27.7843L22.3791 27.7848L22.4706 27.783C22.4849 27.7818 22.4931 27.7813 22.5014 27.7802L22.5569 27.7751C22.5717 27.7728 22.584 27.7707 22.5965 27.7684L22.6166 27.7661C22.6166 27.7651 22.6272 27.7631 22.6381 27.7605L22.6559 27.7571C22.6608 27.7559 22.6698 27.754 22.6786 27.751L22.7371 27.7344L22.8178 27.7043L22.834 27.7087L22.8303 27.7016L22.8427 27.6958L22.8626 27.7166L22.8649 26.883C22.8603 26.8848 22.8573 26.886 22.8541 26.8869C22.8254 26.8987 22.8085 26.9045 22.791 26.91C22.7644 26.9186 22.747 26.9232 22.7304 26.9279L22.4883 26.9672L22.3831 26.9697C22.355 26.9697 22.3405 26.9695 22.3261 26.9679C22.3024 26.9679 22.2832 26.9662 22.2641 26.9639L22.2455 26.8904L22.2384 26.9609C22.2264 26.9598 22.2143 26.9586 22.2021 26.9568L22.1131 26.9413L22.1022 26.8659L22.1305 26.7995L22.1662 26.8072L22.1801 26.8814L22.1909 26.8111L22.2741 26.822C22.2961 26.8247 22.3107 26.8259 22.3254 26.8263C22.3517 26.8277 22.3604 26.8277 22.3694 26.8277L22.51 26.8224C22.5118 26.822 22.521 26.821 22.529 26.821L22.6869 26.7919C22.7077 26.7868 22.7227 26.7826 22.7373 26.778C22.7632 26.7699 22.7773 26.7651 22.7909 26.7597L22.8358 26.7406L22.8652 26.7819L22.8703 26.7702L22.8603 26.7297L22.8948 26.7119L23.0072 26.7706L22.9678 27.7904L22.9403 27.8056L22.9003 27.8257L22.8959 27.8241L22.837 27.8484L22.8377 27.8502L22.7216 27.8866C22.7086 27.8905 22.6955 27.8937 22.6818 27.8967C22.655 27.9023 22.6411 27.9053 22.6272 27.9074L22.6094 27.9092C22.6076 27.9108 22.5925 27.9134 22.5768 27.9155L22.5569 27.9171L22.5345 27.9205C22.5329 27.9212 22.5242 27.9217 22.5186 27.9217C22.5077 27.9229 22.4953 27.9235 22.4828 27.9242L22.4594 27.9256C22.4478 27.9261 22.4362 27.9268 22.4246 27.9268Z" fill="#7246EE" class="dao-color-fill"/>
<path d="M17.1772 11.9703L22.5048 9.01048L29.8451 13.1542L22.5459 17.2979L15.2829 13.1542L17.1772 11.9703Z" fill="#7246EE" class="dao-color-fill"/>
<path d="M29.6344 13.1746L22.426 9.01186L22.3905 8.95012L22.3916 8.60003L22.5333 8.70631L22.5327 8.90943L29.7777 13.0932L29.6344 13.1746Z" fill="#7246EE" class="dao-color-fill"/>
<path d="M33.3925 11.0416L33.3748 11.0106L22.511 4.73728L22.4046 4.79855L22.395 7.6186L22.5367 7.70364L22.5461 4.92157L33.2672 11.1127L33.3925 11.0416Z" fill="#7246EE" class="dao-color-fill"/>
<path d="M15.3626 13.1587L22.497 9.01163L22.5324 8.95047L22.5333 8.69428L22.3914 8.63121L22.3904 8.90931L15.2223 13.076L15.3626 13.1587Z" fill="#7246EE" class="dao-color-fill"/>
<path d="M11.8206 11.0699L22.404 4.92238L22.3946 7.67328L22.5365 7.75209L22.5465 4.7989L22.4397 4.73728L11.6802 10.987L11.8206 11.0699Z" fill="#7246EE" class="dao-color-fill"/>
<path d="M22.4965 21.5579L11.6329 15.2855L11.5974 15.2237L11.6044 11.0719L11.7109 11.0106L22.5817 17.2843L22.6171 17.346L22.603 21.4966L22.4965 21.5579ZM11.7395 15.183L22.4613 21.3736L22.4749 17.3867L11.7463 11.1949L11.7395 15.183Z" fill="#7246EE" class="dao-color-fill"/>
<path d="M22.5676 21.5579L22.461 21.4962L22.4751 17.3455L22.5104 17.2842L33.3035 11.0106L33.4101 11.0724L33.396 15.2242L33.3607 15.2855L22.5676 21.5579ZM22.6171 17.3867L22.6034 21.3727L33.254 15.183L33.2677 11.1959L22.6171 17.3867Z" fill="#7246EE" class="dao-color-fill"/>
<path d="M21.9733 9.93815C21.5223 9.6801 21.1068 9.63431 20.801 9.80843L20.7855 9.81745L20.7131 9.69536C20.7188 9.69189 20.7244 9.68865 20.7301 9.68518L21.1735 9.42597C21.5409 9.21855 22.0127 9.26168 22.5039 9.54598L22.5041 9.66876L22.0444 9.93769L21.9733 9.93815ZM21.2216 9.5624C21.4634 9.56402 21.7303 9.64194 22.0079 9.79456L22.3236 9.6098C21.9182 9.40481 21.5386 9.38273 21.2442 9.54899L21.2216 9.5624Z" fill="#7246EE" class="dao-color-fill"/>
<path d="M23.289 14.1321L23.2176 14.0093L23.2178 14.0091L23.218 14.0088L23.2243 14.0054C23.526 13.8268 23.6988 13.4388 23.6988 12.9389C23.6988 11.8378 22.9216 10.4948 21.9663 9.94489L21.9658 9.82211L22.4255 9.55341L22.4969 9.55318C23.4914 10.1296 24.3005 11.5279 24.3005 12.67C24.3005 13.234 24.1046 13.6578 23.7487 13.8631L23.2969 14.1274L23.289 14.1321ZM22.1403 9.88454C23.0869 10.4913 23.8408 11.8325 23.8408 12.9389C23.8408 13.2578 23.7746 13.5369 23.6516 13.7552L23.6775 13.7401C23.9876 13.5612 24.1585 13.181 24.1585 12.67C24.1585 11.5867 23.4003 10.2633 22.4611 9.69701L22.1403 9.88454Z" fill="#7246EE" class="dao-color-fill"/>
<path d="M23.7132 13.8017L23.2535 14.0705C23.5718 13.8866 23.7698 13.4905 23.7698 12.9388C23.7698 11.8143 22.9848 10.4493 22.0016 9.88344L22.4614 9.61469C23.4374 10.1805 24.2295 11.5526 24.2295 12.6701C24.2295 13.2288 24.0315 13.6178 23.7132 13.8017Z" fill="#7246EE" class="dao-color-fill"/>
<path d="M11.7142 11.1357L11.632 11.0206L15.1248 7.9942L21.9443 4.25371L22.2936 4.21971V4.26494L22.5331 4.8507L22.4796 4.88168L11.7142 11.1357ZM15.1997 8.11514L12.2941 10.6344L22.3547 4.78988L22.1763 4.35357H22.0731L22.0209 4.37383L15.1997 8.11514Z" fill="#7246EE" class="dao-color-fill"/>
<path d="M23.6613 9.40519L23.6262 9.38496L19.9022 7.25634L20.8368 6.71201L24.5969 8.86804L23.6613 9.40519ZM20.1863 7.25518L23.6613 9.24148L24.3115 8.86804L20.8373 6.87619L20.1863 7.25518Z" fill="#7246EE" class="dao-color-fill"/>
<path d="M33.3033 11.1357L22.4466 4.86966L22.3003 4.21235L29.275 8.06508L33.3803 11.0167L33.3033 11.1357ZM22.5597 4.77092L32.1444 10.3028L29.1989 8.18474L22.3922 4.36164L22.5597 4.77092Z" fill="#7246EE" class="dao-color-fill"/>
<path d="M17.6233 16.7136L13.4717 14.3168L13.4362 14.2553V14.0849L13.5426 14.0234L17.7014 16.4217L17.7369 16.4863L17.7298 16.6551L17.6233 16.7136ZM13.5781 14.2144L17.5927 16.5318L17.5932 16.5233L13.5781 14.2079V14.2144Z" fill="#7246EE" class="dao-color-fill"/>
<path d="M17.6947 16.7133L17.6233 16.7136L17.5949 16.48L17.6299 16.4217L18.5361 15.9327L18.5786 15.988V16.157L18.5434 16.2183L17.6947 16.7133ZM17.7353 16.5246V16.5253L18.4366 16.1121L17.7353 16.5246Z" fill="#7246EE" class="dao-color-fill"/>
<path d="M17.6232 16.5443L13.4362 14.0849L13.4645 14.0091L14.3062 13.5216H14.3774L18.5361 15.9327V16.0557L17.6945 16.5443L17.6232 16.5443ZM13.6417 14.0706L17.6588 16.4007L18.359 15.9942L14.3418 13.6652L13.6417 14.0706Z" fill="#7246EE" class="dao-color-fill"/>
<path d="M15.4519 20.5197L11.2932 18.122L11.2577 18.0605V17.8901L11.286 17.8147L15.5229 20.2269L15.5584 20.2884V20.4582L15.4519 20.5197ZM11.3997 18.0196L15.4165 20.3352V20.3294L11.3997 18.0131V18.0196Z" fill="#7246EE" class="dao-color-fill"/>
<path d="M15.5228 20.5192L15.4519 20.5197L15.4165 20.288L15.4519 20.2265L16.3647 19.7455L16.4072 19.7991V19.9698L16.3716 20.0313L15.5228 20.5192ZM15.5584 20.3291V20.3349L16.2652 19.9219L15.5584 20.3291Z" fill="#7246EE" class="dao-color-fill"/>
<path d="M15.5158 20.3557H15.4447L11.2859 17.9377L11.286 17.8147L12.1277 17.3268H12.199L16.3647 19.7455L16.3645 19.8685L15.5158 20.3557ZM11.4632 17.8762L15.4806 20.2121L16.187 19.8065L12.1633 17.4704L11.4632 17.8762Z" fill="#7246EE" class="dao-color-fill"/>
<path d="M16.1734 19.2532L12.0217 16.8548L11.9862 16.7933V16.6241L12.0927 16.5626L16.2444 18.9595L16.2799 19.021V19.1917L16.1734 19.2532ZM12.1282 16.7524L16.1379 19.0687V19.062L12.1282 16.7471V16.7524Z" fill="#7246EE" class="dao-color-fill"/>
<path d="M16.2446 19.253L16.1734 19.2532L16.1378 19.021L16.173 18.9598L17.0862 18.4723L17.1285 18.5262V18.6966L17.0934 18.7579L16.2446 19.253ZM16.2798 19.0617V19.068L16.9865 18.6499L16.2798 19.0617Z" fill="#7246EE" class="dao-color-fill"/>
<path d="M16.2372 19.0826H16.1662L11.9862 16.6241L12.0076 16.5485L12.8563 16.0599H12.9275L17.0862 18.4723L17.086 18.5953L16.2372 19.0826ZM12.1851 16.6102L16.2021 18.939L16.9085 18.5336L12.8917 16.2035L12.1851 16.6102Z" fill="#7246EE" class="dao-color-fill"/>
<path d="M16.9018 17.9865L12.7501 15.5819L12.7147 15.5204V15.3511L12.8212 15.2896L16.9729 17.6866L17.0084 17.7481V17.925L16.9018 17.9865ZM12.8567 15.4795L16.8664 17.8018V17.789L12.8567 15.4742V15.4795Z" fill="#7246EE" class="dao-color-fill"/>
<path d="M16.9731 17.986L16.9018 17.9865L16.8663 17.7479L16.9019 17.6864L17.8148 17.2059L17.857 17.2607V17.4297L17.8219 17.491L16.9731 17.986ZM17.0083 17.789V17.8011L17.715 17.3834L17.0083 17.789Z" fill="#7246EE" class="dao-color-fill"/>
<path d="M16.9658 17.8175H16.8946L12.7147 15.3511L12.7361 15.2755L13.5848 14.7867H13.6561L17.8148 17.2059L17.8146 17.3289L16.9658 17.8175ZM12.9135 15.3373L16.9306 17.6739L17.6372 17.2671L13.6201 14.9303L12.9135 15.3373Z" fill="#7246EE" class="dao-color-fill"/>
<path d="M20.8936 6.7941H20.7516V7.70192H20.8936V6.7941Z" fill="#7246EE" class="dao-color-fill"/>
<path d="M22.9678 27.7904L22.9362 26.7717L41.6277 15.9088C41.7764 15.8226 41.9234 15.7092 41.9234 15.5958V16.5536C41.9234 16.667 41.7743 16.7799 41.6251 16.8668L22.9678 27.7904ZM22.9678 27.7904L23.0071 26.7706L22.8948 26.7119L22.8603 26.7297L22.8703 26.7702L22.8652 26.7819L22.8358 26.7406L22.7909 26.7597C22.7773 26.7651 22.7632 26.7699 22.7373 26.778C22.7227 26.7826 22.7077 26.7868 22.6869 26.7919L22.529 26.821C22.521 26.821 22.5118 26.822 22.51 26.8224L22.3694 26.8277C22.3604 26.8277 22.3517 26.8277 22.3254 26.8263C22.3107 26.8259 22.2961 26.8247 22.2741 26.822L22.1909 26.8111L22.1801 26.8814L22.1662 26.8072L22.1305 26.7995L22.1022 26.8659M22.9678 27.7904L22.9403 27.8056L22.9003 27.8257L22.8959 27.8241L22.837 27.8484L22.8377 27.8502L22.7216 27.8866C22.7086 27.8905 22.6955 27.8937 22.6818 27.8967C22.655 27.9023 22.6411 27.9053 22.6272 27.9074L22.6094 27.9092C22.6076 27.9108 22.5925 27.9134 22.5768 27.9155L22.5569 27.9171L22.5345 27.9205C22.5329 27.9212 22.5242 27.9217 22.5186 27.9217C22.5077 27.9229 22.4953 27.9235 22.4828 27.9242L22.4594 27.9256C22.4478 27.9261 22.4362 27.9268 22.4246 27.9268L22.2632 27.9215C22.2346 27.9189 22.2165 27.9166 22.1983 27.9136L22.1245 27.9016L22.1067 27.8979L22.0502 27.8849L22.0248 27.8775L21.9119 27.8378C21.8911 27.8297 21.876 27.8225 21.8608 27.8151L21.8446 27.8075C21.8306 27.8005 21.8163 27.7931 21.8031 27.7841L21.8142 27.7679L21.7712 27.7254L21.7739 26.7688L21.8449 26.698L21.88 26.7063L21.9184 26.7267C21.9423 26.7378 21.9522 26.7426 21.9626 26.7468C21.9816 26.7549 21.9923 26.7593 22.0034 26.763L22.0487 26.778L22.0478 26.852L22.0668 26.7836L22.0751 26.8599L22.1051 26.7935L22.1022 26.8659M2.87503 16.7397L2.84011 16.8065L2.83977 16.8068L2.83988 16.807L2.83965 16.8074L2.84185 16.8093C2.84763 16.816 2.85468 16.8229 2.86486 16.8322L2.87168 16.8377C2.87861 16.8454 2.88567 16.8511 2.90382 16.8655L2.94486 16.8962L2.96452 16.8662H2.97446L2.96151 16.9071C2.9725 16.9143 2.98348 16.921 2.99527 16.9277L2.99851 16.9256L21.8095 27.786L21.916 27.7247L21.9185 26.7665L21.8589 26.7463L21.8823 26.7056L3.06811 15.8437L3.0651 15.8455L3.0503 15.8365L3.03215 15.8656L3.01793 15.8744L3.02996 15.8229L2.974 15.7789L2.92243 15.8279L2.96093 15.7667L2.90682 15.8129L2.94648 15.7516L2.93596 15.7394C2.93295 15.7352 2.93087 15.7334 2.93318 15.7364L2.92197 15.7211C2.91758 15.7156 2.91376 15.7091 2.91272 15.7079L2.87769 15.7169V15.695L2.89688 15.6779L2.88058 15.6321C2.88058 15.6288 2.88058 15.6231 2.87942 15.6157L2.87792 15.5912L2.73594 15.5909L2.7334 16.5644C2.7334 16.572 2.73421 16.5794 2.73536 16.5834L2.73687 16.6012C2.73849 16.6118 2.74022 16.6204 2.74115 16.6164L2.75502 16.6708C2.75814 16.6803 2.76196 16.6891 2.76519 16.6958L2.76693 16.6951L2.76901 16.7043C2.77352 16.7136 2.77895 16.7237 2.78438 16.7332C2.79074 16.7443 2.7971 16.7538 2.80427 16.764L2.80889 16.7605L2.82046 16.7852L2.87503 16.7397ZM2.87503 16.7397L2.89075 16.7226H2.90578L2.87503 16.7397ZM22.1022 26.8659L22.0859 26.935L22.0815 26.8608L22.0662 26.9302L22.0242 26.9191L22.0368 26.8488L22.007 26.914C21.994 26.91 21.9812 26.9059 21.9682 26.9013C21.9451 26.8934 21.9301 26.8874 21.9156 26.8809L21.9133 27.6828C21.9374 27.6944 21.9485 27.6997 21.9602 27.7043L22.119 27.755L22.1389 27.7594L22.1665 27.7651L22.2095 27.7723C22.2345 27.7756 22.2487 27.7774 22.2629 27.7786L22.2813 27.7806L22.36 27.7843L22.3791 27.7848L22.4706 27.783C22.4849 27.7818 22.4931 27.7813 22.5014 27.7802L22.5569 27.7751C22.5717 27.7728 22.584 27.7707 22.5965 27.7684L22.6166 27.7661C22.6166 27.7651 22.6272 27.7631 22.6381 27.7605L22.6559 27.7571C22.6608 27.7559 22.6698 27.754 22.6786 27.751L22.7371 27.7344L22.8178 27.7043L22.834 27.7087L22.8303 27.7016L22.8427 27.6958L22.8626 27.7166L22.8649 26.883C22.8603 26.8848 22.8573 26.886 22.8541 26.8869C22.8254 26.8987 22.8085 26.9045 22.7909 26.91C22.7644 26.9186 22.747 26.9232 22.7304 26.9279L22.4883 26.9672L22.3831 26.9697C22.355 26.9697 22.3405 26.9695 22.3261 26.9679C22.3024 26.9679 22.2832 26.9662 22.2641 26.9639L22.2455 26.8904L22.2384 26.9609C22.2264 26.9598 22.2143 26.9586 22.2021 26.9568L22.1131 26.9413L22.1022 26.8659ZM17.6233 16.7136L13.4717 14.3168L13.4362 14.2553V14.0849M17.6233 16.7136L17.7298 16.6551L17.7369 16.4863L17.7014 16.4217L13.5426 14.0234L13.4362 14.0849M17.6233 16.7136L17.6947 16.7133L18.5434 16.2183L18.5786 16.157V15.988L18.5361 15.9327M17.6233 16.7136L17.5949 16.48L17.6299 16.4217L18.5361 15.9327M13.4362 14.0849L17.6232 16.5443L17.6945 16.5443L18.5361 16.0557V15.9327M13.4362 14.0849L13.4645 14.0091L14.3062 13.5216H14.3774L18.5361 15.9327M15.4519 20.5197L11.2932 18.122L11.2577 18.0605V17.8901L11.286 17.8147M15.4519 20.5197L15.5584 20.4582V20.2884L15.5229 20.2269L11.286 17.8147M15.4519 20.5197L15.5228 20.5192L16.3716 20.0313L16.4072 19.9698V19.7991L16.3647 19.7455M15.4519 20.5197L15.4165 20.288L15.4519 20.2265L16.3647 19.7455M11.286 17.8147L11.2859 17.9377L15.4447 20.3557H15.5158L16.3645 19.8685L16.3647 19.7455M11.286 17.8147L12.1277 17.3268H12.199L16.3647 19.7455M16.1734 19.2532L12.0217 16.8548L11.9862 16.7933V16.6241M16.1734 19.2532L16.2799 19.1917V19.021L16.2444 18.9595L12.0927 16.5626L11.9862 16.6241M16.1734 19.2532L16.2446 19.253L17.0934 18.7579L17.1285 18.6966V18.5262L17.0862 18.4723M16.1734 19.2532L16.1378 19.021L16.173 18.9598L17.0862 18.4723M11.9862 16.6241L16.1662 19.0826H16.2372L17.086 18.5953L17.0862 18.4723M11.9862 16.6241L12.0076 16.5485L12.8563 16.0599H12.9275L17.0862 18.4723M16.9018 17.9865L12.7501 15.5819L12.7147 15.5204V15.3511M16.9018 17.9865L17.0084 17.925V17.7481L16.9729 17.6866L12.8212 15.2896L12.7147 15.3511M16.9018 17.9865L16.9731 17.986L17.8219 17.491L17.857 17.4297V17.2607L17.8148 17.2059M16.9018 17.9865L16.8663 17.7479L16.9019 17.6864L17.8148 17.2059M12.7147 15.3511L16.8946 17.8175H16.9658L17.8146 17.3289L17.8148 17.2059M12.7147 15.3511L12.7361 15.2755L13.5848 14.7867H13.6561L17.8148 17.2059M22.3923 26.9717C22.1821 26.9717 21.9717 26.9252 21.8112 26.8323L2.99712 15.9703C2.82763 15.8722 2.73432 15.7377 2.73432 15.5915C2.73432 15.4465 2.82647 15.3131 2.99377 15.2162L21.6853 4.35357C22.01 4.16489 22.5201 4.16454 22.8462 4.35346L41.6603 15.2155C41.8298 15.3136 41.9232 15.4479 41.9232 15.5941C41.9235 15.7391 41.8312 15.8725 41.6636 15.9696L22.972 26.8323C22.8125 26.9252 22.6025 26.9717 22.3923 26.9717ZM22.2652 4.35438C22.0808 4.35438 21.8968 4.39508 21.7568 4.47636L3.0651 15.3393C2.94336 15.4096 2.8763 15.4993 2.87641 15.5915C2.87641 15.685 2.94451 15.7756 3.06822 15.8473L21.8823 26.7092C22.164 26.8723 22.6205 26.8723 22.9006 26.7095L41.5923 15.8466C41.7142 15.7761 41.7812 15.6863 41.7812 15.5941C41.7812 15.5071 41.7218 15.4223 41.6131 15.3531L22.775 4.47647C22.6344 4.39508 22.4497 4.35438 22.2652 4.35438ZM3.06626 16.8007L21.7742 27.6017L21.7764 26.8085L2.9999 15.9683L2.99677 15.9701L2.97527 15.9572C2.96036 15.9482 2.95469 15.9442 2.94752 15.938L2.89364 15.8971C2.89168 15.8962 2.88532 15.8904 2.87931 15.8848L2.87723 15.8827L2.87538 16.5492L2.80462 16.569L2.87595 16.5674L2.88139 16.5993L2.87907 16.6L2.87977 16.6026L2.88197 16.6019L2.87988 16.603L2.88451 16.6208H2.84323L2.81722 16.6336L2.88752 16.6206L2.89642 16.6426L2.89688 16.6423L2.90752 16.6622C2.91145 16.6689 2.91549 16.6752 2.91989 16.6812L2.9237 16.6867L2.9222 16.6884L2.92902 16.7096L2.93827 16.7045L2.97573 16.7411L2.93804 16.8021L2.99168 16.7536L2.95353 16.8141L3.00602 16.7654L2.97295 16.8292L3.02267 16.7774L3.04036 16.7887C3.04776 16.7938 3.05516 16.7982 3.06302 16.8028L3.06626 16.8007ZM2.98383 16.8368L2.96764 16.8613L2.97805 16.8548L2.98383 16.8368ZM17.1772 11.9703L22.5048 9.01048L29.8451 13.1542L22.5459 17.2979L15.2829 13.1542L17.1772 11.9703ZM22.426 9.01186L29.6344 13.1746L29.7777 13.0932L22.5327 8.90943L22.5333 8.70631L22.3916 8.60003L22.3905 8.95012L22.426 9.01186ZM33.3925 11.0416L33.3748 11.0106L22.511 4.73728L22.4046 4.79855L22.395 7.6186L22.5367 7.70364L22.5461 4.92157L33.2672 11.1127L33.3925 11.0416ZM15.3626 13.1587L22.497 9.01163L22.5324 8.95047L22.5333 8.69428L22.3914 8.63121L22.3904 8.90931L15.2223 13.076L15.3626 13.1587ZM11.8206 11.0699L22.404 4.92238L22.3946 7.67328L22.5365 7.75209L22.5465 4.7989L22.4397 4.73728L11.6802 10.987L11.8206 11.0699ZM22.4965 21.5579L11.6329 15.2855L11.5974 15.2237L11.6044 11.0719L11.7109 11.0106L22.5817 17.2842L22.6171 17.346L22.603 21.4966L22.4965 21.5579ZM11.7395 15.183L22.4613 21.3736L22.4749 17.3867L11.7463 11.1949L11.7395 15.183ZM22.5676 21.5579L22.461 21.4962L22.4751 17.3455L22.5104 17.2842L33.3035 11.0106L33.4101 11.0724L33.396 15.2242L33.3607 15.2855L22.5676 21.5579ZM22.6171 17.3867L22.6034 21.3727L33.254 15.183L33.2677 11.1959L22.6171 17.3867ZM21.9733 9.93815C21.5223 9.6801 21.1068 9.63431 20.801 9.80843L20.7855 9.81745L20.7131 9.69536C20.7188 9.69189 20.7244 9.68865 20.7301 9.68518L21.1735 9.42597C21.5409 9.21855 22.0127 9.26168 22.5039 9.54598L22.5041 9.66876L22.0444 9.93769L21.9733 9.93815ZM21.2216 9.5624C21.4634 9.56402 21.7303 9.64194 22.0079 9.79456L22.3236 9.6098C21.9182 9.40481 21.5386 9.38273 21.2442 9.54899L21.2216 9.5624ZM23.289 14.1321L23.2176 14.0093L23.2178 14.0091L23.218 14.0088L23.2243 14.0054C23.526 13.8268 23.6988 13.4388 23.6988 12.9389C23.6988 11.8378 22.9216 10.4948 21.9663 9.94489L21.9658 9.82211L22.4255 9.55341L22.4969 9.55318C23.4914 10.1296 24.3005 11.5279 24.3005 12.67C24.3005 13.234 24.1046 13.6578 23.7487 13.8631L23.2969 14.1274L23.289 14.1321ZM22.1403 9.88454C23.0869 10.4913 23.8408 11.8325 23.8408 12.9389C23.8408 13.2578 23.7746 13.5369 23.6516 13.7552L23.6775 13.7401C23.9876 13.5612 24.1585 13.181 24.1585 12.67C24.1585 11.5867 23.4003 10.2633 22.4611 9.69701L22.1403 9.88454ZM23.7132 13.8017L23.2535 14.0705C23.5718 13.8866 23.7698 13.4905 23.7698 12.9388C23.7698 11.8143 22.9848 10.4493 22.0016 9.88344L22.4614 9.61469C23.4374 10.1805 24.2295 11.5526 24.2295 12.6701C24.2295 13.2288 24.0315 13.6178 23.7132 13.8017ZM11.7142 11.1357L11.632 11.0206L15.1248 7.9942L21.9443 4.25371L22.2936 4.21971V4.26494L22.5331 4.8507L22.4796 4.88168L11.7142 11.1357ZM15.1997 8.11514L12.2941 10.6344L22.3547 4.78988L22.1763 4.35357H22.0731L22.0209 4.37383L15.1997 8.11514ZM23.6613 9.40519L23.6262 9.38496L19.9022 7.25634L20.8368 6.71201L24.5969 8.86804L23.6613 9.40519ZM20.1863 7.25518L23.6613 9.24148L24.3115 8.86804L20.8373 6.87619L20.1863 7.25518ZM33.3033 11.1357L22.4466 4.86966L22.3003 4.21235L29.275 8.06508L33.3803 11.0167L33.3033 11.1357ZM22.5597 4.77092L32.1444 10.3028L29.1989 8.18474L22.3922 4.36164L22.5597 4.77092ZM13.5781 14.2144L17.5927 16.5318L17.5932 16.5233L13.5781 14.2079V14.2144ZM17.7353 16.5246V16.5253L18.4366 16.1121L17.7353 16.5246ZM13.6417 14.0706L17.6588 16.4007L18.359 15.9942L14.3418 13.6652L13.6417 14.0706ZM11.3997 18.0196L15.4165 20.3352V20.3294L11.3997 18.0131V18.0196ZM15.5584 20.3291V20.3349L16.2652 19.9219L15.5584 20.3291ZM11.4632 17.8762L15.4806 20.2121L16.187 19.8065L12.1633 17.4704L11.4632 17.8762ZM12.1282 16.7524L16.1379 19.0687V19.062L12.1282 16.7471V16.7524ZM16.2798 19.0617V19.068L16.9865 18.6499L16.2798 19.0617ZM12.1851 16.6102L16.2021 18.939L16.9085 18.5336L12.8917 16.2035L12.1851 16.6102ZM12.8567 15.4795L16.8664 17.8018V17.789L12.8567 15.4742V15.4795ZM17.0083 17.789V17.8011L17.715 17.3834L17.0083 17.789ZM12.9135 15.3373L16.9306 17.6739L17.6372 17.2671L13.6201 14.9303L12.9135 15.3373ZM20.7516 6.7941H20.8936V7.70192H20.7516V6.7941Z" stroke="#7246EE" stroke-width="0.1"/>
<path d="M22.0087 9.87663L22.4684 9.60786C21.9804 9.32495 21.5348 9.30374 21.2095 9.48762L20.7989 9.72765C20.4515 9.9 20.2334 10.3043 20.2334 10.888C20.2334 12.0055 21.0185 13.3776 21.9945 13.9434C22.609 14.2997 23.1534 14.2494 23.4724 13.8843L23.6846 13.7602C23.6559 13.7768 23.6262 13.7917 23.5957 13.8048L23.6846 13.7528C23.6764 13.757 23.6678 13.7614 23.6591 13.7659C23.6229 13.7845 23.583 13.8051 23.5432 13.8165L23.5136 13.8338L23.514 13.8333L23.5432 13.8162C23.5358 13.8191 23.5281 13.8221 23.5202 13.825C23.6786 13.6118 23.7697 13.3094 23.7697 12.932C23.7768 11.8145 22.9847 10.4425 22.0087 9.87663Z" fill="white"/>
<path d="M22.5737 17.3708C22.5614 17.3708 22.5494 17.3678 22.5383 17.3613L11.6431 11.1104C11.6231 11.099 11.6099 11.0787 11.6077 11.0556C11.6055 11.0327 11.6147 11.0103 11.632 10.9952L15.1099 8.04115C15.1329 8.02138 15.166 8.01849 15.1918 8.03329L22.3478 12.0541C22.369 12.0661 22.3824 12.0883 22.3834 12.1128L22.6446 17.297C22.6456 17.3227 22.6326 17.3472 22.6104 17.3606C22.5991 17.3673 22.5864 17.3708 22.5737 17.3708ZM11.8008 11.0371L22.4976 17.1743L22.2431 12.1577L15.1647 8.18163L11.8008 11.0371Z" fill="#7246EE" class="dao-color-fill"/>
<path d="M22.5749 17.3701C22.5631 17.3701 22.5513 17.3673 22.5407 17.3613C22.5189 17.3493 22.505 17.3269 22.5039 17.3019L22.2431 12.1577C22.242 12.1315 22.2554 12.1068 22.2781 12.0936L29.1755 8.05961C29.1998 8.04551 29.2299 8.04678 29.2532 8.0632L33.3804 10.9879C33.3999 11.002 33.411 11.0249 33.4098 11.0489C33.4086 11.073 33.3952 11.0949 33.3744 11.1069L22.6104 17.3606C22.5996 17.3669 22.5873 17.3701 22.5749 17.3701ZM22.3868 12.1947L22.638 17.1657L33.2082 11.039L29.2077 8.20564L22.3868 12.1947Z" fill="#7246EE" class="dao-color-fill"/>
<path d="M21.9734 9.93801C21.5224 9.67995 21.1068 9.63417 20.801 9.80829L20.7855 9.81731L20.7132 9.69521C20.7188 9.69175 20.7245 9.68851 20.7302 9.68504L21.1736 9.42583C21.541 9.21841 22.0128 9.26153 22.504 9.54584L22.5042 9.66862L22.0445 9.93755L21.9734 9.93801ZM21.2217 9.56225C21.4635 9.56387 21.7304 9.6418 22.008 9.79441L22.3237 9.60966C21.9182 9.40467 21.5387 9.38259 21.2443 9.54884L21.2217 9.56225Z" fill="#7246EE" class="dao-color-fill"/>
<path d="M23.2891 14.1319L23.2177 14.0091L23.2179 14.0089L23.2181 14.0087L23.2244 14.0052C23.5261 13.8267 23.6989 13.4387 23.6989 12.9388C23.6989 11.8376 22.9217 10.4946 21.9663 9.94475L21.9659 9.82196L22.4256 9.55327L22.497 9.55304C23.4914 10.1295 24.3005 11.5278 24.3005 12.6698C24.3005 13.2338 24.1047 13.6577 23.7488 13.863L23.297 14.1273L23.2891 14.1319ZM22.1403 9.8844C23.087 10.4912 23.8408 11.8323 23.8408 12.9388C23.8408 13.2576 23.7747 13.5367 23.6517 13.755L23.6776 13.74C23.9877 13.561 24.1586 13.1809 24.1586 12.6698C24.1586 11.5865 23.4003 10.2632 22.4612 9.69687L22.1403 9.8844Z" fill="#7246EE" class="dao-color-fill"/>
<path d="M22.7862 14.2575C22.5304 14.2575 22.2488 14.1726 21.9588 14.0045C20.9682 13.4301 20.1624 12.0318 20.1624 10.8875C20.1624 10.3216 20.3593 9.89662 20.7169 9.69059C21.0767 9.48248 21.5483 9.5271 22.0442 9.81453C23.0422 10.3931 23.848 11.7916 23.8406 12.932C23.8406 13.4974 23.6436 13.9224 23.2861 14.1284C23.1365 14.2147 22.9679 14.2575 22.7862 14.2575ZM21.2171 9.704C21.0599 9.704 20.9152 9.7403 20.7879 9.8136C20.476 9.99327 20.3044 10.3746 20.3044 10.8875C20.3044 11.9867 21.0785 13.33 22.03 13.8815C22.4798 14.1423 22.9011 14.1867 23.2151 14.0054C23.5268 13.8257 23.6986 13.4444 23.6986 12.9316C23.7056 11.8362 22.9314 10.4932 21.9729 9.93754C21.7053 9.78239 21.4479 9.704 21.2171 9.704Z" fill="#7246EE" class="dao-color-fill"/>
<path d="M22.5681 13.8743C22.3582 13.8743 22.1267 13.8044 21.8881 13.6659C21.0807 13.1974 20.424 12.0593 20.424 11.1291C20.424 10.6624 20.5854 10.3126 20.8785 10.1438C21.1726 9.97405 21.559 10.0108 21.966 10.2467C22.7735 10.7082 23.4304 11.8466 23.4304 12.784C23.4304 13.2506 23.269 13.6005 22.976 13.7693C22.8542 13.8394 22.7166 13.8743 22.5681 13.8743ZM21.2869 10.1808C21.1629 10.1808 21.0492 10.2094 20.9494 10.2668C20.7022 10.4092 20.566 10.7154 20.566 11.1291C20.566 12.0142 21.191 13.0971 21.9593 13.5429C22.3209 13.7526 22.6565 13.7894 22.9053 13.646C23.1522 13.5038 23.2884 13.1977 23.2884 12.784C23.2884 11.8919 22.6636 10.809 21.8955 10.3702L21.8951 10.3699C21.6788 10.2444 21.4716 10.1808 21.2869 10.1808Z" fill="#7246EE" class="dao-color-fill"/>
<path d="M22.6104 17.3606C22.6326 17.3472 22.6456 17.3227 22.6446 17.297L22.3834 12.1128C22.3824 12.0883 22.369 12.0661 22.3478 12.0541L15.1918 8.03329C15.166 8.01849 15.1329 8.02138 15.1099 8.04115L11.632 10.9952C11.6147 11.0103 11.6055 11.0327 11.6077 11.0556C11.6099 11.0787 11.6231 11.099 11.6431 11.1104L22.5383 17.3613C22.5494 17.3678 22.5614 17.3708 22.5737 17.3708C22.5864 17.3708 22.5991 17.3673 22.6104 17.3606ZM22.6104 17.3606L33.3744 11.1069C33.3952 11.0949 33.4086 11.073 33.4098 11.0489C33.411 11.0249 33.3999 11.002 33.3804 10.9879L29.2532 8.0632C29.2299 8.04678 29.1998 8.04551 29.1755 8.05961L22.2781 12.0936C22.2554 12.1068 22.242 12.1315 22.2431 12.1577M22.6104 17.3606C22.5996 17.3669 22.5873 17.3701 22.5749 17.3701C22.5631 17.3701 22.5513 17.3673 22.5407 17.3613C22.5189 17.3493 22.505 17.3269 22.5039 17.3019L22.2431 12.1577M22.2431 12.1577L22.4976 17.1743L11.8008 11.0371L15.1647 8.18163L22.2431 12.1577ZM22.3868 12.1947L22.638 17.1657L33.2082 11.039L29.2077 8.20564L22.3868 12.1947ZM21.9734 9.93801C21.5224 9.67995 21.1068 9.63417 20.801 9.80829L20.7855 9.81731L20.7132 9.69521C20.7188 9.69175 20.7245 9.68851 20.7302 9.68504L21.1736 9.42583C21.541 9.21841 22.0128 9.26153 22.504 9.54584L22.5042 9.66862L22.0445 9.93755L21.9734 9.93801ZM21.2217 9.56225C21.4635 9.56387 21.7304 9.6418 22.008 9.79441L22.3237 9.60966C21.9182 9.40467 21.5387 9.38259 21.2443 9.54884L21.2217 9.56225ZM23.2891 14.1319L23.2177 14.0091L23.2179 14.0089L23.2181 14.0087L23.2244 14.0052C23.5261 13.8267 23.6989 13.4387 23.6989 12.9388C23.6989 11.8376 22.9217 10.4946 21.9663 9.94475L21.9659 9.82196L22.4256 9.55327L22.497 9.55304C23.4914 10.1295 24.3005 11.5278 24.3005 12.6698C24.3005 13.2338 24.1047 13.6577 23.7488 13.863L23.297 14.1273L23.2891 14.1319ZM22.1403 9.8844C23.087 10.4912 23.8408 11.8323 23.8408 12.9388C23.8408 13.2576 23.7747 13.5367 23.6517 13.755L23.6776 13.74C23.9877 13.561 24.1586 13.1809 24.1586 12.6698C24.1586 11.5865 23.4003 10.2632 22.4612 9.69687L22.1403 9.8844ZM22.7862 14.2575C22.5304 14.2575 22.2488 14.1726 21.9588 14.0045C20.9682 13.4301 20.1624 12.0318 20.1624 10.8875C20.1624 10.3216 20.3593 9.89662 20.7169 9.69059C21.0767 9.48248 21.5483 9.5271 22.0442 9.81453C23.0422 10.3931 23.848 11.7916 23.8406 12.932C23.8406 13.4974 23.6436 13.9224 23.2861 14.1284C23.1365 14.2147 22.9679 14.2575 22.7862 14.2575ZM21.2171 9.704C21.0599 9.704 20.9152 9.7403 20.7879 9.8136C20.476 9.99327 20.3044 10.3746 20.3044 10.8875C20.3044 11.9867 21.0785 13.33 22.03 13.8815C22.4798 14.1423 22.9011 14.1867 23.2151 14.0054C23.5268 13.8257 23.6986 13.4444 23.6986 12.9316C23.7056 11.8362 22.9314 10.4932 21.9729 9.93754C21.7053 9.78239 21.4479 9.704 21.2171 9.704ZM22.5681 13.8743C22.3582 13.8743 22.1267 13.8044 21.8881 13.6659C21.0807 13.1974 20.424 12.0593 20.424 11.1291C20.424 10.6624 20.5854 10.3126 20.8785 10.1438C21.1726 9.97405 21.559 10.0108 21.966 10.2467C22.7735 10.7082 23.4304 11.8466 23.4304 12.784C23.4304 13.2506 23.269 13.6005 22.976 13.7693C22.8542 13.8394 22.7166 13.8743 22.5681 13.8743ZM21.2869 10.1808C21.1629 10.1808 21.0492 10.2094 20.9494 10.2668C20.7022 10.4092 20.566 10.7154 20.566 11.1291C20.566 12.0142 21.191 13.0971 21.9593 13.5429C22.3209 13.7526 22.6565 13.7894 22.9053 13.646C23.1522 13.5038 23.2884 13.1977 23.2884 12.784C23.2884 11.8919 22.6636 10.809 21.8955 10.3702L21.8951 10.3699C21.6788 10.2444 21.4716 10.1808 21.2869 10.1808Z" stroke="#7246EE" stroke-width="0.1"/>
</g>
</g>
</g>
<defs>
<clipPath id="clip0_8767_5751">
<rect width="44" height="32" fill="white"/>
</clipPath>
<clipPath id="clip1_8767_5751">
<rect width="39.2" height="32" fill="white" transform="translate(2.7334)"/>
</clipPath>
<clipPath id="clip2_8767_5751">
<rect width="39.2" height="32" fill="white" transform="translate(2.7334)"/>
</clipPath>
</defs>
</svg>
