<svg width="1em" height="1em" viewBox="0 0 89 54" fill="none" xmlns="http://www.w3.org/2000/svg">
<g clip-path="url(#clip0_6135_140491)">
<path d="M84.7826 15.311C84.5886 14.9445 84.7396 14.4919 85.106 14.2979C85.4724 14.1039 85.925 14.2548 86.119 14.6212C86.3993 15.1817 88.9428 20.1825 88.5979 22.6182C88.3177 24.5151 86.6148 27.3603 85.882 28.5243C85.8604 28.589 85.8173 28.6752 85.7742 28.7399L85.5802 28.977C85.5802 28.977 85.5371 29.0632 85.5156 29.0632C85.5156 29.0632 85.5155 29.0632 85.494 29.0632L84.7826 29.9686C84.6102 30.2057 84.3085 30.2919 84.0498 30.2488C83.942 30.2272 83.8342 30.1841 83.7264 30.0979C83.4031 29.8392 83.3384 29.365 83.5971 29.0417L84.1576 28.3088C84.1576 28.3088 83.6402 27.8777 83.8558 27.619C83.9851 27.4466 84.373 27.4035 84.7395 27.4251C85.5801 26.0671 86.8735 23.7606 87.0675 22.3811C87.3046 20.7429 85.4723 16.7121 84.7395 15.2894L84.7826 15.311Z" fill="white" stroke="#1A1A1A" stroke-width="0.484559" stroke-miterlimit="10"/>
<path d="M79.0099 17.6606C79.0099 17.6606 81.381 15.3972 78.9668 13.6944C77.7166 12.8106 77.9106 11.8622 77.6088 9.27556C77.307 6.68893 80.6913 5.91291 81.8984 7.22778C83.0839 8.54265 82.2001 12.0777 82.2001 12.0777C82.2001 12.0777 82.2001 14.1255 85.1531 13.7806C87.3302 13.5219 79.0099 17.6606 79.0099 17.6606Z" fill="white" stroke="#1A1A1A" stroke-width="0.484559" stroke-miterlimit="10"/>
<path d="M80.689 13.1551C80.689 13.1551 83.1679 12.6378 82.5643 10.6978C81.9608 8.75784 78.749 8.82252 78.749 8.82252C78.749 8.82252 78.1886 12.5731 80.689 13.1551Z" fill="#1A1A1A" stroke="#1A1A1A" stroke-width="0.484559" stroke-miterlimit="10"/>
<path d="M87.6747 49.5182L88.7954 48.8715C89.205 48.6344 88.2351 46.6729 88.2351 46.6729C87.4591 46.1987 87.222 47.1687 86.5969 46.9963C84.5923 46.4143 83.4714 47.0825 83.4714 47.0825C83.0618 47.3196 83.1049 47.7291 83.5791 48.0093L86.0796 49.4536C86.5538 49.7338 87.2651 49.7553 87.6747 49.5182Z" fill="white"/>
<path d="M85.924 49.6912L83.4236 48.2469C83.1002 48.0529 82.9062 47.7728 82.9062 47.4926C82.9062 47.2339 83.0571 47.0183 83.3158 46.8674C83.3589 46.8459 84.566 46.1346 86.6568 46.7597C86.7862 46.8028 86.894 46.7597 87.088 46.5872C87.3466 46.3932 87.7562 46.113 88.3382 46.4579L88.4028 46.501L88.446 46.5656C89.1573 48.0098 89.3082 48.8721 88.8987 49.1092L87.7778 49.7558C87.5622 49.8852 87.2604 49.9498 86.9586 49.9498C86.5922 49.9498 86.2258 49.8636 85.924 49.6912Z" fill="white" stroke="#1A1A1A" stroke-width="0.484559" stroke-miterlimit="10"/>
<path d="M79.4559 51.0925L80.5767 50.4458C80.9862 50.2087 80.0164 48.2471 80.0164 48.2471C79.2404 47.7729 79.0032 48.743 78.3781 48.5705C76.3735 47.9885 75.2526 48.6567 75.2526 48.6567C74.8431 48.8938 74.8861 49.3034 75.3604 49.5836L77.8608 51.0278C78.3351 51.308 79.0464 51.3296 79.4559 51.0925Z" fill="white"/>
<path d="M77.7131 51.2654L75.2126 49.8212C74.8893 49.6272 74.6953 49.3469 74.6953 49.0667C74.6953 48.8081 74.8462 48.5925 75.1049 48.4417C75.148 48.4201 76.355 47.7087 78.4459 48.3338C78.5752 48.377 78.683 48.3339 78.877 48.1614C79.1357 47.9674 79.5453 47.6872 80.1273 48.0321L80.1919 48.0752L80.235 48.1399C80.9463 49.5841 81.0973 50.4462 80.6877 50.6834L79.5668 51.3301C79.3513 51.4594 79.0495 51.524 78.7477 51.524C78.3813 51.524 78.0149 51.4378 77.7131 51.2654Z" fill="white" stroke="#1A1A1A" stroke-width="0.484559" stroke-miterlimit="10"/>
<path d="M78.5294 49.9936C79.3485 49.9936 81.116 50.1445 80.8789 49.3469C80.8142 49.1314 80.685 40.6817 80.685 40.6817L81.5687 35.142L81.9567 37.2329C81.9567 39.9057 85.1037 46.0921 85.7288 47.8596C85.9444 48.4847 86.5264 48.8512 87.1515 48.8512C87.324 48.8512 87.4964 48.8296 87.6688 48.765C88.4448 48.4847 88.8543 47.6225 88.5741 46.8465C87.1946 42.9666 84.9744 38.8927 84.9744 37.2545C84.9744 35.724 85.5564 30.5508 85.9875 29.0634C85.9875 29.0634 86.4618 25.8733 86.4618 24.0842C86.4618 22.3167 78.7234 26.3906 78.7234 26.3906L77.3008 40.8757L78.5725 49.9936H78.5294Z" fill="white" stroke="#2E2E2E" stroke-width="0.484559" stroke-miterlimit="10"/>
<path d="M78.9657 17.3587C79.8064 16.2378 81.6817 13.8021 82.9104 13.8021H85.1521C85.1521 13.8021 85.1521 13.8668 85.1521 13.8883C85.1521 13.8452 85.1521 13.8021 85.1521 13.8021C85.5832 13.565 86.1221 13.8668 86.1221 14.3626V27.8992C86.1221 27.8992 86.1222 29.6667 82.4362 31.7792C78.7503 33.8916 78.082 29.6021 78.082 29.6021V18.8676C78.082 18.2425 78.5131 17.9622 78.9657 17.3587Z" fill="#1A1A1A"/>
<path d="M85.1521 13.8021H82.9104C81.6817 13.8021 79.8064 16.2378 78.9657 17.3587C78.5131 17.9622 78.082 18.2425 78.082 18.8676V29.6021C78.082 29.6021 78.7503 33.8916 82.4362 31.7792C86.1222 29.6667 86.1221 27.8992 86.1221 27.8992V14.3626C86.1221 13.8668 85.5832 13.565 85.1521 13.8021ZM85.1521 13.8021C85.1521 13.8021 85.1521 13.8668 85.1521 13.8883C85.1521 13.8452 85.1521 13.8021 85.1521 13.8021Z" stroke="#1A1A1A" stroke-width="0.484559" stroke-miterlimit="10"/>
<path d="M79.9566 11.2809C81.0128 11.906 82.7587 11.906 83.8149 11.2809C84.8711 10.6558 84.8711 9.66422 83.8149 9.06067C83.5778 8.93134 83.2976 8.82358 83.0174 8.73736C82.0043 8.47869 78.9651 8.45713 78.1244 8.93135C77.0682 9.55645 78.8788 10.6558 79.935 11.2809H79.9566Z" fill="#BFBFBF" stroke="#1A1A1A" stroke-width="0.484559" stroke-miterlimit="10"/>
<path d="M78.2882 9.85836C79.3445 10.4619 81.0689 10.4619 82.1251 9.85836C83.1814 9.25481 83.1814 7.05621 82.1251 6.45266C81.0689 5.84911 79.3445 5.84911 78.2882 6.45266C77.232 7.05621 77.232 9.25481 78.2882 9.85836Z" fill="#BFBFBF" stroke="#1A1A1A" stroke-width="0.484559" stroke-miterlimit="10"/>
<path d="M68.0575 22.6188C68.2515 22.2524 68.7258 22.123 69.0923 22.3386L69.8467 22.7697C69.8467 22.7697 69.9329 21.8644 70.364 22.0153C70.6226 22.1015 70.8382 22.7697 70.946 23.3733C72.886 24.3648 74.9984 24.9252 75.9468 24.1492C77.3264 23.0284 78.0592 19.6658 78.2317 18.4587C78.2963 18.0491 78.6627 17.7689 79.0938 17.812C79.5034 17.8767 79.7837 18.2431 79.7406 18.6742C79.6759 19.17 78.9861 23.6319 76.9168 25.3132C76.378 25.7443 75.6881 25.9168 74.9121 25.9168C72.541 25.9168 70.4286 24.7959 69.6742 24.3864C69.6742 24.3864 69.6742 24.3864 69.6526 24.3648L68.3809 23.6535C68.0145 23.4595 67.8851 22.9853 68.1007 22.6188H68.0575Z" fill="white" stroke="#1A1A1A" stroke-width="0.484559" stroke-miterlimit="10"/>
<path d="M18.4603 49.5781C18.236 49.6006 17.5631 49.6903 16.1726 49.8472C15.7016 49.8921 14.1766 50.1612 13.9523 50.2734C13.7504 50.4752 13.6383 50.7893 13.6832 51.1481C13.728 51.4621 13.8625 51.7312 14.0419 51.8209C14.2438 51.9779 14.67 52.2022 14.9167 52.1573C15.1185 52.1125 15.4325 51.8882 15.724 51.6863C15.9932 51.4845 16.2623 51.2826 16.5314 51.1705C16.6884 51.1032 16.9127 51.0808 17.1594 51.0359C17.3613 51.0135 17.6529 50.9687 17.7201 50.9238C18.2808 50.5874 18.6172 50.2285 18.6172 49.937C18.6172 49.7576 18.5051 49.6454 18.4154 49.5781H18.4603Z" fill="#BFBFBF" stroke="#1A1A1A" stroke-width="0.484559" stroke-miterlimit="10"/>
<path d="M10.7043 49.8925L10.8164 49.9599C11.0407 50.0944 11.4893 50.3635 11.8033 50.2963C11.9827 50.2514 12.1846 50.072 12.4089 49.8701C12.6331 49.6683 12.8798 49.444 13.1713 49.3094C13.3956 49.1973 13.62 49.0852 13.8218 48.973C14.7414 48.4348 15.0553 48.031 15.0553 47.8292C15.0553 47.8292 15.0554 47.7619 14.9432 47.6946C14.6292 47.5152 13.8218 47.5376 12.7901 48.0086C12.678 48.0534 12.4761 48.0983 11.9154 48.188C11.4893 48.2553 10.6819 48.3899 10.5249 48.4796C10.2782 48.7263 10.2558 49.0627 10.2782 49.2422C10.323 49.5337 10.48 49.8028 10.6819 49.9374L10.7043 49.8925Z" fill="#BFBFBF" stroke="#1A1A1A" stroke-width="0.484559" stroke-miterlimit="10"/>
<path d="M12.3388 24.124C12.3388 24.124 12.1369 24.124 12.0247 24.0567C11.8005 23.967 9.87168 23.0923 9.08671 22.2849C8.81757 21.9933 8.07752 21.2532 9.84931 13.381C9.93902 12.9549 10.3651 12.6858 10.7912 12.798C11.2174 12.8877 11.4865 13.3138 11.3744 13.7399C10.6791 16.7901 10.096 20.4682 10.2754 21.298C10.7689 21.7466 11.98 22.3746 12.6528 22.6662C13.0565 22.8456 13.2359 23.2941 13.0565 23.6978C12.9219 23.9894 12.6528 24.1689 12.3388 24.1689V24.124Z" fill="white" stroke="#1A1A1A" stroke-width="0.484559" stroke-miterlimit="10"/>
<path d="M11.5974 49.1963C10.947 49.1963 10.3863 48.6581 10.3863 48.0077L10.1172 33.5193C10.1172 32.8465 10.6331 32.2858 11.3059 32.2858C11.9563 32.2634 12.5394 32.8017 12.5394 33.4745L12.8086 47.9628C12.8086 48.6357 12.2926 49.1963 11.6198 49.1963H11.5974Z" fill="white" stroke="#2E2E2E" stroke-width="0.484559" stroke-miterlimit="10"/>
<path d="M14.8934 51.1031C14.8934 51.1031 14.8709 51.1031 14.8485 51.1031C14.1757 51.0806 13.6599 50.5199 13.6823 49.8471L14.2654 34.3271C14.2878 33.6543 14.8485 33.116 15.5213 33.1608C16.1941 33.1832 16.71 33.7439 16.6876 34.4168L16.1044 49.9368C16.082 50.5872 15.5438 51.1031 14.8934 51.1031Z" fill="white" stroke="#2E2E2E" stroke-width="0.484559" stroke-miterlimit="10"/>
<path d="M15.4415 37.87C14.9257 37.6682 14.2977 37.3317 13.4679 36.8607C9.65517 34.6404 9.65514 33.4742 9.65514 33.4742C7.5245 25.9609 10.9335 24.6601 10.9335 22.1257C10.9335 19.5914 9.65514 18.5597 9.65514 13.5135C9.65514 12.5715 10.4401 12.3247 11.0905 12.6836L12.2119 13.334C12.2119 13.334 12.0101 14.4778 13.0193 15.0609C14.0286 15.644 14.993 14.9488 14.993 14.9488L16.0471 15.5543C16.8097 16.0029 17.3031 16.8103 17.3031 17.7075C17.3031 20.2642 16.4508 21.1838 16.4508 23.0901C16.4508 26.4094 19.2095 26.1403 17.6171 36.0982C17.5723 36.3898 17.3031 38.5877 15.464 37.8027L15.4415 37.87Z" fill="#BFBFBF" stroke="#1A1A1A" stroke-width="0.484559" stroke-miterlimit="10"/>
<path d="M12.1775 13.3565C13.0746 12.2351 12.8504 11.4949 12.8504 11.4949C12.8504 11.4949 12.3794 9.38674 12.514 8.10836C12.6485 6.82997 13.6129 5.417 14.8913 5.70856C16.1697 6.00013 17.8743 6.24684 17.8743 8.37748C17.8743 14.0293 15.6315 13.3565 15.6315 13.3565L14.824 15.0161C14.824 15.0161 13.7476 16.9673 12.985 16.6982C12.2225 16.429 11.7289 13.9395 12.1775 13.3788V13.3565Z" fill="white" stroke="#1A1A1A" stroke-width="0.484559" stroke-miterlimit="10"/>
<path d="M17.91 6.98731C18.1567 8.26569 16.7886 9.58888 16.1382 10.5757C15.4877 11.5625 13.9178 13.2222 13.6038 15.0837C13.2898 16.9452 13.8506 21.5878 13.6936 22.5073C13.5366 23.4044 12.0338 25.1089 12.0338 25.1089C12.0338 25.1089 12.8637 22.5073 12.7964 21.4532C12.7516 20.3991 11.877 16.7883 11.877 15.1959C11.877 13.6035 12.8638 11.9887 12.8638 11.9887C12.8638 11.9887 11.877 9.70101 11.877 8.4002C11.877 7.09939 12.6843 5.30523 14.3664 5.10338C15.8018 4.92396 17.6857 6.02287 17.8876 7.00969L17.91 6.98731Z" fill="#1A1A1A" stroke="#1A1A1A" stroke-width="0.484559" stroke-miterlimit="10"/>
<path d="M23.7999 19.9056C23.5756 19.7262 23.2393 19.7711 23.0823 19.9954C23.0151 20.0851 22.858 20.2645 22.7459 20.3542C22.6786 20.3318 22.6112 20.3094 22.544 20.3094C22.4094 20.13 22.2076 19.7935 22.0057 19.9954C21.8712 20.1299 21.8039 20.3766 21.759 20.6682C20.4582 22.2381 18.9555 23.6511 18.3275 23.9202C17.9014 23.068 17.3183 19.9729 16.9819 17.3264C16.9371 16.9003 16.5333 16.5863 16.1072 16.6536C15.6811 16.6985 15.3671 17.1022 15.4344 17.5283C15.6587 19.4795 16.3315 24.1669 17.2959 25.1762C17.5202 25.4229 17.8341 25.535 18.193 25.535H18.2379C19.6732 25.4902 22.0731 22.754 23.0374 21.5877C23.1047 21.5204 23.1271 21.4308 23.1496 21.3635C23.3963 21.1841 23.6654 20.9373 23.8897 20.6458C24.0691 20.4215 24.0242 20.0851 23.7999 19.9281V19.9056Z" fill="white" stroke="#1A1A1A" stroke-width="0.484559" stroke-miterlimit="10"/>
<path d="M42.885 52.1769C42.4261 52.5483 41.3992 52.461 40.2412 51.6962C39.3454 51.1063 38.5369 49.402 38.9302 48.965C40.1319 47.5885 41.3336 48.4188 41.7051 49.7516C42.1421 51.3903 43.8245 51.4121 42.885 52.155V52.1769Z" fill="#1A1A1A" stroke="#1A1A1A" stroke-width="0.448256" stroke-miterlimit="10"/>
<path d="M44.5078 28.1621V37.9288L41.4052 49.2033C41.4052 49.2033 40.7497 50.121 39.6135 49.7714C38.4773 49.4218 41.4052 38.4314 41.4052 38.4314L40.3345 28.1621H44.5078Z" fill="white" stroke="#1A1A1A" stroke-width="0.448256" stroke-miterlimit="10"/>
<path d="M51.6706 25.9357C51.8017 25.9139 51.9329 25.8484 52.064 25.761C52.5447 25.4114 52.6757 24.7559 52.3479 24.2534C52.3261 24.2316 50.1193 21.0196 49.4639 18.7473C49.0706 17.3926 48.8739 14.5303 48.8083 12.3672C48.7865 11.4932 47.8251 10.1604 47.1259 9.06791C46.7982 8.56537 46.6016 9.65782 46.6016 10.2696C46.6016 10.5318 46.6234 16.7589 47.3881 19.359C48.1529 21.9591 50.4689 25.3459 50.5781 25.477C50.8403 25.8484 51.2773 26.0013 51.6925 25.9139L51.6706 25.9357Z" fill="white" stroke="#1A1A1A" stroke-width="0.448256" stroke-miterlimit="10"/>
<path d="M52.4835 27.4218C52.5927 27.4 52.702 27.3563 52.8112 27.2908C53.3575 26.963 53.5322 26.2858 53.2045 25.7395L52.6801 24.8436C52.3524 24.2974 51.675 24.1226 51.1288 24.4503C50.5825 24.7781 50.4077 25.4555 50.7355 26.0017L51.2599 26.8975C51.5221 27.3345 52.0028 27.5311 52.4616 27.4218H52.4835Z" fill="white" stroke="#1A1A1A" stroke-width="0.448256" stroke-miterlimit="10"/>
<path d="M51.694 50.4935C51.1696 50.7994 49.8804 50.9742 48.4602 49.8599C47.3677 49.0078 47.2148 48.6582 47.2148 48.0682C47.2148 46.932 49.225 46.7354 49.8805 47.959C50.4923 49.0733 52.7209 49.8818 51.694 50.4718V50.4935Z" fill="#1A1A1A" stroke="#1A1A1A" stroke-width="0.448256" stroke-miterlimit="10"/>
<path d="M49.353 47.6323L51.0572 37.3194L49.2656 28.4922H45.8789L48.0202 38.4992L47.0369 47.8946L48.326 48.4845L49.353 47.6323Z" fill="white" stroke="#1A1A1A" stroke-width="0.448256" stroke-miterlimit="10"/>
<path d="M42.6038 12.6499C42.6038 12.6499 43.6089 10.1809 43.4997 9.15397C43.3904 8.10519 43.4997 4.4126 44.5047 3.75711C46.3401 2.62093 48.8965 3.91008 48.8965 5.5488C48.8965 7.51526 48.4159 10.2028 47.4982 10.5087C46.6024 10.8364 45.925 15.5122 45.925 15.5122L42.582 12.6718L42.6038 12.6499Z" fill="white" stroke="#1A1A1A" stroke-width="0.448256" stroke-miterlimit="10"/>
<path d="M48.8954 5.54912C48.8954 5.54912 48.808 4.98103 47.3223 7.25338C46.7542 8.14922 46.0987 8.30221 45.7272 8.38961C45.3558 8.45515 44.2634 8.89214 44.0012 10.2905C43.7827 11.4267 41.3573 14.9445 40.5708 15.0756C40.1775 15.1411 36.7908 15.6218 35.5016 15.5125C34.2125 15.4033 35.5891 13.4369 37.5774 12.1477C41.7506 9.41654 41.1825 3.34234 44.9188 3.0583C46.6231 2.9272 48.3274 2.77422 48.8954 5.54912Z" fill="#1A1A1A" stroke="#1A1A1A" stroke-width="0.448256" stroke-linejoin="round"/>
<path d="M42.5993 12.65C42.5993 12.65 40.611 14.4635 40.5673 15.0535C40.5236 15.6434 39.4748 26.0657 40.7858 26.8304C42.0968 27.5952 45.2213 26.153 47.013 24.9731C48.3895 24.0555 48.6298 22.4387 48.3458 21.2588C47.2314 16.2771 48.7828 12.4097 48.7828 12.4097C48.7828 12.4097 48.4332 10.5306 47.8869 10.5088C47.5155 10.5088 48.2584 10.1155 47.5373 10.5088C47.5373 10.5088 46.6196 10.5306 46.6415 10.7928C46.6633 11.3172 46.5541 12.1912 45.6582 12.7811C44.3036 13.6332 42.643 12.6719 42.643 12.6719L42.5993 12.65Z" fill="white" stroke="#1A1A1A" stroke-width="0.448256" stroke-miterlimit="10"/>
<path d="M48.2598 23.3779L50.4011 29.8455C50.4011 29.8455 48.6968 33.8875 41.2898 33.5598C41.2898 33.5598 38.8645 32.7078 38.5586 31.0909L40.2411 24.9948L48.238 23.3998L48.2598 23.3779Z" fill="#1A1A1A" stroke="#1A1A1A" stroke-width="0.448256" stroke-linejoin="round"/>
<path d="M37.1845 24.3619C38.4736 25.3014 40.4619 26.4157 43.0402 26.8964C43.6301 27.0056 44.1982 26.6124 44.3074 26.0225C44.4167 25.4325 44.0234 24.8644 43.4335 24.7551C40.593 24.2308 38.5829 22.7668 37.6652 21.9802L41.2485 15.622C41.5325 15.0976 41.4889 14.1581 40.9863 13.874C40.9863 13.874 39.6754 14.0488 39.3695 14.5732L35.371 21.6744C35.1306 22.0896 35.1962 22.592 35.5239 22.9416C35.5676 23.0071 36.1575 23.619 37.2063 24.3837L37.1845 24.3619Z" fill="white" stroke="#1A1A1A" stroke-width="0.448256" stroke-miterlimit="10"/>
<path d="M42.7852 25.3214C42.7852 25.1466 42.8725 24.9717 43.0036 24.8188C43.7465 23.9885 44.9046 23.6609 46.2592 23.8356C46.6962 23.9012 47.0021 24.3163 46.9584 24.7533C46.8929 25.1903 46.4777 25.518 46.0407 25.4525C45.4726 25.3651 44.6861 25.3869 44.2272 25.9113C43.9213 26.239 43.4188 26.2609 43.091 25.9769C42.8944 25.8021 42.807 25.5617 42.8288 25.3214H42.7852Z" fill="white"/>
<path d="M42.5219 25.3012C42.5219 25.0608 42.6311 24.8205 42.8059 24.6238C43.6144 23.728 44.8379 23.3566 46.28 23.5532C46.87 23.6406 47.2851 24.1869 47.1977 24.7768C47.1103 25.3667 46.5641 25.7819 45.9742 25.6945C45.4716 25.6289 44.7943 25.6289 44.401 26.0659C44.2043 26.2844 43.9422 26.4155 43.6581 26.4155C43.3741 26.4155 43.09 26.3281 42.8715 26.1315C42.6311 25.913 42.5 25.6071 42.5219 25.2793V25.3012Z" fill="white" stroke="#1A1A1A" stroke-width="0.448256" stroke-miterlimit="10"/>
</g>
<defs>
<clipPath id="clip0_6135_140491">
<rect width="89" height="54" fill="white"/>
</clipPath>
</defs>
</svg>
