<svg width="140" height="140" viewBox="0 0 140 140" fill="none" xmlns="http://www.w3.org/2000/svg">
<g clip-path="url(#clip0_544_45470)">
<rect width="140" height="140" rx="70" fill="#F2F2F2"/>
<circle cx="70" cy="70" r="69.5" fill="black" stroke="#1A1A1A"/>
<rect x="50.5" y="15.5" width="2" height="5" fill="#2E2E2E" stroke="#2E2E2E"/>
<rect x="61.5" y="15.5" width="2" height="5" fill="#2E2E2E" stroke="#2E2E2E"/>
<rect x="72.5" y="15.5" width="2" height="5" fill="#2E2E2E" stroke="#2E2E2E"/>
<path d="M50.5 31.5H75.5C74.8333 29.6667 71.8 26 65 26C58.2 26 52.8333 26 51 26" stroke="#2E2E2E" stroke-linecap="round" stroke-linejoin="round"/>
<path d="M-19 8.5H6C5.33333 6.66667 2.3 3 -4.5 3C-11.3 3 -16.6667 3 -18.5 3" stroke="#2E2E2E" stroke-linecap="round" stroke-linejoin="round"/>
<path d="M6 19L-19 19C-18.3333 20.8333 -15.3 24.5 -8.5 24.5C-1.7 24.5 3.66667 24.5 5.5 24.5" stroke="#2E2E2E" stroke-linecap="round" stroke-linejoin="round"/>
<path d="M6 36L-19 36C-18.3333 37.8333 -15.3 41.5 -8.5 41.5C-1.7 41.5 3.66667 41.5 5.5 41.5" stroke="#2E2E2E" stroke-linecap="round" stroke-linejoin="round"/>
<path d="M84 43H92" stroke="#2E2E2E" stroke-width="0.7" stroke-linecap="round"/>
<path d="M102 41H112" stroke="#2E2E2E" stroke-width="0.7" stroke-linecap="round"/>
<path d="M97.9923 42.2083C97.9923 41.9167 97.8212 41.3333 97.1368 41.3333C96.2813 41.3333 95.9961 41.625 95.9961 42.7917C95.9961 43.9583 96.8516 44.25 97.1368 44.25C97.422 44.25 99.133 44.5417 99.7033 43.0833C100.274 41.625 99.9884 40.75 99.133 39.875C98.2775 39 97.7071 39 96.8516 39C95.9961 39 94 39.875 94 41.625C94 43.025 94 43.1806 94 43.0833C94.0951 44.0556 94.8555 46 96.2813 46C98.2775 46 98.8478 46 99.9884 45.125" stroke="#2E2E2E" stroke-width="0.7" stroke-linecap="round" stroke-linejoin="round"/>
<path d="M125.254 44.9907L124.862 44.9907C123.929 45.0525 123.88 44.7943 123.88 44.598C123.88 44.4764 124.862 43.8125 124.665 43.6161C124.469 43.4198 124.469 43.4198 123.683 44.0089C122.898 44.598 122.505 44.7943 121.916 44.4016C121.445 44.0874 122.112 43.2234 122.505 42.8306C123.16 42.307 124.626 40.7491 125.254 38.7069C126.04 36.1541 127.611 34.3868 129.574 32.4231C131.145 30.8522 133.633 30.3285 134.68 30.2631C134.418 30.0667 133.973 29.4383 134.287 28.4957C134.68 27.3175 135.858 26.7284 137.429 27.1212C139 27.5139 139 28.8885 139 29.674C139 30.4594 138.411 30.6558 137.429 32.0304C136.447 33.4049 136.251 33.7977 135.465 35.1723C134.68 36.5468 134.876 37.9214 134.876 38.5105C134.876 39.0996 135.073 39.0996 134.287 39.4924C133.502 39.8851 133.305 38.1178 132.716 38.5105C132.127 38.9033 133.502 39.6887 132.52 40.2778C131.538 40.8669 131.342 39.4924 130.753 39.4924C130.163 39.4924 126.825 43.2234 126.236 44.2052C125.765 44.9907 125.451 44.9907 125.254 44.9907Z" fill="#2E2E2E" stroke="#2E2E2E" stroke-width="0.409904"/>
<path d="M134.484 39.4924L136.447 43.0271H138.607" stroke="#2E2E2E" stroke-width="0.6" stroke-linecap="round" stroke-linejoin="round"/>
<path d="M132.52 40.2778L133.894 43.4197H135.073" stroke="#2E2E2E" stroke-width="0.6" stroke-linecap="round" stroke-linejoin="round"/>
<path d="M120 7.28728H123.821C124.046 6.76282 125.26 5.66893 128.317 5.48912L135.959 5.03958C137.457 4.88973 140.769 5.08453 142.028 7.06251C143.108 8.76008 143.934 9.25462 144.336 9.31336C144.399 9.31123 144.453 9.31026 144.5 9.31026C144.458 9.32088 144.403 9.32307 144.336 9.31336C143.798 9.33181 142.706 9.43747 141.578 9.7598C140.005 10.2093 137.982 11.1084 133.486 10.8837C128.991 10.6589 126.069 9.7598 123.821 7.96164H120.674L120 7.28728Z" fill="#2E2E2E" stroke="#2E2E2E"/>
<circle cx="134.385" cy="7.9617" r="1.74771" fill="#2E2E2E" stroke="#2E2E2E"/>
<circle cx="127.518" cy="11.6743" r="0.5" fill="#2E2E2E" stroke="#2E2E2E" stroke-width="0.348624"/>
<circle cx="134.826" cy="12.8258" r="0.5" transform="rotate(-15 134.826 12.8258)" fill="#2E2E2E" stroke="#2E2E2E" stroke-width="0.348624"/>
<circle cx="127.069" cy="13.4725" r="0.5" fill="#2E2E2E" stroke="#2E2E2E" stroke-width="0.348624"/>
<circle cx="134.857" cy="14.6792" r="0.5" transform="rotate(-15 134.857 14.6792)" fill="#2E2E2E" stroke="#2E2E2E" stroke-width="0.348624"/>
<circle cx="126.619" cy="15.2706" r="0.5" fill="#2E2E2E" stroke="#2E2E2E" stroke-width="0.348624"/>
<circle cx="134.888" cy="16.5324" r="0.5" transform="rotate(-15 134.888 16.5324)" fill="#2E2E2E" stroke="#2E2E2E" stroke-width="0.348624"/>
<circle cx="126.17" cy="17.0687" r="0.5" fill="#2E2E2E" stroke="#2E2E2E" stroke-width="0.348624"/>
<circle cx="134.919" cy="18.3855" r="0.5" transform="rotate(-15 134.919 18.3855)" fill="#2E2E2E" stroke="#2E2E2E" stroke-width="0.348624"/>
<path d="M125.961 20.9377C125.943 21.0321 125.851 21.094 125.757 21.0758C125.662 21.0576 125.6 20.9662 125.619 20.8716L125.619 20.8717C125.619 20.8717 125.619 20.8692 125.621 20.8638C125.622 20.8579 125.624 20.85 125.627 20.8398C125.634 20.8191 125.642 20.7926 125.654 20.7603C125.677 20.6955 125.709 20.6154 125.749 20.5244C125.804 20.396 125.871 20.2521 125.943 20.1079C125.957 20.2686 125.965 20.427 125.969 20.5669C125.972 20.666 125.972 20.7522 125.969 20.8211C125.968 20.8554 125.967 20.8833 125.965 20.9048C125.964 20.9154 125.963 20.9236 125.962 20.9296C125.961 20.9351 125.961 20.9377 125.961 20.9377Z" fill="#2E2E2E" stroke="#2E2E2E"/>
<path d="M135.149 22.023C135.149 22.1192 135.071 22.1972 134.974 22.1972C134.878 22.1972 134.8 22.1192 134.8 22.0229L134.8 22.023C134.8 22.023 134.8 22.0204 134.8 22.0148C134.801 22.0088 134.801 22.0006 134.803 21.99C134.805 21.9685 134.808 21.9409 134.814 21.9069C134.824 21.8389 134.841 21.7542 134.862 21.6574C134.892 21.5208 134.931 21.3668 134.974 21.2116C135.018 21.3668 135.057 21.5208 135.087 21.6574C135.108 21.7542 135.124 21.8389 135.135 21.9069C135.14 21.9409 135.144 21.9685 135.146 21.99C135.147 22.0006 135.148 22.0088 135.148 22.0148C135.149 22.0204 135.149 22.023 135.149 22.023Z" fill="#2E2E2E" stroke="#2E2E2E"/>
<path d="M15 9H41.4614" stroke="#2E2E2E" stroke-linecap="round"/>
<circle cx="21.8407" cy="11.8022" r="0.5" fill="#2E2E2E" stroke="#2E2E2E" stroke-width="0.681312"/>
<circle cx="27.5221" cy="11.8022" r="0.5" fill="#2E2E2E" stroke="#2E2E2E" stroke-width="0.681312"/>
<circle cx="33.2034" cy="11.8022" r="0.5" fill="#2E2E2E" stroke="#2E2E2E" stroke-width="0.681312"/>
<path d="M15 3H41.4614" stroke="#2E2E2E" stroke-linecap="round"/>
<circle cx="21.8407" cy="5.84066" r="0.5" fill="#2E2E2E" stroke="#2E2E2E" stroke-width="0.681312"/>
<circle cx="27.5221" cy="5.84066" r="0.5" fill="#2E2E2E" stroke="#2E2E2E" stroke-width="0.681312"/>
<circle cx="33.2034" cy="5.8022" r="0.5" fill="#2E2E2E" stroke="#2E2E2E" stroke-width="0.681312"/>
<path d="M11 -1V49" stroke="#2E2E2E" stroke-linecap="round"/>
<path d="M46 -1V49" stroke="#2E2E2E" stroke-linecap="round"/>
<path d="M80 -1V49" stroke="#2E2E2E" stroke-linecap="round"/>
<path d="M115 -1V49" stroke="#2E2E2E" stroke-linecap="round"/>
<path d="M40.0384 36H29.2567C29.8584 34.7848 32.1819 34.1435 33.2685 33.9747C32.0649 33.9747 31.9312 32.2869 32.0148 31.443V23.3418C32.0148 22.8354 31.764 22.3291 31.2626 22.3291C30.8614 22.3291 30.5939 22.6667 30.5103 22.8354C30.0089 23.6793 28.8708 25.4177 28.8708 25.6202C28.8708 25.8228 29.3402 25.8734 29.5074 25.8734H29.9381C30.4395 25.8734 31.0053 25.9149 31.0053 26.5225C31.0053 27.6001 30.356 27.3924 29.9381 27.3924H28.003C27.2507 27.3924 27 27.1392 27 26.3797C27 25.7721 27.3343 25.2827 27.5015 25.1139C28.003 24.27 29.1062 22.4304 29.5074 21.8228C30.0089 21.0633 30.2596 21.0633 31.2626 21.0633C32.0649 21.0633 32.2655 20.8945 32.2655 20.8101V20.0506C32.2655 19.5443 31.764 19.5443 31.2626 19.2911C30.7611 19.038 30.7611 18.2785 30.7611 17.2658C30.7611 16.2532 31.5133 16 32.5163 16C33.5192 16 34.5222 17.2658 35.0236 17.7721C35.5251 18.2785 35.2744 19.038 35.0236 19.5443C34.7729 20.0506 33.77 19.5443 33.77 20.3038C33.77 20.9114 34.2714 20.8945 34.5222 20.8101H35.2744C36.2773 20.8101 36.8624 21.4852 37.0296 21.8228C37.1131 21.9916 37.4307 22.5316 38.0325 23.3418C38.6343 24.1519 39.119 23.6793 39.2862 23.3418L40.5399 22.3291C41.2921 21.8228 40.9578 21.4008 40.7906 21.0633V18.5316C40.7906 17.7721 41.5429 17.7721 42.2951 17.7721C43.0473 17.7721 43.298 19.038 42.5458 19.2911C41.7936 19.5443 41.7936 19.038 41.7936 19.7975C41.7936 21.3164 42.0443 20.8101 42.2951 21.5696C42.4957 22.1772 42.0443 22.6667 41.7936 22.8354C41.2085 23.3418 39.9381 24.4557 39.5369 24.8607C39.0355 25.3671 39.2862 25.3671 38.0325 25.3671C36.7788 25.3671 36.2773 22.3291 35.2744 22.3291C34.472 22.3291 34.2714 22.8354 34.2714 23.0886C34.1878 25.789 34.0708 31.3417 34.2714 31.9493C34.472 32.5569 34.8565 32.2025 35.0236 31.9493C35.6087 31.2742 36.9293 29.7722 37.531 29.1646C38.2833 28.4051 39.0355 27.8987 40.0384 28.6582C40.8408 29.2658 40.2056 30.2616 39.7877 30.6836L36.5281 33.7215H39.7877C40.7906 33.7215 41.7936 33.9747 41.7936 34.9873C41.7936 35.7975 40.6235 36 40.0384 36Z" fill="#2E2E2E" stroke="#2E2E2E" stroke-width="0.46988"/>
<path d="M86.9616 36H97.7433C97.1416 34.7848 94.8181 34.1435 93.7315 33.9747C94.9351 33.9747 95.0688 32.2869 94.9852 31.443V23.3418C94.9852 22.8354 95.236 22.3291 95.7374 22.3291C96.1386 22.3291 96.4061 22.6667 96.4897 22.8354C96.9911 23.6793 98.1292 25.4177 98.1292 25.6202C98.1292 25.8228 97.6598 25.8734 97.4926 25.8734H97.0619C96.5605 25.8734 95.9947 25.9149 95.9947 26.5225C95.9947 27.6001 96.644 27.3924 97.0619 27.3924H98.997C99.7493 27.3924 100 27.1392 100 26.3797C100 25.7721 99.6657 25.2827 99.4985 25.1139C98.997 24.27 97.8938 22.4304 97.4926 21.8228C96.9911 21.0633 96.7404 21.0633 95.7374 21.0633C94.9351 21.0633 94.7345 20.8945 94.7345 20.8101V20.0506C94.7345 19.5443 95.236 19.5443 95.7374 19.2911C96.2389 19.038 96.2389 18.2785 96.2389 17.2658C96.2389 16.2532 95.4867 16 94.4837 16C93.4808 16 92.4778 17.2658 91.9764 17.7721C91.4749 18.2785 91.7256 19.038 91.9764 19.5443C92.2271 20.0506 93.23 19.5443 93.23 20.3038C93.23 20.9114 92.7286 20.8945 92.4778 20.8101H91.7256C90.7227 20.8101 90.1376 21.4852 89.9704 21.8228C89.8869 21.9916 89.5693 22.5316 88.9675 23.3418C88.3657 24.1519 87.881 23.6793 87.7138 23.3418L86.4601 22.3291C85.7079 21.8228 86.0422 21.4008 86.2094 21.0633V18.5316C86.2094 17.7721 85.4571 17.7721 84.7049 17.7721C83.9527 17.7721 83.702 19.038 84.4542 19.2911C85.2064 19.5443 85.2064 19.038 85.2064 19.7975C85.2064 21.3164 84.9557 20.8101 84.7049 21.5696C84.5043 22.1772 84.9557 22.6667 85.2064 22.8354C85.7915 23.3418 87.0619 24.4557 87.4631 24.8607C87.9645 25.3671 87.7138 25.3671 88.9675 25.3671C90.2212 25.3671 90.7227 22.3291 91.7256 22.3291C92.528 22.3291 92.7286 22.8354 92.7286 23.0886C92.8122 25.789 92.9292 31.3417 92.7286 31.9493C92.528 32.5569 92.1435 32.2025 91.9764 31.9493C91.3913 31.2742 90.0707 29.7722 89.469 29.1646C88.7167 28.4051 87.9645 27.8987 86.9616 28.6582C86.1592 29.2658 86.7944 30.2616 87.2123 30.6836L90.4719 33.7215H87.2123C86.2094 33.7215 85.2064 33.9747 85.2064 34.9873C85.2064 35.7975 86.3765 36 86.9616 36Z" fill="#2E2E2E" stroke="#2E2E2E" stroke-width="0.46988"/>
<path d="M18.1064 33.5904C17.1702 28.7711 17.5603 24.0321 17.8724 22.2651C17.3107 23.2289 16.3901 23.1486 16 22.988V22.2651C17.6383 22.2651 16.7021 19.8554 16.9362 18.6506C17.1702 17.4458 17.6383 16 19.7447 16C21.4298 16 21.617 17.4458 21.617 18.1687C21.617 18.6506 21.383 19.8554 20.4468 19.8554C19.2766 19.8554 18.3404 20.5783 19.2766 21.5422C20.2128 22.506 20.2128 23.2289 20.2128 26.1205C20.2128 29.012 19.2766 31.4217 20.4468 31.4217C21.383 31.4217 22.5532 29.9759 23.0213 29.253C23.4894 28.5301 24.6128 27.2289 25.3617 27.8072C26.2979 28.5301 24.5532 30.3629 23.9574 31.1807C23.2553 32.1446 22.7872 34.7952 24.4255 34.7952C26.0638 34.7952 27 34.5542 27 35.2771C27 35.8554 26.5319 36 26.2979 36H17.4043C16.7021 36 16.7021 34.7952 17.4043 34.7952C18.3404 34.7952 18.2624 33.992 18.1064 33.5904Z" fill="#2E2E2E" stroke="#2E2E2E" stroke-width="0.46988"/>
<path d="M108.894 33.5904C109.83 28.7711 109.44 24.0321 109.128 22.2651C109.689 23.2289 110.61 23.1486 111 22.988V22.2651C109.362 22.2651 110.298 19.8554 110.064 18.6506C109.83 17.4458 109.362 16 107.255 16C105.57 16 105.383 17.4458 105.383 18.1687C105.383 18.6506 105.617 19.8554 106.553 19.8554C107.723 19.8554 108.66 20.5783 107.723 21.5422C106.787 22.506 106.787 23.2289 106.787 26.1205C106.787 29.012 107.723 31.4217 106.553 31.4217C105.617 31.4217 104.447 29.9759 103.979 29.253C103.511 28.5301 102.387 27.2289 101.638 27.8072C100.702 28.5301 102.447 30.3629 103.043 31.1807C103.745 32.1446 104.213 34.7952 102.574 34.7952C100.936 34.7952 100 34.5542 100 35.2771C100 35.8554 100.468 36 100.702 36H109.596C110.298 36 110.298 34.7952 109.596 34.7952C108.66 34.7952 108.738 33.992 108.894 33.5904Z" fill="#2E2E2E" stroke="#2E2E2E" stroke-width="0.46988"/>
<rect x="16.5" y="40.5" width="2" height="5" fill="#2E2E2E" stroke="#2E2E2E"/>
<rect x="27.5" y="40.5" width="2" height="5" fill="#2E2E2E" stroke="#2E2E2E"/>
<rect x="38.5" y="40.5" width="2" height="5" fill="#2E2E2E" stroke="#2E2E2E"/>
<path d="M75.472 37.5C75.272 39.2842 74.0072 40.953 71.9303 42.231C69.6686 43.6228 66.5126 44.5 63 44.5C59.4874 44.5 56.3314 43.6228 54.0697 42.231C51.9928 40.953 50.728 39.2842 50.528 37.5H75.472Z" fill="#2E2E2E" stroke="#2E2E2E"/>
<path d="M91.4285 12.5C91.2977 12.048 90.9904 11.6251 90.5284 11.2787C89.8991 10.8067 89.0068 10.5 88 10.5C86.9932 10.5 86.1009 10.8067 85.4716 11.2787C85.0096 11.6251 84.7023 12.048 84.5715 12.5H91.4285Z" fill="#2E2E2E" stroke="#2E2E2E"/>
<mask id="path-50-inside-1_544_45470" fill="white">
<path fill-rule="evenodd" clip-rule="evenodd" d="M111 2H84V8C84 5.79086 86.9101 4 90.5 4C94.0899 4 97 5.79086 97 8H98C98 5.79086 100.91 4 104.5 4C108.09 4 111 5.79086 111 8V2Z"/>
</mask>
<path fill-rule="evenodd" clip-rule="evenodd" d="M111 2H84V8C84 5.79086 86.9101 4 90.5 4C94.0899 4 97 5.79086 97 8H98C98 5.79086 100.91 4 104.5 4C108.09 4 111 5.79086 111 8V2Z" fill="#2E2E2E"/>
<path d="M84 2V1H83V2H84ZM111 2H112V1H111V2ZM97 8H96V9H97V8ZM98 8V9H99V8H98ZM84 3H111V1H84V3ZM85 8V2H83V8H85ZM90.5 3C88.5505 3 86.7377 3.48425 85.3797 4.31991C84.0379 5.14562 83 6.41866 83 8H85C85 7.3722 85.4171 6.64524 86.4279 6.02323C87.4225 5.41118 88.8597 5 90.5 5V3ZM98 8C98 6.41866 96.9621 5.14562 95.6203 4.31991C94.2623 3.48425 92.4495 3 90.5 3V5C92.1403 5 93.5775 5.41118 94.5721 6.02323C95.5829 6.64524 96 7.3722 96 8H98ZM98 7H97V9H98V7ZM104.5 3C102.55 3 100.738 3.48425 99.3797 4.31991C98.0379 5.14562 97 6.41866 97 8H99C99 7.3722 99.4171 6.64524 100.428 6.02323C101.422 5.41118 102.86 5 104.5 5V3ZM112 8C112 6.41866 110.962 5.14562 109.62 4.31991C108.262 3.48425 106.45 3 104.5 3V5C106.14 5 107.578 5.41118 108.572 6.02323C109.583 6.64524 110 7.3722 110 8H112ZM110 2V8H112V2H110Z" fill="#2E2E2E" mask="url(#path-50-inside-1_544_45470)"/>
<path d="M110.428 12.5C110.298 12.048 109.99 11.6251 109.528 11.2787C108.899 10.8067 108.007 10.5 107 10.5C105.993 10.5 105.101 10.8067 104.472 11.2787C104.01 11.6251 103.702 12.048 103.572 12.5H110.428Z" fill="#2E2E2E" stroke="#2E2E2E"/>
<path d="M50 7.00958C53.7356 4.17007 64.5 -0.5 75 7.0097C74.1379 7.54205 64 15.0002 50 7.00958Z" stroke="#2E2E2E" stroke-linejoin="round"/>
<rect x="50.5" y="65.5" width="2" height="5" fill="#2E2E2E" stroke="#2E2E2E"/>
<rect x="61.5" y="65.5" width="2" height="5" fill="#2E2E2E" stroke="#2E2E2E"/>
<rect x="72.5" y="65.5" width="2" height="5" fill="#2E2E2E" stroke="#2E2E2E"/>
<path d="M50.5 81.5H75.5C74.8333 79.6667 71.8 76 65 76C58.2 76 52.8333 76 51 76" stroke="#2E2E2E" stroke-linecap="round" stroke-linejoin="round"/>
<path d="M-19 58.5H6C5.33333 56.6667 2.3 53 -4.5 53C-11.3 53 -16.6667 53 -18.5 53" stroke="#2E2E2E" stroke-linecap="round" stroke-linejoin="round"/>
<path d="M6 69L-19 69C-18.3333 70.8333 -15.3 74.5 -8.5 74.5C-1.7 74.5 3.66667 74.5 5.5 74.5" stroke="#2E2E2E" stroke-linecap="round" stroke-linejoin="round"/>
<path d="M6 86L-19 86C-18.3333 87.8333 -15.3 91.5 -8.5 91.5C-1.7 91.5 3.66667 91.5 5.5 91.5" stroke="#2E2E2E" stroke-linecap="round" stroke-linejoin="round"/>
<path d="M84 93H92" stroke="#2E2E2E" stroke-width="0.7" stroke-linecap="round"/>
<path d="M102 91H112" stroke="#2E2E2E" stroke-width="0.7" stroke-linecap="round"/>
<path d="M97.9923 92.2083C97.9923 91.9167 97.8212 91.3333 97.1368 91.3333C96.2813 91.3333 95.9961 91.625 95.9961 92.7917C95.9961 93.9583 96.8516 94.25 97.1368 94.25C97.422 94.25 99.133 94.5417 99.7033 93.0833C100.274 91.625 99.9884 90.75 99.133 89.875C98.2775 89 97.7071 89 96.8516 89C95.9961 89 94 89.875 94 91.625C94 93.025 94 93.1806 94 93.0833C94.0951 94.0556 94.8555 96 96.2813 96C98.2775 96 98.8478 96 99.9884 95.125" stroke="#2E2E2E" stroke-width="0.7" stroke-linecap="round" stroke-linejoin="round"/>
<path d="M125.254 94.9907L124.862 94.9907C123.929 95.0525 123.88 94.7943 123.88 94.598C123.88 94.4764 124.862 93.8125 124.665 93.6161C124.469 93.4198 124.469 93.4198 123.683 94.0089C122.898 94.598 122.505 94.7943 121.916 94.4016C121.445 94.0874 122.112 93.2234 122.505 92.8306C123.16 92.307 124.626 90.7491 125.254 88.7069C126.04 86.1541 127.611 84.3868 129.574 82.4231C131.145 80.8522 133.633 80.3285 134.68 80.2631C134.418 80.0667 133.973 79.4383 134.287 78.4957C134.68 77.3175 135.858 76.7284 137.429 77.1212C139 77.5139 139 78.8885 139 79.674C139 80.4594 138.411 80.6558 137.429 82.0304C136.447 83.4049 136.251 83.7977 135.465 85.1723C134.68 86.5468 134.876 87.9214 134.876 88.5105C134.876 89.0996 135.073 89.0996 134.287 89.4924C133.502 89.8851 133.305 88.1178 132.716 88.5105C132.127 88.9033 133.502 89.6887 132.52 90.2778C131.538 90.8669 131.342 89.4924 130.753 89.4924C130.163 89.4924 126.825 93.2234 126.236 94.2052C125.765 94.9907 125.451 94.9907 125.254 94.9907Z" fill="#2E2E2E" stroke="#2E2E2E" stroke-width="0.409904"/>
<path d="M134.484 89.4924L136.447 93.0271H138.607" stroke="#2E2E2E" stroke-width="0.6" stroke-linecap="round" stroke-linejoin="round"/>
<path d="M132.52 90.2778L133.894 93.4197H135.073" stroke="#2E2E2E" stroke-width="0.6" stroke-linecap="round" stroke-linejoin="round"/>
<path d="M120 57.2873H123.821C124.046 56.7628 125.26 55.6689 128.317 55.4891L135.959 55.0396C137.457 54.8897 140.769 55.0845 142.028 57.0625C143.108 58.7601 143.934 59.2546 144.336 59.3134C144.399 59.3112 144.453 59.3103 144.5 59.3103C144.458 59.3209 144.403 59.3231 144.336 59.3134C143.798 59.3318 142.706 59.4375 141.578 59.7598C140.005 60.2093 137.982 61.1084 133.486 60.8837C128.991 60.6589 126.069 59.7598 123.821 57.9616H120.674L120 57.2873Z" fill="#2E2E2E" stroke="#2E2E2E"/>
<circle cx="134.385" cy="57.9617" r="1.74771" fill="#2E2E2E" stroke="#2E2E2E"/>
<circle cx="127.518" cy="61.6743" r="0.5" fill="#2E2E2E" stroke="#2E2E2E" stroke-width="0.348624"/>
<circle cx="134.826" cy="62.8258" r="0.5" transform="rotate(-15 134.826 62.8258)" fill="#2E2E2E" stroke="#2E2E2E" stroke-width="0.348624"/>
<circle cx="127.069" cy="63.4725" r="0.5" fill="#2E2E2E" stroke="#2E2E2E" stroke-width="0.348624"/>
<circle cx="134.857" cy="64.6792" r="0.5" transform="rotate(-15 134.857 64.6792)" fill="#2E2E2E" stroke="#2E2E2E" stroke-width="0.348624"/>
<circle cx="126.619" cy="65.2706" r="0.5" fill="#2E2E2E" stroke="#2E2E2E" stroke-width="0.348624"/>
<circle cx="134.888" cy="66.5324" r="0.5" transform="rotate(-15 134.888 66.5324)" fill="#2E2E2E" stroke="#2E2E2E" stroke-width="0.348624"/>
<circle cx="126.17" cy="67.0687" r="0.5" fill="#2E2E2E" stroke="#2E2E2E" stroke-width="0.348624"/>
<circle cx="134.919" cy="68.3855" r="0.5" transform="rotate(-15 134.919 68.3855)" fill="#2E2E2E" stroke="#2E2E2E" stroke-width="0.348624"/>
<path d="M125.961 70.9377C125.943 71.0321 125.851 71.094 125.757 71.0758C125.662 71.0576 125.6 70.9662 125.619 70.8716L125.619 70.8717C125.619 70.8717 125.619 70.8692 125.621 70.8638C125.622 70.8579 125.624 70.85 125.627 70.8398C125.634 70.8191 125.642 70.7926 125.654 70.7603C125.677 70.6955 125.709 70.6154 125.749 70.5244C125.804 70.396 125.871 70.2521 125.943 70.1079C125.957 70.2686 125.965 70.427 125.969 70.5669C125.972 70.666 125.972 70.7522 125.969 70.8211C125.968 70.8554 125.967 70.8833 125.965 70.9048C125.964 70.9154 125.963 70.9236 125.962 70.9296C125.961 70.9351 125.961 70.9377 125.961 70.9377Z" fill="#2E2E2E" stroke="#2E2E2E"/>
<path d="M135.149 72.023C135.149 72.1192 135.071 72.1972 134.974 72.1972C134.878 72.1972 134.8 72.1192 134.8 72.0229L134.8 72.023C134.8 72.023 134.8 72.0204 134.8 72.0148C134.801 72.0088 134.801 72.0006 134.803 71.99C134.805 71.9685 134.808 71.9409 134.814 71.9069C134.824 71.8389 134.841 71.7542 134.862 71.6574C134.892 71.5208 134.931 71.3668 134.974 71.2116C135.018 71.3668 135.057 71.5208 135.087 71.6574C135.108 71.7542 135.124 71.8389 135.135 71.9069C135.14 71.9409 135.144 71.9685 135.146 71.99C135.147 72.0006 135.148 72.0088 135.148 72.0148C135.149 72.0204 135.149 72.023 135.149 72.023Z" fill="#2E2E2E" stroke="#2E2E2E"/>
<path d="M15 59H41.4614" stroke="#2E2E2E" stroke-linecap="round"/>
<circle cx="21.8407" cy="61.8022" r="0.5" fill="#2E2E2E" stroke="#2E2E2E" stroke-width="0.681312"/>
<circle cx="27.5221" cy="61.8022" r="0.5" fill="#2E2E2E" stroke="#2E2E2E" stroke-width="0.681312"/>
<circle cx="33.2034" cy="61.8022" r="0.5" fill="#2E2E2E" stroke="#2E2E2E" stroke-width="0.681312"/>
<path d="M15 53H41.4614" stroke="#2E2E2E" stroke-linecap="round"/>
<circle cx="21.8407" cy="55.8407" r="0.5" fill="#2E2E2E" stroke="#2E2E2E" stroke-width="0.681312"/>
<circle cx="27.5221" cy="55.8407" r="0.5" fill="#2E2E2E" stroke="#2E2E2E" stroke-width="0.681312"/>
<circle cx="33.2034" cy="55.8022" r="0.5" fill="#2E2E2E" stroke="#2E2E2E" stroke-width="0.681312"/>
<path d="M11 49V99" stroke="#2E2E2E" stroke-linecap="round"/>
<path d="M46 49V99" stroke="#2E2E2E" stroke-linecap="round"/>
<path d="M80 49V99" stroke="#2E2E2E" stroke-linecap="round"/>
<path d="M115 49V99" stroke="#2E2E2E" stroke-linecap="round"/>
<path d="M40.0384 86H29.2567C29.8584 84.7848 32.1819 84.1435 33.2685 83.9747C32.0649 83.9747 31.9312 82.2869 32.0148 81.443V73.3418C32.0148 72.8354 31.764 72.3291 31.2626 72.3291C30.8614 72.3291 30.5939 72.6667 30.5103 72.8354C30.0089 73.6793 28.8708 75.4177 28.8708 75.6202C28.8708 75.8228 29.3402 75.8734 29.5074 75.8734H29.9381C30.4395 75.8734 31.0053 75.9149 31.0053 76.5225C31.0053 77.6001 30.356 77.3924 29.9381 77.3924H28.003C27.2507 77.3924 27 77.1392 27 76.3797C27 75.7721 27.3343 75.2827 27.5015 75.1139C28.003 74.27 29.1062 72.4304 29.5074 71.8228C30.0089 71.0633 30.2596 71.0633 31.2626 71.0633C32.0649 71.0633 32.2655 70.8945 32.2655 70.8101V70.0506C32.2655 69.5443 31.764 69.5443 31.2626 69.2911C30.7611 69.038 30.7611 68.2785 30.7611 67.2658C30.7611 66.2532 31.5133 66 32.5163 66C33.5192 66 34.5222 67.2658 35.0236 67.7721C35.5251 68.2785 35.2744 69.038 35.0236 69.5443C34.7729 70.0506 33.77 69.5443 33.77 70.3038C33.77 70.9114 34.2714 70.8945 34.5222 70.8101H35.2744C36.2773 70.8101 36.8624 71.4852 37.0296 71.8228C37.1131 71.9916 37.4307 72.5316 38.0325 73.3418C38.6343 74.1519 39.119 73.6793 39.2862 73.3418L40.5399 72.3291C41.2921 71.8228 40.9578 71.4008 40.7906 71.0633V68.5316C40.7906 67.7721 41.5429 67.7721 42.2951 67.7721C43.0473 67.7721 43.298 69.038 42.5458 69.2911C41.7936 69.5443 41.7936 69.038 41.7936 69.7975C41.7936 71.3164 42.0443 70.8101 42.2951 71.5696C42.4957 72.1772 42.0443 72.6667 41.7936 72.8354C41.2085 73.3418 39.9381 74.4557 39.5369 74.8607C39.0355 75.3671 39.2862 75.3671 38.0325 75.3671C36.7788 75.3671 36.2773 72.3291 35.2744 72.3291C34.472 72.3291 34.2714 72.8354 34.2714 73.0886C34.1878 75.789 34.0708 81.3417 34.2714 81.9493C34.472 82.5569 34.8565 82.2025 35.0236 81.9493C35.6087 81.2742 36.9293 79.7722 37.531 79.1646C38.2833 78.4051 39.0355 77.8987 40.0384 78.6582C40.8408 79.2658 40.2056 80.2616 39.7877 80.6836L36.5281 83.7215H39.7877C40.7906 83.7215 41.7936 83.9747 41.7936 84.9873C41.7936 85.7975 40.6235 86 40.0384 86Z" fill="#2E2E2E" stroke="#2E2E2E" stroke-width="0.46988"/>
<path d="M86.9616 86H97.7433C97.1416 84.7848 94.8181 84.1435 93.7315 83.9747C94.9351 83.9747 95.0688 82.2869 94.9852 81.443V73.3418C94.9852 72.8354 95.236 72.3291 95.7374 72.3291C96.1386 72.3291 96.4061 72.6667 96.4897 72.8354C96.9911 73.6793 98.1292 75.4177 98.1292 75.6202C98.1292 75.8228 97.6598 75.8734 97.4926 75.8734H97.0619C96.5605 75.8734 95.9947 75.9149 95.9947 76.5225C95.9947 77.6001 96.644 77.3924 97.0619 77.3924H98.997C99.7493 77.3924 100 77.1392 100 76.3797C100 75.7721 99.6657 75.2827 99.4985 75.1139C98.997 74.27 97.8938 72.4304 97.4926 71.8228C96.9911 71.0633 96.7404 71.0633 95.7374 71.0633C94.9351 71.0633 94.7345 70.8945 94.7345 70.8101V70.0506C94.7345 69.5443 95.236 69.5443 95.7374 69.2911C96.2389 69.038 96.2389 68.2785 96.2389 67.2658C96.2389 66.2532 95.4867 66 94.4837 66C93.4808 66 92.4778 67.2658 91.9764 67.7721C91.4749 68.2785 91.7256 69.038 91.9764 69.5443C92.2271 70.0506 93.23 69.5443 93.23 70.3038C93.23 70.9114 92.7286 70.8945 92.4778 70.8101H91.7256C90.7227 70.8101 90.1376 71.4852 89.9704 71.8228C89.8869 71.9916 89.5693 72.5316 88.9675 73.3418C88.3657 74.1519 87.881 73.6793 87.7138 73.3418L86.4601 72.3291C85.7079 71.8228 86.0422 71.4008 86.2094 71.0633V68.5316C86.2094 67.7721 85.4571 67.7721 84.7049 67.7721C83.9527 67.7721 83.702 69.038 84.4542 69.2911C85.2064 69.5443 85.2064 69.038 85.2064 69.7975C85.2064 71.3164 84.9557 70.8101 84.7049 71.5696C84.5043 72.1772 84.9557 72.6667 85.2064 72.8354C85.7915 73.3418 87.0619 74.4557 87.4631 74.8607C87.9645 75.3671 87.7138 75.3671 88.9675 75.3671C90.2212 75.3671 90.7227 72.3291 91.7256 72.3291C92.528 72.3291 92.7286 72.8354 92.7286 73.0886C92.8122 75.789 92.9292 81.3417 92.7286 81.9493C92.528 82.5569 92.1435 82.2025 91.9764 81.9493C91.3913 81.2742 90.0707 79.7722 89.469 79.1646C88.7167 78.4051 87.9645 77.8987 86.9616 78.6582C86.1592 79.2658 86.7944 80.2616 87.2123 80.6836L90.4719 83.7215H87.2123C86.2094 83.7215 85.2064 83.9747 85.2064 84.9873C85.2064 85.7975 86.3765 86 86.9616 86Z" fill="#2E2E2E" stroke="#2E2E2E" stroke-width="0.46988"/>
<path d="M18.1064 83.5904C17.1702 78.7711 17.5603 74.0321 17.8724 72.2651C17.3107 73.2289 16.3901 73.1486 16 72.988V72.2651C17.6383 72.2651 16.7021 69.8554 16.9362 68.6506C17.1702 67.4458 17.6383 66 19.7447 66C21.4298 66 21.617 67.4458 21.617 68.1687C21.617 68.6506 21.383 69.8554 20.4468 69.8554C19.2766 69.8554 18.3404 70.5783 19.2766 71.5422C20.2128 72.506 20.2128 73.2289 20.2128 76.1205C20.2128 79.012 19.2766 81.4217 20.4468 81.4217C21.383 81.4217 22.5532 79.9759 23.0213 79.253C23.4894 78.5301 24.6128 77.2289 25.3617 77.8072C26.2979 78.5301 24.5532 80.3629 23.9574 81.1807C23.2553 82.1446 22.7872 84.7952 24.4255 84.7952C26.0638 84.7952 27 84.5542 27 85.2771C27 85.8554 26.5319 86 26.2979 86H17.4043C16.7021 86 16.7021 84.7952 17.4043 84.7952C18.3404 84.7952 18.2624 83.992 18.1064 83.5904Z" fill="#2E2E2E" stroke="#2E2E2E" stroke-width="0.46988"/>
<path d="M108.894 83.5904C109.83 78.7711 109.44 74.0321 109.128 72.2651C109.689 73.2289 110.61 73.1486 111 72.988V72.2651C109.362 72.2651 110.298 69.8554 110.064 68.6506C109.83 67.4458 109.362 66 107.255 66C105.57 66 105.383 67.4458 105.383 68.1687C105.383 68.6506 105.617 69.8554 106.553 69.8554C107.723 69.8554 108.66 70.5783 107.723 71.5422C106.787 72.506 106.787 73.2289 106.787 76.1205C106.787 79.012 107.723 81.4217 106.553 81.4217C105.617 81.4217 104.447 79.9759 103.979 79.253C103.511 78.5301 102.387 77.2289 101.638 77.8072C100.702 78.5301 102.447 80.3629 103.043 81.1807C103.745 82.1446 104.213 84.7952 102.574 84.7952C100.936 84.7952 100 84.5542 100 85.2771C100 85.8554 100.468 86 100.702 86H109.596C110.298 86 110.298 84.7952 109.596 84.7952C108.66 84.7952 108.738 83.992 108.894 83.5904Z" fill="#2E2E2E" stroke="#2E2E2E" stroke-width="0.46988"/>
<rect x="16.5" y="90.5" width="2" height="5" fill="#2E2E2E" stroke="#2E2E2E"/>
<rect x="27.5" y="90.5" width="2" height="5" fill="#2E2E2E" stroke="#2E2E2E"/>
<rect x="38.5" y="90.5" width="2" height="5" fill="#2E2E2E" stroke="#2E2E2E"/>
<path d="M75.472 87.5C75.272 89.2842 74.0072 90.953 71.9303 92.231C69.6686 93.6228 66.5126 94.5 63 94.5C59.4874 94.5 56.3314 93.6228 54.0697 92.231C51.9928 90.953 50.728 89.2842 50.528 87.5H75.472Z" fill="#2E2E2E" stroke="#2E2E2E"/>
<path d="M91.4285 62.5C91.2977 62.048 90.9904 61.6251 90.5284 61.2787C89.8991 60.8067 89.0068 60.5 88 60.5C86.9932 60.5 86.1009 60.8067 85.4716 61.2787C85.0096 61.6251 84.7023 62.048 84.5715 62.5H91.4285Z" fill="#2E2E2E" stroke="#2E2E2E"/>
<mask id="path-100-inside-2_544_45470" fill="white">
<path fill-rule="evenodd" clip-rule="evenodd" d="M111 52H84V58C84 55.7909 86.9101 54 90.5 54C94.0899 54 97 55.7909 97 58H98C98 55.7909 100.91 54 104.5 54C108.09 54 111 55.7909 111 58V52Z"/>
</mask>
<path fill-rule="evenodd" clip-rule="evenodd" d="M111 52H84V58C84 55.7909 86.9101 54 90.5 54C94.0899 54 97 55.7909 97 58H98C98 55.7909 100.91 54 104.5 54C108.09 54 111 55.7909 111 58V52Z" fill="#2E2E2E"/>
<path d="M84 52V51H83V52H84ZM111 52H112V51H111V52ZM97 58H96V59H97V58ZM98 58V59H99V58H98ZM84 53H111V51H84V53ZM85 58V52H83V58H85ZM90.5 53C88.5505 53 86.7377 53.4843 85.3797 54.3199C84.0379 55.1456 83 56.4187 83 58H85C85 57.3722 85.4171 56.6452 86.4279 56.0232C87.4225 55.4112 88.8597 55 90.5 55V53ZM98 58C98 56.4187 96.9621 55.1456 95.6203 54.3199C94.2623 53.4843 92.4495 53 90.5 53V55C92.1403 55 93.5775 55.4112 94.5721 56.0232C95.5829 56.6452 96 57.3722 96 58H98ZM98 57H97V59H98V57ZM104.5 53C102.55 53 100.738 53.4843 99.3797 54.3199C98.0379 55.1456 97 56.4187 97 58H99C99 57.3722 99.4171 56.6452 100.428 56.0232C101.422 55.4112 102.86 55 104.5 55V53ZM112 58C112 56.4187 110.962 55.1456 109.62 54.3199C108.262 53.4843 106.45 53 104.5 53V55C106.14 55 107.578 55.4112 108.572 56.0232C109.583 56.6452 110 57.3722 110 58H112ZM110 52V58H112V52H110Z" fill="#2E2E2E" mask="url(#path-100-inside-2_544_45470)"/>
<path d="M110.428 62.5C110.298 62.048 109.99 61.6251 109.528 61.2787C108.899 60.8067 108.007 60.5 107 60.5C105.993 60.5 105.101 60.8067 104.472 61.2787C104.01 61.6251 103.702 62.048 103.572 62.5H110.428Z" fill="#2E2E2E" stroke="#2E2E2E"/>
<path d="M50 57.0096C53.7356 54.1701 64.5 49.5 75 57.0097C74.1379 57.542 64 65.0002 50 57.0096Z" stroke="#2E2E2E" stroke-linejoin="round"/>
<rect x="50.5" y="115.5" width="2" height="5" fill="#2E2E2E" stroke="#2E2E2E"/>
<rect x="61.5" y="115.5" width="2" height="5" fill="#2E2E2E" stroke="#2E2E2E"/>
<rect x="72.5" y="115.5" width="2" height="5" fill="#2E2E2E" stroke="#2E2E2E"/>
<path d="M50.5 131.5H75.5C74.8333 129.667 71.8 126 65 126C58.2 126 52.8333 126 51 126" stroke="#2E2E2E" stroke-linecap="round" stroke-linejoin="round"/>
<path d="M-19 108.5H6C5.33333 106.667 2.3 103 -4.5 103C-11.3 103 -16.6667 103 -18.5 103" stroke="#2E2E2E" stroke-linecap="round" stroke-linejoin="round"/>
<path d="M6 119L-19 119C-18.3333 120.833 -15.3 124.5 -8.5 124.5C-1.7 124.5 3.66667 124.5 5.5 124.5" stroke="#2E2E2E" stroke-linecap="round" stroke-linejoin="round"/>
<path d="M6 136L-19 136C-18.3333 137.833 -15.3 141.5 -8.5 141.5C-1.7 141.5 3.66667 141.5 5.5 141.5" stroke="#2E2E2E" stroke-linecap="round" stroke-linejoin="round"/>
<path d="M97.9923 142.208C97.9923 141.917 97.8212 141.333 97.1368 141.333C96.2813 141.333 95.9961 141.625 95.9961 142.792C95.9961 143.958 96.8516 144.25 97.1368 144.25C97.422 144.25 99.133 144.542 99.7033 143.083C100.274 141.625 99.9884 140.75 99.133 139.875C98.2775 139 97.7071 139 96.8516 139C95.9961 139 94 139.875 94 141.625C94 143.025 94 143.181 94 143.083C94.0951 144.056 94.8555 146 96.2813 146C98.2775 146 98.8478 146 99.9884 145.125" stroke="#2E2E2E" stroke-width="0.7" stroke-linecap="round" stroke-linejoin="round"/>
<path d="M125.254 144.991L124.862 144.991C123.929 145.052 123.88 144.794 123.88 144.598C123.88 144.476 124.862 143.812 124.665 143.616C124.469 143.42 124.469 143.42 123.683 144.009C122.898 144.598 122.505 144.794 121.916 144.402C121.445 144.087 122.112 143.223 122.505 142.831C123.16 142.307 124.626 140.749 125.254 138.707C126.04 136.154 127.611 134.387 129.574 132.423C131.145 130.852 133.633 130.329 134.68 130.263C134.418 130.067 133.973 129.438 134.287 128.496C134.68 127.318 135.858 126.728 137.429 127.121C139 127.514 139 128.888 139 129.674C139 130.459 138.411 130.656 137.429 132.03C136.447 133.405 136.251 133.798 135.465 135.172C134.68 136.547 134.876 137.921 134.876 138.511C134.876 139.1 135.073 139.1 134.287 139.492C133.502 139.885 133.305 138.118 132.716 138.511C132.127 138.903 133.502 139.689 132.52 140.278C131.538 140.867 131.342 139.492 130.753 139.492C130.163 139.492 126.825 143.223 126.236 144.205C125.765 144.991 125.451 144.991 125.254 144.991Z" fill="#2E2E2E" stroke="#2E2E2E" stroke-width="0.409904"/>
<path d="M134.484 139.492L136.447 143.027H138.607" stroke="#2E2E2E" stroke-width="0.6" stroke-linecap="round" stroke-linejoin="round"/>
<path d="M132.52 140.278L133.894 143.42H135.073" stroke="#2E2E2E" stroke-width="0.6" stroke-linecap="round" stroke-linejoin="round"/>
<path d="M120 107.287H123.821C124.046 106.763 125.26 105.669 128.317 105.489L135.959 105.04C137.457 104.89 140.769 105.085 142.028 107.063C143.108 108.76 143.934 109.255 144.336 109.313C144.399 109.311 144.453 109.31 144.5 109.31C144.458 109.321 144.403 109.323 144.336 109.313C143.798 109.332 142.706 109.437 141.578 109.76C140.005 110.209 137.982 111.108 133.486 110.884C128.991 110.659 126.069 109.76 123.821 107.962H120.674L120 107.287Z" fill="#2E2E2E" stroke="#2E2E2E"/>
<circle cx="134.385" cy="107.962" r="1.74771" fill="#2E2E2E" stroke="#2E2E2E"/>
<circle cx="127.518" cy="111.674" r="0.5" fill="#2E2E2E" stroke="#2E2E2E" stroke-width="0.348624"/>
<circle cx="134.826" cy="112.826" r="0.5" transform="rotate(-15 134.826 112.826)" fill="#2E2E2E" stroke="#2E2E2E" stroke-width="0.348624"/>
<circle cx="127.069" cy="113.473" r="0.5" fill="#2E2E2E" stroke="#2E2E2E" stroke-width="0.348624"/>
<circle cx="134.857" cy="114.679" r="0.5" transform="rotate(-15 134.857 114.679)" fill="#2E2E2E" stroke="#2E2E2E" stroke-width="0.348624"/>
<circle cx="126.619" cy="115.271" r="0.5" fill="#2E2E2E" stroke="#2E2E2E" stroke-width="0.348624"/>
<circle cx="134.888" cy="116.532" r="0.5" transform="rotate(-15 134.888 116.532)" fill="#2E2E2E" stroke="#2E2E2E" stroke-width="0.348624"/>
<circle cx="126.17" cy="117.069" r="0.5" fill="#2E2E2E" stroke="#2E2E2E" stroke-width="0.348624"/>
<circle cx="134.919" cy="118.386" r="0.5" transform="rotate(-15 134.919 118.386)" fill="#2E2E2E" stroke="#2E2E2E" stroke-width="0.348624"/>
<path d="M125.961 120.938C125.943 121.032 125.851 121.094 125.757 121.076C125.662 121.058 125.6 120.966 125.619 120.872L125.619 120.872C125.619 120.872 125.619 120.869 125.621 120.864C125.622 120.858 125.624 120.85 125.627 120.84C125.634 120.819 125.642 120.793 125.654 120.76C125.677 120.696 125.709 120.615 125.749 120.524C125.804 120.396 125.871 120.252 125.943 120.108C125.957 120.269 125.965 120.427 125.969 120.567C125.972 120.666 125.972 120.752 125.969 120.821C125.968 120.855 125.967 120.883 125.965 120.905C125.964 120.915 125.963 120.924 125.962 120.93C125.961 120.935 125.961 120.938 125.961 120.938Z" fill="#2E2E2E" stroke="#2E2E2E"/>
<path d="M135.149 122.023C135.149 122.119 135.071 122.197 134.974 122.197C134.878 122.197 134.8 122.119 134.8 122.023L134.8 122.023C134.8 122.023 134.8 122.02 134.8 122.015C134.801 122.009 134.801 122.001 134.803 121.99C134.805 121.969 134.808 121.941 134.814 121.907C134.824 121.839 134.841 121.754 134.862 121.657C134.892 121.521 134.931 121.367 134.974 121.212C135.018 121.367 135.057 121.521 135.087 121.657C135.108 121.754 135.124 121.839 135.135 121.907C135.14 121.941 135.144 121.969 135.146 121.99C135.147 122.001 135.148 122.009 135.148 122.015C135.149 122.02 135.149 122.023 135.149 122.023Z" fill="#2E2E2E" stroke="#2E2E2E"/>
<path d="M15 109H41.4614" stroke="#2E2E2E" stroke-linecap="round"/>
<circle cx="21.8407" cy="111.802" r="0.5" fill="#2E2E2E" stroke="#2E2E2E" stroke-width="0.681312"/>
<circle cx="27.5221" cy="111.802" r="0.5" fill="#2E2E2E" stroke="#2E2E2E" stroke-width="0.681312"/>
<circle cx="33.2034" cy="111.802" r="0.5" fill="#2E2E2E" stroke="#2E2E2E" stroke-width="0.681312"/>
<path d="M15 103H41.4614" stroke="#2E2E2E" stroke-linecap="round"/>
<circle cx="21.8407" cy="105.841" r="0.5" fill="#2E2E2E" stroke="#2E2E2E" stroke-width="0.681312"/>
<circle cx="27.5221" cy="105.841" r="0.5" fill="#2E2E2E" stroke="#2E2E2E" stroke-width="0.681312"/>
<circle cx="33.2034" cy="105.802" r="0.5" fill="#2E2E2E" stroke="#2E2E2E" stroke-width="0.681312"/>
<path d="M11 99V149" stroke="#2E2E2E" stroke-linecap="round"/>
<path d="M46 99V149" stroke="#2E2E2E" stroke-linecap="round"/>
<path d="M80 99V149" stroke="#2E2E2E" stroke-linecap="round"/>
<path d="M115 99V149" stroke="#2E2E2E" stroke-linecap="round"/>
<path d="M40.0384 136H29.2567C29.8584 134.785 32.1819 134.143 33.2685 133.975C32.0649 133.975 31.9312 132.287 32.0148 131.443V123.342C32.0148 122.835 31.764 122.329 31.2626 122.329C30.8614 122.329 30.5939 122.667 30.5103 122.835C30.0089 123.679 28.8708 125.418 28.8708 125.62C28.8708 125.823 29.3402 125.873 29.5074 125.873H29.9381C30.4395 125.873 31.0053 125.915 31.0053 126.522C31.0053 127.6 30.356 127.392 29.9381 127.392H28.003C27.2507 127.392 27 127.139 27 126.38C27 125.772 27.3343 125.283 27.5015 125.114C28.003 124.27 29.1062 122.43 29.5074 121.823C30.0089 121.063 30.2596 121.063 31.2626 121.063C32.0649 121.063 32.2655 120.895 32.2655 120.81V120.051C32.2655 119.544 31.764 119.544 31.2626 119.291C30.7611 119.038 30.7611 118.278 30.7611 117.266C30.7611 116.253 31.5133 116 32.5163 116C33.5192 116 34.5222 117.266 35.0236 117.772C35.5251 118.278 35.2744 119.038 35.0236 119.544C34.7729 120.051 33.77 119.544 33.77 120.304C33.77 120.911 34.2714 120.895 34.5222 120.81H35.2744C36.2773 120.81 36.8624 121.485 37.0296 121.823C37.1131 121.992 37.4307 122.532 38.0325 123.342C38.6343 124.152 39.119 123.679 39.2862 123.342L40.5399 122.329C41.2921 121.823 40.9578 121.401 40.7906 121.063V118.532C40.7906 117.772 41.5429 117.772 42.2951 117.772C43.0473 117.772 43.298 119.038 42.5458 119.291C41.7936 119.544 41.7936 119.038 41.7936 119.797C41.7936 121.316 42.0443 120.81 42.2951 121.57C42.4957 122.177 42.0443 122.667 41.7936 122.835C41.2085 123.342 39.9381 124.456 39.5369 124.861C39.0355 125.367 39.2862 125.367 38.0325 125.367C36.7788 125.367 36.2773 122.329 35.2744 122.329C34.472 122.329 34.2714 122.835 34.2714 123.089C34.1878 125.789 34.0708 131.342 34.2714 131.949C34.472 132.557 34.8565 132.203 35.0236 131.949C35.6087 131.274 36.9293 129.772 37.531 129.165C38.2833 128.405 39.0355 127.899 40.0384 128.658C40.8408 129.266 40.2056 130.262 39.7877 130.684L36.5281 133.722H39.7877C40.7906 133.722 41.7936 133.975 41.7936 134.987C41.7936 135.797 40.6235 136 40.0384 136Z" fill="#2E2E2E" stroke="#2E2E2E" stroke-width="0.46988"/>
<path d="M86.9616 136H97.7433C97.1416 134.785 94.8181 134.143 93.7315 133.975C94.9351 133.975 95.0688 132.287 94.9852 131.443V123.342C94.9852 122.835 95.236 122.329 95.7374 122.329C96.1386 122.329 96.4061 122.667 96.4897 122.835C96.9911 123.679 98.1292 125.418 98.1292 125.62C98.1292 125.823 97.6598 125.873 97.4926 125.873H97.0619C96.5605 125.873 95.9947 125.915 95.9947 126.522C95.9947 127.6 96.644 127.392 97.0619 127.392H98.997C99.7493 127.392 100 127.139 100 126.38C100 125.772 99.6657 125.283 99.4985 125.114C98.997 124.27 97.8938 122.43 97.4926 121.823C96.9911 121.063 96.7404 121.063 95.7374 121.063C94.9351 121.063 94.7345 120.895 94.7345 120.81V120.051C94.7345 119.544 95.236 119.544 95.7374 119.291C96.2389 119.038 96.2389 118.278 96.2389 117.266C96.2389 116.253 95.4867 116 94.4837 116C93.4808 116 92.4778 117.266 91.9764 117.772C91.4749 118.278 91.7256 119.038 91.9764 119.544C92.2271 120.051 93.23 119.544 93.23 120.304C93.23 120.911 92.7286 120.895 92.4778 120.81H91.7256C90.7227 120.81 90.1376 121.485 89.9704 121.823C89.8869 121.992 89.5693 122.532 88.9675 123.342C88.3657 124.152 87.881 123.679 87.7138 123.342L86.4601 122.329C85.7079 121.823 86.0422 121.401 86.2094 121.063V118.532C86.2094 117.772 85.4571 117.772 84.7049 117.772C83.9527 117.772 83.702 119.038 84.4542 119.291C85.2064 119.544 85.2064 119.038 85.2064 119.797C85.2064 121.316 84.9557 120.81 84.7049 121.57C84.5043 122.177 84.9557 122.667 85.2064 122.835C85.7915 123.342 87.0619 124.456 87.4631 124.861C87.9645 125.367 87.7138 125.367 88.9675 125.367C90.2212 125.367 90.7227 122.329 91.7256 122.329C92.528 122.329 92.7286 122.835 92.7286 123.089C92.8122 125.789 92.9292 131.342 92.7286 131.949C92.528 132.557 92.1435 132.203 91.9764 131.949C91.3913 131.274 90.0707 129.772 89.469 129.165C88.7167 128.405 87.9645 127.899 86.9616 128.658C86.1592 129.266 86.7944 130.262 87.2123 130.684L90.4719 133.722H87.2123C86.2094 133.722 85.2064 133.975 85.2064 134.987C85.2064 135.797 86.3765 136 86.9616 136Z" fill="#2E2E2E" stroke="#2E2E2E" stroke-width="0.46988"/>
<path d="M18.1064 133.59C17.1702 128.771 17.5603 124.032 17.8724 122.265C17.3107 123.229 16.3901 123.149 16 122.988V122.265C17.6383 122.265 16.7021 119.855 16.9362 118.651C17.1702 117.446 17.6383 116 19.7447 116C21.4298 116 21.617 117.446 21.617 118.169C21.617 118.651 21.383 119.855 20.4468 119.855C19.2766 119.855 18.3404 120.578 19.2766 121.542C20.2128 122.506 20.2128 123.229 20.2128 126.12C20.2128 129.012 19.2766 131.422 20.4468 131.422C21.383 131.422 22.5532 129.976 23.0213 129.253C23.4894 128.53 24.6128 127.229 25.3617 127.807C26.2979 128.53 24.5532 130.363 23.9574 131.181C23.2553 132.145 22.7872 134.795 24.4255 134.795C26.0638 134.795 27 134.554 27 135.277C27 135.855 26.5319 136 26.2979 136H17.4043C16.7021 136 16.7021 134.795 17.4043 134.795C18.3404 134.795 18.2624 133.992 18.1064 133.59Z" fill="#2E2E2E" stroke="#2E2E2E" stroke-width="0.46988"/>
<path d="M108.894 133.59C109.83 128.771 109.44 124.032 109.128 122.265C109.689 123.229 110.61 123.149 111 122.988V122.265C109.362 122.265 110.298 119.855 110.064 118.651C109.83 117.446 109.362 116 107.255 116C105.57 116 105.383 117.446 105.383 118.169C105.383 118.651 105.617 119.855 106.553 119.855C107.723 119.855 108.66 120.578 107.723 121.542C106.787 122.506 106.787 123.229 106.787 126.12C106.787 129.012 107.723 131.422 106.553 131.422C105.617 131.422 104.447 129.976 103.979 129.253C103.511 128.53 102.387 127.229 101.638 127.807C100.702 128.53 102.447 130.363 103.043 131.181C103.745 132.145 104.213 134.795 102.574 134.795C100.936 134.795 100 134.554 100 135.277C100 135.855 100.468 136 100.702 136H109.596C110.298 136 110.298 134.795 109.596 134.795C108.66 134.795 108.738 133.992 108.894 133.59Z" fill="#2E2E2E" stroke="#2E2E2E" stroke-width="0.46988"/>
<path d="M75.472 137.5C75.272 139.284 74.0072 140.953 71.9303 142.231C69.6686 143.623 66.5126 144.5 63 144.5C59.4874 144.5 56.3314 143.623 54.0697 142.231C51.9928 140.953 50.728 139.284 50.528 137.5H75.472Z" fill="#2E2E2E" stroke="#2E2E2E"/>
<path d="M91.4285 112.5C91.2977 112.048 90.9904 111.625 90.5284 111.279C89.8991 110.807 89.0068 110.5 88 110.5C86.9932 110.5 86.1009 110.807 85.4716 111.279C85.0096 111.625 84.7023 112.048 84.5715 112.5H91.4285Z" fill="#2E2E2E" stroke="#2E2E2E"/>
<mask id="path-145-inside-3_544_45470" fill="white">
<path fill-rule="evenodd" clip-rule="evenodd" d="M111 102H84V108C84 105.791 86.9101 104 90.5 104C94.0899 104 97 105.791 97 108H98C98 105.791 100.91 104 104.5 104C108.09 104 111 105.791 111 108V102Z"/>
</mask>
<path fill-rule="evenodd" clip-rule="evenodd" d="M111 102H84V108C84 105.791 86.9101 104 90.5 104C94.0899 104 97 105.791 97 108H98C98 105.791 100.91 104 104.5 104C108.09 104 111 105.791 111 108V102Z" fill="#2E2E2E"/>
<path d="M84 102V101H83V102H84ZM111 102H112V101H111V102ZM97 108H96V109H97V108ZM98 108V109H99V108H98ZM84 103H111V101H84V103ZM85 108V102H83V108H85ZM90.5 103C88.5505 103 86.7377 103.484 85.3797 104.32C84.0379 105.146 83 106.419 83 108H85C85 107.372 85.4171 106.645 86.4279 106.023C87.4225 105.411 88.8597 105 90.5 105V103ZM98 108C98 106.419 96.9621 105.146 95.6203 104.32C94.2623 103.484 92.4495 103 90.5 103V105C92.1403 105 93.5775 105.411 94.5721 106.023C95.5829 106.645 96 107.372 96 108H98ZM98 107H97V109H98V107ZM104.5 103C102.55 103 100.738 103.484 99.3797 104.32C98.0379 105.146 97 106.419 97 108H99C99 107.372 99.4171 106.645 100.428 106.023C101.422 105.411 102.86 105 104.5 105V103ZM112 108C112 106.419 110.962 105.146 109.62 104.32C108.262 103.484 106.45 103 104.5 103V105C106.14 105 107.578 105.411 108.572 106.023C109.583 106.645 110 107.372 110 108H112ZM110 102V108H112V102H110Z" fill="#2E2E2E" mask="url(#path-145-inside-3_544_45470)"/>
<path d="M110.428 112.5C110.298 112.048 109.99 111.625 109.528 111.279C108.899 110.807 108.007 110.5 107 110.5C105.993 110.5 105.101 110.807 104.472 111.279C104.01 111.625 103.702 112.048 103.572 112.5H110.428Z" fill="#2E2E2E" stroke="#2E2E2E"/>
<path d="M50 107.01C53.7356 104.17 64.5 99.5 75 107.01C74.1379 107.542 64 115 50 107.01Z" stroke="#2E2E2E" stroke-linejoin="round"/>
<g filter="url(#filter0_dd_544_45470)">
<circle cx="70" cy="72" r="16" fill="#F2F2F2"/>
</g>
<circle cx="70" cy="72" r="13" fill="#F2F2F2"/>
<g opacity="0.3" filter="url(#filter1_f_544_45470)">
<path fill-rule="evenodd" clip-rule="evenodd" d="M64.9709 63.5845C64.9709 63.3825 65.1347 63.2188 65.3367 63.2188H66.7081C68.4249 63.2188 69.8167 64.6105 69.8167 66.3273V77.2989C69.8167 79.0157 68.4249 80.4075 66.7081 80.4075H65.3367C65.1347 80.4075 64.9709 80.2437 64.9709 80.0418C64.9709 79.8398 65.1347 79.676 65.3367 79.676H66.7081C68.0209 79.676 69.0852 78.6117 69.0852 77.2989V66.3273C69.0852 65.0145 68.021 63.9502 66.7081 63.9502H65.3367C65.1347 63.9502 64.9709 63.7864 64.9709 63.5845Z" fill="#EC80FF"/>
<path fill-rule="evenodd" clip-rule="evenodd" d="M75.0281 63.5845C75.0281 63.3825 74.8644 63.2188 74.6624 63.2188H73.2909C71.5741 63.2188 70.1824 64.6105 70.1824 66.3273V77.2989C70.1824 79.0157 71.5741 80.4075 73.2909 80.4075H74.6624C74.8644 80.4075 75.0281 80.2437 75.0281 80.0418C75.0281 79.8398 74.8644 79.676 74.6624 79.676H73.2909C71.9781 79.676 70.9138 78.6117 70.9138 77.2989V66.3273C70.9138 65.0145 71.9781 63.9502 73.2909 63.9502H74.6624C74.8644 63.9502 75.0281 63.7864 75.0281 63.5845Z" fill="#EC80FF"/>
<path d="M67.2567 68.5217C67.2567 67.3098 68.2391 66.3273 69.4509 66.3273H70.5481C71.76 66.3273 72.7424 67.3098 72.7424 68.5217V75.1046C72.7424 76.3165 71.76 77.2989 70.5481 77.2989H69.4509C68.2391 77.2989 67.2567 76.3165 67.2567 75.1046V68.5217Z" fill="#EC80FF"/>
<path d="M65.2909 63.5845C65.2909 63.5592 65.3114 63.5388 65.3367 63.5388H66.7081C68.14 63.5388 69.3198 64.618 69.4785 66.0073H69.4509C69.4294 66.0073 69.4079 66.0076 69.3865 66.0082C69.2287 64.669 68.0897 63.6302 66.7081 63.6302H65.3367C65.3114 63.6302 65.2909 63.6097 65.2909 63.5845ZM69.4509 66.6474H69.4967V76.9789H69.4509C69.4357 76.9789 69.4204 76.9787 69.4052 76.9783V66.6479C69.4204 66.6475 69.4357 66.6474 69.4509 66.6474ZM69.4509 77.6189H69.4785C69.3198 79.0083 68.14 80.0875 66.7081 80.0875H65.3367C65.3114 80.0875 65.2909 80.067 65.2909 80.0418C65.2909 80.0165 65.3114 79.996 65.3367 79.996H66.7081C68.0897 79.996 69.2287 78.9572 69.3865 77.6181C69.4079 77.6186 69.4294 77.6189 69.4509 77.6189ZM68.7652 66.7768V76.8495C68.0693 76.5758 67.5767 75.8977 67.5767 75.1046V68.5217C67.5767 67.7285 68.0693 67.0505 68.7652 66.7768ZM70.5024 76.9789V66.6474H70.5481C70.5634 66.6474 70.5786 66.6475 70.5938 66.6479V76.9783C70.5786 76.9787 70.5634 76.9789 70.5481 76.9789H70.5024ZM70.6125 66.0082C70.5911 66.0076 70.5696 66.0073 70.5481 66.0073H70.5205C70.6793 64.618 71.8591 63.5388 73.2909 63.5388H74.6624C74.6876 63.5388 74.7081 63.5592 74.7081 63.5845C74.7081 63.6097 74.6876 63.6302 74.6624 63.6302H73.2909C71.9094 63.6302 70.7704 64.669 70.6125 66.0082ZM71.2338 76.8495V66.7768C71.9298 67.0505 72.4224 67.7285 72.4224 68.5217V75.1046C72.4224 75.8977 71.9298 76.5758 71.2338 76.8495ZM70.5481 77.6189C70.5696 77.6189 70.5911 77.6186 70.6125 77.6181C70.7704 78.9572 71.9094 79.996 73.2909 79.996H74.6624C74.6876 79.996 74.7081 80.0165 74.7081 80.0418C74.7081 80.067 74.6876 80.0875 74.6624 80.0875H73.2909C71.8591 80.0875 70.6793 79.0083 70.5205 77.6189H70.5481Z" stroke="black" stroke-width="0.640003"/>
</g>
<path d="M65.3906 63.6378H67.1049C68.4304 63.6378 69.5049 64.7123 69.5049 66.0378V77.6951C69.5049 79.0206 68.4304 80.0951 67.1049 80.0951H65.3906" stroke="black" stroke-width="0.6" stroke-linecap="round"/>
<path d="M74.6071 63.6378H72.8928C71.5673 63.6378 70.4928 64.7123 70.4928 66.0378V77.6951C70.4928 79.0206 71.5673 80.0951 72.8928 80.0951H74.6071" stroke="black" stroke-width="0.6" stroke-linecap="round"/>
<rect x="67.5967" y="66.6811" width="4.84571" height="10.3315" rx="1.60001" fill="#1A1A1A" stroke="black" stroke-width="0.640003"/>
<mask id="mask0_544_45470" style="mask-type:alpha" maskUnits="userSpaceOnUse" x="67" y="66" width="6" height="12">
<rect x="67.5937" y="66.6815" width="4.84571" height="10.3315" rx="1.60001" fill="black" stroke="white" stroke-width="0.640003"/>
</mask>
<g mask="url(#mask0_544_45470)">
<path opacity="0.4" d="M69.7238 64.9382C67.2785 62.4929 64.259 63.9193 63.0549 64.9382V78.078H77.041V64.9382C75.6208 65.957 72.169 67.3834 69.7238 64.9382Z" fill="#875CFF" stroke="black" stroke-width="0.183334"/>
<path opacity="0.6" d="M69.7238 70.1764C67.2785 67.7312 64.259 69.1576 63.0549 70.1764V77.0306H77.041V70.1764C75.6208 71.1953 72.169 72.6217 69.7238 70.1764Z" fill="#A864FF" stroke="white" stroke-width="0.183334"/>
<path opacity="0.6" d="M70.3727 73.7389C72.8179 71.2937 75.8374 72.7201 77.0415 73.7389V80.5931H63.0555V73.7389C64.4757 74.7578 67.9274 76.1842 70.3727 73.7389Z" fill="#EC98FF" stroke="white" stroke-width="0.183334"/>
</g>
<rect x="67.5059" y="66.5903" width="5.02738" height="10.5132" rx="1.69084" stroke="black" stroke-width="0.458334"/>
<path fill-rule="evenodd" clip-rule="evenodd" d="M44.5 53C45.8807 53 47 51.8807 47 50.5C47 51.8807 48.1193 53 49.5 53C48.1193 53 47 54.1193 47 55.5C47 54.1193 45.8807 53 44.5 53Z" fill="white"/>
<path d="M42 53H43.25M50.75 53H52M47 58V56.75M47 49.25V48" stroke="white" stroke-width="0.5"/>
<path fill-rule="evenodd" clip-rule="evenodd" d="M35.5 80C36.3284 80 37 79.3284 37 78.5C37 79.3284 37.6716 80 38.5 80C37.6716 80 37 80.6716 37 81.5C37 80.6716 36.3284 80 35.5 80Z" fill="white"/>
<path d="M34 80H34.75M39.25 80H40M37 83V82.25M37 77.75V77" stroke="white" stroke-width="0.5"/>
<path fill-rule="evenodd" clip-rule="evenodd" d="M98.5 59C99.3284 59 100 58.3284 100 57.5C100 58.3284 100.672 59 101.5 59C100.672 59 100 59.6716 100 60.5C100 59.6716 99.3284 59 98.5 59Z" fill="white"/>
<path d="M97 59H97.75M102.25 59H103M100 62V61.25M100 56.75V56" stroke="white" stroke-width="0.5"/>
<path fill-rule="evenodd" clip-rule="evenodd" d="M104 82C105.105 82 106 81.1046 106 80C106 81.1046 106.895 82 108 82C106.895 82 106 82.8954 106 84C106 82.8954 105.105 82 104 82Z" fill="white"/>
<path d="M102 82H103M109 82H110M106 86V85M106 79V78" stroke="white" stroke-width="0.5"/>
<circle cx="70" cy="70" r="69.5" stroke="#1A1A1A"/>
<path d="M7.88589 99.6373L-1.84009 104.126L4.14513 119.837L7.13773 118.341L11.6266 116.845L16.1156 115.348L21.3526 114.6H28.086L35.5675 116.097L44.5453 118.341L55.0195 120.586L64.7454 121.334L69.2336 120.586L78.2122 118.341L89.4344 113.851L96.9152 109.363V107.867L94.6708 107.119L95.4189 106.371L96.1671 104.874L94.6708 103.378H90.1819L92.4263 102.63L95.4189 100.385L93.9226 98.8891H89.4337L91.6782 97.3928L93.1745 95.8965L92.4263 94.4002H90.1819L84.1966 96.6447L75.2188 101.134L69.9818 102.63L69.2336 101.134L66.241 100.385L58.7595 96.6447L52.7743 93.6521L44.5446 92.1558H36.3149L26.589 93.6513L20.6045 95.1484L7.88589 99.6373Z" fill="white"/>
<path d="M3.89874 119.92C8.65946 117.074 21.6402 112.311 35.4776 116.028C52.7744 120.674 61.673 123.733 76.4011 118.729C86.7107 115.226 92.1181 112.322 94.1459 111.234C95.3127 110.704 97.5013 109.374 96.9207 108.293C95.953 106.49 93.0129 107.682 92.3315 107.854" stroke="black"/>
<path d="M62.4958 116.615C64.5568 116.67 69.9714 116.375 75.1416 114.76C80.3119 113.146 89.2064 109.241 93.0074 107.491C94.2146 107.036 96.5289 105.833 96.1285 104.654C95.3778 102.445 90.8467 104.007 89.3573 103.936" stroke="black"/>
<path d="M52.852 99.7338C60.7617 104.195 67.8957 105.589 69.7693 103.132C71.2682 101.166 67.5831 100.84 65.6686 99.819C64.8551 99.385 62.4312 98.6545 59.8698 97.1272C46.491 89.5072 32.7116 93.0349 24.9918 93.7932C15.6711 95.8947 6.16401 100.244 -2.05713 103.961" stroke="black"/>
<path d="M70 102C70.9526 101.972 73 101.5 76.5 100.364C79.8079 99.2901 82.8704 97.2594 83.997 96.6546C86.5852 95.1683 91.5 93.0001 93.0923 94.6741C94.4229 97.1525 89.6582 98.5495 86.2786 100.364C83.5749 101.815 80.9463 103.227 79.97 103.751C77.1856 105.052 71.8256 106.962 67.5993 107.199C63.7454 107.416 61.5262 106.88 61.2954 106.811" stroke="black"/>
<path d="M87.405 99.7596C89.1782 99.0979 94.3459 97.6587 94.9398 99.1974C95.6822 101.121 93.4125 101.759 90.2582 103.452C87.1038 105.146 81.0205 108.412 75.8052 110.051C71.633 111.362 64.5738 112.017 61.5657 112.181" stroke="black"/>
<path d="M133.075 47.7954L143.214 44.3375L138.887 28.0911L135.756 29.2696L131.136 30.2931L126.516 31.3167L121.23 31.5186L114.533 30.8215L107.246 28.5587L98.549 25.3969L88.3635 22.0801L78.7672 20.3291L74.2257 20.6085L65.0631 21.9114L53.4363 25.2151L45.531 28.9047L45.3761 30.393L47.5311 31.3695L46.7095 32.0361L45.8104 33.447L47.1438 35.0901L51.6086 35.5549L49.2987 36.0666L46.0898 37.9892L47.4232 39.6324L51.888 40.0971L49.5007 41.353L47.8575 42.6864L48.4467 44.2521L50.6791 44.4844L56.8646 42.8717L66.2589 39.3363L71.6227 38.3903L72.2119 39.956L75.111 41.0099L82.165 45.5051L87.8083 49.1013L95.8388 51.4416L104.024 52.2935L113.853 51.8129L119.96 50.9435L133.075 47.7954Z" fill="white"/>
<path d="M139.141 28.034C134.111 30.3719 120.707 33.7655 107.328 28.6362C90.6056 22.2247 82.0715 18.2606 66.9045 21.7134C56.2876 24.1304 50.6087 26.458 48.4791 27.3309C47.2637 27.7369 44.9492 28.833 45.4147 29.9687C46.1906 31.8617 49.2382 30.9811 49.9339 30.8802" stroke="black"/>
<path d="M80.5162 25.2549C78.472 24.9873 73.056 24.7198 67.7464 25.7906C62.4367 26.8614 53.1858 29.824 49.224 31.1714C47.9762 31.4986 45.5498 32.4563 45.826 33.6696C46.3439 35.9447 51.0124 34.8604 52.4864 35.0853" stroke="black"/>
<path d="M88.3605 43.0441C80.9552 37.7882 74.0039 35.6627 71.886 37.9126C70.1916 39.7125 73.8232 40.4184 75.6216 41.6325C76.3858 42.1484 78.721 43.1258 81.1106 44.9101C93.6286 53.8743 107.699 51.7921 115.456 51.8371C124.944 50.7118 134.85 47.3701 143.412 44.5242" stroke="black"/>
<path d="M71.5393 39.0148C70.589 38.9437 68.5037 39.2015 64.9049 39.9693C61.5036 40.6949 58.2473 42.3975 57.0642 42.8825C54.3359 44.0928 49.2231 45.7406 47.8126 43.9107C46.7458 41.3079 51.6295 40.4117 55.1788 38.9569C58.0183 37.7931 60.7788 36.6616 61.8042 36.2414C64.7083 35.2353 70.2372 33.8904 74.4654 34.092C78.321 34.2758 80.4728 35.0383 80.6952 35.1314" stroke="black"/>
<path d="M53.9958 39.4413C52.1636 39.9159 46.8747 40.8124 46.4433 39.2204C45.904 37.2305 48.2276 36.8309 51.5403 35.4731C54.8529 34.1153 61.2417 31.4968 66.5986 30.4066C70.8842 29.5344 77.9733 29.6136 80.9822 29.7622" stroke="black"/>
</g>
<rect x="0.5" y="0.5" width="139" height="139" rx="69.5" stroke="white"/>
<defs>
<filter id="filter0_dd_544_45470" x="34" y="36" width="72" height="72" filterUnits="userSpaceOnUse" color-interpolation-filters="sRGB">
<feFlood flood-opacity="0" result="BackgroundImageFix"/>
<feColorMatrix in="SourceAlpha" type="matrix" values="0 0 0 0 0 0 0 0 0 0 0 0 0 0 0 0 0 0 127 0" result="hardAlpha"/>
<feOffset/>
<feGaussianBlur stdDeviation="10"/>
<feComposite in2="hardAlpha" operator="out"/>
<feColorMatrix type="matrix" values="0 0 0 0 1 0 0 0 0 1 0 0 0 0 1 0 0 0 1 0"/>
<feBlend mode="normal" in2="BackgroundImageFix" result="effect1_dropShadow_544_45470"/>
<feColorMatrix in="SourceAlpha" type="matrix" values="0 0 0 0 0 0 0 0 0 0 0 0 0 0 0 0 0 0 127 0" result="hardAlpha"/>
<feOffset/>
<feGaussianBlur stdDeviation="2"/>
<feComposite in2="hardAlpha" operator="out"/>
<feColorMatrix type="matrix" values="0 0 0 0 1 0 0 0 0 1 0 0 0 0 1 0 0 0 0.5 0"/>
<feBlend mode="normal" in2="effect1_dropShadow_544_45470" result="effect2_dropShadow_544_45470"/>
<feBlend mode="normal" in="SourceGraphic" in2="effect2_dropShadow_544_45470" result="shape"/>
</filter>
<filter id="filter1_f_544_45470" x="59.4709" y="57.7187" width="21.0572" height="28.1887" filterUnits="userSpaceOnUse" color-interpolation-filters="sRGB">
<feFlood flood-opacity="0" result="BackgroundImageFix"/>
<feBlend mode="normal" in="SourceGraphic" in2="BackgroundImageFix" result="shape"/>
<feGaussianBlur stdDeviation="2.75001" result="effect1_foregroundBlur_544_45470"/>
</filter>
<clipPath id="clip0_544_45470">
<rect width="140" height="140" rx="70" fill="white"/>
</clipPath>
</defs>
</svg>
