<svg width="135" height="110" viewBox="0 0 135 110" fill="none" xmlns="http://www.w3.org/2000/svg">
<g clip-path="url(#clip0_6852_5903)">
<g clip-path="url(#clip1_6852_5903)">
<path fill-rule="evenodd" clip-rule="evenodd" d="M70.6694 1.10464L74.7748 3.48331L76.2968 6.72157L74.8356 9.91456V12.4839C75.6805 14.4685 74.7203 16.6604 71.9913 18.1767C67.9259 20.4355 61.4574 20.3755 57.5523 18.0368C56.5422 17.4319 55.8028 16.7321 55.3319 15.9878C55.9728 17.0358 57.1222 17.9669 58.6946 18.6745C59.5957 19.0943 60.4168 19.3141 60.4569 19.3141C60.7373 19.3941 61.1178 19.4941 61.4181 19.554C61.9619 19.6692 62.1125 19.6895 62.5504 19.7489C62.6447 19.7616 62.7524 19.7762 62.8801 19.7939C63.0983 19.825 63.3894 19.844 63.6399 19.8603C63.7111 19.865 63.7793 19.8694 63.8414 19.8739C64.4822 19.9138 64.5623 19.9138 65.2032 19.9138C65.5636 19.9138 66.2044 19.8739 67.1256 19.7739C67.1701 19.7658 67.239 19.7553 67.3282 19.7417C67.6812 19.6879 68.3528 19.5856 69.0883 19.3941C70.0696 19.1342 70.7704 18.8544 70.8906 18.7944C71.1309 18.6945 71.4514 18.5545 71.6716 18.4346C72.1242 18.19 72.2039 18.1402 72.6128 17.885L72.693 17.8349L72.7072 17.8256C72.817 17.7539 73.3817 17.3853 73.8745 16.8554C74.1349 16.5956 74.3552 16.3357 74.5354 16.0359C74.5555 15.9959 74.5856 15.9458 74.6157 15.8957C74.6457 15.8458 74.6756 15.7959 74.6956 15.756C74.7108 15.7259 74.7273 15.6936 74.7446 15.6598L74.7452 15.6586C74.8194 15.5137 74.9074 15.3418 74.956 15.1964C74.966 15.1564 74.981 15.1065 74.996 15.0566C75.011 15.0066 75.0261 14.9565 75.0361 14.9165C75.0762 14.7566 75.1162 14.5367 75.1362 14.3768C75.1362 14.3643 75.138 14.3424 75.1404 14.3122C75.1484 14.2095 75.164 14.0116 75.1449 13.768C75.7992 20.6661 76.5398 27.5012 77.2961 34.3235L99.4223 47.0744V44.3221L100.232 42.7056L102.661 41.089H104.281L106.305 41.8973L109.949 48.3635L110.695 53.5704L133.685 66.8196C134.719 67.4153 134.724 68.378 133.697 68.9737L69.7754 106.052C68.7507 106.647 67.0806 106.647 66.0494 106.052L1.70901 68.9737C0.677711 68.378 0.671055 67.4153 1.69793 66.8196L52.3438 37.4419L52.4139 36.7969C53.1848 29.6996 53.9672 22.4964 54.7141 14.0954C54.6926 13.5697 54.7914 13.0426 55.0097 12.5294V9.10961L53.8876 6.72206L53.9116 6.71228L55.3892 3.48331L55.3932 3.48104L55.3699 3.48419L59.4553 1.10544L59.4688 1.10803L59.4746 1.10464L65.1419 0.245117L70.6694 1.10464ZM55.4903 9.9952V11.6811C55.7617 11.3016 56.1038 10.9355 56.5162 10.5896L55.4903 9.9952ZM73.5182 10.7151C73.8477 11.0105 74.1265 11.3193 74.3549 11.6375V10.228L73.5182 10.7151Z" fill="white"/>
<path d="M75.1362 13.6771L75.1449 13.768C75.1425 13.7384 75.1397 13.708 75.1362 13.6771Z" fill="white"/>
<path d="M78.9743 61.8961L78.368 60.4871L77.5582 60.083L76.3436 60.4871L74.3191 62.1037L73.1266 64.9327V72.0802L73.053 72.1271L73.1266 72.1004V72.1158L73.186 72.0786C73.4292 71.9889 73.6933 71.8822 74.0143 71.7472C74.3548 71.6268 75.0156 71.3269 75.7366 70.9276C77.3935 70.0151 78.3441 69.0848 78.8467 68.4971L78.9743 68.4163L78.9743 61.8961Z" fill="#7246EE" class="dao-color"/>
<path d="M66.0492 106.038L1.70892 68.9605V68.9734C1.68694 68.9613 1.66582 68.9484 1.64503 68.9354C1.63224 68.9273 1.61955 68.9193 1.60689 68.912C1.5958 68.9047 1.58693 68.8982 1.57584 68.8893L1.54373 68.8675L1.51153 68.8449L1.47825 68.819C1.46939 68.8117 1.46052 68.8045 1.45164 68.798C1.44279 68.7907 1.43389 68.7835 1.42503 68.777L1.39176 68.7503C1.38012 68.7414 1.36944 68.7317 1.3591 68.722L1.34296 68.7083L1.32633 68.6921L1.3097 68.6768L1.28974 68.6574C1.27421 68.6412 1.2609 68.6283 1.2476 68.6129L1.23207 68.5975C1.21433 68.5773 1.19659 68.5571 1.18106 68.5377C1.17885 68.5329 1.17442 68.5288 1.1722 68.5264C1.16665 68.5183 1.16055 68.5111 1.15445 68.503L1.13671 68.4804C1.11675 68.4537 1.09901 68.4246 1.08127 68.3955L1.05739 68.3502C1.05022 68.3373 1.04329 68.3243 1.0369 68.3114L1.02359 68.2847C1.01472 68.2653 1.00585 68.2451 0.999199 68.2274L0.992592 68.2112L0.988105 68.1991C0.979238 68.1764 0.972582 68.1546 0.968144 68.1328L0.963707 68.115C0.957059 68.0859 0.950402 68.0568 0.945965 68.0285C0.945965 68.0221 0.945965 68.0132 0.943746 68.0059L0.937098 67.942V67.8887L0.928223 71.1565V71.2099C0.928223 71.2236 0.930109 71.2374 0.932045 71.2511L0.934879 71.2737C0.934879 71.2802 0.934879 71.2891 0.937098 71.2956C0.941527 71.3247 0.948184 71.3538 0.954832 71.382V71.3869C0.954832 71.3869 0.959277 71.3958 0.959277 71.4022L0.979238 71.4685C0.980793 71.475 0.983433 71.4807 0.986405 71.4879L0.990324 71.4976C0.996981 71.517 1.00585 71.5372 1.01472 71.555L1.02138 71.5728L1.02359 71.5768L1.02581 71.5817C1.03912 71.6084 1.05464 71.6366 1.07017 71.6633C1.08791 71.694 1.10565 71.7207 1.12561 71.7498L1.13227 71.7587L1.1611 71.7959C1.16332 71.8007 1.16775 71.8048 1.16997 71.8072C1.18548 71.8274 1.20321 71.8468 1.22093 71.867L1.22526 71.8719L1.23651 71.8824C1.24982 71.8977 1.26534 71.9131 1.28086 71.9268L1.31636 71.9624L1.32697 71.9713L1.3341 71.9777C1.34962 71.9931 1.36514 72.0068 1.38289 72.0198L1.41615 72.0464C1.42501 72.0529 1.43387 72.0602 1.44273 72.0674C1.45159 72.0747 1.46053 72.082 1.46939 72.0885C1.48046 72.0973 1.49158 72.1062 1.50265 72.1127C1.5151 72.1224 1.52841 72.1313 1.54205 72.1402L1.56697 72.1572L1.59802 72.1766C1.63129 72.1992 1.66456 72.2186 1.70004 72.2388V72.2259L66.0308 109.298L66.0307 109.313H66.0352C66.0727 109.339 66.1137 109.359 66.1535 109.378L66.1683 109.385L66.1758 109.389L66.1848 109.394L66.2015 109.402C66.2482 109.423 66.2947 109.445 66.3435 109.465L66.3524 109.469L66.3557 109.47L66.3612 109.472C66.4056 109.49 66.45 109.507 66.4965 109.525L66.5083 109.53L66.5153 109.533L66.532 109.538C66.5828 109.556 66.6337 109.571 66.6845 109.587L66.6917 109.588L66.7044 109.592L66.7205 109.598L66.8137 109.625C66.8292 109.63 66.8447 109.634 66.8625 109.636L66.9068 109.646C66.9217 109.649 66.9368 109.652 66.9512 109.656C66.9599 109.659 66.9685 109.66 66.9776 109.662L66.9903 109.664L67 109.667C67.0332 109.673 67.0643 109.68 67.0975 109.687L67.1375 109.693L67.1666 109.699L67.1826 109.701L67.275 109.716H67.286C67.3415 109.724 67.397 109.731 67.4525 109.735L67.4743 109.737L67.4901 109.74L67.6632 109.753H67.7008C67.7407 109.753 67.7804 109.756 67.8203 109.758H68.0225C68.0549 109.758 68.0875 109.756 68.1199 109.754C68.1362 109.752 68.1525 109.752 68.1688 109.751C68.1821 109.751 68.1976 109.751 68.211 109.749C68.2464 109.747 68.2819 109.744 68.3174 109.74H68.344C68.3507 109.74 68.3596 109.74 68.3662 109.738L68.4749 109.724H68.4819L68.4997 109.722L68.5125 109.72C68.5614 109.714 68.6079 109.707 68.6545 109.698H68.659C68.659 109.698 68.6722 109.693 68.679 109.693C68.7211 109.687 68.7632 109.678 68.8054 109.669L68.8103 109.668L68.8276 109.665C68.8347 109.663 68.842 109.661 68.8497 109.66C68.8897 109.651 68.9273 109.642 68.965 109.631C68.97 109.631 68.9761 109.629 68.9826 109.627L68.9894 109.625H68.9961C69.0275 109.616 69.0583 109.607 69.0886 109.597C69.1119 109.59 69.1349 109.583 69.158 109.576L69.1778 109.57L69.1935 109.565C69.2467 109.547 69.2999 109.529 69.3532 109.51H69.3554L69.364 109.506L69.3766 109.501L69.3921 109.494L69.4108 109.486L69.4574 109.465L69.4716 109.459C69.4875 109.452 69.5042 109.445 69.5195 109.436L69.5239 109.444L69.545 109.433L69.5661 109.423L69.6326 109.39L69.6492 109.381L69.6659 109.372L69.7635 109.319L69.7723 106.052C69.7413 106.07 69.708 106.087 69.6747 106.105C69.6636 106.112 69.6525 106.116 69.6414 106.121C69.6193 106.131 69.5972 106.143 69.5727 106.154C69.5594 106.16 69.5461 106.167 69.5306 106.172C69.5106 106.181 69.4885 106.191 69.4685 106.2C69.4529 106.206 69.4374 106.214 69.4219 106.218L69.4019 106.226L69.392 106.23L69.362 106.242C69.311 106.262 69.2578 106.28 69.2023 106.298L69.198 106.299L69.1855 106.303L69.1669 106.308C69.1137 106.326 69.0582 106.341 69.005 106.355L68.9739 106.362L68.9167 106.376L68.8586 106.391C68.8508 106.392 68.8436 106.393 68.8364 106.395L68.8238 106.398L68.8142 106.4C68.7721 106.409 68.73 106.417 68.6901 106.424C68.6812 106.424 68.6745 106.426 68.6656 106.428C68.6243 106.436 68.5812 106.443 68.5394 106.448L68.5237 106.451C68.5126 106.451 68.5015 106.452 68.4918 106.454L68.486 106.455L68.3795 106.468L68.3556 106.469L68.3308 106.472C68.313 106.473 68.2953 106.475 68.2776 106.477L68.2529 106.479L68.2243 106.481C68.211 106.481 68.1954 106.481 68.1821 106.484L68.0358 106.49H67.834C67.7941 106.49 67.7541 106.49 67.7142 106.485H67.6765C67.6188 106.484 67.5612 106.479 67.5035 106.472C67.4902 106.472 67.479 106.47 67.4658 106.468C67.4473 106.466 67.4288 106.464 67.4104 106.462C67.3734 106.458 67.3364 106.454 67.2994 106.448H67.2884C67.2418 106.439 67.1952 106.433 67.1509 106.426L67.1109 106.419L67.0976 106.417L67.0804 106.413C67.0581 106.409 67.0363 106.405 67.0134 106.4L66.9999 106.396L66.9889 106.394C66.9807 106.392 66.9723 106.391 66.9645 106.388C66.9357 106.382 66.9047 106.375 66.8759 106.368C66.8603 106.364 66.8448 106.359 66.827 106.358L66.7339 106.331L66.7152 106.325L66.7088 106.324L66.6962 106.32C66.6453 106.304 66.594 106.289 66.5431 106.271L66.5282 106.265L66.5077 106.257C66.4611 106.242 66.4167 106.224 66.3724 106.205L66.3635 106.202L66.3546 106.198C66.3059 106.178 66.2593 106.156 66.2127 106.134C66.2016 106.13 66.1905 106.122 66.1795 106.118C66.1361 106.097 66.0927 106.073 66.0493 106.049L66.0492 106.038Z" fill="#7246EE" class="dao-color"/>
<path d="M105.273 62.6728V65.3296L102.168 63.4358L105.273 62.6728Z" fill="#7246EE" class="dao-color"/>
<path d="M56.7721 10.6938L56.3594 10.4055C55.1619 11.41 54.5154 12.5984 54.471 13.8208C54.4116 15.4528 55.4285 17.048 57.4275 18.2453C59.4263 19.4423 62.065 20.0486 64.7096 20.0738C67.3546 20.0991 70.0319 19.5436 72.1097 18.3891C74.186 17.2354 75.3142 15.6671 75.3735 14.0382C75.4185 12.8005 74.8445 11.5839 73.6925 10.5461L73.3029 10.8485C74.418 11.8262 74.9272 12.9404 74.8879 14.0207C74.837 15.4201 73.8624 16.8602 71.8734 17.9654C69.8858 19.0697 67.2962 19.6136 64.7143 19.5889C62.132 19.5642 59.5839 18.9711 57.6775 17.8294C55.7714 16.6879 54.9057 15.2347 54.9565 13.8384C54.9959 12.7566 55.5871 11.6506 56.7721 10.6938Z" fill="#1A1A1A"/>
<path fill-rule="evenodd" clip-rule="evenodd" d="M104.422 62.8215C106.002 60.6105 107.067 58.1992 107.208 55.6375H107.695C107.562 58.1675 106.565 60.5419 105.091 62.7099L104.422 62.8215ZM103.441 64.0937C103.085 64.5221 102.713 64.9416 102.326 65.3522C102.001 65.6989 101.665 66.0384 101.322 66.3706L101.746 66.6349C102.065 66.3245 102.376 66.0069 102.68 65.6844C103.062 65.2786 103.432 64.8632 103.785 64.438L103.441 64.0937ZM100.092 68.1504L99.9253 67.6517C96.6805 70.4799 93.043 72.705 90.5586 74.13C87.2078 76.0537 81.0989 77.6258 74.0074 78.6636C67.2744 79.6481 59.6876 80.146 52.8028 80.0126C52.4468 80.0054 52.0928 79.9965 51.7408 79.9868C44.5279 79.775 39.4169 81.255 36.1032 82.7955C34.447 83.5658 33.2412 84.3498 32.4473 84.9439C32.0505 85.2414 31.7565 85.4911 31.5608 85.6673C31.4629 85.7554 31.3896 85.8249 31.3402 85.8734C31.3155 85.8977 31.2968 85.9171 31.2839 85.93L31.2692 85.9454L31.2651 85.9494L31.2639 85.9502L31.2635 85.951C31.2635 85.951 31.3222 86.0065 31.4401 86.1175C31.5582 86.228 31.617 86.284 31.617 86.284L31.6174 86.2832L31.6198 86.2808L31.6313 86.2687C31.6419 86.2582 31.6583 86.2412 31.6806 86.2194C31.7253 86.1757 31.7937 86.1103 31.8863 86.027C32.0718 85.8605 32.3543 85.6196 32.7389 85.3319C33.5079 84.7564 34.6849 83.9902 36.3083 83.2352C39.4873 81.7577 44.3836 80.3222 51.289 80.4604C51.4339 80.4636 51.5798 80.4669 51.7265 80.4709C58.9162 80.6819 66.9701 80.1832 74.0778 79.1429C81.1758 78.1051 87.3641 76.5233 90.8008 74.5503C93.2511 73.1455 96.8473 70.9495 100.092 68.1504Z" fill="#1A1A1A"/>
<path fill-rule="evenodd" clip-rule="evenodd" d="M99.4362 47.3616L77.4047 34.6653L77.5117 34.1669L99.3261 46.738L99.4362 47.3616ZM110.287 53.6152L133.564 67.0294C134.037 67.3017 134.219 67.6242 134.221 67.8974C134.222 68.1698 134.043 68.4915 133.575 68.7631L69.6534 105.842C69.187 106.113 68.5582 106.256 67.9151 106.256C67.2721 106.256 66.6411 106.113 66.1711 105.841L1.83092 68.7631C1.35913 68.4907 1.17639 68.1682 1.17484 67.895C1.17328 67.6226 1.35145 67.3009 1.82025 67.0285L52.3418 37.7231L52.2624 37.2082L1.57614 66.6099C1.01808 66.9332 0.686093 67.3906 0.688984 67.8974C0.691858 68.4034 1.02811 68.8601 1.58762 69.1834L65.9279 106.261C66.4892 106.585 67.2091 106.741 67.9151 106.741C68.621 106.741 69.3394 106.585 69.8977 106.261L133.819 69.1826C134.377 68.8593 134.709 68.4018 134.707 67.895C134.704 67.3882 134.367 66.9324 133.807 66.609L110.476 53.1637L110.287 53.6152Z" fill="#1A1A1A"/>
<path d="M133.697 68.9731L69.7757 106.051L69.9244 109.521L133.688 72.2401C134.198 71.9435 134.706 71.5587 134.706 71.1708V67.9037C134.706 68.2909 134.205 68.678 133.697 68.9731Z" fill="#1A1A1A"/>
<path fill-rule="evenodd" clip-rule="evenodd" d="M0.69487 67.8879L1.18073 67.8887V67.9283L1.18472 67.9679C1.18723 67.9817 1.18821 67.993 1.18871 68.0003L1.18899 68.0043C1.19161 68.0181 1.19518 68.0342 1.20002 68.0552L1.20175 68.0609C1.20412 68.069 1.20649 68.0795 1.20834 68.09L1.21436 68.1086L1.22064 68.1256L1.22144 68.1272L1.22288 68.1304L1.22736 68.1425C1.23069 68.1514 1.23574 68.1627 1.24407 68.1813L1.25489 68.2032L1.27271 68.2371L1.2941 68.2775C1.30997 68.3026 1.3208 68.3195 1.33175 68.3341L1.33514 68.339L1.34616 68.3535L1.34705 68.3543L1.36061 68.3721L1.36175 68.3729C1.36554 68.3778 1.37185 68.385 1.37902 68.3955C1.38694 68.4052 1.3966 68.4157 1.40962 68.4311L1.42668 68.4481L1.43274 68.4545C1.43902 68.4618 1.44575 68.4691 1.46222 68.4853L1.48217 68.5055L1.48369 68.5071L1.48956 68.5119L1.49041 68.5127L1.50839 68.5297L1.51813 68.5386L1.52941 68.5483L1.53611 68.554L1.53822 68.5556L1.54429 68.5604L1.57487 68.5855C1.58633 68.5936 1.59698 68.6025 1.60443 68.6081L1.60553 68.6097L1.62472 68.6243L1.63079 68.6291L1.65574 68.6493L66.1714 105.828L66.0514 106.036H66.2929V106.459L66.2918 106.458L66.2828 109.723L1.94368 72.6454V72.6535L1.58165 72.4498C1.54368 72.4288 1.50626 72.4062 1.46807 72.3811L1.44921 72.369L1.44269 72.3649L1.43536 72.3601L1.42836 72.3552L1.42711 72.3544C1.4204 72.3504 1.38837 72.3294 1.36554 72.3124C1.34562 72.2995 1.32885 72.2857 1.32075 72.2793C1.30938 72.2712 1.29879 72.2623 1.29139 72.2566L1.29028 72.2558L1.26502 72.2356L1.23452 72.2114C1.21216 72.1944 1.19108 72.1766 1.17015 72.1564L1.14527 72.1338L1.11556 72.1039C1.09856 72.0885 1.08197 72.0723 1.06652 72.0554L1.04804 72.0368L1.03817 72.0255C1.02371 72.0093 1.00476 71.9883 0.986486 71.9656L0.981749 71.96C0.977319 71.9551 0.969456 71.9454 0.9608 71.9325L0.959383 71.9309L0.958508 71.9301L0.943803 71.9115L0.942167 71.9091C0.937584 71.9034 0.927964 71.8921 0.91823 71.8751C0.899533 71.8484 0.880211 71.8185 0.860485 71.7846C0.843099 71.7547 0.825981 71.7232 0.811016 71.6933L0.809534 71.6908L0.8024 71.6763L0.800173 71.6714L0.783581 71.6383V71.6326C0.776803 71.6173 0.769977 71.6011 0.763758 71.5833L0.760025 71.5744C0.757166 71.5672 0.75136 71.5534 0.746283 71.5348L0.728322 71.475L0.712613 71.4435V71.4096C0.708191 71.3902 0.703446 71.3675 0.69951 71.3441C0.695502 71.3255 0.69415 71.3101 0.693542 71.3021L0.692919 71.2899M0.884414 71.7717L0.861028 71.7854L0.860485 71.7846L0.859943 71.7838L0.884228 71.7701L0.884414 71.7717ZM0.919493 71.7498L0.884228 71.7701L0.883386 71.7498H0.919493ZM1.62704 71.9034L65.7992 108.884L65.8066 106.178L1.95255 69.38V69.3881L1.59051 69.1852C1.56475 69.1706 1.53043 69.1488 1.5063 69.1343C1.49612 69.1278 1.48775 69.1222 1.48261 69.1197C1.46152 69.1068 1.44487 69.0947 1.43149 69.0842L1.40722 69.0672C1.39692 69.0607 1.38508 69.0526 1.37291 69.0438L1.36655 69.0397L1.32982 69.0098C1.31836 69.0009 1.30771 68.9928 1.30026 68.9864L1.29915 68.9856L1.27997 68.9702L1.2739 68.9662L1.24314 68.9411C1.22728 68.929 1.21404 68.9177 1.20506 68.9096L1.19371 68.8991L1.18557 68.8918L1.17848 68.8861L1.17186 71.1566V71.2067L1.17228 71.2099L1.17311 71.2156L1.17431 71.2245L1.17731 71.2495L1.17852 71.2617C1.18137 71.2794 1.18571 71.2996 1.19225 71.3279L1.19251 71.3287L1.19695 71.3465L1.21137 71.3942L1.21658 71.4072L1.21924 71.4136L1.22149 71.4209C1.22337 71.4266 1.22706 71.4354 1.23271 71.446L1.24043 71.4621L1.24425 71.4734L1.24619 71.4775L1.24807 71.4815C1.25816 71.5009 1.26953 71.5219 1.28071 71.5413L1.2818 71.543C1.29269 71.5624 1.30396 71.5793 1.31871 71.6012L1.32176 71.6036L1.33287 71.6205L1.33539 71.6238L1.33627 71.6246L1.35437 71.648L1.36243 71.6585C1.37045 71.6682 1.38013 71.6796 1.39381 71.6949L1.39985 71.6989L1.42166 71.7248C1.42686 71.7305 1.43357 71.7377 1.43967 71.7426L1.44675 71.7483L1.48392 71.7854L1.48802 71.7895C1.49178 71.7927 1.49872 71.7984 1.50658 71.8064C1.5133 71.8129 1.52001 71.8186 1.52935 71.8259L1.53542 71.8299L1.566 71.855C1.57745 71.8638 1.58811 71.8719 1.59556 71.8784L1.59667 71.8792L1.61584 71.8946L1.62192 71.8986L1.62704 71.9034ZM1.19315 68.0358L1.19207 68.0334L1.19315 68.0358Z" fill="#1A1A1A"/>
<path fill-rule="evenodd" clip-rule="evenodd" d="M70.0167 105.633L70.0063 109.465L69.8781 109.534C69.8632 109.541 69.8486 109.549 69.8324 109.558C69.8179 109.566 69.8013 109.576 69.7846 109.585C69.7734 109.59 69.7635 109.596 69.7592 109.597L69.7583 109.598L69.7554 109.6L69.7499 109.603L69.675 109.64L69.6482 109.653H69.6472L69.6329 109.661L69.4411 109.756L69.4315 109.741L69.4072 109.752H69.3965C69.3536 109.767 69.3117 109.782 69.2724 109.795H69.2706L69.2523 109.8L69.246 109.803L69.2432 109.804L69.2376 109.805L69.2263 109.809C69.2132 109.812 69.1931 109.819 69.1706 109.825C69.1346 109.837 69.0923 109.85 69.0619 109.859L69.0298 109.867H69.0241L69.0186 109.868C68.9783 109.88 68.9394 109.888 68.9028 109.897L68.8936 109.899L68.887 109.9L68.8824 109.901L68.8812 109.901C68.8756 109.902 68.8639 109.905 68.8499 109.908C68.8121 109.915 68.7688 109.925 68.7244 109.932L68.6986 109.94H68.677C68.6342 109.948 68.5924 109.954 68.5525 109.96C68.5387 109.962 68.518 109.965 68.494 109.966L68.4081 109.977C68.3928 109.98 68.3803 109.981 68.3728 109.981L68.3449 109.982H68.3324C68.2975 109.986 68.2635 109.989 68.2351 109.99C68.2095 109.994 68.186 109.994 68.1747 109.994C68.1665 109.994 68.1566 109.994 68.1456 109.995C68.11 109.998 68.0628 110 68.0228 110H67.8075C67.7664 109.998 67.7332 109.996 67.7012 109.996H67.6542L67.4611 109.981L67.4505 109.979L67.4439 109.978L67.4334 109.977C67.378 109.973 67.3228 109.966 67.2677 109.958H67.2581L67.241 109.956C67.1945 109.949 67.1465 109.942 67.0952 109.932L67.0502 109.925L66.9527 109.905L66.947 109.904L66.9414 109.902L66.9275 109.899H66.9258C66.9189 109.897 66.9067 109.895 66.8928 109.891L66.8545 109.883C66.8429 109.88 66.8302 109.877 66.818 109.875C66.7877 109.87 66.7627 109.863 66.7497 109.859L66.7473 109.858L66.6556 109.832L66.6342 109.825L66.6123 109.818C66.5631 109.804 66.5088 109.787 66.4539 109.768C66.4349 109.762 66.419 109.755 66.4085 109.751C66.3622 109.733 66.3181 109.715 66.276 109.699L66.2635 109.694L66.2593 109.693L66.2519 109.69C66.1978 109.668 66.1469 109.644 66.1025 109.623L66.0894 109.617L66.0766 109.61L66.0746 109.61L66.069 109.607L66.06 109.602L66.0464 109.596C66.0247 109.585 65.9971 109.572 65.9677 109.555L65.7874 109.345L65.7977 105.805H66.109L66.1637 105.835C66.2065 105.858 66.2448 105.879 66.2821 105.898L66.2923 105.903L66.305 105.909L66.3071 105.91L66.3104 105.912L66.3175 105.915C66.3631 105.937 66.4022 105.955 66.442 105.972L66.453 105.976L66.4611 105.978L66.4724 105.984C66.5105 106.001 66.5471 106.015 66.5848 106.027L66.6283 106.043C66.6725 106.059 66.7173 106.073 66.7672 106.088L66.7733 106.09L66.7794 106.091H66.7803L66.8798 106.12C66.9038 106.124 66.9238 106.13 66.9364 106.133L66.9732 106.141L67.0195 106.152L67.0255 106.153L67.0295 106.154L67.037 106.156L67.054 106.16C67.0603 106.161 67.0685 106.163 67.0776 106.166C67.0908 106.169 67.0995 106.17 67.1139 106.173C67.1238 106.174 67.1363 106.177 67.1549 106.181L67.1891 106.187L67.204 106.189C67.2361 106.193 67.273 106.199 67.3108 106.206H67.3191L67.3381 106.208C67.3693 106.213 67.3959 106.216 67.4282 106.22C67.4476 106.222 67.4691 106.224 67.4951 106.227L67.5061 106.229L67.5127 106.23H67.5177L67.5317 106.232C67.5817 106.237 67.6317 106.242 67.6816 106.243H67.728L67.7413 106.245C67.7657 106.247 67.7922 106.248 67.8343 106.248H68.03L68.1613 106.242C68.1841 106.239 68.205 106.239 68.2166 106.239C68.2279 106.238 68.2401 106.237 68.2551 106.235H68.2565C68.2708 106.234 68.2881 106.233 68.3061 106.231C68.3199 106.229 68.3397 106.227 68.3614 106.226L68.4483 106.215C68.4614 106.212 68.4802 106.21 68.5023 106.208L68.5054 106.208C68.5451 106.203 68.58 106.197 68.6132 106.191L68.6272 106.188C68.6366 106.186 68.6481 106.184 68.6614 106.183C68.6923 106.177 68.7259 106.17 68.7645 106.162L68.7723 106.161L68.7775 106.16L68.782 106.158H68.7833L68.8109 106.153L68.856 106.141H68.8572C68.8758 106.136 68.8973 106.131 68.9186 106.126L68.9266 106.124L68.9372 106.122L68.9513 106.119C68.9986 106.107 69.046 106.094 69.0904 106.078L69.1087 106.073L69.115 106.071L69.1178 106.07L69.1204 106.069L69.1286 106.067C69.1812 106.05 69.2272 106.035 69.2696 106.018C69.2827 106.012 69.2949 106.008 69.303 106.005L69.3043 106.004L69.3236 105.997L69.3392 105.989L69.3544 105.985L69.3567 105.985L69.3715 105.978L69.3958 105.967L69.3969 105.966L69.4323 105.95L69.4478 105.942L69.4579 105.94L69.4644 105.937L69.4725 105.933C69.4922 105.924 69.5107 105.915 69.5332 105.904L69.5423 105.899L69.5516 105.896L69.5559 105.893L69.5608 105.891C69.5947 105.873 69.6248 105.857 69.6521 105.841L70.0167 105.633ZM66.2819 106.43L66.2745 109.167L66.2812 109.171L66.2939 109.176L66.296 109.178L66.2993 109.179L66.3064 109.182C66.3519 109.204 66.3911 109.222 66.4308 109.239L66.4419 109.243L66.4452 109.244L66.4518 109.247C66.4964 109.264 66.5389 109.281 66.5833 109.298L66.5871 109.3C66.5985 109.305 66.6035 109.307 66.6091 109.308L66.6121 109.31C66.6475 109.322 66.6833 109.333 66.7216 109.345H66.7436L66.7904 109.366H66.7914L66.7934 109.367L66.8807 109.391L66.89 109.395L66.8946 109.395L66.9053 109.397L66.9174 109.399L66.9598 109.409C66.9745 109.412 66.9907 109.416 67.0062 109.42L67.0123 109.421L67.0173 109.422L67.0244 109.424L67.0267 109.425L67.0535 109.43L67.1422 109.448L67.1833 109.455C67.219 109.462 67.2539 109.467 67.2928 109.473H67.3057L67.3248 109.476C67.3719 109.484 67.4189 109.489 67.4658 109.493C67.4887 109.494 67.5091 109.497 67.5208 109.499L67.6728 109.511H67.7006C67.7457 109.511 67.7903 109.513 67.8277 109.515H68.0228C68.0485 109.515 68.0692 109.514 68.096 109.512C68.1131 109.511 68.1329 109.51 68.1581 109.509H68.1782L68.1837 109.508L68.1961 109.507C68.2327 109.505 68.2608 109.503 68.2876 109.5L68.3026 109.497H68.3364L68.4451 109.484L68.46 109.482H68.4667L68.4726 109.481L68.48 109.479C68.5285 109.473 68.5696 109.467 68.6094 109.459L68.6153 109.458C68.6231 109.457 68.6344 109.454 68.6477 109.453C68.6807 109.447 68.715 109.441 68.7556 109.432L68.7634 109.43L68.7686 109.429L68.7733 109.429L68.7745 109.428L68.8041 109.422C68.8396 109.414 68.8689 109.407 68.8968 109.399L68.9304 109.389H68.9333L68.9598 109.382H68.9622L69.0111 109.367C69.031 109.361 69.0526 109.354 69.0821 109.345L69.1084 109.337L69.116 109.336L69.1172 109.335C69.1709 109.317 69.2199 109.301 69.2682 109.282L69.2781 109.279L69.2905 109.274L69.3025 109.269L69.3088 109.265L69.3619 109.243L69.3896 109.231L69.4018 109.225L69.5212 109.159L69.5287 106.438L69.5067 106.445L69.4816 106.456H69.4803L69.461 106.464L69.451 106.468C69.3946 106.49 69.3374 106.509 69.2825 106.527C69.2692 106.532 69.2581 106.535 69.2526 106.537L69.2449 106.538L69.244 106.539C69.1834 106.558 69.1218 106.576 69.0642 106.591L69.0585 106.592L69.0529 106.593L69.0423 106.595L69.0265 106.599C69.0115 106.602 68.9955 106.606 68.9771 106.611H68.976C68.9573 106.616 68.9359 106.621 68.9146 106.626L68.904 106.629L68.8959 106.63L68.8914 106.631H68.8902C68.8846 106.633 68.8729 106.635 68.8587 106.638C68.819 106.646 68.774 106.655 68.7303 106.663L68.72 106.664L68.7182 106.665L68.7114 106.667C68.664 106.676 68.6149 106.682 68.5738 106.689L68.5583 106.69L68.5413 106.693H68.5325L68.5252 106.694L68.3949 106.71H68.3795L68.3654 106.713L68.3462 106.714C68.3328 106.715 68.3189 106.717 68.3005 106.718H68.2991C68.2822 106.72 68.2613 106.722 68.2397 106.723L68.2322 106.724H68.2156L68.208 106.725L68.036 106.733H67.8301C67.7961 106.733 67.7504 106.733 67.7023 106.728H67.6674C67.6069 106.726 67.5463 106.721 67.4858 106.714C67.4611 106.713 67.44 106.71 67.4307 106.708C67.4199 106.707 67.4074 106.705 67.3938 106.704C67.36 106.701 67.3194 106.696 67.2815 106.691H67.2657L67.2432 106.686C67.2079 106.68 67.1727 106.674 67.1333 106.668L67.1151 106.666L67.1112 106.665L67.0635 106.657L67.048 106.654C67.0244 106.65 66.9844 106.642 66.951 106.634L66.9489 106.633L66.9415 106.632L66.9245 106.628L66.9062 106.624L66.8678 106.615C66.8531 106.612 66.8369 106.608 66.8215 106.604L66.8154 106.603L66.8094 106.601L66.8002 106.599L66.7956 106.598L66.7786 106.596L66.6572 106.561L66.6513 106.559H66.6504M66.6233 106.551C66.5737 106.536 66.519 106.52 66.4636 106.5L66.4531 106.496L66.4312 106.488C66.3789 106.47 66.3297 106.451 66.2819 106.43" fill="#1A1A1A"/>
<path d="M56.9822 11.1207L58.9927 12.1241L65.4709 13.3365L71.1393 12.1241L72.9005 11.1196C75.0048 13.1107 74.4582 15.7028 71.3106 17.3762C67.6258 19.3352 61.7781 19.2752 58.2534 17.2563C55.3193 15.5756 54.911 13.0499 56.9822 11.1207Z" fill="#1A1A1A"/>
<path fill-rule="evenodd" clip-rule="evenodd" d="M79.1086 68.5637C78.6107 69.1643 77.6264 70.1641 75.8549 71.1397C75.132 71.5406 74.4622 71.8461 74.1027 71.9738C73.7235 72.1331 73.4202 72.2535 73.1354 72.3553L72.9719 71.8987C73.2462 71.8009 73.5419 71.6829 73.9207 71.5236L73.9273 71.5212L73.9341 71.5188C74.2571 71.4048 74.905 71.1122 75.6192 70.7154C77.3321 69.7721 78.2708 68.8135 78.7343 68.2542L79.1086 68.5637Z" fill="#1A1A1A"/>
<path d="M54.7671 8.94232L55.3487 10.1034L55.7335 10.2315V13.6949L55.7311 13.7119C55.6985 13.94 55.5205 14.1599 55.2503 14.1599C55.0093 14.1599 54.7671 13.9643 54.7671 13.6776V8.94232Z" fill="#1A1A1A"/>
<path fill-rule="evenodd" clip-rule="evenodd" d="M75.0395 25.3269L75.0195 21.9737C75.0193 21.4129 74.819 20.952 74.4241 20.7263C74.0294 20.5007 73.5271 20.5592 73.0328 20.8442C72.5374 21.13 72.1041 21.6045 71.7974 22.1348C71.4913 22.6642 71.2987 23.2716 71.3093 23.8357L71.3294 27.5321L71.3317 27.5312L71.3315 27.5338C71.4997 27.5118 71.8731 27.4116 72.0934 27.3317L72.1745 27.296C72.3741 27.2087 72.7068 27.0629 73.0546 26.8719C74.0159 26.3323 74.7591 25.6468 75.0395 25.3269ZM74.5515 25.1195L74.5336 21.9751V21.9737C74.5336 21.5153 74.3734 21.2562 74.1826 21.1472C73.9916 21.038 73.6828 21.0295 73.2759 21.2641C72.8701 21.4982 72.4924 21.9031 72.2183 22.3773C71.9439 22.8517 71.7862 23.3731 71.7952 23.828L71.7952 23.8314L71.7959 23.9484L74.5515 25.1195Z" fill="#1A1A1A"/>
<path fill-rule="evenodd" clip-rule="evenodd" d="M107.503 70.2888L105.406 67.0686L102.601 69.0076L102.852 69.4247L105.271 67.7516L106.953 70.334L107.503 70.2888ZM104.404 70.5466L103.714 70.4286L103.876 70.5902L104.404 70.5466Z" fill="#1A1A1A"/>
<path fill-rule="evenodd" clip-rule="evenodd" d="M104.422 68.1231L98.1971 63.7795L102.789 69.287L104.422 68.1231ZM106.294 68.752L107.347 70.5908H107.52L112.547 69.7122L106.294 68.752Z" fill="#1A1A1A"/>
<path fill-rule="evenodd" clip-rule="evenodd" d="M103.844 70.1308L97.3687 62.5378L101.029 70.4904L106.305 73.0155L109.299 73.8448L113.159 69.375L105.355 70.5494L103.844 70.1308ZM104.407 70.7903L105.377 71.9276L106.305 72.6114L109.142 73.2838L111.935 70.0499L105.324 71.0449L104.407 70.7903ZM101.397 70.13L99.2911 65.5527L104.411 71.5857L101.397 70.13Z" fill="#1A1A1A"/>
<path fill-rule="evenodd" clip-rule="evenodd" d="M105.901 61.6996H105.091V62.4682L102.11 63.2005L102.041 63.6427L105.091 65.5025V67.3575L105.901 68.1658V61.6996ZM105.03 64.8971L102.792 63.5327L105.03 62.9823V64.8971Z" fill="#1A1A1A"/>
<path fill-rule="evenodd" clip-rule="evenodd" d="M100.895 42.426C101.746 41.9335 103 41.9881 104.42 42.8041L104.542 42.874L106.397 41.7988L106.04 41.5882C104.528 40.6965 103.101 40.6 102.026 41.2098L100.651 42.0064L100.649 42.0079L100.893 42.4272L100.895 42.426ZM102.272 41.6277C102.977 41.6523 103.749 41.8809 104.54 42.3146L105.422 41.803C104.165 41.1702 103.071 41.1782 102.272 41.6277Z" fill="#1A1A1A"/>
<path d="M109.663 54.3487L108.288 55.1456C109.242 54.5922 109.841 53.4189 109.841 51.7365C109.841 48.3716 107.468 44.254 104.54 42.5715L105.915 41.7745C108.843 43.457 111.216 47.5746 111.216 50.9395C111.216 52.6219 110.617 53.7952 109.663 54.3487Z" fill="#1A1A1A"/>
<path d="M109.663 54.3487L108.288 55.1456C109.242 54.5922 109.841 53.4189 109.841 51.7365C109.841 48.3716 107.468 44.254 104.54 42.5715L105.915 41.7745C108.843 43.457 111.216 47.5746 111.216 50.9395C111.216 52.6219 110.617 53.7952 109.663 54.3487Z" fill="#1A1A1A"/>
<path fill-rule="evenodd" clip-rule="evenodd" d="M109.746 54.2985C110.651 53.7262 111.216 52.5728 111.216 50.9395C111.216 47.5746 109.322 43.4822 106.394 41.7998L104.54 42.5715C104.697 42.6616 104.853 42.7587 105.006 42.8624C107.715 44.693 109.841 48.5519 109.841 51.7365C109.841 52.6214 109.676 53.3654 109.379 53.9525C109.113 54.4816 108.33 54.8291 108.33 55.2333L109.14 54.8291C109.544 54.425 109.719 54.3157 109.746 54.2985ZM110.16 53.2154C110.27 52.7644 110.327 52.2689 110.327 51.7364C110.327 49.9487 109.7 47.995 108.71 46.2807C107.867 44.8233 106.743 43.5053 105.47 42.5937L105.911 42.3379C107.191 43.1439 108.369 44.4552 109.242 45.9683C110.17 47.5746 110.73 49.3622 110.73 50.9394C110.73 51.9303 110.511 52.6837 110.16 53.2154Z" fill="#1A1A1A"/>
<path fill-rule="evenodd" clip-rule="evenodd" d="M100.66 42.0067C101.727 41.4014 103.154 41.517 104.662 42.3836C106.171 43.2511 107.529 44.7365 108.507 46.4239C109.485 48.1109 110.095 50.0235 110.084 51.7595C110.084 53.4938 109.464 54.7729 108.397 55.3787C107.331 55.984 105.905 55.8683 104.397 55.0017L104.396 55.001C102.886 54.1226 101.534 52.6376 100.559 50.953C99.5842 49.2685 98.9744 47.3618 98.9744 45.6266C98.9744 43.8919 99.5939 42.6126 100.66 42.0067ZM100.901 42.4282C100.039 42.9181 99.4603 43.9963 99.4603 45.6266C99.4603 47.2564 100.036 49.0798 100.98 50.7104C101.924 52.3407 103.221 53.7556 104.64 54.5818C106.059 55.3973 107.293 55.4476 108.157 54.9572C109.02 54.4672 109.598 53.389 109.598 51.7587V51.7571C109.608 50.1284 109.033 48.3 108.086 46.6667C107.14 45.0335 105.837 43.6189 104.419 42.8039C102.999 41.988 101.765 41.9377 100.901 42.4282Z" fill="#1A1A1A"/>
<path fill-rule="evenodd" clip-rule="evenodd" d="M101.154 43.3599C102.036 42.8566 103.209 42.9558 104.44 43.6678C105.671 44.3802 106.775 45.5887 107.567 46.9581C108.359 48.3273 108.853 49.8805 108.842 51.2957C108.829 52.7086 108.321 53.7656 107.438 54.2687C106.555 54.772 105.383 54.6728 104.151 53.9608C102.92 53.2482 101.822 52.0395 101.033 50.6703C100.243 49.3011 99.7502 47.7487 99.7502 46.3349V46.3329C99.7616 44.9201 100.27 43.8631 101.154 43.3599ZM100.236 46.3359C100.236 47.6448 100.696 49.1138 101.454 50.4285C102.212 51.7434 103.254 52.8813 104.395 53.5412C105.538 54.2017 106.517 54.2354 107.197 53.8476C107.878 53.4597 108.344 52.6018 108.356 51.2918C108.366 49.9841 107.906 48.5154 107.146 47.2005C106.386 45.8857 105.338 44.7476 104.196 44.0875C103.054 43.427 102.075 43.3933 101.394 43.7811C100.714 44.1688 100.247 45.0264 100.236 46.3359Z" fill="#1A1A1A"/>
<path d="M74.3545 68.2963C74.2659 68.2963 74.1771 68.2082 74.1771 68.1193V66.9465C74.1771 66.8576 74.2659 66.7686 74.3545 66.7686C74.4433 66.7686 74.5319 66.8576 74.5319 66.9465V68.1193C74.5319 68.2082 74.4655 68.2963 74.3545 68.2963Z" fill="#1A1A1A"/>
<path fill-rule="evenodd" clip-rule="evenodd" d="M65.1428 0L70.7521 0.872289L74.8969 3.27391L74.7749 3.48366L74.9949 3.38061L76.5646 6.72056L75.004 10.1308L70.8122 12.5715L65.1424 13.4438L59.4527 12.5716L55.2418 10.1318L53.6398 6.72322L55.2005 3.31295L59.3925 0.872128L65.1428 0ZM74.5873 3.65526L70.5871 1.33745L65.1418 0.490703L59.5571 1.33769L55.5784 3.65437L54.1752 6.72056L55.6172 9.78852L59.6171 12.1062L65.1422 12.9531L70.6471 12.1062L74.6261 9.78949L76.0293 6.72322L74.5873 3.65526Z" fill="#1A1A1A"/>
<path fill-rule="evenodd" clip-rule="evenodd" d="M65.3849 0.249979L64.8992 0.239956L64.8693 1.68766L64.2934 1.22662L64.6385 1.84939L59.5014 0.8675L59.4099 1.34382L63.5889 2.14255L55.3381 3.24399L55.4025 3.72467L63.234 2.67925L53.7967 6.49761L53.9794 6.94701L63.6624 3.02915L55.2579 9.77153L55.5622 10.1496L64.3023 3.13802L59.3217 12.2225L59.7479 12.4553L64.8626 3.1263L64.8992 13.1993L65.3851 13.1976L65.3485 3.13051L70.5169 12.4568L70.942 12.2221L65.9107 3.14312L74.6628 10.1499L74.9668 9.77153L66.5504 3.03351L76.2056 6.9471L76.3884 6.49778L66.9708 2.68054L74.7426 3.72443L74.8074 3.24383L66.5974 2.14102L70.7156 1.34252L70.623 0.86645L66.0218 1.75854L66.5433 1.34026L65.3525 1.82207L65.3849 0.249979Z" fill="#1A1A1A"/>
<path d="M65.2651 73.6113C64.8879 73.6113 64.5443 73.6003 64.1896 73.5892C63.5997 73.5877 62.899 73.5261 62.697 73.5072C62.6088 73.4985 62.5032 73.4858 62.3929 73.4724C62.251 73.4558 62.1019 73.4385 61.9778 73.4274C61.5266 73.3864 60.9106 73.283 60.4733 73.2041C58.7573 72.9191 57.28 72.4045 56.8684 72.2529C56.2615 72.0185 55.785 71.8346 54.9836 71.4446C54.795 71.361 54.572 71.2584 54.4008 71.1526C54.2106 71.0523 53.9607 70.8984 53.7262 70.7532L53.4032 70.5558C53.0971 70.3719 52.7436 70.0988 52.436 69.8581C52.355 69.7997 52.1304 69.6339 51.9746 69.48C51.682 69.2574 51.3495 68.8848 51.1795 68.6843C50.9406 68.3986 50.6761 68.0734 50.5172 67.8161L50.465 67.7395C50.3859 67.6243 50.2965 67.494 50.2404 67.3638C50.204 67.2857 50.1585 67.1949 50.1115 67.1009C50.0107 66.8997 49.9043 66.6858 49.8343 66.4908C49.811 66.4111 49.7873 66.34 49.7635 66.2698C49.737 66.1901 49.7106 66.1103 49.6892 66.0361C49.6255 65.7812 49.5635 65.4331 49.5227 65.1671C49.4982 65.0211 49.4595 64.5609 49.5006 64.0889C50.3183 53.8394 51.2186 45.5499 52.1723 36.7733C52.9481 29.6314 53.7499 22.2465 54.5075 13.6759L54.9923 13.6972V14.157C55.0678 15.8304 56.4537 17.4004 58.7944 18.4537C59.6584 18.8563 60.4187 19.0615 60.4899 19.0746C60.7983 19.1594 61.1711 19.2577 61.4657 19.3165C62.0038 19.4305 62.1501 19.4503 62.5843 19.5087L62.9133 19.5537C63.1272 19.5841 63.4111 19.6026 63.6554 19.6184L63.8587 19.6322C64.4897 19.6717 64.5712 19.6717 65.203 19.6717C65.4355 19.6717 65.9906 19.6535 67.0989 19.5328L67.2903 19.5024C67.6442 19.4483 68.3025 19.3481 69.0265 19.1598C69.9802 18.9072 70.6714 18.6329 70.7821 18.5777C70.9813 18.4944 71.3253 18.3472 71.5555 18.2217C71.9999 17.9817 72.0806 17.9316 72.4775 17.6834L72.5637 17.6297C72.9955 17.3467 73.3941 17.016 73.6969 16.6908C73.9785 16.4086 74.1714 16.1702 74.3272 15.9113C74.3406 15.8829 74.3731 15.8276 74.4063 15.7728C74.4332 15.7278 74.4608 15.6832 74.479 15.6473L74.5304 15.5462C74.5984 15.4121 74.6807 15.2542 74.7258 15.12C74.7305 15.0951 74.7471 15.0411 74.7629 14.987C74.7772 14.9412 74.7906 14.8954 74.8001 14.8587C74.8381 14.7064 74.876 14.4984 74.895 14.3473L74.8942 14.3504L74.8982 14.2928C74.9053 14.1989 74.9203 14.0153 74.9029 13.7928C74.9005 13.762 74.8974 13.7308 74.8942 13.7004L75.3774 13.6507C75.3813 13.685 75.3845 13.7193 75.3877 13.7525C76.188 22.19 77.1329 30.671 78.0463 38.8733C78.9589 47.0638 79.9023 55.5341 80.7018 63.9539C80.7263 64.0297 80.7263 64.1063 80.7263 64.1702V64.3509C80.7263 64.437 80.7239 64.5096 80.7311 64.5499L80.6227 64.5688L80.7856 64.6304C80.7643 64.8766 80.7239 65.205 80.6828 65.4497C80.6441 65.7007 80.561 66.0693 80.4464 66.3424C80.3262 66.6589 80.1925 66.9905 80.0518 67.2304C79.9158 67.4846 79.6904 67.8342 79.4958 68.0931C79.4049 68.2163 79.31 68.3441 79.1851 68.4878L78.7588 68.3291L78.7383 62.3318C78.7383 61.5235 78.4757 60.9276 77.9989 60.6537C77.5212 60.379 76.8672 60.4516 76.1595 60.8621C74.6135 61.7564 73.3561 63.931 73.3561 65.7094L73.3767 72.0453L73.2146 72.275C72.8698 72.3958 72.5661 72.4976 72.162 72.6176C71.8244 72.7297 71.3317 72.8599 70.7038 73.002C70.4879 73.0612 70.1787 73.1236 69.9518 73.1638C69.4876 73.2451 68.8834 73.3461 68.4398 73.4053L68.2654 73.4235C67.919 73.4606 67.1982 73.538 66.2168 73.5877C65.8661 73.605 65.5553 73.6113 65.2651 73.6113ZM54.8282 15.5399C54.1192 23.3492 53.3759 30.1919 52.6551 36.8254C51.7022 45.5984 50.8019 53.8852 49.9846 64.1291C49.9446 64.594 49.9893 65.0116 50.0024 65.0897C50.0419 65.3463 50.1 65.677 50.1585 65.9114C50.1759 65.9706 50.2001 66.044 50.2246 66.1167C50.2503 66.1932 50.276 66.2706 50.2965 66.3424C50.3558 66.5058 50.4539 66.7 50.546 66.8839C50.5955 66.9826 50.6433 67.0781 50.6844 67.1665C50.7279 67.2683 50.8027 67.3733 50.8659 67.4656L50.9268 67.5556C51.0929 67.824 51.4025 68.1942 51.5515 68.3726C51.6773 68.521 52.0035 68.8927 52.2941 69.1153C52.4076 69.2258 52.5614 69.3505 52.7278 69.4697C53.0323 69.7089 53.3719 69.971 53.6531 70.1399C53.7535 70.1999 53.8658 70.2693 53.982 70.3412C54.2074 70.4801 54.447 70.6285 54.6431 70.7327C54.8025 70.8305 55.0081 70.9245 55.1892 71.0058C55.9792 71.3894 56.4473 71.5701 57.04 71.7998C57.4378 71.9451 58.8786 72.4479 60.5567 72.7265C60.9877 72.8046 61.5883 72.9049 62.0209 72.9444C62.1482 72.9554 62.3032 72.9736 62.4503 72.9909L62.7436 73.0241C63.1477 73.062 63.7278 73.103 64.1418 73.103L64.2046 73.1046C64.8219 73.1236 65.4047 73.1409 66.1927 73.103C67.1602 73.0541 67.8715 72.9783 68.2136 72.942L68.3848 72.9238C68.8122 72.8662 69.41 72.7668 69.8671 72.6863C70.0806 72.6484 70.3724 72.5892 70.586 72.5315C71.2091 72.3903 71.686 72.2647 72.0157 72.1558C72.3526 72.0548 72.6159 71.9688 72.8903 71.874L72.8706 65.7102C72.8706 63.7447 74.2078 61.4312 75.9159 60.4422C76.7803 59.9425 77.6059 59.8683 78.2416 60.2338C78.8751 60.5977 79.2238 61.3428 79.2238 62.331L79.242 67.6132C79.393 67.3954 79.5338 67.1688 79.6279 66.9936C79.7718 66.7473 79.9229 66.3527 79.9956 66.1625C80.0787 65.9635 80.1593 65.6565 80.2028 65.3723C80.2352 65.1837 80.2661 64.9469 80.2874 64.7393C80.2408 64.6461 80.2408 64.5128 80.2408 64.3509V64.1702C80.2408 64.1449 80.2423 64.1197 80.2384 64.0991L80.221 64.0328C79.4215 55.606 78.4773 47.127 77.5639 38.927C76.713 31.2891 75.8353 23.4104 75.0714 15.5478C75.035 15.626 74.997 15.6998 74.963 15.7665L74.9132 15.8644C74.8903 15.9101 74.857 15.9662 74.823 16.0222C74.7962 16.0664 74.7701 16.1102 74.7519 16.1454C74.5692 16.4512 74.3478 16.7263 74.0465 17.027C73.7238 17.3739 73.2944 17.7311 72.8421 18.0271L72.7353 18.0946C72.3265 18.35 72.2443 18.4013 71.7872 18.6479C71.5507 18.7766 71.2194 18.9206 70.9837 19.0185C70.8596 19.0813 70.1328 19.3686 69.1507 19.6287C68.401 19.824 67.7261 19.9266 67.3635 19.9819L67.1686 20.0127C66.3133 20.1062 65.6214 20.1563 65.203 20.1563C64.5577 20.1563 64.4747 20.1563 63.8263 20.1161L63.6234 20.1027C63.3672 20.0857 63.0691 20.066 62.8457 20.034L62.5191 19.9894C62.0837 19.9306 61.9208 19.9085 61.3673 19.7913C61.0644 19.7305 60.6765 19.6291 60.3903 19.5478C60.1439 19.4972 59.3583 19.2518 58.5916 18.8946C56.7095 18.0472 55.4011 16.8668 54.8282 15.5399Z" fill="#1A1A1A"/>
<path d="M58.7527 11.8845L58.9927 12.1241L59.7191 12.3658V18.0758C59.7191 18.2152 59.6598 18.3381 59.5775 18.425C59.4965 18.5102 59.3759 18.5781 59.2358 18.5781C58.9949 18.5781 58.7527 18.3824 58.7527 18.0957V11.8845Z" fill="#1A1A1A"/>
<path d="M64.4404 13.1284L65.066 13.3365H65.4069V19.1761C65.4069 19.4628 65.1647 19.6585 64.9237 19.6585C64.6827 19.6585 64.4404 19.4628 64.4404 19.1761V13.1284Z" fill="#1A1A1A"/>
<path d="M70.1069 12.5282H70.7344L71.0733 12.3027V18.0758C71.0733 18.3235 70.8891 18.5781 70.5901 18.5781C70.349 18.5781 70.1069 18.3824 70.1069 18.0957V12.5282Z" fill="#1A1A1A"/>
<path d="M74.1123 10.369V13.6776C74.1123 13.9643 74.3545 14.1599 74.5955 14.1599C74.8658 14.1599 75.0437 13.94 75.0764 13.7119L75.0788 13.6948V9.17123L74.3784 10.1034L74.1123 10.369Z" fill="#1A1A1A"/>
<path d="M65.102 4.14293C66.6394 4.14293 67.8856 3.48072 67.8856 2.66371C67.8856 1.84679 66.6394 1.18457 65.102 1.18457C63.5646 1.18457 62.3184 1.84679 62.3184 2.66371C62.3184 3.48072 63.5646 4.14293 65.102 4.14293Z" fill="#7246EE" class="dao-color"/>
<path fill-rule="evenodd" clip-rule="evenodd" d="M63.2481 1.83213C62.7754 2.08326 62.5615 2.38895 62.5615 2.66401C62.5615 2.93914 62.7754 3.24483 63.2481 3.49596C63.7102 3.74152 64.3653 3.90075 65.1023 3.90075C65.8392 3.90075 66.4944 3.74152 66.9564 3.49596C67.4291 3.24483 67.643 2.93914 67.643 2.66401C67.643 2.38895 67.4291 2.08326 66.9564 1.83213C66.4944 1.58658 65.8392 1.42735 65.1023 1.42735C64.3653 1.42735 63.7102 1.58658 63.2481 1.83213ZM63.0197 1.40407C63.5651 1.11422 64.3018 0.942383 65.1023 0.942383C65.9027 0.942383 66.6394 1.11422 67.1848 1.40407C67.7196 1.68826 68.1288 2.12222 68.1288 2.66401C68.1288 3.20587 67.7196 3.63984 67.1848 3.92403C66.6394 4.21387 65.9027 4.38571 65.1023 4.38571C64.3018 4.38571 63.5651 4.21387 63.0197 3.92403C62.4849 3.63984 62.0757 3.20587 62.0757 2.66401C62.0757 2.12222 62.4849 1.68826 63.0197 1.40407Z" fill="#1A1A1A"/>
</g>
</g>
<defs>
<clipPath id="clip0_6852_5903">
<rect width="135" height="110" fill="white"/>
</clipPath>
<clipPath id="clip1_6852_5903">
<rect width="135" height="110" fill="white"/>
</clipPath>
</defs>
</svg>
