<svg width="140" height="140" viewBox="0 0 140 140" fill="none" xmlns="http://www.w3.org/2000/svg">
<g clip-path="url(#clip0_544_46143)">
<rect width="140" height="140" rx="70" fill="white"/>
<circle cx="70" cy="70" r="69.5" fill="black" stroke="#1A1A1A"/>
<g clip-path="url(#clip1_544_46143)">
<path d="M156 0H-22L6.58028 151L132.434 147.626L156 0Z" fill="#F2F2F2" stroke="black" stroke-linecap="round"/>
<rect x="50" y="16" width="3" height="6" fill="black"/>
<rect x="61" y="16" width="3" height="6" fill="black"/>
<rect x="72" y="16" width="3" height="6" fill="black"/>
<path d="M50.5 32.5H75.5C74.8333 30.6667 71.8 27 65 27C58.2 27 52.8333 27 51 27" stroke="black" stroke-linecap="round" stroke-linejoin="round"/>
<path d="M15 73.5H40C39.3333 71.6667 36.3 68 29.5 68C22.7 68 17.3333 68 15.5 68" stroke="black" stroke-linecap="round" stroke-linejoin="round"/>
<path d="M-19 9.5H6C5.33333 7.66667 2.3 4 -4.5 4C-11.3 4 -16.6667 4 -18.5 4" stroke="black" stroke-linecap="round" stroke-linejoin="round"/>
<path d="M6 20L-19 20C-18.3333 21.8333 -15.3 25.5 -8.5 25.5C-1.7 25.5 3.66667 25.5 5.5 25.5" stroke="black" stroke-linecap="round" stroke-linejoin="round"/>
<path d="M6 37L-19 37C-18.3333 38.8333 -15.3 42.5 -8.5 42.5C-1.7 42.5 3.66667 42.5 5.5 42.5" stroke="black" stroke-linecap="round" stroke-linejoin="round"/>
<path d="M84 44H92" stroke="black" stroke-width="0.7" stroke-linecap="round"/>
<path d="M120 98H128" stroke="black" stroke-width="0.7" stroke-linecap="round"/>
<path d="M102 42H112" stroke="black" stroke-width="0.7" stroke-linecap="round"/>
<path d="M138 96H148" stroke="black" stroke-width="0.7" stroke-linecap="round"/>
<path d="M138 88H148" stroke="black" stroke-width="0.7" stroke-linecap="round"/>
<path d="M97.9923 43.2083C97.9923 42.9167 97.8212 42.3333 97.1368 42.3333C96.2813 42.3333 95.9961 42.625 95.9961 43.7917C95.9961 44.9583 96.8516 45.25 97.1368 45.25C97.422 45.25 99.133 45.5417 99.7033 44.0833C100.274 42.625 99.9884 41.75 99.133 40.875C98.2775 40 97.7071 40 96.8516 40C95.9961 40 94 40.875 94 42.625C94 44.025 94 44.1806 94 44.0833C94.0951 45.0556 94.8555 47 96.2813 47C98.2775 47 98.8478 47 99.9884 46.125" stroke="black" stroke-width="0.7" stroke-linecap="round" stroke-linejoin="round"/>
<path d="M133.992 97.2083C133.992 96.9167 133.821 96.3333 133.137 96.3333C132.281 96.3333 131.996 96.625 131.996 97.7917C131.996 98.9583 132.852 99.25 133.137 99.25C133.422 99.25 135.133 99.5417 135.703 98.0833C136.274 96.625 135.988 95.75 135.133 94.875C134.277 94 133.707 94 132.852 94C131.996 94 130 94.875 130 96.625C130 98.025 130 98.1806 130 98.0833C130.095 99.0556 130.855 101 132.281 101C134.277 101 134.848 101 135.988 100.125" stroke="black" stroke-width="0.7" stroke-linecap="round" stroke-linejoin="round"/>
<path d="M125.254 45.9907L124.862 45.9907C123.929 46.0525 123.88 45.7943 123.88 45.598C123.88 45.4764 124.862 44.8125 124.665 44.6161C124.469 44.4198 124.469 44.4198 123.683 45.0089C122.898 45.598 122.505 45.7943 121.916 45.4016C121.445 45.0874 122.112 44.2234 122.505 43.8306C123.16 43.307 124.626 41.7491 125.254 39.7069C126.04 37.1541 127.611 35.3868 129.574 33.4231C131.145 31.8522 133.633 31.3285 134.68 31.2631C134.418 31.0667 133.973 30.4383 134.287 29.4957C134.68 28.3175 135.858 27.7284 137.429 28.1212C139 28.5139 139 29.8885 139 30.674C139 31.4594 138.411 31.6558 137.429 33.0304C136.447 34.4049 136.251 34.7977 135.465 36.1723C134.68 37.5468 134.876 38.9214 134.876 39.5105C134.876 40.0996 135.073 40.0996 134.287 40.4924C133.502 40.8851 133.305 39.1178 132.716 39.5105C132.127 39.9033 133.502 40.6887 132.52 41.2778C131.538 41.8669 131.342 40.4924 130.753 40.4924C130.163 40.4924 126.825 44.2234 126.236 45.2052C125.765 45.9907 125.451 45.9907 125.254 45.9907Z" fill="black" stroke="black" stroke-width="0.409904"/>
<path d="M134.484 40.4924L136.447 44.0271H138.607" stroke="black" stroke-width="0.6" stroke-linecap="round" stroke-linejoin="round"/>
<path d="M132.52 41.2778L133.894 44.4197H135.073" stroke="black" stroke-width="0.6" stroke-linecap="round" stroke-linejoin="round"/>
<path d="M90.4652 71.9498L89.9642 71.9498C88.7742 72.0286 88.7117 71.6993 88.7117 71.4488C88.7117 71.2938 89.9642 70.4468 89.7137 70.1963C89.4632 69.9458 89.4632 69.9458 88.4612 70.6973C87.4593 71.4488 86.9583 71.6993 86.2068 71.1983C85.6056 70.7975 86.4573 69.6953 86.9583 69.1944C87.7933 68.5264 89.6636 66.5391 90.4652 63.9339C91.4672 60.6775 93.4712 58.423 95.9762 55.918C97.9801 53.914 101.153 53.2461 102.489 53.1626C102.155 52.912 101.587 52.1104 101.988 50.908C102.489 49.4051 103.992 48.6536 105.996 49.1546C108 49.6556 108 51.409 108 52.411C108 53.413 107.249 53.6635 105.996 55.417C104.744 57.1705 104.493 57.6715 103.491 59.4249C102.489 61.1784 102.74 62.9319 102.74 63.6834C102.74 64.4349 102.99 64.4349 101.988 64.9359C100.986 65.4369 100.736 63.1824 99.9841 63.6834C99.2326 64.1844 100.986 65.1864 99.7336 65.9379C98.4811 66.6894 98.2306 64.9359 97.4791 64.9359C96.7276 64.9359 92.4692 69.6953 91.7177 70.9478C91.1165 71.9498 90.7157 71.9498 90.4652 71.9498Z" fill="black" stroke="black" stroke-width="0.409904"/>
<path d="M102.239 64.9364L104.743 69.4453H107.499" stroke="black" stroke-width="0.6" stroke-linecap="round" stroke-linejoin="round"/>
<path d="M99.7336 65.9376L101.487 69.9456H102.99" stroke="black" stroke-width="0.6" stroke-linecap="round" stroke-linejoin="round"/>
<path d="M120 8.28728H123.821C124.046 7.76282 125.26 6.66893 128.317 6.48912L135.959 6.03958C137.457 5.88973 140.769 6.08453 142.028 8.06251C143.108 9.76008 143.934 10.2546 144.336 10.3134C144.399 10.3112 144.453 10.3103 144.5 10.3103C144.458 10.3209 144.403 10.3231 144.336 10.3134C143.798 10.3318 142.706 10.4375 141.578 10.7598C140.005 11.2093 137.982 12.1084 133.486 11.8837C128.991 11.6589 126.069 10.7598 123.821 8.96164H120.674L120 8.28728Z" fill="black" stroke="black"/>
<circle cx="134.385" cy="8.9617" r="2.24771" fill="white"/>
<circle cx="127.518" cy="12.6743" r="0.674312" fill="black"/>
<circle cx="134.826" cy="13.8258" r="0.674312" transform="rotate(-15 134.826 13.8258)" fill="black"/>
<circle cx="127.069" cy="14.4725" r="0.674312" fill="black"/>
<circle cx="134.857" cy="15.6792" r="0.674312" transform="rotate(-15 134.857 15.6792)" fill="black"/>
<circle cx="126.619" cy="16.2706" r="0.674312" fill="black"/>
<circle cx="134.888" cy="17.5324" r="0.674312" transform="rotate(-15 134.888 17.5324)" fill="black"/>
<circle cx="126.17" cy="18.0687" r="0.674312" fill="black"/>
<circle cx="134.919" cy="19.3855" r="0.674312" transform="rotate(-15 134.919 19.3855)" fill="black"/>
<path d="M126.452 22.0321C126.381 22.3978 126.028 22.6372 125.662 22.5668C125.297 22.4963 125.057 22.1428 125.128 21.7771C125.198 21.4114 125.952 19.8757 126.172 19.9182C126.393 19.9607 126.522 21.6665 126.452 22.0321Z" fill="black"/>
<path d="M135.649 23.0229C135.649 23.3953 135.347 23.6972 134.974 23.6972C134.602 23.6972 134.3 23.3953 134.3 23.0229C134.3 22.6505 134.75 21 134.974 21C135.199 21 135.649 22.6505 135.649 23.0229Z" fill="black"/>
<path d="M15 10H41.4614" stroke="black" stroke-linecap="round"/>
<circle cx="21.8407" cy="12.8022" r="0.840656" fill="black"/>
<circle cx="27.5221" cy="12.8022" r="0.840656" fill="black"/>
<circle cx="33.2034" cy="12.8022" r="0.840656" fill="black"/>
<path d="M15 4H41.4614" stroke="black" stroke-linecap="round"/>
<circle cx="21.8407" cy="6.84066" r="0.840656" fill="black"/>
<circle cx="27.5221" cy="6.84066" r="0.840656" fill="black"/>
<circle cx="33.2034" cy="6.8022" r="0.840656" fill="black"/>
<path d="M15 58H41.4614" stroke="black" stroke-linecap="round"/>
<circle cx="21.8407" cy="60.8022" r="0.840656" fill="black"/>
<circle cx="27.5221" cy="60.8022" r="0.840656" fill="black"/>
<circle cx="33.2034" cy="60.8022" r="0.840656" fill="black"/>
<path d="M15 52H41.4614" stroke="black" stroke-linecap="round"/>
<circle cx="21.8407" cy="54.8407" r="0.840656" fill="black"/>
<circle cx="27.5221" cy="54.8407" r="0.840656" fill="black"/>
<circle cx="33.2034" cy="54.8022" r="0.840656" fill="black"/>
<path d="M49 86H75.4614" stroke="black" stroke-linecap="round"/>
<circle cx="55.8407" cy="88.8022" r="0.840656" fill="black"/>
<circle cx="61.5221" cy="88.8022" r="0.840656" fill="black"/>
<circle cx="67.2034" cy="88.8022" r="0.840656" fill="black"/>
<path d="M49 80H75.4614" stroke="black" stroke-linecap="round"/>
<circle cx="55.8407" cy="82.8407" r="0.840656" fill="black"/>
<circle cx="61.5221" cy="82.8407" r="0.840656" fill="black"/>
<circle cx="67.2034" cy="82.8022" r="0.840656" fill="black"/>
<path d="M11 0V114" stroke="black" stroke-linecap="round"/>
<path d="M46 0V104" stroke="black" stroke-linecap="round"/>
<path d="M80 0V104" stroke="black" stroke-linecap="round"/>
<path d="M115 0V104" stroke="black" stroke-linecap="round"/>
<path d="M40.0384 37H29.2567C29.8584 35.7848 32.1819 35.1435 33.2685 34.9747C32.0649 34.9747 31.9312 33.2869 32.0148 32.443V24.3418C32.0148 23.8354 31.764 23.3291 31.2626 23.3291C30.8614 23.3291 30.5939 23.6667 30.5103 23.8354C30.0089 24.6793 28.8708 26.4177 28.8708 26.6202C28.8708 26.8228 29.3402 26.8734 29.5074 26.8734H29.9381C30.4395 26.8734 31.0053 26.9149 31.0053 27.5225C31.0053 28.6001 30.356 28.3924 29.9381 28.3924H28.003C27.2507 28.3924 27 28.1392 27 27.3797C27 26.7721 27.3343 26.2827 27.5015 26.1139C28.003 25.27 29.1062 23.4304 29.5074 22.8228C30.0089 22.0633 30.2596 22.0633 31.2626 22.0633C32.0649 22.0633 32.2655 21.8945 32.2655 21.8101V21.0506C32.2655 20.5443 31.764 20.5443 31.2626 20.2911C30.7611 20.038 30.7611 19.2785 30.7611 18.2658C30.7611 17.2532 31.5133 17 32.5163 17C33.5192 17 34.5222 18.2658 35.0236 18.7721C35.5251 19.2785 35.2744 20.038 35.0236 20.5443C34.7729 21.0506 33.77 20.5443 33.77 21.3038C33.77 21.9114 34.2714 21.8945 34.5222 21.8101H35.2744C36.2773 21.8101 36.8624 22.4852 37.0296 22.8228C37.1131 22.9916 37.4307 23.5316 38.0325 24.3418C38.6343 25.1519 39.119 24.6793 39.2862 24.3418L40.5399 23.3291C41.2921 22.8228 40.9578 22.4008 40.7906 22.0633V19.5316C40.7906 18.7721 41.5429 18.7721 42.2951 18.7721C43.0473 18.7721 43.298 20.038 42.5458 20.2911C41.7936 20.5443 41.7936 20.038 41.7936 20.7975C41.7936 22.3164 42.0443 21.8101 42.2951 22.5696C42.4957 23.1772 42.0443 23.6667 41.7936 23.8354C41.2085 24.3418 39.9381 25.4557 39.5369 25.8607C39.0355 26.3671 39.2862 26.3671 38.0325 26.3671C36.7788 26.3671 36.2773 23.3291 35.2744 23.3291C34.472 23.3291 34.2714 23.8354 34.2714 24.0886C34.1878 26.789 34.0708 32.3417 34.2714 32.9493C34.472 33.5569 34.8565 33.2025 35.0236 32.9493C35.6087 32.2742 36.9293 30.7722 37.531 30.1646C38.2833 29.4051 39.0355 28.8987 40.0384 29.6582C40.8408 30.2658 40.2056 31.2616 39.7877 31.6836L36.5281 34.7215H39.7877C40.7906 34.7215 41.7936 34.9747 41.7936 35.9873C41.7936 36.7975 40.6235 37 40.0384 37Z" fill="black" stroke="black" stroke-width="0.46988"/>
<path d="M86.9616 37H97.7433C97.1416 35.7848 94.8181 35.1435 93.7315 34.9747C94.9351 34.9747 95.0688 33.2869 94.9852 32.443V24.3418C94.9852 23.8354 95.236 23.3291 95.7374 23.3291C96.1386 23.3291 96.4061 23.6667 96.4897 23.8354C96.9911 24.6793 98.1292 26.4177 98.1292 26.6202C98.1292 26.8228 97.6598 26.8734 97.4926 26.8734H97.0619C96.5605 26.8734 95.9947 26.9149 95.9947 27.5225C95.9947 28.6001 96.644 28.3924 97.0619 28.3924H98.997C99.7493 28.3924 100 28.1392 100 27.3797C100 26.7721 99.6657 26.2827 99.4985 26.1139C98.997 25.27 97.8938 23.4304 97.4926 22.8228C96.9911 22.0633 96.7404 22.0633 95.7374 22.0633C94.9351 22.0633 94.7345 21.8945 94.7345 21.8101V21.0506C94.7345 20.5443 95.236 20.5443 95.7374 20.2911C96.2389 20.038 96.2389 19.2785 96.2389 18.2658C96.2389 17.2532 95.4867 17 94.4837 17C93.4808 17 92.4778 18.2658 91.9764 18.7721C91.4749 19.2785 91.7256 20.038 91.9764 20.5443C92.2271 21.0506 93.23 20.5443 93.23 21.3038C93.23 21.9114 92.7286 21.8945 92.4778 21.8101H91.7256C90.7227 21.8101 90.1376 22.4852 89.9704 22.8228C89.8869 22.9916 89.5693 23.5316 88.9675 24.3418C88.3657 25.1519 87.881 24.6793 87.7138 24.3418L86.4601 23.3291C85.7079 22.8228 86.0422 22.4008 86.2094 22.0633V19.5316C86.2094 18.7721 85.4571 18.7721 84.7049 18.7721C83.9527 18.7721 83.702 20.038 84.4542 20.2911C85.2064 20.5443 85.2064 20.038 85.2064 20.7975C85.2064 22.3164 84.9557 21.8101 84.7049 22.5696C84.5043 23.1772 84.9557 23.6667 85.2064 23.8354C85.7915 24.3418 87.0619 25.4557 87.4631 25.8607C87.9645 26.3671 87.7138 26.3671 88.9675 26.3671C90.2212 26.3671 90.7227 23.3291 91.7256 23.3291C92.528 23.3291 92.7286 23.8354 92.7286 24.0886C92.8122 26.789 92.9292 32.3417 92.7286 32.9493C92.528 33.5569 92.1435 33.2025 91.9764 32.9493C91.3913 32.2742 90.0707 30.7722 89.469 30.1646C88.7167 29.4051 87.9645 28.8987 86.9616 29.6582C86.1592 30.2658 86.7944 31.2616 87.2123 31.6836L90.4719 34.7215H87.2123C86.2094 34.7215 85.2064 34.9747 85.2064 35.9873C85.2064 36.7975 86.3765 37 86.9616 37Z" fill="black" stroke="black" stroke-width="0.46988"/>
<path d="M18.1064 34.5904C17.1702 29.7711 17.5603 25.0321 17.8724 23.2651C17.3107 24.2289 16.3901 24.1486 16 23.988V23.2651C17.6383 23.2651 16.7021 20.8554 16.9362 19.6506C17.1702 18.4458 17.6383 17 19.7447 17C21.4298 17 21.617 18.4458 21.617 19.1687C21.617 19.6506 21.383 20.8554 20.4468 20.8554C19.2766 20.8554 18.3404 21.5783 19.2766 22.5422C20.2128 23.506 20.2128 24.2289 20.2128 27.1205C20.2128 30.012 19.2766 32.4217 20.4468 32.4217C21.383 32.4217 22.5532 30.9759 23.0213 30.253C23.4894 29.5301 24.6128 28.2289 25.3617 28.8072C26.2979 29.5301 24.5532 31.3629 23.9574 32.1807C23.2553 33.1446 22.7872 35.7952 24.4255 35.7952C26.0638 35.7952 27 35.5542 27 36.2771C27 36.8554 26.5319 37 26.2979 37H17.4043C16.7021 37 16.7021 35.7952 17.4043 35.7952C18.3404 35.7952 18.2624 34.992 18.1064 34.5904Z" fill="black" stroke="black" stroke-width="0.46988"/>
<path d="M108.894 34.5904C109.83 29.7711 109.44 25.0321 109.128 23.2651C109.689 24.2289 110.61 24.1486 111 23.988V23.2651C109.362 23.2651 110.298 20.8554 110.064 19.6506C109.83 18.4458 109.362 17 107.255 17C105.57 17 105.383 18.4458 105.383 19.1687C105.383 19.6506 105.617 20.8554 106.553 20.8554C107.723 20.8554 108.66 21.5783 107.723 22.5422C106.787 23.506 106.787 24.2289 106.787 27.1205C106.787 30.012 107.723 32.4217 106.553 32.4217C105.617 32.4217 104.447 30.9759 103.979 30.253C103.511 29.5301 102.387 28.2289 101.638 28.8072C100.702 29.5301 102.447 31.3629 103.043 32.1807C103.745 33.1446 104.213 35.7952 102.574 35.7952C100.936 35.7952 100 35.5542 100 36.2771C100 36.8554 100.468 37 100.702 37H109.596C110.298 37 110.298 35.7952 109.596 35.7952C108.66 35.7952 108.738 34.992 108.894 34.5904Z" fill="black" stroke="black" stroke-width="0.46988"/>
<rect x="16" y="41" width="3" height="6" fill="black"/>
<rect x="27" y="41" width="3" height="6" fill="black"/>
<rect x="38" y="41" width="3" height="6" fill="black"/>
<path d="M63 46C70.1797 46 76 42.4183 76 38H50C50 42.4183 55.8203 46 63 46Z" fill="black"/>
<path d="M97 98C104.18 98 110 94.4183 110 90H84C84 94.4183 89.8203 98 97 98Z" fill="black"/>
<mask id="mask0_544_46143" style="mask-type:alpha" maskUnits="userSpaceOnUse" x="50" y="50" width="26" height="26">
<path d="M63 50L72.1924 53.8076L76 63L72.1924 72.1924L63 76L53.8076 72.1924L50 63L53.8076 53.8076L63 50Z" fill="#D9D9D9"/>
</mask>
<g mask="url(#mask0_544_46143)">
<path d="M63.0002 59.1067L67.6229 47.9468L70.3748 49.0868L65.7522 60.2467L63.8062 61.0526L63.0002 59.1067ZM62.1942 64.9462L60.2483 65.7521L55.6256 76.912L58.3776 78.052L63.0002 66.8921L62.1942 64.9462ZM61.0542 62.1942L60.2483 60.2482L49.0883 55.6256L47.9484 58.3775L59.1098 63.0002L61.0558 62.1942H61.0542ZM64.9477 63.8062L65.7537 65.7521L76.9136 70.3748L78.0536 67.6228L66.8937 63.0002L64.9477 63.8062Z" fill="#535353"/>
<path d="M65.7519 65.7522L70.3745 76.9121L67.6226 78.052L62.9999 66.8921L63.8059 64.9462L64.1399 64.1402L64.9459 63.8062L65.7519 65.7522ZM63.8059 61.0527L64.1399 61.8587L64.9459 62.1927L66.8919 62.9986L78.0518 58.376L76.9118 55.624L65.7519 60.2467L63.8059 61.0527ZM62.194 64.9462L61.86 64.1402L61.054 63.8062L59.108 63.0002L47.9465 67.6229L49.0865 70.3748L60.2464 65.7522L62.1924 64.9462H62.194ZM61.054 62.1942L61.86 61.8602L62.194 61.0542L62.9999 59.1083L58.3773 47.9484L55.6253 49.0883L60.248 60.2483L61.054 62.1942Z" fill="black"/>
</g>
<mask id="mask1_544_46143" style="mask-type:alpha" maskUnits="userSpaceOnUse" x="16" y="78" width="26" height="26">
<path d="M29 78L38.1924 81.8076L42 91L38.1924 100.192L29 104L19.8076 100.192L16 91L19.8076 81.8076L29 78Z" fill="#D9D9D9"/>
</mask>
<g mask="url(#mask1_544_46143)">
<path d="M29.0002 87.1067L33.6229 75.9468L36.3748 77.0868L31.7522 88.2467L29.8062 89.0526L29.0002 87.1067ZM28.1942 92.9462L26.2483 93.7521L21.6256 104.912L24.3776 106.052L29.0002 94.8921L28.1942 92.9462ZM27.0542 90.1942L26.2483 88.2482L15.0883 83.6256L13.9484 86.3775L25.1098 91.0002L27.0558 90.1942H27.0542ZM30.9477 91.8062L31.7537 93.7521L42.9136 98.3748L44.0536 95.6228L32.8937 91.0002L30.9477 91.8062Z" fill="#535353"/>
<path d="M31.7519 93.7522L36.3745 104.912L33.6226 106.052L28.9999 94.8921L29.8059 92.9462L30.1399 92.1402L30.9459 91.8062L31.7519 93.7522ZM29.8059 89.0527L30.1399 89.8587L30.9459 90.1927L32.8919 90.9986L44.0518 86.376L42.9118 83.624L31.7519 88.2467L29.8059 89.0527ZM28.194 92.9462L27.86 92.1402L27.054 91.8062L25.108 91.0002L13.9465 95.6229L15.0865 98.3748L26.2464 93.7522L28.1924 92.9462H28.194ZM27.054 90.1942L27.86 89.8602L28.194 89.0542L28.9999 87.1083L24.3773 75.9484L21.6253 77.0883L26.248 88.2483L27.054 90.1942Z" fill="black"/>
</g>
<path d="M88 11C90.2091 11 92 12.3431 92 14H84C84 12.3431 85.7909 11 88 11Z" fill="black"/>
<path d="M53 94C55.2091 94 57 95.3431 57 97H49C49 95.3431 50.7909 94 53 94Z" fill="black"/>
<path fill-rule="evenodd" clip-rule="evenodd" d="M111 3H84V9C84 6.79086 86.9101 5 90.5 5C94.0899 5 97 6.79086 97 9H98C98 6.79086 100.91 5 104.5 5C108.09 5 111 6.79086 111 9V3Z" fill="black"/>
<path d="M107 11C109.209 11 111 12.3431 111 14H103C103 12.3431 104.791 11 107 11Z" fill="black"/>
<path d="M72 94C74.2091 94 76 95.3431 76 97H68C68 95.3431 69.7909 94 72 94Z" fill="black"/>
<path d="M50 8.00958C53.7356 5.17007 64.5 0.5 75 8.0097C74.1379 8.54205 64 16.0002 50 8.00958Z" stroke="black" stroke-linejoin="round"/>
<path d="M-19 55.0618C-15.2644 52.2223 -4.5 47.5522 6 55.0619C5.13793 55.5943 -5 63.0525 -19 55.0618Z" stroke="black" stroke-linejoin="round"/>
<path d="M85 80.0618C88.7356 77.2223 99.5 72.5522 110 80.0619C109.138 80.5943 99 88.0525 85 80.0618Z" stroke="black" stroke-linejoin="round"/>
<path d="M-4.58563 69L5.849 69" stroke="black"/>
<path d="M-15 97.9996L-6.73361 79.7051M-6.73361 79.7051L-4.45773 74.2186C-3.55547 72.0435 -1.43229 70.6256 0.922532 70.6256H2.20758C4.71481 70.6256 6.74732 72.6581 6.74732 75.1654V75.1654C6.74732 77.6726 4.71481 79.7051 2.20758 79.7051H-6.73361Z" stroke="black"/>
<circle cx="1.05582" cy="75.0088" r="2.75235" stroke="black"/>
<path d="M2.45929 81.1909L2.45929 97.7311" stroke="black"/>
<path d="M-0.228364 81.1965V93.1218C-0.228364 95.5168 -2.16987 97.4583 -4.56484 97.4583V97.4583C-6.9598 97.4583 -8.90131 95.5168 -8.90131 93.1218V92.8916" stroke="black"/>
<path d="M15.1714 118.616L12.5429 113.488M15.1714 118.616V112.847M15.1714 118.616L18.4571 113.488M15.1714 118.616L6.35539 113.558M15.1714 118.616L24.6347 113.488M15.1714 118.616V134M6.35539 113.558L4 112.206C6.62857 106.437 17.8 99.3861 27 112.206L24.6347 113.488M6.35539 113.558C9.25714 109.001 17.1429 103.232 24.6347 113.488" stroke="black" stroke-linecap="round"/>
<path d="M41.1714 118.616L38.5429 113.488M41.1714 118.616V112.847M41.1714 118.616L44.4571 113.488M41.1714 118.616L32.3554 113.558M41.1714 118.616L50.6347 113.488M41.1714 118.616V134M32.3554 113.558L30 112.206C32.6286 106.437 43.8 99.3861 53 112.206L50.6347 113.488M32.3554 113.558C35.2571 109.001 43.1429 103.232 50.6347 113.488" stroke="black" stroke-linecap="round"/>
<path d="M67.1714 118.616L64.5429 113.488M67.1714 118.616V112.847M67.1714 118.616L70.4571 113.488M67.1714 118.616L58.3554 113.558M67.1714 118.616L76.6347 113.488M67.1714 118.616V134M58.3554 113.558L56 112.206C58.6286 106.437 69.8 99.3861 79 112.206L76.6347 113.488M58.3554 113.558C61.2571 109.001 69.1429 103.232 76.6347 113.488" stroke="black" stroke-linecap="round"/>
<path d="M93.1714 118.616L90.5429 113.488M93.1714 118.616V112.847M93.1714 118.616L96.4571 113.488M93.1714 118.616L84.3554 113.558M93.1714 118.616L102.635 113.488M93.1714 118.616V134M84.3554 113.558L82 112.206C84.6286 106.437 95.8 99.3861 105 112.206L102.635 113.488M84.3554 113.558C87.2571 109.001 95.1429 103.232 102.635 113.488" stroke="black" stroke-linecap="round"/>
<path d="M119.171 118.616L116.543 113.488M119.171 118.616V112.847M119.171 118.616L122.457 113.488M119.171 118.616L110.355 113.558M119.171 118.616L128.635 113.488M119.171 118.616V134M110.355 113.558L108 112.206C110.629 106.437 121.8 99.3861 131 112.206L128.635 113.488M110.355 113.558C113.257 109.001 121.143 103.232 128.635 113.488" stroke="black" stroke-linecap="round"/>
<path d="M145.171 118.616L142.543 113.488M145.171 118.616V112.847M145.171 118.616L148.457 113.488M145.171 118.616L136.355 113.558M145.171 118.616L154.635 113.488M145.171 118.616V134M136.355 113.558L134 112.206C136.629 106.437 147.8 99.3861 157 112.206L154.635 113.488M136.355 113.558C139.257 109.001 147.143 103.232 154.635 113.488" stroke="black" stroke-linecap="round"/>
<path d="M28.1714 131.616L25.5429 126.488M28.1714 131.616V125.847M28.1714 131.616L31.4571 126.488M28.1714 131.616L19.3554 126.558M28.1714 131.616L37.6347 126.488M28.1714 131.616V147M19.3554 126.558L17 125.206C19.6286 119.437 30.8 112.386 40 125.206L37.6347 126.488M19.3554 126.558C22.2571 122.001 30.1429 116.232 37.6347 126.488" stroke="black" stroke-linecap="round"/>
<path d="M54.1714 131.616L51.5429 126.488M54.1714 131.616V125.847M54.1714 131.616L57.4571 126.488M54.1714 131.616L45.3554 126.558M54.1714 131.616L63.6347 126.488M54.1714 131.616V147M45.3554 126.558L43 125.206C45.6286 119.437 56.8 112.386 66 125.206L63.6347 126.488M45.3554 126.558C48.2571 122.001 56.1429 116.232 63.6347 126.488" stroke="black" stroke-linecap="round"/>
<path d="M80.1714 131.616L77.5429 126.488M80.1714 131.616V125.847M80.1714 131.616L83.4571 126.488M80.1714 131.616L71.3554 126.558M80.1714 131.616L89.6347 126.488M80.1714 131.616V147M71.3554 126.558L69 125.206C71.6286 119.437 82.8 112.386 92 125.206L89.6347 126.488M71.3554 126.558C74.2571 122.001 82.1429 116.232 89.6347 126.488" stroke="black" stroke-linecap="round"/>
<path d="M106.171 131.616L103.543 126.488M106.171 131.616V125.847M106.171 131.616L109.457 126.488M106.171 131.616L97.3554 126.558M106.171 131.616L115.635 126.488M106.171 131.616V147M97.3554 126.558L95 125.206C97.6286 119.437 108.8 112.386 118 125.206L115.635 126.488M97.3554 126.558C100.257 122.001 108.143 116.232 115.635 126.488" stroke="black" stroke-linecap="round"/>
<path d="M15.1714 144.616L12.5429 139.488M15.1714 144.616V138.847M15.1714 144.616L18.4571 139.488M15.1714 144.616L6.35539 139.558M15.1714 144.616L24.6347 139.488M15.1714 144.616V160M6.35539 139.558L4 138.206C6.62857 132.437 17.8 125.386 27 138.206L24.6347 139.488M6.35539 139.558C9.25714 135.001 17.1429 129.232 24.6347 139.488" stroke="black" stroke-linecap="round"/>
<path d="M41.1714 144.616L38.5429 139.488M41.1714 144.616V138.847M41.1714 144.616L44.4571 139.488M41.1714 144.616L32.3554 139.558M41.1714 144.616L50.6347 139.488M41.1714 144.616V160M32.3554 139.558L30 138.206C32.6286 132.437 43.8 125.386 53 138.206L50.6347 139.488M32.3554 139.558C35.2571 135.001 43.1429 129.232 50.6347 139.488" stroke="black" stroke-linecap="round"/>
<path d="M67.1714 144.616L64.5429 139.488M67.1714 144.616V138.847M67.1714 144.616L70.4571 139.488M67.1714 144.616L58.3554 139.558M67.1714 144.616L76.6347 139.488M67.1714 144.616V160M58.3554 139.558L56 138.206C58.6286 132.437 69.8 125.386 79 138.206L76.6347 139.488M58.3554 139.558C61.2571 135.001 69.1429 129.232 76.6347 139.488" stroke="black" stroke-linecap="round"/>
<path d="M93.1714 144.616L90.5429 139.488M93.1714 144.616V138.847M93.1714 144.616L96.4571 139.488M93.1714 144.616L84.3554 139.558M93.1714 144.616L102.635 139.488M93.1714 144.616V160M84.3554 139.558L82 138.206C84.6286 132.437 95.8 125.386 105 138.206L102.635 139.488M84.3554 139.558C87.2571 135.001 95.1429 129.232 102.635 139.488" stroke="black" stroke-linecap="round"/>
<path d="M119.171 144.616L116.543 139.488M119.171 144.616V138.847M119.171 144.616L122.457 139.488M119.171 144.616L110.355 139.558M119.171 144.616L128.635 139.488M119.171 144.616V160M110.355 139.558L108 138.206C110.629 132.437 121.8 125.386 131 138.206L128.635 139.488M110.355 139.558C113.257 135.001 121.143 129.232 128.635 139.488" stroke="black" stroke-linecap="round"/>
<path d="M145.171 144.616L142.543 139.488M145.171 144.616V138.847M145.171 144.616L148.457 139.488M145.171 144.616L136.355 139.558M145.171 144.616L154.635 139.488M145.171 144.616V160M136.355 139.558L134 138.206C136.629 132.437 147.8 125.386 157 138.206L154.635 139.488M136.355 139.558C139.257 135.001 147.143 129.232 154.635 139.488" stroke="black" stroke-linecap="round"/>
<circle cx="70" cy="70" r="69.5" stroke="#1A1A1A"/>
<path d="M129.526 53V57.3262C129.526 60.3589 131.977 62.8174 135 62.8174C138.023 62.8174 140.474 60.3589 140.474 57.3262V53" stroke="black"/>
<circle cx="135.001" cy="57.3434" r="3.78392" stroke="black"/>
<path d="M135 63.2632V88.579" stroke="black"/>
<path d="M133.631 66.1105L122 66.1094" stroke="black"/>
<path d="M133.631 68.8471L123.368 68.8466" stroke="black"/>
<path d="M133.631 71.5835L124.737 71.583" stroke="black"/>
<path d="M133.631 74.3204L126.105 74.3201" stroke="black"/>
<path d="M133.631 77.0576L127.473 77.057" stroke="black"/>
<line y1="-0.5" x2="4.65263" y2="-0.5" transform="matrix(-1 0 0 1 133.631 80.3685)" stroke="black"/>
<path d="M133.631 82.531L130.21 82.5305" stroke="black"/>
<path d="M136.368 66.1105L148 66.1094" stroke="black"/>
<path d="M136.369 68.8471L146.632 68.8466" stroke="black"/>
<path d="M136.369 71.5835L145.263 71.583" stroke="black"/>
<path d="M136.369 74.3204L143.895 74.3201" stroke="black"/>
<path d="M136.369 77.0576L142.526 77.057" stroke="black"/>
<line x1="136.369" y1="79.8685" x2="141.021" y2="79.8685" stroke="black"/>
<path d="M136.369 82.531L139.79 82.5305" stroke="black"/>
</g>
</g>
<rect x="0.5" y="0.5" width="139" height="139" rx="69.5" stroke="white"/>
<defs>
<clipPath id="clip0_544_46143">
<rect width="140" height="140" rx="70" fill="white"/>
</clipPath>
<clipPath id="clip1_544_46143">
<rect width="140" height="140" rx="70" fill="white"/>
</clipPath>
</defs>
</svg>
