<svg width="120" height="147" viewBox="0 0 120 147" fill="none" xmlns="http://www.w3.org/2000/svg">
<path fill-rule="evenodd" clip-rule="evenodd" d="M120 -0.000488281H0V115.609V115.609H0.00105758L59.9998 146.341V115.609H60.0002V146.341L119.999 115.609H120V115.609V-0.000488281Z" fill="#E6F31A"/>
<path fill-rule="evenodd" clip-rule="evenodd" d="M120 -0.000488281H0V115.609V115.609H0.00105757L59.9998 146.341V115.609H60.0002V146.341L119.999 115.609H120V115.609V-0.000488281Z" fill="url(#paint0_angular_166_16794)" style="mix-blend-mode:multiply"/>
<path opacity="0.16" fill-rule="evenodd" clip-rule="evenodd" d="M112.68 111.951L59.9993 128.048L93.6306 111.951H87.6947L59.9993 119.999L75.5592 111.951H71.2313L59.9993 115.243L59.9993 115.243L48.7656 111.951H44.4384L59.9993 119.999L32.3022 111.951H26.367L59.9993 128.048L7.31641 111.951L59.9991 139.024V139.024L59.9994 139.024L112.682 111.951H112.68ZM112.681 111.95H112.682V68.0479L112.682 111.95L112.681 111.95ZM71.2323 111.95H75.5598L81.2188 109.023L71.2323 111.95ZM87.6957 111.95H93.6312L102.804 107.56L87.6957 111.95ZM38.7798 109.024L48.7648 111.95H44.438L38.7798 109.024ZM17.1945 107.56L32.3014 111.95H26.3665L17.1945 107.56Z" fill="black"/>
<g clip-path="url(#clip0_166_16794)">
<path d="M77.1156 61.9058C74.76 60.84 72.1489 60.2427 69.3954 60.2427C65.9773 60.2427 62.7739 61.1613 60.0137 62.7611C63.3979 64.7206 66.1107 67.7074 67.7339 71.296C68.7986 73.6538 69.3954 76.2672 69.3954 79.0232C69.3954 81.7792 68.7986 84.3926 67.7339 86.7503C71.3193 85.128 74.3034 82.4104 76.2611 79.0232C77.8594 76.2604 78.7772 73.0541 78.7772 69.6329C78.7772 66.8769 78.1804 64.2635 77.1156 61.9058Z" fill="url(#paint1_linear_166_16794)"/>
<path d="M76.2625 79.0234C74.3048 82.4107 71.3207 85.126 67.7353 86.7506C65.3797 87.8163 62.7686 88.4137 60.0151 88.4137C57.2616 88.4137 54.6505 87.8163 52.2949 86.7506C53.9158 90.3393 56.6309 93.326 60.0151 95.2855C62.7754 96.8853 65.9787 97.8039 69.3969 97.8039C72.1504 97.8039 74.7614 97.2066 77.117 96.1408C78.1818 93.7831 78.7786 91.1697 78.7786 88.4137C78.7786 84.9925 77.8608 81.7862 76.2625 79.0234Z" fill="url(#paint2_linear_166_16794)"/>
<path d="M42.8803 96.1409C45.236 97.2067 47.847 97.804 50.6005 97.804C54.0186 97.804 57.222 96.8854 59.9823 95.2856C56.5981 93.3261 53.8853 90.3394 52.2621 86.7507C51.1973 84.393 50.6005 81.7795 50.6005 79.0235C50.6005 76.2676 51.1973 73.6541 52.2621 71.2964C48.6767 72.9187 45.6926 75.6363 43.7349 79.0235C42.1366 81.7863 41.2188 84.9926 41.2188 88.4138C41.2188 91.1698 41.8156 93.7832 42.8803 96.1409Z" fill="url(#paint3_linear_166_16794)"/>
<path d="M43.7349 79.0232C45.6926 75.6359 48.6767 72.9206 52.2621 71.296C54.6177 70.2303 57.2288 69.6329 59.9823 69.6329C62.7358 69.6329 65.3469 70.2303 67.7025 71.296C66.0816 67.7074 63.3665 64.7206 59.9823 62.7611C57.222 61.1613 54.0186 60.2427 50.6005 60.2427C47.847 60.2427 45.236 60.84 42.8803 61.9058C41.8156 64.2635 41.2188 66.8769 41.2188 69.6329C41.2188 73.0541 42.1366 76.2604 43.7349 79.0232Z" fill="url(#paint4_linear_166_16794)"/>
</g>
<g clip-path="url(#clip1_166_16794)">
<path d="M45.2863 46.1206H42.7475L42.7632 43.9984H45.2863C45.8104 43.9984 46.2531 43.8726 46.6147 43.6211C46.9815 43.3696 47.2592 42.9949 47.4479 42.4971C47.6418 41.994 47.7387 41.3757 47.7387 40.6421V40.1469C47.7387 39.5967 47.6837 39.1146 47.5736 38.7006C47.4688 38.2814 47.3116 37.933 47.102 37.6552C46.8924 37.3723 46.6304 37.16 46.316 37.0186C46.0069 36.8771 45.6505 36.8063 45.247 36.8063H42.7004V34.6762H45.247C46.0226 34.6762 46.7326 34.8099 47.3771 35.0771C48.0269 35.3391 48.5876 35.7164 49.0592 36.209C49.5361 36.6963 49.9029 37.2753 50.1596 37.9461C50.4216 38.6116 50.5526 39.3504 50.5526 40.1626V40.6421C50.5526 41.4491 50.4216 42.1879 50.1596 42.8586C49.9029 43.5294 49.5387 44.1084 49.0671 44.5957C48.5955 45.0831 48.0374 45.4604 47.3929 45.7276C46.7536 45.9896 46.0514 46.1206 45.2863 46.1206ZM44.3274 34.6762V46.1206H41.5685V34.6762H44.3274ZM59.8873 37.0814L57.097 46.1206H54.1337L58.3389 34.6762H60.2175L59.8873 37.0814ZM62.1982 46.1206L59.4 37.0814L59.0384 34.6762H60.9406L65.1694 46.1206H62.1982ZM62.0882 41.8525V43.9826H56.2167V41.8525H62.0882ZM78.7407 40.1705V40.6342C78.7407 41.5093 78.6175 42.2953 78.3712 42.9923C78.1302 43.684 77.787 44.2761 77.3416 44.7687C76.8962 45.256 76.3695 45.6307 75.7617 45.8927C75.1538 46.1494 74.4831 46.2778 73.7495 46.2778C73.0106 46.2778 72.3347 46.1494 71.7216 45.8927C71.1137 45.6307 70.5845 45.256 70.1338 44.7687C69.6884 44.2761 69.3426 43.684 69.0963 42.9923C68.8552 42.2953 68.7347 41.5093 68.7347 40.6342V40.1705C68.7347 39.2954 68.8552 38.5094 69.0963 37.8124C69.3426 37.1155 69.6858 36.5234 70.126 36.036C70.5714 35.5435 71.098 35.1688 71.7058 34.912C72.3189 34.65 72.9949 34.519 73.7338 34.519C74.4674 34.519 75.1381 34.65 75.746 34.912C76.359 35.1688 76.8883 35.5435 77.3337 36.036C77.7791 36.5234 78.125 37.1155 78.3712 37.8124C78.6175 38.5094 78.7407 39.2954 78.7407 40.1705ZM75.9425 40.6342V40.1548C75.9425 39.5888 75.8927 39.091 75.7931 38.6613C75.6988 38.2264 75.5573 37.8622 75.3687 37.5688C75.18 37.2753 74.9468 37.0552 74.6691 36.9085C74.3966 36.7566 74.0848 36.6806 73.7338 36.6806C73.367 36.6806 73.0473 36.7566 72.7748 36.9085C72.5023 37.0552 72.2744 37.2753 72.091 37.5688C71.9076 37.8622 71.7687 38.2264 71.6744 38.6613C71.5853 39.091 71.5408 39.5888 71.5408 40.1548V40.6342C71.5408 41.1949 71.5853 41.6927 71.6744 42.1277C71.7687 42.5573 71.9076 42.9215 72.091 43.2202C72.2796 43.5189 72.5102 43.7442 72.7827 43.8962C73.0604 44.0481 73.3827 44.1241 73.7495 44.1241C74.1006 44.1241 74.4124 44.0481 74.6848 43.8962C74.9573 43.7442 75.1853 43.5189 75.3687 43.2202C75.5573 42.9215 75.6988 42.5573 75.7931 42.1277C75.8927 41.6927 75.9425 41.1949 75.9425 40.6342Z" fill="black"/>
<g clip-path="url(#clip2_166_16794)">
<path d="M29.574 26.7651C29.874 27.8553 29.9399 28.8578 29.7789 29.7797C29.6179 30.7017 29.2375 31.4846 28.6448 32.1285C28.0521 32.7651 27.2911 33.2114 26.3692 33.4675C25.4545 33.7163 24.5765 33.7163 23.7423 33.4748C22.9082 33.2334 22.1765 32.7578 21.5618 32.048C20.9472 31.3382 20.4862 30.4529 20.1936 29.3919L20.0472 28.8431C19.7399 27.7602 19.674 26.7431 19.8423 25.8138C20.0106 24.8773 20.3911 24.0943 20.9838 23.4577C21.5765 22.8212 22.3375 22.3748 23.2521 22.126C24.174 21.8773 25.0521 21.8773 25.8862 22.126C26.7204 22.3748 27.4521 22.8577 28.0667 23.5748C28.6814 24.2919 29.1423 25.1919 29.435 26.2748L29.5667 26.7651H29.574ZM27.1301 26.8895C26.8155 25.7334 26.3692 24.9065 25.7911 24.4163C25.2131 23.926 24.5399 23.787 23.7716 23.9992C23.0106 24.2114 22.4984 24.6651 22.2497 25.3748C21.9936 26.0846 22.0228 27.0065 22.3301 28.1553L22.4765 28.6968C22.7838 29.8236 23.2301 30.6431 23.8155 31.148C24.4009 31.6602 25.0814 31.8065 25.857 31.5943C26.6179 31.3895 27.1228 30.9285 27.3716 30.2187C27.6204 29.509 27.5838 28.5797 27.2765 27.4309L27.1301 26.8895Z" fill="black"/>
<path d="M39.716 26.2089L37.8575 26.4942L38.4868 30.6357L36.1526 30.9942L34.4258 19.682L38.6331 19.0381C39.9721 18.8332 41.0477 18.9723 41.8599 19.4625C42.6721 19.9454 43.1697 20.7357 43.3307 21.8186C43.4477 22.5869 43.3819 23.2601 43.1258 23.8235C42.8697 24.3869 42.4233 24.8772 41.7941 25.2869L44.9477 29.5381L44.9624 29.6479L42.4599 30.0284L39.7087 26.2089H39.716ZM37.5721 24.6064L39.4526 24.3211C40.038 24.2333 40.4697 24.0137 40.7477 23.6698C41.0258 23.3259 41.1209 22.8869 41.0404 22.3674C40.9599 21.8332 40.7404 21.4381 40.3965 21.1747C40.0453 20.9186 39.555 20.8308 38.9331 20.9259L37.0599 21.2113L37.5794 24.6064H37.5721Z" fill="black"/>
<path d="M56.238 26.604L52.1038 26.7649L51.4087 29.1503L48.9062 29.2454L52.7258 17.6405L54.9062 17.5601L59.6258 28.8284L57.1233 28.9235L56.238 26.5966V26.604ZM52.6672 24.8259L55.5282 24.7162L53.9258 20.4942L52.6672 24.8259Z" fill="black"/>
<path d="M73.4842 25.8427C73.3013 27.0647 72.7818 27.994 71.911 28.6452C71.0403 29.2891 69.9354 29.5598 68.5964 29.4647C67.133 29.3549 66.0208 28.7769 65.2525 27.7305C64.4842 26.6842 64.1696 25.3013 64.294 23.5818L64.3452 22.8866C64.4257 21.7891 64.6891 20.8379 65.1427 20.0257C65.5891 19.2208 66.1891 18.6208 66.9427 18.2257C67.6964 17.8305 68.5452 17.6696 69.4964 17.7427C70.8135 17.8379 71.8452 18.2696 72.5989 19.0379C73.3525 19.8062 73.7403 20.8305 73.7696 22.111L71.4208 21.9354C71.4208 21.1964 71.2525 20.6476 70.9232 20.2891C70.594 19.9305 70.0671 19.7257 69.3501 19.6744C68.5671 19.6159 67.9598 19.8501 67.5281 20.3842C67.0964 20.9183 66.833 21.7744 66.7306 22.9525L66.6647 23.8159C66.5696 25.0525 66.694 25.9671 67.0232 26.5598C67.3525 27.1598 67.9232 27.4891 68.7281 27.5476C69.4525 27.5988 70.0086 27.4745 70.3891 27.1744C70.7696 26.8671 71.0184 26.3696 71.1208 25.6818L73.4696 25.8574L73.4842 25.8427Z" fill="black"/>
<path d="M80.9334 28.9235L85.8578 29.8235L85.5212 31.6894L78.2773 30.3723L80.3261 19.1113L82.6456 19.5357L80.9334 28.9308V28.9235Z" fill="black"/>
<path d="M98.3325 29.9916L93.9862 28.733L93.1374 31.6745L98.2447 33.1525L97.7179 34.9745L90.3496 32.8452L93.5252 21.8477L100.879 23.9696L100.352 25.8062L95.2594 24.3355L94.5057 26.955L98.852 28.2135L98.3399 29.9842L98.3325 29.9916Z" fill="black"/>
</g>
</g>
<defs>
<radialGradient id="paint0_angular_166_16794" cx="0" cy="0" r="1" gradientUnits="userSpaceOnUse" gradientTransform="translate(60 74.2676) rotate(90) scale(71.3413 60)">
<stop stop-color="#7CA016" stop-opacity="0.4"/>
<stop offset="1" stop-color="#7CA016" stop-opacity="0"/>
</radialGradient>
<linearGradient id="paint1_linear_166_16794" x1="69.3954" y1="60.2427" x2="69.3954" y2="86.7503" gradientUnits="userSpaceOnUse">
<stop/>
<stop offset="1" stop-opacity="0"/>
</linearGradient>
<linearGradient id="paint2_linear_166_16794" x1="78.7807" y1="89.8771" x2="52.1954" y2="89.8771" gradientUnits="userSpaceOnUse">
<stop/>
<stop offset="1" stop-opacity="0"/>
</linearGradient>
<linearGradient id="paint3_linear_166_16794" x1="50.487" y1="97.8041" x2="50.487" y2="71.2187" gradientUnits="userSpaceOnUse">
<stop/>
<stop offset="1" stop-opacity="0"/>
</linearGradient>
<linearGradient id="paint4_linear_166_16794" x1="41.2187" y1="69.7549" x2="68.6578" y2="69.7549" gradientUnits="userSpaceOnUse">
<stop/>
<stop offset="1" stop-opacity="0"/>
</linearGradient>
<clipPath id="clip0_166_16794">
<rect width="37.561" height="37.561" fill="white" transform="translate(41.2188 60.2427)"/>
</clipPath>
<clipPath id="clip1_166_16794">
<rect width="105.366" height="35.122" fill="white" transform="translate(7.31445 14.6328)"/>
</clipPath>
<clipPath id="clip2_166_16794">
<rect width="81.1171" height="17.4146" fill="white" transform="translate(19.7539 17.5601)"/>
</clipPath>
</defs>
</svg>
