<svg width="36" height="36" viewBox="0 0 36 36" fill="none" xmlns="http://www.w3.org/2000/svg">
<path fill-rule="evenodd" clip-rule="evenodd" d="M18 28.0833C23.5689 28.0833 28.0833 23.5689 28.0833 18.0001C28.0833 12.4312 23.5689 7.91679 18 7.91679C12.4311 7.91679 7.91666 12.4312 7.91666 18.0001C7.91666 23.5689 12.4311 28.0833 18 28.0833ZM18 29C24.0751 29 29 24.0752 29 18.0001C29 11.925 24.0751 7.00012 18 7.00012C11.9249 7.00012 7 11.925 7 18.0001C7 24.0752 11.9249 29 18 29Z" fill="#CEB394"/>
<path d="M25 18.0001C25 21.8661 21.866 25.0001 18 25.0001C14.134 25.0001 11 21.8661 11 18.0001C11 14.134 14.134 11 18 11C21.866 11 25 14.134 25 18.0001Z" fill="#CEB394"/>
</svg>
