<svg width="120" height="147" viewBox="0 0 120 147" fill="none" xmlns="http://www.w3.org/2000/svg">
<path fill-rule="evenodd" clip-rule="evenodd" d="M120.001 0H0V115.61L60.0002 146.342V115.61H120.001V0ZM60.0006 115.611H120.001L60.0006 146.342V115.611Z" fill="#5E5FF5"/>
<path opacity="0.16" fill-rule="evenodd" clip-rule="evenodd" d="M7.31716 94.0248V100.61L34.1787 111.952H39.6444L7.31716 94.0248ZM39.6446 111.952H34.1789L40.2442 114.513L60.0004 132.806L75.0005 114.513L79.8295 111.952L71.2819 111.952L60.0004 132.806L47.5613 116.342L39.6446 111.952ZM79.8298 111.952H71.2819L72.0736 110.488L102.44 94.0248L112.684 76.8296L112.684 68.0491V111.952H99.3664L112.684 105.366V101.342L93.5175 111.952H87.0319L99.1469 105.001L112.684 93.2931V88.537L99.1469 101.708L79.8298 111.952ZM87.0317 111.952L76.8297 117.805L71.7078 124.025L93.5173 111.952L87.0317 111.952ZM99.3662 111.952L79.3907 121.83L60.0004 134.635L35.488 117.074L25.1095 111.952H7.31714L60.0004 139.025L112.684 111.952L99.3662 111.952ZM25.1093 111.952L7.31716 103.171V111.952H25.1093Z" fill="white"/>
<path fill-rule="evenodd" clip-rule="evenodd" d="M120.001 0H0V115.61L60.0002 146.342V115.61H120.001V0ZM60.0006 115.611H120.001L60.0006 146.343V115.611Z" fill="url(#paint0_angular_1_12362)" style="mix-blend-mode:multiply"/>
<path fill-rule="evenodd" clip-rule="evenodd" d="M43.9027 67.22H37.4636L53.5613 97.2689L58.9272 87.2526L55.7076 81.2428L55.171 82.2444L53.5613 85.2493L51.9515 82.2444L43.9027 67.22ZM56.7808 79.2396L58.3906 82.2444L60.0003 85.2493L62.415 89.7567L66.4394 97.2689L82.5371 67.22H76.098L68.0492 82.2444L66.4394 85.2493L64.8296 82.2444L63.2199 79.2396L60.0003 73.2298L56.7808 67.22H50.3417L56.7808 79.2396ZM69.6589 67.22L64.2931 77.2363L61.0735 71.2265L63.2199 67.22H69.6589Z" fill="white"/>
<g clip-path="url(#clip0_1_12362)">
<path d="M45.2893 46.1221H42.7504L42.7661 43.9998H45.2893C45.8133 43.9998 46.2561 43.8741 46.6176 43.6225C46.9844 43.371 47.2622 42.9963 47.4508 42.4985C47.6447 41.9955 47.7416 41.3771 47.7416 40.6435V40.1483C47.7416 39.5981 47.6866 39.116 47.5766 38.7021C47.4718 38.2828 47.3146 37.9344 47.105 37.6567C46.8954 37.3737 46.6333 37.1615 46.3189 37.02C46.0098 36.8785 45.6534 36.8078 45.25 36.8078H42.7033V34.6776H45.25C46.0255 34.6776 46.7355 34.8113 47.3801 35.0785C48.0298 35.3405 48.5905 35.7178 49.0621 36.2104C49.539 36.6977 49.9058 37.2767 50.1626 37.9475C50.4246 38.613 50.5556 39.3518 50.5556 40.1641V40.6435C50.5556 41.4505 50.4246 42.1894 50.1626 42.8601C49.9058 43.5308 49.5416 44.1099 49.07 44.5972C48.5984 45.0845 48.0403 45.4618 47.3958 45.7291C46.7565 45.9911 46.0543 46.1221 45.2893 46.1221ZM44.3303 34.6776V46.1221H41.5714V34.6776H44.3303ZM59.8903 37.0829L57.1 46.1221H54.1367L58.3419 34.6776H60.2205L59.8903 37.0829ZM62.2012 46.1221L59.403 37.0829L59.0414 34.6776H60.9436L65.1724 46.1221H62.2012ZM62.0912 41.854V43.9841H56.2196V41.854H62.0912ZM78.7438 40.1719V40.6357C78.7438 41.5108 78.6206 42.2968 78.3743 42.9937C78.1333 43.6854 77.7901 44.2775 77.3447 44.7701C76.8992 45.2575 76.3726 45.6321 75.7648 45.8941C75.1569 46.1509 74.4862 46.2793 73.7525 46.2793C73.0137 46.2793 72.3377 46.1509 71.7246 45.8941C71.1168 45.6321 70.5875 45.2575 70.1369 44.7701C69.6915 44.2775 69.3456 43.6854 69.0993 42.9937C68.8583 42.2968 68.7378 41.5108 68.7378 40.6357V40.1719C68.7378 39.2968 68.8583 38.5108 69.0993 37.8139C69.3456 37.1169 69.6888 36.5248 70.129 36.0375C70.5744 35.5449 71.101 35.1702 71.7089 34.9134C72.322 34.6514 72.998 34.5204 73.7368 34.5204C74.4704 34.5204 75.1412 34.6514 75.749 34.9134C76.3621 35.1702 76.8914 35.5449 77.3368 36.0375C77.7822 36.5248 78.1281 37.1169 78.3743 37.8139C78.6206 38.5108 78.7438 39.2968 78.7438 40.1719ZM75.9455 40.6357V40.1562C75.9455 39.5903 75.8958 39.0924 75.7962 38.6628C75.7019 38.2278 75.5604 37.8636 75.3717 37.5702C75.1831 37.2767 74.9499 37.0567 74.6722 36.9099C74.3997 36.758 74.0879 36.682 73.7368 36.682C73.37 36.682 73.0504 36.758 72.7779 36.9099C72.5054 37.0567 72.2775 37.2767 72.094 37.5702C71.9106 37.8636 71.7718 38.2278 71.6775 38.6628C71.5884 39.0924 71.5438 39.5903 71.5438 40.1562V40.6357C71.5438 41.1964 71.5884 41.6942 71.6775 42.1291C71.7718 42.5588 71.9106 42.923 72.094 43.2217C72.2827 43.5203 72.5133 43.7457 72.7857 43.8976C73.0635 44.0496 73.3857 44.1256 73.7525 44.1256C74.1036 44.1256 74.4154 44.0496 74.6879 43.8976C74.9604 43.7457 75.1883 43.5203 75.3717 43.2217C75.5604 42.923 75.7019 42.5588 75.7962 42.1291C75.8958 41.6942 75.9455 41.1964 75.9455 40.6357Z" fill="white"/>
<g clip-path="url(#clip1_1_12362)">
<path d="M27.6221 29.861L26.8685 21.6073L29.1294 20.9634L29.8246 32.6634L27.5416 33.3147L23.6489 26.4659L23.9562 34.3391L21.6733 34.9903L16.0977 24.6805L18.3586 24.0366L22.0757 31.4269L21.6587 23.0927L23.5757 22.5439L27.6148 29.861H27.6221Z" fill="white"/>
<path d="M45.4832 24.3222C45.6515 25.4344 45.5929 26.4441 45.3295 27.3442C45.0588 28.2442 44.5905 28.9759 43.9246 29.5393C43.2588 30.1027 42.4539 30.4612 41.5026 30.6003C40.5661 30.7393 39.6953 30.6369 38.8904 30.3003C38.0856 29.9637 37.4197 29.4003 36.8929 28.6246C36.366 27.849 36.0148 26.9198 35.8538 25.8295L35.7733 25.2661C35.6051 24.1539 35.6636 23.1441 35.9416 22.2368C36.2197 21.3295 36.688 20.5978 37.3538 20.0344C38.0197 19.4709 38.8246 19.1197 39.7685 18.9807C40.7124 18.8417 41.5831 18.9441 42.388 19.288C43.1856 19.6319 43.8514 20.2026 44.3783 20.9856C44.9051 21.7758 45.249 22.7197 45.4173 23.8319L45.4905 24.3368L45.4832 24.3222ZM43.0466 24.1612C42.871 22.9758 42.527 22.1051 42.0075 21.549C41.488 20.9929 40.8368 20.7807 40.0539 20.8905C39.2709 21.0075 38.7148 21.4027 38.3782 22.0758C38.0417 22.749 37.9612 23.671 38.1295 24.849L38.2099 25.3978C38.3782 26.5539 38.7295 27.4173 39.249 27.9954C39.7685 28.5661 40.427 28.8003 41.2246 28.6759C42.0075 28.5588 42.5636 28.1637 42.8929 27.4905C43.2222 26.8173 43.3027 25.888 43.1344 24.71L43.0539 24.1612H43.0466Z" fill="white"/>
<path d="M60.8272 28.9977L58.4711 29.0635L53.6637 21.6733L53.8833 29.2026L51.5271 29.2684L51.1906 17.8318L53.5467 17.7659L58.3613 25.1782L58.1491 17.6269L60.4979 17.561L60.8345 28.9977H60.8272Z" fill="white"/>
<path d="M66.4248 29.1806L67.398 17.7805L70.9102 18.0805C71.9126 18.1683 72.7907 18.4683 73.5444 18.9878C74.298 19.5074 74.8614 20.2025 75.2346 21.0732C75.6078 21.944 75.7468 22.9098 75.659 23.9708L75.6151 24.4976C75.5273 25.5586 75.2273 26.4806 74.7224 27.2708C74.2175 28.0611 73.5444 28.6464 72.7175 29.0342C71.8907 29.422 70.9687 29.5757 69.9736 29.4952L66.4394 29.1952L66.4248 29.1806ZM69.5858 19.8805L68.9346 27.4903L70.0687 27.5855C70.9907 27.6659 71.7151 27.4245 72.2492 26.8684C72.7834 26.3123 73.1053 25.4708 73.2151 24.3586L73.2663 23.7513C73.3687 22.5952 73.2005 21.6952 72.7687 21.0513C72.337 20.4147 71.6639 20.0561 70.7419 19.9757L69.5858 19.8805Z" fill="white"/>
<path d="M88.0835 27.161L83.642 26.2976L83.0566 29.3049L88.2737 30.322L87.9152 32.1805L80.3859 30.7171L82.5737 19.4854L90.0884 20.9488L89.7225 22.822L84.52 21.8122L84.0005 24.4903L88.442 25.3537L88.0908 27.1683L88.0835 27.161Z" fill="white"/>
<path d="M97.998 30.6295L96.2054 30.0734L94.9688 34.0759L92.7151 33.3807L96.0883 22.4417L100.149 23.6929C101.444 24.088 102.352 24.688 102.871 25.4783C103.398 26.2685 103.493 27.1905 103.171 28.2441C102.937 28.9905 102.586 29.5612 102.11 29.9636C101.635 30.3588 101.02 30.6076 100.274 30.7027L101.261 35.9051L101.232 36.0076L98.8176 35.2612L98.0054 30.6222L97.998 30.6295ZM96.7688 28.2514L98.5907 28.8149C99.1541 28.9905 99.6371 28.9832 100.04 28.7856C100.442 28.5953 100.72 28.2441 100.874 27.7392C101.035 27.227 101.013 26.7734 100.808 26.3856C100.603 25.9978 100.2 25.7124 99.5932 25.5295L97.7858 24.9734L96.7688 28.2588V28.2514Z" fill="white"/>
</g>
</g>
<defs>
<radialGradient id="paint0_angular_1_12362" cx="0" cy="0" r="1" gradientUnits="userSpaceOnUse" gradientTransform="translate(60.0004 74.2688) rotate(90) scale(71.3419 60.0004)">
<stop stop-color="#5E5FF5" stop-opacity="0.4"/>
<stop offset="1" stop-color="#5E5FF5" stop-opacity="0"/>
</radialGradient>
<clipPath id="clip0_1_12362">
<rect width="105.366" height="35.1222" fill="white" transform="translate(7.31714 14.6343)"/>
</clipPath>
<clipPath id="clip1_1_12362">
<rect width="87.2639" height="18.4538" fill="white" transform="translate(16.0977 17.561)"/>
</clipPath>
</defs>
</svg>
