<svg width="55" height="88" viewBox="0 0 55 88" fill="none" xmlns="http://www.w3.org/2000/svg">
<g clip-path="url(#clip0_2946_48848)">
<path d="M26.6741 87.8427C27.1213 88.2899 27.8464 88.2899 28.2936 87.8427L35.5815 80.5549C36.0287 80.1077 36.0287 79.3826 35.5815 78.9354C35.1342 78.4882 34.4092 78.4882 33.962 78.9354L27.4839 85.4134L21.0058 78.9354C20.5586 78.4882 19.8335 78.4882 19.3863 78.9354C18.9391 79.3826 18.9391 80.1077 19.3863 80.5549L26.6741 87.8427ZM28.6291 87.033L28.6291 -7.67945e-06L26.3387 -7.57934e-06L26.3387 87.033L28.6291 87.033Z" fill="white" fill-opacity="0.2"/>
<g clip-path="url(#clip1_2946_48848)">
<circle cx="49.5545" cy="46.4313" r="1.24928" fill="url(#paint0_linear_2946_48848)"/>
<path d="M27.4841 69.3351C41.7432 69.3351 53.3025 57.7758 53.3025 43.5167C53.3025 29.2576 41.7432 17.6983 27.4841 17.6983C13.225 17.6983 1.66568 29.2576 1.66568 43.5167C1.66568 57.7758 13.225 69.3351 27.4841 69.3351Z" fill="#2B144D" stroke="url(#paint1_linear_2946_48848)" stroke-width="1.6657"/>
<path d="M49.9704 43.5167C49.9704 31.0974 39.9026 21.0297 27.4834 21.0297" stroke="url(#paint2_linear_2946_48848)" stroke-width="1.6657" stroke-linecap="round"/>
<path d="M4.99641 43.5168C4.99641 55.936 15.0642 66.0038 27.4834 66.0038" stroke="url(#paint3_linear_2946_48848)" stroke-width="1.6657" stroke-linecap="round"/>
<circle cx="27.484" cy="43.5173" r="18.3227" fill="white" stroke="url(#paint4_linear_2946_48848)" stroke-width="1.6657"/>
<circle cx="24.5691" cy="21.4461" r="1.24928" fill="url(#paint5_linear_2946_48848)"/>
<circle cx="30.3987" cy="65.5877" r="1.24928" fill="url(#paint6_linear_2946_48848)"/>
<path d="M15.8182 47.6933C17.7022 47.6933 18.9742 46.0853 18.9742 43.0133C18.9742 39.9533 17.7022 38.4293 15.8182 38.4293C13.9342 38.4293 12.6502 39.9413 12.6502 43.0133C12.6502 46.0853 13.9342 47.6933 15.8182 47.6933ZM15.8182 46.0373C15.1822 46.0373 14.6662 45.4613 14.6662 43.0133C14.6662 40.5773 15.1822 40.0613 15.8182 40.0613C16.4542 40.0613 16.9582 40.5773 16.9582 43.0133C16.9582 45.4613 16.4542 46.0373 15.8182 46.0373ZM21.5827 47.6933C22.3147 47.6933 22.8547 47.1053 22.8547 46.3613C22.8547 45.6173 22.3147 45.0413 21.5827 45.0413C20.8387 45.0413 20.3107 45.6173 20.3107 46.3613C20.3107 47.1053 20.8387 47.6933 21.5827 47.6933ZM27.0257 47.6933C28.8017 47.6933 30.3257 46.7573 30.3257 45.0893C30.3257 43.9373 29.5937 43.2173 28.6097 42.9173V42.8573C29.5577 42.4733 30.0377 41.7773 30.0377 40.8893C30.0377 39.2933 28.8257 38.4293 26.9777 38.4293C25.9217 38.4293 25.0337 38.8373 24.2057 39.5333L25.2857 40.8413C25.8257 40.3613 26.2817 40.0973 26.8817 40.0973C27.5417 40.0973 27.9017 40.4333 27.9017 41.0453C27.9017 41.7533 27.4217 42.2093 25.8977 42.2093V43.7213C27.7697 43.7213 28.1777 44.1773 28.1777 44.9453C28.1777 45.6173 27.6377 45.9653 26.8097 45.9653C26.1137 45.9653 25.4897 45.6053 24.9497 45.1013L23.9657 46.4453C24.6137 47.2013 25.6097 47.6933 27.0257 47.6933ZM33.5822 44.1053C34.8902 44.1053 35.8502 43.0373 35.8502 41.2493C35.8502 39.4613 34.8902 38.4293 33.5822 38.4293C32.2742 38.4293 31.3262 39.4613 31.3262 41.2493C31.3262 43.0373 32.2742 44.1053 33.5822 44.1053ZM33.5822 42.9293C33.1622 42.9293 32.8022 42.4973 32.8022 41.2493C32.8022 40.0013 33.1622 39.6053 33.5822 39.6053C34.0022 39.6053 34.3622 40.0013 34.3622 41.2493C34.3622 42.4973 34.0022 42.9293 33.5822 42.9293ZM33.8942 47.6933H35.1182L39.9302 38.4293H38.7062L33.8942 47.6933ZM40.2302 47.6933C41.5262 47.6933 42.4862 46.6253 42.4862 44.8373C42.4862 43.0493 41.5262 42.0053 40.2302 42.0053C38.9342 42.0053 37.9742 43.0493 37.9742 44.8373C37.9742 46.6253 38.9342 47.6933 40.2302 47.6933ZM40.2302 46.5053C39.8102 46.5053 39.4502 46.0853 39.4502 44.8373C39.4502 43.5773 39.8102 43.1933 40.2302 43.1933C40.6502 43.1933 41.0102 43.5773 41.0102 44.8373C41.0102 46.0853 40.6502 46.5053 40.2302 46.5053Z" fill="url(#paint7_linear_2946_48848)"/>
</g>
</g>
<defs>
<linearGradient id="paint0_linear_2946_48848" x1="48.3052" y1="47.2902" x2="50.9578" y2="47.2902" gradientUnits="userSpaceOnUse">
<stop stop-color="#E1B0FF"/>
<stop offset="0.619792" stop-color="#B338FF"/>
<stop offset="1" stop-color="#1271FF"/>
</linearGradient>
<linearGradient id="paint1_linear_2946_48848" x1="2.49854" y1="60.6942" x2="55.5515" y2="60.6942" gradientUnits="userSpaceOnUse">
<stop stop-color="#E1B0FF"/>
<stop offset="0.619792" stop-color="#B338FF"/>
<stop offset="1" stop-color="#1271FF"/>
</linearGradient>
<linearGradient id="paint2_linear_2946_48848" x1="27.4834" y1="40.0031" x2="51.3572" y2="40.0031" gradientUnits="userSpaceOnUse">
<stop stop-color="#E1B0FF"/>
<stop offset="0.619792" stop-color="#B338FF"/>
<stop offset="1" stop-color="#1271FF"/>
</linearGradient>
<linearGradient id="paint3_linear_2946_48848" x1="27.4834" y1="47.0304" x2="3.60955" y2="47.0304" gradientUnits="userSpaceOnUse">
<stop stop-color="#E1B0FF"/>
<stop offset="0.619792" stop-color="#B338FF"/>
<stop offset="1" stop-color="#1271FF"/>
</linearGradient>
<linearGradient id="paint4_linear_2946_48848" x1="9.99414" y1="55.5416" x2="47.1312" y2="55.5416" gradientUnits="userSpaceOnUse">
<stop stop-color="#E1B0FF"/>
<stop offset="0.619792" stop-color="#B338FF"/>
<stop offset="1" stop-color="#1271FF"/>
</linearGradient>
<linearGradient id="paint5_linear_2946_48848" x1="23.3198" y1="22.3049" x2="25.9725" y2="22.3049" gradientUnits="userSpaceOnUse">
<stop stop-color="#E1B0FF"/>
<stop offset="0.619792" stop-color="#B338FF"/>
<stop offset="1" stop-color="#1271FF"/>
</linearGradient>
<linearGradient id="paint6_linear_2946_48848" x1="29.1494" y1="66.4465" x2="31.8021" y2="66.4465" gradientUnits="userSpaceOnUse">
<stop stop-color="#E1B0FF"/>
<stop offset="0.619792" stop-color="#B338FF"/>
<stop offset="1" stop-color="#1271FF"/>
</linearGradient>
<linearGradient id="paint7_linear_2946_48848" x1="12.1582" y1="51.3065" x2="45.0701" y2="51.3065" gradientUnits="userSpaceOnUse">
<stop stop-color="#E1B0FF"/>
<stop offset="0.619792" stop-color="#B338FF"/>
<stop offset="1" stop-color="#1271FF"/>
</linearGradient>
<clipPath id="clip0_2946_48848">
<rect width="55" height="88" fill="white"/>
</clipPath>
<clipPath id="clip1_2946_48848">
<rect width="54.9682" height="65.9618" fill="white" transform="translate(0 10.5358)"/>
</clipPath>
</defs>
</svg>
