<svg width="293" height="276" viewBox="0 0 293 276" fill="none" xmlns="http://www.w3.org/2000/svg">
<path d="M145.293 228C183.677 228 214.793 196.884 214.793 158.5C214.793 120.116 183.677 89 145.293 89C106.909 89 75.793 120.116 75.793 158.5C75.793 196.884 106.909 228 145.293 228Z" fill="#F5F5F5"/>
<path d="M125.793 70L135.299 53.4941L144.793 37L154.299 53.4941L163.793 70" stroke="black" stroke-width="0.8" stroke-miterlimit="10"/>
<path d="M69.793 239H50.7871H31.793L41.29 223L50.7871 207" stroke="black" stroke-width="0.8" stroke-miterlimit="10"/>
<path d="M241.293 207L251.037 223L260.793 239H241.293H221.793" stroke="black" stroke-width="0.8" stroke-miterlimit="10"/>
<path d="M108.51 144.951H144.794" stroke="black" stroke-width="0.81" stroke-miterlimit="10"/>
<path d="M132.327 174.359C175.314 195.976 215.331 203.22 221.708 190.539C228.084 177.859 198.406 150.055 155.419 128.438C112.432 106.822 72.4147 99.5776 66.038 112.258C59.6613 124.939 89.3399 152.742 132.327 174.359Z" stroke="black" stroke-width="0.8" stroke-miterlimit="10" stroke-dasharray="1.5 1.5"/>
<path d="M119.626 168.179C119.626 173.582 115.267 177.97 109.88 177.97C104.493 177.97 100.135 173.591 100.135 168.179" fill="white"/>
<path d="M119.626 168.179C119.626 173.582 115.267 177.97 109.88 177.97C104.493 177.97 100.135 173.591 100.135 168.179" stroke="black" stroke-width="0.8" stroke-miterlimit="10"/>
<path d="M109.863 141.533L114.731 154.777L119.599 168.02H109.863H100.135L105.003 154.777L109.863 141.533Z" fill="white" stroke="black" stroke-width="0.8" stroke-miterlimit="10"/>
<path d="M146.42 124.696L148.925 163.199L151.429 201.711H146.42H141.42L143.924 163.199L146.42 124.696Z" fill="#1F8DF2" stroke="black" stroke-width="0.8" stroke-miterlimit="10"/>
<path d="M165.541 201.807H127.297V207.007H165.541V201.807Z" fill="black" stroke="black" stroke-width="0.8" stroke-miterlimit="10"/>
<path d="M109.811 141.462H145.541" stroke="black" stroke-width="0.8" stroke-miterlimit="10"/>
<path d="M147.826 141.462H183.557" stroke="black" stroke-width="0.8" stroke-miterlimit="10"/>
<path d="M147.826 144.951H184.453" stroke="black" stroke-width="0.81" stroke-miterlimit="10"/>
<path d="M183.179 141.533L188.039 154.777L192.907 168.02H183.179H173.451L178.311 154.777L183.179 141.533Z" fill="white" stroke="black" stroke-width="0.8" stroke-miterlimit="10"/>
<path d="M192.932 168.179C192.932 173.582 188.574 177.97 183.187 177.97C177.8 177.97 173.441 173.591 173.441 168.179" fill="white"/>
<path d="M192.932 168.179C192.932 173.582 188.574 177.97 183.187 177.97C177.8 177.97 173.441 173.591 173.441 168.179" stroke="black" stroke-width="0.8" stroke-miterlimit="10"/>
<path d="M146.42 124.653C150.598 124.653 153.986 121.249 153.986 117.051C153.986 112.853 150.598 109.449 146.42 109.449C142.241 109.449 138.854 112.853 138.854 117.051C138.854 121.249 142.241 124.653 146.42 124.653Z" fill="white" stroke="black" stroke-width="0.8" stroke-miterlimit="10"/>
<circle cx="223.261" cy="191.468" r="18.0685" fill="white" stroke="black" stroke-width="0.8"/>
<g clip-path="url(#clip0_6182_148767)">
<rect x="207.666" y="175.873" width="30.7808" height="30.7808" rx="15.3904" fill="white"/>
<circle cx="222.861" cy="191.068" r="16.0684" fill="#1F8DF2" stroke="black" stroke-width="0.8" stroke-miterlimit="10"/>
<path d="M227.146 198.956C227.146 198.956 228.467 199.055 229.419 198.956C230.218 198.845 230.982 198.617 231.693 198.291C231.781 198.25 231.818 198.14 231.775 198.051L230.466 195.342L230.456 195.322C229.791 195.63 229.056 195.802 228.282 195.802C227.721 195.802 227.182 195.712 226.674 195.546C225.855 195.279 225.12 194.811 224.523 194.199C224.118 193.784 223.58 193.541 223.012 193.541H220.601C220.472 193.541 220.391 193.398 220.453 193.28L221.633 191.032L222.802 188.807C222.865 188.685 223.034 188.685 223.099 188.807C223.099 188.807 223.099 188.804 223.1 188.802L224.267 191.033L224.848 192.122C224.865 192.156 224.883 192.189 224.901 192.222C225.57 193.445 226.833 194.27 228.282 194.27C228.751 194.27 229.202 194.184 229.619 194.025C229.714 193.989 229.757 193.874 229.712 193.78L227.581 189.369L225.64 185.351L224.251 182.477L223.102 180.097C223.039 179.968 222.862 179.968 222.799 180.097L218.319 189.37L213.811 198.701C213.755 198.818 213.837 198.956 213.962 198.956C213.962 198.956 216.23 196.993 220.341 196.993C220.952 196.993 221.561 197.067 222.139 197.272C222.62 197.443 223.34 197.84 223.945 198.1C224.353 198.276 224.746 198.485 225.172 198.604C225.76 198.767 226.563 198.956 227.147 198.956H227.146Z" fill="white"/>
</g>
<rect x="56.793" y="101" width="19.1561" height="19.1561" rx="9.57806" fill="black"/>
<defs>
<clipPath id="clip0_6182_148767">
<rect x="207.666" y="175.873" width="30.7808" height="30.7808" rx="15.3904" fill="white"/>
</clipPath>
</defs>
</svg>
