<svg width="134" height="114" viewBox="0 0 134 114" fill="none" xmlns="http://www.w3.org/2000/svg">
<g clip-path="url(#clip0_2946_48920)">
<path d="M134.207 8.29289C134.598 8.68342 134.598 9.31658 134.207 9.70711L127.843 16.0711C127.453 16.4616 126.819 16.4616 126.429 16.0711C126.038 15.6805 126.038 15.0474 126.429 14.6569L132.086 9L126.429 3.34315C126.038 2.95262 126.038 2.31946 126.429 1.92893C126.819 1.53841 127.453 1.53841 127.843 1.92893L134.207 8.29289ZM133.5 10H72V8H133.5V10ZM69 13V109.5H67V13H69ZM64 114.5H-0.5V112.5H64V114.5ZM69 109.5C69 112.261 66.7614 114.5 64 114.5V112.5C65.6569 112.5 67 111.157 67 109.5H69ZM72 10C70.3431 10 69 11.3431 69 13H67C67 10.2386 69.2386 8 72 8V10Z" fill="white" fill-opacity="0.2"/>
<circle cx="93.5" cy="60.5" r="1.5" fill="url(#paint0_linear_2946_48920)"/>
<circle cx="67" cy="57" r="31" fill="#2B144D" stroke="url(#paint1_linear_2946_48920)" stroke-width="2"/>
<path d="M94 57C94 42.0883 81.9117 30 67 30" stroke="url(#paint2_linear_2946_48920)" stroke-width="2" stroke-linecap="round"/>
<path d="M40 57C40 71.9117 52.0883 84 67 84" stroke="url(#paint3_linear_2946_48920)" stroke-width="2" stroke-linecap="round"/>
<circle cx="67" cy="57" r="22" fill="white" stroke="url(#paint4_linear_2946_48920)" stroke-width="2"/>
<circle cx="63.5" cy="30.5" r="1.5" fill="url(#paint5_linear_2946_48920)"/>
<circle cx="70.5" cy="83.5" r="1.5" fill="url(#paint6_linear_2946_48920)"/>
<path d="M56.7 64.28C59.56 64.28 62.08 62.34 62.08 59C62.08 55.78 59.96 54.3 57.44 54.3C56.88 54.3 56.44 54.38 55.9 54.6L56.12 52.08H61.42V49.1H53.06L52.68 56.48L54.24 57.5C55.12 56.94 55.52 56.78 56.34 56.78C57.62 56.78 58.52 57.58 58.52 59.08C58.52 60.62 57.62 61.4 56.18 61.4C55 61.4 53.96 60.78 53.12 59.98L51.5 62.22C52.68 63.38 54.32 64.28 56.7 64.28ZM67.5075 58.3C69.6875 58.3 71.2875 56.52 71.2875 53.54C71.2875 50.56 69.6875 48.84 67.5075 48.84C65.3275 48.84 63.7475 50.56 63.7475 53.54C63.7475 56.52 65.3275 58.3 67.5075 58.3ZM67.5075 56.34C66.8075 56.34 66.2075 55.62 66.2075 53.54C66.2075 51.46 66.8075 50.8 67.5075 50.8C68.2075 50.8 68.8075 51.46 68.8075 53.54C68.8075 55.62 68.2075 56.34 67.5075 56.34ZM68.0275 64.28H70.0675L78.0875 48.84H76.0475L68.0275 64.28ZM78.5875 64.28C80.7475 64.28 82.3475 62.5 82.3475 59.52C82.3475 56.54 80.7475 54.8 78.5875 54.8C76.4275 54.8 74.8275 56.54 74.8275 59.52C74.8275 62.5 76.4275 64.28 78.5875 64.28ZM78.5875 62.3C77.8875 62.3 77.2875 61.6 77.2875 59.52C77.2875 57.42 77.8875 56.78 78.5875 56.78C79.2875 56.78 79.8875 57.42 79.8875 59.52C79.8875 61.6 79.2875 62.3 78.5875 62.3Z" fill="url(#paint7_linear_2946_48920)"/>
</g>
<defs>
<linearGradient id="paint0_linear_2946_48920" x1="92" y1="61.5313" x2="95.185" y2="61.5313" gradientUnits="userSpaceOnUse">
<stop stop-color="#E1B0FF"/>
<stop offset="0.619792" stop-color="#B338FF"/>
<stop offset="1" stop-color="#1271FF"/>
</linearGradient>
<linearGradient id="paint1_linear_2946_48920" x1="37" y1="77.625" x2="100.7" y2="77.625" gradientUnits="userSpaceOnUse">
<stop stop-color="#E1B0FF"/>
<stop offset="0.619792" stop-color="#B338FF"/>
<stop offset="1" stop-color="#1271FF"/>
</linearGradient>
<linearGradient id="paint2_linear_2946_48920" x1="67" y1="52.7813" x2="95.6652" y2="52.7813" gradientUnits="userSpaceOnUse">
<stop stop-color="#E1B0FF"/>
<stop offset="0.619792" stop-color="#B338FF"/>
<stop offset="1" stop-color="#1271FF"/>
</linearGradient>
<linearGradient id="paint3_linear_2946_48920" x1="67" y1="61.2187" x2="38.3348" y2="61.2187" gradientUnits="userSpaceOnUse">
<stop stop-color="#E1B0FF"/>
<stop offset="0.619792" stop-color="#B338FF"/>
<stop offset="1" stop-color="#1271FF"/>
</linearGradient>
<linearGradient id="paint4_linear_2946_48920" x1="46" y1="71.4375" x2="90.5903" y2="71.4375" gradientUnits="userSpaceOnUse">
<stop stop-color="#E1B0FF"/>
<stop offset="0.619792" stop-color="#B338FF"/>
<stop offset="1" stop-color="#1271FF"/>
</linearGradient>
<linearGradient id="paint5_linear_2946_48920" x1="62" y1="31.5313" x2="65.185" y2="31.5313" gradientUnits="userSpaceOnUse">
<stop stop-color="#E1B0FF"/>
<stop offset="0.619792" stop-color="#B338FF"/>
<stop offset="1" stop-color="#1271FF"/>
</linearGradient>
<linearGradient id="paint6_linear_2946_48920" x1="69" y1="84.5313" x2="72.185" y2="84.5313" gradientUnits="userSpaceOnUse">
<stop stop-color="#E1B0FF"/>
<stop offset="0.619792" stop-color="#B338FF"/>
<stop offset="1" stop-color="#1271FF"/>
</linearGradient>
<linearGradient id="paint7_linear_2946_48920" x1="51" y1="66" x2="84.9736" y2="66" gradientUnits="userSpaceOnUse">
<stop stop-color="#E1B0FF"/>
<stop offset="0.619792" stop-color="#B338FF"/>
<stop offset="1" stop-color="#1271FF"/>
</linearGradient>
<clipPath id="clip0_2946_48920">
<rect width="134" height="114" fill="white"/>
</clipPath>
</defs>
</svg>
