<svg width="135" height="110" viewBox="0 0 135 110" fill="none" xmlns="http://www.w3.org/2000/svg">
<g clip-path="url(#clip0_6852_15720)">
<path d="M133.937 52.5157C134.978 53.1155 134.982 54.0874 133.948 54.6848L69.5763 92.0252C68.5445 92.6251 66.8627 92.6251 65.8242 92.0252L1.03039 54.6873C-0.00815594 54.0874 -0.0148509 53.1155 1.01922 52.5181L65.3909 15.1773C66.425 14.5777 68.1045 14.5777 69.1431 15.1773L133.937 52.5181L133.937 52.5157Z" fill="white"/>
<path d="M105.402 38.0613L105.354 52.3325L67.9409 30.7675L67.9896 16.4962L105.402 38.0613Z" fill="white"/>
<path d="M67.9896 16.4962L67.9409 30.7675L30.7709 52.3325L30.7953 38.0613L67.9896 16.4962Z" fill="white"/>
<path d="M68.2326 59.6262L68.1839 73.8946L30.7709 52.3325L30.7953 38.0613L68.2326 59.6262Z" fill="white"/>
<path d="M105.402 38.0613L105.353 52.3325L68.1839 73.8946L68.2326 59.6262L105.402 38.0613Z" fill="white"/>
<path d="M42.7917 27.6948L67.0068 14.4375L67.8803 16.5704L30.8055 38.068L42.7917 27.6948Z" fill="white"/>
<path d="M67.2098 14.4375L91.286 27.9371L105.401 38.068L68.0844 16.5704L67.2098 14.4375Z" fill="white"/>
<path d="M51.4256 56.6616L51.4012 57.242L37.1034 49.0033V48.4172L51.4256 56.6616Z" fill="white"/>
<path d="M54.3242 54.959V55.5401L51.4012 57.242L51.4256 56.6616L54.3242 54.959Z" fill="white"/>
<path d="M54.2998 54.9802L51.4013 56.6602L37.0791 48.3678L39.9777 46.6924L54.2998 54.9802Z" fill="white"/>
<path d="M43.9233 69.742V70.3255L29.6011 62.0836V61.4975L43.9233 69.742Z" fill="white"/>
<path d="M46.8462 68.0599V68.646L43.9233 70.3235V69.7399L46.8462 68.0599Z" fill="white"/>
<path d="M46.8218 68.0871L43.8989 69.7622L29.5768 61.4502L32.4753 59.7727L46.8218 68.0871Z" fill="white"/>
<path d="M46.4078 65.3852V65.9712L32.1099 57.7268V57.1456L46.4078 65.3852Z" fill="white"/>
<path d="M49.3303 63.6842V64.2694L46.4078 65.9712V65.3852L49.3303 63.6842Z" fill="white"/>
<path d="M49.3065 63.7109L46.3836 65.3859L32.0614 57.0976L34.9843 55.4176L49.3065 63.7109Z" fill="white"/>
<path d="M48.9166 61.0094V61.6175L34.6188 53.3511V52.7699L48.9166 61.0094Z" fill="white"/>
<path d="M51.8391 59.3339V59.9151L48.9166 61.6175V61.0094L51.8391 59.3339Z" fill="white"/>
<path d="M51.8153 59.3563L48.8924 61.0363L34.5702 52.721L37.4931 51.0411L51.8153 59.3563Z" fill="white"/>
<path d="M65.8243 92.0122L1.03055 54.6742V54.6873C0.994813 54.6669 0.961314 54.6449 0.927807 54.6246C0.916644 54.6181 0.907707 54.6116 0.896543 54.6026L0.831772 54.5579L0.798273 54.531C0.780406 54.518 0.76254 54.5025 0.744673 54.4887L0.711166 54.4618C0.6933 54.4488 0.677667 54.4333 0.662035 54.4195C0.650863 54.4089 0.6397 54.3999 0.628536 54.3886L0.608435 54.3682C0.592795 54.3527 0.579397 54.3397 0.565999 54.3242L0.550359 54.308C0.532492 54.2884 0.514626 54.2681 0.498994 54.2486C0.496759 54.2437 0.492291 54.2396 0.490064 54.2372C0.478893 54.2217 0.465495 54.2054 0.454323 54.1899C0.434222 54.1631 0.416356 54.1346 0.398489 54.1053C0.382857 54.0744 0.367225 54.0475 0.353819 54.0206L0.340421 53.9938C0.331491 53.9743 0.322554 53.9539 0.315851 53.936C0.311391 53.927 0.309156 53.9181 0.304688 53.9067C0.29575 53.8847 0.289055 53.8628 0.284587 53.84C0.284587 53.8334 0.280118 53.8294 0.280118 53.8221C0.273415 53.7936 0.26672 53.7643 0.262251 53.7358C0.262251 53.7285 0.262251 53.7195 0.260017 53.713L0.253314 53.6487V53.595L0.244385 56.8874V56.9411C0.244385 56.9631 0.248853 56.9834 0.251088 57.0062C0.251088 57.0127 0.251088 57.0217 0.253314 57.0282C0.257783 57.0575 0.264486 57.086 0.271189 57.1153V57.1193C0.271189 57.1193 0.275649 57.1283 0.275649 57.1348L0.29575 57.2024C0.297984 57.2105 0.302453 57.2194 0.306922 57.2308C0.313617 57.2512 0.322554 57.2707 0.331491 57.2886L0.338186 57.3065L0.342655 57.3155C0.356053 57.3424 0.371693 57.3717 0.387325 57.3985C0.405192 57.4294 0.423059 57.4563 0.443159 57.4848L0.449863 57.4938C0.458792 57.5076 0.469963 57.5182 0.478893 57.532L0.48783 57.5434C0.503462 57.5629 0.521329 57.5833 0.539195 57.6036C0.543664 57.6077 0.548133 57.6142 0.554828 57.6191C0.568234 57.6346 0.583866 57.65 0.599498 57.6631L0.619599 57.6834L0.635231 57.6989C0.641934 57.7062 0.648637 57.7103 0.655332 57.7143C0.670964 57.7306 0.686605 57.7436 0.704471 57.7575C0.715635 57.7656 0.726807 57.7746 0.73797 57.7835C0.755837 57.7974 0.773703 57.8128 0.79157 57.8258C0.802742 57.8348 0.813905 57.8438 0.825077 57.8511C0.845178 57.8665 0.867505 57.8796 0.88984 57.895C0.901012 57.9024 0.909941 57.9089 0.921113 57.9154C0.954611 57.9374 0.98811 57.9577 1.02385 57.9781V57.9642L65.8177 95.303L65.8265 92.0098L65.8243 92.0122Z" fill="#7246EE" class="dao-color"/>
<path d="M69.3259 95.4406C69.3394 95.4341 69.3549 95.4276 69.3684 95.4211L69.4353 95.3869C69.4465 95.3804 69.4577 95.3763 69.4689 95.3698C69.5024 95.3519 69.5336 95.334 69.5671 95.316L69.5761 92.0237C69.5448 92.0407 69.5113 92.0587 69.4778 92.0766C69.4667 92.0831 69.4555 92.0879 69.4443 92.092C69.422 92.1034 69.3996 92.1148 69.3751 92.1262C69.3617 92.1327 69.3483 92.1392 69.3326 92.1433C69.3125 92.1523 69.2902 92.1637 69.2701 92.1726C69.2545 92.1791 69.2388 92.1856 69.2232 92.1905C69.2031 92.1995 69.183 92.206 69.1629 92.2149C69.1115 92.2353 69.0579 92.2532 69.0021 92.2711C68.9909 92.2752 68.9797 92.2776 68.9664 92.2817C68.9127 92.2996 68.8569 92.3151 68.8033 92.3289L68.772 92.3354C68.7341 92.3444 68.6938 92.3558 68.6559 92.3647C68.6403 92.3663 68.6269 92.3712 68.6112 92.3737C68.5688 92.3818 68.5264 92.3908 68.4862 92.3981C68.4773 92.3981 68.4705 92.3997 68.4616 92.4021C68.4147 92.4111 68.3655 92.4176 68.3187 92.4249C68.3053 92.4249 68.2918 92.4266 68.2807 92.429C68.2449 92.4331 68.2092 92.438 68.1735 92.442C68.1579 92.442 68.14 92.4445 68.1243 92.4469C68.0886 92.4493 68.0529 92.4534 68.0171 92.4559C68.0037 92.4559 67.9881 92.4559 67.9747 92.4583C67.9256 92.4599 67.8764 92.4624 67.8273 92.4648H67.6241C67.5839 92.4648 67.5437 92.4648 67.5034 92.4599H67.4654C67.4074 92.4583 67.3493 92.4534 67.2913 92.4469C67.2779 92.4469 67.2667 92.4445 67.2533 92.442C67.1975 92.4355 67.1416 92.4314 67.0858 92.4225H67.0746C67.0277 92.4135 66.9808 92.407 66.9361 92.3997C66.9228 92.3981 66.9094 92.3956 66.8959 92.3932C66.8625 92.3867 66.8312 92.3818 66.7977 92.3737C66.7821 92.3688 66.7642 92.3663 66.7486 92.3623L66.6592 92.3419C66.6436 92.3379 66.628 92.333 66.6101 92.3313L66.5163 92.3045C66.5029 92.2996 66.4917 92.2971 66.4783 92.2931C66.427 92.2776 66.3756 92.2622 66.3242 92.2442C66.3131 92.2394 66.3019 92.2353 66.2885 92.2304C66.2415 92.2149 66.1969 92.197 66.1522 92.1775L66.1344 92.1702C66.0852 92.1507 66.0383 92.1279 65.9914 92.1059C65.9803 92.101 65.9691 92.0945 65.9579 92.0904C65.9132 92.0676 65.8686 92.0432 65.8239 92.0188H65.8173L65.8083 95.3071H65.8128C65.8552 95.3364 65.9021 95.3584 65.9468 95.3804C65.9579 95.3853 65.9691 95.3918 65.9803 95.3958C66.0272 95.4186 66.0741 95.4406 66.1232 95.4609L66.1411 95.4675C66.1858 95.4854 66.2304 95.5033 66.2773 95.5212C66.2885 95.5252 66.2997 95.5301 66.313 95.5342C66.3644 95.5521 66.4158 95.5676 66.4672 95.5839H66.4738C66.4738 95.5839 66.4939 95.592 66.5029 95.5944L66.5967 95.6213C66.6123 95.6262 66.628 95.6302 66.6458 95.6327C66.6749 95.6392 66.7061 95.6457 66.7351 95.6522C66.7508 95.6571 66.7664 95.6595 66.7843 95.6636C66.8178 95.6701 66.8491 95.6775 66.8826 95.684L66.9228 95.6905C66.9697 95.6994 67.0143 95.7059 67.0612 95.7124H67.0724C67.1283 95.7214 67.1841 95.7287 67.2399 95.7328C67.2534 95.7328 67.2645 95.7352 67.2779 95.7377C67.336 95.7418 67.394 95.7458 67.4521 95.7507H67.4901C67.5303 95.7507 67.5705 95.7532 67.6107 95.7548H67.8139C67.8631 95.7548 67.9122 95.7507 67.9613 95.7483C67.9747 95.7483 67.9904 95.7483 68.0037 95.7458C68.0394 95.7442 68.0752 95.7418 68.111 95.7377H68.1377C68.1445 95.7377 68.1534 95.7369 68.16 95.7352C68.1958 95.7303 68.2338 95.7263 68.2695 95.7214C68.2829 95.7214 68.2963 95.7198 68.3075 95.7173C68.3567 95.7108 68.4035 95.7035 68.4504 95.6945H68.4549C68.4549 95.6945 68.4683 95.6905 68.475 95.6905C68.5175 95.684 68.5599 95.675 68.6023 95.6661C68.6179 95.6636 68.6313 95.6595 68.647 95.6571C68.6872 95.6481 68.7252 95.6392 68.7631 95.6278C68.7699 95.6278 68.7787 95.6237 68.7877 95.6213H68.7944C68.8502 95.6058 68.9038 95.5879 68.9574 95.5724C68.9686 95.5676 68.9797 95.5659 68.9931 95.5611C69.0468 95.5431 69.1003 95.5252 69.1539 95.5057H69.1562C69.1763 95.4967 69.1941 95.4894 69.212 95.4813C69.2276 95.474 69.2433 95.4674 69.259 95.4609C69.279 95.452 69.3014 95.443 69.3215 95.4316L69.3259 95.4406Z" fill="#7246EE" class="dao-color"/>
<path d="M74.8037 30.4843L72.0734 32.0493L59.6163 24.942L62.3466 23.3551L74.8037 30.4843Z" fill="#7246EE" class="dao-color"/>
<path d="M67.7029 92.7156C66.979 92.7156 66.2543 92.5559 65.7017 92.2363L0.908224 54.8983C0.324506 54.5613 0.00318536 54.0987 0.00318536 53.5963C0.00318536 53.0979 0.320527 52.6393 0.896677 52.3062L65.2681 14.9658C66.3861 14.3172 68.1428 14.316 69.2661 14.9654L134.06 52.3039C134.643 52.6409 134.965 53.1027 134.965 53.6051C134.966 54.1034 134.648 54.5621 134.071 54.8959L69.6993 92.2363C69.1498 92.5559 68.4267 92.7156 67.7029 92.7156ZM67.2653 14.9686C66.6302 14.9686 65.9963 15.1085 65.5141 15.3879L1.14235 52.7291C0.723075 52.9708 0.492139 53.2792 0.49253 53.5963C0.49253 53.9174 0.727055 54.229 1.1531 54.4754L65.9465 91.8135C66.9165 92.3738 68.4889 92.3739 69.4532 91.8143L133.825 54.4731C134.245 54.2306 134.476 53.9222 134.476 53.6051C134.476 53.3062 134.271 53.0145 133.897 52.7768L69.0208 15.3883C68.5366 15.1085 67.9004 14.9686 67.2653 14.9686Z" fill="#1A1A1A"/>
<path d="M133.947 54.687L69.576 92.0282L69.6849 95.5298L133.938 57.9802C134.452 57.6814 134.966 57.2932 134.966 56.9033V53.6109C134.966 54.0008 134.459 54.3907 133.947 54.687Z" fill="#1A1A1A"/>
<path d="M65.6957 95.5147L0.913005 58.1822L0.901858 58.1893C0.861248 58.1663 0.82342 58.1432 0.785591 58.1186L0.830188 57.9779H0.795947L0.728256 58.0812L0.586906 57.9755C0.524393 57.9262 0.500101 57.9064 0.476216 57.8801L0.452723 57.8611C0.417683 57.8293 0.393399 57.8054 0.373485 57.7824L0.365918 57.776L0.366717 57.7744L0.366318 57.7736L0.367508 57.7728L0.487755 57.5431L0.299817 57.6997L0.259999 57.6147L0.244073 57.6266C0.219389 57.5916 0.197486 57.559 0.175591 57.5209C0.156877 57.4883 0.138162 57.4533 0.122636 57.4215L0.115468 57.3897L0.109499 57.3921C0.0983517 57.369 0.0852067 57.3388 0.074459 57.3063L0.0266816 57.1195C0.0234932 57.133 0.0175241 57.1036 0.0119464 57.067L0.00676826 57.0058C0.00278885 56.9923 0 56.9668 0 56.9406L0.00875796 53.5942L0.497712 53.595L0.50289 53.6793C0.506869 53.7047 0.506869 53.7246 0.506869 53.7357L0.563013 53.8931L0.496921 53.9519V54.0274L0.617567 53.9964C0.621147 54.0004 0.634292 54.0227 0.649418 54.0417L0.688038 54.0942C0.680071 54.0839 0.687239 54.0902 0.697595 54.1045L0.733826 54.1467L0.597254 54.3573L0.783601 54.1983L0.651008 54.409L0.82859 54.2405L1.02131 54.3915L0.979897 54.5687L1.02887 54.5385L1.09139 54.4384L1.14235 54.4694L1.15271 54.463L65.9466 91.801L65.8657 91.941L66.0712 92.0101L66.0624 95.304L65.6957 95.5147ZM1.14633 57.753L65.5743 94.8811L65.5818 92.1548L0.917784 54.8915L0.907036 54.8978L0.832977 54.8533C0.781611 54.8223 0.762106 54.8088 0.737414 54.7873L0.551866 54.6466C0.545097 54.6435 0.523194 54.6236 0.50249 54.6045L0.495322 54.5974L0.488954 56.8882L0.245272 56.9565L0.490943 56.9509L0.509658 57.0606L0.501691 57.063L0.50408 57.0718L0.511648 57.0694L0.50448 57.0733L0.520406 57.1346H0.378256L0.28867 57.1783L0.530762 57.1338L0.561423 57.2093L0.563013 57.2085L0.599643 57.2768C0.61318 57.2999 0.627116 57.3213 0.64225 57.342L0.655387 57.3611L0.650209 57.3667L0.673703 57.4398L0.705554 57.4223L0.834559 57.5479L0.704755 57.7577L0.889504 57.5908L0.75811 57.7991L0.93888 57.6313L0.825002 57.8507L0.996214 57.6727L1.05714 57.7116C1.08262 57.7291 1.1081 57.7442 1.13518 57.7601L1.14633 57.753ZM0.862439 57.877L0.806695 57.9612L0.842534 57.939L0.862439 57.877ZM0.541909 57.4843L0.487755 57.5431L0.593666 57.4843H0.541909Z" fill="#1A1A1A"/>
<path d="M67.814 95.9987L67.2581 95.9804C67.1598 95.9717 67.0972 95.9637 67.0347 95.9534L66.7807 95.9121L66.7194 95.8994L66.5247 95.8549L66.4371 95.8294L66.0485 95.6927C65.9768 95.6649 65.9246 95.6403 65.8725 95.6148L65.8167 95.5886C65.7686 95.5647 65.7192 95.5393 65.6738 95.5083L65.712 95.4527L65.5639 95.3064L65.5731 92.018L65.8175 91.7748L65.9386 91.8034L66.0708 91.8734C66.1532 91.9115 66.187 91.9282 66.2229 91.9425C66.2886 91.9704 66.3252 91.9855 66.3634 91.9982L66.5195 92.0498L66.5163 92.3042L66.582 92.0689L66.6103 92.3312L66.7138 92.1031L66.7039 92.3519L66.6477 92.5896L66.6326 92.3344L66.5796 92.5729L66.4351 92.5347L66.4785 92.2931L66.3758 92.5172C66.3312 92.5037 66.287 92.4894 66.2424 92.4735C66.1627 92.4465 66.111 92.4258 66.0612 92.4035L66.0532 95.1601C66.1361 95.1999 66.1743 95.2182 66.2149 95.2341L66.7616 95.4081L66.8301 95.4232L66.9252 95.4431L67.0733 95.4678C67.1593 95.4789 67.2083 95.4852 67.2573 95.4892L67.3206 95.4964L67.5918 95.5091L67.6575 95.5107L67.9724 95.5043C68.0218 95.5004 68.05 95.4988 68.0787 95.4948L68.2699 95.4773C68.3208 95.4694 68.363 95.4622 68.406 95.4543L68.4753 95.4463C68.4753 95.4431 68.5119 95.436 68.5494 95.4272L68.6107 95.4153C68.6274 95.4113 68.6585 95.405 68.6887 95.3946L68.8902 95.3374L69.1681 95.2341L69.2239 95.2492L69.2111 95.2245L69.2541 95.2047L69.3226 95.2762L69.3306 92.4107C69.3147 92.4171 69.3043 92.421 69.2932 92.4242C69.1944 92.4648 69.1363 92.4846 69.0757 92.5037C68.9842 92.5331 68.9244 92.549 68.8671 92.5649L68.0333 92.7001L67.671 92.7088C67.5742 92.7088 67.5245 92.708 67.4747 92.7024C67.3931 92.7024 67.327 92.6969 67.2613 92.6889L67.1972 92.4362L67.1729 92.6786C67.1315 92.6746 67.0897 92.6706 67.0479 92.6643L66.7413 92.611L66.7039 92.3519L66.8014 92.1238L66.924 92.15L66.9722 92.4052L67.0092 92.1635L67.2959 92.2009C67.3716 92.2104 67.4217 92.2144 67.4723 92.216C67.5631 92.2207 67.5929 92.2207 67.624 92.2207L68.1082 92.2025C68.1146 92.2009 68.146 92.1977 68.1735 92.1977L68.7174 92.0975C68.7891 92.0801 68.8408 92.0658 68.891 92.0499C68.9802 92.022 69.0288 92.0053 69.0757 91.9871L69.2302 91.9211L69.3314 92.0634L69.3489 92.0228L69.3146 91.8837L69.4333 91.8225L69.8203 92.0244L69.6849 95.5298L69.5902 95.5822L69.4524 95.6514L69.4373 95.6458L69.2342 95.7293L69.2366 95.7356L68.8368 95.8604C68.7923 95.8739 68.7469 95.8851 68.6999 95.8954C68.6075 95.9145 68.5597 95.9248 68.5119 95.932L68.4506 95.9383C68.4442 95.9439 68.3925 95.9526 68.3383 95.9598L68.2698 95.9654L68.1926 95.9773C68.187 95.9797 68.1572 95.9813 68.1377 95.9813C68.1002 95.9852 68.0576 95.9876 68.0146 95.99L67.9338 95.9948C67.894 95.9963 67.8542 95.9987 67.814 95.9987Z" fill="#1A1A1A"/>
<path d="M49.7426 41.1482L68.0903 30.9739L93.3693 45.2179L68.2319 59.4619L43.219 45.2179L49.7426 41.1482Z" fill="#1A1A1A"/>
<path d="M92.6436 45.2881L67.8187 30.9787L67.6965 30.7665L67.7006 29.563L68.1886 29.9284L68.1862 30.6266L93.1372 45.0085L92.6436 45.2881Z" fill="#1A1A1A"/>
<path d="M105.586 37.9559L105.525 37.8495L68.1118 16.2848L67.7451 16.4955L67.7121 26.1894L68.2002 26.4817L68.2324 16.9183L105.155 38.2003L105.586 37.9559Z" fill="#1A1A1A"/>
<path d="M43.4935 45.2335L68.0636 30.9779L68.1854 30.7677L68.1884 29.887L67.6997 29.6702L67.6964 30.6262L43.0102 44.949L43.4935 45.2335Z" fill="#1A1A1A"/>
<path d="M31.2953 38.0531L67.743 16.9211L67.7109 26.3773L68.1994 26.6482L68.234 16.4966L67.8661 16.2848L30.8116 37.7683L31.2953 38.0531Z" fill="#1A1A1A"/>
<path d="M68.0616 74.1057L30.6488 52.5442L30.5265 52.332L30.5508 38.0602L30.9175 37.8495L68.3551 59.415L68.4769 59.6273L68.4283 73.8951L68.0616 74.1057ZM31.0159 52.1921L67.9406 73.4722L67.9872 59.7672L31.0394 38.483L31.0159 52.1921Z" fill="#1A1A1A"/>
<path d="M68.3065 74.1057L67.9394 73.8935L67.988 59.6257L68.1094 59.415L105.28 37.8495L105.647 38.0618L105.598 52.3336L105.477 52.5442L68.3065 74.1057ZM68.4769 59.7672L68.4299 73.4691L105.109 52.1921L105.156 38.4862L68.4769 59.7672Z" fill="#1A1A1A"/>
<path d="M66.2599 34.1628C64.7066 33.2758 63.2756 33.1184 62.2225 33.7169L62.1691 33.7479L61.9198 33.3282C61.9394 33.3163 61.9589 33.3052 61.9784 33.2932L63.5054 32.4022C64.7708 31.6892 66.3957 31.8374 68.0871 32.8147L68.0879 33.2368L66.5048 34.1612L66.2599 34.1628ZM63.671 32.8712C64.504 32.8767 65.423 33.1446 66.379 33.6692L67.4664 33.0341C66.07 32.3295 64.7628 32.2536 63.749 32.8251L63.671 32.8712Z" fill="#1A1A1A"/>
<path d="M70.7911 48.5794L70.545 48.1574L70.5458 48.1566L70.5466 48.1558L70.5681 48.1438C71.6073 47.5302 72.2022 46.1964 72.2022 44.4779C72.2022 40.6928 69.5257 36.0762 66.2356 34.186L66.234 33.7639L67.8172 32.8403L68.0632 32.8395C71.4879 34.8211 74.2743 39.6276 74.2743 43.5535C74.2743 45.4922 73.5998 46.9492 72.3742 47.655L70.8182 48.5635L70.7911 48.5794ZM66.8349 33.9785C70.0951 36.0643 72.6911 40.6745 72.6911 44.4779C72.6911 45.574 72.4634 46.5334 72.0397 47.2838L72.1289 47.2321C73.1968 46.6169 73.7853 45.3101 73.7853 43.5535C73.7853 39.8295 71.1741 35.2805 67.9398 33.3339L66.8349 33.9785Z" fill="#1A1A1A"/>
<path d="M72.252 47.4438L70.6688 48.3679C71.7648 47.7356 72.4469 46.3741 72.4469 44.4777C72.4469 40.612 69.7432 35.9197 66.3575 33.9747L67.9407 33.0509C71.302 34.9959 74.0301 39.7125 74.0301 43.5539C74.0301 45.4745 73.3481 46.8117 72.252 47.4438Z" fill="#1A1A1A"/>
<path d="M30.9287 38.2795L30.6456 37.8837L42.6743 27.4805L66.16 14.6226L67.3628 14.5057V14.6612L68.1878 16.6747L68.0035 16.7812L30.9287 38.2795ZM42.9323 27.8962L32.9259 36.5563L67.5735 16.4656L66.959 14.9658H66.6036L66.4237 15.0355L42.9323 27.8962Z" fill="#1A1A1A"/>
<path d="M72.0732 32.3308L71.9521 32.2612L59.1271 24.9441L62.3459 23.073L75.2952 30.4843L72.0732 32.3308ZM60.1058 24.9401L72.0732 31.768L74.3125 30.4843L62.3475 23.6373L60.1058 24.9401Z" fill="#1A1A1A"/>
<path d="M105.279 38.2795L67.89 16.7399L67.3861 14.4804L91.406 27.7241L105.544 37.8702L105.279 38.2795ZM68.2794 16.4005L101.288 35.4164L91.144 28.1355L67.7025 14.9936L68.2794 16.4005Z" fill="#1A1A1A"/>
<path d="M51.2791 57.4533L36.9813 49.2145L36.859 49.0031V48.4173L37.2257 48.2058L51.5479 56.4502L51.6702 56.672L51.6459 57.2522L51.2791 57.4533ZM37.348 48.8624L51.1736 56.8285L51.1752 56.7991L37.348 48.8401V48.8624Z" fill="#1A1A1A"/>
<path d="M51.5248 57.4525L51.2791 57.4533L51.1812 56.6505L51.3019 56.4502L54.4227 54.769L54.5688 54.959V55.5401L54.4478 55.7507L51.5248 57.4525ZM51.6646 56.8039V56.8063L54.0799 55.3858L51.6646 56.8039Z" fill="#1A1A1A"/>
<path d="M51.2788 56.8715L36.859 48.4173L36.9566 48.1565L39.8553 46.481H40.1005L54.4227 54.769V55.1919L51.524 56.8715L51.2788 56.8715ZM37.567 48.368L51.4014 56.3778L53.8127 54.9805L39.9779 46.9746L37.567 48.368Z" fill="#1A1A1A"/>
<path d="M43.8011 70.5368L29.4789 62.2948L29.3567 62.0834V61.4976L29.4542 61.2385L44.0456 69.5305L44.1678 69.7419V70.3254L43.8011 70.5368ZM29.8456 61.9427L43.6789 69.9025V69.8826L29.8456 61.9205V61.9427Z" fill="#1A1A1A"/>
<path d="M44.0452 70.5352L43.8011 70.5368L43.6789 69.7403L43.8011 69.5289L46.9447 67.8756L47.0908 68.06V68.6466L46.9682 68.858L44.0452 70.5352ZM44.1678 69.8818V69.9017L46.6018 68.4821L44.1678 69.8818Z" fill="#1A1A1A"/>
<path d="M44.0209 69.9732H43.776L29.4538 61.6613L29.4542 61.2385L32.3529 59.5613H32.5982L46.9447 67.8756L46.9439 68.2984L44.0209 69.9732ZM30.0642 61.4499L43.8999 69.4796L46.3327 68.0854L32.4756 60.0549L30.0642 61.4499Z" fill="#1A1A1A"/>
<path d="M46.2857 66.1833L31.9878 57.939L31.8656 57.7275V57.1457L32.2323 56.9343L46.5302 65.1738L46.6524 65.3853V65.9719L46.2857 66.1833ZM32.3545 57.5868L46.1635 65.549V65.526L32.3545 57.5686V57.5868Z" fill="#1A1A1A"/>
<path d="M46.531 66.1825L46.2857 66.1833L46.1631 65.3853L46.2845 65.1746L49.4293 63.4991L49.575 63.6843V64.2701L49.4539 64.4807L46.531 66.1825ZM46.652 65.5252V65.5466L49.086 64.1095L46.652 65.5252Z" fill="#1A1A1A"/>
<path d="M46.5055 65.5967H46.261L31.8656 57.1457L31.9392 56.8858L34.8622 55.2062H35.1071L49.4293 63.4991L49.4285 63.9219L46.5055 65.5967ZM32.5504 57.098L46.3844 65.1031L48.8173 63.7097L34.984 55.6998L32.5504 57.098Z" fill="#1A1A1A"/>
<path d="M48.7942 61.829L34.4963 53.5632L34.3744 53.3518V52.77L34.7412 52.5585L49.039 60.7981L49.1613 61.0095V61.6176L48.7942 61.829ZM34.8634 53.2111L48.6723 61.1939V61.1502L34.8634 53.1928V53.2111Z" fill="#1A1A1A"/>
<path d="M49.0398 61.8275L48.7942 61.829L48.6719 61.0087L48.7946 60.7973L51.9385 59.1456L52.0838 59.334V59.915L51.9628 60.1256L49.0398 61.8275ZM49.1609 61.1502V61.1916L51.5949 59.756L49.1609 61.1502Z" fill="#1A1A1A"/>
<path d="M49.0148 61.248H48.7695L34.3744 52.77L34.4481 52.51L37.3711 50.8297H37.6163L51.9385 59.1456L51.9377 59.5684L49.0148 61.248ZM35.0589 52.7223L48.8933 60.7544L51.3269 59.3562L37.4925 51.3233L35.0589 52.7223Z" fill="#1A1A1A"/>
<path d="M62.5414 23.3551H62.0524V26.4758H62.5414V23.3551Z" fill="#1A1A1A"/>
<path d="M66.3813 33.9505L67.9644 33.0266C66.2838 32.0541 64.7493 31.9812 63.6288 32.6133L62.2149 33.4384C61.0184 34.0309 60.2673 35.4205 60.2673 37.427C60.2673 41.2684 62.971 45.985 66.3323 47.93C68.4486 49.1547 70.3235 48.9818 71.4221 47.727L72.1529 47.3004C72.054 47.3575 71.9519 47.4086 71.8467 47.4536L72.153 47.275C72.1245 47.2892 72.0952 47.3043 72.065 47.3198C71.9405 47.384 71.8031 47.4547 71.6658 47.4938L71.564 47.5532L71.5654 47.5514L71.6658 47.4928C71.6405 47.5029 71.614 47.513 71.5868 47.5229C72.1321 46.7901 72.446 45.7506 72.446 44.4533C72.4704 40.6121 69.7425 35.8956 66.3813 33.9505Z" fill="white"/>
<path d="M68.3272 59.7129C68.2849 59.7129 68.2435 59.7025 68.2053 59.6803L30.6837 38.1927C30.6149 38.1537 30.5695 38.0838 30.5619 38.0043C30.5543 37.9256 30.5858 37.8485 30.6455 37.7968L42.623 27.6422C42.7022 27.5743 42.8161 27.5643 42.9049 27.6152L67.5494 41.4366C67.6223 41.478 67.6685 41.5543 67.672 41.6385L68.5716 59.4593C68.5748 59.5476 68.5302 59.6318 68.4538 59.6779C68.4148 59.701 68.3709 59.7129 68.3272 59.7129ZM31.2268 37.9407L68.0652 59.0373L67.1887 41.7927L42.8117 28.1251L31.2268 37.9407Z" fill="#1A1A1A"/>
<path d="M68.3315 59.7105C68.2909 59.7105 68.2503 59.701 68.2137 59.6803C68.1384 59.639 68.0906 59.5619 68.0871 59.476L67.1887 41.7927C67.1851 41.7029 67.2313 41.6179 67.3093 41.5726L91.0632 27.7057C91.1468 27.6572 91.2503 27.6616 91.3307 27.718L105.544 37.7715C105.611 37.82 105.65 37.8987 105.646 37.9814C105.642 38.064 105.595 38.1395 105.524 38.1809L68.4538 59.6779C68.4163 59.6994 68.3741 59.7105 68.3315 59.7105ZM67.6836 41.9199L68.5488 59.0079L104.951 37.9472L91.1738 28.2076L67.6836 41.9199Z" fill="#1A1A1A"/>
<path d="M66.2599 34.1627C64.7067 33.2756 63.2756 33.1182 62.2225 33.7167L62.1691 33.7477L61.9199 33.3281C61.9394 33.3161 61.9589 33.305 61.9784 33.2931L63.5054 32.402C64.7708 31.689 66.3957 31.8373 68.0871 32.8146L68.0879 33.2366L66.5048 34.1611L66.2599 34.1627ZM63.671 32.871C64.504 32.8766 65.423 33.1444 66.379 33.6691L67.4664 33.034C66.07 32.3293 64.7628 32.2534 63.7491 32.8249L63.671 32.871Z" fill="#1A1A1A"/>
<path d="M70.7911 48.5793L70.545 48.1572L70.5458 48.1564L70.5466 48.1556L70.5681 48.1437C71.6074 47.53 72.2022 46.1963 72.2022 44.4778C72.2022 40.6926 69.5257 36.076 66.2356 34.1858L66.2341 33.7638L67.8172 32.8401L68.0633 32.8393C71.4879 34.8209 74.2743 39.6275 74.2743 43.5533C74.2743 45.492 73.5998 46.949 72.3742 47.6548L70.8182 48.5634L70.7911 48.5793ZM66.8349 33.9784C70.0951 36.0641 72.6912 40.6743 72.6912 44.4778C72.6912 45.5739 72.4634 46.5333 72.0398 47.2836L72.129 47.232C73.1968 46.6167 73.7853 45.31 73.7853 43.5533C73.7853 39.8294 71.1741 35.2804 67.9398 33.3337L66.8349 33.9784Z" fill="#1A1A1A"/>
<path d="M69.0591 49.0108C68.1783 49.0108 67.2084 48.719 66.2098 48.1412C62.7982 46.1667 60.023 41.3602 60.023 37.4264C60.023 35.4813 60.7011 34.0204 61.9326 33.3122C63.1717 32.5968 64.7959 32.7502 66.5036 33.7382C69.9406 35.727 72.7159 40.5343 72.6904 44.4546C72.6904 46.398 72.0119 47.859 70.7808 48.5672C70.2655 48.8637 69.685 49.0108 69.0591 49.0108ZM63.6555 33.3583C63.114 33.3583 62.6155 33.483 62.1771 33.735C61.1032 34.3526 60.512 35.6634 60.512 37.4264C60.512 41.2052 63.1781 45.8225 66.455 47.7183C68.0039 48.6149 69.4549 48.7675 70.5363 48.1444C71.6098 47.5267 72.2014 46.216 72.2014 44.453C72.2253 40.6877 69.5592 36.0711 66.2583 34.1611C65.3366 33.6277 64.4502 33.3583 63.6555 33.3583Z" fill="#1A1A1A"/>
<path d="M68.3081 47.6936C67.5851 47.6936 66.7879 47.4535 65.9661 46.9774C63.1857 45.367 60.9241 41.4547 60.9241 38.2569C60.9241 36.6529 61.4799 35.4502 62.4893 34.87C63.5022 34.2866 64.8329 34.413 66.2345 35.2237C69.0153 36.8103 71.2777 40.7234 71.2777 43.9458C71.2777 45.5498 70.7218 46.7524 69.7129 47.3327C69.2932 47.5735 68.8194 47.6936 68.3081 47.6936ZM63.8956 34.9972C63.4688 34.9972 63.077 35.0957 62.7334 35.2929C61.8821 35.7825 61.413 36.8349 61.413 38.2569C61.413 41.2997 63.5655 45.022 66.2114 46.5545C67.4568 47.2755 68.6123 47.4019 69.4692 46.909C70.3197 46.4202 70.7887 45.3678 70.7887 43.9458C70.7887 40.8792 68.637 37.1568 65.9916 35.6482L65.9904 35.6474C65.2454 35.2158 64.5319 34.9972 63.8956 34.9972Z" fill="#1A1A1A"/>
</g>
<defs>
<clipPath id="clip0_6852_15720">
<rect width="135" height="110" fill="white"/>
</clipPath>
</defs>
</svg>
