<svg width="40" height="40" viewBox="0 0 40 40" fill="none" xmlns="http://www.w3.org/2000/svg">
<g clip-path="url(#clip0_342_13189)">
<mask id="mask0_342_13189" style="mask-type:alpha" maskUnits="userSpaceOnUse" x="0" y="0" width="40" height="40">
<path fill-rule="evenodd" clip-rule="evenodd" d="M20 40C31.0457 40 40 31.0457 40 20C40 8.9543 31.0457 0 20 0C8.9543 0 0 8.9543 0 20C0 31.0457 8.9543 40 20 40ZM20 34C27.732 34 34 27.732 34 20C34 12.268 27.732 6 20 6C12.268 6 6 12.268 6 20C6 27.732 12.268 34 20 34Z" fill="#D9D9D9"/>
</mask>
<g mask="url(#mask0_342_13189)">
<path d="M20.5 0V19.5M20.5 19.5V40M20.5 19.5H0M20.5 19.5H40M10.433 2.42949L20.183 19.317M20.183 19.317L30.433 37.0705M20.183 19.317L2.42949 29.567M20.183 19.317L37.0705 9.56699M2.92969 9.56694L19.8172 19.3169M19.8172 19.3169L37.5707 29.5669M19.8172 19.3169L9.56718 37.0705M19.8172 19.3169L29.5672 2.42944" stroke="#5D432A" stroke-linecap="round"/>
<path fill-rule="evenodd" clip-rule="evenodd" d="M20 31C26.0751 31 31 26.0751 31 20C31 13.9249 26.0751 9 20 9C13.9249 9 9 13.9249 9 20C9 26.0751 13.9249 31 20 31ZM20 32C26.6274 32 32 26.6274 32 20C32 13.3726 26.6274 8 20 8C13.3726 8 8 13.3726 8 20C8 26.6274 13.3726 32 20 32Z" fill="#5D432A"/>
<path d="M28 20C28 24.4183 24.4183 28 20 28C15.5817 28 12 24.4183 12 20C12 15.5817 15.5817 12 20 12C24.4183 12 28 15.5817 28 20Z" fill="#5D432A"/>
</g>
<path fill-rule="evenodd" clip-rule="evenodd" d="M20 31C26.0751 31 31 26.0751 31 20C31 13.9249 26.0751 9 20 9C13.9249 9 9 13.9249 9 20C9 26.0751 13.9249 31 20 31ZM20 32C26.6274 32 32 26.6274 32 20C32 13.3726 26.6274 8 20 8C13.3726 8 8 13.3726 8 20C8 26.6274 13.3726 32 20 32Z" fill="#5D432A"/>
<path d="M28 20C28 24.4183 24.4183 28 20 28C15.5817 28 12 24.4183 12 20C12 15.5817 15.5817 12 20 12C24.4183 12 28 15.5817 28 20Z" fill="#5D432A"/>
<mask id="mask1_342_13189" style="mask-type:alpha" maskUnits="userSpaceOnUse" x="9" y="9" width="22" height="22">
<circle cx="20" cy="20" r="11" fill="#DAC295"/>
</mask>
<g mask="url(#mask1_342_13189)">
<mask id="path-6-inside-1_342_13189" fill="white">
<path d="M17.2499 31.2646L20.0004 28.5141L22.7509 31.2646L20.0004 34.015L17.2499 31.2646Z"/>
<path d="M17.2499 8.65538L20.0004 5.90491L22.7509 8.65538L20.0004 11.4058L17.2499 8.65538Z"/>
<path d="M31.3051 22.7104L28.5546 19.96L31.3051 17.2095L34.0555 19.96L31.3051 22.7104Z"/>
<path d="M8.69579 22.7104L5.94531 19.96L8.69579 17.2095L11.4463 19.96L8.69579 22.7104Z"/>
<path d="M26.0491 29.8984V26.0086H29.9389V29.8984H26.0491Z"/>
<path d="M10.062 13.9113V10.0215H13.9517V13.9113H10.062Z"/>
<path d="M29.9389 13.9113H26.0491V10.0215H29.9389V13.9113Z"/>
<path d="M13.9517 29.8984H10.062V26.0086H13.9517V29.8984Z"/>
<path d="M21.7854 31.4566L23.274 27.8629L26.8676 29.3515L25.3791 32.9451L21.7854 31.4566Z"/>
<path d="M13.1332 10.5684L14.6218 6.97479L18.2154 8.46333L16.7269 12.057L13.1332 10.5684Z"/>
<path d="M31.4971 18.175L27.9034 16.6865L29.392 13.0928L32.9857 14.5813L31.4971 18.175Z"/>
<path d="M10.6089 26.8272L7.01519 25.3386L8.50374 21.745L12.0974 23.2335L10.6089 26.8272Z"/>
<path d="M29.392 26.8272L27.9034 23.2335L31.4971 21.7449L32.9857 25.3386L29.392 26.8272Z"/>
<path d="M8.50375 18.175L7.0152 14.5813L10.6089 13.0928L12.0974 16.6865L8.50375 18.175Z"/>
<path d="M26.8676 10.5685L23.274 12.057L21.7854 8.46334L25.3791 6.97479L26.8676 10.5685Z"/>
<path d="M18.2155 31.4566L14.6218 32.9452L13.1332 29.3515L16.7269 27.8629L18.2155 31.4566Z"/>
<path d="M17.0646 32.0246L20 29.0892L22.9354 32.0246L20 34.96L17.0646 32.0246Z"/>
<path d="M17.0646 7.89546L20 4.96008L22.9354 7.89546L20 10.8308L17.0646 7.89546Z"/>
<path d="M32.0646 22.8954L29.1292 19.96L32.0646 17.0246L35 19.96L32.0646 22.8954Z"/>
<path d="M7.93539 22.8954L5 19.96L7.93539 17.0246L10.8708 19.96L7.93539 22.8954Z"/>
<path d="M26.4553 30.5666V26.4153H30.6066V30.5666H26.4553Z"/>
<path d="M9.3934 13.5047V9.35347H13.5447V13.5047H9.3934Z"/>
<path d="M30.6066 13.5047H26.4553V9.35347H30.6066V13.5047Z"/>
<path d="M13.5447 30.5666H9.39341V26.4153H13.5447V30.5666Z"/>
<path d="M21.905 32.2295L23.4936 28.3943L27.3289 29.9829L25.7402 33.8182L21.905 32.2295Z"/>
<path d="M12.6711 9.93714L14.2597 6.10189L18.095 7.6905L16.5064 11.5258L12.6711 9.93714Z"/>
<path d="M32.2696 18.0551L28.4343 16.4664L30.0229 12.6312L33.8582 14.2198L32.2696 18.0551Z"/>
<path d="M9.97708 27.2889L6.14181 25.7003L7.73043 21.865L11.5657 23.4536L9.97708 27.2889Z"/>
<path d="M30.0229 27.2889L28.4343 23.4536L32.2696 21.865L33.8582 25.7002L30.0229 27.2889Z"/>
<path d="M7.73043 18.055L6.14181 14.2198L9.97708 12.6312L11.5657 16.4664L7.73043 18.055Z"/>
<path d="M27.3289 9.93715L23.4936 11.5258L21.905 7.69051L25.7403 6.10189L27.3289 9.93715Z"/>
<path d="M18.095 32.2295L14.2598 33.8182L12.6711 29.9829L16.5064 28.3943L18.095 32.2295Z"/>
</mask>
<path d="M17.2499 31.2646L20.0004 28.5141L22.7509 31.2646L20.0004 34.015L17.2499 31.2646Z" stroke="#5D432A" stroke-width="0.915352" mask="url(#path-6-inside-1_342_13189)"/>
<path d="M17.2499 8.65538L20.0004 5.90491L22.7509 8.65538L20.0004 11.4058L17.2499 8.65538Z" stroke="#5D432A" stroke-width="0.915352" mask="url(#path-6-inside-1_342_13189)"/>
<path d="M31.3051 22.7104L28.5546 19.96L31.3051 17.2095L34.0555 19.96L31.3051 22.7104Z" stroke="#5D432A" stroke-width="0.915352" mask="url(#path-6-inside-1_342_13189)"/>
<path d="M8.69579 22.7104L5.94531 19.96L8.69579 17.2095L11.4463 19.96L8.69579 22.7104Z" stroke="#5D432A" stroke-width="0.915352" mask="url(#path-6-inside-1_342_13189)"/>
<path d="M26.0491 29.8984V26.0086H29.9389V29.8984H26.0491Z" stroke="#5D432A" stroke-width="0.915352" mask="url(#path-6-inside-1_342_13189)"/>
<path d="M10.062 13.9113V10.0215H13.9517V13.9113H10.062Z" stroke="#5D432A" stroke-width="0.915352" mask="url(#path-6-inside-1_342_13189)"/>
<path d="M29.9389 13.9113H26.0491V10.0215H29.9389V13.9113Z" stroke="#5D432A" stroke-width="0.915352" mask="url(#path-6-inside-1_342_13189)"/>
<path d="M13.9517 29.8984H10.062V26.0086H13.9517V29.8984Z" stroke="#5D432A" stroke-width="0.915352" mask="url(#path-6-inside-1_342_13189)"/>
<path d="M21.7854 31.4566L23.274 27.8629L26.8676 29.3515L25.3791 32.9451L21.7854 31.4566Z" stroke="#5D432A" stroke-width="0.915352" mask="url(#path-6-inside-1_342_13189)"/>
<path d="M13.1332 10.5684L14.6218 6.97479L18.2154 8.46333L16.7269 12.057L13.1332 10.5684Z" stroke="#5D432A" stroke-width="0.915352" mask="url(#path-6-inside-1_342_13189)"/>
<path d="M31.4971 18.175L27.9034 16.6865L29.392 13.0928L32.9857 14.5813L31.4971 18.175Z" stroke="#5D432A" stroke-width="0.915352" mask="url(#path-6-inside-1_342_13189)"/>
<path d="M10.6089 26.8272L7.01519 25.3386L8.50374 21.745L12.0974 23.2335L10.6089 26.8272Z" stroke="#5D432A" stroke-width="0.915352" mask="url(#path-6-inside-1_342_13189)"/>
<path d="M29.392 26.8272L27.9034 23.2335L31.4971 21.7449L32.9857 25.3386L29.392 26.8272Z" stroke="#5D432A" stroke-width="0.915352" mask="url(#path-6-inside-1_342_13189)"/>
<path d="M8.50375 18.175L7.0152 14.5813L10.6089 13.0928L12.0974 16.6865L8.50375 18.175Z" stroke="#5D432A" stroke-width="0.915352" mask="url(#path-6-inside-1_342_13189)"/>
<path d="M26.8676 10.5685L23.274 12.057L21.7854 8.46334L25.3791 6.97479L26.8676 10.5685Z" stroke="#5D432A" stroke-width="0.915352" mask="url(#path-6-inside-1_342_13189)"/>
<path d="M18.2155 31.4566L14.6218 32.9452L13.1332 29.3515L16.7269 27.8629L18.2155 31.4566Z" stroke="#5D432A" stroke-width="0.915352" mask="url(#path-6-inside-1_342_13189)"/>
<path d="M17.0646 32.0246L20 29.0892L22.9354 32.0246L20 34.96L17.0646 32.0246Z" stroke="#5D432A" stroke-width="0.915352" mask="url(#path-6-inside-1_342_13189)"/>
<path d="M17.0646 7.89546L20 4.96008L22.9354 7.89546L20 10.8308L17.0646 7.89546Z" stroke="#5D432A" stroke-width="0.915352" mask="url(#path-6-inside-1_342_13189)"/>
<path d="M32.0646 22.8954L29.1292 19.96L32.0646 17.0246L35 19.96L32.0646 22.8954Z" stroke="#5D432A" stroke-width="0.915352" mask="url(#path-6-inside-1_342_13189)"/>
<path d="M7.93539 22.8954L5 19.96L7.93539 17.0246L10.8708 19.96L7.93539 22.8954Z" stroke="#5D432A" stroke-width="0.915352" mask="url(#path-6-inside-1_342_13189)"/>
<path d="M26.4553 30.5666V26.4153H30.6066V30.5666H26.4553Z" stroke="#5D432A" stroke-width="0.915352" mask="url(#path-6-inside-1_342_13189)"/>
<path d="M9.3934 13.5047V9.35347H13.5447V13.5047H9.3934Z" stroke="#5D432A" stroke-width="0.915352" mask="url(#path-6-inside-1_342_13189)"/>
<path d="M30.6066 13.5047H26.4553V9.35347H30.6066V13.5047Z" stroke="#5D432A" stroke-width="0.915352" mask="url(#path-6-inside-1_342_13189)"/>
<path d="M13.5447 30.5666H9.39341V26.4153H13.5447V30.5666Z" stroke="#5D432A" stroke-width="0.915352" mask="url(#path-6-inside-1_342_13189)"/>
<path d="M21.905 32.2295L23.4936 28.3943L27.3289 29.9829L25.7402 33.8182L21.905 32.2295Z" stroke="#5D432A" stroke-width="0.915352" mask="url(#path-6-inside-1_342_13189)"/>
<path d="M12.6711 9.93714L14.2597 6.10189L18.095 7.6905L16.5064 11.5258L12.6711 9.93714Z" stroke="#5D432A" stroke-width="0.915352" mask="url(#path-6-inside-1_342_13189)"/>
<path d="M32.2696 18.0551L28.4343 16.4664L30.0229 12.6312L33.8582 14.2198L32.2696 18.0551Z" stroke="#5D432A" stroke-width="0.915352" mask="url(#path-6-inside-1_342_13189)"/>
<path d="M9.97708 27.2889L6.14181 25.7003L7.73043 21.865L11.5657 23.4536L9.97708 27.2889Z" stroke="#5D432A" stroke-width="0.915352" mask="url(#path-6-inside-1_342_13189)"/>
<path d="M30.0229 27.2889L28.4343 23.4536L32.2696 21.865L33.8582 25.7002L30.0229 27.2889Z" stroke="#5D432A" stroke-width="0.915352" mask="url(#path-6-inside-1_342_13189)"/>
<path d="M7.73043 18.055L6.14181 14.2198L9.97708 12.6312L11.5657 16.4664L7.73043 18.055Z" stroke="#5D432A" stroke-width="0.915352" mask="url(#path-6-inside-1_342_13189)"/>
<path d="M27.3289 9.93715L23.4936 11.5258L21.905 7.69051L25.7403 6.10189L27.3289 9.93715Z" stroke="#5D432A" stroke-width="0.915352" mask="url(#path-6-inside-1_342_13189)"/>
<path d="M18.095 32.2295L14.2598 33.8182L12.6711 29.9829L16.5064 28.3943L18.095 32.2295Z" stroke="#5D432A" stroke-width="0.915352" mask="url(#path-6-inside-1_342_13189)"/>
</g>
</g>
<defs>
<clipPath id="clip0_342_13189">
<rect width="40" height="40" fill="white"/>
</clipPath>
</defs>
</svg>
