<svg width="292" height="276" viewBox="0 0 292 276" fill="none" xmlns="http://www.w3.org/2000/svg">
<path d="M58.0435 98.6328C52.8748 110.161 50 122.942 50 136.393C50 152.074 53.9062 166.842 60.7987 179.778C76.3356 208.938 107.046 228.787 142.393 228.787C193.42 228.787 234.786 187.421 234.786 136.393C234.786 107.077 221.133 80.9503 199.838 64.0243" stroke="#7246EE" stroke-width="0.803419"/>
<path d="M58.043 98.6325C72.4808 66.4307 104.817 44 142.393 44C164.104 44 184.066 51.4887 199.837 64.024" stroke="#7246EE" stroke-width="0.803419" stroke-dasharray="1.61 3.21 1.61 3.21"/>
<circle cx="142.395" cy="136.393" r="63.8718" stroke="#7246EE" stroke-width="0.803419"/>
<circle cx="57.2293" cy="100.24" r="3.21368" fill="#7246EE"/>
<rect x="107.043" y="101.043" width="70.7009" height="70.7009" rx="35.3504" fill="#1A1A1A"/>
<circle cx="171.317" cy="188.615" r="18.8803" fill="white" stroke="#7246EE" stroke-width="0.803419" stroke-dasharray="1.61 3.21"/>
<g clip-path="url(#clip0_3_5320)">
<path d="M123.094 130.986H125.383V139.365C125.383 139.78 125.494 140.087 125.714 140.297C125.836 140.408 125.982 140.491 126.141 140.546C126.3 140.6 126.469 140.622 126.638 140.613C127.063 140.613 127.377 140.498 127.585 140.27C127.8 140.008 127.906 139.681 127.89 139.352V130.986H130.179V139.273C130.183 139.65 130.121 140.022 129.994 140.379C129.874 140.708 129.673 141.008 129.403 141.248C129.105 141.507 128.747 141.701 128.359 141.814C127.855 141.959 127.328 142.026 126.799 142.015C126.088 142.015 125.524 141.923 125.113 141.737C124.769 141.602 124.466 141.385 124.235 141.112C124.002 141.385 123.702 141.6 123.357 141.737C122.946 141.923 122.385 142.015 121.671 142.015C121.144 142.026 120.618 141.959 120.114 141.814C119.724 141.701 119.366 141.507 119.068 141.248C118.797 141.006 118.597 140.708 118.476 140.379C118.347 140.022 118.285 139.647 118.289 139.273V130.986H120.588V139.352C120.569 139.681 120.678 140.008 120.893 140.27C121.096 140.498 121.412 140.613 121.84 140.616C122.008 140.625 122.177 140.602 122.336 140.548C122.496 140.494 122.641 140.408 122.764 140.3C122.983 140.09 123.092 139.778 123.092 139.367V130.986H123.094Z" fill="white"/>
<path d="M132.419 130.986H138.525V132.395H134.706V135.437H138.294V136.851H134.706V140.399H138.677V141.807H132.417V130.986H132.419Z" fill="white"/>
<path d="M145.257 133.429C145.257 133.013 145.148 132.706 144.929 132.496C144.806 132.388 144.661 132.302 144.501 132.248C144.342 132.194 144.173 132.171 144.005 132.18C143.577 132.18 143.266 132.295 143.058 132.526C142.843 132.788 142.734 133.113 142.753 133.444V141.808H140.464V133.514C140.459 133.14 140.521 132.765 140.646 132.408C140.766 132.079 140.97 131.781 141.237 131.539C141.535 131.28 141.894 131.086 142.282 130.973C142.785 130.828 143.312 130.761 143.839 130.772C144.55 130.772 145.114 130.864 145.525 131.049C145.867 131.187 146.167 131.404 146.398 131.679C146.634 131.404 146.939 131.189 147.285 131.054C147.696 130.869 148.258 130.776 148.971 130.776C149.496 130.765 150.018 130.831 150.521 130.975C150.912 131.088 151.272 131.282 151.572 131.542C151.843 131.781 152.046 132.081 152.164 132.411C152.288 132.767 152.351 133.142 152.346 133.517V141.805H150.048V133.442C150.066 133.113 149.958 132.785 149.743 132.523C149.54 132.293 149.225 132.178 148.796 132.178C148.627 132.169 148.458 132.192 148.301 132.246C148.144 132.3 147.999 132.384 147.876 132.494C147.657 132.704 147.548 133.013 147.548 133.426V141.805H145.255V133.429H145.257Z" fill="white"/>
<path d="M156.874 141.807H154.585V130.986H156.874V141.807Z" fill="white"/>
<path d="M158.586 130.986H160.891L162.494 134.35L164.081 130.986H166.403L163.64 136.331L166.509 141.805H164.127L162.494 138.227L160.868 141.805H158.489L161.351 136.331L158.586 130.986Z" fill="white"/>
</g>
<rect x="227.156" y="131.171" width="15.265" height="15.265" rx="7.63248" fill="#D0C4F2"/>
<rect x="227.156" y="131.171" width="15.265" height="15.265" rx="7.63248" stroke="#7246EE" stroke-width="0.803419"/>
<rect x="105.839" y="216.333" width="15.265" height="15.265" rx="7.63248" fill="#D0C4F2"/>
<rect x="105.839" y="216.333" width="15.265" height="15.265" rx="7.63248" stroke="#7246EE" stroke-width="0.803419"/>
<rect x="189.394" y="53.2391" width="15.265" height="15.265" rx="7.63248" fill="#F3F3FC"/>
<rect x="189.394" y="53.2391" width="15.265" height="15.265" rx="7.63248" stroke="#7246EE" stroke-width="0.803419"/>
<g clip-path="url(#clip1_3_5320)">
<rect x="155.246" y="172.547" width="32.1368" height="32.1368" rx="16.0684" fill="white"/>
<circle cx="171.314" cy="188.615" r="16.0684" fill="#7246EE"/>
<path fill-rule="evenodd" clip-rule="evenodd" d="M163.28 182.724H160.066L168.101 197.721L170.779 192.722L169.172 189.722L168.904 190.222L168.101 191.722L167.297 190.222L163.28 182.724ZM169.707 188.722L170.511 190.222L171.314 191.722L172.519 193.971L174.528 197.721L182.562 182.724H179.348L175.331 190.222L174.528 191.722L173.725 190.222L172.921 188.722L171.314 185.723L169.707 182.724H166.494L169.707 188.722ZM176.135 182.724L173.457 187.723L171.85 184.723L172.921 182.724H176.135Z" fill="white"/>
</g>
<rect x="155.648" y="172.949" width="31.3333" height="31.3333" rx="15.6667" stroke="#7246EE" stroke-width="0.803419"/>
<rect x="84.9486" y="164.915" width="15.265" height="15.265" rx="7.63248" fill="#F3F3FC"/>
<rect x="84.9486" y="164.915" width="15.265" height="15.265" rx="7.63248" stroke="#7246EE" stroke-width="0.803419"/>
<rect x="91.3744" y="64.4872" width="31.3333" height="31.3333" rx="15.6667" fill="#F3F3FC"/>
<rect x="91.3744" y="64.4872" width="31.3333" height="31.3333" rx="15.6667" stroke="#7246EE" stroke-width="0.803419"/>
<defs>
<clipPath id="clip0_3_5320">
<rect width="48.2051" height="11.2479" fill="white" transform="translate(118.289 130.769)"/>
</clipPath>
<clipPath id="clip1_3_5320">
<rect x="155.246" y="172.547" width="32.1368" height="32.1368" rx="16.0684" fill="white"/>
</clipPath>
</defs>
</svg>
