<svg width="292" height="276" viewBox="0 0 292 276" fill="none" xmlns="http://www.w3.org/2000/svg">
<path d="M146.355 233.135C174.47 233.135 197.261 190.348 197.261 137.567C197.261 84.787 174.47 42 146.355 42C118.241 42 95.4492 84.787 95.4492 137.567C95.4492 190.348 118.241 233.135 146.355 233.135Z" stroke="black" stroke-width="0.506899" stroke-miterlimit="10"/>
<g style="mix-blend-mode:multiply">
<path d="M229.215 185.354C243.273 161.04 217.561 119.937 171.787 93.5467C126.013 67.1565 77.5102 65.4729 63.4529 89.7863C49.3957 114.1 75.1072 155.203 120.881 181.593C166.655 207.983 215.158 209.667 229.215 185.354Z" fill="#FFFFF9"/>
<path d="M229.215 185.354C243.273 161.04 217.561 119.937 171.787 93.5467C126.013 67.1565 77.5102 65.4729 63.4529 89.7863C49.3957 114.1 75.1072 155.203 120.881 181.593C166.655 207.983 215.158 209.667 229.215 185.354Z" stroke="black" stroke-width="0.506899" stroke-miterlimit="10"/>
</g>
<path d="M171.807 181.569C217.581 155.179 243.292 114.075 229.235 89.762C215.178 65.4487 166.675 67.1322 120.901 93.5225C75.1267 119.913 49.4152 161.016 63.4725 185.329C77.5297 209.643 126.033 207.959 171.807 181.569Z" stroke="black" stroke-width="0.506899" stroke-miterlimit="10"/>
<g style="mix-blend-mode:multiply" opacity="0.5">
<path d="M188.086 113.75C182.135 108.931 175.488 104.388 168.25 100.223C161.012 96.058 153.704 92.6848 146.5 90C139.296 92.6848 131.988 96.0924 124.75 100.223C117.512 104.353 110.865 108.931 104.914 113.75C103.661 121.254 103 129.239 103 137.5C103 145.761 103.661 153.746 104.914 161.25C110.865 166.069 117.512 170.612 124.75 174.777C131.988 178.942 139.296 182.315 146.5 185C153.704 182.315 161.012 178.908 168.25 174.777C175.488 170.647 182.135 166.069 188.086 161.25C189.339 153.746 190 145.761 190 137.5C190 129.239 189.339 121.254 188.086 113.75Z" fill="#E9F2B3"/>
</g>
<circle cx="97" cy="166" r="5.7" fill="#CCE28D" style="mix-blend-mode:multiply"/>
<circle cx="97" cy="166" r="5.7" stroke="black" stroke-width="0.6"/>
<path d="M160.708 112.361C165.553 115.172 170.003 118.237 173.989 121.486C174.822 126.552 175.262 131.942 175.262 137.517C175.262 143.093 174.822 148.482 173.989 153.549C170.002 156.798 165.552 159.886 160.709 162.673C155.864 165.461 150.974 167.764 146.154 169.581C141.334 167.764 136.444 165.484 131.601 162.674C126.756 159.862 122.306 156.798 118.319 153.549C117.486 148.482 117.046 143.093 117.046 137.517C117.046 131.942 117.486 126.552 118.319 121.486C122.306 118.236 126.756 115.149 131.6 112.361C136.444 109.573 141.334 107.271 146.154 105.453C150.975 107.271 155.865 109.55 160.708 112.361Z" fill="#1A1A1A" stroke="black" stroke-width="0.506899"/>
<path d="M131.094 144H128.617L128.633 142.172H131.094C131.708 142.172 132.227 142.034 132.648 141.758C133.07 141.477 133.388 141.068 133.602 140.531C133.82 139.995 133.93 139.346 133.93 138.586V138.031C133.93 137.448 133.867 136.935 133.742 136.492C133.622 136.049 133.443 135.677 133.203 135.375C132.964 135.073 132.669 134.846 132.32 134.695C131.971 134.539 131.57 134.461 131.117 134.461H128.57V132.625H131.117C131.878 132.625 132.573 132.755 133.203 133.016C133.839 133.271 134.388 133.638 134.852 134.117C135.315 134.596 135.672 135.169 135.922 135.836C136.177 136.497 136.305 137.234 136.305 138.047V138.586C136.305 139.393 136.177 140.13 135.922 140.797C135.672 141.464 135.315 142.036 134.852 142.516C134.393 142.99 133.844 143.357 133.203 143.617C132.568 143.872 131.865 144 131.094 144ZM129.945 132.625V144H127.602V132.625H129.945ZM142.461 134.57L139.367 144H136.875L141.102 132.625H142.688L142.461 134.57ZM145.031 144L141.93 134.57L141.68 132.625H143.281L147.531 144H145.031ZM144.891 139.766V141.602H138.883V139.766H144.891ZM152.703 132.625V144H150.367V132.625H152.703ZM156.203 132.625V134.461H146.922V132.625H156.203ZM161.32 134.57L158.227 144H155.734L159.961 132.625H161.547L161.32 134.57ZM163.891 144L160.789 134.57L160.539 132.625H162.141L166.391 144H163.891ZM163.75 139.766V141.602H157.742V139.766H163.75Z" fill="white"/>
<circle cx="184" cy="73" r="5.7" fill="#F4FCDE" style="mix-blend-mode:multiply"/>
<circle cx="184" cy="73" r="5.7" stroke="black" stroke-width="0.6"/>
</svg>
 