<svg width="1em" height="1em" viewBox="0 0 85 68" fill="none" xmlns="http://www.w3.org/2000/svg">
<g clip-path="url(#clip0_6135_140445)">
<path d="M33.6164 48.4473C33.6164 48.0458 34.0415 47.5734 34.7501 47.1719C34.8446 47.1246 35.2225 47.0774 35.4823 47.0302C35.813 46.9829 36.12 46.9593 36.309 46.8648C36.6633 46.6995 37.0176 46.4397 37.3482 46.1799C37.7262 45.8965 38.1041 45.613 38.3875 45.5658C38.7182 45.5185 39.2614 45.8019 39.5212 45.9909H39.5448C39.781 46.1326 39.9699 46.4869 40.0171 46.8884C40.0644 47.3372 39.9463 47.7624 39.6865 48.0222C39.4267 48.1875 37.4191 48.5182 36.8286 48.589C35.0572 48.8016 34.1833 48.8961 33.8762 48.9433C33.7581 48.8488 33.6164 48.7072 33.6164 48.471V48.4473Z" fill="white" stroke="#1A1A1A" stroke-width="0.484559" stroke-miterlimit="10"/>
<path d="M43.5602 47.8339C43.8437 47.9283 44.1271 48.259 44.2452 48.6133C44.3161 48.8259 44.3869 49.251 44.1035 49.6289C43.9382 49.7707 42.9462 50.125 42.4266 50.3139C41.7416 50.5737 41.4582 50.6682 41.3401 50.739C40.1355 51.5657 39.1199 51.7783 38.6711 51.6366C38.5294 51.5893 38.5058 51.5185 38.5058 51.4949C38.4585 51.2351 38.7656 50.6445 39.8284 49.747C40.0646 49.5344 40.3245 49.3455 40.5843 49.1565C40.9386 48.9203 41.1983 48.5661 41.4345 48.2591C41.6707 47.952 41.8833 47.6686 42.1195 47.5741C42.4974 47.4324 43.1115 47.6449 43.4422 47.7866L43.5839 47.8339H43.5602Z" fill="white" stroke="#1A1A1A" stroke-width="0.484559" stroke-miterlimit="10"/>
<path d="M42.7338 48.7065C43.4423 48.7065 44.0328 48.1396 44.0564 47.4074L44.3398 31.6771C44.3398 30.9449 43.773 30.3544 43.0408 30.3308C42.3322 30.3071 41.7181 30.8977 41.6945 31.6299L41.4111 47.3602C41.4111 48.0924 41.9779 48.6829 42.7101 48.7065C42.7101 48.7065 42.7101 48.7065 42.7338 48.7065Z" fill="#BFBFBF" stroke="#1A1A1A" stroke-width="0.484559" stroke-miterlimit="10"/>
<path d="M38.5477 47.5267C38.5477 47.5267 38.5714 47.5267 38.595 47.5267C39.3272 47.5031 39.894 46.889 39.8704 46.1568L39.2327 29.2927C39.2091 28.5605 38.595 27.9937 37.8628 28.0173C37.1306 28.0409 36.5637 28.655 36.5874 29.3872L37.225 46.2513C37.2487 46.9599 37.8391 47.5267 38.5477 47.5267Z" fill="#BFBFBF" stroke="#1A1A1A" stroke-width="0.484559" stroke-miterlimit="10"/>
<path d="M33.118 25.3242C33.118 25.3242 32.9763 25.3243 32.9054 25.277C32.3386 25.1117 32.0079 24.4976 32.1732 23.9071C32.5511 22.6789 34.4406 19.4903 34.5115 18.829C34.6768 17.2229 35.787 9.40494 35.787 9.33409C35.8106 8.71999 36.3302 8.27122 36.9443 8.29484C37.5348 8.31846 38.0071 8.83805 37.9835 9.45215C37.9835 9.78282 36.8498 17.3882 36.6845 19.0415C36.5664 20.128 34.5824 23.5056 34.2517 24.5448C34.0864 25.0408 33.614 25.3715 33.0943 25.3007L33.118 25.3242Z" fill="white" stroke="#1A1A1A" stroke-width="0.484559" stroke-miterlimit="10"/>
<path d="M32.8249 26.5535C32.8249 26.5535 32.6595 26.5535 32.565 26.5299C32.1163 26.3881 31.8565 25.9157 31.9745 25.467L32.4706 23.7664C32.6123 23.3176 33.0847 23.0578 33.5334 23.1759C33.9822 23.3176 34.242 23.79 34.1239 24.2388L33.6279 25.9394C33.5098 26.3173 33.1792 26.5535 32.8249 26.5535Z" fill="white" stroke="#1A1A1A" stroke-width="0.484559" stroke-miterlimit="10"/>
<path d="M42.4258 10.6558C42.4258 11.5297 40.2056 11.7659 39.3789 11.7659C38.5522 11.7659 37.3004 9.00248 37.3004 8.15219C37.3004 7.27828 38.2452 7.53807 39.0718 7.53807C39.8985 7.53807 42.4258 9.80553 42.4258 10.6558Z" fill="white" stroke="#1A1A1A" stroke-width="0.484559" stroke-miterlimit="10"/>
<path d="M43.2173 21.4289C45.2485 23.9798 45.4375 29.6247 45.4375 35.7421C45.4375 37.4899 42.1308 36.8522 38.6115 36.3089C36.1315 35.931 34.4073 34.2305 34.4073 32.7425C34.4073 26.2945 37.0763 21.4761 37.0763 18.2403C37.0763 15.0045 35.5411 14.5557 35.5411 12.1938C35.5411 10.8711 35.8245 9.3831 36.0843 8.34385C36.2497 7.63528 37.029 7.30461 37.6431 7.68252C37.6431 7.68252 37.1944 9.97356 39.0131 10.9892C40.8081 12.0048 42.6268 10.6586 42.6268 10.6586C43.6188 11.0601 44.2565 12.2174 44.2565 12.2174C43.7605 14.4849 41.8946 19.7756 43.2409 21.4525L43.2173 21.4289Z" fill="#BFBFBF" stroke="#1A1A1A" stroke-width="0.484559" stroke-miterlimit="10"/>
<path d="M45.6085 24.7803C45.3487 24.922 45.018 24.9456 44.7109 24.8275C44.1441 24.6149 43.8606 23.9772 44.0968 23.4104C44.8763 21.4027 45.5612 19.8675 45.5612 18.5212C45.5612 17.2457 44.1441 14.2461 43.2466 12.6637C42.9395 12.144 43.1285 11.4827 43.6717 11.1756C44.1913 10.8922 44.8763 11.0575 45.1597 11.6008C45.4195 12.0732 47.7578 16.2774 47.7342 18.5448C47.7342 20.7414 46.3407 23.6702 46.1045 24.237C46.01 24.4969 45.7974 24.7094 45.5848 24.8275L45.6085 24.7803Z" fill="white" stroke="#1A1A1A" stroke-width="0.484559" stroke-miterlimit="10"/>
<path d="M41.3157 7.75138C41.1739 6.47594 41.5519 4.65729 41.6227 3.64166C41.7172 2.64966 41.9062 0.972695 39.6387 0.760123C37.2768 0.523931 36.332 1.72848 36.3084 3.31096C36.2848 4.91707 36.9933 6.78305 37.5838 7.51524C38.1743 8.24744 39.4025 8.29464 39.4025 8.29464" fill="white"/>
<path d="M41.3157 7.75138C41.1739 6.47594 41.5519 4.65729 41.6227 3.64166C41.7172 2.64966 41.9062 0.972695 39.6387 0.760123C37.2768 0.523931 36.332 1.72848 36.3084 3.31096C36.2848 4.91707 36.9933 6.78305 37.5838 7.51524C38.1743 8.24744 39.4025 8.29464 39.4025 8.29464" stroke="#1A1A1A" stroke-width="0.484559" stroke-miterlimit="10"/>
<path d="M36.1187 3.28748C37.2288 4.77549 39.0948 3.99603 39.0948 3.99603C39.6616 5.67299 40.323 11.4125 41.5512 12.121C43.2518 13.113 44.5508 10.8456 44.5508 10.8456C44.5508 10.8456 42.5904 9.94804 42.4251 6.71222C42.2597 3.47639 43.1336 2.50806 41.5747 0.713C40.7953 -0.184528 39.2601 -0.0428134 38.4806 0.122521C36.0479 0.642143 35.6936 2.7206 36.1187 3.26384V3.28748Z" fill="#1A1A1A" stroke="#1A1A1A" stroke-width="0.484559" stroke-miterlimit="10"/>
<path d="M44.5991 26.3859C44.4574 26.4567 44.2921 26.4567 44.1504 26.3859C43.8669 26.2678 43.7489 25.9371 43.8906 25.6537L44.1504 24.6853C44.1504 24.6853 43.3237 24.9688 43.3473 24.6381C43.371 24.3074 44.2449 23.5752 45.2841 23.9295C45.5676 24.0239 45.8982 24.4491 45.7801 24.7089L44.8826 26.1025C44.8354 26.2206 44.7172 26.315 44.5991 26.3622V26.3859Z" fill="white" stroke="#1A1A1A" stroke-width="0.484559" stroke-miterlimit="10"/>
<path d="M76.4016 26.3395C76.7086 25.8199 77.0865 24.7806 76.5433 25.0168C75.3387 25.5601 73.8034 26.1741 73.331 26.9063C72.1737 28.725 70.544 31.0634 69.4811 32.0081C67.7097 33.5906 64.1196 35.0786 64.0724 35.1022C63.9306 35.1495 63.8361 35.2439 63.7417 35.3384C63.6472 35.3384 63.5527 35.3621 63.4819 35.4093L62.5371 35.8817C61.9702 36.1651 61.7813 36.85 62.1119 37.4405C62.1828 37.5586 62.2537 37.6531 62.3481 37.7476C62.7024 38.1019 63.2693 38.1963 63.6944 37.9837L64.6392 37.5114C64.8045 37.4406 64.9226 37.3225 65.0171 37.1807H65.0643C65.2297 37.1099 69.0324 35.5273 71.0636 33.7086C73.0712 31.9136 76.2835 26.5757 76.4016 26.3395Z" fill="white" stroke="#1A1A1A" stroke-width="0.484559" stroke-miterlimit="10"/>
<path d="M78.5053 63.6575L77.8203 53.0762H79.9697V63.6575H78.5053Z" fill="white" stroke="#1A1A1A" stroke-width="0.484559" stroke-miterlimit="10"/>
<path d="M71.8959 63.6575L71.2109 53.0762H73.3366V63.6575H71.8959Z" fill="white" stroke="#1A1A1A" stroke-width="0.484559" stroke-miterlimit="10"/>
<path d="M68.3182 65.4292C68.7906 65.7834 69.6645 65.7599 70.8218 65.382C71.1525 65.2639 71.6721 64.7915 72.05 64.6262C72.4515 64.4609 72.6641 64.6262 72.9712 64.4845C74.034 63.9649 74.6009 63.4924 74.1758 62.7838C74.1758 62.7838 73.8923 61.8155 73.6561 61.6974C73.1601 61.4612 72.8767 61.8155 71.9555 62.0989C71.5776 62.217 70.2077 63.3035 69.8298 63.4689C68.1056 64.2247 67.7041 65.004 68.2945 65.4528L68.3182 65.4292Z" fill="white" stroke="#1A1A1A" stroke-width="0.484559" stroke-miterlimit="10"/>
<path d="M76.2326 67.4847C76.823 67.6737 77.6025 67.4137 78.6417 66.6107C78.8779 66.4453 79.1377 65.7841 79.3975 65.5479C79.7518 65.2409 79.9408 65.3353 80.0825 64.9574C80.5076 63.8237 80.0825 62.5482 79.5392 62.3829C79.303 62.2884 78.0276 62.7844 77.7678 63.0678C77.2482 63.611 77.9568 64.4613 77.0356 65.288C75.6185 66.5398 75.524 67.2485 76.2326 67.4847Z" fill="white" stroke="#1A1A1A" stroke-width="0.484559" stroke-miterlimit="10"/>
<path d="M79.3811 27.0477C79.3811 28.4648 78.6489 29.6222 77.7278 29.6222C76.8066 29.6222 75.0352 28.8664 75.0352 27.4256C75.0352 25.9849 76.4759 23.3867 77.3971 23.3867C78.3182 23.3867 79.3811 25.6069 79.3811 27.0477Z" fill="white"/>
<path d="M80.3186 53.0521C80.4839 50.9027 80.7438 50.7846 80.8382 49.8163C80.98 48.3046 81.0981 45.5884 81.5232 43.0139C81.9247 41.9511 81.8539 39.5655 80.6257 38.1484C77.5552 34.6764 74.8862 36.8257 74.8862 36.8257L73.9415 39.8727C73.0912 42.3055 71.3434 47.4308 71.0363 49.4148C70.6348 51.9656 70.8001 52.1309 70.8474 53.1701C70.871 53.9732 71.1072 54.3511 71.8866 54.3511C71.8866 54.3511 72.359 54.5874 72.3826 54.5874C73.2093 54.5638 73.847 53.8551 73.7998 53.0521C73.6817 50.3595 73.6581 51.8003 73.9651 49.8872C74.1777 48.6354 75.7838 45.8955 76.6577 43.2973L77.319 43.6753C77.2009 46.7222 77.1537 50.3359 77.2009 51.4933C77.2954 53.8552 77.2009 52.627 77.4135 53.5245C77.508 53.9024 78.3583 54.3984 78.7362 54.3984C78.7362 54.3984 80.2241 54.3984 80.3186 53.0521Z" fill="#BFBFBF" stroke="#1A1A1A" stroke-width="0.484559" stroke-miterlimit="10"/>
<path d="M78.3356 39.3767L75.4305 37.676C75.4305 37.676 74.4621 36.2117 74.3204 34.0387C74.1314 31.2989 73.3047 31.8894 73.3047 30.8265C73.3047 28.2757 74.5093 25.2996 75.1234 25.6539L75.5013 25.583C75.5013 25.583 74.5093 28.9134 76.2335 29.6219C77.9813 30.3305 80.4377 27.142 80.4377 27.142C81.0991 27.5199 82.2092 27.6615 82.2092 28.441L80.4849 38.2901C80.3668 39.3294 79.2331 39.8963 78.3356 39.3767Z" fill="#1A1A1A" stroke="#1A1A1A" stroke-width="0.484559" stroke-miterlimit="10"/>
<path d="M80.4696 27.1419L79.5956 26.7167L80.1389 23.8351C80.2098 23.1738 80.3042 21.7331 80.2806 20.3632C80.2806 19.1586 79.8319 17.4344 78.0132 17.2927C76.1945 17.151 74.4703 18.3319 74.5412 20.3395C74.612 22.3472 75.1789 25.8192 76.0292 25.5594C77.0212 25.2524 77.2337 25.0634 77.2337 25.0634" fill="white"/>
<path d="M80.4696 27.1419L79.5956 26.7167L80.1389 23.8351C80.2098 23.1738 80.3042 21.7331 80.2806 20.3632C80.2806 19.1586 79.8319 17.4344 78.0132 17.2927C76.1945 17.151 74.4703 18.3319 74.5412 20.3395C74.612 22.3472 75.1789 25.8192 76.0292 25.5594C77.0212 25.2524 77.2337 25.0634 77.2337 25.0634" stroke="#1A1A1A" stroke-width="0.484559" stroke-miterlimit="10"/>
<path d="M81.529 25.1821C81.529 25.1821 81.0566 25.8199 80.2535 25.938C79.4505 26.0561 79.0489 25.6545 78.6238 25.4419C77.1122 24.757 78.364 25.0641 79.2143 23.7178C80.0646 22.3715 79.3561 22.0644 79.3561 22.0644L78.5529 22.3715C78.4821 21.6629 78.1751 19.7734 77.868 19.7734C77.0414 19.7734 75.695 22.7966 74.207 21.4739V20.293C74.207 20.293 74.3488 19.3483 74.5849 18.7578C74.7739 18.309 75.3644 17.2225 77.0414 17.0335C78.553 16.8682 79.1435 17.3169 80.0646 18.3325C80.7968 19.112 81.0094 20.5055 81.2692 22.2297L81.529 25.1821Z" fill="#1A1A1A" stroke="#1A1A1A" stroke-width="0.484559" stroke-miterlimit="10"/>
<path d="M79.4555 45.1873C79.3138 45.1873 79.1721 45.14 79.0303 45.0691C78.4635 44.8093 78.2273 44.148 78.5107 43.6047C78.5107 43.5811 80.353 40.1091 80.7073 37.7709C80.9199 36.3773 80.6837 33.5194 80.4239 31.3936C80.3294 30.5434 81.1088 29.079 81.6993 27.8981C81.9591 27.3548 82.337 28.4176 82.4315 29.0081C82.4788 29.2679 83.3999 35.4326 82.9984 38.1016C82.5968 40.7941 80.6601 44.4315 80.5656 44.5732C80.353 44.9747 79.9042 45.1873 79.4555 45.1637V45.1873Z" fill="white" stroke="#2E2E2E" stroke-width="0.484559" stroke-miterlimit="10"/>
<path d="M78.8135 46.7705C78.6954 46.7705 78.5537 46.7232 78.4356 46.6759C77.8215 46.4397 77.5381 45.7785 77.7743 45.1881L78.1994 44.2432C78.4592 43.6764 79.1678 43.3929 79.7819 43.6528C80.396 43.8889 80.6795 44.5503 80.4433 45.1408L80.0181 46.0855C79.8056 46.5342 79.3332 46.7941 78.8135 46.7705Z" fill="white" stroke="#1A1A1A" stroke-width="0.484559" stroke-miterlimit="10"/>
<path d="M17.1191 52.8048C16.3318 53.2619 14.4777 53.4905 12.3951 51.8905C10.795 50.6459 10.5664 50.138 10.5664 49.2744C10.5664 47.5982 13.5126 47.3441 14.4778 49.122C15.3667 50.7729 18.643 51.9412 17.1191 52.8048Z" fill="#1A1A1A" stroke="#1A1A1A" stroke-width="0.569447" stroke-miterlimit="10"/>
<path d="M5.93199 54.3535C5.27163 54.8869 3.74777 54.7852 2.07148 53.6677C0.776175 52.8042 -0.417566 50.3151 0.141195 49.6802C1.89367 47.6737 3.67156 48.8674 4.20493 50.8231C4.83988 53.2105 7.32889 53.2614 5.93199 54.3535Z" fill="#1A1A1A" stroke="#1A1A1A" stroke-width="0.569447" stroke-miterlimit="10"/>
<path d="M10.1215 15.1407L3.21313 28.3223C3.21313 28.3223 2.1972 27.7889 0.901886 25.8841C-0.393423 23.9792 -0.266423 13.185 1.30827 12.0928C2.88296 11.0261 7.32763 8.53711 7.32763 8.53711L10.1215 15.1407Z" fill="white" stroke="#1A1A1A" stroke-width="0.569447" stroke-miterlimit="10"/>
<path d="M16.2708 21.235C18.1248 21.235 20.7663 20.9302 23.5093 19.6349C24.1442 19.3301 24.3982 18.5936 24.1188 17.9586C23.814 17.3237 23.0775 17.0697 22.4425 17.3491C19.4201 18.7714 16.5247 18.7714 15.1278 18.6698L14.1881 10.2375C14.1119 9.55179 13.4261 8.68828 12.7404 8.76448C12.7404 8.76448 11.6228 9.83121 11.699 10.517L12.7404 19.9397C12.7912 20.473 13.1976 20.9302 13.7309 21.0318C13.8071 21.0318 14.7976 21.235 16.2961 21.235H16.2708Z" fill="#BFBFBF" stroke="#1A1A1A" stroke-width="0.569447" stroke-miterlimit="10"/>
<path d="M6.15824 12.3214C6.15824 12.3214 7.32656 9.45141 7.19957 8.25769C7.07258 7.03858 7.19955 2.74628 8.36787 1.98433C10.5013 0.663622 13.4729 2.16214 13.4729 4.067C13.4729 5.97187 12.9141 9.4768 11.8474 9.83237C10.8061 10.2133 10.0188 15.6486 10.0188 15.6486L6.13281 12.3468L6.15824 12.3214Z" fill="white" stroke="#1A1A1A" stroke-width="0.569447" stroke-miterlimit="10"/>
<path d="M13.4778 4.04032C13.4778 4.04032 12.538 2.23709 10.8363 4.87851C10.176 5.91984 10.2522 6.12299 9.82042 6.19919C9.38865 6.27538 8.7029 4.42132 8.39812 6.04681C8.14414 7.36751 8.44891 8.58662 7.50917 8.73901C6.59484 8.8914 5.47734 6.91039 5.70592 5.61508C5.9345 4.31977 7.10282 1.37353 8.8807 1.11954C10.8618 0.840163 12.8428 0.789404 13.5032 4.01498L13.4778 4.04032Z" fill="#1A1A1A" stroke="#1A1A1A" stroke-width="0.569447" stroke-miterlimit="10"/>
<path d="M6.16459 12.3193C6.16459 12.3193 3.85337 14.4274 3.80258 15.1131C3.75178 15.7989 2.53268 27.9138 4.05657 28.8027C5.58047 29.6917 9.21243 28.0154 11.2951 26.6439C12.8952 25.5772 13.1745 23.6977 12.8443 22.3262C11.549 16.5354 13.5047 9.52548 13.5047 9.52548C13.5047 9.52548 13.2761 9.11915 12.6412 9.09375C12.2094 9.09375 12.7428 9.3731 11.9046 9.85567C11.9046 9.85567 10.8379 9.88108 10.8633 10.1859C10.8887 10.7954 10.7617 11.8114 9.72033 12.4971C8.14564 13.4876 6.21544 12.3701 6.21544 12.3701L6.16459 12.3193Z" fill="#BFBFBF" stroke="#1A1A1A" stroke-width="0.569447" stroke-miterlimit="10"/>
<path d="M12.4997 19.8127C13.4648 18.2888 13.8712 17.2221 13.8712 15.5204C13.8712 13.0568 13.1601 10.5423 11.6362 10.0344C11.306 9.93279 10.9504 10.1106 10.8488 10.4408C10.7472 10.7709 10.925 11.1265 11.2552 11.2281C12.3981 11.6091 12.6267 13.7425 12.6267 15.5204C12.6267 16.1808 12.5505 16.2569 12.3727 16.9427L12.5251 19.7873L12.4997 19.8127Z" fill="white" stroke="#1A1A1A" stroke-width="0.569447" stroke-miterlimit="10"/>
<path d="M1.23572 48.5129C1.23572 48.5129 4.33435 43.4333 4.53754 38.9886C4.76612 34.1376 3.14064 32.512 3.26763 29.3627C3.39462 26.6959 7.61066 28.1182 10.5061 26.4927C11.4204 25.9848 12.7158 24.791 12.7158 24.791C13.0967 26.5689 14.9254 35.636 14.6714 38.252C14.4936 40.1823 14.5952 46.0747 14.6714 48.1828C14.6968 49.2241 13.8841 50.0877 12.8427 50.1131C12.8427 50.1131 12.8174 50.1131 12.792 50.1131C11.776 50.1131 10.9378 49.3003 10.9124 48.2844C10.9124 47.9542 10.7093 40.4363 10.9379 37.8711C11.0395 36.8552 10.3283 32.1819 10.0998 31.1406C9.87117 30.0992 8.39804 30.912 8.39804 31.9025C8.39804 32.893 8.47424 36.2202 8.32185 39.141C8.06786 44.5762 4.61374 50.2146 4.46135 50.4686C4.10577 51.0527 3.4962 51.3575 2.86125 51.3575C2.53107 51.3575 2.17546 51.256 1.87068 51.0782C0.981741 50.5448 0.702385 49.3765 1.26115 48.4875L1.23572 48.5129Z" fill="white" stroke="#2E2E2E" stroke-width="0.569447" stroke-miterlimit="10"/>
<path d="M22.1768 18.339C22.0752 18.1612 21.9991 17.958 22.0245 17.7295C22.1768 16.4595 23.015 15.342 24.4119 14.6054C24.8691 14.3515 25.4532 14.5547 25.6818 14.9865C25.9358 15.4437 25.758 16.0278 25.3008 16.2564C24.7167 16.5612 23.9801 17.1199 23.9039 17.9326C23.8531 18.4406 23.3706 18.8216 22.8626 18.7708C22.5579 18.7454 22.3292 18.5676 22.1768 18.339Z" fill="white"/>
<path d="M21.9306 18.517C21.7782 18.263 21.7021 17.9836 21.7275 17.7042C21.8799 16.3327 22.7942 15.1136 24.2927 14.3263C24.9023 13.9961 25.6642 14.2247 25.9944 14.8596C26.3245 15.4692 26.096 16.2312 25.461 16.5614C24.9276 16.8407 24.2927 17.2979 24.2165 17.9837C24.1911 18.3138 24.0133 18.6186 23.7593 18.8218C23.5053 19.0249 23.1752 19.1266 22.845 19.1012C22.464 19.0504 22.1338 18.8472 21.9306 18.5424V18.517Z" fill="white" stroke="#1A1A1A" stroke-width="0.569447" stroke-miterlimit="10"/>
<path d="M5.5277 34.543C5.68009 34.543 5.85789 34.5175 6.01028 34.4414C6.64523 34.1874 6.94998 33.4508 6.696 32.7905C6.696 32.7397 4.96892 28.5744 4.79113 25.8314C4.66414 24.1805 5.17215 20.9041 5.62932 18.4405C5.80711 17.45 5.07058 15.6975 4.53721 14.2752C4.28323 13.6402 3.80065 14.8339 3.64826 15.4943C3.57207 15.7991 2.07355 22.8852 2.27673 26.0092C2.50532 29.1586 4.30864 33.5778 4.38483 33.7556C4.58802 34.2382 5.04516 34.543 5.55313 34.543H5.5277Z" fill="#BFBFBF" stroke="#1A1A1A" stroke-width="0.569447" stroke-miterlimit="10"/>
<path d="M6.07862 36.424C6.20561 36.424 6.35801 36.424 6.485 36.3478C7.17076 36.1192 7.55169 35.3827 7.32311 34.6969L6.94215 33.554C6.71357 32.8683 5.97704 32.4873 5.29128 32.7159C4.60553 32.9444 4.22459 33.681 4.45318 34.3667L4.83413 35.5097C5.01192 36.0684 5.51986 36.3986 6.07862 36.3986V36.424Z" fill="white" stroke="#1A1A1A" stroke-width="0.569447" stroke-miterlimit="10"/>
<path d="M4.93904 23.4205C5.11683 23.4205 5.2692 23.3444 5.39619 23.2174C6.86929 21.5919 7.88517 19.0521 7.88517 16.8678C7.88517 14.6836 6.25968 12.5502 4.71039 12.0422C4.38021 11.9406 4.02465 12.1184 3.92305 12.4486C3.82146 12.7788 3.99926 13.1343 4.32943 13.2359C5.47235 13.6169 6.64068 15.09 6.64068 16.8933C6.64068 18.6965 5.77713 20.9823 4.48182 22.3792C4.25323 22.6332 4.25328 23.0396 4.53266 23.2682C4.65965 23.3698 4.812 23.446 4.96439 23.446L4.93904 23.4205Z" fill="white" stroke="#1A1A1A" stroke-width="0.569447" stroke-miterlimit="10"/>
</g>
<defs>
<clipPath id="clip0_6135_140445">
<rect width="84.3353" height="68" fill="white"/>
</clipPath>
</defs>
</svg>
