<svg width="1em" height="1em" viewBox="0 0 436 304" fill="none" xmlns="http://www.w3.org/2000/svg">
<path d="M355.451 162.565C357.611 163.808 357.621 165.813 355.471 167.046L221.795 244.218C219.655 245.461 216.165 245.461 214.005 244.218L79.4591 167.046C77.2989 165.803 77.2889 163.798 79.4291 162.565L213.104 85.3822C215.255 84.1392 218.735 84.1392 220.895 85.3822L355.441 162.555L355.451 162.565Z" fill="white"/>
<path d="M355.871 162.485C358.031 163.728 358.041 165.733 355.891 166.966L222.216 244.138C220.075 245.381 216.585 245.381 214.425 244.138L79.8792 166.966C77.7189 165.723 77.7089 163.718 79.8492 162.485L213.525 85.3021C215.675 84.0591 219.155 84.0591 221.315 85.3021L355.861 162.475L355.871 162.485Z" stroke="black" stroke-width="0.4" stroke-miterlimit="10"/>
<path d="M355.971 166.996L222.296 244.178L222.276 250.984L355.951 173.812C357.011 173.2 357.551 172.388 357.551 171.586L357.571 164.78C357.571 165.582 357.031 166.394 355.971 167.006" fill="black"/>
<path d="M355.971 166.996L222.296 244.178L222.276 250.984L355.951 173.812C357.011 173.2 357.551 172.388 357.551 171.586L357.571 164.78C357.571 165.582 357.031 166.394 355.971 167.006V166.996Z" stroke="black" stroke-width="0.4" stroke-miterlimit="10"/>
<path d="M214.505 244.138L79.9592 166.966V166.996C79.8892 166.955 79.8192 166.905 79.7492 166.865C79.7292 166.855 79.7092 166.835 79.6792 166.825C79.6391 166.795 79.5891 166.765 79.5491 166.735C79.5191 166.715 79.4991 166.695 79.4791 166.685C79.4391 166.655 79.3991 166.625 79.3691 166.595C79.3491 166.575 79.3191 166.555 79.2991 166.534C79.2591 166.504 79.2291 166.474 79.1991 166.444C79.1791 166.424 79.1491 166.404 79.1291 166.374C79.1191 166.364 79.0991 166.344 79.0891 166.334C79.0591 166.304 79.0291 166.274 78.9991 166.244C78.9891 166.234 78.9791 166.224 78.9691 166.214C78.9291 166.174 78.8991 166.134 78.8591 166.083C78.8591 166.083 78.8491 166.063 78.8391 166.063C78.8091 166.033 78.7891 166.003 78.7691 165.963C78.729 165.903 78.689 165.843 78.649 165.793C78.619 165.733 78.589 165.682 78.559 165.622C78.559 165.602 78.539 165.582 78.539 165.572C78.519 165.532 78.499 165.492 78.489 165.452C78.489 165.432 78.469 165.412 78.469 165.392C78.449 165.342 78.439 165.302 78.429 165.251C78.429 165.241 78.429 165.221 78.419 165.211C78.399 165.151 78.389 165.091 78.379 165.031C78.379 165.011 78.379 165.001 78.379 164.981C78.379 164.941 78.369 164.891 78.369 164.85C78.369 164.81 78.369 164.78 78.369 164.74L78.349 171.546C78.349 171.546 78.349 171.606 78.349 171.627C78.349 171.627 78.349 171.647 78.349 171.657C78.349 171.697 78.349 171.747 78.359 171.787C78.359 171.797 78.359 171.817 78.359 171.837C78.359 171.897 78.379 171.957 78.399 172.017C78.399 172.027 78.399 172.038 78.399 172.048C78.409 172.098 78.429 172.138 78.439 172.188C78.439 172.208 78.449 172.228 78.459 172.248C78.479 172.288 78.489 172.328 78.509 172.368C78.509 172.378 78.509 172.388 78.529 172.408C78.529 172.408 78.529 172.418 78.539 172.428C78.569 172.489 78.599 172.539 78.629 172.599C78.669 172.659 78.699 172.719 78.749 172.769C78.749 172.769 78.749 172.779 78.759 172.789C78.7791 172.819 78.7991 172.839 78.8191 172.869C78.8191 172.869 78.8291 172.89 78.8391 172.89C78.8791 172.93 78.9091 172.97 78.9491 173.02C78.9591 173.03 78.9691 173.04 78.9791 173.05C79.0091 173.08 79.0391 173.11 79.0691 173.14C79.0791 173.15 79.0991 173.17 79.1091 173.18C79.1191 173.19 79.1291 173.2 79.1391 173.21C79.1491 173.22 79.1691 173.23 79.1791 173.24C79.2091 173.27 79.2491 173.301 79.2791 173.331C79.2991 173.351 79.3291 173.371 79.3491 173.391C79.3891 173.421 79.4191 173.451 79.4591 173.481C79.4791 173.501 79.5091 173.521 79.5291 173.531C79.5691 173.561 79.6191 173.591 79.6592 173.621C79.6792 173.631 79.6992 173.651 79.7192 173.661C79.7892 173.701 79.8592 173.752 79.9292 173.792V173.762L214.475 250.934L214.495 244.128L214.505 244.138Z" fill="white"/>
<path d="M214.505 244.138L79.9592 166.966V166.996C79.8892 166.955 79.8192 166.905 79.7492 166.865C79.7292 166.855 79.7092 166.835 79.6792 166.825C79.6391 166.795 79.5891 166.765 79.5491 166.735C79.5191 166.715 79.4991 166.695 79.4791 166.685C79.4391 166.655 79.3991 166.625 79.3691 166.595C79.3491 166.575 79.3191 166.555 79.2991 166.534C79.2591 166.504 79.2291 166.474 79.1991 166.444C79.1791 166.424 79.1491 166.404 79.1291 166.374C79.1191 166.364 79.0991 166.344 79.0891 166.334C79.0591 166.304 79.0291 166.274 78.9991 166.244C78.9891 166.234 78.9791 166.224 78.9691 166.214C78.9291 166.174 78.8991 166.134 78.8591 166.083C78.8591 166.083 78.8491 166.063 78.8391 166.063C78.8091 166.033 78.7891 166.003 78.7691 165.963C78.729 165.903 78.689 165.843 78.649 165.793C78.619 165.733 78.589 165.682 78.559 165.622C78.559 165.602 78.539 165.582 78.539 165.572C78.519 165.532 78.499 165.492 78.489 165.452C78.489 165.432 78.469 165.412 78.469 165.392C78.449 165.342 78.439 165.302 78.429 165.251C78.429 165.241 78.429 165.221 78.419 165.211C78.399 165.151 78.389 165.091 78.379 165.031C78.379 165.011 78.379 165.001 78.379 164.981C78.379 164.941 78.369 164.891 78.369 164.85C78.369 164.81 78.369 164.78 78.369 164.74L78.349 171.546C78.349 171.546 78.349 171.606 78.349 171.627C78.349 171.627 78.349 171.647 78.349 171.657C78.349 171.697 78.349 171.747 78.359 171.787C78.359 171.797 78.359 171.817 78.359 171.837C78.359 171.897 78.379 171.957 78.399 172.017C78.399 172.027 78.399 172.038 78.399 172.048C78.409 172.098 78.429 172.138 78.439 172.188C78.439 172.208 78.449 172.228 78.459 172.248C78.479 172.288 78.489 172.328 78.509 172.368C78.509 172.378 78.509 172.388 78.529 172.408C78.529 172.408 78.529 172.418 78.539 172.428C78.569 172.489 78.599 172.539 78.629 172.599C78.669 172.659 78.699 172.719 78.749 172.769C78.749 172.769 78.749 172.779 78.759 172.789C78.7791 172.819 78.7991 172.839 78.8191 172.869C78.8191 172.869 78.8291 172.89 78.8391 172.89C78.8791 172.93 78.9091 172.97 78.9491 173.02C78.9591 173.03 78.9691 173.04 78.9791 173.05C79.0091 173.08 79.0391 173.11 79.0691 173.14C79.0791 173.15 79.0991 173.17 79.1091 173.18C79.1191 173.19 79.1291 173.2 79.1391 173.21C79.1491 173.22 79.1691 173.23 79.1791 173.24C79.2091 173.27 79.2491 173.301 79.2791 173.331C79.2991 173.351 79.3291 173.371 79.3491 173.391C79.3891 173.421 79.4191 173.451 79.4591 173.481C79.4791 173.501 79.5091 173.521 79.5291 173.531C79.5691 173.561 79.6191 173.591 79.6592 173.621C79.6792 173.631 79.6992 173.651 79.7192 173.661C79.7892 173.701 79.8592 173.752 79.9292 173.792V173.762L214.475 250.934L214.495 244.128L214.505 244.138Z" fill="#1F8DF2" stroke="black" stroke-width="0.4" stroke-miterlimit="10"/>
<path d="M221.775 251.195C221.775 251.195 221.835 251.165 221.865 251.155C221.915 251.135 221.955 251.105 222.005 251.085C222.025 251.075 222.055 251.065 222.075 251.045C222.145 251.014 222.215 250.974 222.275 250.934L222.295 244.128C222.225 244.168 222.165 244.198 222.095 244.238C222.075 244.248 222.045 244.258 222.025 244.269C221.975 244.289 221.935 244.319 221.885 244.339C221.855 244.349 221.825 244.369 221.795 244.379C221.755 244.399 221.705 244.419 221.665 244.439C221.635 244.449 221.605 244.469 221.565 244.479C221.525 244.499 221.485 244.509 221.445 244.529C221.335 244.569 221.225 244.609 221.115 244.649C221.095 244.649 221.065 244.669 221.045 244.669C220.935 244.71 220.825 244.74 220.705 244.77C220.685 244.77 220.665 244.77 220.645 244.79C220.565 244.81 220.485 244.83 220.405 244.85C220.375 244.85 220.345 244.86 220.315 244.87C220.225 244.89 220.145 244.91 220.055 244.92C220.035 244.92 220.025 244.92 220.005 244.93C219.905 244.95 219.805 244.96 219.705 244.97C219.675 244.97 219.655 244.97 219.625 244.98C219.555 244.98 219.475 245 219.405 245.01C219.375 245.01 219.335 245.01 219.305 245.01C219.235 245.01 219.155 245.02 219.085 245.03C219.055 245.03 219.025 245.03 218.995 245.03C218.895 245.03 218.795 245.04 218.685 245.04H218.655C218.555 245.04 218.455 245.04 218.365 245.04C218.335 245.04 218.305 245.04 218.265 245.04C218.185 245.04 218.095 245.04 218.015 245.04C217.985 245.04 217.965 245.04 217.935 245.04C217.815 245.04 217.695 245.03 217.575 245.01C217.545 245.01 217.525 245.01 217.495 245.01C217.375 245 217.265 244.99 217.145 244.97H217.125C217.025 244.96 216.935 244.94 216.835 244.92C216.805 244.92 216.775 244.92 216.755 244.9C216.685 244.89 216.615 244.88 216.555 244.86C216.525 244.86 216.485 244.85 216.455 244.84C216.395 244.83 216.335 244.81 216.275 244.8C216.245 244.8 216.205 244.78 216.175 244.78C216.105 244.76 216.045 244.75 215.985 244.73C215.955 244.73 215.935 244.72 215.905 244.71C215.795 244.679 215.695 244.639 215.585 244.609C215.555 244.609 215.535 244.589 215.515 244.579C215.425 244.549 215.325 244.509 215.235 244.469C215.225 244.469 215.215 244.459 215.195 244.449C215.095 244.409 214.995 244.359 214.895 244.319C214.875 244.309 214.845 244.299 214.825 244.289C214.735 244.238 214.635 244.188 214.545 244.138C214.545 244.138 214.545 244.138 214.535 244.138L214.515 250.944C214.605 250.994 214.695 251.045 214.795 251.095C214.815 251.105 214.845 251.115 214.865 251.125C214.965 251.175 215.065 251.215 215.165 251.255C215.175 251.255 215.185 251.255 215.205 251.265C215.295 251.305 215.395 251.335 215.485 251.375C215.505 251.375 215.535 251.395 215.555 251.395C215.655 251.435 215.765 251.466 215.875 251.496C215.875 251.496 215.875 251.496 215.895 251.496C215.915 251.496 215.935 251.506 215.955 251.516C216.025 251.536 216.085 251.556 216.155 251.566C216.185 251.566 216.225 251.586 216.255 251.596C216.315 251.606 216.375 251.626 216.435 251.636C216.465 251.636 216.505 251.646 216.535 251.656C216.605 251.666 216.675 251.686 216.735 251.696C216.765 251.696 216.795 251.706 216.815 251.706C216.915 251.726 217.005 251.736 217.105 251.746C217.105 251.746 217.115 251.746 217.125 251.746C217.235 251.766 217.355 251.776 217.475 251.786C217.505 251.786 217.525 251.786 217.555 251.786C217.675 251.796 217.795 251.806 217.915 251.816C217.915 251.816 217.925 251.816 217.935 251.816C217.955 251.816 217.975 251.816 217.995 251.816C218.075 251.816 218.165 251.816 218.245 251.816C218.275 251.816 218.305 251.816 218.345 251.816C218.445 251.816 218.545 251.816 218.635 251.816H218.665C218.765 251.816 218.875 251.816 218.975 251.806C219.005 251.806 219.035 251.806 219.065 251.806C219.135 251.806 219.215 251.796 219.285 251.786C219.305 251.786 219.325 251.786 219.335 251.786C219.355 251.786 219.365 251.786 219.385 251.786C219.455 251.786 219.535 251.766 219.615 251.756C219.645 251.756 219.665 251.756 219.695 251.756C219.795 251.746 219.895 251.726 219.995 251.706C219.995 251.706 219.995 251.706 220.005 251.706C220.015 251.706 220.035 251.706 220.045 251.706C220.135 251.696 220.225 251.676 220.305 251.656C220.335 251.656 220.365 251.646 220.395 251.636C220.475 251.616 220.555 251.596 220.635 251.576C220.655 251.576 220.665 251.576 220.685 251.566C220.685 251.566 220.695 251.566 220.705 251.566C220.815 251.536 220.935 251.506 221.045 251.466C221.075 251.466 221.095 251.456 221.115 251.446C221.225 251.405 221.335 251.375 221.445 251.325C221.485 251.315 221.525 251.295 221.565 251.275C221.595 251.265 221.635 251.245 221.665 251.235C221.705 251.215 221.755 251.195 221.795 251.175" fill="#1F8DF2"/>
<path d="M221.775 251.195C221.775 251.195 221.835 251.165 221.865 251.155C221.915 251.135 221.955 251.105 222.005 251.085C222.025 251.075 222.055 251.065 222.075 251.045C222.145 251.014 222.215 250.974 222.275 250.934L222.295 244.128C222.225 244.168 222.165 244.198 222.095 244.238C222.075 244.248 222.045 244.258 222.025 244.269C221.975 244.289 221.935 244.319 221.885 244.339C221.855 244.349 221.825 244.369 221.795 244.379C221.755 244.399 221.705 244.419 221.665 244.439C221.635 244.449 221.605 244.469 221.565 244.479C221.525 244.499 221.485 244.509 221.445 244.529C221.335 244.569 221.225 244.609 221.115 244.649C221.095 244.649 221.065 244.669 221.045 244.669C220.935 244.71 220.825 244.74 220.705 244.77C220.685 244.77 220.665 244.77 220.645 244.79C220.565 244.81 220.485 244.83 220.405 244.85C220.375 244.85 220.345 244.86 220.315 244.87C220.225 244.89 220.145 244.91 220.055 244.92C220.035 244.92 220.025 244.92 220.005 244.93C219.905 244.95 219.805 244.96 219.705 244.97C219.675 244.97 219.655 244.97 219.625 244.98C219.555 244.98 219.475 245 219.405 245.01C219.375 245.01 219.335 245.01 219.305 245.01C219.235 245.01 219.155 245.02 219.085 245.03C219.055 245.03 219.025 245.03 218.995 245.03C218.895 245.03 218.795 245.04 218.685 245.04H218.655C218.555 245.04 218.455 245.04 218.365 245.04C218.335 245.04 218.305 245.04 218.265 245.04C218.185 245.04 218.095 245.04 218.015 245.04C217.985 245.04 217.965 245.04 217.935 245.04C217.815 245.04 217.695 245.03 217.575 245.01C217.545 245.01 217.525 245.01 217.495 245.01C217.375 245 217.265 244.99 217.145 244.97H217.125C217.025 244.96 216.935 244.94 216.835 244.92C216.805 244.92 216.775 244.92 216.755 244.9C216.685 244.89 216.615 244.88 216.555 244.86C216.525 244.86 216.485 244.85 216.455 244.84C216.395 244.83 216.335 244.81 216.275 244.8C216.245 244.8 216.205 244.78 216.175 244.78C216.105 244.76 216.045 244.75 215.985 244.73C215.955 244.73 215.935 244.72 215.905 244.71C215.795 244.679 215.695 244.639 215.585 244.609C215.555 244.609 215.535 244.589 215.515 244.579C215.425 244.549 215.325 244.509 215.235 244.469C215.225 244.469 215.215 244.459 215.195 244.449C215.095 244.409 214.995 244.359 214.895 244.319C214.875 244.309 214.845 244.299 214.825 244.289C214.735 244.238 214.635 244.188 214.545 244.138C214.545 244.138 214.545 244.138 214.535 244.138L214.515 250.944C214.605 250.994 214.695 251.045 214.795 251.095C214.815 251.105 214.845 251.115 214.865 251.125C214.965 251.175 215.065 251.215 215.165 251.255C215.175 251.255 215.185 251.255 215.205 251.265C215.295 251.305 215.395 251.335 215.485 251.375C215.505 251.375 215.535 251.395 215.555 251.395C215.655 251.435 215.765 251.466 215.875 251.496C215.875 251.496 215.875 251.496 215.895 251.496C215.915 251.496 215.935 251.506 215.955 251.516C216.025 251.536 216.085 251.556 216.155 251.566C216.185 251.566 216.225 251.586 216.255 251.596C216.315 251.606 216.375 251.626 216.435 251.636C216.465 251.636 216.505 251.646 216.535 251.656C216.605 251.666 216.675 251.686 216.735 251.696C216.765 251.696 216.795 251.706 216.815 251.706C216.915 251.726 217.005 251.736 217.105 251.746C217.105 251.746 217.115 251.746 217.125 251.746C217.235 251.766 217.355 251.776 217.475 251.786C217.505 251.786 217.525 251.786 217.555 251.786C217.675 251.796 217.795 251.806 217.915 251.816C217.915 251.816 217.925 251.816 217.935 251.816C217.955 251.816 217.975 251.816 217.995 251.816C218.075 251.816 218.165 251.816 218.245 251.816C218.275 251.816 218.305 251.816 218.345 251.816C218.445 251.816 218.545 251.816 218.635 251.816H218.665C218.765 251.816 218.875 251.816 218.975 251.806C219.005 251.806 219.035 251.806 219.065 251.806C219.135 251.806 219.215 251.796 219.285 251.786C219.305 251.786 219.325 251.786 219.335 251.786C219.355 251.786 219.365 251.786 219.385 251.786C219.455 251.786 219.535 251.766 219.615 251.756C219.645 251.756 219.665 251.756 219.695 251.756C219.795 251.746 219.895 251.726 219.995 251.706C219.995 251.706 219.995 251.706 220.005 251.706C220.015 251.706 220.035 251.706 220.045 251.706C220.135 251.696 220.225 251.676 220.305 251.656C220.335 251.656 220.365 251.646 220.395 251.636C220.475 251.616 220.555 251.596 220.635 251.576C220.655 251.576 220.665 251.576 220.685 251.566C220.685 251.566 220.695 251.566 220.705 251.566C220.815 251.536 220.935 251.506 221.045 251.466C221.075 251.466 221.095 251.456 221.115 251.446C221.225 251.405 221.335 251.375 221.445 251.325C221.485 251.315 221.525 251.295 221.565 251.275C221.595 251.265 221.635 251.245 221.665 251.235C221.705 251.215 221.755 251.195 221.795 251.175L221.775 251.195Z" stroke="black" stroke-width="0.4" stroke-miterlimit="10"/>
<path d="M220.345 221.344L315.166 166.113C316.576 165.291 316.566 163.958 315.146 163.126L219.715 107.906C218.295 107.084 215.995 107.084 214.585 107.906L119.764 163.136C118.354 163.958 118.364 165.291 119.784 166.113L215.215 221.334C216.635 222.156 218.945 222.156 220.355 221.334" stroke="black" stroke-width="0.4" stroke-miterlimit="10"/>
<path d="M314.586 166.444L315.736 165.692L316.126 165.171L316.216 164.64C316.216 164.099 315.856 163.547 315.146 163.136L219.715 107.916C219.555 107.825 219.375 107.735 219.195 107.665C219.185 107.665 219.175 107.665 219.165 107.655C219.135 107.645 219.105 107.635 219.075 107.625C218.975 107.585 218.865 107.545 218.755 107.515C218.695 107.495 218.635 107.485 218.565 107.464C218.535 107.464 218.495 107.444 218.465 107.434C218.435 107.434 218.405 107.414 218.375 107.414C218.255 107.394 218.135 107.364 218.015 107.354C217.975 107.354 217.925 107.354 217.885 107.344C217.855 107.344 217.825 107.344 217.795 107.334C217.755 107.334 217.705 107.324 217.665 107.324C217.545 107.324 217.425 107.304 217.305 107.304C217.265 107.304 217.235 107.304 217.195 107.304C217.165 107.304 217.125 107.304 217.095 107.304C217.045 107.304 216.985 107.304 216.935 107.304C216.795 107.304 216.665 107.314 216.535 107.334C216.525 107.334 216.505 107.334 216.495 107.334C216.455 107.334 216.425 107.344 216.385 107.354C216.285 107.364 216.175 107.374 216.075 107.394C216.035 107.394 215.985 107.414 215.945 107.424C215.825 107.454 215.705 107.485 215.585 107.515C215.525 107.535 215.455 107.545 215.395 107.565C215.365 107.565 215.345 107.595 215.315 107.605C215.065 107.695 214.825 107.795 214.605 107.916L119.784 163.146C119.784 163.146 119.754 163.166 119.744 163.176C119.574 163.287 119.414 163.397 119.284 163.517C119.204 163.597 119.124 163.678 119.064 163.758C119.004 163.828 118.964 163.898 118.914 163.978C118.874 164.048 118.844 164.119 118.814 164.189C118.784 164.259 118.764 164.329 118.754 164.399V164.9C118.894 165.151 118.974 165.311 118.974 165.311L119.794 166.143L120.824 166.825L214.585 112.216C214.805 112.085 215.045 111.985 215.295 111.905C215.385 111.875 215.475 111.845 215.565 111.825C215.685 111.795 215.805 111.755 215.925 111.735C216.075 111.704 216.215 111.674 216.365 111.654C216.405 111.654 216.435 111.644 216.475 111.644C216.675 111.624 216.885 111.614 217.085 111.614C217.115 111.614 217.155 111.614 217.185 111.614C217.385 111.614 217.585 111.624 217.785 111.644C217.815 111.644 217.845 111.644 217.875 111.654C218.075 111.674 218.265 111.715 218.455 111.755C218.485 111.755 218.525 111.775 218.555 111.785C218.725 111.825 218.895 111.875 219.055 111.935C219.085 111.945 219.115 111.955 219.145 111.965C219.335 112.045 219.525 112.125 219.695 112.226L314.036 166.815L314.586 166.484V166.444Z" fill="white" stroke="black" stroke-width="0.4" stroke-miterlimit="10"/>
<path d="M174.73 180.387C177.414 180.387 179.591 178.206 179.591 175.516C179.591 172.825 177.414 170.644 174.73 170.644C172.046 170.644 169.87 172.825 169.87 175.516C169.87 178.206 172.046 180.387 174.73 180.387Z" fill="white" stroke="black" stroke-width="0.4" stroke-miterlimit="10"/>
<path d="M200.073 116.125C200.366 116.125 200.603 115.887 200.603 115.594C200.603 115.3 200.366 115.062 200.073 115.062C199.78 115.062 199.543 115.3 199.543 115.594C199.543 115.887 199.78 116.125 200.073 116.125Z" fill="white"/>
<path d="M199.243 111.905C199.414 111.905 199.553 111.766 199.553 111.594C199.553 111.423 199.414 111.284 199.243 111.284C199.072 111.284 198.933 111.423 198.933 111.594C198.933 111.766 199.072 111.905 199.243 111.905Z" fill="white"/>
<path d="M220.975 119.343C221.268 119.343 221.505 119.105 221.505 118.811C221.505 118.518 221.268 118.28 220.975 118.28C220.683 118.28 220.445 118.518 220.445 118.811C220.445 119.105 220.683 119.343 220.975 119.343Z" fill="white"/>
<path d="M150.797 110.582L217.925 164.439L284.233 110.672L150.647 109.67L150.797 110.582Z" fill="white" stroke="black" stroke-width="0.4" stroke-miterlimit="10"/>
<path d="M151.187 110.893C150.147 110.301 150.147 109.329 151.177 108.738L215.495 71.5996C216.525 71.0082 218.205 71.0082 219.245 71.5996L283.983 108.727C285.023 109.319 285.023 110.291 283.993 110.883L219.675 148.021C218.645 148.612 216.965 148.612 215.925 148.021L151.187 110.893Z" fill="white" stroke="black" stroke-width="0.4" stroke-miterlimit="10"/>
<path d="M159.898 110.752C158.998 110.231 158.988 109.399 159.888 108.878L215.765 76.6114C216.665 76.0902 218.115 76.0902 219.025 76.6114L275.272 108.868C276.172 109.389 276.182 110.221 275.282 110.742L219.405 143.009C218.505 143.53 217.045 143.53 216.145 143.009L159.898 110.752Z" fill="black"/>
<path d="M217.935 164.55V148.381" stroke="black" stroke-width="0.4" stroke-miterlimit="10"/>
<path d="M184.171 91.0457L219.995 70.2965L241.228 110.492L229.546 117.298L184.171 91.0457Z" fill="black" stroke="white" stroke-width="0.4" stroke-miterlimit="10"/>
<path d="M207.154 58.9897L218.835 52.1836L219.995 70.2965L184.171 91.0456L207.154 58.9897Z" fill="black" stroke="white" stroke-width="0.4" stroke-miterlimit="10"/>
<path d="M207.504 52.765L235.437 124.505L179.261 91.9979L207.504 52.765ZM207.154 58.9898L184.171 91.0457L229.546 117.298L207.154 58.9898Z" fill="white" stroke="black" stroke-width="0.4" stroke-miterlimit="10"/>
<path d="M207.504 52.765L219.185 45.9589L247.118 117.699L235.437 124.505L207.504 52.765Z" fill="white" stroke="black" stroke-width="0.4" stroke-miterlimit="10"/>
<mask id="mask0_368_38898" style="mask-type:luminance" maskUnits="userSpaceOnUse" x="182" y="43" width="54" height="101">
<path d="M200.203 43.0018L210.734 71.6096L235.527 133.817L228.936 137.466L226.806 142.337L218.665 143.5L182.241 122.169L200.203 43.0018Z" fill="white"/>
</mask>
<g mask="url(#mask0_368_38898)">
<path d="M241.228 87.397L233.107 80.9116L228.826 77.4835L193.792 97.0799V136.373L203.423 172.198L206.204 178.443L209.604 168.339V105.76L209.894 105.329L210.364 105.019L241.228 87.397Z" fill="#1F8DF2" stroke="black" stroke-width="0.4" stroke-miterlimit="10"/>
<path d="M245.168 92.4791L239.477 89.4619L210.614 106.382L211.034 179.214L214.535 177.069L216.745 173.631L216.535 109.81L245.168 92.4791Z" fill="#1F8DF2" stroke="black" stroke-width="0.4" stroke-miterlimit="10"/>
</g>
<mask id="mask1_368_38898" style="mask-type:luminance" maskUnits="userSpaceOnUse" x="164" y="147" width="23" height="14">
<path d="M177.92 147.569L186.731 154.145L173.79 160.179L164.979 153.604L177.92 147.569Z" fill="white"/>
</mask>
<g mask="url(#mask1_368_38898)">
<path d="M176.96 158.405L183.071 155.558L181.971 151.028L174.75 149.354L168.639 152.2L169.749 156.731L176.96 158.405Z" fill="white"/>
<path d="M174.75 149.354L181.971 151.028L183.071 155.558L176.96 158.405L169.739 156.731L168.639 152.2L174.75 149.354ZM177.03 158.676L183.501 155.659L182.331 150.867L174.8 149.113L174.69 149.083L168.219 152.1L169.399 156.902L176.93 158.656L177.03 158.686" fill="black"/>
</g>
<path d="M168.459 152.15L175.85 139.15L182.201 150.998" fill="white"/>
<path d="M168.459 152.15L175.85 139.15L182.201 150.998" stroke="black" stroke-width="0.4" stroke-miterlimit="10"/>
<path d="M183.27 155.598L175.85 139.15L176.98 158.505" stroke="black" stroke-width="0.4" stroke-miterlimit="10"/>
<path d="M169.539 156.801L175.849 139.15" stroke="black" stroke-width="0.4" stroke-miterlimit="10"/>
<path d="M227.765 175.736L227.705 193.508L220.815 189.519L220.885 171.757L227.765 175.736Z" fill="white" stroke="black" stroke-width="0.4" stroke-miterlimit="10"/>
<path d="M220.884 171.757L220.814 189.519L213.974 193.508L214.044 175.736L220.884 171.757Z" fill="white" stroke="black" stroke-width="0.4" stroke-miterlimit="10"/>
<path d="M220.924 179.726L220.864 197.488L213.974 193.508L214.044 175.736L220.924 179.726Z" fill="white" stroke="black" stroke-width="0.4" stroke-miterlimit="10"/>
<path d="M227.765 175.736L227.705 193.508L220.865 197.488L220.925 179.726L227.765 175.736Z" fill="white" stroke="black" stroke-width="0.4" stroke-miterlimit="10"/>
<path d="M220.885 171.506L228.196 175.736L220.935 179.966L213.625 175.736L220.885 171.506ZM220.935 179.726L227.776 175.746L220.895 171.767L214.055 175.746L220.935 179.726Z" fill="white" stroke="black" stroke-width="0.4" stroke-miterlimit="10"/>
<path d="M227.766 175.736L220.925 179.726L214.044 175.736L220.885 171.757L227.766 175.736Z" fill="white"/>
<path d="M220.924 179.966L220.865 197.728L213.555 193.498L213.615 175.736L220.924 179.966Z" fill="white" stroke="black" stroke-width="0.4" stroke-miterlimit="10"/>
<path d="M228.195 175.736L228.125 193.498L220.865 197.728L220.925 179.966L228.195 175.736Z" fill="white" stroke="black" stroke-width="0.4" stroke-miterlimit="10"/>
<path d="M196.562 129.647V114.291" stroke="black" stroke-width="0.4" stroke-miterlimit="10" stroke-linecap="round"/>
<path d="M217.385 86.4648L204.113 94.143" stroke="black" stroke-width="0.4" stroke-miterlimit="10" stroke-linecap="round"/>
<path d="M217.915 87.397L209.144 92.479" stroke="black" stroke-width="0.4" stroke-miterlimit="10" stroke-linecap="round"/>
<path d="M220.185 94.9348L211.404 100.007" stroke="black" stroke-width="0.4" stroke-miterlimit="10" stroke-linecap="round"/>
<path d="M207.374 136.664V110.672" stroke="black" stroke-width="0.4" stroke-miterlimit="10" stroke-linecap="round"/>
<path d="M196.562 112.225V112.025" stroke="black" stroke-width="0.4" stroke-miterlimit="10" stroke-linecap="round"/>
<path d="M196.562 109.65V108.226" stroke="black" stroke-width="0.4" stroke-miterlimit="10" stroke-linecap="round"/>
<path d="M196.562 107.043V106.843" stroke="black" stroke-width="0.4" stroke-miterlimit="10" stroke-linecap="round"/>
<path d="M198.103 130.74V121.137" stroke="black" stroke-width="0.4" stroke-miterlimit="10" stroke-linecap="round"/>
<path d="M212.704 139.801V124.565" stroke="black" stroke-width="0.4" stroke-miterlimit="10" stroke-linecap="round"/>
<path d="M202.503 134.108V129.306" stroke="black" stroke-width="0.4" stroke-miterlimit="10" stroke-linecap="round"/>
<path d="M198.103 119.232V119.032" stroke="black" stroke-width="0.4" stroke-miterlimit="10" stroke-linecap="round"/>
<path d="M198.103 117.759V116.997" stroke="black" stroke-width="0.4" stroke-miterlimit="10" stroke-linecap="round"/>
<path d="M198.103 116.365V116.165" stroke="black" stroke-width="0.4" stroke-miterlimit="10" stroke-linecap="round"/>
<path d="M202.223 127.642V127.442" stroke="black" stroke-width="0.4" stroke-miterlimit="10" stroke-linecap="round"/>
<path d="M202.223 126.169V125.407" stroke="black" stroke-width="0.4" stroke-miterlimit="10" stroke-linecap="round"/>
<path d="M202.223 124.765V124.565" stroke="black" stroke-width="0.4" stroke-miterlimit="10" stroke-linecap="round"/>
<path d="M212.414 122.841V122.641" stroke="black" stroke-width="0.4" stroke-miterlimit="10" stroke-linecap="round"/>
<path d="M212.414 121.368V120.606" stroke="black" stroke-width="0.4" stroke-miterlimit="10" stroke-linecap="round"/>
<path d="M212.414 119.964V119.764" stroke="black" stroke-width="0.4" stroke-miterlimit="10" stroke-linecap="round"/>
<path d="M254.539 102.673C254.299 104.187 254.099 105.65 253.649 106.953C252.999 106.061 252.369 105.199 251.729 104.327C252.169 105.319 252.599 106.302 253.049 107.304C251.699 107.033 250.339 106.472 248.979 105.961C249.659 106.502 250.329 107.003 250.999 107.545C251.679 108.096 252.339 108.687 253.059 109.299C252.589 109.81 252.159 110.291 251.719 110.772C252.359 110.632 252.989 110.502 253.639 110.361C254.089 112.196 254.279 113.89 254.509 115.594C254.749 114.15 254.949 112.697 255.409 111.384C256.069 112.286 256.689 113.148 257.319 114.01C256.889 113.028 256.449 112.045 256.009 111.033C257.369 111.314 258.73 111.855 260.08 112.376C259.4 111.825 258.73 111.324 258.06 110.782C257.389 110.231 256.719 109.65 255.999 109.028C256.469 108.517 256.909 108.036 257.339 107.555C256.699 107.685 256.069 107.825 255.389 107.966C255.219 107.013 255.039 106.141 254.909 105.279C254.779 104.427 254.679 103.585 254.549 102.653" fill="white"/>
<path d="M184.331 111.083C184.151 111.985 183.971 112.827 183.811 113.669C183.681 114.311 183.381 114.852 182.891 115.283C182.561 115.584 182.221 115.874 181.891 116.175C181.571 116.456 181.251 116.747 180.891 117.067C181.591 116.877 182.241 116.706 182.891 116.536C183.381 116.406 183.691 116.596 183.821 117.077C183.991 117.719 184.171 118.36 184.361 119.042C184.381 118.942 184.391 118.892 184.411 118.831C184.581 118.01 184.741 117.198 184.911 116.376C185.031 115.804 185.311 115.303 185.741 114.902C185.981 114.672 186.231 114.461 186.481 114.241C186.911 113.86 187.341 113.479 187.781 113.078C187.751 113.078 187.741 113.068 187.731 113.068C187.071 113.248 186.421 113.429 185.761 113.599C185.331 113.709 185.041 113.559 184.901 113.148C184.771 112.747 184.671 112.306 184.551 111.895C184.481 111.634 184.411 111.374 184.321 111.083" fill="white"/>
<path d="M201.813 77.7141C201.993 78.6162 202.173 79.4582 202.333 80.3002C202.463 80.9418 202.763 81.483 203.253 81.9141C203.583 82.2148 203.923 82.5055 204.253 82.8062C204.573 83.0868 204.893 83.3775 205.253 83.6983C204.553 83.5078 203.903 83.3374 203.253 83.167C202.763 83.0367 202.453 83.2272 202.323 83.7083C202.153 84.3498 201.973 84.9913 201.783 85.673C201.763 85.5727 201.753 85.5226 201.733 85.4625C201.563 84.6405 201.403 83.8286 201.233 83.0066C201.113 82.4353 200.833 81.9341 200.403 81.5332C200.163 81.3026 199.913 81.0921 199.663 80.8716C199.233 80.4907 198.803 80.1098 198.363 79.7088C198.393 79.7088 198.403 79.6988 198.413 79.6988C199.073 79.8792 199.723 80.0597 200.383 80.2301C200.813 80.3403 201.103 80.19 201.243 79.779C201.373 79.378 201.473 78.937 201.593 78.526C201.663 78.2654 201.733 78.0048 201.823 77.7141" fill="white"/>
<path d="M257.63 164.67L271.261 131.441L287.053 164.951L272.591 173.551L257.63 164.67Z" fill="white" stroke="black" stroke-width="0.4" stroke-miterlimit="10"/>
<path d="M272.591 173.551L271.261 131.441" stroke="black" stroke-width="0.4" stroke-miterlimit="10"/>
</svg>
