<svg width="320" height="208" viewBox="0 0 320 208" fill="none" xmlns="http://www.w3.org/2000/svg">
<g clip-path="url(#clip0_6169_149292)">
<ellipse cx="19.8971" cy="19.845" rx="19.8971" ry="19.845" transform="matrix(0.932541 0.361065 -0.363303 0.931671 173.707 92.4492)" fill="#D0C4F2"/>
<ellipse cx="185.052" cy="118.123" rx="14.9298" ry="14.8768" fill="#7246EE"/>
<path fill-rule="evenodd" clip-rule="evenodd" d="M177.588 112.668H174.602L182.066 126.553L184.555 121.925L183.062 119.148L182.813 119.611L182.066 120.999L181.32 119.611L177.588 112.668ZM183.559 118.222L184.306 119.611L185.052 120.999L186.172 123.082L188.038 126.553L195.503 112.668H192.517L188.785 119.611L188.038 120.999L187.292 119.611L186.545 118.222L185.052 115.445L183.559 112.668H180.573L183.559 118.222ZM189.531 112.668L187.043 117.297L185.55 114.52L186.545 112.668H189.531Z" fill="white"/>
<path d="M218.155 128.943C218.026 129.334 217.89 129.724 217.746 130.113L217.457 130.007C217.386 130.199 217.312 130.392 217.237 130.584C217.163 130.776 217.086 130.967 217.008 131.157L217.293 131.274C217.135 131.657 216.972 132.037 216.802 132.412L216.521 132.286C216.352 132.662 216.176 133.033 215.994 133.399L216.27 133.535C216.085 133.908 215.895 134.275 215.698 134.638L215.427 134.492C215.232 134.854 215.03 135.211 214.823 135.564L215.088 135.719C214.878 136.077 214.661 136.43 214.439 136.778L214.18 136.613C213.958 136.96 213.731 137.302 213.499 137.639L213.752 137.813C213.517 138.155 213.275 138.492 213.029 138.823L212.782 138.64C212.536 138.969 212.285 139.294 212.029 139.613L212.27 139.805C212.01 140.129 211.745 140.448 211.475 140.761L211.242 140.56C210.973 140.872 210.699 141.178 210.42 141.478L210.646 141.687C210.364 141.991 210.077 142.289 209.785 142.582L209.567 142.365C209.277 142.656 208.982 142.942 208.682 143.221L208.892 143.446C208.589 143.729 208.281 144.006 207.968 144.278L207.766 144.046C207.456 144.315 207.141 144.579 206.822 144.837L207.015 145.076C206.693 145.336 206.366 145.591 206.035 145.839L205.85 145.593C205.522 145.84 205.189 146.08 204.852 146.315L205.028 146.567C204.687 146.804 204.343 147.034 203.995 147.259L203.828 147C203.483 147.223 203.134 147.439 202.781 147.649L202.938 147.913C202.582 148.125 202.222 148.331 201.859 148.53L201.711 148.26C201.351 148.458 200.987 148.649 200.621 148.833L200.759 149.108C200.388 149.294 200.015 149.474 199.638 149.647L199.51 149.367C199.137 149.539 198.761 149.703 198.382 149.862L198.5 150.145C198.118 150.305 197.732 150.457 197.344 150.603L197.236 150.316C196.852 150.46 196.465 150.598 196.076 150.729L196.173 151.02C195.781 151.152 195.386 151.277 194.989 151.395L194.901 151.101C194.508 151.218 194.112 151.328 193.714 151.431L193.791 151.728C193.39 151.832 192.987 151.929 192.582 152.019L192.516 151.719C192.116 151.807 191.713 151.889 191.309 151.964L191.364 152.266C190.957 152.341 190.549 152.409 190.139 152.47L190.094 152.165C189.688 152.225 189.281 152.278 188.872 152.324L188.906 152.629C188.495 152.675 188.082 152.714 187.668 152.745L187.646 152.439C187.237 152.47 186.827 152.494 186.417 152.51L186.428 152.817C186.015 152.834 185.601 152.843 185.186 152.844L185.186 152.537C184.776 152.539 184.365 152.533 183.954 152.52L183.944 152.827C183.53 152.814 183.116 152.793 182.702 152.765L182.724 152.459C182.315 152.431 181.907 152.396 181.498 152.354L181.465 152.659C181.055 152.617 180.644 152.567 180.233 152.509L180.276 152.205C179.87 152.148 179.465 152.084 179.059 152.012L179.005 152.315C178.598 152.243 178.192 152.164 177.786 152.077L177.851 151.776C177.451 151.691 177.052 151.598 176.653 151.498L176.577 151.796C176.177 151.695 175.777 151.587 175.378 151.472L175.464 151.177C175.071 151.063 174.679 150.942 174.287 150.813L174.19 151.105C173.799 150.977 173.409 150.841 173.019 150.698L173.126 150.41C172.933 150.339 172.741 150.266 172.548 150.192C172.356 150.117 172.164 150.041 171.974 149.964L171.857 150.249C171.473 150.092 171.093 149.929 170.718 149.761L170.844 149.48C170.468 149.312 170.097 149.137 169.73 148.956L169.593 149.232C169.221 149.049 168.853 148.859 168.489 148.664L168.635 148.393C168.273 148.199 167.916 147.999 167.563 147.793L167.407 148.058C167.049 147.849 166.695 147.634 166.347 147.414L166.512 147.154C166.164 146.934 165.822 146.708 165.484 146.478L165.31 146.731C164.967 146.497 164.63 146.258 164.298 146.013L164.482 145.765C164.151 145.522 163.826 145.272 163.506 145.018L163.314 145.259C162.99 145.001 162.67 144.737 162.357 144.469L162.557 144.235C162.245 143.968 161.938 143.696 161.637 143.419L161.428 143.646C161.124 143.365 160.824 143.08 160.531 142.79L160.748 142.571C160.456 142.283 160.169 141.99 159.889 141.692L159.664 141.903C159.38 141.601 159.102 141.295 158.83 140.984L159.062 140.782C158.791 140.473 158.527 140.16 158.268 139.843L158.029 140.037C157.768 139.717 157.512 139.392 157.263 139.062L157.509 138.877C157.261 138.55 157.02 138.219 156.784 137.884L156.532 138.061C156.294 137.722 156.063 137.38 155.837 137.033L156.096 136.865C155.872 136.522 155.655 136.174 155.444 135.823L155.18 135.982C154.967 135.628 154.76 135.27 154.56 134.908L154.829 134.759C154.631 134.4 154.439 134.038 154.253 133.673L153.979 133.813C153.791 133.444 153.611 133.072 153.437 132.697L153.716 132.568C153.544 132.196 153.378 131.821 153.218 131.444L152.935 131.563C152.774 131.183 152.62 130.799 152.473 130.412L152.761 130.303C152.616 129.92 152.477 129.534 152.345 129.146L152.053 129.246C151.92 128.855 151.794 128.461 151.675 128.065L151.97 127.976C151.852 127.584 151.741 127.189 151.637 126.793L151.339 126.871C151.234 126.471 151.137 126.07 151.046 125.666L151.347 125.598C151.257 125.199 151.174 124.797 151.099 124.394L150.796 124.451C150.72 124.045 150.652 123.638 150.59 123.229L150.895 123.183C150.834 122.778 150.78 122.371 150.734 121.964L150.428 121.999C150.381 121.589 150.342 121.177 150.31 120.764L150.617 120.74C150.586 120.332 150.561 119.923 150.545 119.513L150.237 119.526C150.22 119.114 150.21 118.7 150.208 118.286L150.516 118.284C150.514 117.875 150.52 117.465 150.532 117.055L150.225 117.046C150.237 116.633 150.258 116.22 150.286 115.806L150.593 115.826C150.62 115.418 150.655 115.01 150.698 114.602L150.391 114.571C150.434 114.16 150.484 113.75 150.542 113.339L150.847 113.381C150.904 112.976 150.968 112.571 151.04 112.166L150.737 112.113C150.809 111.707 150.888 111.301 150.975 110.895L151.276 110.959C151.362 110.56 151.456 110.161 151.556 109.763L151.258 109.688C151.359 109.288 151.467 108.888 151.583 108.49L151.879 108.575C151.993 108.182 152.115 107.79 152.244 107.399L151.952 107.303C152.081 106.912 152.217 106.522 152.361 106.133L152.65 106.239C152.721 106.046 152.794 105.854 152.869 105.662C152.944 105.469 153.021 105.278 153.099 105.088L152.814 104.972C152.971 104.588 153.135 104.209 153.305 103.834L153.585 103.96C153.755 103.584 153.931 103.213 154.113 102.846L153.837 102.71C154.022 102.338 154.212 101.97 154.409 101.607L154.679 101.753C154.875 101.391 155.077 101.034 155.284 100.682L155.019 100.527C155.229 100.169 155.446 99.816 155.668 99.4679L155.927 99.6327C156.149 99.2856 156.376 98.9435 156.608 98.6063L156.355 98.4322C156.59 98.0906 156.831 97.7541 157.078 97.4228L157.325 97.6059C157.571 97.2762 157.821 96.9516 158.077 96.6323L157.837 96.4404C158.097 96.1166 158.362 95.798 158.632 95.4849L158.865 95.6853C159.134 95.3739 159.408 95.068 159.687 94.7675L159.461 94.5588C159.743 94.2548 160.03 93.9563 160.322 93.6635L160.54 93.8802C160.83 93.5892 161.125 93.3038 161.425 93.0242L161.215 92.7997C161.518 92.5166 161.826 92.2393 162.139 91.9679L162.34 92.1997C162.651 91.9302 162.966 91.6666 163.285 91.4089L163.091 91.17C163.414 90.9095 163.741 90.655 164.072 90.4067L164.257 90.6524C164.585 90.4058 164.918 90.1653 165.255 89.9309L165.079 89.6788C165.42 89.4419 165.764 89.2113 166.112 88.987L166.279 89.2452C166.624 89.0227 166.973 88.8064 167.326 88.5965L167.169 88.3324C167.525 88.1205 167.885 87.9149 168.248 87.7159L168.396 87.9853C168.756 87.7879 169.119 87.5969 169.486 87.4124L169.348 87.1378C169.718 86.9517 170.092 86.7721 170.468 86.5992L170.597 86.8784C170.97 86.707 171.346 86.5422 171.725 86.3841L171.607 86.1005C171.989 85.941 172.375 85.7883 172.762 85.6424L172.871 85.9301C173.255 85.7855 173.642 85.6477 174.031 85.5168L173.933 85.2255C174.326 85.0935 174.721 84.9684 175.118 84.8503L175.206 85.1449C175.599 85.028 175.995 84.918 176.393 84.8149L176.316 84.5173C176.717 84.4135 177.12 84.3167 177.524 84.227L177.591 84.5271C177.991 84.4384 178.394 84.3567 178.798 84.2821L178.742 83.9798C179.149 83.9047 179.558 83.8368 179.968 83.7761L180.013 84.0803C180.419 84.0202 180.826 83.9673 181.234 83.9217L181.201 83.6162C181.612 83.5702 182.025 83.5315 182.438 83.5002L182.461 83.8068C182.87 83.7758 183.28 83.7522 183.69 83.7358L183.679 83.4286C184.092 83.4121 184.506 83.403 184.92 83.4013L184.921 83.7088C185.331 83.7071 185.742 83.7127 186.153 83.7258L186.163 83.4185C186.576 83.4316 186.99 83.4522 187.405 83.4802L187.383 83.787C187.792 83.8146 188.2 83.8496 188.609 83.892L188.641 83.5862C189.052 83.6288 189.463 83.6789 189.874 83.7364L189.831 84.0409C190.237 84.0977 190.642 84.1619 191.048 84.2336L191.102 83.9308C191.508 84.0027 191.915 84.082 192.321 84.1688L192.256 84.4694C192.655 84.5549 193.055 84.6477 193.454 84.7479L193.529 84.4498C193.93 84.5503 194.329 84.6583 194.729 84.7738L194.642 85.0691C195.036 85.1828 195.428 85.3039 195.82 85.4324L195.916 85.1403C196.308 85.2686 196.698 85.4042 197.087 85.5472L196.981 85.8358C197.174 85.9066 197.366 85.9793 197.559 86.0538C197.751 86.1283 197.942 86.2043 198.133 86.2818L198.25 85.9971C198.634 86.1537 199.014 86.3163 199.389 86.4848L199.262 86.7653C199.638 86.9341 200.01 87.1089 200.377 87.2895L200.514 87.0137C200.886 87.197 201.254 87.3863 201.618 87.5814L201.471 87.8523C201.834 88.0467 202.191 88.2469 202.544 88.4528L202.7 88.1874C203.058 88.3965 203.411 88.6114 203.76 88.8319L203.595 89.0917C203.943 89.3116 204.285 89.5372 204.623 89.7681L204.797 89.5144C205.139 89.7485 205.477 89.988 205.808 90.233L205.625 90.4803C205.955 90.7241 206.281 90.9733 206.601 91.2276L206.793 90.9869C207.117 91.245 207.436 91.5083 207.75 91.7768L207.55 92.0104C207.862 92.2773 208.168 92.5494 208.47 92.8264L208.678 92.6001C208.983 92.8803 209.283 93.1656 209.576 93.4557L209.359 93.6744C209.651 93.9628 209.937 94.256 210.218 94.5538L210.442 94.3429C210.726 94.6444 211.005 94.9506 211.277 95.2612L211.045 95.4639C211.315 95.7724 211.58 96.0854 211.839 96.4027L212.078 96.2084C212.339 96.5291 212.594 96.8541 212.844 97.1833L212.598 97.369C212.846 97.6959 213.087 98.0269 213.322 98.3619L213.575 98.1851C213.813 98.5236 214.044 98.8661 214.27 99.2124L214.011 99.3803C214.235 99.7239 214.452 100.071 214.663 100.422L214.927 100.264C215.14 100.618 215.347 100.976 215.547 101.338L215.277 101.487C215.476 101.845 215.668 102.207 215.854 102.572L216.128 102.433C216.316 102.802 216.496 103.173 216.67 103.548L216.391 103.678C216.563 104.05 216.729 104.424 216.888 104.802L217.172 104.682C217.333 105.063 217.487 105.447 217.634 105.833L217.346 105.943C217.491 106.326 217.63 106.711 217.762 107.099L218.054 107C218.187 107.391 218.313 107.785 218.432 108.181L218.137 108.27C218.255 108.662 218.366 109.056 218.47 109.453L218.768 109.374C218.873 109.774 218.97 110.176 219.061 110.58L218.76 110.647C218.85 111.047 218.932 111.448 219.008 111.851L219.311 111.794C219.387 112.2 219.455 112.608 219.517 113.017L219.212 113.063C219.273 113.468 219.327 113.874 219.373 114.282L219.679 114.247C219.725 114.657 219.765 115.069 219.797 115.482L219.49 115.506C219.521 115.914 219.545 116.323 219.562 116.733L219.87 116.72C219.887 117.132 219.896 117.545 219.898 117.959L219.591 117.961C219.593 118.371 219.587 118.781 219.574 119.191L219.882 119.2C219.869 119.613 219.849 120.026 219.821 120.44L219.514 120.42C219.486 120.827 219.452 121.236 219.409 121.644L219.715 121.675C219.673 122.085 219.623 122.496 219.565 122.906L219.26 122.864C219.203 123.269 219.139 123.675 219.067 124.079L219.37 124.133C219.298 124.539 219.219 124.945 219.131 125.35L218.83 125.286C218.745 125.686 218.651 126.085 218.551 126.483L218.849 126.558C218.748 126.958 218.64 127.357 218.524 127.756L218.228 127.671C218.113 128.063 217.992 128.456 217.863 128.847L218.155 128.943Z" stroke="#595959" stroke-width="0.615385" stroke-dasharray="1.23 1.23"/>
<path d="M236.719 138.124C225.632 166.556 193.512 180.65 164.977 169.602C136.442 158.553 122.299 126.547 133.386 98.1147C144.473 69.6824 176.593 55.5882 205.128 66.6367C233.663 77.6851 247.806 109.691 236.719 138.124Z" stroke="#7246EE" stroke-width="0.615385"/>
<path d="M257.66 106.811C257.66 107.222 257.655 107.634 257.643 108.046L257.336 108.038C257.33 108.243 257.322 108.447 257.314 108.653C257.305 108.858 257.295 109.062 257.283 109.267L257.59 109.284C257.567 109.696 257.538 110.107 257.503 110.517L257.196 110.491C257.162 110.897 257.121 111.303 257.075 111.707L257.381 111.742C257.334 112.151 257.282 112.56 257.224 112.967L256.919 112.923C256.861 113.328 256.798 113.731 256.729 114.133L257.032 114.186C256.962 114.591 256.887 114.994 256.806 115.397L256.504 115.336C256.424 115.737 256.337 116.136 256.246 116.534L256.545 116.604C256.453 117.004 256.355 117.404 256.251 117.802L255.954 117.724C255.851 118.119 255.742 118.513 255.629 118.905L255.924 118.991C255.81 119.386 255.69 119.779 255.564 120.171L255.271 120.077C255.147 120.466 255.017 120.854 254.881 121.24L255.172 121.341C255.036 121.729 254.895 122.115 254.749 122.499L254.461 122.39C254.316 122.771 254.166 123.151 254.01 123.529L254.295 123.646C254.138 124.027 253.976 124.406 253.81 124.784L253.528 124.659C253.364 125.031 253.194 125.402 253.019 125.771L253.298 125.902C253.122 126.274 252.941 126.643 252.756 127.012L252.481 126.873C252.297 127.238 252.108 127.601 251.914 127.963L252.186 128.108C251.992 128.469 251.794 128.828 251.591 129.186L251.324 129.034C251.122 129.389 250.916 129.743 250.704 130.095L250.968 130.253C250.757 130.605 250.542 130.955 250.322 131.304L250.062 131.14C249.844 131.484 249.622 131.826 249.396 132.167L249.652 132.337C249.424 132.68 249.192 133.021 248.956 133.361L248.703 133.185C248.47 133.519 248.233 133.851 247.992 134.182L248.24 134.363C247.999 134.694 247.753 135.023 247.503 135.35L247.258 135.164C247.01 135.489 246.757 135.813 246.5 136.135L246.74 136.327C246.485 136.647 246.226 136.964 245.964 137.28L245.727 137.084C245.466 137.397 245.202 137.709 244.933 138.019L245.165 138.22C244.895 138.532 244.621 138.842 244.344 139.15L244.115 138.944C243.843 139.245 243.568 139.545 243.288 139.843L243.513 140.053C243.232 140.352 242.948 140.65 242.661 140.946L242.44 140.731C242.154 141.025 241.864 141.318 241.57 141.609L241.787 141.827C241.497 142.114 241.204 142.399 240.907 142.682L240.695 142.46C240.4 142.742 240.101 143.022 239.799 143.3L240.007 143.526C239.704 143.806 239.397 144.084 239.087 144.36L238.883 144.13C238.58 144.4 238.273 144.668 237.964 144.935L238.164 145.168C237.854 145.435 237.54 145.701 237.223 145.965L237.026 145.728C236.71 145.991 236.391 146.252 236.069 146.511L236.262 146.751C235.944 147.007 235.624 147.261 235.3 147.513L235.111 147.27C234.789 147.521 234.464 147.77 234.136 148.018L234.322 148.263C233.992 148.511 233.66 148.758 233.325 149.003L233.144 148.754C232.815 148.994 232.484 149.233 232.15 149.469L232.328 149.72C231.994 149.957 231.657 150.192 231.317 150.425L231.143 150.171C230.805 150.404 230.464 150.634 230.12 150.863L230.29 151.119C229.949 151.346 229.606 151.571 229.26 151.794L229.093 151.535C228.751 151.756 228.406 151.976 228.058 152.193L228.221 152.454C227.873 152.672 227.521 152.889 227.167 153.103L227.008 152.84C226.658 153.053 226.306 153.263 225.951 153.472L226.107 153.737C225.755 153.945 225.401 154.15 225.044 154.354L224.891 154.087C224.536 154.29 224.178 154.491 223.818 154.691L223.967 154.96C223.606 155.16 223.243 155.358 222.878 155.554L222.733 155.283C222.375 155.476 222.014 155.666 221.652 155.855L221.794 156.128C221.431 156.318 221.065 156.506 220.697 156.692L220.558 156.417C220.191 156.603 219.823 156.787 219.452 156.969L219.587 157.245C219.22 157.425 218.851 157.604 218.48 157.781L218.347 157.503C217.979 157.678 217.609 157.852 217.236 158.024L217.365 158.303C216.992 158.476 216.616 158.647 216.239 158.816L216.113 158.535C215.739 158.703 215.363 158.869 214.985 159.033L215.107 159.315C214.732 159.478 214.356 159.638 213.978 159.798L213.858 159.514C213.481 159.673 213.102 159.83 212.721 159.985L212.837 160.27C212.455 160.426 212.072 160.58 211.686 160.732L211.573 160.446C211.194 160.596 210.813 160.744 210.431 160.89L210.54 161.178C210.158 161.324 209.774 161.469 209.388 161.612L209.281 161.323C208.897 161.466 208.51 161.606 208.122 161.745L208.226 162.035C207.838 162.174 207.449 162.311 207.059 162.446L206.958 162.156C206.573 162.289 206.187 162.421 205.798 162.551L205.896 162.843C205.507 162.973 205.116 163.102 204.724 163.229L204.63 162.936C204.238 163.063 203.846 163.188 203.452 163.311L203.543 163.604C203.152 163.727 202.76 163.847 202.366 163.966L202.277 163.671C201.886 163.789 201.494 163.906 201.1 164.02L201.186 164.315C200.792 164.43 200.395 164.543 199.998 164.655L199.915 164.359C199.519 164.47 199.121 164.579 198.721 164.687L198.801 164.984C198.407 165.09 198.012 165.195 197.615 165.298L197.538 165C197.142 165.103 196.745 165.204 196.347 165.303L196.421 165.602C196.022 165.701 195.621 165.799 195.219 165.895L195.148 165.596C194.749 165.692 194.348 165.785 193.946 165.878L194.015 166.177C193.617 166.269 193.217 166.359 192.816 166.447L192.75 166.146C192.351 166.234 191.95 166.32 191.547 166.405L191.61 166.706C191.207 166.79 190.803 166.873 190.398 166.955L190.337 166.653C189.936 166.733 189.533 166.812 189.129 166.89L189.186 167.192C188.785 167.268 188.382 167.344 187.978 167.417L187.923 167.114C187.52 167.188 187.115 167.259 186.71 167.329L186.762 167.632C186.356 167.702 185.949 167.771 185.541 167.837L185.491 167.534C185.087 167.6 184.683 167.664 184.277 167.727L184.324 168.031C183.919 168.093 183.514 168.154 183.107 168.213L183.063 167.908C182.657 167.967 182.251 168.025 181.843 168.08L181.884 168.385C181.476 168.441 181.066 168.495 180.656 168.547L180.617 168.242C180.212 168.294 179.805 168.344 179.398 168.392L179.434 168.698C179.028 168.746 178.62 168.793 178.212 168.838L178.178 168.532C177.77 168.577 177.362 168.62 176.952 168.662L176.983 168.968C176.573 169.01 176.162 169.05 175.75 169.088L175.722 168.781C175.315 168.819 174.907 168.855 174.499 168.89L174.525 169.197C174.116 169.231 173.707 169.264 173.297 169.295L173.274 168.988C172.865 169.019 172.455 169.049 172.045 169.077L172.066 169.384C171.654 169.411 171.242 169.438 170.829 169.462L170.811 169.155C170.403 169.179 169.994 169.202 169.585 169.222L169.601 169.53C169.191 169.551 168.781 169.57 168.371 169.587L168.358 169.28C167.948 169.297 167.538 169.313 167.126 169.327L167.137 169.635C166.725 169.649 166.312 169.662 165.899 169.673L165.891 169.365C165.482 169.376 165.073 169.385 164.663 169.392L164.668 169.7C164.258 169.707 163.848 169.713 163.437 169.717L163.434 169.41C163.024 169.414 162.614 169.416 162.202 169.417L162.203 169.725C161.791 169.725 161.378 169.724 160.964 169.722L160.966 169.414C160.557 169.412 160.147 169.408 159.737 169.402L159.732 169.709C159.323 169.704 158.913 169.696 158.502 169.687L158.509 169.379C158.099 169.37 157.689 169.36 157.278 169.347L157.268 169.655C156.857 169.642 156.444 169.628 156.032 169.612L156.043 169.305C155.837 169.297 155.631 169.289 155.425 169.28C155.219 169.271 155.013 169.262 154.807 169.253L154.792 169.56C154.38 169.541 153.968 169.52 153.556 169.498L153.573 169.191C153.162 169.169 152.753 169.145 152.343 169.119L152.324 169.426C151.914 169.401 151.505 169.374 151.096 169.345L151.118 169.038C150.709 169.009 150.3 168.979 149.892 168.947L149.868 169.254C149.456 169.222 149.044 169.188 148.634 169.152L148.66 168.846C148.25 168.81 147.841 168.773 147.433 168.734L147.404 169.041C146.995 169.002 146.587 168.962 146.179 168.92L146.211 168.614C145.803 168.572 145.396 168.528 144.989 168.483L144.955 168.789C144.544 168.743 144.134 168.696 143.725 168.647L143.761 168.342C143.353 168.293 142.945 168.243 142.538 168.191L142.499 168.496C142.092 168.444 141.685 168.39 141.279 168.335L141.32 168.03C140.914 167.975 140.509 167.918 140.105 167.859L140.061 168.164C139.651 168.105 139.243 168.044 138.835 167.982L138.882 167.678C138.475 167.615 138.069 167.551 137.664 167.486L137.615 167.79C137.209 167.724 136.805 167.657 136.401 167.588L136.452 167.285C136.048 167.216 135.645 167.146 135.243 167.074L135.189 167.377C134.782 167.304 134.375 167.229 133.97 167.153L134.027 166.851C133.623 166.775 133.219 166.698 132.817 166.618L132.757 166.92C132.354 166.841 131.952 166.76 131.551 166.678L131.613 166.376C131.211 166.294 130.81 166.21 130.411 166.124L130.346 166.425C129.942 166.338 129.538 166.25 129.136 166.16L129.203 165.86C128.802 165.77 128.401 165.679 128.002 165.586L127.932 165.885C127.532 165.792 127.133 165.697 126.735 165.601L126.808 165.302C126.409 165.206 126.011 165.107 125.614 165.008L125.539 165.306C125.138 165.205 124.738 165.103 124.339 164.999L124.417 164.701C124.019 164.597 123.623 164.492 123.227 164.385L123.147 164.682C122.75 164.575 122.355 164.466 121.961 164.356L122.044 164.059C121.648 163.949 121.254 163.836 120.86 163.722L120.775 164.018C120.377 163.902 119.982 163.786 119.587 163.667L119.676 163.373C119.282 163.255 118.89 163.135 118.499 163.014L118.408 163.308C118.016 163.186 117.625 163.063 117.236 162.939L117.33 162.645C116.938 162.52 116.546 162.392 116.157 162.264L116.06 162.556C115.668 162.426 115.277 162.295 114.887 162.162L114.987 161.871C114.598 161.738 114.211 161.604 113.826 161.468L113.723 161.759C113.337 161.623 112.952 161.485 112.568 161.346L112.673 161.057C112.284 160.916 111.897 160.773 111.511 160.629L111.404 160.917C111.017 160.773 110.632 160.627 110.249 160.479L110.359 160.192C109.977 160.045 109.596 159.896 109.216 159.746L109.103 160.032C108.72 159.88 108.339 159.727 107.96 159.572L108.077 159.287C107.694 159.131 107.313 158.974 106.934 158.815L106.815 159.098C106.435 158.939 106.057 158.778 105.68 158.615L105.802 158.332C105.427 158.17 105.053 158.006 104.681 157.841L104.556 158.122C104.178 157.954 103.802 157.785 103.428 157.614L103.556 157.334C103.181 157.163 102.808 156.99 102.436 156.816L102.305 157.094C101.933 156.919 101.563 156.743 101.194 156.565L101.328 156.288C100.959 156.11 100.592 155.93 100.227 155.749L100.09 156.025C99.719 155.84 99.3497 155.655 98.9823 155.467L99.1222 155.193C98.7558 155.006 98.3914 154.818 98.029 154.628L97.8861 154.9C97.5226 154.71 97.1612 154.518 96.8017 154.324L96.9477 154.053C96.5849 153.858 96.2241 153.661 95.8654 153.462L95.7163 153.731C95.3546 153.531 94.995 153.329 94.6375 153.126L94.7896 152.859C94.4332 152.656 94.0789 152.452 93.7267 152.246L93.5714 152.511C93.2165 152.304 92.8637 152.095 92.5132 151.885L92.6717 151.621C92.3174 151.408 91.9655 151.194 91.6158 150.978L91.4541 151.24C91.1034 151.023 90.7549 150.805 90.4088 150.586L90.5736 150.326C90.2286 150.107 89.8858 149.886 89.5454 149.664L89.3773 149.922C89.03 149.696 88.6852 149.468 88.3428 149.238L88.5142 148.983C88.1722 148.754 87.8327 148.523 87.4957 148.29L87.321 148.544C86.9829 148.311 86.6473 148.076 86.3142 147.84L86.4922 147.589C86.1564 147.351 85.8232 147.111 85.4926 146.87L85.3112 147.119C84.9769 146.875 84.6453 146.63 84.3163 146.383L84.501 146.137C84.1731 145.891 83.8479 145.644 83.5254 145.395L83.3373 145.638C83.0115 145.387 82.6884 145.133 82.3681 144.879L82.5596 144.638C82.2364 144.381 81.916 144.123 81.5985 143.863L81.4036 144.101C81.0849 143.84 80.7692 143.577 80.4563 143.314L80.6547 143.078C80.342 142.814 80.0321 142.549 79.7252 142.282L79.5233 142.515C79.2103 142.242 78.9003 141.969 78.5934 141.694L78.7988 141.464C78.4931 141.19 78.1905 140.915 77.8909 140.638L77.6819 140.863C77.3809 140.585 77.083 140.305 76.7883 140.024L77.0008 139.801C76.7018 139.516 76.4061 139.229 76.1137 138.94L75.8975 139.159C75.6039 138.869 75.3136 138.578 75.0267 138.286L75.2464 138.07C74.9606 137.779 74.6782 137.486 74.3992 137.192L74.1759 137.403C73.8902 137.102 73.6081 136.799 73.3296 136.495L73.5565 136.287C73.2792 135.984 73.0053 135.68 72.7351 135.374L72.5045 135.578C72.2331 135.271 71.9652 134.962 71.701 134.652L71.9352 134.452C71.6672 134.138 71.403 133.822 71.1426 133.505L70.9047 133.7C70.6431 133.381 70.3852 133.061 70.1312 132.739L70.3728 132.548C70.1197 132.228 69.8705 131.906 69.6252 131.583L69.3801 131.769C69.1294 131.438 68.8827 131.107 68.6401 130.773L68.8888 130.592C68.6474 130.261 68.4101 129.928 68.1768 129.593L67.9244 129.769C67.6894 129.433 67.4584 129.094 67.2316 128.754L67.4875 128.584C67.2587 128.241 67.0342 127.897 66.814 127.551L66.5545 127.717C66.3331 127.37 66.1161 127.021 65.9034 126.671L66.1664 126.511C65.9539 126.161 65.7457 125.81 65.5421 125.458L65.2757 125.612C65.0687 125.254 64.8663 124.894 64.6685 124.534L64.9383 124.386C64.7416 124.027 64.5496 123.667 64.3621 123.306L64.089 123.447C63.8992 123.082 63.714 122.714 63.5337 122.346L63.81 122.211C63.6296 121.842 63.4539 121.472 63.2831 121.101L63.0036 121.23C62.8318 120.856 62.6648 120.482 62.5028 120.106L62.7854 119.984C62.623 119.607 62.4656 119.23 62.3132 118.851L62.0277 118.965C61.874 118.583 61.7253 118.199 61.5818 117.815L61.8701 117.707C61.7275 117.325 61.59 116.941 61.4576 116.556L61.1667 116.657C61.0323 116.266 60.9033 115.875 60.7796 115.482L61.0731 115.39C60.9502 115 60.8326 114.609 60.7203 114.217L60.4245 114.301C60.3113 113.906 60.2035 113.51 60.1011 113.112L60.3991 113.035C60.2971 112.639 60.2005 112.242 60.1094 111.844L59.8095 111.912C59.7178 111.512 59.6316 111.11 59.551 110.707L59.8527 110.646C59.7726 110.246 59.6981 109.844 59.6291 109.442L59.3258 109.494C59.2564 109.089 59.1926 108.683 59.1344 108.275L59.4391 108.232C59.3813 107.828 59.3293 107.422 59.283 107.016L58.9772 107.051C58.9307 106.643 58.8899 106.235 58.8548 105.825L59.1614 105.799C59.1266 105.392 59.0975 104.985 59.0742 104.577L58.767 104.594C58.7436 104.184 58.726 103.773 58.7142 103.361L59.0218 103.352C59.0102 102.945 59.0043 102.538 59.0043 102.13L58.6966 102.13C58.6965 101.719 58.7023 101.307 58.7139 100.894L59.0215 100.903C59.0273 100.698 59.0345 100.493 59.0432 100.288C59.0519 100.083 59.0621 99.8783 59.0737 99.6738L58.7665 99.6564C58.7899 99.2445 58.8191 98.8337 58.854 98.4241L59.1606 98.4502C59.1953 98.0435 59.2357 97.638 59.2818 97.2337L58.976 97.199C59.0227 96.7895 59.0751 96.3813 59.1333 95.9743L59.4379 96.0177C59.4957 95.613 59.5592 95.2095 59.6284 94.8073L59.3252 94.7553C59.3948 94.3501 59.4702 93.9463 59.5511 93.5438L59.8528 93.6044C59.9334 93.2037 60.0196 92.8044 60.1114 92.4064L59.8116 92.3373C59.9041 91.9365 60.0021 91.5371 60.1057 91.139L60.4035 91.2165C60.5063 90.8214 60.6146 90.4277 60.7284 90.0355L60.4329 89.9498C60.5474 89.5552 60.6674 89.1619 60.7927 88.7702L61.0858 88.8639C61.2103 88.4748 61.3402 88.0872 61.4755 87.701L61.1851 87.5994C61.3208 87.212 61.4619 86.826 61.6082 86.4416L61.8958 86.551C62.0409 86.1697 62.1912 85.79 62.3468 85.4117L62.0622 85.2948C62.2188 84.914 62.3805 84.5349 62.5475 84.1573L62.8289 84.2816C62.9934 83.9095 63.163 83.5389 63.3375 83.1699L63.0594 83.0384C63.235 82.667 63.4157 82.2973 63.6013 81.9292L63.876 82.0677C64.06 81.7029 64.2489 81.3397 64.4426 80.978L64.1714 80.8328C64.3648 80.472 64.5629 80.1128 64.7658 79.7553L65.0334 79.9071C65.235 79.5517 65.4414 79.1979 65.6525 78.8458L65.3886 78.6877C65.5996 78.3357 65.8152 77.9855 66.0354 77.6369L66.2955 77.8012C66.5129 77.4571 66.7348 77.1145 66.9612 76.7737L66.7049 76.6035C66.9326 76.2607 67.1648 75.9196 67.4014 75.5803L67.6538 75.7562C67.8866 75.4222 68.1238 75.0899 68.3652 74.7592L68.1167 74.5778C68.3583 74.247 68.6042 73.9179 68.8542 73.5905L69.0987 73.7772C69.3474 73.4516 69.6004 73.1276 69.8574 72.8054L69.6169 72.6135C69.8717 72.2942 70.1305 71.9765 70.3933 71.6606L70.6299 71.8573C70.8906 71.5438 71.1554 71.232 71.4241 70.922L71.1916 70.7205C71.4616 70.4089 71.7355 70.0991 72.0134 69.791L72.2419 69.997C72.5137 69.6956 72.7893 69.3958 73.0686 69.0978L72.8441 68.8875C73.1245 68.5883 73.4086 68.2909 73.6963 67.9952L73.9168 68.2098C74.2032 67.9155 74.4933 67.623 74.7869 67.3323L74.5705 67.1137C74.8601 66.827 75.1532 66.542 75.4497 66.2588L75.6622 66.4812C75.9574 66.1993 76.2561 65.919 76.5581 65.6405L76.3496 65.4143C76.653 65.1347 76.9597 64.8567 77.2699 64.5806L77.4745 64.8104C77.7775 64.5406 78.0837 64.2726 78.3932 64.0063L78.1925 63.7731C78.5032 63.5057 78.8172 63.24 79.1343 62.9761L79.3311 63.2125C79.647 62.9497 79.966 62.6886 80.2881 62.4293L80.0952 62.1897C80.4128 61.9341 80.7334 61.6802 81.0569 61.428L81.246 61.6707C81.568 61.4198 81.8929 61.1707 82.2208 60.9233L82.0355 60.6777C82.3646 60.4293 82.6967 60.1827 83.0317 59.9379L83.2132 60.1863C83.5417 59.9463 83.8729 59.7081 84.2069 59.4715L84.0291 59.2204C84.3633 58.9838 84.7002 58.7489 85.0398 58.5158L85.2139 58.7695C85.5523 58.5372 85.8934 58.3067 86.2373 58.0779L86.0669 57.8218C86.4076 57.595 86.751 57.3701 87.097 57.1468L87.2638 57.4054C87.6063 57.1844 87.9513 56.9652 88.2988 56.7477L88.1357 56.4869C88.4844 56.2686 88.8357 56.0521 89.1895 55.8374L89.3491 56.1004C89.699 55.8881 90.0513 55.6775 90.4061 55.4686L90.25 55.2035C90.602 54.9963 90.9563 54.7908 91.313 54.587L91.4655 54.8542C91.821 54.6511 92.1789 54.4498 92.5391 54.2501L92.39 53.981C92.7506 53.7812 93.1135 53.5831 93.4788 53.3867L93.6244 53.6577C93.9824 53.4653 94.3426 53.2745 94.7051 53.0854L94.5628 52.8126C94.9263 52.623 95.292 52.4351 95.6599 52.2489L95.7988 52.5234C96.1655 52.3378 96.5344 52.1539 96.9054 51.9718L96.7699 51.6956C97.137 51.5153 97.5062 51.3368 97.8774 51.16L98.0097 51.4378C98.378 51.2624 98.7484 51.0887 99.1208 50.9167L98.9918 50.6374C99.3653 50.4648 99.7408 50.2941 100.118 50.125L100.244 50.4058C100.618 50.2382 100.994 50.0723 101.372 49.9081L101.25 49.6259C101.625 49.4633 102.001 49.3023 102.379 49.1431L102.499 49.4267C102.876 49.2679 103.255 49.1108 103.636 48.9555L103.52 48.6706C103.902 48.5148 104.285 48.3608 104.671 48.2084L104.784 48.4946C105.163 48.3449 105.544 48.1968 105.926 48.0504L105.817 47.7631C106.199 47.6167 106.583 47.4721 106.969 47.3292L107.076 47.6178C107.46 47.4752 107.847 47.3344 108.235 47.1953L108.131 46.9057C108.519 46.7668 108.908 46.6297 109.298 46.4943L109.399 46.7851C109.784 46.6516 110.17 46.5199 110.559 46.3899L110.461 46.0981C110.85 45.9678 111.241 45.8391 111.633 45.7121L111.727 46.0048C112.119 45.8782 112.511 45.7533 112.905 45.63L112.814 45.3364C113.205 45.2141 113.597 45.0936 113.991 44.9748L114.08 45.2694C114.471 45.1515 114.863 45.0353 115.257 44.9208L115.171 44.6253C115.565 44.5105 115.962 44.3974 116.359 44.286L116.442 44.5823C116.838 44.4711 117.236 44.3617 117.636 44.254L117.556 43.9569C117.95 43.8506 118.345 43.746 118.742 43.643L118.819 43.9409C119.215 43.8382 119.612 43.7371 120.01 43.6378L119.936 43.3392C120.335 43.2397 120.736 43.1418 121.138 43.0456L121.209 43.3448C121.608 43.2493 122.009 43.1554 122.411 43.0632L122.342 42.7633C122.74 42.6719 123.14 42.5822 123.541 42.4942L123.607 42.7947C124.006 42.7069 124.407 42.6207 124.81 42.5362L124.747 42.2351C125.15 42.1504 125.554 42.0674 125.959 41.9862L126.02 42.2878C126.421 42.2073 126.824 42.1285 127.228 42.0513L127.171 41.7491C127.572 41.6723 127.975 41.5972 128.379 41.5238L128.434 41.8265C128.837 41.7532 129.242 41.6817 129.647 41.6117L129.595 41.3085C130.001 41.2385 130.408 41.1701 130.816 41.1034L130.866 41.4071C131.27 41.3411 131.674 41.2769 132.08 41.2143L132.033 40.9102C132.438 40.8477 132.843 40.787 133.25 40.7279L133.294 41.0324C133.7 40.9734 134.106 40.9161 134.514 40.8605L134.473 40.5556C134.881 40.4999 135.291 40.4458 135.701 40.3935L135.74 40.6987C136.145 40.647 136.552 40.5969 136.959 40.5485L136.923 40.243C137.329 40.1946 137.737 40.1479 138.145 40.1029L138.179 40.4088C138.587 40.3639 138.995 40.3206 139.405 40.279L139.374 39.9729C139.784 39.9312 140.195 39.8913 140.607 39.853L140.635 40.1593C141.042 40.1215 141.45 40.0854 141.858 40.0508L141.832 39.7442C142.241 39.7098 142.65 39.6769 143.06 39.6458L143.083 39.9526C143.492 39.9215 143.902 39.892 144.312 39.8642L144.291 39.5573C144.703 39.5294 145.115 39.5033 145.528 39.4788L145.546 39.786C145.954 39.7618 146.363 39.7393 146.772 39.7184L146.756 39.4111C147.166 39.3903 147.576 39.3711 147.986 39.3535L147.999 39.6609C148.409 39.6434 148.819 39.6276 149.231 39.6134L149.22 39.3059C149.632 39.2917 150.045 39.2791 150.458 39.2683L150.466 39.5759C150.875 39.5651 151.284 39.556 151.694 39.5486L151.689 39.241C152.099 39.2335 152.509 39.2277 152.92 39.2236L152.923 39.5313C153.333 39.5272 153.743 39.5247 154.155 39.5239L154.154 39.2163C154.566 39.2155 154.979 39.2163 155.393 39.2189L155.391 39.5266C155.8 39.5291 156.21 39.5333 156.62 39.5391L156.625 39.2314C157.034 39.2372 157.444 39.2447 157.855 39.2538L157.848 39.5614C158.258 39.5705 158.668 39.5813 159.079 39.5937L159.089 39.2861C159.5 39.2985 159.913 39.3126 160.325 39.3284L160.314 39.6359C160.52 39.6437 160.726 39.652 160.932 39.6607C161.138 39.6694 161.344 39.6785 161.55 39.688L161.565 39.3807C161.977 39.3997 162.389 39.4204 162.801 39.4427L162.784 39.75C163.195 39.7722 163.604 39.7961 164.014 39.8215L164.033 39.5144C164.443 39.5399 164.852 39.567 165.261 39.5957L165.239 39.9027C165.648 39.9314 166.057 39.9618 166.465 39.9938L166.489 39.687C166.901 39.7193 167.313 39.7532 167.723 39.7887L167.697 40.0952C168.107 40.1307 168.516 40.1677 168.924 40.2063L168.953 39.9C169.362 39.9387 169.77 39.979 170.178 40.0209L170.146 40.327C170.554 40.3689 170.961 40.4125 171.368 40.4576L171.402 40.1518C171.813 40.1974 172.223 40.2447 172.632 40.2935L172.596 40.5991C173.004 40.6478 173.412 40.6982 173.819 40.7501L173.858 40.4449C174.265 40.497 174.672 40.5507 175.078 40.6059L175.037 40.9108C175.443 40.966 175.848 41.0229 176.252 41.0813L176.296 40.7768C176.706 40.836 177.114 40.8967 177.522 40.9591L177.475 41.2633C177.882 41.3255 178.288 41.3894 178.693 41.4548L178.742 41.1511C179.148 41.2166 179.552 41.2838 179.956 41.3526L179.905 41.6559C180.309 41.7247 180.712 41.795 181.114 41.867L181.168 41.5641C181.575 41.6369 181.982 41.7114 182.387 41.7875L182.33 42.0899C182.734 42.1658 183.138 42.2433 183.54 42.3224L183.6 42.0205C184.003 42.0997 184.405 42.1806 184.806 42.263L184.744 42.5644C185.146 42.6469 185.547 42.731 185.946 42.8167L186.011 42.5158C186.415 42.6026 186.819 42.6909 187.221 42.7809L187.154 43.0812C187.555 43.1709 187.956 43.2623 188.355 43.3552L188.425 43.0555C188.825 43.1486 189.224 43.2433 189.622 43.3396L189.549 43.6387C189.948 43.7352 190.346 43.8333 190.743 43.933L190.818 43.6346C191.219 43.7355 191.619 43.8379 192.018 43.9419L191.94 44.2396C192.338 44.3434 192.734 44.4488 193.13 44.5558L193.21 44.2587C193.607 44.3659 194.002 44.4747 194.396 44.585L194.313 44.8813C194.709 44.9922 195.103 45.1047 195.497 45.2188L195.582 44.9233C195.98 45.0384 196.375 45.1552 196.77 45.2735L196.681 45.5682C197.075 45.6862 197.467 45.8059 197.858 45.9271L197.949 45.6332C198.341 45.7547 198.732 45.8777 199.121 46.0023L199.027 46.2953C199.419 46.421 199.811 46.5483 200.2 46.6772L200.297 46.385C200.689 46.5147 201.08 46.646 201.47 46.7788L201.37 47.07C201.759 47.2026 202.146 47.3367 202.531 47.4724L202.634 47.1821C203.02 47.3181 203.405 47.4557 203.789 47.5948L203.684 47.884C204.073 48.025 204.46 48.1675 204.846 48.3117L204.953 48.0234C205.34 48.1679 205.725 48.314 206.108 48.4616L205.998 48.7488C206.38 48.896 206.761 49.0449 207.141 49.1952L207.254 48.9092C207.637 49.0608 208.018 49.2139 208.397 49.3686L208.28 49.6535C208.663 49.8095 209.044 49.9671 209.423 50.1262L209.542 49.8425C209.922 50.002 210.3 50.1632 210.677 50.3258L210.555 50.6083C210.93 50.7706 211.304 50.9344 211.676 51.0997L211.801 50.8185C212.179 50.9863 212.555 51.1557 212.929 51.3267L212.801 51.6065C213.176 51.7778 213.549 51.9507 213.921 52.1251L214.052 51.8466C214.424 52.0215 214.794 52.1979 215.163 52.3759L215.029 52.653C215.398 52.8311 215.765 53.0107 216.13 53.1918L216.267 52.9162C216.638 53.1004 217.007 53.2863 217.375 53.4737L217.235 53.7478C217.601 53.9346 217.966 54.1231 218.328 54.313L218.471 54.0405C218.834 54.231 219.196 54.4231 219.555 54.6167L219.409 54.8876C219.772 55.083 220.133 55.28 220.492 55.4786L220.641 55.2094C221.002 55.4096 221.362 55.6114 221.72 55.8147L221.567 56.0822C221.924 56.2849 222.278 56.4892 222.63 56.695L222.786 56.4294C223.141 56.6368 223.493 56.8458 223.844 57.0563L223.685 57.3201C224.04 57.5328 224.392 57.7471 224.741 57.9629L224.903 57.7011C225.254 57.9176 225.602 58.1356 225.948 58.3552L225.783 58.6151C226.128 58.834 226.471 59.0544 226.812 59.2763L226.98 59.0186C227.327 59.245 227.672 59.4729 228.014 59.7025L227.843 59.958C228.185 60.1873 228.524 60.4181 228.861 60.6504L229.036 60.397C229.374 60.6301 229.71 60.8646 230.043 61.1008L229.865 61.3518C230.201 61.5898 230.534 61.8293 230.864 62.0704L231.046 61.8217C231.38 62.0655 231.712 62.3108 232.041 62.5576L231.856 62.8038C232.184 63.0498 232.509 63.2973 232.832 63.5463L233.02 63.3027C233.345 63.5543 233.669 63.8074 233.989 64.062L233.797 64.3029C234.121 64.5598 234.441 64.8182 234.758 65.0782L234.953 64.8401C235.272 65.101 235.588 65.3634 235.901 65.6273L235.702 65.8625C236.015 66.1263 236.325 66.3916 236.632 66.6584L236.834 66.4262C237.147 66.6983 237.457 66.972 237.764 67.2472L237.558 67.4763C237.864 67.7505 238.167 68.0261 238.466 68.3032L238.675 68.0773C238.976 68.3558 239.274 68.6358 239.569 68.9172L239.356 69.1398C239.655 69.4253 239.951 69.7123 240.243 70.0008L240.459 69.7817C240.753 70.0714 241.043 70.3626 241.33 70.6552L241.111 70.8707C241.396 71.1621 241.679 71.455 241.958 71.7493L242.181 71.5376C242.467 71.8388 242.749 72.1416 243.027 72.4458L242.8 72.6536C243.078 72.9566 243.352 73.261 243.622 73.5668L243.852 73.363C244.124 73.6702 244.392 73.9788 244.656 74.2889L244.422 74.4885C244.69 74.803 244.954 75.1189 245.214 75.4362L245.452 75.241C245.714 75.5598 245.972 75.8801 246.226 76.2018L245.984 76.3925C246.237 76.713 246.486 77.0348 246.732 77.3581L246.977 77.172C247.228 77.5024 247.474 77.8342 247.717 78.1674L247.468 78.3486C247.71 78.6802 247.947 79.0131 248.18 79.3475L248.433 79.1714C248.668 79.5083 248.899 79.8466 249.125 80.1863L248.869 80.3572C249.098 80.6999 249.323 81.044 249.543 81.3895L249.802 81.224C250.024 81.5713 250.241 81.9199 250.454 82.2699L250.191 82.4298C250.403 82.7795 250.611 83.1306 250.815 83.483L251.081 83.329C251.288 83.6871 251.491 84.0465 251.688 84.4073L251.419 84.5553C251.615 84.9139 251.807 85.2739 251.995 85.6352L252.268 85.4934C252.458 85.8592 252.643 86.2264 252.823 86.5948L252.547 86.7302C252.727 87.0988 252.903 87.4687 253.074 87.8398L253.353 87.7111C253.525 88.0844 253.692 88.459 253.854 88.8348L253.572 88.9567C253.734 89.3333 253.891 89.7112 254.044 90.0902L254.329 89.9753C254.483 90.3577 254.632 90.7414 254.775 91.1261L254.487 91.2337C254.63 91.6162 254.767 91.9997 254.899 92.3844L255.19 92.2842C255.325 92.6745 255.454 93.0659 255.577 93.4585L255.284 93.551C255.407 93.941 255.524 94.3321 255.637 94.7242L255.933 94.6394C256.046 95.0348 256.154 95.4312 256.256 95.8287L255.958 95.9055C256.06 96.3017 256.156 96.6989 256.248 97.0971L256.548 97.0284C256.639 97.4293 256.725 97.8312 256.806 98.2341L256.504 98.2945C256.584 98.695 256.659 99.0964 256.728 99.4987L257.031 99.4466C257.101 99.8519 257.164 100.258 257.223 100.665L256.918 100.709C256.976 101.113 257.028 101.518 257.074 101.924L257.38 101.89C257.426 102.297 257.467 102.706 257.502 103.116L257.196 103.142C257.23 103.549 257.259 103.956 257.283 104.364L257.59 104.346C257.613 104.757 257.631 105.168 257.643 105.58L257.335 105.589C257.347 105.996 257.353 106.403 257.353 106.811L257.66 106.811Z" stroke="#595959" stroke-width="0.615384" stroke-dasharray="1.23 1.23"/>
<path d="M251.519 17.3125C264.559 30.161 266.869 51.4577 259.94 75.592C253.015 99.7139 236.877 126.593 213.156 150.497C189.435 174.402 162.643 190.784 138.514 197.955C114.373 205.13 92.9763 203.069 79.9362 190.22C66.8961 177.371 64.5866 156.075 71.5154 131.941C78.4406 107.819 94.5785 80.9394 118.3 57.035C142.021 33.1306 168.813 16.7488 192.941 9.57742C217.082 2.40231 238.479 4.46398 251.519 17.3125Z" stroke="#7246EE" stroke-width="0.615385"/>
<ellipse cx="1.98971" cy="1.9845" rx="1.98971" ry="1.9845" transform="matrix(0.932541 0.361065 -0.363303 0.931671 168.293 84.9331)" fill="#7246EE"/>
<ellipse cx="1.98971" cy="1.9845" rx="1.98971" ry="1.9845" transform="matrix(0.932541 0.361065 -0.363303 0.931671 178.245 149.399)" fill="#595959"/>
<path d="M238.33 95.6591C237.596 97.5423 235.468 98.4769 233.576 97.7445C231.684 97.012 230.748 94.8908 231.482 93.0076C232.216 91.1244 234.344 90.1898 236.236 90.9222C238.128 91.6547 239.064 93.7759 238.33 95.6591Z" fill="#F8F8FA" stroke="#595959" stroke-width="0.615385"/>
<path d="M107.297 71.2474C106.961 72.1095 105.986 72.538 105.119 72.2023C104.252 71.8666 103.824 70.8948 104.16 70.0328C104.496 69.1707 105.47 68.7421 106.337 69.0778C107.204 69.4135 107.633 70.3853 107.297 71.2474Z" fill="#F8F8FA" stroke="#595959" stroke-width="0.615385"/>
<ellipse cx="1.98971" cy="1.9845" rx="1.98971" ry="1.9845" transform="matrix(0.932541 0.361065 -0.363303 0.931671 66.2742 154.358)" fill="#7246EE"/>
<ellipse cx="1.98971" cy="1.9845" rx="1.98971" ry="1.9845" transform="matrix(0.932541 0.361065 -0.363303 0.931671 242.94 137.002)" fill="#7246EE"/>
<path d="M135.888 139.34C135.353 140.713 133.801 141.394 132.422 140.86C131.043 140.326 130.36 138.78 130.895 137.407C131.431 136.034 132.982 135.353 134.361 135.887C135.741 136.421 136.423 137.967 135.888 139.34Z" fill="#D0C4F2" stroke="#7246EE" stroke-width="0.615385"/>
<path d="M139.357 198.855C139.021 199.717 138.046 200.145 137.179 199.81C136.312 199.474 135.884 198.502 136.22 197.64C136.556 196.778 137.531 196.35 138.398 196.685C139.265 197.021 139.693 197.993 139.357 198.855Z" fill="#D0C4F2" stroke="#7246EE" stroke-width="0.615385"/>
</g>
<defs>
<clipPath id="clip0_6169_149292">
<rect width="320" height="208" fill="white"/>
</clipPath>
</defs>
</svg>
