<svg width="520" height="260" viewBox="0 0 520 260" fill="none" xmlns="http://www.w3.org/2000/svg">
<path d="M188.656 136L336.656 136" stroke="#040000" stroke-miterlimit="10" stroke-dasharray="2 2"/>
<path d="M191.79 208.75V202.25L185.722 199L179.656 202.25V208.75L185.722 212L191.79 208.75Z" stroke="#040000" stroke-width="0.866667" stroke-miterlimit="10"/>
<path d="M334.656 98.25V92.75L329.656 90L324.656 92.75V98.25L329.656 101L334.656 98.25Z" stroke="#040000" stroke-miterlimit="10"/>
<path d="M408.656 206C448.421 206 480.656 173.765 480.656 134C480.656 94.2355 448.421 62 408.656 62C368.892 62 336.656 94.2355 336.656 134C336.656 173.765 368.892 206 408.656 206Z" stroke="black" stroke-width="0.8" stroke-miterlimit="10"/>
<path d="M408.747 173.425C430.336 173.425 447.837 155.869 447.837 134.212C447.837 112.556 430.336 95 408.747 95C387.158 95 369.656 112.556 369.656 134.212C369.656 155.869 387.158 173.425 408.747 173.425Z" fill="#F9FAF7" stroke="black" stroke-width="0.8" stroke-miterlimit="10" stroke-dasharray="4 4"/>
<path d="M440.156 134C440.156 151.404 426.27 165.5 409.156 165.5C392.043 165.5 378.156 151.404 378.156 134C378.156 116.596 392.043 102.5 409.156 102.5C426.27 102.5 440.156 116.596 440.156 134Z" fill="#1A1A1A" stroke="black"/>
<g clip-path="url(#clip0_6235_147206)">
<path d="M401.128 130.406C401.128 130.406 400.737 119.733 409.197 119.733C417.658 119.733 417.137 130.406 417.137 130.406H414.924C414.924 130.406 414.859 122.336 409.197 122.141C403.536 121.946 403.861 130.406 403.861 130.406H401.128Z" fill="white"/>
<path d="M418.615 139.974L418.633 131.066H409.327H400.02L399.908 139.974C399.926 145.124 404.106 149.304 409.262 149.304C414.417 149.304 418.615 145.13 418.615 139.974Z" fill="white"/>
<path d="M409.26 135.404C408.243 135.404 407.424 136.224 407.424 137.24C407.424 137.981 407.856 138.623 408.487 138.915V143.497H410.234V138.803C410.754 138.477 411.104 137.899 411.104 137.24C411.104 136.224 410.276 135.404 409.26 135.404Z" fill="black"/>
</g>
<path d="M453.406 60.4993C456.029 60.4993 458.155 58.3728 458.155 55.7496C458.155 53.1265 456.029 51 453.406 51C450.783 51 448.656 53.1265 448.656 55.7496C448.656 58.3728 450.783 60.4993 453.406 60.4993Z" stroke="black" stroke-width="0.86" stroke-miterlimit="10"/>
<rect width="55.0007" height="64.3625" transform="translate(233.656 108.319)" fill="white"/>
<path d="M233.656 124.236L260.644 140.154" stroke="#040000" stroke-miterlimit="10"/>
<path d="M260.645 139.808L288.316 124.583" stroke="#040000" stroke-miterlimit="10"/>
<path d="M288.657 156.592V124.408L261.155 108.319L233.656 124.408V156.592L261.155 172.681L288.657 156.592Z" stroke="#040000" stroke-miterlimit="10"/>
<path d="M260.656 140V172.5" stroke="black"/>
<rect x="248.656" y="91" width="26" height="30.8148" fill="white" stroke="#040000" stroke-miterlimit="10"/>
<path d="M256.359 105.517L259.933 109.097L267.204 101.807" stroke="#7CA016" stroke-width="2.5" stroke-miterlimit="10"/>
<path d="M221.567 74.6L221.183 74.5894C214.583 74.6149 209.246 80.0477 209.246 86.4995C209.246 93.0774 214.61 98.4107 221.227 98.4107H221.228H221.229H221.229H221.23H221.23H221.231H221.232H221.232H221.233H221.234H221.234H221.235H221.236H221.236H221.237H221.237H221.238H221.239H221.239H221.24H221.241H221.241H221.242H221.243H221.243H221.244H221.244H221.245H221.246H221.246H221.247H221.248H221.248H221.249H221.25H221.25H221.251H221.251H221.252H221.253H221.253H221.254H221.255H221.255H221.256H221.257H221.257H221.258H221.258H221.259H221.26H221.26H221.261H221.262H221.262H221.263H221.264H221.264H221.265H221.265H221.266H221.267H221.267H221.268H221.269H221.269H221.27H221.271H221.271H221.272H221.272H221.273H221.274H221.274H221.275H221.276H221.276H221.277H221.278H221.278H221.279H221.279H221.28H221.281H221.281H221.282H221.283H221.283H221.284H221.285H221.285H221.286H221.286H221.287H221.288H221.288H221.289H221.29H221.29H221.291H221.292H221.292H221.293H221.293H221.294H221.295H221.295H221.296H221.297H221.297H221.298H221.299H221.299H221.3H221.3H221.301H221.302H221.302H221.303H221.304H221.304H221.305H221.306H221.306H221.307H221.307H221.308H221.309H221.309H221.31H221.311H221.311H221.312H221.313H221.313H221.314H221.314H221.315H221.316H221.316H221.317H221.318H221.318H221.319H221.32H221.32H221.321H221.321H221.322H221.323H221.323H221.324H221.325H221.325H221.326H221.327H221.327H221.328H221.328H221.329H221.33H221.33H221.331H221.332H221.332H221.333H221.334H221.334H221.335H221.335H221.336H221.337H221.337H221.338H221.339H221.339H221.34H221.34H221.341H221.342H221.342H221.343H221.344H221.344H221.345H221.346H221.346H221.347H221.347H221.348H221.349H221.349H221.35H221.351H221.351H221.352H221.353H221.353H221.354H221.354H221.355H221.356H221.356H221.357H221.358H221.358H221.359H221.36H221.36H221.361H221.361H221.362H221.363H221.363H221.364H221.365H221.365H221.366H221.367H221.367H221.368H221.368H221.369H221.37H221.37H221.371H221.372H221.372H221.373H221.374H221.374H221.375H221.375H221.376H221.377H221.377H221.378H221.379H221.379H221.38H221.381H221.381H221.382H221.382H221.383H221.384H221.384H221.385H221.386H221.386H221.387H221.388H221.388H221.389H221.389H221.39H221.391H221.391H221.392H221.393H221.393H221.394H221.395H221.395H221.396H221.396H221.397H221.398H221.398H221.399H221.4H221.4H221.401H221.402H221.402H221.403H221.403H221.404H221.405H221.405H221.406H221.407H221.407H221.408H221.409H221.409H221.41H221.41H221.411H221.412H221.412H221.413H221.414H221.414H221.415H221.416H221.416H221.417H221.417H221.418H221.419H221.419H221.42H221.421H221.421H221.422H221.423H221.423H221.424H221.424H221.425H221.426H221.426H221.427H221.428H221.428H221.429H221.43H221.43H221.431H221.431H221.432H221.433H221.433H221.434H221.435H221.435H221.436H221.437H221.437H221.438H221.438H221.439H221.44H221.44H221.441H221.442H221.442H221.443H221.444H221.444H221.445H221.445H221.446H221.447H221.447H221.448H221.449H221.449H221.45H221.451H221.451H221.452H221.452H221.453H221.454H221.454H221.455H221.456H221.456H221.457H221.458H221.458H221.459H221.459H221.46H221.461H221.461H221.462H221.463H221.463H221.464H221.464H221.465H221.466H221.466H221.467H221.468H221.468H221.469H221.47H221.47H221.471H221.471H221.472H221.473H221.473H221.474H221.475H221.475H221.476H221.477H221.477H221.478H221.478H221.479H221.48H221.48H221.481H221.482H221.482H221.483H221.484H221.484H221.485H221.485H221.486H221.487H221.487H221.488H221.489H221.489H221.49H221.491H221.491H221.492H221.492H221.493H221.494H221.494H221.495H221.496H221.496H221.497H221.498H221.498H221.499H221.499H221.5H221.501H221.501H221.502H221.503H221.503H221.504H221.505H221.505H221.506H221.506H221.507H221.508H221.508H221.509H221.51H221.51H221.511H221.512H221.512H221.513H221.513H221.514H221.515H221.515H221.516H221.517H221.517H221.518H221.519H221.519H221.52H221.52H221.521H221.522H221.522H221.523H221.524H221.524H221.525H221.526H221.526H221.527H221.527H221.528H221.529H221.529H221.53H221.531H221.531H221.532H221.533H221.533H221.534H221.534H221.535H221.536H221.536H221.537H221.538H221.538H221.539H221.54H221.54H221.541H221.541H221.542H221.543H221.543H221.544H221.545H221.545H221.546H221.547H221.547H221.548H221.548H221.549H221.55H221.55H221.551H221.552H221.552H221.553H235.554L232.096 93.236L232.096 93.2361L232.092 93.2291C231.816 92.8033 231.746 92.2413 231.991 91.7429L231.992 91.742C232.853 90.0008 233.301 88.014 233.198 85.917L233.198 85.9165C232.899 79.7587 227.774 74.7715 221.567 74.6Z" fill="#1A1A1A" stroke="black" stroke-width="1.1787"/>
<path d="M299.052 49.6031L299.549 49.5895C308.13 49.6209 315.067 56.6519 315.067 64.9993C315.067 73.5087 308.096 80.4107 299.493 80.4107H299.493H299.492H299.491H299.49H299.489H299.489H299.488H299.487H299.486H299.485H299.484H299.484H299.483H299.482H299.481H299.48H299.48H299.479H299.478H299.477H299.476H299.475H299.475H299.474H299.473H299.472H299.471H299.471H299.47H299.469H299.468H299.467H299.466H299.466H299.465H299.464H299.463H299.462H299.462H299.461H299.46H299.459H299.458H299.457H299.457H299.456H299.455H299.454H299.453H299.453H299.452H299.451H299.45H299.449H299.448H299.448H299.447H299.446H299.445H299.444H299.444H299.443H299.442H299.441H299.44H299.439H299.439H299.438H299.437H299.436H299.435H299.435H299.434H299.433H299.432H299.431H299.431H299.43H299.429H299.428H299.427H299.426H299.426H299.425H299.424H299.423H299.422H299.422H299.421H299.42H299.419H299.418H299.417H299.417H299.416H299.415H299.414H299.413H299.413H299.412H299.411H299.41H299.409H299.408H299.408H299.407H299.406H299.405H299.404H299.404H299.403H299.402H299.401H299.4H299.399H299.399H299.398H299.397H299.396H299.395H299.395H299.394H299.393H299.392H299.391H299.39H299.39H299.389H299.388H299.387H299.386H299.386H299.385H299.384H299.383H299.382H299.381H299.381H299.38H299.379H299.378H299.377H299.377H299.376H299.375H299.374H299.373H299.372H299.372H299.371H299.37H299.369H299.368H299.368H299.367H299.366H299.365H299.364H299.363H299.363H299.362H299.361H299.36H299.359H299.359H299.358H299.357H299.356H299.355H299.354H299.354H299.353H299.352H299.351H299.35H299.35H299.349H299.348H299.347H299.346H299.345H299.345H299.344H299.343H299.342H299.341H299.341H299.34H299.339H299.338H299.337H299.336H299.336H299.335H299.334H299.333H299.332H299.332H299.331H299.33H299.329H299.328H299.327H299.327H299.326H299.325H299.324H299.323H299.323H299.322H299.321H299.32H299.319H299.318H299.318H299.317H299.316H299.315H299.314H299.314H299.313H299.312H299.311H299.31H299.31H299.309H299.308H299.307H299.306H299.305H299.305H299.304H299.303H299.302H299.301H299.301H299.3H299.299H299.298H299.297H299.296H299.296H299.295H299.294H299.293H299.292H299.292H299.291H299.29H299.289H299.288H299.287H299.287H299.286H299.285H299.284H299.283H299.283H299.282H299.281H299.28H299.279H299.278H299.278H299.277H299.276H299.275H299.274H299.274H299.273H299.272H299.271H299.27H299.269H299.269H299.268H299.267H299.266H299.265H299.265H299.264H299.263H299.262H299.261H299.26H299.26H299.259H299.258H299.257H299.256H299.256H299.255H299.254H299.253H299.252H299.251H299.251H299.25H299.249H299.248H299.247H299.247H299.246H299.245H299.244H299.243H299.242H299.242H299.241H299.24H299.239H299.238H299.238H299.237H299.236H299.235H299.234H299.233H299.233H299.232H299.231H299.23H299.229H299.229H299.228H299.227H299.226H299.225H299.224H299.224H299.223H299.222H299.221H299.22H299.22H299.219H299.218H299.217H299.216H299.215H299.215H299.214H299.213H299.212H299.211H299.211H299.21H299.209H299.208H299.207H299.206H299.206H299.205H299.204H299.203H299.202H299.202H299.201H299.2H299.199H299.198H299.197H299.197H299.196H299.195H299.194H299.193H299.193H299.192H299.191H299.19H299.189H299.189H299.188H299.187H299.186H299.185H299.184H299.184H299.183H299.182H299.181H299.18H299.18H299.179H299.178H299.177H299.176H299.175H299.175H299.174H299.173H299.172H299.171H299.171H299.17H299.169H299.168H299.167H299.166H299.166H299.165H299.164H299.163H299.162H299.162H299.161H299.16H299.159H299.158H299.157H299.157H299.156H299.155H299.154H299.153H299.153H299.152H299.151H299.15H299.149H299.148H299.148H299.147H299.146H299.145H299.144H299.144H299.143H299.142H299.141H299.14H299.139H299.139H299.138H299.137H299.136H299.135H299.135H299.134H299.133H299.132H299.131H299.13H299.13H299.129H299.128H299.127H299.126H299.126H299.125H299.124H299.123H299.122H299.121H299.121H299.12H299.119H299.118H299.117H299.117H299.116H299.115H299.114H299.113H299.112H299.112H299.111H299.11H299.109H299.108H299.108H299.107H299.106H299.105H299.104H299.103H299.103H299.102H299.101H299.1H299.099H299.099H299.098H299.097H299.096H299.095H299.094H299.094H299.093H299.092H299.091H299.09H299.09H299.089H299.088H299.087H299.086H299.085H299.085H299.084H299.083H299.082H299.081H299.081H299.08H299.079H299.078H299.077H299.076H299.076H299.075H280.762L285.378 73.5314L285.378 73.5315L285.383 73.5246C285.709 73.0229 285.79 72.3643 285.502 71.7829L285.502 71.782C284.383 69.529 283.8 66.9584 283.935 64.2457L283.935 64.2452C284.323 56.2782 290.982 49.825 299.052 49.6031Z" fill="#1A1A1A" stroke="black" stroke-width="1.1787"/>
<g clip-path="url(#clip1_6235_147206)">
<path d="M308.08 58.4492C305.041 57.484 301.702 58.1016 299.207 60.0541C296.712 58.1016 293.373 57.484 290.334 58.4492L289.681 58.6561L289.656 58.6645L289.795 59.2303L289.825 59.3558C289.827 59.3619 289.829 59.3688 289.83 59.3749C289.852 59.46 289.874 59.5445 289.897 59.6289C289.898 59.6357 289.9 59.6426 289.903 59.6494C290.716 62.564 292.861 64.9234 295.641 66.0285C295.578 66.3936 295.538 66.7587 295.517 67.1237C295.354 70.0148 296.496 72.8571 298.698 74.8369L299.207 75.294L299.716 74.8369C301.918 72.8563 303.061 70.0148 302.897 67.1237C302.408 67.3025 301.904 67.4455 301.391 67.5512C301.42 69.6345 300.649 71.663 299.207 73.2069C297.765 71.6637 296.994 69.6345 297.023 67.5512C297.029 67.1945 297.056 66.837 297.109 66.4795C297.112 66.4795 297.115 66.4803 297.117 66.481C297.133 66.335 297.153 66.1897 297.178 66.046C297.241 65.6878 297.333 65.3371 297.452 64.9964C297.566 64.6739 297.704 64.3605 297.867 64.0578C297.945 63.8996 298.028 63.7437 298.116 63.5908C298.243 63.3718 298.379 63.1603 298.524 62.9557C298.406 62.818 298.282 62.6842 298.151 62.5572C297.914 62.3259 297.658 62.116 297.388 61.9282C297.176 62.2164 296.979 62.5176 296.799 62.8302C296.484 63.3756 296.224 63.9483 296.021 64.54C293.915 63.641 292.263 61.8703 291.514 59.7072C293.79 59.2106 296.192 59.7217 298.071 61.1014C298.07 61.1022 298.069 61.1037 298.068 61.1044C298.258 61.2398 298.44 61.3843 298.615 61.5372C298.71 61.6201 298.804 61.7061 298.894 61.7943C298.912 61.8118 298.929 61.8293 298.946 61.8468C298.964 61.8643 298.98 61.8818 298.998 61.8993C299.038 61.9403 299.078 61.9806 299.117 62.0225C299.147 62.0537 299.177 62.0833 299.207 62.1145C299.623 62.5625 299.989 63.0561 300.298 63.59C300.558 64.0403 300.772 64.5126 300.941 65.0002C300.374 65.1234 299.793 65.1873 299.207 65.1873C298.98 65.1873 298.753 65.1774 298.528 65.1584C298.34 65.6353 298.22 66.1365 298.17 66.6522C298.551 66.6925 298.936 66.7107 299.32 66.7062C299.343 66.7062 299.365 66.7062 299.387 66.7047C299.466 66.7031 299.543 66.7009 299.621 66.6978C299.647 66.6963 299.674 66.6948 299.701 66.694C299.774 66.6902 299.847 66.6864 299.92 66.6811C299.959 66.678 299.998 66.6742 300.038 66.6712C300.098 66.6659 300.158 66.6613 300.219 66.6552C300.32 66.6446 300.422 66.6332 300.522 66.6195C300.524 66.6195 300.527 66.6195 300.53 66.6187C300.612 66.6073 300.693 66.5951 300.775 66.5822C300.783 66.5807 300.792 66.5792 300.8 66.5776C300.876 66.5647 300.952 66.5518 301.028 66.5373C301.039 66.535 301.051 66.5328 301.062 66.5305C301.137 66.516 301.213 66.5001 301.287 66.4841C301.305 66.4803 301.322 66.4765 301.34 66.4727C301.581 66.4187 301.817 66.3556 302.051 66.2841C302.174 66.246 302.296 66.2057 302.417 66.1631L302.422 66.1608C302.506 66.1312 302.59 66.0992 302.673 66.0673C302.706 66.0544 302.739 66.0422 302.772 66.0285C305.554 64.9203 307.703 62.5427 308.511 59.6502C308.513 59.6433 308.515 59.6365 308.517 59.6296C308.541 59.5452 308.563 59.4608 308.584 59.3756C308.596 59.3277 308.608 59.2798 308.619 59.2311C308.663 59.0417 308.7 58.8508 308.733 58.6576L308.08 58.4507V58.4492ZM302.393 64.5393C302.191 63.9475 301.931 63.3748 301.615 62.8295C301.254 62.205 300.829 61.6262 300.343 61.1006C302.222 59.7217 304.625 59.2098 306.9 59.7065C306.151 61.8696 304.499 63.6402 302.393 64.5393Z" fill="white"/>
</g>
<path d="M228.656 83H214.656V86H228.656V83Z" fill="white"/>
<path d="M223.656 88H214.656V91H223.656V88Z" fill="white"/>
<path d="M84.4986 199.092C109.074 199.092 128.997 179.19 128.997 154.639C128.997 130.089 109.074 110.187 84.4986 110.187C59.9227 110.187 40 130.089 40 154.639C40 179.19 59.9227 199.092 84.4986 199.092Z" fill="#E9F2B3" fill-opacity="0.1" stroke="black" stroke-width="0.69246" stroke-miterlimit="10"/>
<path d="M148.159 199.092C172.735 199.092 192.657 179.19 192.657 154.639C192.657 130.089 172.735 110.187 148.159 110.187C123.583 110.187 103.66 130.089 103.66 154.639C103.66 179.19 123.583 199.092 148.159 199.092Z" fill="#E9F2B3" fill-opacity="0.3" stroke="black" stroke-width="0.69246" stroke-miterlimit="10"/>
<path d="M116.323 145.813C140.899 145.813 160.821 125.911 160.821 101.36C160.821 76.8095 140.899 56.9072 116.323 56.9072C91.7469 56.9072 71.8242 76.8095 71.8242 101.36C71.8242 125.911 91.7469 145.813 116.323 145.813Z" fill="#E9F2B3" fill-opacity="0.7" stroke="black" stroke-width="0.69246" stroke-miterlimit="10"/>
<path fill-rule="evenodd" clip-rule="evenodd" d="M116.329 123.575C108.491 131.589 103.66 142.551 103.66 154.639C103.66 166.728 108.491 177.69 116.329 185.704C124.167 177.69 128.997 166.728 128.997 154.639C128.997 142.551 124.167 131.589 116.329 123.575Z" fill="#7CA016" fill-opacity="0.3"/>
<path fill-rule="evenodd" clip-rule="evenodd" d="M159.617 111.676C154.961 131.253 137.344 145.815 116.323 145.815C112.361 145.815 108.52 145.298 104.863 144.327C109.519 124.75 127.136 110.188 148.158 110.188C152.12 110.188 155.961 110.705 159.617 111.676Z" fill="#7CA016" fill-opacity="0.3"/>
<path fill-rule="evenodd" clip-rule="evenodd" d="M127.791 144.325C124.133 145.297 120.289 145.815 116.323 145.815C95.3026 145.815 77.6861 131.254 73.0293 111.678C76.6881 110.706 80.5321 110.188 84.4973 110.188C105.518 110.188 123.135 124.749 127.791 144.325Z" fill="#7CA016" fill-opacity="0.3"/>
<path d="M49.2328 84.8363V79.7583L44.616 77.2192L40 79.7583V84.8363L44.616 87.3753L49.2328 84.8363Z" stroke="#040000" stroke-width="0.923279" stroke-miterlimit="10"/>
<path d="M148.159 199.092C172.735 199.092 192.657 179.19 192.657 154.639C192.657 130.088 172.735 110.186 148.159 110.186C123.583 110.186 103.66 130.088 103.66 154.639C103.66 179.19 123.583 199.092 148.159 199.092Z" stroke="black" stroke-width="0.334996" stroke-miterlimit="10"/>
<path d="M84.4986 199.092C109.074 199.092 128.997 179.19 128.997 154.639C128.997 130.088 109.074 110.186 84.4986 110.186C59.9227 110.186 40 130.088 40 154.639C40 179.19 59.9227 199.092 84.4986 199.092Z" stroke="black" stroke-width="0.334996" stroke-miterlimit="10"/>
<defs>
<clipPath id="clip0_6235_147206">
<rect width="19" height="29.64" fill="white" transform="translate(399.656 119.68)"/>
</clipPath>
<clipPath id="clip1_6235_147206">
<rect width="19.0764" height="17.2943" fill="white" transform="translate(289.656 58)"/>
</clipPath>
</defs>
</svg>
