<svg width="1em" height="1em" viewBox="0 0 64 64" fill="none" xmlns="http://www.w3.org/2000/svg">
<rect x="0.5" y="0.5" width="63" height="63" rx="31.5" fill="white" stroke="#D9D9D9"/>
<path d="M41.6708 27.8774H35.2236L36.3334 32.9995H45.0001L41.6708 27.8774Z" fill="#875CFF"/>
<path d="M36.5976 20.0733L32 13L33.5325 20.0733H36.5976Z" fill="#875CFF"/>
<path d="M34.907 26.4158H40.72L37.5493 21.5376H33.8501L34.907 26.4158Z" fill="#875CFF"/>
<path d="M32.0004 13L27.4028 20.0733H33.5329L32.0004 13Z" fill="#EC98FF"/>
<path d="M22.3293 27.8774L19 32.9995H36.3334L35.2236 27.8774H22.3293Z" fill="#EC98FF"/>
<path d="M33.8499 21.5376H26.4515L23.2808 26.4158H34.9068L33.8499 21.5376Z" fill="#EC98FF"/>
<path d="M19.1897 39L23.6261 44.5784V40.7113C23.6261 40.1719 23.5487 39.807 23.394 39.6169C23.1818 39.3605 22.8258 39.2366 22.3263 39.2454V39H25.2972V39.2454C24.9169 39.2941 24.6615 39.3572 24.5313 39.4345C24.4007 39.5119 24.2991 39.638 24.2262 39.8125C24.1532 39.9873 24.1168 40.2868 24.1168 40.7113V48.2H23.8913L17.8104 40.7113V46.429C17.8104 46.9464 17.9285 47.2957 18.1652 47.477C18.4015 47.6584 18.6724 47.749 18.9775 47.749H19.1897V47.9944H16V47.749C16.4951 47.7446 16.8399 47.6428 17.0345 47.4438C17.229 47.2448 17.3263 46.9066 17.3263 46.429V40.0812L17.134 39.8424C16.9438 39.6036 16.7759 39.4467 16.63 39.3715C16.4841 39.2963 16.2741 39.2543 16 39.2454V39H19.1897Z" fill="black"/>
<path d="M30.4526 47.749V47.9944H25.751V47.749H26.0494C26.3102 47.749 26.5202 47.7025 26.6794 47.6097C26.7943 47.5478 26.8827 47.4417 26.9446 47.2913C26.9932 47.1851 27.0176 46.9066 27.0176 46.4555V40.5389C27.0176 40.079 26.9932 39.7916 26.9446 39.6766C26.8959 39.5616 26.7975 39.461 26.6495 39.3747C26.5013 39.2886 26.3014 39.2454 26.0494 39.2454H25.751V39H30.4526V39.2454H30.1542C29.8933 39.2454 29.6834 39.2919 29.5242 39.3847C29.4092 39.4467 29.3186 39.5528 29.2523 39.7031C29.2036 39.8092 29.1794 40.0878 29.1794 40.5389V46.4555C29.1794 46.9155 29.2047 47.2029 29.2557 47.3178C29.3064 47.4328 29.4059 47.5333 29.554 47.6197C29.7021 47.7058 29.9022 47.749 30.1542 47.749H30.4526V47.749Z" fill="black"/>
<path d="M39.2032 44.8371L38.865 47.9944H30.8809V47.749H31.1793C31.4401 47.749 31.6501 47.7025 31.8093 47.6097C31.9242 47.5478 32.0126 47.4417 32.0745 47.2913C32.1231 47.1851 32.1474 46.9066 32.1474 46.4555V40.5389C32.1474 40.079 32.1231 39.7916 32.0745 39.6766C32.0258 39.5616 31.9274 39.461 31.7795 39.3747C31.6312 39.2886 31.4313 39.2454 31.1793 39.2454H30.8809V39H35.6753V39.2454H35.2841C35.0232 39.2454 34.8133 39.2919 34.6541 39.3847C34.5391 39.4467 34.4485 39.5528 34.3822 39.7031C34.3335 39.8092 34.3093 40.0878 34.3093 40.5389V46.2698C34.3093 46.7297 34.3358 47.0227 34.3888 47.1486C34.4419 47.2747 34.5457 47.3687 34.7005 47.4306C34.811 47.4704 35.0785 47.4903 35.5029 47.4903H36.2523C36.7297 47.4903 37.1276 47.4063 37.4459 47.2382C37.7642 47.0702 38.0394 46.8049 38.2715 46.4422C38.5036 46.0797 38.7235 45.5446 38.9313 44.8371H39.2032V44.8371Z" fill="black"/>
<path d="M43.2521 39.5174V43.1788H43.4312C44.0015 43.1788 44.4148 42.9997 44.6712 42.6415C44.9276 42.2833 45.0912 41.755 45.162 41.0562H45.414V45.7657H45.162C45.1089 45.2528 44.9972 44.8327 44.8271 44.5054C44.6568 44.1782 44.459 43.9582 44.2336 43.8454C44.0081 43.7327 43.6809 43.6763 43.2521 43.6763V46.2101C43.2521 46.7054 43.273 47.0083 43.3152 47.1188C43.3571 47.2294 43.4355 47.3201 43.5506 47.3908C43.6655 47.4616 43.8511 47.4969 44.1076 47.4969H44.6447C45.4846 47.4969 46.1577 47.3024 46.6639 46.9132C47.1701 46.5241 47.5337 45.9315 47.7548 45.1355H48.0002L47.5957 47.9944H39.8237V47.749H40.1221C40.3829 47.749 40.593 47.7025 40.7521 47.6097C40.867 47.5478 40.9554 47.4417 41.0174 47.2913C41.066 47.1851 41.0903 46.9066 41.0903 46.4555V40.5389C41.0903 40.1321 41.0792 39.8822 41.0572 39.7893C41.0129 39.6346 40.9312 39.5152 40.8118 39.4311C40.6437 39.3074 40.4139 39.2454 40.1221 39.2454H39.8237V39H47.3503V41.6598H47.0983C46.9701 41.0098 46.79 40.5433 46.5578 40.2603C46.3258 39.9773 45.9975 39.7694 45.5731 39.6368C45.3255 39.5572 44.8613 39.5174 44.1805 39.5174H43.2521V39.5174Z" fill="black"/>
</svg>
