<svg width="521" height="320" viewBox="0 0 521 320" fill="none" xmlns="http://www.w3.org/2000/svg">
<g clip-path="url(#clip0_6182_148941)">
<path d="M81.6409 200.095C106.23 200.095 126.163 180.126 126.163 155.493C126.163 130.86 106.23 110.891 81.6409 110.891C57.0522 110.891 37.1191 130.86 37.1191 155.493C37.1191 180.126 57.0522 200.095 81.6409 200.095Z" stroke="black" stroke-miterlimit="10"/>
<path d="M244.049 128.247C256.049 128.247 265.777 118.501 265.777 106.479C265.777 94.4572 256.049 84.7114 244.049 84.7114C232.049 84.7114 222.32 94.4572 222.32 106.479C222.32 118.501 232.049 128.247 244.049 128.247Z" stroke="black" stroke-miterlimit="10"/>
<path d="M81.6406 200.106V221.661" stroke="black" stroke-miterlimit="10"/>
<path d="M244.486 127.933V250.501H272.748" stroke="black" stroke-miterlimit="10"/>
<path d="M95.5246 153.304H111.504L109.51 155.325L107.605 157.256V172.445C107.605 174.432 106.159 176.049 104.366 176.049H76.6311C74.8382 176.049 73.3926 174.432 73.3926 172.445V161.219" fill="#F5FBFF"/>
<path d="M95.5246 153.304H111.504L109.51 155.325L107.605 157.256V172.445C107.605 174.432 106.159 176.049 104.366 176.049H76.6311C74.8382 176.049 73.3926 174.432 73.3926 172.445V161.219" stroke="black" stroke-miterlimit="10"/>
<path d="M55.8251 135.411H51.2754L53.5502 137.723L55.7242 139.935V157.279C55.7242 159.547 57.3827 161.388 59.4222 161.388H91.1018C93.1413 161.388 94.7998 159.547 94.7998 157.279V135.411H55.8251Z" fill="#1F8DF2" stroke="black" stroke-miterlimit="10"/>
<path d="M324.99 221.335H272.781V273.639H324.99V221.335Z" stroke="black" stroke-miterlimit="10"/>
<path d="M197.713 150.599H153.785V194.606H197.713V150.599Z" fill="black" stroke="black" stroke-width="0.8" stroke-miterlimit="10"/>
<path d="M329.941 172.593L298.879 141.475L267.817 172.593L298.879 203.71L329.941 172.593Z" stroke="black" stroke-miterlimit="10"/>
<path d="M112.759 239.298L66.0859 212.31V266.297L112.759 239.298Z" stroke="black" stroke-miterlimit="10"/>
<path d="M112.76 239.298H137.548L174.752 194.628" stroke="black" stroke-miterlimit="10"/>
<path d="M116.85 248.506H141.637L178.842 203.836" stroke="black" stroke-width="0.8" stroke-miterlimit="10" stroke-dasharray="4 4"/>
<path d="M197.611 172.602H243.859" stroke="black" stroke-miterlimit="10"/>
<path d="M298.893 203.721V221.975" stroke="black" stroke-miterlimit="10"/>
<path d="M329.955 172.602H361.186" stroke="black" stroke-miterlimit="10"/>
<path d="M166.47 175.352C167.986 175.352 169.216 174.121 169.216 172.602C169.216 171.083 167.986 169.852 166.47 169.852C164.954 169.852 163.725 171.083 163.725 172.602C163.725 174.121 164.954 175.352 166.47 175.352Z" fill="white" stroke="white" stroke-miterlimit="10"/>
<path d="M175.749 175.352C177.266 175.352 178.495 174.121 178.495 172.602C178.495 171.083 177.266 169.852 175.749 169.852C174.233 169.852 173.004 171.083 173.004 172.602C173.004 174.121 174.233 175.352 175.749 175.352Z" fill="white" stroke="white" stroke-miterlimit="10"/>
<path d="M185.027 175.352C186.543 175.352 187.772 174.121 187.772 172.602C187.772 171.083 186.543 169.852 185.027 169.852C183.51 169.852 182.281 171.083 182.281 172.602C182.281 174.121 183.51 175.352 185.027 175.352Z" fill="white" stroke="white" stroke-miterlimit="10"/>
<path d="M361.051 137.183L431.728 178.069" stroke="black" stroke-miterlimit="10"/>
<path d="M421.834 172.86L483.523 137.183" stroke="black" stroke-miterlimit="10"/>
<path d="M422.281 243.44V180.404" stroke="black" stroke-miterlimit="10"/>
<path d="M483.522 208.021V137.183L422.281 101.764L361.051 137.183V208.021L422.281 243.44L483.522 208.021Z" stroke="black" stroke-miterlimit="10"/>
<path d="M456.56 87.0554V77.9319L448.362 73.3701L440.166 77.9319V87.0554L448.362 91.6171L456.56 87.0554Z" stroke="black" stroke-miterlimit="10"/>
<path d="M383.698 263.139V257.665L378.688 254.928L373.68 257.665V263.139L378.688 265.876L383.698 263.139Z" stroke="black" stroke-miterlimit="10"/>
<path d="M321.768 123.777V118.759L317.213 116.25L312.66 118.759V123.777L317.213 126.286L321.768 123.777Z" stroke="black" stroke-miterlimit="10"/>
<path d="M422.406 197.45C435.736 197.45 446.541 186.421 446.541 172.817C446.541 159.212 435.736 148.183 422.406 148.183C409.077 148.183 398.271 159.212 398.271 172.817C398.271 186.421 409.077 197.45 422.406 197.45Z" fill="black" stroke="black" stroke-width="0.8" stroke-miterlimit="10"/>
<path d="M452.47 141.707C454.859 141.707 456.796 139.767 456.796 137.374C456.796 134.981 454.859 133.041 452.47 133.041C450.081 133.041 448.145 134.981 448.145 137.374C448.145 139.767 450.081 141.707 452.47 141.707Z" stroke="black" stroke-width="0.86" stroke-miterlimit="10"/>
<path d="M387.923 207.954C390.312 207.954 392.249 206.014 392.249 203.62C392.249 201.227 390.312 199.287 387.923 199.287C385.534 199.287 383.598 201.227 383.598 203.62C383.598 206.014 385.534 207.954 387.923 207.954Z" fill="#F5FBFF" stroke="black" stroke-width="0.8" stroke-miterlimit="10"/>
<path d="M428.827 172.984C431.345 172.984 433.387 170.938 433.387 168.415C433.387 165.891 431.345 163.846 428.827 163.846C426.308 163.846 424.266 165.891 424.266 168.415C424.266 170.938 426.308 172.984 428.827 172.984Z" stroke="white" stroke-width="1.4" stroke-miterlimit="10"/>
<path d="M424.949 171.3L415.39 177.89L411.401 180.651L408.42 176.329" stroke="white" stroke-width="1.4" stroke-miterlimit="10"/>
<path d="M414.291 172.266L417.272 176.599" stroke="white" stroke-width="1.4" stroke-miterlimit="10"/>
<path d="M75.4766 239.297H92.3977" stroke="black" stroke-miterlimit="10"/>
<path d="M94.4599 239.297L87.9043 235.514V243.092L94.4599 239.297Z" fill="black" stroke="black" stroke-miterlimit="10"/>
<path d="M252.319 98.1943L235.768 114.776" stroke="black" stroke-miterlimit="10"/>
<path d="M289.502 172.714L295.688 178.911L308.272 166.293" stroke="#1F8DF2" stroke-width="3" stroke-miterlimit="10"/>
<path d="M304.887 256.968L300.113 246.987C302.041 246.448 303.453 244.697 303.453 242.587C303.453 240.05 301.402 237.995 298.869 237.995C296.337 237.995 294.286 240.05 294.286 242.587C294.286 244.686 295.709 246.437 297.625 246.987L292.852 256.968H304.864H304.887Z" stroke="black" stroke-miterlimit="10"/>
<path d="M333.423 92.6849L308.107 76.0744L333.423 59.4711C340.135 55.0676 348.825 55.0676 355.538 59.4711L380.853 76.0815L355.538 92.6919C348.825 97.0955 340.135 97.0955 333.423 92.6919V92.6849Z" stroke="black" stroke-width="0.8" stroke-miterlimit="10"/>
<path d="M345.883 46V51.8374" stroke="black" stroke-width="0.8" stroke-miterlimit="10"/>
<path d="M332.172 48.2681L335.548 53.3239" stroke="black" stroke-width="0.8" stroke-miterlimit="10"/>
<path d="M359.596 48.2681L356.213 53.3239" stroke="black" stroke-width="0.8" stroke-miterlimit="10"/>
<path d="M345.883 106.215V100.378" stroke="black" stroke-width="0.8" stroke-miterlimit="10"/>
<path d="M359.596 103.947L356.213 98.8911" stroke="black" stroke-width="0.8" stroke-miterlimit="10"/>
<path d="M332.172 103.947L335.548 98.8911" stroke="black" stroke-width="0.8" stroke-miterlimit="10"/>
<path d="M344.937 85.9956C350.104 85.9956 354.293 81.7997 354.293 76.6238C354.293 71.4479 350.104 67.252 344.937 67.252C339.771 67.252 335.582 71.4479 335.582 76.6238C335.582 81.7997 339.771 85.9956 344.937 85.9956Z" fill="#1F8DF2"/>
<path d="M344.937 91.165C352.954 91.165 359.452 84.6549 359.452 76.6243C359.452 68.5936 352.954 62.0835 344.937 62.0835C336.921 62.0835 330.422 68.5936 330.422 76.6243C330.422 84.6549 336.921 91.165 344.937 91.165Z" stroke="black" stroke-width="0.8" stroke-miterlimit="10"/>
<path d="M340.717 75.1153C342.043 75.1153 343.119 74.0378 343.119 72.7088C343.119 71.3797 342.043 70.3022 340.717 70.3022C339.39 70.3022 338.314 71.3797 338.314 72.7088C338.314 74.0378 339.39 75.1153 340.717 75.1153Z" fill="white"/>
</g>
<defs>
<clipPath id="clip0_6182_148941">
<rect width="449" height="229" fill="white" transform="translate(35.793 46)"/>
</clipPath>
</defs>
</svg>
