<svg width="520" height="320" viewBox="0 0 520 320" fill="none" xmlns="http://www.w3.org/2000/svg">
<ellipse cx="32.3328" cy="32.2481" rx="32.3328" ry="32.2481" transform="matrix(0.932541 0.361065 -0.363303 0.931671 282.273 141.104)" fill="#D0C4F2"/>
<ellipse cx="300.71" cy="182.825" rx="24.2609" ry="24.1748" fill="#7246EE"/>
<path fill-rule="evenodd" clip-rule="evenodd" d="M288.58 173.961H283.728L295.858 196.524L299.901 189.003L297.475 184.49L297.071 185.242L295.858 187.499L294.645 185.242L288.58 173.961ZM298.284 182.986L299.497 185.242L300.71 187.499L302.53 190.883L305.562 196.524L317.693 173.961H312.841L306.775 185.242L305.562 187.499L304.349 185.242L303.136 182.986L300.71 178.474L298.284 173.961H293.432L298.284 182.986ZM307.988 173.961L303.945 181.482L301.519 176.969L303.136 173.961H307.988Z" fill="white"/>
<path d="M354.502 200.406C354.292 201.041 354.071 201.675 353.837 202.307L353.367 202.135C353.252 202.448 353.133 202.761 353.011 203.073C352.889 203.386 352.765 203.696 352.638 204.005L353.101 204.194C352.845 204.818 352.579 205.434 352.303 206.044L351.847 205.839C351.571 206.449 351.286 207.052 350.99 207.648L351.439 207.869C351.139 208.474 350.829 209.072 350.51 209.661L350.07 209.425C349.752 210.012 349.424 210.593 349.087 211.165L349.518 211.418C349.176 211.999 348.825 212.573 348.464 213.138L348.042 212.87C347.682 213.434 347.313 213.99 346.935 214.538L347.347 214.821C346.964 215.376 346.573 215.923 346.172 216.461L345.77 216.164C345.372 216.7 344.964 217.227 344.548 217.746L344.938 218.058C344.516 218.584 344.086 219.102 343.646 219.611L343.268 219.285C342.831 219.791 342.386 220.288 341.933 220.776L342.3 221.115C341.841 221.609 341.375 222.094 340.9 222.57L340.546 222.218C340.075 222.691 339.595 223.155 339.108 223.609L339.45 223.974C338.957 224.434 338.456 224.885 337.948 225.326L337.62 224.949C337.116 225.387 336.605 225.815 336.086 226.234L336.4 226.622C335.876 227.046 335.345 227.459 334.807 227.863L334.507 227.463C333.973 227.864 333.432 228.255 332.884 228.636L333.17 229.046C332.617 229.43 332.057 229.805 331.492 230.17L331.221 229.75C330.66 230.112 330.092 230.463 329.519 230.804L329.775 231.233C329.196 231.578 328.611 231.912 328.021 232.235L327.781 231.797C327.196 232.118 326.605 232.429 326.008 232.728L326.233 233.175C325.631 233.477 325.024 233.769 324.413 234.05L324.204 233.596C323.598 233.875 322.986 234.142 322.37 234.399L322.562 234.86C321.941 235.119 321.315 235.368 320.685 235.605L320.509 235.137C319.884 235.372 319.256 235.596 318.623 235.809L318.782 236.282C318.144 236.497 317.502 236.7 316.856 236.892L316.714 236.413C316.075 236.603 315.432 236.782 314.786 236.949L314.911 237.433C314.259 237.602 313.604 237.759 312.946 237.905L312.839 237.417C312.188 237.561 311.534 237.694 310.877 237.815L310.967 238.306C310.306 238.428 309.642 238.539 308.975 238.637L308.903 238.143C308.243 238.241 307.582 238.327 306.918 238.401L306.973 238.897C306.304 238.972 305.634 239.035 304.961 239.086L304.924 238.587C304.26 238.638 303.594 238.676 302.927 238.703L302.946 239.202C302.275 239.229 301.602 239.244 300.928 239.246L300.927 238.747C300.261 238.749 299.594 238.74 298.926 238.719L298.909 239.218C298.237 239.197 297.564 239.164 296.891 239.118L296.926 238.62C296.262 238.575 295.598 238.518 294.934 238.449L294.881 238.946C294.214 238.877 293.546 238.795 292.878 238.702L292.948 238.207C292.289 238.115 291.63 238.01 290.971 237.894L290.883 238.386C290.223 238.269 289.562 238.14 288.902 237.999L289.008 237.511C288.359 237.372 287.709 237.221 287.061 237.058L286.938 237.543C286.288 237.379 285.638 237.204 284.99 237.016L285.13 236.536C284.491 236.351 283.853 236.155 283.216 235.946L283.06 236.421C282.424 236.212 281.789 235.992 281.157 235.759L281.33 235.29C281.017 235.175 280.703 235.057 280.391 234.936C280.078 234.815 279.767 234.692 279.458 234.566L279.268 235.028C278.644 234.774 278.027 234.51 277.417 234.236L277.622 233.78C277.011 233.506 276.407 233.222 275.811 232.928L275.589 233.376C274.984 233.078 274.386 232.771 273.795 232.454L274.033 232.014C273.444 231.698 272.863 231.372 272.29 231.038L272.037 231.469C271.454 231.129 270.88 230.78 270.314 230.422L270.582 230C270.017 229.642 269.46 229.276 268.911 228.9L268.628 229.313C268.072 228.932 267.524 228.543 266.985 228.145L267.283 227.743C266.746 227.347 266.218 226.942 265.698 226.529L265.386 226.92C264.858 226.5 264.339 226.073 263.829 225.636L264.155 225.257C263.648 224.823 263.15 224.381 262.661 223.931L262.321 224.298C261.826 223.843 261.34 223.379 260.863 222.908L261.215 222.553C260.741 222.084 260.275 221.608 259.82 221.124L259.455 221.466C258.993 220.976 258.541 220.479 258.099 219.974L258.476 219.645C258.036 219.143 257.606 218.635 257.186 218.119L256.798 218.435C256.373 217.914 255.958 217.386 255.553 216.851L255.952 216.549C255.55 216.018 255.157 215.48 254.775 214.935L254.365 215.223C253.978 214.673 253.602 214.116 253.236 213.553L253.656 213.281C253.292 212.722 252.939 212.158 252.596 211.587L252.167 211.845C251.821 211.269 251.485 210.687 251.16 210.1L251.598 209.858C251.275 209.275 250.963 208.687 250.662 208.093L250.215 208.32C249.911 207.721 249.617 207.117 249.334 206.508L249.789 206.297C249.508 205.693 249.239 205.084 248.98 204.471L248.519 204.665C248.258 204.046 248.008 203.423 247.769 202.795L248.237 202.617C248 201.994 247.775 201.368 247.56 200.737L247.087 200.899C246.87 200.263 246.666 199.623 246.472 198.98L246.951 198.835C246.76 198.198 246.579 197.557 246.41 196.913L245.926 197.04C245.756 196.391 245.597 195.738 245.45 195.082L245.938 194.972C245.793 194.322 245.658 193.67 245.536 193.015L245.044 193.108C244.921 192.448 244.809 191.786 244.709 191.121L245.204 191.046C245.105 190.388 245.018 189.728 244.943 189.066L244.446 189.123C244.37 188.456 244.306 187.787 244.254 187.116L244.753 187.076C244.702 186.414 244.662 185.749 244.635 185.083L244.135 185.104C244.108 184.434 244.092 183.762 244.089 183.09L244.589 183.086C244.586 182.421 244.594 181.755 244.615 181.088L244.115 181.074C244.136 180.403 244.169 179.731 244.214 179.059L244.714 179.092C244.758 178.429 244.815 177.766 244.884 177.102L244.386 177.052C244.455 176.385 244.537 175.718 244.63 175.051L245.126 175.119C245.218 174.461 245.323 173.802 245.44 173.144L244.947 173.058C245.064 172.398 245.193 171.738 245.335 171.079L245.824 171.183C245.964 170.534 246.115 169.886 246.279 169.238L245.794 169.117C245.958 168.467 246.134 167.818 246.323 167.17L246.803 167.309C246.989 166.671 247.187 166.033 247.397 165.397L246.922 165.242C247.132 164.607 247.353 163.973 247.587 163.341L248.056 163.513C248.172 163.2 248.291 162.887 248.413 162.575C248.535 162.262 248.659 161.952 248.786 161.643L248.323 161.454C248.579 160.83 248.845 160.214 249.12 159.604L249.576 159.809C249.852 159.199 250.138 158.595 250.434 158L249.985 157.779C250.285 157.174 250.595 156.576 250.914 155.986L251.354 156.223C251.672 155.636 252 155.055 252.337 154.483L251.905 154.23C252.247 153.649 252.599 153.075 252.96 152.51L253.382 152.778C253.741 152.214 254.11 151.658 254.488 151.11L254.076 150.827C254.459 150.272 254.851 149.725 255.252 149.186L255.653 149.484C256.052 148.948 256.46 148.421 256.876 147.902L256.485 147.59C256.908 147.064 257.338 146.546 257.777 146.037L258.156 146.363C258.593 145.857 259.038 145.36 259.491 144.872L259.124 144.532C259.582 144.038 260.049 143.553 260.523 143.078L260.878 143.43C261.349 142.957 261.829 142.493 262.315 142.039L261.974 141.674C262.467 141.214 262.967 140.763 263.475 140.322L263.803 140.699C264.308 140.261 264.819 139.833 265.338 139.414L265.024 139.026C265.548 138.602 266.079 138.189 266.617 137.785L266.917 138.184C267.451 137.784 267.992 137.393 268.539 137.012L268.254 136.602C268.807 136.217 269.366 135.843 269.932 135.478L270.203 135.898C270.764 135.536 271.332 135.185 271.905 134.844L271.649 134.415C272.228 134.07 272.812 133.736 273.403 133.413L273.643 133.85C274.228 133.53 274.819 133.219 275.415 132.919L275.191 132.473C275.792 132.171 276.399 131.879 277.011 131.598L277.22 132.052C277.826 131.773 278.438 131.505 279.054 131.249L278.861 130.788C279.483 130.528 280.109 130.28 280.739 130.043L280.915 130.511C281.539 130.276 282.168 130.052 282.801 129.839L282.642 129.366C283.28 129.151 283.922 128.948 284.567 128.756L284.709 129.235C285.349 129.045 285.992 128.866 286.638 128.699L286.513 128.215C287.165 128.046 287.819 127.889 288.477 127.743L288.585 128.231C289.236 128.087 289.89 127.954 290.547 127.833L290.457 127.342C291.118 127.22 291.782 127.109 292.448 127.011L292.521 127.505C293.18 127.407 293.842 127.321 294.506 127.247L294.451 126.751C295.12 126.676 295.79 126.613 296.462 126.562L296.499 127.06C297.164 127.01 297.829 126.972 298.497 126.945L298.478 126.446C299.149 126.419 299.822 126.404 300.496 126.401L300.497 126.901C301.163 126.898 301.83 126.908 302.498 126.929L302.515 126.429C303.187 126.451 303.859 126.484 304.533 126.53L304.498 127.028C305.161 127.073 305.826 127.13 306.49 127.199L306.542 126.702C307.21 126.771 307.878 126.853 308.546 126.946L308.475 127.441C309.134 127.533 309.794 127.637 310.452 127.754L310.54 127.262C311.201 127.379 311.862 127.508 312.521 127.649L312.416 128.137C313.065 128.276 313.714 128.427 314.362 128.59L314.485 128.105C315.136 128.269 315.785 128.444 316.434 128.632L316.294 129.112C316.933 129.296 317.571 129.493 318.207 129.702L318.364 129.227C319 129.436 319.634 129.656 320.267 129.889L320.094 130.357C320.407 130.473 320.72 130.591 321.033 130.712C321.346 130.833 321.657 130.956 321.966 131.082L322.156 130.62C322.78 130.874 323.397 131.138 324.007 131.412L323.801 131.868C324.412 132.142 325.016 132.426 325.613 132.72L325.835 132.272C326.44 132.569 327.038 132.877 327.629 133.194L327.391 133.634C327.98 133.95 328.561 134.276 329.134 134.61L329.387 134.179C329.969 134.519 330.544 134.868 331.11 135.226L330.842 135.648C331.407 136.006 331.964 136.372 332.512 136.748L332.796 136.335C333.352 136.716 333.899 137.105 334.439 137.503L334.141 137.905C334.678 138.301 335.206 138.706 335.726 139.119L336.038 138.728C336.565 139.147 337.084 139.575 337.594 140.012L337.268 140.391C337.775 140.825 338.274 141.267 338.763 141.717L339.103 141.349C339.598 141.805 340.084 142.268 340.561 142.74L340.209 143.095C340.683 143.564 341.148 144.04 341.604 144.524L341.969 144.182C342.43 144.671 342.882 145.169 343.325 145.674L342.948 146.003C343.388 146.505 343.817 147.013 344.238 147.529L344.626 147.213C345.051 147.734 345.466 148.262 345.871 148.797L345.472 149.099C345.874 149.63 346.267 150.168 346.649 150.712L347.059 150.425C347.445 150.975 347.822 151.532 348.188 152.095L347.768 152.367C348.132 152.926 348.485 153.49 348.828 154.06L349.257 153.803C349.603 154.379 349.939 154.961 350.264 155.548L349.826 155.79C350.149 156.373 350.461 156.961 350.762 157.555L351.209 157.328C351.513 157.927 351.807 158.531 352.089 159.14L351.635 159.351C351.915 159.955 352.185 160.564 352.444 161.177L352.905 160.983C353.166 161.602 353.416 162.225 353.655 162.853L353.187 163.031C353.423 163.654 353.649 164.28 353.863 164.911L354.337 164.749C354.553 165.385 354.758 166.025 354.952 166.668L354.472 166.813C354.664 167.45 354.845 168.091 355.013 168.735L355.498 168.608C355.668 169.257 355.827 169.91 355.974 170.566L355.486 170.676C355.631 171.325 355.765 171.978 355.888 172.633L356.38 172.54C356.503 173.2 356.615 173.862 356.715 174.527L356.22 174.602C356.319 175.26 356.406 175.92 356.481 176.582L356.978 176.525C357.054 177.192 357.118 177.861 357.17 178.532L356.671 178.572C356.722 179.234 356.761 179.899 356.789 180.565L357.289 180.544C357.316 181.214 357.332 181.885 357.335 182.558L356.835 182.562C356.838 183.227 356.829 183.893 356.809 184.56L357.309 184.574C357.288 185.245 357.255 185.917 357.21 186.589L356.71 186.556C356.666 187.219 356.609 187.882 356.54 188.546L357.038 188.596C356.969 189.263 356.887 189.93 356.793 190.597L356.298 190.529C356.205 191.187 356.101 191.845 355.984 192.504L356.477 192.59C356.36 193.25 356.23 193.909 356.089 194.568L355.599 194.465C355.46 195.113 355.308 195.762 355.145 196.409L355.63 196.531C355.466 197.181 355.289 197.83 355.101 198.478L354.62 198.339C354.434 198.977 354.237 199.615 354.027 200.25L354.502 200.406Z" stroke="#595959" stroke-dasharray="2 2"/>
<path d="M384.668 215.326C366.652 261.528 314.457 284.431 268.087 266.477C221.717 248.524 198.735 196.513 216.752 150.311C234.768 104.108 286.963 81.2053 333.333 99.1591C379.703 117.113 402.685 169.123 384.668 215.326Z" stroke="#7246EE"/>
<path d="M418.698 164.443C418.698 165.111 418.689 165.78 418.67 166.45L418.17 166.436C418.161 166.769 418.149 167.102 418.135 167.435C418.121 167.768 418.104 168.101 418.085 168.433L418.585 168.461C418.547 169.131 418.499 169.798 418.442 170.464L417.944 170.422C417.888 171.083 417.822 171.741 417.747 172.398L418.244 172.455C418.168 173.12 418.083 173.784 417.988 174.445L417.494 174.374C417.4 175.032 417.296 175.688 417.184 176.341L417.677 176.426C417.564 177.084 417.441 177.74 417.31 178.395L416.819 178.296C416.688 178.947 416.548 179.596 416.399 180.243L416.886 180.355C416.736 181.006 416.577 181.656 416.408 182.302L415.924 182.177C415.757 182.819 415.581 183.458 415.396 184.096L415.877 184.235C415.691 184.876 415.496 185.515 415.292 186.152L414.816 185.999C414.613 186.632 414.402 187.262 414.182 187.889L414.654 188.054C414.434 188.684 414.205 189.311 413.967 189.936L413.5 189.758C413.264 190.378 413.019 190.995 412.767 191.609L413.229 191.799C412.975 192.418 412.712 193.034 412.441 193.648L411.983 193.446C411.716 194.05 411.44 194.653 411.157 195.252L411.609 195.466C411.323 196.069 411.03 196.67 410.728 197.268L410.282 197.043C409.983 197.636 409.676 198.226 409.361 198.814L409.802 199.05C409.487 199.636 409.166 200.22 408.836 200.801L408.401 200.554C408.073 201.132 407.738 201.707 407.395 202.279L407.824 202.536C407.481 203.108 407.131 203.677 406.773 204.243L406.35 203.976C405.997 204.536 405.636 205.092 405.268 205.646L405.685 205.923C405.315 206.48 404.937 207.034 404.553 207.585L404.143 207.3C403.764 207.842 403.379 208.382 402.987 208.92L403.39 209.214C402.998 209.752 402.598 210.287 402.192 210.819L401.795 210.515C401.391 211.045 400.98 211.571 400.562 212.095L400.953 212.406C400.539 212.925 400.118 213.442 399.691 213.955L399.307 213.635C398.883 214.145 398.453 214.651 398.016 215.155L398.394 215.483C397.955 215.989 397.51 216.492 397.058 216.993L396.687 216.658C396.245 217.148 395.798 217.635 395.344 218.119L395.708 218.461C395.253 218.947 394.791 219.431 394.324 219.911L393.965 219.563C393.5 220.041 393.029 220.516 392.551 220.989L392.903 221.344C392.433 221.81 391.956 222.273 391.474 222.733L391.129 222.371C390.649 222.83 390.164 223.285 389.673 223.738L390.012 224.105C389.519 224.56 389.021 225.011 388.517 225.46L388.184 225.087C387.692 225.525 387.194 225.961 386.691 226.393L387.017 226.772C386.512 227.207 386.002 227.639 385.487 228.067L385.167 227.683C384.654 228.11 384.135 228.534 383.612 228.956L383.925 229.345C383.409 229.761 382.888 230.173 382.363 230.583L382.055 230.189C381.532 230.596 381.004 231.001 380.471 231.403L380.772 231.802C380.238 232.206 379.698 232.607 379.154 233.004L378.859 232.601C378.325 232.991 377.787 233.378 377.244 233.762L377.533 234.17C376.99 234.555 376.442 234.936 375.89 235.315L375.608 234.903C375.058 235.281 374.503 235.655 373.945 236.027L374.221 236.443C373.668 236.812 373.11 237.177 372.547 237.54L372.276 237.12C371.72 237.479 371.159 237.835 370.594 238.189L370.86 238.612C370.293 238.967 369.722 239.319 369.147 239.668L368.888 239.24C368.319 239.585 367.747 239.928 367.17 240.267L367.424 240.698C366.852 241.035 366.276 241.369 365.697 241.7L365.449 241.265C364.871 241.595 364.289 241.923 363.704 242.247L363.946 242.684C363.36 243.009 362.771 243.331 362.177 243.65L361.94 243.21C361.359 243.523 360.773 243.833 360.184 244.14L360.416 244.583C359.825 244.891 359.23 245.197 358.633 245.499L358.407 245.053C357.811 245.355 357.212 245.653 356.609 245.949L356.829 246.398C356.232 246.691 355.632 246.981 355.029 247.268L354.814 246.817C354.216 247.102 353.614 247.384 353.009 247.664L353.218 248.118C352.611 248.398 352.001 248.676 351.388 248.95L351.184 248.494C350.576 248.766 349.964 249.036 349.35 249.303L349.549 249.761C348.94 250.026 348.328 250.287 347.714 250.546L347.52 250.085C346.907 250.343 346.291 250.598 345.672 250.851L345.861 251.314C345.24 251.567 344.616 251.817 343.99 252.065L343.806 251.6C343.19 251.843 342.571 252.084 341.95 252.322L342.128 252.789C341.507 253.026 340.883 253.261 340.256 253.494L340.082 253.025C339.457 253.256 338.829 253.485 338.198 253.711L338.367 254.182C337.737 254.407 337.105 254.63 336.47 254.85L336.307 254.378C335.681 254.595 335.053 254.809 334.422 255.02L334.581 255.494C333.949 255.706 333.314 255.915 332.677 256.121L332.523 255.646C331.887 255.851 331.249 256.055 330.609 256.255L330.758 256.732C330.122 256.931 329.485 257.126 328.844 257.32L328.7 256.841C328.065 257.032 327.428 257.221 326.788 257.407L326.928 257.887C326.286 258.074 325.643 258.258 324.997 258.439L324.862 257.957C324.218 258.138 323.571 258.316 322.922 258.491L323.052 258.974C322.412 259.146 321.769 259.316 321.125 259.484L320.999 259C320.356 259.167 319.711 259.331 319.064 259.492L319.184 259.977C318.536 260.139 317.885 260.298 317.231 260.454L317.115 259.968C316.466 260.124 315.815 260.276 315.162 260.426L315.274 260.913C314.627 261.062 313.978 261.207 313.326 261.351L313.219 260.862C312.57 261.005 311.918 261.145 311.264 261.282L311.367 261.772C310.712 261.909 310.055 262.044 309.396 262.176L309.298 261.686C308.645 261.817 307.991 261.945 307.334 262.07L307.428 262.561C306.775 262.686 306.12 262.808 305.464 262.927L305.374 262.435C304.719 262.555 304.063 262.671 303.404 262.784L303.489 263.277C302.829 263.391 302.167 263.502 301.504 263.611L301.423 263.117C300.767 263.224 300.109 263.329 299.45 263.43L299.526 263.925C298.869 264.026 298.21 264.125 297.549 264.221L297.477 263.726C296.818 263.822 296.157 263.915 295.495 264.005L295.562 264.501C294.898 264.591 294.233 264.679 293.566 264.764L293.503 264.268C292.844 264.352 292.184 264.434 291.522 264.512L291.581 265.009C290.92 265.087 290.257 265.163 289.594 265.236L289.539 264.739C288.877 264.812 288.213 264.883 287.548 264.95L287.598 265.448C286.931 265.515 286.263 265.58 285.594 265.643L285.548 265.145C284.886 265.206 284.224 265.265 283.56 265.321L283.602 265.819C282.939 265.875 282.274 265.929 281.608 265.979L281.571 265.481C280.906 265.531 280.24 265.579 279.573 265.624L279.606 266.123C278.938 266.168 278.268 266.211 277.597 266.251L277.568 265.751C276.905 265.791 276.241 265.827 275.576 265.861L275.601 266.361C274.936 266.394 274.27 266.426 273.603 266.454L273.581 265.955C272.915 265.983 272.248 266.009 271.58 266.032L271.597 266.532C270.928 266.555 270.257 266.575 269.585 266.593L269.572 266.093C268.908 266.11 268.243 266.125 267.577 266.137L267.586 266.637C266.92 266.649 266.253 266.658 265.585 266.665L265.581 266.165C264.914 266.172 264.247 266.176 263.579 266.177L263.579 266.677C262.91 266.678 262.239 266.677 261.567 266.673L261.57 266.173C260.905 266.169 260.239 266.162 259.572 266.153L259.565 266.653C258.9 266.643 258.233 266.631 257.566 266.616L257.577 266.116C256.911 266.101 256.244 266.084 255.576 266.064L255.561 266.564C254.892 266.543 254.222 266.521 253.551 266.495L253.57 265.995C253.236 265.983 252.901 265.969 252.565 265.955C252.23 265.941 251.895 265.926 251.561 265.911L251.538 266.41C250.867 266.379 250.198 266.345 249.529 266.309L249.556 265.81C248.889 265.774 248.223 265.735 247.558 265.694L247.527 266.193C246.861 266.151 246.196 266.107 245.532 266.061L245.567 265.562C244.902 265.515 244.237 265.466 243.574 265.414L243.535 265.912C242.866 265.86 242.197 265.805 241.53 265.747L241.573 265.249C240.907 265.191 240.243 265.131 239.579 265.068L239.532 265.566C238.867 265.503 238.204 265.438 237.541 265.37L237.593 264.872C236.93 264.804 236.268 264.733 235.608 264.66L235.553 265.157C234.885 265.083 234.218 265.006 233.553 264.927L233.612 264.43C232.949 264.351 232.286 264.269 231.625 264.185L231.561 264.681C230.899 264.596 230.238 264.509 229.578 264.419L229.646 263.924C228.986 263.834 228.327 263.741 227.67 263.646L227.599 264.141C226.933 264.045 226.269 263.946 225.607 263.845L225.683 263.351C225.022 263.25 224.362 263.146 223.705 263.04L223.625 263.533C222.965 263.427 222.307 263.317 221.651 263.206L221.735 262.713C221.079 262.601 220.424 262.487 219.77 262.37L219.682 262.862C219.02 262.744 218.36 262.623 217.702 262.499L217.794 262.008C217.137 261.884 216.481 261.758 215.827 261.63L215.731 262.12C215.076 261.992 214.422 261.86 213.77 261.726L213.871 261.236C213.218 261.102 212.567 260.966 211.918 260.826L211.813 261.315C211.156 261.174 210.5 261.031 209.846 260.885L209.955 260.397C209.303 260.251 208.652 260.102 208.004 259.951L207.89 260.438C207.24 260.287 206.592 260.133 205.945 259.977L206.063 259.491C205.414 259.334 204.768 259.174 204.123 259.012L204.001 259.497C203.349 259.333 202.7 259.167 202.052 258.998L202.178 258.514C201.531 258.346 200.887 258.174 200.244 258L200.113 258.483C199.469 258.309 198.827 258.132 198.187 257.953L198.322 257.471C197.679 257.291 197.037 257.108 196.398 256.923L196.259 257.403C195.613 257.216 194.97 257.026 194.329 256.834L194.473 256.355C193.833 256.163 193.196 255.969 192.561 255.772L192.413 256.25C191.776 256.052 191.141 255.852 190.509 255.65L190.661 255.174C190.024 254.969 189.388 254.763 188.755 254.553L188.597 255.028C187.96 254.817 187.325 254.604 186.692 254.388L186.854 253.915C186.222 253.699 185.593 253.481 184.967 253.261L184.801 253.733C184.172 253.512 183.547 253.288 182.923 253.062L183.094 252.592C182.462 252.363 181.833 252.131 181.206 251.897L181.031 252.366C180.403 252.131 179.777 251.893 179.154 251.653L179.334 251.187C178.712 250.948 178.093 250.706 177.476 250.461L177.292 250.926C176.67 250.68 176.052 250.431 175.435 250.18L175.624 249.717C175.003 249.463 174.384 249.207 173.768 248.949L173.575 249.41C172.957 249.15 172.343 248.888 171.731 248.624L171.929 248.165C171.319 247.901 170.711 247.635 170.106 247.367L169.903 247.824C169.289 247.551 168.678 247.276 168.07 246.998L168.278 246.543C167.669 246.265 167.062 245.984 166.459 245.7L166.246 246.153C165.641 245.869 165.039 245.582 164.44 245.293L164.658 244.842C164.058 244.553 163.462 244.261 162.869 243.967L162.647 244.415C162.043 244.115 161.443 243.813 160.846 243.509L161.073 243.063C160.478 242.76 159.886 242.454 159.297 242.145L159.065 242.588C158.474 242.278 157.887 241.966 157.303 241.651L157.54 241.211C156.95 240.894 156.364 240.574 155.781 240.251L155.539 240.688C154.951 240.363 154.367 240.035 153.786 239.705L154.033 239.27C153.454 238.941 152.878 238.609 152.306 238.274L152.053 238.706C151.477 238.369 150.904 238.029 150.334 237.687L150.591 237.258C150.016 236.913 149.444 236.565 148.876 236.214L148.613 236.639C148.043 236.287 147.477 235.933 146.914 235.576L147.182 235.154C146.621 234.798 146.064 234.44 145.511 234.08L145.238 234.498C144.674 234.13 144.113 233.76 143.557 233.387L143.836 232.972C143.28 232.599 142.728 232.224 142.18 231.847L141.897 232.258C141.347 231.88 140.802 231.499 140.26 231.115L140.55 230.707C140.004 230.32 139.463 229.931 138.925 229.539L138.631 229.943C138.087 229.547 137.548 229.149 137.014 228.747L137.314 228.347C136.781 227.948 136.253 227.546 135.729 227.141L135.423 227.537C134.894 227.128 134.369 226.717 133.848 226.303L134.159 225.911C133.634 225.494 133.113 225.074 132.598 224.652L132.281 225.038C131.763 224.614 131.25 224.188 130.741 223.759L131.064 223.377C130.556 222.948 130.052 222.517 129.553 222.084L129.225 222.461C128.717 222.019 128.213 221.574 127.714 221.127L128.048 220.755C127.551 220.309 127.059 219.861 126.573 219.411L126.233 219.778C125.744 219.325 125.26 218.87 124.781 218.413L125.126 218.051C124.64 217.587 124.16 217.121 123.685 216.652L123.333 217.008C122.856 216.538 122.385 216.064 121.918 215.589L122.275 215.239C121.811 214.765 121.352 214.289 120.899 213.811L120.536 214.155C120.072 213.665 119.613 213.173 119.16 212.679L119.529 212.341C119.079 211.849 118.634 211.354 118.194 210.858L117.82 211.189C117.379 210.689 116.943 210.188 116.514 209.684L116.895 209.36C116.459 208.849 116.03 208.335 115.607 207.82L115.22 208.137C114.795 207.619 114.376 207.098 113.963 206.576L114.356 206.266C113.944 205.745 113.54 205.222 113.141 204.697L112.743 204.999C112.335 204.462 111.934 203.923 111.54 203.381L111.944 203.087C111.552 202.548 111.166 202.007 110.787 201.464L110.377 201.75C109.995 201.203 109.62 200.653 109.251 200.101L109.667 199.823C109.295 199.266 108.931 198.707 108.573 198.146L108.151 198.415C107.791 197.85 107.439 197.284 107.093 196.715L107.52 196.455C107.175 195.887 106.837 195.316 106.506 194.744L106.073 194.994C105.737 194.412 105.408 193.828 105.086 193.242L105.525 193.001C105.205 192.418 104.893 191.833 104.588 191.246L104.145 191.477C103.836 190.882 103.535 190.286 103.242 189.687L103.691 189.467C103.398 188.868 103.113 188.267 102.835 187.664L102.381 187.873C102.102 187.266 101.83 186.658 101.567 186.047L102.026 185.849C101.762 185.237 101.507 184.623 101.259 184.007L100.795 184.194C100.545 183.572 100.304 182.949 100.07 182.324L100.539 182.149C100.307 181.527 100.084 180.904 99.8686 180.279L99.3957 180.442C99.1775 179.808 98.9678 179.171 98.7668 178.534L99.2437 178.383C99.044 177.749 98.8529 177.114 98.6704 176.477L98.1897 176.614C98.0058 175.972 97.8306 175.328 97.6643 174.682L98.1485 174.557C97.9827 173.913 97.8258 173.268 97.6778 172.621L97.1903 172.732C97.0413 172.081 96.9013 171.428 96.7703 170.773L97.2606 170.675C97.1304 170.024 97.0093 169.372 96.8972 168.718L96.4044 168.803C96.2916 168.144 96.1879 167.484 96.0934 166.822L96.5884 166.752C96.4946 166.095 96.41 165.436 96.3347 164.776L95.838 164.833C95.7623 164.17 95.696 163.506 95.639 162.841L96.1372 162.798C96.0807 162.137 96.0334 161.475 95.9956 160.812L95.4964 160.841C95.4583 160.174 95.4297 159.505 95.4106 158.836L95.9104 158.822C95.8915 158.161 95.882 157.499 95.8819 156.835L95.3819 156.836C95.3817 156.168 95.3911 155.498 95.41 154.828L95.9098 154.842C95.9192 154.509 95.931 154.176 95.9452 153.843C95.9593 153.51 95.9758 153.177 95.9947 152.845L95.4955 152.817C95.5335 152.147 95.5809 151.48 95.6377 150.814L96.1359 150.857C96.1922 150.196 96.2579 149.537 96.3328 148.88L95.836 148.823C95.9118 148.158 95.997 147.495 96.0915 146.833L96.5865 146.904C96.6804 146.246 96.7837 145.591 96.896 144.937L96.4033 144.852C96.5165 144.194 96.6389 143.538 96.7705 142.884L97.2607 142.982C97.3917 142.331 97.5318 141.682 97.681 141.035L97.1938 140.923C97.344 140.272 97.5033 139.623 97.6716 138.976L98.1555 139.102C98.3226 138.46 98.4986 137.82 98.6835 137.183L98.2033 137.044C98.3894 136.402 98.5843 135.763 98.7881 135.127L99.2643 135.279C99.4666 134.647 99.6777 134.017 99.8975 133.389L99.4256 133.224C99.6462 132.594 99.8754 131.967 100.113 131.343L100.58 131.52C100.816 130.901 101.061 130.284 101.313 129.669L100.851 129.479C101.105 128.86 101.368 128.244 101.639 127.631L102.097 127.833C102.364 127.228 102.64 126.626 102.923 126.026L102.471 125.812C102.757 125.209 103.05 124.608 103.352 124.01L103.798 124.235C104.097 123.642 104.404 123.052 104.719 122.464L104.278 122.228C104.593 121.642 104.915 121.058 105.244 120.477L105.679 120.724C106.007 120.146 106.342 119.572 106.685 118.999L106.256 118.742C106.599 118.171 106.949 117.601 107.307 117.035L107.73 117.302C108.083 116.743 108.444 116.186 108.812 115.632L108.395 115.356C108.765 114.799 109.143 114.244 109.527 113.693L109.937 113.979C110.316 113.436 110.701 112.896 111.093 112.359L110.69 112.064C111.082 111.526 111.482 110.991 111.888 110.459L112.285 110.763C112.689 110.234 113.1 109.707 113.518 109.184L113.127 108.872C113.541 108.353 113.962 107.837 114.389 107.323L114.773 107.643C115.197 107.134 115.627 106.627 116.064 106.123L115.686 105.796C116.125 105.289 116.57 104.786 117.022 104.285L117.393 104.62C117.835 104.13 118.282 103.643 118.736 103.159L118.372 102.817C118.827 102.331 119.289 101.848 119.756 101.367L120.115 101.716C120.58 101.238 121.051 100.762 121.529 100.29L121.177 99.9346C121.647 99.4687 122.124 99.0056 122.606 98.5453L122.951 98.9069C123.431 98.4487 123.916 97.9933 124.407 97.5407L124.068 97.1732C124.561 96.7187 125.059 96.267 125.563 95.8183L125.896 96.1917C126.388 95.7534 126.886 95.3178 127.389 94.885L127.063 94.5061C127.568 94.0715 128.078 93.6398 128.593 93.2109L128.913 93.5952C129.426 93.1681 129.945 92.7439 130.468 92.3225L130.155 91.933C130.671 91.5177 131.192 91.1051 131.717 90.6954L132.025 91.0897C132.548 90.682 133.076 90.2772 133.609 89.8751L133.308 89.476C133.842 89.0725 134.382 88.6717 134.926 88.2739L135.221 88.6776C135.755 88.2876 136.293 87.9004 136.836 87.516L136.547 87.108C137.09 86.7235 137.638 86.3418 138.19 85.963L138.472 86.3752C139.022 85.9978 139.577 85.6232 140.135 85.2514L139.859 84.8352C140.412 84.4667 140.97 84.1011 141.533 83.7384L141.804 84.1585C142.36 83.7994 142.921 83.4432 143.486 83.0898L143.22 82.6659C143.787 82.3113 144.358 81.9595 144.933 81.6106L145.192 82.038C145.761 81.6929 146.333 81.3507 146.91 81.0113L146.656 80.5804C147.228 80.2437 147.804 79.9098 148.383 79.5787L148.631 80.0128C149.209 79.6828 149.791 79.3556 150.376 79.0313L150.134 78.594C150.72 78.2692 151.309 77.9473 151.903 77.6282L152.14 78.0686C152.721 77.7558 153.307 77.4458 153.896 77.1386L153.664 76.6953C154.255 76.3871 154.849 76.0817 155.447 75.7792L155.673 76.2253C156.269 75.9236 156.868 75.6248 157.471 75.3289L157.251 74.8801C157.848 74.5872 158.448 74.2971 159.051 74.0098L159.266 74.4612C159.864 74.1762 160.466 73.8939 161.071 73.6143L160.862 73.1604C161.469 72.8801 162.079 72.6026 162.692 72.3279L162.896 72.7842C163.504 72.5118 164.116 72.2422 164.73 71.9755L164.531 71.5168C165.14 71.2526 165.752 70.991 166.366 70.7323L166.56 71.1931C167.173 70.9351 167.789 70.6799 168.408 70.4274L168.219 69.9645C168.84 69.7113 169.464 69.461 170.09 69.2135L170.274 69.6785C170.89 69.4351 171.509 69.1945 172.13 68.9567L171.952 68.4897C172.573 68.252 173.197 68.017 173.824 67.7847L173.998 68.2536C174.623 68.022 175.251 67.7932 175.882 67.5671L175.713 67.0965C176.343 66.8709 176.975 66.6481 177.61 66.428L177.773 66.9005C178.399 66.6837 179.027 66.4696 179.658 66.2583L179.499 65.7842C180.131 65.5724 180.766 65.3633 181.403 65.1569L181.557 65.6326C182.193 65.4268 182.831 65.2238 183.471 65.0236L183.322 64.5463C183.958 64.3477 184.595 64.1519 185.236 63.9588L185.38 64.4375C186.015 64.2459 186.652 64.0571 187.292 63.871L187.152 63.3909C187.794 63.2043 188.437 63.0205 189.083 62.8395L189.218 63.3209C189.862 63.1404 190.509 62.9625 191.158 62.7875L191.028 62.3048C191.668 62.132 192.311 61.962 192.955 61.7947L193.081 62.2787C193.724 62.1118 194.369 61.9476 195.016 61.7862L194.896 61.301C195.544 61.1392 196.195 60.9802 196.849 60.8239L196.965 61.3101C197.614 61.1548 198.265 61.0023 198.918 60.8525L198.806 60.3651C199.453 60.2166 200.102 60.0709 200.754 59.9278L200.861 60.4161C201.51 60.2734 202.162 60.1334 202.816 59.9961L202.713 59.5068C203.368 59.3692 204.025 59.2344 204.684 59.1023L204.782 59.5925C205.435 59.4617 206.089 59.3335 206.746 59.2081L206.652 58.717C207.305 58.5923 207.96 58.4702 208.616 58.3509L208.706 58.8428C209.361 58.7238 210.017 58.6074 210.676 58.4938L210.591 58.0011C211.251 57.8873 211.913 57.7761 212.576 57.6678L212.657 58.1612C213.313 58.0541 213.971 57.9496 214.63 57.8479L214.554 57.3538C215.211 57.2523 215.87 57.1536 216.531 57.0576L216.603 57.5524C217.262 57.4565 217.923 57.3634 218.585 57.2731L218.518 56.7777C219.182 56.6871 219.847 56.5992 220.514 56.5141L220.577 57.0101C221.236 56.9261 221.896 56.8447 222.558 56.7661L222.499 56.2696C223.16 56.191 223.823 56.1152 224.486 56.042L224.541 56.539C225.203 56.466 225.867 56.3957 226.532 56.3282L226.482 55.8307C227.149 55.763 227.817 55.6981 228.486 55.6358L228.533 56.1337C229.194 56.0722 229.856 56.0135 230.52 55.9574L230.478 55.4592C231.141 55.4031 231.806 55.3498 232.472 55.2991L232.509 55.7977C233.174 55.7471 233.84 55.6993 234.507 55.6542L234.474 55.1553C235.142 55.1101 235.812 55.0676 236.483 55.0278L236.512 55.5269C237.175 55.4877 237.839 55.4511 238.504 55.4172L238.479 54.9178C239.144 54.8839 239.81 54.8527 240.477 54.8242L240.499 55.3237C241.165 55.2953 241.832 55.2695 242.5 55.2465L242.483 54.7468C243.152 54.7237 243.823 54.7033 244.495 54.6857L244.508 55.1855C245.172 55.1681 245.837 55.1533 246.503 55.1412L246.495 54.6413C247.16 54.6292 247.827 54.6198 248.494 54.6132L248.499 55.1131C249.166 55.1064 249.833 55.1024 250.501 55.1012L250.501 54.6012C251.17 54.5999 251.841 54.6013 252.513 54.6054L252.51 55.1054C253.175 55.1095 253.841 55.1163 254.508 55.1258L254.515 54.6258C255.18 54.6353 255.847 54.6474 256.514 54.6622L256.503 55.1621C257.169 55.1768 257.836 55.1943 258.504 55.2144L258.519 54.7147C259.188 54.7349 259.858 54.7578 260.529 54.7834L260.51 55.283C260.844 55.2958 261.179 55.3093 261.515 55.3234C261.85 55.3375 262.185 55.3523 262.519 55.3678L262.542 54.8683C263.213 54.8993 263.883 54.9329 264.551 54.9691L264.524 55.4684C265.191 55.5046 265.857 55.5433 266.522 55.5847L266.553 55.0857C267.219 55.1271 267.884 55.1712 268.548 55.2178L268.513 55.7166C269.178 55.7633 269.843 55.8127 270.506 55.8646L270.545 55.3661C271.214 55.4186 271.883 55.4736 272.55 55.5313L272.507 56.0295C273.173 56.087 273.837 56.1472 274.501 56.21L274.548 55.7122C275.213 55.7751 275.876 55.8406 276.539 55.9087L276.487 56.4061C277.15 56.4743 277.812 56.545 278.472 56.6183L278.527 56.1214C279.195 56.1955 279.862 56.2723 280.527 56.3517L280.468 56.8482C281.131 56.9274 281.794 57.0093 282.455 57.0937L282.519 56.5977C283.181 56.6823 283.842 56.7695 284.502 56.8593L284.434 57.3547C285.094 57.4445 285.753 57.5369 286.41 57.6319L286.481 57.137C287.147 57.2332 287.811 57.3319 288.473 57.4333L288.397 57.9275C289.058 58.0287 289.718 58.1325 290.375 58.2388L290.455 57.7452C291.115 57.8518 291.773 57.9609 292.429 58.0726L292.345 58.5655C293.001 58.6773 293.656 58.7916 294.31 58.9085L294.398 58.4163C295.06 58.5347 295.72 58.6558 296.378 58.7794L296.286 59.2708C296.943 59.3941 297.599 59.5201 298.253 59.6486L298.349 59.158C299.004 59.2868 299.658 59.4181 300.31 59.5521L300.209 60.0418C300.862 60.1759 301.513 60.3126 302.162 60.4518L302.267 59.963C302.924 60.1039 303.58 60.2475 304.234 60.3936L304.125 60.8816C304.777 61.0274 305.428 61.1759 306.076 61.3269L306.19 60.8399C306.84 60.9912 307.488 61.1451 308.135 61.3016L308.017 61.7875C308.666 61.9444 309.312 62.1039 309.957 62.2659L310.079 61.781C310.731 61.9448 311.38 62.1113 312.028 62.2803L311.902 62.7641C312.549 62.9328 313.193 63.104 313.836 63.2778L313.967 62.7952C314.611 62.9694 315.253 63.1461 315.893 63.3254L315.758 63.8069C316.401 63.9871 317.043 64.1699 317.682 64.3553L317.821 63.8751C318.467 64.0622 319.11 64.2519 319.751 64.4441L319.607 64.923C320.247 65.1149 320.884 65.3093 321.519 65.5062L321.667 65.0286C322.304 65.226 322.939 65.426 323.571 65.6285L323.419 66.1046C324.056 66.3089 324.692 66.5157 325.325 66.7251L325.483 66.2504C326.12 66.4611 326.755 66.6744 327.388 66.8903L327.226 67.3635C327.858 67.5789 328.487 67.7968 329.113 68.0173L329.279 67.5456C329.908 67.7666 330.533 67.9902 331.157 68.2162L330.986 68.6863C331.618 68.9153 332.247 69.147 332.874 69.3812L333.049 68.9128C333.677 69.1476 334.303 69.3849 334.926 69.6248L334.746 70.0915C335.368 70.3308 335.987 70.5726 336.604 70.817L336.788 70.3522C337.41 70.5985 338.028 70.8473 338.645 71.0987L338.456 71.5617C339.077 71.8152 339.696 72.0712 340.312 72.3298L340.505 71.8688C341.123 72.1281 341.737 72.3899 342.349 72.6542L342.151 73.1132C342.761 73.3769 343.369 73.6431 343.974 73.9118L344.177 73.4548C344.791 73.7275 345.402 74.0028 346.01 74.2806L345.802 74.7354C346.411 75.0137 347.018 75.2946 347.621 75.578L347.834 75.1255C348.439 75.4097 349.041 75.6964 349.64 75.9856L349.422 76.4359C350.022 76.7252 350.618 77.0171 351.211 77.3115L351.433 76.8636C352.037 77.163 352.637 77.4649 353.234 77.7694L353.007 78.2149C353.602 78.5185 354.194 78.8247 354.783 79.1335L355.015 78.6906C355.606 79.0002 356.193 79.3123 356.777 79.6269L356.54 80.0671C357.13 80.3847 357.716 80.7048 358.299 81.0274L358.541 80.59C359.129 80.9153 359.713 81.2432 360.294 81.5737L360.047 82.0083C360.626 82.3378 361.202 82.6698 361.774 83.0042L362.027 82.5725C362.603 82.9096 363.176 83.2492 363.746 83.5912L363.489 84.0199C364.064 84.3656 364.636 84.7138 365.204 85.0645L365.467 84.639C366.037 84.9908 366.603 85.3452 367.166 85.702L366.898 86.1242C367.459 86.48 368.016 86.8382 368.569 87.1988L368.842 86.78C369.406 87.1479 369.967 87.5183 370.523 87.8913L370.244 88.3066C370.8 88.6791 371.352 89.0541 371.9 89.4316L372.183 89.0199C372.733 89.3986 373.278 89.7798 373.82 90.1635L373.53 90.5714C374.076 90.9582 374.617 91.3474 375.155 91.7391L375.449 91.3351C375.993 91.7312 376.531 92.1298 377.066 92.5309L376.766 92.9309C377.299 93.3306 377.827 93.7328 378.351 94.1374L378.657 93.7417C379.186 94.1505 379.711 94.5618 380.232 94.9755L379.921 95.3669C380.446 95.7844 380.967 96.2044 381.482 96.6268L381.799 96.2399C382.317 96.6638 382.83 97.0903 383.339 97.5191L383.016 97.9013C383.524 98.3301 384.028 98.7612 384.527 99.1947L384.855 98.8174C385.363 99.2596 385.867 99.7043 386.366 100.151L386.032 100.524C386.529 100.969 387.021 101.417 387.507 101.867L387.847 101.5C388.336 101.953 388.82 102.408 389.299 102.865L388.954 103.227C389.44 103.691 389.92 104.157 390.395 104.626L390.747 104.27C391.224 104.741 391.695 105.214 392.162 105.69L391.805 106.04C392.269 106.513 392.728 106.989 393.181 107.467L393.544 107.123C394.008 107.613 394.467 108.105 394.92 108.599L394.551 108.937C395.001 109.429 395.446 109.924 395.886 110.421L396.26 110.09C396.701 110.589 397.137 111.09 397.566 111.594L397.185 111.919C397.621 112.43 398.05 112.943 398.473 113.459L398.86 113.141C399.285 113.659 399.704 114.18 400.117 114.703L399.724 115.013C400.136 115.533 400.54 116.056 400.939 116.582L401.337 116.279C401.745 116.816 402.146 117.355 402.54 117.897L402.136 118.191C402.528 118.73 402.914 119.271 403.293 119.814L403.703 119.528C404.085 120.076 404.46 120.626 404.829 121.178L404.413 121.455C404.785 122.012 405.149 122.571 405.507 123.133L405.929 122.864C406.289 123.428 406.641 123.995 406.987 124.563L406.56 124.823C406.905 125.392 407.243 125.962 407.574 126.535L408.007 126.284C408.343 126.866 408.672 127.45 408.994 128.037L408.555 128.277C408.875 128.86 409.187 129.445 409.492 130.032L409.935 129.802C410.244 130.396 410.545 130.993 410.838 131.591L410.389 131.811C410.682 132.41 410.967 133.011 411.245 133.614L411.699 133.405C411.978 134.012 412.25 134.621 412.513 135.231L412.054 135.429C412.318 136.041 412.573 136.655 412.821 137.271L413.285 137.085C413.535 137.706 413.776 138.329 414.01 138.955L413.541 139.13C413.773 139.751 413.996 140.374 414.211 140.999L414.684 140.837C414.902 141.471 415.112 142.107 415.313 142.745L414.836 142.895C415.036 143.529 415.227 144.164 415.41 144.802L415.89 144.664C416.074 145.306 416.249 145.951 416.416 146.596L415.932 146.721C416.097 147.365 416.254 148.01 416.402 148.657L416.89 148.546C417.039 149.197 417.179 149.85 417.31 150.505L416.819 150.603C416.95 151.254 417.071 151.906 417.183 152.56L417.676 152.475C417.788 153.134 417.892 153.794 417.987 154.456L417.492 154.527C417.585 155.184 417.67 155.842 417.745 156.502L418.242 156.445C418.318 157.108 418.384 157.772 418.441 158.438L417.943 158.48C417.999 159.141 418.047 159.803 418.084 160.466L418.584 160.438C418.622 161.105 418.65 161.773 418.669 162.442L418.17 162.457C418.188 163.118 418.198 163.78 418.198 164.443L418.698 164.443Z" stroke="#595959" stroke-dasharray="2 2"/>
<path d="M407.3 20.4377C428.491 41.318 432.367 75.8011 421.31 114.815C410.258 153.809 384.312 197.206 346.073 235.74C307.835 274.274 264.577 300.614 225.571 312.064C186.545 323.52 151.898 320.047 130.706 299.166C109.515 278.286 105.639 243.803 116.696 204.789C127.748 165.795 153.694 122.398 191.932 83.8637C230.171 45.3297 273.429 18.9903 312.435 7.53979C351.461 -3.91638 386.108 -0.442541 407.3 20.4377Z" stroke="#7246EE"/>
<ellipse cx="3.23328" cy="3.22481" rx="3.23328" ry="3.22481" transform="matrix(0.932541 0.361065 -0.363303 0.931671 273.477 128.892)" fill="#7246EE"/>
<ellipse cx="3.23328" cy="3.22481" rx="3.23328" ry="3.22481" transform="matrix(0.932541 0.361065 -0.363303 0.931671 289.648 233.648)" fill="#595959"/>
<path d="M387.286 146.321C386.093 149.381 382.635 150.9 379.561 149.71C376.487 148.519 374.965 145.072 376.158 142.012C377.352 138.952 380.81 137.433 383.884 138.623C386.958 139.814 388.48 143.261 387.286 146.321Z" fill="#F8F8FA" stroke="#595959"/>
<path d="M174.357 106.652C173.811 108.053 172.227 108.749 170.818 108.204C169.41 107.658 168.713 106.079 169.26 104.678C169.806 103.277 171.389 102.581 172.798 103.126C174.207 103.672 174.904 105.251 174.357 106.652Z" fill="#F8F8FA" stroke="#595959"/>
<ellipse cx="3.23328" cy="3.22481" rx="3.23328" ry="3.22481" transform="matrix(0.932541 0.361065 -0.363303 0.931671 107.695 241.707)" fill="#7246EE"/>
<ellipse cx="3.23328" cy="3.22481" rx="3.23328" ry="3.22481" transform="matrix(0.932541 0.361065 -0.363303 0.931671 394.777 213.503)" fill="#7246EE"/>
<path d="M220.818 217.303C219.948 219.533 217.427 220.641 215.186 219.773C212.944 218.905 211.835 216.392 212.705 214.161C213.575 211.931 216.096 210.823 218.337 211.691C220.579 212.559 221.688 215.072 220.818 217.303Z" fill="#D0C4F2" stroke="#7246EE"/>
<path d="M226.455 313.014C225.909 314.415 224.325 315.111 222.916 314.565C221.507 314.02 220.811 312.441 221.357 311.04C221.903 309.639 223.487 308.943 224.896 309.488C226.305 310.034 227.001 311.613 226.455 313.014Z" fill="#D0C4F2" stroke="#7246EE"/>
</svg>
