<svg width="321" height="208" viewBox="0 0 321 208" fill="none" xmlns="http://www.w3.org/2000/svg">
<g clip-path="url(#clip0_6182_148095)">
<g clip-path="url(#clip1_6182_148095)">
<path d="M53.3029 127.457C68.0561 127.457 80.0159 115.476 80.0159 100.696C80.0159 85.9165 68.0561 73.9351 53.3029 73.9351C38.5497 73.9351 26.5898 85.9165 26.5898 100.696C26.5898 115.476 38.5497 127.457 53.3029 127.457Z" stroke="black" stroke-width="0.6" stroke-miterlimit="10"/>
<path d="M150.746 84.3483C157.946 84.3483 163.783 78.5009 163.783 71.2877C163.783 64.0745 157.946 58.2271 150.746 58.2271C143.546 58.2271 137.709 64.0745 137.709 71.2877C137.709 78.5009 143.546 84.3483 150.746 84.3483Z" stroke="black" stroke-width="0.6" stroke-miterlimit="10"/>
<path d="M53.3008 127.464V140.397" stroke="black" stroke-width="0.6" stroke-miterlimit="10"/>
<path d="M151.01 84.1597V157.701H167.967" stroke="black" stroke-width="0.6" stroke-miterlimit="10"/>
<path d="M61.6308 99.3828H71.2187L70.0219 100.595L68.8789 101.754V110.867C68.8789 112.06 68.0115 113.029 66.9357 113.029H50.2947C49.2189 113.029 48.3516 112.06 48.3516 110.867V104.132" fill="#F5FBFF"/>
<path d="M61.6308 99.3828H71.2187L70.0219 100.595L68.8789 101.754V110.867C68.8789 112.06 68.0115 113.029 66.9357 113.029H50.2947C49.2189 113.029 48.3516 112.06 48.3516 110.867V104.132" stroke="black" stroke-width="0.6" stroke-miterlimit="10"/>
<path d="M37.8118 88.6465H35.082L36.4469 90.0341L37.7513 91.361V101.768C37.7513 103.128 38.7464 104.233 39.9701 104.233H58.9779C60.2016 104.233 61.1967 103.128 61.1967 101.768V88.6465H37.8118Z" fill="#1F8DF2" stroke="black" stroke-width="0.6" stroke-miterlimit="10"/>
<path d="M199.312 140.201H167.986V171.583H199.312V140.201Z" stroke="black" stroke-width="0.6" stroke-miterlimit="10"/>
<path d="M122.945 97.7593H96.5879V124.163H122.945V97.7593Z" fill="black" stroke="black" stroke-width="0.48" stroke-miterlimit="10"/>
<path d="M202.282 110.956L183.645 92.2852L165.008 110.956L183.645 129.626L202.282 110.956Z" stroke="black" stroke-width="0.6" stroke-miterlimit="10"/>
<path d="M71.9727 150.978L43.9688 134.786V167.178L71.9727 150.978Z" stroke="black" stroke-width="0.6" stroke-miterlimit="10"/>
<path d="M71.9727 150.979H86.8454L109.168 124.177" stroke="black" stroke-width="0.6" stroke-miterlimit="10"/>
<path d="M74.4277 156.504H89.3004L111.623 129.702" stroke="black" stroke-width="0.48" stroke-miterlimit="10" stroke-dasharray="2.4 2.4"/>
<path d="M122.885 110.961H150.633" stroke="black" stroke-width="0.6" stroke-miterlimit="10"/>
<path d="M183.652 129.633V140.585" stroke="black" stroke-width="0.6" stroke-miterlimit="10"/>
<path d="M202.291 110.961H221.03" stroke="black" stroke-width="0.6" stroke-miterlimit="10"/>
<path d="M104.2 112.612C105.11 112.612 105.847 111.873 105.847 110.961C105.847 110.05 105.11 109.311 104.2 109.311C103.29 109.311 102.553 110.05 102.553 110.961C102.553 111.873 103.29 112.612 104.2 112.612Z" fill="white" stroke="white" stroke-width="0.6" stroke-miterlimit="10"/>
<path d="M109.768 112.612C110.678 112.612 111.416 111.873 111.416 110.961C111.416 110.05 110.678 109.311 109.768 109.311C108.859 109.311 108.121 110.05 108.121 110.961C108.121 111.873 108.859 112.612 109.768 112.612Z" fill="white" stroke="white" stroke-width="0.6" stroke-miterlimit="10"/>
<path d="M115.335 112.612C116.245 112.612 116.982 111.873 116.982 110.961C116.982 110.05 116.245 109.311 115.335 109.311C114.425 109.311 113.688 110.05 113.688 110.961C113.688 111.873 114.425 112.612 115.335 112.612Z" fill="white" stroke="white" stroke-width="0.6" stroke-miterlimit="10"/>
<path d="M220.949 89.71L263.355 114.242" stroke="black" stroke-width="0.6" stroke-miterlimit="10"/>
<path d="M257.418 111.116L294.432 89.71" stroke="black" stroke-width="0.6" stroke-miterlimit="10"/>
<path d="M257.688 153.464V115.643" stroke="black" stroke-width="0.6" stroke-miterlimit="10"/>
<path d="M294.432 132.213V89.7098L257.687 68.4585L220.949 89.7098V132.213L257.687 153.464L294.432 132.213Z" stroke="black" stroke-width="0.6" stroke-miterlimit="10"/>
<path d="M278.254 59.633V54.1589L273.336 51.4219L268.418 54.1589V59.633L273.336 62.3701L278.254 59.633Z" stroke="black" stroke-width="0.6" stroke-miterlimit="10"/>
<path d="M234.536 165.283V161.999L231.531 160.356L228.525 161.999V165.283L231.531 166.925L234.536 165.283Z" stroke="black" stroke-width="0.6" stroke-miterlimit="10"/>
<path d="M197.379 81.6665V78.6558L194.646 77.1504L191.914 78.6558V81.6665L194.646 83.1719L197.379 81.6665Z" stroke="black" stroke-width="0.6" stroke-miterlimit="10"/>
<path d="M257.762 125.87C265.76 125.87 272.243 119.252 272.243 111.09C272.243 102.927 265.76 96.3096 257.762 96.3096C249.765 96.3096 243.281 102.927 243.281 111.09C243.281 119.252 249.765 125.87 257.762 125.87Z" fill="black" stroke="black" stroke-width="0.48" stroke-miterlimit="10"/>
<path d="M275.8 92.4241C277.234 92.4241 278.396 91.2601 278.396 89.8241C278.396 88.3882 277.234 87.2241 275.8 87.2241C274.367 87.2241 273.205 88.3882 273.205 89.8241C273.205 91.2601 274.367 92.4241 275.8 92.4241Z" stroke="black" stroke-width="0.516" stroke-miterlimit="10"/>
<path d="M237.072 132.172C238.505 132.172 239.667 131.008 239.667 129.572C239.667 128.136 238.505 126.972 237.072 126.972C235.639 126.972 234.477 128.136 234.477 129.572C234.477 131.008 235.639 132.172 237.072 132.172Z" fill="#F5FBFF" stroke="black" stroke-width="0.48" stroke-miterlimit="10"/>
<path d="M261.613 111.19C263.125 111.19 264.35 109.963 264.35 108.448C264.35 106.934 263.125 105.707 261.613 105.707C260.102 105.707 258.877 106.934 258.877 108.448C258.877 109.963 260.102 111.19 261.613 111.19Z" stroke="white" stroke-width="0.84" stroke-miterlimit="10"/>
<path d="M259.287 110.18L253.551 114.134L251.158 115.791L249.369 113.197" stroke="white" stroke-width="0.84" stroke-miterlimit="10"/>
<path d="M252.893 110.759L254.681 113.359" stroke="white" stroke-width="0.84" stroke-miterlimit="10"/>
<path d="M49.6035 150.979H59.7562" stroke="black" stroke-width="0.6" stroke-miterlimit="10"/>
<path d="M60.9939 150.978L57.0605 148.708V153.255L60.9939 150.978Z" fill="black" stroke="black" stroke-width="0.6" stroke-miterlimit="10"/>
<path d="M155.708 66.3169L145.777 76.2656" stroke="black" stroke-width="0.6" stroke-miterlimit="10"/>
<path d="M178.02 111.029L181.731 114.747L189.282 107.176" stroke="#1F8DF2" stroke-width="1.8" stroke-miterlimit="10"/>
<path d="M187.249 161.581L184.384 155.593C185.541 155.269 186.388 154.219 186.388 152.952C186.388 151.43 185.157 150.197 183.638 150.197C182.118 150.197 180.888 151.43 180.888 152.952C180.888 154.212 181.742 155.263 182.892 155.593L180.027 161.581H187.235H187.249Z" stroke="black" stroke-width="0.6" stroke-miterlimit="10"/>
<path d="M204.371 63.0109L189.182 53.0447L204.371 43.0827C208.398 40.4405 213.612 40.4405 217.64 43.0827L232.829 53.0489L217.64 63.0152C213.612 65.6573 208.398 65.6573 204.371 63.0152V63.0109Z" stroke="black" stroke-width="0.48" stroke-miterlimit="10"/>
<path d="M211.846 35V38.5024" stroke="black" stroke-width="0.48" stroke-miterlimit="10"/>
<path d="M203.619 36.3608L205.645 39.3943" stroke="black" stroke-width="0.48" stroke-miterlimit="10"/>
<path d="M220.073 36.3608L218.043 39.3943" stroke="black" stroke-width="0.48" stroke-miterlimit="10"/>
<path d="M211.846 71.1294V67.627" stroke="black" stroke-width="0.48" stroke-miterlimit="10"/>
<path d="M220.073 69.7684L218.043 66.7349" stroke="black" stroke-width="0.48" stroke-miterlimit="10"/>
<path d="M203.619 69.7684L205.645 66.7349" stroke="black" stroke-width="0.48" stroke-miterlimit="10"/>
<path d="M211.279 58.9977C214.379 58.9977 216.893 56.4801 216.893 53.3746C216.893 50.269 214.379 47.7515 211.279 47.7515C208.179 47.7515 205.666 50.269 205.666 53.3746C205.666 56.4801 208.179 58.9977 211.279 58.9977Z" fill="#1F8DF2"/>
<path d="M211.279 62.0988C216.089 62.0988 219.989 58.1928 219.989 53.3744C219.989 48.556 216.089 44.6499 211.279 44.6499C206.47 44.6499 202.57 48.556 202.57 53.3744C202.57 58.1928 206.47 62.0988 211.279 62.0988Z" stroke="black" stroke-width="0.48" stroke-miterlimit="10"/>
<path d="M208.748 52.4694C209.544 52.4694 210.189 51.8229 210.189 51.0255C210.189 50.228 209.544 49.5815 208.748 49.5815C207.952 49.5815 207.307 50.228 207.307 51.0255C207.307 51.8229 207.952 52.4694 208.748 52.4694Z" fill="white"/>
</g>
</g>
<defs>
<clipPath id="clip0_6182_148095">
<rect width="320" height="208" fill="white" transform="translate(0.792969)"/>
</clipPath>
<clipPath id="clip1_6182_148095">
<rect width="269.4" height="137.4" fill="white" transform="translate(25.793 35)"/>
</clipPath>
</defs>
</svg>
