<svg width="321" height="160" viewBox="0 0 321 160" fill="none" xmlns="http://www.w3.org/2000/svg">
<path d="M115.686 83.6919L206.762 83.6919" stroke="#040000" stroke-width="0.615385" stroke-miterlimit="10" stroke-dasharray="1.23 1.23"/>
<path d="M117.615 128.461V124.461L113.881 122.461L110.148 124.461V128.461L113.881 130.461L117.615 128.461Z" stroke="#040000" stroke-width="0.533333" stroke-miterlimit="10"/>
<path d="M205.533 60.4612V57.0766L202.456 55.3843L199.379 57.0766V60.4612L202.456 62.1535L205.533 60.4612Z" stroke="#040000" stroke-width="0.615385" stroke-miterlimit="10"/>
<path d="M251.071 126.769C275.542 126.769 295.379 106.932 295.379 82.4615C295.379 57.991 275.542 38.1538 251.071 38.1538C226.601 38.1538 206.764 57.991 206.764 82.4615C206.764 106.932 226.601 126.769 251.071 126.769Z" stroke="black" stroke-width="0.492308" stroke-miterlimit="10"/>
<path d="M251.128 106.723C264.414 106.723 275.184 95.9191 275.184 82.5921C275.184 69.2651 264.414 58.4614 251.128 58.4614C237.842 58.4614 227.072 69.2651 227.072 82.5921C227.072 95.9191 237.842 106.723 251.128 106.723Z" fill="#F9FAF7" stroke="black" stroke-width="0.492308" stroke-miterlimit="10" stroke-dasharray="2.46 2.46"/>
<path d="M270.456 82.4614C270.456 93.1718 261.91 101.846 251.379 101.846C240.847 101.846 232.302 93.1718 232.302 82.4614C232.302 71.7509 240.847 63.0767 251.379 63.0767C261.91 63.0767 270.456 71.7509 270.456 82.4614Z" fill="#1A1A1A" stroke="black" stroke-width="0.615385"/>
<g clip-path="url(#clip0_6235_147550)">
<path d="M246.439 80.2499C246.439 80.2499 246.199 73.6821 251.405 73.6821C256.611 73.6821 256.291 80.2499 256.291 80.2499H254.929C254.929 80.2499 254.889 75.284 251.405 75.1639C247.921 75.0438 248.121 80.2499 248.121 80.2499H246.439Z" fill="white"/>
<path d="M257.201 86.1379L257.212 80.6558H251.485H245.759L245.689 86.1379C245.7 89.307 248.273 91.879 251.445 91.879C254.618 91.879 257.201 89.3106 257.201 86.1379Z" fill="white"/>
<path d="M251.442 83.3257C250.817 83.3257 250.312 83.83 250.312 84.4556C250.312 84.9115 250.578 85.3067 250.967 85.4863V88.3061H252.042V85.417C252.362 85.2168 252.577 84.8609 252.577 84.4556C252.577 83.83 252.068 83.3257 251.442 83.3257Z" fill="black"/>
</g>
<path d="M278.608 37.2305C280.222 37.2305 281.531 35.9219 281.531 34.3076C281.531 32.6934 280.222 31.3848 278.608 31.3848C276.994 31.3848 275.686 32.6934 275.686 34.3076C275.686 35.9219 276.994 37.2305 278.608 37.2305Z" stroke="black" stroke-width="0.529231" stroke-miterlimit="10"/>
<rect width="33.8466" height="39.6077" transform="translate(143.379 66.6577)" fill="white"/>
<path d="M143.379 76.4531L159.987 86.2486" stroke="#040000" stroke-width="0.615385" stroke-miterlimit="10"/>
<path d="M159.986 86.0361L177.015 76.6665" stroke="#040000" stroke-width="0.615385" stroke-miterlimit="10"/>
<path d="M177.225 96.3644V76.5587L160.301 66.6577L143.379 76.5587V96.3644L160.301 106.265L177.225 96.3644Z" stroke="#040000" stroke-width="0.615385" stroke-miterlimit="10"/>
<path d="M159.996 86.1538V106.154" stroke="black" stroke-width="0.615385"/>
<rect x="152.609" y="56" width="16" height="18.963" fill="white" stroke="#040000" stroke-width="0.615385" stroke-miterlimit="10"/>
<path d="M157.35 64.9336L159.549 67.1369L164.023 62.6504" stroke="#7CA016" stroke-width="1.53846" stroke-miterlimit="10"/>
<path d="M135.939 45.9078L135.703 45.9013C131.641 45.917 128.357 49.2602 128.357 53.2306C128.357 57.2785 131.658 60.5605 135.73 60.5605H135.73H135.731H135.731H135.731H135.732H135.732H135.733H135.733H135.733H135.734H135.734H135.735H135.735H135.735H135.736H135.736H135.737H135.737H135.737H135.738H135.738H135.738H135.739H135.739H135.74H135.74H135.74H135.741H135.741H135.742H135.742H135.742H135.743H135.743H135.744H135.744H135.744H135.745H135.745H135.746H135.746H135.746H135.747H135.747H135.747H135.748H135.748H135.749H135.749H135.749H135.75H135.75H135.751H135.751H135.751H135.752H135.752H135.753H135.753H135.753H135.754H135.754H135.755H135.755H135.755H135.756H135.756H135.756H135.757H135.757H135.758H135.758H135.758H135.759H135.759H135.76H135.76H135.76H135.761H135.761H135.762H135.762H135.762H135.763H135.763H135.764H135.764H135.764H135.765H135.765H135.765H135.766H135.766H135.767H135.767H135.767H135.768H135.768H135.769H135.769H135.769H135.77H135.77H135.771H135.771H135.771H135.772H135.772H135.773H135.773H135.773H135.774H135.774H135.774H135.775H135.775H135.776H135.776H135.776H135.777H135.777H135.778H135.778H135.778H135.779H135.779H135.78H135.78H135.78H135.781H135.781H135.782H135.782H135.782H135.783H135.783H135.783H135.784H135.784H135.785H135.785H135.785H135.786H135.786H135.787H135.787H135.787H135.788H135.788H135.789H135.789H135.789H135.79H135.79H135.791H135.791H135.791H135.792H135.792H135.792H135.793H135.793H135.794H135.794H135.794H135.795H135.795H135.796H135.796H135.796H135.797H135.797H135.798H135.798H135.798H135.799H135.799H135.8H135.8H135.8H135.801H135.801H135.801H135.802H135.802H135.803H135.803H135.803H135.804H135.804H135.805H135.805H135.805H135.806H135.806H135.807H135.807H135.807H135.808H135.808H135.809H135.809H135.809H135.81H135.81H135.81H135.811H135.811H135.812H135.812H135.812H135.813H135.813H135.814H135.814H135.814H135.815H135.815H135.816H135.816H135.816H135.817H135.817H135.818H135.818H135.818H135.819H135.819H135.819H135.82H135.82H135.821H135.821H135.821H135.822H135.822H135.823H135.823H135.823H135.824H135.824H135.825H135.825H135.825H135.826H135.826H135.827H135.827H135.827H135.828H135.828H135.828H135.829H135.829H135.83H135.83H135.83H135.831H135.831H135.832H135.832H135.832H135.833H135.833H135.834H135.834H135.834H135.835H135.835H135.836H135.836H135.836H135.837H135.837H135.837H135.838H135.838H135.839H135.839H135.839H135.84H135.84H135.841H135.841H135.841H135.842H135.842H135.843H135.843H135.843H135.844H135.844H135.845H135.845H135.845H135.846H135.846H135.846H135.847H135.847H135.848H135.848H135.848H135.849H135.849H135.85H135.85H135.85H135.851H135.851H135.852H135.852H135.852H135.853H135.853H135.854H135.854H135.854H135.855H135.855H135.855H135.856H135.856H135.857H135.857H135.857H135.858H135.858H135.859H135.859H135.859H135.86H135.86H135.861H135.861H135.861H135.862H135.862H135.863H135.863H135.863H135.864H135.864H135.864H135.865H135.865H135.866H135.866H135.866H135.867H135.867H135.868H135.868H135.868H135.869H135.869H135.87H135.87H135.87H135.871H135.871H135.872H135.872H135.872H135.873H135.873H135.873H135.874H135.874H135.875H135.875H135.875H135.876H135.876H135.877H135.877H135.877H135.878H135.878H135.879H135.879H135.879H135.88H135.88H135.881H135.881H135.881H135.882H135.882H135.882H135.883H135.883H135.884H135.884H135.884H135.885H135.885H135.886H135.886H135.886H135.887H135.887H135.888H135.888H135.888H135.889H135.889H135.89H135.89H135.89H135.891H135.891H135.891H135.892H135.892H135.893H135.893H135.893H135.894H135.894H135.895H135.895H135.895H135.896H135.896H135.897H135.897H135.897H135.898H135.898H135.899H135.899H135.899H135.9H135.9H135.9H135.901H135.901H135.902H135.902H135.902H135.903H135.903H135.904H135.904H135.904H135.905H135.905H135.906H135.906H135.906H135.907H135.907H135.908H135.908H135.908H135.909H135.909H135.909H135.91H135.91H135.911H135.911H135.911H135.912H135.912H135.913H135.913H135.913H135.914H135.914H135.915H135.915H135.915H135.916H135.916H135.917H135.917H135.917H135.918H135.918H135.918H135.919H135.919H135.92H135.92H135.92H135.921H135.921H135.922H135.922H135.922H135.923H135.923H135.924H135.924H135.924H135.925H135.925H135.926H135.926H135.926H135.927H135.927H135.927H135.928H135.928H135.929H135.929H135.929H135.93H135.93H144.546L142.419 57.3761L142.419 57.3761L142.416 57.3719C142.246 57.1098 142.203 56.764 142.354 56.4573L142.354 56.4567C142.884 55.3852 143.16 54.1626 143.096 52.8721L143.096 52.8718C142.913 49.0824 139.759 46.0133 135.939 45.9078Z" fill="#1A1A1A" stroke="black" stroke-width="0.725354"/>
<path d="M174.96 44.3349C174.244 42.8945 173.872 41.251 173.958 39.5178C174.206 34.4222 178.462 30.3041 183.614 30.1624L174.96 44.3349ZM174.96 44.3349C175.075 44.5663 175.046 44.8355 174.908 45.048L174.96 44.3349ZM183.624 30.525L183.929 30.5166C189.21 30.5359 193.479 34.8627 193.479 39.9995C193.479 45.2361 189.189 49.4834 183.895 49.4834H183.895H183.894H183.894H183.893H183.892H183.892H183.891H183.891H183.89H183.89H183.889H183.889H183.888H183.888H183.887H183.887H183.886H183.886H183.885H183.885H183.884H183.884H183.883H183.883H183.882H183.882H183.881H183.881H183.88H183.88H183.879H183.879H183.878H183.878H183.877H183.877H183.876H183.876H183.875H183.875H183.874H183.874H183.873H183.873H183.872H183.872H183.871H183.871H183.87H183.87H183.869H183.869H183.868H183.868H183.867H183.867H183.866H183.866H183.865H183.865H183.864H183.864H183.863H183.863H183.862H183.862H183.861H183.861H183.86H183.86H183.859H183.859H183.858H183.858H183.857H183.857H183.856H183.856H183.855H183.855H183.854H183.854H183.853H183.853H183.852H183.852H183.851H183.851H183.85H183.85H183.849H183.849H183.848H183.848H183.847H183.847H183.846H183.846H183.845H183.845H183.844H183.844H183.843H183.843H183.842H183.842H183.841H183.841H183.84H183.84H183.839H183.839H183.838H183.838H183.837H183.837H183.836H183.836H183.835H183.835H183.834H183.834H183.833H183.833H183.832H183.832H183.831H183.831H183.83H183.83H183.829H183.829H183.828H183.828H183.827H183.827H183.826H183.826H183.825H183.825H183.824H183.824H183.823H183.823H183.822H183.822H183.821H183.821H183.82H183.82H183.819H183.819H183.818H183.818H183.817H183.817H183.816H183.816H183.815H183.815H183.814H183.814H183.813H183.813H183.812H183.811H183.811H183.81H183.81H183.809H183.809H183.808H183.808H183.807H183.807H183.806H183.806H183.805H183.805H183.804H183.804H183.803H183.803H183.802H183.802H183.801H183.801H183.8H183.8H183.799H183.799H183.798H183.798H183.797H183.797H183.796H183.796H183.795H183.795H183.794H183.794H183.793H183.793H183.792H183.792H183.791H183.791H183.79H183.79H183.789H183.789H183.788H183.788H183.787H183.787H183.786H183.786H183.785H183.785H183.784H183.784H183.783H183.783H183.782H183.782H183.781H183.781H183.78H183.78H183.779H183.779H183.778H183.778H183.777H183.777H183.776H183.776H183.775H183.775H183.774H183.774H183.773H183.773H183.772H183.772H183.771H183.771H183.77H183.77H183.769H183.769H183.768H183.768H183.767H183.767H183.766H183.766H183.765H183.765H183.764H183.764H183.763H183.763H183.762H183.762H183.761H183.761H183.76H183.76H183.759H183.759H183.758H183.758H183.757H183.757H183.756H183.756H183.755H183.755H183.754H183.754H183.753H183.753H183.752H183.752H183.751H183.751H183.75H183.75H183.749H183.749H183.748H183.748H183.747H183.747H183.746H183.746H183.745H183.745H183.744H183.744H183.743H183.743H183.742H183.742H183.741H183.741H183.74H183.74H183.739H183.739H183.738H183.738H183.737H183.737H183.736H183.736H183.735H183.735H183.734H183.734H183.733H183.733H183.732H183.731H183.731H183.73H183.73H183.729H183.729H183.728H183.728H183.727H183.727H183.726H183.726H183.725H183.725H183.724H183.724H183.723H183.723H183.722H183.722H183.721H183.721H183.72H183.72H183.719H183.719H183.718H183.718H183.717H183.717H183.716H183.716H183.715H183.715H183.714H183.714H183.713H183.713H183.712H183.712H183.711H183.711H183.71H183.71H183.709H183.709H183.708H183.708H183.707H183.707H183.706H183.706H183.705H183.705H183.704H183.704H183.703H183.703H183.702H183.702H183.701H183.701H183.7H183.7H183.699H183.699H183.698H183.698H183.697H183.697H183.696H183.696H183.695H183.695H183.694H183.694H183.693H183.693H183.692H183.692H183.691H183.691H183.69H183.69H183.689H183.689H183.688H183.688H183.687H183.687H183.686H183.686H183.685H183.685H183.684H183.684H183.683H183.683H183.682H183.682H183.681H183.681H183.68H183.68H183.679H183.679H183.678H183.678H183.677H183.677H183.676H183.676H183.675H183.675H183.674H183.674H183.673H183.673H183.672H183.672H183.671H183.671H183.67H183.67H183.669H183.669H183.668H183.668H183.667H183.667H183.666H183.666H183.665H183.665H183.664H183.664H183.663H183.663H183.662H183.662H183.661H183.661H183.66H183.66H183.659H183.659H183.658H183.658H183.657H183.657H183.656H183.656H183.655H183.655H183.654H183.654H183.653H183.653H183.652H183.652H183.651H183.65H183.65H183.649H183.649H183.648H183.648H183.647H183.647H183.646H183.646H183.645H183.645H183.644H183.644H183.643H183.643H183.642H183.642H183.641H183.641H183.64H183.64H183.639H183.639H183.638H183.638H183.637H172.368L175.209 45.2501L175.209 45.2501L175.211 45.2458C175.412 44.9371 175.462 44.5319 175.285 44.174L175.285 44.1735C174.596 42.787 174.238 41.2051 174.32 39.5358L174.32 39.5355C174.559 34.6327 178.657 30.6615 183.624 30.525Z" fill="#1A1A1A" stroke="black" stroke-width="0.725354"/>
<g clip-path="url(#clip1_6235_147550)">
<path d="M189.18 35.9685C187.309 35.3746 185.254 35.7546 183.719 36.9561C182.184 35.7546 180.129 35.3746 178.259 35.9685L177.857 36.0958L177.842 36.101L177.927 36.4492L177.946 36.5264C177.947 36.5302 177.948 36.5344 177.949 36.5381C177.962 36.5906 177.976 36.6425 177.99 36.6945C177.991 36.6987 177.992 36.7029 177.993 36.7071C178.494 38.5007 179.814 39.9526 181.525 40.6327C181.486 40.8574 181.461 41.082 181.449 41.3067C181.348 43.0858 182.051 44.8349 183.406 46.0532L183.719 46.3345L184.032 46.0532C185.388 44.8344 186.091 43.0858 185.99 41.3067C185.689 41.4167 185.379 41.5047 185.063 41.5697C185.081 42.8517 184.607 44.1001 183.719 45.0502C182.832 44.1005 182.357 42.8517 182.375 41.5697C182.379 41.3502 182.396 41.1302 182.428 40.9103C182.43 40.9103 182.432 40.9107 182.433 40.9112C182.443 40.8213 182.455 40.7319 182.471 40.6435C182.509 40.423 182.566 40.2072 182.639 39.9975C182.709 39.7991 182.794 39.6062 182.894 39.42C182.943 39.3226 182.994 39.2267 183.048 39.1326C183.126 38.9978 183.209 38.8677 183.299 38.7418C183.226 38.657 183.15 38.5747 183.07 38.4965C182.923 38.3542 182.766 38.225 182.6 38.1094C182.469 38.2868 182.348 38.4722 182.237 38.6645C182.044 39.0001 181.883 39.3526 181.758 39.7167C180.462 39.1635 179.446 38.0738 178.985 36.7427C180.386 36.437 181.864 36.7516 183.02 37.6006C183.019 37.6011 183.019 37.602 183.018 37.6025C183.135 37.6858 183.247 37.7747 183.355 37.8688C183.414 37.9198 183.471 37.9727 183.527 38.027C183.538 38.0378 183.548 38.0486 183.559 38.0593C183.569 38.0701 183.58 38.0809 183.59 38.0916C183.615 38.1169 183.64 38.1417 183.664 38.1674C183.682 38.1866 183.701 38.2049 183.719 38.2241C183.975 38.4998 184.2 38.8035 184.39 39.1321C184.55 39.4092 184.682 39.6999 184.786 39.9999C184.437 40.0757 184.08 40.115 183.719 40.115C183.579 40.115 183.44 40.1089 183.301 40.0972C183.186 40.3907 183.112 40.6992 183.081 41.0165C183.316 41.0413 183.553 41.0525 183.789 41.0497C183.803 41.0497 183.817 41.0497 183.83 41.0488C183.878 41.0479 183.926 41.0465 183.974 41.0446C183.99 41.0436 184.007 41.0427 184.023 41.0422C184.068 41.0399 184.113 41.0376 184.158 41.0343C184.182 41.0324 184.206 41.0301 184.23 41.0282C184.268 41.0249 184.305 41.0221 184.342 41.0184C184.404 41.0118 184.467 41.0048 184.528 40.9964C184.53 40.9964 184.532 40.9964 184.533 40.9959C184.584 40.9889 184.634 40.9814 184.684 40.9734C184.689 40.9725 184.695 40.9716 184.7 40.9706C184.747 40.9627 184.793 40.9547 184.84 40.9458C184.847 40.9444 184.854 40.943 184.861 40.9416C184.907 40.9327 184.953 40.9229 184.999 40.9131C185.01 40.9107 185.021 40.9084 185.032 40.906C185.18 40.8728 185.326 40.834 185.469 40.79C185.545 40.7666 185.62 40.7418 185.694 40.7155L185.698 40.7141C185.75 40.6959 185.801 40.6762 185.852 40.6566C185.872 40.6486 185.893 40.6411 185.913 40.6327C187.625 39.9507 188.947 38.4876 189.445 36.7076C189.446 36.7034 189.447 36.6992 189.449 36.6949C189.463 36.643 189.477 36.591 189.489 36.5386C189.497 36.5091 189.504 36.4796 189.511 36.4497C189.538 36.3331 189.561 36.2157 189.581 36.0968L189.18 35.9695V35.9685ZM185.68 39.7162C185.555 39.3521 185.395 38.9996 185.201 38.6641C184.979 38.2798 184.717 37.9236 184.418 37.6002C185.575 36.7516 187.053 36.4366 188.454 36.7422C187.993 38.0734 186.976 39.163 185.68 39.7162Z" fill="white"/>
</g>
<path d="M140.303 51.0767H131.688V52.9228H140.303V51.0767Z" fill="white"/>
<path d="M137.226 54.1538H131.688V56H137.226V54.1538Z" fill="white"/>
<path d="M51.5908 122.518C66.7144 122.518 78.9745 110.271 78.9745 95.1628C78.9745 80.0547 66.7144 67.8071 51.5908 67.8071C36.4671 67.8071 24.207 80.0547 24.207 95.1628C24.207 110.271 36.4671 122.518 51.5908 122.518Z" fill="#E9F2B3" fill-opacity="0.1" stroke="black" stroke-width="0.426129" stroke-miterlimit="10"/>
<path d="M90.7665 122.518C105.89 122.518 118.15 110.271 118.15 95.1628C118.15 80.0547 105.89 67.8071 90.7665 67.8071C75.6429 67.8071 63.3828 80.0547 63.3828 95.1628C63.3828 110.271 75.6429 122.518 90.7665 122.518Z" fill="#E9F2B3" fill-opacity="0.3" stroke="black" stroke-width="0.426129" stroke-miterlimit="10"/>
<path d="M71.1728 89.7314C86.2964 89.7314 98.5565 77.4838 98.5565 62.3757C98.5565 47.2676 86.2964 35.02 71.1728 35.02C56.0492 35.02 43.7891 47.2676 43.7891 62.3757C43.7891 77.4838 56.0492 89.7314 71.1728 89.7314Z" fill="#E9F2B3" fill-opacity="0.7" stroke="black" stroke-width="0.426129" stroke-miterlimit="10"/>
<path fill-rule="evenodd" clip-rule="evenodd" d="M71.1769 76.0459C66.3535 80.9773 63.3809 87.7231 63.3809 95.1625C63.3809 102.602 66.3535 109.348 71.1769 114.279C76.0004 109.348 78.973 102.602 78.973 95.1625C78.973 87.7231 76.0004 80.9773 71.1769 76.0459Z" fill="#7CA016" fill-opacity="0.3"/>
<path fill-rule="evenodd" clip-rule="evenodd" d="M97.8162 68.7238C94.9509 80.7713 84.1097 89.7324 71.1733 89.7324C68.735 89.7324 66.3711 89.4141 64.1211 88.8167C66.9863 76.7693 77.8276 67.8081 90.7639 67.8081C93.2022 67.8081 95.5661 68.1265 97.8162 68.7238Z" fill="#7CA016" fill-opacity="0.3"/>
<path fill-rule="evenodd" clip-rule="evenodd" d="M78.2298 88.8157C75.9787 89.4137 73.6135 89.7324 71.1739 89.7324C58.2378 89.7324 47.3968 80.7718 44.5312 68.7248C46.7824 68.1268 49.1476 67.8081 51.5872 67.8081C64.5232 67.8081 75.3642 76.7688 78.2298 88.8157Z" fill="#7CA016" fill-opacity="0.3"/>
<path d="M29.8888 52.2069V49.082L27.0476 47.5195L24.207 49.082V52.2069L27.0476 53.7694L29.8888 52.2069Z" stroke="#040000" stroke-width="0.568172" stroke-miterlimit="10"/>
<path d="M90.7665 122.518C105.89 122.518 118.15 110.271 118.15 95.1628C118.15 80.0547 105.89 67.8071 90.7665 67.8071C75.6429 67.8071 63.3828 80.0547 63.3828 95.1628C63.3828 110.271 75.6429 122.518 90.7665 122.518Z" stroke="black" stroke-width="0.206152" stroke-miterlimit="10"/>
<path d="M51.5908 122.518C66.7144 122.518 78.9745 110.271 78.9745 95.1628C78.9745 80.0547 66.7144 67.8071 51.5908 67.8071C36.4671 67.8071 24.207 80.0547 24.207 95.1628C24.207 110.271 36.4671 122.518 51.5908 122.518Z" stroke="black" stroke-width="0.206152" stroke-miterlimit="10"/>
<defs>
<clipPath id="clip0_6235_147550">
<rect width="11.6923" height="18.24" fill="white" transform="translate(245.533 73.6489)"/>
</clipPath>
<clipPath id="clip1_6235_147550">
<rect width="11.7393" height="10.6427" fill="white" transform="translate(177.84 35.6924)"/>
</clipPath>
</defs>
</svg>
