<svg width="16" height="16" viewBox="0 0 16 16" fill="none" xmlns="http://www.w3.org/2000/svg">
<path d="M8.50008 5.03639C8.50008 4.76024 8.27622 4.53639 8.00008 4.53639C7.72394 4.53639 7.50008 4.76024 7.50008 5.03639H8.50008ZM8.00008 7.99935H7.50008C7.50008 8.27549 7.72394 8.49935 8.00008 8.49935V7.99935ZM10.963 8.49935C11.2392 8.49935 11.463 8.27549 11.463 7.99935C11.463 7.72321 11.2392 7.49935 10.963 7.49935V8.49935ZM8.00008 12.8327C5.3307 12.8327 3.16675 10.6687 3.16675 7.99935H2.16675C2.16675 11.221 4.77842 13.8327 8.00008 13.8327V12.8327ZM3.16675 7.99935C3.16675 5.32997 5.3307 3.16602 8.00008 3.16602V2.16602C4.77842 2.16602 2.16675 4.77769 2.16675 7.99935H3.16675ZM8.00008 3.16602C10.6695 3.16602 12.8334 5.32997 12.8334 7.99935H13.8334C13.8334 4.77769 11.2217 2.16602 8.00008 2.16602V3.16602ZM12.8334 7.99935C12.8334 10.6687 10.6695 12.8327 8.00008 12.8327V13.8327C11.2217 13.8327 13.8334 11.221 13.8334 7.99935H12.8334ZM7.50008 5.03639V7.99935H8.50008V5.03639H7.50008ZM8.00008 8.49935H10.963V7.49935H8.00008V8.49935Z" fill="#1A1A1A"/>
</svg>
