<svg width="32" height="32" viewBox="0 0 32 32" fill="none" xmlns="http://www.w3.org/2000/svg">
<path d="M22.9421 9.25623C21.628 8.66091 20.2408 8.23857 18.8159 8C18.6209 8.34494 18.4445 8.69983 18.2873 9.0632C16.7695 8.83686 15.226 8.83686 13.7081 9.0632C13.5509 8.69987 13.3745 8.34498 13.1796 8C11.7537 8.24059 10.3656 8.66393 9.05029 9.25934C6.43899 13.0825 5.73111 16.8107 6.08505 20.486C7.61429 21.6041 9.32595 22.4544 11.1456 23C11.5554 22.4547 11.9179 21.8761 12.2295 21.2705C11.6377 21.0518 11.0666 20.782 10.5227 20.4642C10.6658 20.3615 10.8058 20.2556 10.9411 20.1529C12.5238 20.8894 14.2512 21.2713 16.0001 21.2713C17.749 21.2713 19.4764 20.8894 21.0591 20.1529C21.196 20.2634 21.336 20.3692 21.4775 20.4642C20.9326 20.7825 20.3604 21.0529 19.7676 21.2721C20.0788 21.8774 20.4414 22.4555 20.8515 23C22.6727 22.4566 24.3856 21.6067 25.9152 20.4875C26.3305 16.2254 25.2057 12.5314 22.9421 9.25623ZM12.6778 18.2257C11.6915 18.2257 10.8766 17.34 10.8766 16.2503C10.8766 15.1606 11.6632 14.2671 12.6746 14.2671C13.6861 14.2671 14.4947 15.1606 14.4774 16.2503C14.4601 17.34 13.683 18.2257 12.6778 18.2257ZM19.3224 18.2257C18.3345 18.2257 17.5228 17.34 17.5228 16.2503C17.5228 15.1606 18.3094 14.2671 19.3224 14.2671C20.3355 14.2671 21.1377 15.1606 21.1204 16.2503C21.1031 17.34 20.3276 18.2257 19.3224 18.2257Z" fill="white"/>
</svg>  