<svg width="1em" height="1em" viewBox="0 0 33 32" fill="none" xmlns="http://www.w3.org/2000/svg">
<path d="M29.1937 9.5842C28.8889 8.43749 27.989 7.53029 26.8495 7.22547C24.7811 6.66663 16.5001 6.66663 16.5001 6.66663C16.5001 6.66663 8.21912 6.66663 6.15069 7.22547C5.01124 7.53029 4.11129 8.43749 3.80646 9.5842C3.25488 11.6599 3.25488 16 3.25488 16C3.25488 16 3.25488 20.34 3.80646 22.4157C4.11129 23.5624 5.01124 24.4697 6.15069 24.7745C8.21912 25.3333 16.5001 25.3333 16.5001 25.3333C16.5001 25.3333 24.7811 25.3333 26.8495 24.7745C27.989 24.4697 28.8889 23.5624 29.1937 22.4157C29.7453 20.34 29.7453 16 29.7453 16C29.7453 16 29.7453 11.6599 29.1937 9.5842Z" fill="#FF0000"/>
<path d="M13.793 19.9409L20.7168 16L13.793 12.0591V19.9409Z" fill="white"/>
</svg>
