<svg width="1em" height="1em" viewBox="0 0 32 32" fill="none" xmlns="http://www.w3.org/2000/svg">
<path d="M13.0189 18.2743C12.8237 18.4696 12.8237 18.7862 13.0189 18.9814C13.2142 19.1767 13.5308 19.1767 13.726 18.9814L13.0189 18.2743ZM18.981 13.7264C19.1763 13.5312 19.1763 13.2146 18.981 13.0193C18.7858 12.8241 18.4692 12.8241 18.2739 13.0193L18.981 13.7264ZM11.7558 15.697C11.951 15.5017 11.951 15.1851 11.7558 14.9899C11.5605 14.7946 11.2439 14.7946 11.0487 14.9899L11.7558 15.697ZM10.0885 16.6572L10.442 17.0107L10.442 17.0107L10.0885 16.6572ZM15.3435 21.9121L15.697 22.2657L15.6971 22.2656L15.3435 21.9121ZM17.0103 20.9519C17.2055 20.7566 17.2054 20.44 17.0101 20.2448C16.8148 20.0495 16.4982 20.0496 16.303 20.2449L17.0103 20.9519ZM14.9893 11.0485C14.7941 11.2438 14.7941 11.5603 14.9893 11.7556C15.1846 11.9509 15.5012 11.9509 15.6965 11.7556L14.9893 11.0485ZM16.6566 10.0883L17.0102 10.4419L17.0102 10.4419L16.6566 10.0883ZM21.9118 15.3433L21.5583 14.9897L21.5583 14.9898L21.9118 15.3433ZM20.2447 16.3035C20.0494 16.4988 20.0494 16.8154 20.2447 17.0106C20.44 17.2059 20.7565 17.2058 20.9518 17.0106L20.2447 16.3035ZM13.726 18.9814L18.981 13.7264L18.2739 13.0193L13.0189 18.2743L13.726 18.9814ZM11.0487 14.9899L9.73493 16.3036L10.442 17.0107L11.7558 15.697L11.0487 14.9899ZM9.73493 16.3036C8.08859 17.9499 8.08821 20.6192 9.73465 22.2657L10.4418 21.5586C9.18594 20.3027 9.18613 18.2666 10.442 17.0107L9.73493 16.3036ZM9.73465 22.2657C11.381 23.912 14.0506 23.9121 15.697 22.2657L14.9899 21.5586C13.734 22.8144 11.6976 22.8144 10.4418 21.5586L9.73465 22.2657ZM15.6971 22.2656L17.0103 20.9519L16.303 20.2449L14.9898 21.5586L15.6971 22.2656ZM15.6965 11.7556L17.0102 10.4419L16.3031 9.73476L14.9893 11.0485L15.6965 11.7556ZM17.0102 10.4419C18.266 9.18602 20.3021 9.18605 21.5579 10.4419L22.265 9.73482C20.6187 8.08844 17.9495 8.08836 16.3031 9.73476L17.0102 10.4419ZM21.5579 10.4419C22.8139 11.6978 22.8141 13.7339 21.5583 14.9897L22.2654 15.6968C23.9118 14.0504 23.9114 11.3811 22.265 9.73482L21.5579 10.4419ZM21.5583 14.9898L20.2447 16.3035L20.9518 17.0106L22.2654 15.6968L21.5583 14.9898Z" fill="#1A1A1A"/>
</svg>
