<svg width="20" height="20" viewBox="0 0 20 20" fill="none" xmlns="http://www.w3.org/2000/svg">
<path fill-rule="evenodd" clip-rule="evenodd" d="M7.25032 0.000185615L4.8734 0.984736L8.31933 9.30394L9.01554 9.01556L10.0001 6.63868L7.25032 0.000185615ZM10.0001 13.3616L10.9846 10.9847L11.6808 10.6963L15.1267 19.0155L12.7498 20.0001L10.0001 13.3616ZM0.000125562 12.7499L0.984677 15.1268L9.30388 11.6809L9.0155 10.9846L6.63863 10.0001L0.000125562 12.7499ZM13.3616 10.0001L10.9846 9.01553L10.6962 8.31939L19.0155 4.87346L20 7.25037L13.3616 10.0001Z" fill="#875CFF"/>
<path fill-rule="evenodd" clip-rule="evenodd" d="M7.62296 12.3767L4.87322 19.0152L7.25013 19.9997L9.99986 13.3613L9.30366 11.6805L7.62296 12.3767ZM12.3768 7.62287L10.696 8.31907L9.99986 6.63837L12.7496 -0.000139341L15.1265 0.984413L12.3768 7.62287ZM7.62297 7.62296L0.984459 4.87319L-9.10125e-05 7.25011L6.63837 9.99985L8.31914 9.30365L7.62297 7.62296ZM12.3768 12.3768L11.6806 10.696L13.3613 9.99985L19.9998 12.7496L19.0152 15.1265L12.3768 12.3768Z" fill="#EC80FF"/>
</svg>
