<svg width="72" height="24" viewBox="0 0 72 24" fill="none" xmlns="http://www.w3.org/2000/svg">
<g opacity="0.1">
<path d="M7.94767 2.00201L17.6076 14.1278V5.72167C17.6076 4.54854 17.4394 3.75566 17.1012 3.34303C16.6393 2.78478 15.8636 2.51577 14.7758 2.53599V2.00201H21.2455V2.53599C20.417 2.64117 19.862 2.77871 19.5784 2.94659C19.2949 3.11447 19.072 3.38955 18.9141 3.76779C18.754 4.14805 18.675 4.79934 18.675 5.72167V22H18.1849L4.94376 5.72167V18.1509C4.94376 19.2755 5.20101 20.034 5.71551 20.4284C6.23 20.8228 6.81943 21.019 7.48382 21.019H7.94564V21.553H1V21.019C2.0776 21.0089 2.82908 20.7884 3.25242 20.3556C3.67577 19.9227 3.88845 19.1885 3.88845 18.1489V4.35234L3.46916 3.83252C3.05594 3.31269 2.68932 2.97289 2.3713 2.80905C2.05329 2.64522 1.59551 2.5542 1 2.53599V2.00201H7.94564H7.94767Z" fill="white"/>
<path d="M32.4731 21.021V21.555H22.236V21.021H22.8862C23.4533 21.021 23.9111 20.9199 24.2575 20.7176C24.5086 20.5821 24.7011 20.3515 24.8348 20.0259C24.9401 19.7953 24.9927 19.1905 24.9927 18.2095V5.34748C24.9927 4.34829 24.9401 3.72329 24.8348 3.47248C24.7294 3.22167 24.5147 3.00323 24.1927 2.81714C23.8706 2.62904 23.4351 2.53599 22.8862 2.53599H22.236V2.00201H32.4731V2.53599H31.8229C31.2558 2.53599 30.798 2.63713 30.4516 2.83939C30.2005 2.97491 30.004 3.20549 29.8602 3.53114C29.7548 3.76172 29.7022 4.3665 29.7022 5.34748V18.2095C29.7022 19.2087 29.7569 19.8337 29.8683 20.0845C29.9777 20.3353 30.1944 20.5538 30.5185 20.7399C30.8405 20.928 31.276 21.021 31.825 21.021H32.4752H32.4731Z" fill="white"/>
<path d="M51.5276 14.6921L50.7903 21.555H33.4049V21.021H34.0551C34.6223 21.021 35.08 20.9199 35.4264 20.7176C35.6776 20.5821 35.87 20.3515 36.0037 20.0259C36.109 19.7953 36.1617 19.1905 36.1617 18.2095V5.34748C36.1617 4.34829 36.109 3.72329 36.0037 3.47248C35.8984 3.22167 35.6837 3.00323 35.3616 2.81714C35.0395 2.62904 34.604 2.53599 34.0551 2.53599H33.4049V2.00201H43.8446V2.53599H42.9919C42.4247 2.53599 41.9669 2.63713 41.6206 2.83939C41.3694 2.97491 41.1729 3.20549 41.0291 3.53114C40.9238 3.76172 40.8711 4.3665 40.8711 5.34748V17.805C40.8711 18.8042 40.9299 19.4413 41.0453 19.7164C41.1608 19.9915 41.3876 20.1958 41.7239 20.3293C41.9649 20.4163 42.5463 20.4587 43.4719 20.4587H45.1045C46.1437 20.4587 47.0106 20.2767 47.7033 19.9106C48.3961 19.5445 48.9956 18.968 49.502 18.1812C50.0084 17.3924 50.4865 16.2294 50.9382 14.6921H51.5296H51.5276Z" fill="white"/>
<path d="M60.3429 3.12662V11.0858H60.7318C61.9735 11.0858 62.8728 10.6974 63.4319 9.91869C63.991 9.13997 64.3454 7.9911 64.5014 6.47209H65.0503V16.7108H64.5014C64.3859 15.5963 64.1429 14.682 63.7722 13.9721C63.4015 13.2601 62.9701 12.7828 62.4799 12.538C61.9897 12.2933 61.2767 12.1699 60.3429 12.1699V17.6776C60.3429 18.7536 60.3875 19.413 60.4807 19.6537C60.5718 19.8944 60.742 20.0906 60.9931 20.2443C61.2443 20.3981 61.6474 20.4749 62.2064 20.4749H63.3752C65.2043 20.4749 66.6687 20.0522 67.7727 19.2067C68.8746 18.3612 69.6666 17.0728 70.1487 15.3434H70.6834L69.8023 21.5591H52.8787V21.0251H53.5289C54.0961 21.0251 54.5539 20.9239 54.9002 20.7217C55.1514 20.5862 55.3438 20.3556 55.4775 20.0299C55.5829 19.7994 55.6355 19.1946 55.6355 18.2136V5.34749C55.6355 4.46359 55.6112 3.9195 55.5626 3.71723C55.4654 3.38147 55.2891 3.12055 55.0279 2.93851C54.6612 2.6695 54.1609 2.53398 53.5269 2.53398H52.8767V2H69.2655V7.78277H68.7166C68.4371 6.36893 68.0461 5.35558 67.5397 4.7407C67.0354 4.12581 66.3204 3.67273 65.3947 3.38552C64.8559 3.21157 63.8451 3.12662 62.3624 3.12662H60.3409H60.3429Z" fill="white"/>
</g>
</svg>
