<svg width="140" height="36" viewBox="0 0 140 36" fill="none" xmlns="http://www.w3.org/2000/svg">
<g clip-path="url(#clip0_2659_46619)">
<path d="M58.47 7.62207L68.7868 20.5911V11.6004C68.7868 10.3457 68.6072 9.49766 68.2459 9.05634C67.7527 8.45927 66.9242 8.17155 65.7625 8.19318V7.62207H72.6721V8.19318C71.7873 8.30568 71.1945 8.45278 70.8917 8.63234C70.5888 8.81189 70.3508 9.1061 70.1821 9.51064C70.0112 9.91734 69.9268 10.6139 69.9268 11.6004V29.0107H69.4033L55.2618 11.6004V24.8939C55.2618 26.0967 55.5365 26.908 56.086 27.3298C56.6355 27.7517 57.265 27.9615 57.9746 27.9615H58.4678V28.5326H51.0498V27.9615C52.2007 27.9507 53.0033 27.7149 53.4554 27.2519C53.9075 26.789 54.1347 26.0037 54.1347 24.8918V10.1358L53.6869 9.57986C53.2456 9.02389 52.854 8.66046 52.5144 8.48523C52.1747 8.31 51.6858 8.21265 51.0498 8.19318V7.62207H58.4678H58.47Z" fill="black"/>
<path d="M84.6629 27.9637V28.5348H73.7295V27.9637H74.4239C75.0296 27.9637 75.5185 27.8555 75.8885 27.6392C76.1567 27.4942 76.3622 27.2476 76.505 26.8993C76.6175 26.6527 76.6738 26.0059 76.6738 24.9567V11.2002C76.6738 10.1315 76.6175 9.46305 76.505 9.1948C76.3925 8.92655 76.1632 8.69291 75.8193 8.49388C75.4753 8.2927 75.0102 8.19318 74.4239 8.19318H73.7295V7.62207H84.6629V8.19318H83.9684C83.3627 8.19318 82.8738 8.30135 82.5039 8.51768C82.2356 8.66262 82.0258 8.90924 81.8722 9.25753C81.7597 9.50415 81.7034 10.151 81.7034 11.2002V24.9567C81.7034 26.0253 81.7619 26.6938 81.8808 26.9621C81.9977 27.2303 82.2291 27.4639 82.5753 27.663C82.9192 27.8641 83.3843 27.9637 83.9706 27.9637H84.665H84.6629Z" fill="black"/>
<path d="M105.013 21.1947L104.226 28.5348H85.6581V27.9637H86.3525C86.9582 27.9637 87.4471 27.8555 87.8171 27.6392C88.0853 27.4942 88.2908 27.2476 88.4336 26.8993C88.5461 26.6527 88.6023 26.0059 88.6023 24.9567V11.2002C88.6023 10.1315 88.5461 9.46305 88.4336 9.1948C88.3211 8.92655 88.0918 8.69291 87.7478 8.49388C87.4039 8.2927 86.9388 8.19318 86.3525 8.19318H85.6581V7.62207H96.8078V8.19318H95.897C95.2913 8.19318 94.8024 8.30135 94.4325 8.51768C94.1642 8.66262 93.9544 8.90924 93.8008 9.25753C93.6883 9.50415 93.632 10.151 93.632 11.2002V24.524C93.632 25.5927 93.6948 26.2741 93.8181 26.5683C93.9414 26.8625 94.1837 27.081 94.5428 27.2238C94.8002 27.3168 95.4211 27.3623 96.4097 27.3623H98.1534C99.2631 27.3623 100.189 27.1676 100.929 26.776C101.669 26.3844 102.309 25.7679 102.85 24.9264C103.391 24.0827 103.901 22.8388 104.384 21.1947H105.015H105.013Z" fill="black"/>
<path d="M114.429 8.82508V17.3377H114.844C116.17 17.3377 117.131 16.9223 117.728 16.0895C118.325 15.2566 118.704 14.0278 118.87 12.4032H119.457V23.3539H118.87C118.747 22.1619 118.487 21.1841 118.092 20.4247C117.696 19.6633 117.235 19.1527 116.711 18.891C116.188 18.6292 115.426 18.4972 114.429 18.4972V24.3879C114.429 25.5388 114.477 26.244 114.576 26.5015C114.673 26.7589 114.855 26.9687 115.123 27.1332C115.392 27.2976 115.822 27.3798 116.419 27.3798H117.668C119.621 27.3798 121.185 26.9276 122.364 26.0234C123.541 25.1191 124.387 23.7411 124.902 21.8915H125.473L124.532 28.5393H106.457V27.9682H107.152C107.757 27.9682 108.246 27.86 108.616 27.6437C108.884 27.4988 109.09 27.2521 109.233 26.9038C109.345 26.6572 109.402 26.0104 109.402 24.9612V11.2004C109.402 10.255 109.376 9.6731 109.324 9.45677C109.22 9.09766 109.032 8.81859 108.753 8.62389C108.361 8.33617 107.827 8.19123 107.149 8.19123H106.455V7.62012H123.958V13.805H123.372C123.074 12.2929 122.656 11.209 122.115 10.5514C121.577 9.89375 120.813 9.40917 119.824 9.10198C119.249 8.91594 118.169 8.82508 116.586 8.82508H114.427H114.429Z" fill="black"/>
<path d="M38.4803 26.915H27.5361L29.4204 36.0009H44.1309L38.4803 26.915Z" fill="#875CFF"/>
<path d="M29.8695 13.0697L22.0664 0.522461L24.6667 13.0697H29.8695Z" fill="#875CFF"/>
<path d="M26.9975 24.3193H36.8643L31.4842 15.666H25.2041L26.9975 24.3193Z" fill="#875CFF"/>
<path d="M22.066 0.522461L14.2629 13.0697H24.6663L22.066 0.522461Z" fill="#EC98FF"/>
<path d="M5.65056 26.915L0 36.0009H29.421L27.5368 26.915H5.65056Z" fill="#EC98FF"/>
<path d="M25.2048 15.666H12.6467L7.2666 24.3193H26.9981L25.2048 15.666Z" fill="#EC98FF"/>
</g>
<defs>
<clipPath id="clip0_2659_46619">
<rect width="140" height="36" fill="white"/>
</clipPath>
</defs>
</svg>
