<svg width="24" height="24" viewBox="0 0 24 24" fill="none" xmlns="http://www.w3.org/2000/svg">
<g clip-path="url(#clip0_3310_67917)">
<g clip-path="url(#clip1_3310_67917)">
<rect x="4.90912" y="5.45459" width="14.1818" height="13.0909" fill="white"/>
<path d="M12 0C5.37273 0 0 5.37273 0 12C0 18.6273 5.37273 24 12 24C18.6273 24 24 18.6273 24 12C24 5.37273 18.6273 0 12 0ZM18.6709 5.95091L14.6182 11.0127L12.0818 7.91455L9.52364 11.0291L5.23636 5.94545H18.6709V5.95091ZM13.8164 12.0164L12.1309 14.1218L10.4236 12.0982L12.1527 9.98727L13.8164 12.0109V12.0164ZM5.50909 18.0491L9.58909 13.0745L12.1036 16.0527L14.5636 12.9764L18.7255 18.0491H5.50909Z" fill="#6E18DC"/>
</g>
</g>
<defs>
<clipPath id="clip0_3310_67917">
<rect width="24" height="24" fill="white"/>
</clipPath>
<clipPath id="clip1_3310_67917">
<rect width="24" height="24" fill="white"/>
</clipPath>
</defs>
</svg>
