<svg width="40" height="40" viewBox="0 0 40 40" fill="none" xmlns="http://www.w3.org/2000/svg">
<rect width="40" height="40" rx="20" fill="#063500"/>
<path d="M12.4878 11.6655C12.7293 12.2932 13.0488 13.3761 13.1556 13.9471C13.3226 14.8374 13.3226 15.8179 14.7695 16.5068C15.9382 17.0633 16.3311 17.5658 16.2721 18.5658C16.2164 19.5118 14.9921 20.5134 14.4356 20.9029C14.0277 21.1884 12.7661 22.0715 12.0148 22.6558C11.5478 23.0192 11.1522 23.1288 11.0965 22.4611C11.0592 22.0142 11.0965 21.5151 11.2078 20.6247C11.2495 20.2886 11.4861 18.2319 11.5417 17.6198C11.6096 16.8713 11.4861 15.06 11.3191 14.3366C11.1794 13.7306 10.8739 12.281 10.8739 11.7768C10.8739 11.3317 10.7626 10.3857 11.4861 10.4413C12.0437 10.4842 12.3487 11.3038 12.4878 11.6655Z" fill="white"/>
<path d="M16.1607 9.21683C16.2576 9.55516 16.877 10.1689 17.2181 10.5524C17.6633 11.0532 18.3401 12.0365 18.4981 12.7226C18.6651 13.446 18.9433 14.3363 19.6111 14.8372C20.1688 15.2556 21.1694 15.5606 22.1711 15.5049C23.1728 15.4493 23.8407 15.0041 24.2859 14.6702C24.7673 14.3091 25.4306 13.7921 26.0111 13.5016C26.5676 13.2234 27.2938 13.2379 27.625 13.2791C28.0702 13.3347 28.4041 13.446 28.6267 13.3347C28.8059 13.2451 28.9049 13.0008 28.9049 12.6669C28.9049 12.3331 28.6823 11.7209 28.3484 11.2201C28.0396 10.7571 27.502 10.0682 26.7902 9.55071C26.178 9.10554 25.4039 8.75663 24.898 8.60471C24.3415 8.43777 23.1172 8.27083 22.505 8.21519C21.9507 8.16455 19.8877 8.17679 19.3885 8.21519C18.6651 8.27083 17.2181 8.38213 16.606 8.49342C16.1646 8.57355 16.0494 8.8273 16.1607 9.21683Z" fill="white"/>
<path d="M29.3501 14.5587C29.5727 14.6144 29.5521 15.0562 29.5171 15.3378C29.4614 15.7829 29.3501 16.3394 29.0162 17.0072C28.7713 17.4974 28.3484 18.1201 28.0701 18.454C27.7919 18.7879 27.4023 19.233 27.3467 19.6782C27.291 20.1234 27.5693 20.2903 27.8475 20.5129C28.1007 20.7155 28.876 21.2074 29.2945 21.6259C29.7953 22.1267 30.2406 22.7945 30.4632 23.6848C30.6435 24.4049 30.6858 25.4099 30.6858 25.9107C30.6858 26.968 30.4159 27.919 30.0179 28.5817C29.5171 29.4164 28.9049 29.9729 28.1258 30.2511C27.5125 30.4704 26.6015 30.486 26.4562 30.1955C26.2893 29.8616 26.4006 29.1382 26.4562 28.2479C26.5041 27.4827 26.2147 25.8083 25.8441 25.0203C25.3989 24.0743 24.883 23.2012 24.1745 22.5719C23.6737 22.1267 23.2735 21.8713 22.8945 21.6815C22.4493 21.4589 21.8928 21.1807 21.8928 20.5129C21.8928 19.7339 22.4493 19.233 22.7276 18.9548C23.1172 18.5653 23.7293 18.1758 24.1745 17.8975C24.5964 17.6338 25.8012 17.0851 26.2893 16.7846C27.0128 16.3394 28.0145 15.6716 28.2927 15.3934C28.7413 14.9449 29.1342 14.5047 29.3501 14.5587Z" fill="white"/>
<path d="M12.1539 26.6898C12.6019 26.5902 13.7121 26.1889 14.1573 25.7438C14.6025 25.2986 15.1034 24.6308 15.3816 24.2969C15.6599 23.9631 15.9938 23.5735 16.4947 23.184C17.1653 22.6626 17.6634 22.2937 18.7207 22.3493C19.7781 22.4049 20.3135 22.6593 20.7242 22.9058C21.2807 23.2396 21.7259 23.9074 21.8929 24.5752C22.0598 25.2429 22.1711 26.4672 22.2268 27.4688C22.2824 28.4705 22.672 29.2495 23.0059 29.5834C23.3398 29.9173 24.0633 30.2512 24.4528 30.4738C24.8424 30.6963 24.8981 30.9189 24.8981 31.1415C24.8981 31.3641 24.7868 31.531 24.3972 31.5867C24.1162 31.6268 20.7798 31.8093 20.0007 31.8093C19.2216 31.8093 13.2112 31.9762 12.5991 31.9206C12.0971 31.8749 11.486 31.698 11.2078 31.2528C10.954 30.8471 10.7626 29.9173 10.7626 29.2495C10.7626 28.5818 10.8182 27.8583 11.0408 27.4132C11.2634 26.968 11.653 26.8011 12.1539 26.6898Z" fill="white"/>
</svg>
