<svg width="1em" height="1em" viewBox="0 0 40 40" fill="none" xmlns="http://www.w3.org/2000/svg">
<g clip-path="url(#clip0_1022_14384)">
<rect width="40" height="40" rx="20" fill="white"/>
<g clip-path="url(#clip1_1022_14384)">
<g clip-path="url(#clip2_1022_14384)">
<rect x="8.18164" y="9.0918" width="23.6364" height="21.8182" fill="white"/>
<path d="M20 0C8.95455 0 0 8.95455 0 20C0 31.0455 8.95455 40 20 40C31.0455 40 40 31.0455 40 20C40 8.95455 31.0455 0 20 0ZM31.1182 9.91818L24.3636 18.3545L20.1364 13.1909L15.8727 18.3818L8.72727 9.90909H31.1182V9.91818ZM23.0273 20.0273L20.2182 23.5364L17.3727 20.1636L20.2545 16.6455L23.0273 20.0182V20.0273ZM9.18182 30.0818L15.9818 21.7909L20.1727 26.7545L24.2727 21.6273L31.2091 30.0818H9.18182Z" fill="#6E18DC"/>
</g>
</g>
</g>
<defs>
<clipPath id="clip0_1022_14384">
<rect width="40" height="40" rx="20" fill="white"/>
</clipPath>
<clipPath id="clip1_1022_14384">
<rect width="40" height="40" fill="white"/>
</clipPath>
<clipPath id="clip2_1022_14384">
<rect width="40" height="40" fill="white"/>
</clipPath>
</defs>
</svg>
