<svg width="44" height="44" viewBox="0 0 44 44" fill="none" xmlns="http://www.w3.org/2000/svg">
<g clip-path="url(#clip0_6659_26845)">
<path d="M22 44.0006C34.1503 44.0006 44 34.1509 44 22.0006C44 9.85035 34.1503 0.000610352 22 0.000610352C9.84974 0.000610352 0 9.85035 0 22.0006C0 34.1509 9.84974 44.0006 22 44.0006Z" fill="url(#paint0_linear_6659_26845)"/>
<path d="M34.6034 36.6337L33.3512 34.8397V34.8293C33.1677 34.9928 32.9799 35.1519 32.7886 35.3067L34.6034 36.6328V36.6337Z" fill="white"/>
<path d="M6.04956 11.1093L7.4 13.0328C7.5313 12.8206 7.66608 12.611 7.80608 12.4041L6.04956 11.1084V11.1093Z" fill="white"/>
<path d="M6.05487 11.0971C6.04704 11.1093 6.03834 11.1206 6.03052 11.1328L6.04965 11.1093L6.05487 11.0971Z" fill="white"/>
<path d="M22.2722 4.8641C31.5965 5.00932 39.1339 12.6658 39.1391 21.9919C39.1417 26.4363 37.4435 30.4911 34.6609 33.5406L36.02 35.2832C39.4365 31.6815 41.3131 26.9858 41.3131 22.0015C41.3131 17.0171 39.3044 11.9928 35.6565 8.34497C32.0087 4.69714 27.1591 2.68845 22 2.68845C16.8409 2.68845 11.9913 4.69714 8.34349 8.34497C7.93566 8.75279 7.5487 9.17714 7.18262 9.61366L9.04523 10.7911C12.2452 7.09801 16.9948 4.78236 22.2722 4.8641Z" fill="white"/>
<path d="M21.9321 39.1397C12.5695 39.1032 4.91905 31.4702 4.86166 22.1076C4.84427 19.1997 5.55557 16.4563 6.82166 14.0493L4.90166 13.0041C3.45557 15.745 2.68774 18.8137 2.68774 22.0015C2.68774 27.1597 4.69644 32.0102 8.34427 35.658C11.9921 39.3058 16.8417 41.3145 22.0008 41.3145C26.0008 41.3145 29.8147 40.1058 33.0269 37.8632L31.5712 36.2137C28.819 38.0728 25.5008 39.1545 21.933 39.1406L21.9321 39.1397Z" fill="white"/>
<path d="M34.6044 36.6345H34.6053L34.6035 36.6337L34.6044 36.6345Z" fill="white"/>
<path d="M7.40012 13.0328L6.04968 11.1093L6.03055 11.1328C5.61751 11.7363 5.24099 12.3615 4.90186 13.0041L6.82186 14.0493C7.00359 13.7032 7.19664 13.365 7.40099 13.0337L7.40012 13.0328Z" fill="url(#paint1_linear_6659_26845)"/>
<path d="M7.80608 12.405C8.18782 11.8423 8.60173 11.3032 9.04521 10.791L7.1826 9.61365C6.78086 10.0919 6.40521 10.5876 6.05478 11.0971L6.04956 11.1093L7.80608 12.405Z" fill="url(#paint2_linear_6659_26845)"/>
<path d="M36.02 35.2823L34.6609 33.5397C34.2478 33.9928 33.8104 34.4223 33.3513 34.8284V34.8389L34.6035 36.6328H34.6044C34.9652 36.3223 35.3157 35.9963 35.6557 35.6563C35.7791 35.5328 35.9 35.4084 36.02 35.2823Z" fill="white"/>
<path d="M32.7887 35.3067C32.3965 35.6258 31.9896 35.9284 31.5696 36.2119L33.0252 37.8615C33.5687 37.4815 34.0965 37.0728 34.6035 36.6345V36.6328L32.7878 35.3067H32.7887Z" fill="url(#paint3_linear_6659_26845)"/>
<path d="M30.8364 22.8971L28.7121 22.4615C28.3425 22.3858 28.0582 22.0884 27.999 21.7154L26.5451 12.5197C26.4869 12.1519 26.1686 11.8806 25.7964 11.8806H25.5321C25.2599 11.8806 25.039 12.1006 25.039 12.3728C25.039 13.2954 24.866 14.2102 24.5303 15.0684C24.413 15.3676 24.1243 15.565 23.8034 15.565H23.6338C21.8964 15.565 20.2921 14.6319 19.4338 13.1215L18.7599 11.938C18.7338 11.8928 18.7077 11.8476 18.6773 11.8058C18.0764 10.971 16.906 10.9163 16.2269 11.6206L14.2199 13.7041C13.586 14.3624 13.6764 15.4276 14.4112 15.9693L19.3773 19.6328L20.966 17.0137C21.2112 16.6093 21.793 16.5928 22.0608 16.9824L30.0382 28.6006C30.5173 29.2989 31.3025 29.725 32.1486 29.7458L32.6051 29.7571C33.5851 29.7571 34.379 29.5528 34.379 28.5728V27.2397C34.379 25.1337 32.899 23.318 30.8356 22.8954L30.8364 22.8971Z" fill="white"/>
<path d="M6.04956 11.1093L19.6374 21.1319L21.2835 18.4189C21.4156 18.2015 21.7278 18.1911 21.873 18.3997L34.6035 36.6337L20.6061 26.4024L19.3513 28.6728C19.1539 29.0302 18.6496 29.0571 18.4148 28.7232L6.04956 11.1093Z" fill="white"/>
<path opacity="0.5" d="M21.2313 25.2676L20.6069 26.4024L34.6043 36.6337L23.1208 25.0058C22.5617 24.4398 21.6156 24.5711 21.2322 25.2684L21.2313 25.2676Z" fill="url(#paint4_linear_6659_26845)"/>
<path opacity="0.5" d="M19.0122 22.2215L19.6374 21.1319L6.04956 11.1093L17.3504 22.4415C17.8417 22.9337 18.6661 22.825 19.0122 22.2215Z" fill="url(#paint5_linear_6659_26845)"/>
</g>
<defs>
<linearGradient id="paint0_linear_6659_26845" x1="3.97739" y1="9.38061" x2="40.0226" y2="34.6206" gradientUnits="userSpaceOnUse">
<stop stop-color="#3649FF"/>
<stop offset="1" stop-color="#8E25FF"/>
</linearGradient>
<linearGradient id="paint1_linear_6659_26845" x1="5.84186" y1="13.5467" x2="6.94968" y2="11.6284" gradientUnits="userSpaceOnUse">
<stop offset="0.03" stop-color="white"/>
<stop offset="0.8" stop-color="white" stop-opacity="0.5"/>
</linearGradient>
<linearGradient id="paint2_linear_6659_26845" x1="8.2426" y1="10.1171" x2="6.84782" y2="11.7789" gradientUnits="userSpaceOnUse">
<stop offset="0.12" stop-color="white"/>
<stop offset="0.8" stop-color="white" stop-opacity="0.5"/>
</linearGradient>
<linearGradient id="paint3_linear_6659_26845" x1="32.3018" y1="37.0841" x2="33.8748" y2="35.7641" gradientUnits="userSpaceOnUse">
<stop offset="0.02" stop-color="white"/>
<stop offset="0.8" stop-color="white" stop-opacity="0.5"/>
</linearGradient>
<linearGradient id="paint4_linear_6659_26845" x1="34.7799" y1="36.4304" x2="21.2683" y2="25.1977" gradientUnits="userSpaceOnUse">
<stop offset="0.3" stop-opacity="0"/>
<stop offset="1" stop-opacity="0.25"/>
</linearGradient>
<linearGradient id="paint5_linear_6659_26845" x1="5.88308" y1="11.2959" x2="19.0232" y2="22.2199" gradientUnits="userSpaceOnUse">
<stop offset="0.3" stop-opacity="0"/>
<stop offset="1" stop-opacity="0.25"/>
</linearGradient>
<clipPath id="clip0_6659_26845">
<rect width="44" height="44" fill="white" transform="translate(0 0.000610352)"/>
</clipPath>
</defs>
</svg>
