<svg width="44" height="44" viewBox="0 0 44 44" fill="none" xmlns="http://www.w3.org/2000/svg">
<g clip-path="url(#clip0_3374_9078)">
<circle cx="22" cy="22" r="22" fill="url(#paint0_linear_3374_9078)"/>
<path fill-rule="evenodd" clip-rule="evenodd" d="M23.2223 3.09233C22.819 3.06789 22.4157 3.05566 22.0001 3.05566C11.5379 3.05566 3.05566 11.5379 3.05566 22.0001C3.05566 31.2034 9.63122 38.879 18.3334 40.5901V38.0968C10.9879 36.4346 5.50011 29.859 5.50011 22.0001C5.50011 13.2979 12.2346 6.17233 20.7779 5.549V9.92455C19.7879 10.0712 18.8712 10.3279 18.0523 10.6946C16.7079 11.3057 15.6812 12.1368 14.9723 13.1879C14.2634 14.2512 13.9334 15.4123 13.9701 16.6957C13.9946 17.8323 14.3001 18.8468 14.8746 19.7146C15.449 20.5823 16.1212 21.3279 16.9034 21.9268C17.6857 22.5379 18.7246 23.2346 19.9957 24.0168C21.059 24.6646 21.9023 25.2268 22.5134 25.679C23.1246 26.1312 23.6501 26.6568 24.0779 27.2557C24.5057 27.8546 24.7257 28.4901 24.7379 29.199C24.7501 29.8468 24.5912 30.4701 24.2612 31.0568C23.9312 31.6434 23.479 32.1079 22.9046 32.4746C22.3301 32.8412 21.7068 33.0123 21.0346 33.0123C20.069 31.509 18.0523 28.1357 17.0501 26.3023L13.1879 29.3334C14.8012 32.2423 17.3312 33.8557 20.7779 34.1734V40.9079C21.1812 40.9323 21.5846 40.9446 22.0001 40.9446C32.4623 40.9446 40.9446 32.4623 40.9446 22.0001C40.9446 12.7968 34.369 5.12122 25.6668 3.41011V5.90344C33.0123 7.56566 38.5001 14.1412 38.5001 22.0001C38.5001 30.7023 31.7657 37.8279 23.2223 38.4512V34.1734C24.6279 34.0634 25.8623 33.7334 26.9134 33.2079C28.2457 32.5357 29.2357 31.6557 29.8834 30.5679C30.5312 29.4801 30.8368 28.3312 30.8001 27.0968C30.7757 25.9846 30.4701 24.9701 29.8957 24.0779C29.3212 23.1857 28.649 22.4157 27.8668 21.7801C27.0846 21.1446 26.0334 20.399 24.7379 19.5679C23.6257 18.8468 22.7457 18.2357 22.1101 17.759C21.4746 17.2701 20.9368 16.7079 20.4968 16.0846C20.0568 15.4612 19.8368 14.7646 19.8123 14.019C19.7879 13.1512 20.0568 12.4423 20.6068 11.8679C21.1568 11.2934 21.9634 11.0123 23.0146 11.0123C24.1879 12.6257 25.3612 14.3612 26.5223 16.1823L30.4334 13.1023L30.4579 13.0657C29.5046 12.0146 28.4412 11.2079 27.2679 10.6334C26.1801 10.1079 24.8357 9.82678 23.2101 9.77789V3.09233H23.2223Z" fill="white"/>
</g>
<defs>
<linearGradient id="paint0_linear_3374_9078" x1="-2.77055e-07" y1="-2.77055e-07" x2="44" y2="44" gradientUnits="userSpaceOnUse">
<stop offset="0.07" stop-color="#FC829F"/>
<stop offset="0.31" stop-color="#FF1C53"/>
<stop offset="0.47" stop-color="#EA49F8"/>
<stop offset="0.59" stop-color="#B250FF"/>
<stop offset="0.73" stop-color="#5E5FF5"/>
<stop offset="0.89" stop-color="#323CFF"/>
</linearGradient>
<clipPath id="clip0_3374_9078">
<rect width="44" height="44" fill="white"/>
</clipPath>
</defs>
</svg>
