<svg width="1em" height="1em" viewBox="0 0 400 400" fill="none" xmlns="http://www.w3.org/2000/svg">
<path fill-rule="evenodd" clip-rule="evenodd" d="M103.682 149.346C104.299 144.752 105.298 140.294 106.645 136H293.355C294.702 140.294 295.701 144.752 296.318 149.346L330 400H280.007C292.561 383.287 300 362.512 300 340C300 284.772 255.228 240 200 240C144.772 240 100 284.772 100 340C100 362.512 107.439 383.287 119.993 400H70L103.682 149.346ZM252.917 400C269.525 385.341 280 363.894 280 340C280 295.817 244.183 260 200 260C155.817 260 120 295.817 120 340C120 363.894 130.475 385.341 147.084 400H200H252.917ZM200 400C166.863 400 140 373.137 140 340C140 306.863 166.863 280 200 280C233.137 280 260 306.863 260 340C260 373.137 233.137 400 200 400ZM217.031 80C249.508 80 277.924 99.4739 290.366 128H109.634C122.076 99.4739 150.492 80 182.969 80H200H217.031ZM232 192C220.954 192 212 200.954 212 212H236C247.046 212 256 203.046 256 192H232ZM250 340C250 367.614 227.614 390 200 390C172.386 390 150 367.614 150 340C150 312.386 172.386 290 200 290C227.614 290 250 312.386 250 340Z" fill="white" fill-opacity="0.4"/>
<path fill-rule="evenodd" clip-rule="evenodd" d="M199.558 80C172.325 80 149.33 61.8576 142 37H257.115C249.785 61.8576 226.79 80 199.558 80ZM271.999 164H127.999V172H122.363H121.155C116.77 172 112.761 174.478 110.8 178.4C107.815 184.369 108.127 191.457 111.625 197.141L116.142 204.482C119.782 210.397 126.23 214 133.176 214H134.772L142.353 239.66C144.724 247.684 149.552 254.763 156.156 259.9L187.72 284.45C194.943 290.067 205.056 290.067 212.278 284.45L243.842 259.9C250.447 254.763 255.274 247.684 257.645 239.66L265.227 214H266.824C273.769 214 280.217 210.397 283.857 204.482L288.374 197.141C291.872 191.457 292.184 184.369 289.199 178.4C287.238 174.478 283.23 172 278.845 172H277.636H271.999V164ZM232 192C220.954 192 212 200.954 212 212H236C247.046 212 256 203.046 256 192H232ZM166 287.556V326C166 344.778 181.222 360 200 360C218.778 360 234 344.778 234 326V287.555L212.278 304.45C205.056 310.067 194.943 310.067 187.721 304.45L166 287.556Z" fill="white"/>
</svg>
