<svg width="1em" height="1em" viewBox="0 0 400 400" fill="none" xmlns="http://www.w3.org/2000/svg">
<path fill-rule="evenodd" clip-rule="evenodd" d="M187.536 86C138.73 86 97.0533 121.231 88.9303 169.356L88.8217 170H311.178L311.07 169.356C302.947 121.231 261.27 86 212.464 86H187.536ZM200 210H82.0701L75.3185 250H188L168 226L184 228L200 250L216 228L232 226L212 250H324.682L317.93 210H256.002C252.659 212.512 248.503 214 244 214H220C220 212.63 220.138 211.292 220.4 210H200ZM331.433 290H248.681C249.516 291.323 250 292.891 250 294.571V295.641C246.49 298.438 242.105 300 237.536 300H162.464C157.895 300 153.51 298.438 150 295.641V294.571C150 292.891 150.484 291.323 151.319 290H68.5669L61.8153 330H338.185L331.433 290ZM350 400L344.936 370H55.0637L50 400H350Z" fill="white" fill-opacity="0.4"/>
<path fill-rule="evenodd" clip-rule="evenodd" d="M120 170H280L289.129 214.127C290.934 222.849 288.481 231.91 282.522 238.53L252.958 271.379C249.166 275.594 243.762 278 238.092 278H161.907C156.237 278 150.834 275.594 147.041 271.379L117.477 238.53C111.519 231.91 109.065 222.849 110.87 214.127L120 170ZM188 250H200H212L232 226L220 214H242H244C255.046 214 264 205.046 264 194H242H240C228.954 194 220 202.954 220 214L200 210L180 214L168 226L188 250ZM242 194C236.477 194 232 198.477 232 204C232 209.523 236.477 214 242 214C247.523 214 252 209.523 252 204C252 198.477 247.523 194 242 194ZM150 295.641V316C150 343.614 172.386 366 200 366C227.614 366 250 343.614 250 316V295.641C246.49 298.438 242.105 300 237.536 300H162.464C157.895 300 153.51 298.438 150 295.641ZM248 204C248 207.314 245.314 210 242 210C238.686 210 236 207.314 236 204C236 200.686 238.686 198 242 198C245.314 198 248 200.686 248 204Z" fill="white"/>
</svg>
