<svg width="1em" height="1em" viewBox="0 0 400 400" fill="none" xmlns="http://www.w3.org/2000/svg">
<rect width="400" height="400" rx="200" fill="white"/>
<path fill-rule="evenodd" clip-rule="evenodd" d="M200 375.5L200 368.547V362.891V345.919V340.262V323.293V317.636V300.665V295.008V278.039V272.382V255.41V249.753V232.782V227.125V210.156V204.499V187.528V181.871V164.901V159.245V142.273V136.616V119.645V113.988V97.0187V91.3619V74.3905V68.7337V51.7623V46.1054V29.136L200 24.5C103.074 24.5 24.5 103.074 24.5 200C24.5 296.926 103.074 375.5 200 375.5ZM200 20C202.991 20 205.964 20.0729 208.919 20.2171C214.161 20.4729 219.343 20.9528 224.458 21.6476C224.509 21.6546 224.561 21.6616 224.612 21.6687C226.207 21.8868 227.795 22.1257 229.377 22.3853C234.134 23.1663 238.829 24.1338 243.453 25.2801C243.604 25.3174 243.755 25.355 243.905 25.3927C245.255 25.7311 246.599 26.0847 247.937 26.4534C252.302 27.6564 256.6 29.0196 260.825 30.5363C260.835 30.5399 260.845 30.5434 260.855 30.5469C262.226 31.0395 263.59 31.5482 264.946 32.0729C268.976 33.6326 272.936 35.3332 276.819 37.1686C276.897 37.2053 276.975 37.2421 277.052 37.2789C278.25 37.847 279.44 38.428 280.623 39.0216C284.358 40.8957 288.018 42.896 291.599 45.0169C291.635 45.0382 291.671 45.0596 291.707 45.081C292.852 45.7602 293.989 46.4518 295.117 47.1555C298.582 49.316 301.967 51.591 305.269 53.9753C305.279 53.9826 305.289 53.9899 305.299 53.9973C306.383 54.7798 307.456 55.574 308.521 56.3798C311.731 58.8089 314.857 61.343 317.893 63.9772C317.929 64.0083 317.965 64.0393 318.001 64.0704C318.973 64.9155 319.937 65.7709 320.891 66.6363C323.855 69.3251 326.73 72.1112 329.509 74.9898C329.522 75.0037 329.536 75.0176 329.549 75.0315C330.462 75.9775 331.364 76.9334 332.256 77.8992C334.977 80.8446 337.6 83.881 340.121 87.0034C340.168 87.0618 340.215 87.1201 340.263 87.1785C341.057 88.1655 341.842 89.1611 342.617 90.1651C345.09 93.3722 347.458 96.665 349.715 100.038C349.764 100.112 349.813 100.186 349.863 100.26C350.569 101.319 351.264 102.386 351.949 103.461C354.164 106.941 356.264 110.503 358.241 114.14C358.253 114.16 358.264 114.181 358.275 114.201C358.929 115.406 359.57 116.619 360.198 117.84C362.137 121.613 363.947 125.464 365.621 129.386C365.628 129.401 365.634 129.416 365.64 129.432C366.2 130.743 366.745 132.063 367.274 133.391C368.908 137.49 370.395 141.664 371.73 145.906C371.734 145.919 371.738 145.932 371.742 145.945C372.192 147.374 372.624 148.811 373.038 150.255C374.322 154.729 375.437 159.275 376.376 163.886C376.402 164.015 376.429 164.144 376.455 164.273C376.746 165.723 377.021 167.179 377.278 168.641C378.144 173.569 378.809 178.567 379.265 183.625C379.273 183.706 379.28 183.788 379.287 183.869C379.435 185.535 379.56 187.206 379.662 188.885C379.886 192.561 380 196.267 380 200C380 201.875 379.971 203.743 379.914 205.604C379.912 205.67 379.91 205.737 379.908 205.803C379.847 207.723 379.757 209.635 379.636 211.539C379.224 218.047 378.467 224.461 377.382 230.763C377.35 230.945 377.319 231.127 377.287 231.309C376.907 233.476 376.488 235.631 376.031 237.771C374.289 245.927 371.995 253.878 369.19 261.583C369.152 261.685 369.115 261.788 369.078 261.89C367.957 264.951 366.755 267.974 365.475 270.954C358.681 286.778 349.684 301.431 338.87 314.529C338.42 315.074 337.967 315.616 337.511 316.155C330.545 324.394 322.851 331.999 314.53 338.87C301.432 349.684 286.778 358.681 270.955 365.475C270.658 365.602 270.361 365.729 270.064 365.855C267.273 367.035 264.445 368.148 261.584 369.19C253.753 372.04 245.669 374.363 237.374 376.115C235.185 376.577 232.981 377 230.764 377.381C224.462 378.467 218.048 379.224 211.54 379.636C211.164 379.66 210.788 379.682 210.412 379.704C206.967 379.9 203.495 380 200 380C100.589 380 20 299.411 20 200C20 100.589 100.589 20 200 20ZM216.435 374.741C223.22 374.11 229.893 373.094 236.431 371.714L371.714 236.431C373.094 229.892 374.111 223.219 374.741 216.434L216.435 374.741ZM375.202 210.316C375.4 206.903 375.5 203.463 375.5 200C375.5 197.715 375.456 195.441 375.37 193.177L208 360.547V375.321C208.774 375.286 209.546 375.246 210.317 375.202L375.202 210.316ZM375.083 187.807C374.73 182.658 374.154 177.57 373.366 172.553L208 337.919V354.891L375.083 187.807ZM372.538 167.724C371.67 163.051 370.616 158.443 369.385 153.908L208 315.293V332.262L372.538 167.724ZM368.128 149.508C366.843 145.222 365.398 141.005 363.801 136.864L208 292.665V309.636L368.128 149.508ZM362.184 132.823C360.545 128.87 358.765 124.989 356.851 121.187L208 270.039V287.008L362.184 132.823ZM354.919 117.462C352.966 113.803 350.886 110.222 348.687 106.723L208 247.41V264.382L354.919 117.462ZM346.469 103.284C344.227 99.8969 341.872 96.5917 339.407 93.3744L208 224.782V241.753L346.469 103.284ZM336.921 90.204C334.408 87.0742 331.79 84.0323 329.072 81.0838L208 202.156V219.125L336.921 90.204ZM326.326 78.1723C323.548 75.2924 320.673 72.5073 317.705 69.8222L208 179.528V196.499L326.326 78.1723ZM314.703 67.1675C311.661 64.5381 308.527 62.0116 305.308 59.5931L208 156.901V173.871L314.703 67.1675ZM302.044 57.1997C298.73 54.8269 295.329 52.5667 291.848 50.4246L208 134.273V151.245L302.044 57.1997ZM288.311 48.3048C284.709 46.2031 281.025 44.2261 277.265 42.3796L208 111.645L208 128.616L288.311 48.3048ZM273.433 40.5549C269.517 38.7483 265.523 37.0817 261.457 35.5616L208 89.0187V105.988L273.433 40.5549ZM257.296 34.0657C253.023 32.5907 248.676 31.276 244.261 30.129L208 66.3905V83.3618L257.296 34.0657ZM239.72 29.0138C235.027 27.9279 230.262 27.0303 225.433 26.3294L208 43.7623V60.7336L239.72 29.0138ZM220.429 25.6763C216.327 25.2008 212.183 24.8668 208 24.6791V38.1054L220.429 25.6763ZM369.986 243.815L243.816 369.986C252.712 367.7 261.335 364.734 269.627 361.146L361.146 269.627C364.734 261.335 367.7 252.711 369.986 243.815ZM280.376 356.054L356.054 280.375C339.325 312.791 312.792 339.324 280.376 356.054Z" fill="#595959"/>
</svg>
