<svg width="1em" height="1em" viewBox="0 0 400 400" fill="none" xmlns="http://www.w3.org/2000/svg">
<path fill-rule="evenodd" clip-rule="evenodd" d="M220 152V74.2548C206.738 72.3753 193.262 72.3753 180 74.2548V152H220ZM228.577 152L247.591 81.0361C260.335 85.5652 272.565 91.9727 283.852 100.258L269.988 152H228.577ZM171.423 152L152.409 81.036C139.665 85.5651 127.435 91.9725 116.148 100.258L130.012 152H171.423ZM102.3 119.75L108.8 136H99.2673L102.3 119.75ZM297.7 119.75L300.732 136H291.2L297.7 119.75ZM84.3377 216L91.8025 176H308.197L315.662 216H236L248 200H212V216H84.3377ZM76.8729 256L69.4081 296H173L160 287.333V285C160 276.716 166.716 270 175 270H225C233.284 270 240 276.716 240 285V287.333L227 296H330.591L323.126 256H76.8729ZM54.4785 376L61.9433 336H338.056L345.521 376H54.4785Z" fill="white" fill-opacity="0.4"/>
<path fill-rule="evenodd" clip-rule="evenodd" d="M128 164H272V172L284.583 172C289.129 172 293.284 174.568 295.317 178.633L295.779 179.558C298.451 184.903 298.594 191.164 296.166 196.625L289.279 212.123C286.069 219.345 278.906 224 271.002 224H263.404L257.971 243.644C255.409 252.904 249.6 260.933 241.606 266.262L211.094 286.604C204.376 291.083 195.624 291.083 188.906 286.604L158.393 266.262C150.399 260.933 144.59 252.904 142.029 243.644L136.596 224H128.997C121.094 224 113.931 219.345 110.721 212.123L103.833 196.625C101.406 191.164 101.548 184.903 104.221 179.558L104.683 178.633C106.716 174.568 110.871 172 115.416 172L128 172V164ZM212 200H248L212 248V200ZM160 320V287.333L188.906 306.604C195.624 311.083 204.376 311.083 211.094 306.604L240 287.333V320C240 342.092 222.091 360 200 360C177.909 360 160 342.092 160 320Z" fill="white"/>
</svg>
