<svg width="1em" height="1em" viewBox="0 0 400 400" fill="none" xmlns="http://www.w3.org/2000/svg">
<path fill-rule="evenodd" clip-rule="evenodd" d="M187.541 77H190V137H190V145H210V86.4742L210 86.4742V77H212.46C220.638 77 227.992 81.979 231.029 89.5722L231.544 90.8588C264.077 101.168 289.863 127.014 299.868 160H100.131C110.137 127.014 135.924 101.167 168.457 90.8584L168.972 89.5722C172.009 81.979 179.363 77 187.541 77ZM94.6494 200L91.7195 240H308.28L305.35 200H234L214 220V200H94.6494ZM88.7896 280L85.8596 320H314.14L311.21 280H235.463C235.294 280.339 235.139 280.686 234.999 281.04L228.511 297.381C225.486 304.999 218.119 310 209.922 310H190.078C181.881 310 174.514 304.999 171.489 297.381L165.001 281.04C164.861 280.686 164.706 280.339 164.537 280H88.7896ZM82.9297 360L79.9998 400H320L317.07 360H82.9297Z" fill="white" fill-opacity="0.4"/>
<path fill-rule="evenodd" clip-rule="evenodd" d="M165.333 115.33L140 14L130.537 127.555C124.415 132.384 121.603 140.411 123.526 148.105L142.783 225.134C144.819 233.276 150.406 240.073 158 243.647C161.212 245.159 163.729 247.836 165.039 251.136L171.489 267.381C174.514 274.999 181.881 280 190.078 280H209.922C218.119 280 225.486 274.999 228.511 267.381L234.961 251.136C236.271 247.836 238.788 245.159 242 243.647C249.594 240.073 255.181 233.276 257.217 225.134L276.474 148.105C278.397 140.411 275.585 132.384 269.463 127.555L260 14L234.666 115.336L226 137L226 137V145H210H190H174V137H174L165.333 115.33ZM210 137H210V102.425L210 102.425V137ZM254 180H214V220L254 180ZM150 290V267.884C152.293 270.268 155.025 272.247 158.093 273.691C161.246 275.175 163.715 277.802 165.001 281.04L171.489 297.381C174.514 304.999 181.881 310 190.078 310H209.922C218.119 310 225.486 304.999 228.511 297.381L234.999 281.04C236.285 277.802 238.754 275.175 241.907 273.691C244.975 272.247 247.707 270.268 250 267.884V290C250 317.614 227.614 340 200 340C172.386 340 150 317.614 150 290Z" fill="white"/>
</svg>
