<svg width="1em" height="1em" viewBox="0 0 400 400" fill="none" xmlns="http://www.w3.org/2000/svg">
<g clip-path="url(#clip0_259_223763)">
<rect width="400" height="400" rx="200" fill="white"/>
<path fill-rule="evenodd" clip-rule="evenodd" d="M39.9995 -154C40.6891 -154 41.33 -153.645 41.6955 -153.06L79.999 -91.7747L118.302 -153.06C118.667 -153.645 119.308 -154 119.998 -154C120.687 -154 121.328 -153.645 121.694 -153.06L159.998 -91.7731L198.302 -153.06C198.667 -153.645 199.308 -154 199.998 -154C200.687 -154 201.328 -153.645 201.694 -153.06L239.998 -91.7731L278.302 -153.06C278.667 -153.645 279.308 -154 279.998 -154C280.687 -154 281.328 -153.645 281.694 -153.06L319.997 -91.7747L358.3 -153.06C358.665 -153.645 359.306 -154 359.996 -154C360.685 -154 361.326 -153.645 361.692 -153.06L401.692 -89.0603C402.277 -88.1236 401.992 -86.8897 401.056 -86.3043C400.119 -85.7188 398.885 -86.0036 398.3 -86.9403L359.996 -148.226L321.731 -87.0016C321.588 -86.7529 321.389 -86.5317 321.14 -86.3585C321.093 -86.3262 321.046 -86.2961 320.997 -86.268C320.715 -86.1049 320.408 -86.0184 320.102 -86.0026C319.706 -85.9813 319.299 -86.0776 318.936 -86.304C318.646 -86.4856 318.418 -86.7295 318.26 -87.0076L279.998 -148.226L241.694 -86.94C241.428 -86.5137 241.027 -86.2224 240.581 -86.0867C240.45 -86.0467 240.316 -86.0207 240.182 -86.0084C239.851 -85.9775 239.51 -86.0288 239.191 -86.1698C238.92 -86.2891 238.673 -86.4697 238.472 -86.7061C238.411 -86.7789 238.354 -86.857 238.302 -86.9403L199.998 -148.226L161.694 -86.94C161.428 -86.5137 161.027 -86.2224 160.581 -86.0867C160.133 -85.9506 159.64 -85.9713 159.191 -86.1698C158.895 -86.3 158.628 -86.5031 158.419 -86.7723C158.377 -86.8257 158.338 -86.8817 158.302 -86.9403L119.998 -148.226L81.7327 -87.0014C81.5892 -86.752 81.3899 -86.5303 81.1395 -86.3569C81.0948 -86.3259 81.049 -86.2968 81.0022 -86.2698C80.7192 -86.1056 80.4115 -86.0185 80.1042 -86.0026C79.7076 -85.9813 79.3007 -86.0775 78.9383 -86.304C78.6479 -86.4855 78.4201 -86.7294 78.2616 -87.0074L39.9995 -148.226L1.69627 -86.94C1.11086 -86.0033 -0.123038 -85.7186 -1.05972 -86.304C-1.99639 -86.8894 -2.28115 -88.1233 -1.69574 -89.06L38.3035 -153.06C38.669 -153.645 39.3099 -154 39.9995 -154ZM39.9995 -114C40.6891 -114 41.33 -113.645 41.6955 -113.06L79.999 -51.7747L118.302 -113.06C118.667 -113.645 119.308 -114 119.998 -114C120.687 -114 121.328 -113.645 121.694 -113.06L159.998 -51.7731L198.302 -113.06C198.667 -113.645 199.308 -114 199.998 -114C200.687 -114 201.328 -113.645 201.694 -113.06L239.998 -51.7731L278.302 -113.06C278.667 -113.645 279.308 -114 279.998 -114C280.687 -114 281.328 -113.645 281.694 -113.06L319.997 -51.7747L358.3 -113.06C358.665 -113.645 359.306 -114 359.996 -114C360.685 -114 361.326 -113.645 361.692 -113.06L401.692 -49.0603C402.277 -48.1236 401.992 -46.8897 401.056 -46.3043C400.119 -45.7188 398.885 -46.0036 398.3 -46.9403L359.996 -108.226L321.731 -47.0016C321.588 -46.7529 321.389 -46.5317 321.14 -46.3585L321.122 -46.346L321.1 -46.3312L321.079 -46.3176C321.066 -46.3094 321.053 -46.3014 321.04 -46.2936L321.021 -46.2822L320.997 -46.268C320.715 -46.1049 320.408 -46.0184 320.102 -46.0026C319.706 -45.9813 319.299 -46.0776 318.936 -46.304C318.646 -46.4856 318.418 -46.7295 318.26 -47.0076L279.998 -108.226L241.694 -46.94C241.428 -46.5137 241.027 -46.2224 240.581 -46.0867C240.45 -46.0467 240.316 -46.0207 240.182 -46.0084C239.851 -45.9775 239.51 -46.0288 239.191 -46.1698C238.92 -46.2891 238.673 -46.4697 238.472 -46.7061C238.411 -46.7789 238.354 -46.857 238.302 -46.9403L199.998 -108.226L161.694 -46.94C161.428 -46.5137 161.027 -46.2224 160.581 -46.0867C160.133 -45.9506 159.64 -45.9713 159.191 -46.1698C158.895 -46.3 158.628 -46.5031 158.419 -46.7723C158.377 -46.8257 158.338 -46.8817 158.302 -46.9403L119.998 -108.226L81.7327 -47.0014C81.5892 -46.752 81.3899 -46.5303 81.1395 -46.3569C81.0948 -46.3259 81.049 -46.2968 81.0022 -46.2698C80.7192 -46.1056 80.4115 -46.0185 80.1042 -46.0026C79.7076 -45.9813 79.3007 -46.0775 78.9383 -46.304C78.6479 -46.4855 78.4201 -46.7294 78.2616 -47.0074L39.9995 -108.226L1.69627 -46.94C1.11086 -46.0033 -0.123038 -45.7186 -1.05972 -46.304C-1.99639 -46.8894 -2.28115 -48.1233 -1.69574 -49.06L38.3035 -113.06C38.669 -113.645 39.3099 -114 39.9995 -114ZM41.6955 -73.06C41.33 -73.6448 40.6891 -74 39.9995 -74C39.3099 -74 38.669 -73.6448 38.3035 -73.06L-1.69574 -9.05998C-2.28115 -8.12331 -1.99639 -6.8894 -1.05972 -6.304C-0.123038 -5.71858 1.11086 -6.00334 1.69627 -6.94002L39.9995 -68.2264L78.2616 -7.00743C78.4201 -6.7294 78.6479 -6.48552 78.9383 -6.304C79.3007 -6.07751 79.7076 -5.98128 80.1042 -6.00264C80.4115 -6.01846 80.7192 -6.10556 81.0022 -6.26974C81.049 -6.29684 81.0948 -6.3259 81.1395 -6.3569C81.3899 -6.53032 81.5892 -6.75197 81.7327 -7.00139L119.998 -68.2264L158.302 -6.94026C158.338 -6.88173 158.377 -6.82573 158.419 -6.77234C158.628 -6.50314 158.895 -6.30002 159.191 -6.16982C159.64 -5.9713 160.133 -5.95056 160.581 -6.08675C161.027 -6.22238 161.428 -6.51366 161.694 -6.94002L199.998 -68.2264L238.302 -6.94026C238.354 -6.85703 238.411 -6.77893 238.472 -6.70615C238.673 -6.46965 238.92 -6.28912 239.191 -6.16982C239.51 -6.02884 239.851 -5.97752 240.182 -6.00838C240.316 -6.02069 240.45 -6.04665 240.581 -6.08675C241.027 -6.22238 241.428 -6.51366 241.694 -6.94002L279.998 -68.2264L318.26 -7.00757C318.418 -6.72948 318.646 -6.48555 318.936 -6.304C319.299 -6.07755 319.706 -5.98131 320.102 -6.00262C320.408 -6.01837 320.715 -6.1049 320.997 -6.26799C321.046 -6.29605 321.093 -6.32625 321.14 -6.35852C321.389 -6.53174 321.588 -6.75287 321.731 -7.00159L359.996 -68.2264L398.3 -6.94026C398.885 -6.00359 400.119 -5.71884 401.056 -6.30428C401.992 -6.88969 402.277 -8.1236 401.692 -9.06026L361.692 -73.06C361.326 -73.6448 360.685 -74 359.996 -74C359.306 -74 358.665 -73.6448 358.3 -73.06L319.997 -11.7747L281.694 -73.06C281.328 -73.6448 280.687 -74 279.998 -74C279.308 -74 278.667 -73.6448 278.302 -73.06L239.998 -11.7731L201.694 -73.06C201.328 -73.6448 200.687 -74 199.998 -74C199.308 -74 198.667 -73.6448 198.302 -73.06L159.998 -11.7731L121.694 -73.06C121.328 -73.6448 120.687 -74 119.998 -74C119.308 -74 118.667 -73.6448 118.302 -73.06L79.999 -11.7747L41.6955 -73.06ZM39.9995 -34C40.6891 -34 41.33 -33.6448 41.6955 -33.06L79.999 28.2253L118.302 -33.06C118.667 -33.6448 119.308 -34 119.998 -34C120.687 -34 121.328 -33.6448 121.694 -33.06L159.998 28.2269L198.302 -33.06C198.667 -33.6448 199.308 -34 199.998 -34C200.687 -34 201.328 -33.6448 201.694 -33.06L239.998 28.2269L278.302 -33.06C278.667 -33.6448 279.308 -34 279.998 -34C280.687 -34 281.328 -33.6448 281.694 -33.06L319.997 28.2253L358.3 -33.06C358.665 -33.6448 359.306 -34 359.996 -34C360.685 -34 361.326 -33.6448 361.692 -33.06L401.692 30.9397C402.277 31.8764 401.992 33.1103 401.056 33.6957C400.119 34.2812 398.885 33.9964 398.3 33.0597L359.996 -28.2264L321.731 32.9984C321.588 33.2471 321.389 33.4683 321.14 33.6415C321.117 33.6575 321.094 33.673 321.07 33.6879C321.046 33.7032 321.022 33.7179 320.997 33.732C320.715 33.8951 320.408 33.9816 320.102 33.9974C319.706 34.0187 319.299 33.9225 318.936 33.696C318.646 33.5145 318.418 33.2705 318.26 32.9924L279.998 -28.2264L241.694 33.06C241.428 33.4863 241.027 33.7776 240.581 33.9133C240.45 33.9534 240.316 33.9793 240.182 33.9916C239.851 34.0225 239.51 33.9712 239.191 33.8302C238.92 33.7109 238.673 33.5303 238.472 33.2939C238.411 33.2211 238.354 33.143 238.302 33.0597L199.998 -28.2264L161.694 33.06C161.428 33.4863 161.027 33.7776 160.581 33.9133C160.133 34.0494 159.64 34.0287 159.191 33.8302C158.895 33.7 158.628 33.4969 158.419 33.2277C158.377 33.1743 158.338 33.1183 158.302 33.0597L119.998 -28.2264L81.7327 32.9986C81.5892 33.248 81.3899 33.4697 81.1395 33.6431C81.0948 33.6741 81.049 33.7032 81.0022 33.7303C80.7192 33.8944 80.4115 33.9815 80.1042 33.9974C79.7076 34.0187 79.3007 33.9225 78.9383 33.696C78.6479 33.5145 78.4201 33.2706 78.2616 32.9926L39.9995 -28.2264L1.69627 33.06C1.11086 33.9967 -0.123038 34.2814 -1.05972 33.696C-1.99639 33.1106 -2.28115 31.8767 -1.69574 30.94L38.3035 -33.06C38.669 -33.6448 39.3099 -34 39.9995 -34ZM41.6955 6.94C41.33 6.35524 40.6891 6 39.9995 6C39.3099 6 38.669 6.35526 38.3035 6.94002L-1.69574 70.94C-2.28115 71.8767 -1.99639 73.1106 -1.05972 73.696C-0.123038 74.2814 1.11086 73.9967 1.69627 73.06L39.9995 11.7736L78.2616 72.9926C78.4201 73.2706 78.6479 73.5145 78.9383 73.696C79.3007 73.9225 79.7076 74.0187 80.1042 73.9974C80.4115 73.9815 80.7192 73.8944 81.0022 73.7303C81.049 73.7032 81.0948 73.6741 81.1395 73.6431C81.3899 73.4697 81.5892 73.248 81.7327 72.9986L119.998 11.7736L158.302 73.0597C158.338 73.1183 158.377 73.1743 158.419 73.2277C158.628 73.4969 158.895 73.7 159.191 73.8302C159.64 74.0287 160.133 74.0494 160.581 73.9133C161.027 73.7776 161.428 73.4863 161.694 73.06L199.998 11.7736L238.302 73.0597C238.323 73.0935 238.345 73.1263 238.367 73.1584C238.374 73.1685 238.382 73.1786 238.389 73.1886L238.394 73.1954C238.419 73.2292 238.445 73.262 238.472 73.2939C238.673 73.5303 238.92 73.7109 239.191 73.8302C239.51 73.9712 239.851 74.0225 240.182 73.9916C240.316 73.9793 240.45 73.9534 240.581 73.9133C241.027 73.7776 241.428 73.4863 241.694 73.06L279.998 11.7736L318.26 72.9924C318.418 73.2705 318.646 73.5145 318.936 73.696C319.299 73.9225 319.706 74.0187 320.102 73.9974C320.408 73.9816 320.715 73.8951 320.997 73.732C321.046 73.7039 321.093 73.6738 321.14 73.6415C321.389 73.4683 321.588 73.2471 321.731 72.9984L359.996 11.7736L398.3 73.0597C398.885 73.9964 400.119 74.2812 401.056 73.6957C401.992 73.1103 402.277 71.8764 401.692 70.9397L361.692 6.94C361.326 6.35524 360.685 6 359.996 6C359.306 6 358.665 6.35526 358.3 6.94002L319.997 68.2253L281.694 6.94C281.328 6.35524 280.687 6 279.998 6C279.308 6 278.667 6.35526 278.302 6.94002L239.998 68.2269L201.694 6.94C201.328 6.35524 200.687 6 199.998 6C199.308 6 198.667 6.35526 198.302 6.94002L159.998 68.2269L121.694 6.94C121.328 6.35524 120.687 6 119.998 6C119.308 6 118.667 6.35526 118.302 6.94002L79.999 68.2253L41.6955 6.94ZM39.9995 46C40.6891 46 41.33 46.3552 41.6955 46.94L79.999 108.225L118.302 46.94C118.667 46.3553 119.308 46 119.998 46C120.687 46 121.328 46.3552 121.694 46.94L159.998 108.227L198.302 46.94C198.667 46.3553 199.308 46 199.998 46C200.687 46 201.328 46.3552 201.694 46.94L239.998 108.227L278.302 46.94C278.667 46.3553 279.308 46 279.998 46C280.687 46 281.328 46.3552 281.694 46.94L319.997 108.225L358.3 46.94C358.665 46.3553 359.306 46 359.996 46C360.685 46 361.326 46.3552 361.692 46.94L401.692 110.94C402.277 111.876 401.992 113.11 401.056 113.696C400.119 114.281 398.885 113.996 398.3 113.06L359.996 51.7736L321.731 112.998C321.588 113.247 321.389 113.468 321.14 113.641C321.093 113.674 321.046 113.704 320.997 113.732C320.715 113.895 320.408 113.982 320.102 113.997C319.706 114.019 319.299 113.922 318.936 113.696C318.646 113.514 318.418 113.271 318.26 112.992L279.998 51.7736L241.694 113.06C241.428 113.486 241.027 113.778 240.581 113.913C240.45 113.953 240.316 113.979 240.182 113.992C239.851 114.022 239.51 113.971 239.191 113.83C238.92 113.711 238.673 113.53 238.472 113.294C238.411 113.221 238.354 113.143 238.302 113.06L199.998 51.7736L161.694 113.06C161.428 113.486 161.027 113.778 160.581 113.913C160.133 114.049 159.64 114.029 159.191 113.83C158.895 113.7 158.628 113.497 158.419 113.228C158.377 113.174 158.338 113.118 158.302 113.06L119.998 51.7736L81.7327 112.999C81.5892 113.248 81.3899 113.47 81.1395 113.643C81.0948 113.674 81.049 113.703 81.0022 113.73C80.7192 113.894 80.4115 113.982 80.1042 113.997C79.7076 114.019 79.3007 113.922 78.9383 113.696C78.6479 113.514 78.4201 113.271 78.2616 112.993L39.9995 51.7736L1.69627 113.06C1.11086 113.997 -0.123038 114.281 -1.05972 113.696C-1.99639 113.111 -2.28115 111.877 -1.69574 110.94L38.3035 46.94C38.669 46.3553 39.3099 46 39.9995 46ZM41.6955 86.94C41.33 86.3552 40.6891 86 39.9995 86C39.3099 86 38.669 86.3553 38.3035 86.94L-1.69574 150.94C-2.28115 151.877 -1.99639 153.111 -1.05972 153.696C-0.123038 154.281 1.11086 153.997 1.69627 153.06L39.9995 91.7736L78.2616 152.993C78.4201 153.271 78.6479 153.514 78.9383 153.696C79.3007 153.922 79.7076 154.019 80.1042 153.997C80.4115 153.982 80.7192 153.894 81.0022 153.73C81.049 153.703 81.0948 153.674 81.1395 153.643C81.3899 153.47 81.5892 153.248 81.7327 152.999L119.998 91.7736L158.302 153.06C158.338 153.118 158.377 153.174 158.419 153.228C158.628 153.497 158.895 153.7 159.191 153.83C159.64 154.029 160.133 154.049 160.581 153.913C161.027 153.778 161.428 153.486 161.694 153.06L199.998 91.7736L238.302 153.06C238.354 153.143 238.411 153.221 238.472 153.294C238.673 153.53 238.92 153.711 239.191 153.83C239.51 153.971 239.851 154.022 240.182 153.992C240.316 153.979 240.45 153.953 240.581 153.913C241.027 153.778 241.428 153.486 241.694 153.06L279.998 91.7736L318.26 152.992C318.418 153.271 318.646 153.514 318.936 153.696C319.299 153.922 319.706 154.019 320.102 153.997C320.408 153.982 320.715 153.895 320.997 153.732C321.046 153.704 321.093 153.674 321.14 153.641C321.389 153.468 321.588 153.247 321.731 152.998L359.996 91.7736L398.3 153.06C398.885 153.996 400.119 154.281 401.056 153.696C401.992 153.11 402.277 151.876 401.692 150.94L361.692 86.94C361.326 86.3552 360.685 86 359.996 86C359.306 86 358.665 86.3553 358.3 86.94L319.997 148.225L281.694 86.94C281.328 86.3552 280.687 86 279.998 86C279.308 86 278.667 86.3553 278.302 86.94L239.998 148.227L201.694 86.94C201.328 86.3552 200.687 86 199.998 86C199.308 86 198.667 86.3553 198.302 86.94L159.998 148.227L121.694 86.94C121.328 86.3552 120.687 86 119.998 86C119.308 86 118.667 86.3553 118.302 86.94L79.999 148.225L41.6955 86.94ZM39.9995 126C40.6891 126 41.33 126.355 41.6955 126.94L79.999 188.225L118.302 126.94C118.667 126.355 119.308 126 119.998 126C120.687 126 121.328 126.355 121.694 126.94L159.998 188.227L198.302 126.94C198.667 126.355 199.308 126 199.998 126C200.687 126 201.328 126.355 201.694 126.94L239.998 188.227L278.302 126.94C278.667 126.355 279.308 126 279.998 126C280.687 126 281.328 126.355 281.694 126.94L319.997 188.225L358.3 126.94C358.665 126.355 359.306 126 359.996 126C360.685 126 361.326 126.355 361.692 126.94L401.692 190.94C402.277 191.876 401.992 193.11 401.056 193.696C400.119 194.281 398.885 193.996 398.3 193.06L359.996 131.774L321.731 192.998C321.588 193.247 321.389 193.468 321.14 193.641C321.127 193.651 321.113 193.66 321.1 193.669L321.082 193.68L321.057 193.696C321.038 193.708 321.017 193.72 320.997 193.732C320.715 193.895 320.408 193.982 320.102 193.997C319.706 194.019 319.299 193.922 318.936 193.696C318.646 193.514 318.418 193.271 318.26 192.992L279.998 131.774L241.694 193.06C241.428 193.486 241.027 193.778 240.581 193.913C240.45 193.953 240.316 193.979 240.182 193.992C239.851 194.022 239.51 193.971 239.191 193.83C238.92 193.711 238.673 193.53 238.472 193.294C238.411 193.221 238.354 193.143 238.302 193.06L199.998 131.774L161.694 193.06C161.428 193.486 161.027 193.778 160.581 193.913C160.133 194.049 159.64 194.029 159.191 193.83C158.895 193.7 158.628 193.497 158.419 193.228C158.377 193.174 158.338 193.118 158.302 193.06L119.998 131.774L81.7327 192.999C81.5892 193.248 81.3899 193.47 81.1395 193.643C81.0948 193.674 81.049 193.703 81.0022 193.73C80.7192 193.894 80.4115 193.982 80.1042 193.997C79.7076 194.019 79.3007 193.922 78.9383 193.696C78.6479 193.514 78.4201 193.271 78.2616 192.993L39.9995 131.774L1.69627 193.06C1.11086 193.997 -0.123038 194.281 -1.05972 193.696C-1.99639 193.111 -2.28115 191.877 -1.69574 190.94L38.3035 126.94C38.669 126.355 39.3099 126 39.9995 126ZM41.6955 166.94C41.33 166.355 40.6891 166 39.9995 166C39.3099 166 38.669 166.355 38.3035 166.94L-1.69574 230.94C-2.28115 231.877 -1.99639 233.111 -1.05972 233.696C-0.123038 234.281 1.11086 233.997 1.69627 233.06L39.9995 171.774L78.2616 232.993C78.4201 233.271 78.6479 233.514 78.9383 233.696C79.3007 233.922 79.7076 234.019 80.1042 233.997C80.4115 233.982 80.7192 233.894 81.0022 233.73C81.049 233.703 81.0948 233.674 81.1395 233.643C81.3899 233.47 81.5892 233.248 81.7327 232.999L119.998 171.774L158.302 233.06C158.338 233.118 158.377 233.174 158.419 233.228C158.628 233.497 158.895 233.7 159.191 233.83C159.64 234.029 160.133 234.049 160.581 233.913C161.027 233.778 161.428 233.486 161.694 233.06L199.998 171.774L238.302 233.06C238.354 233.143 238.411 233.221 238.472 233.294C238.673 233.53 238.92 233.711 239.191 233.83C239.51 233.971 239.851 234.022 240.182 233.992C240.316 233.979 240.45 233.953 240.581 233.913C241.027 233.778 241.428 233.486 241.694 233.06L279.998 171.774L318.26 232.992C318.418 233.271 318.646 233.514 318.936 233.696C319.299 233.922 319.706 234.019 320.102 233.997C320.408 233.982 320.715 233.895 320.997 233.732C321.046 233.704 321.093 233.674 321.14 233.641C321.389 233.468 321.588 233.247 321.731 232.998L359.996 171.774L398.3 233.06C398.885 233.996 400.119 234.281 401.056 233.696C401.992 233.11 402.277 231.876 401.692 230.94L361.692 166.94C361.326 166.355 360.685 166 359.996 166C359.306 166 358.665 166.355 358.3 166.94L319.997 228.225L281.694 166.94C281.328 166.355 280.687 166 279.998 166C279.308 166 278.667 166.355 278.302 166.94L239.998 228.227L201.694 166.94C201.328 166.355 200.687 166 199.998 166C199.308 166 198.667 166.355 198.302 166.94L159.998 228.227L121.694 166.94C121.328 166.355 120.687 166 119.998 166C119.308 166 118.667 166.355 118.302 166.94L79.999 228.225L41.6955 166.94ZM39.9995 206C40.6891 206 41.33 206.355 41.6955 206.94L79.999 268.225L118.302 206.94C118.667 206.355 119.308 206 119.998 206C120.687 206 121.328 206.355 121.694 206.94L159.998 268.227L198.302 206.94C198.667 206.355 199.308 206 199.998 206C200.687 206 201.328 206.355 201.694 206.94L239.998 268.227L278.302 206.94C278.667 206.355 279.308 206 279.998 206C280.687 206 281.328 206.355 281.694 206.94L319.997 268.225L358.3 206.94C358.665 206.355 359.306 206 359.996 206C360.685 206 361.326 206.355 361.692 206.94L401.692 270.94C402.277 271.876 401.992 273.11 401.056 273.696C400.119 274.281 398.885 273.996 398.3 273.06L359.996 211.774L321.731 272.998C321.588 273.247 321.389 273.468 321.14 273.641L321.122 273.654L321.099 273.669C321.066 273.691 321.032 273.712 320.997 273.732C320.715 273.895 320.408 273.982 320.102 273.997C319.706 274.019 319.299 273.922 318.936 273.696C318.646 273.514 318.418 273.271 318.26 272.992L279.998 211.774L241.694 273.06C241.428 273.486 241.027 273.778 240.581 273.913C240.45 273.953 240.316 273.979 240.182 273.992C239.851 274.022 239.51 273.971 239.191 273.83C238.92 273.711 238.673 273.53 238.472 273.294C238.411 273.221 238.354 273.143 238.302 273.06L199.998 211.774L161.694 273.06C161.428 273.486 161.027 273.778 160.581 273.913C160.133 274.049 159.64 274.029 159.191 273.83C158.895 273.7 158.628 273.497 158.419 273.228C158.377 273.174 158.338 273.118 158.302 273.06L119.998 211.774L81.7327 272.999C81.5892 273.248 81.3899 273.47 81.1395 273.643L81.1113 273.662L81.0871 273.678C81.0764 273.685 81.0656 273.692 81.0547 273.699C81.0373 273.71 81.0198 273.72 81.0022 273.73C80.7192 273.894 80.4115 273.982 80.1042 273.997C79.7076 274.019 79.3007 273.922 78.9383 273.696C78.6479 273.514 78.4201 273.271 78.2616 272.993L39.9995 211.774L1.69627 273.06C1.11086 273.997 -0.123038 274.281 -1.05972 273.696C-1.99639 273.111 -2.28115 271.877 -1.69574 270.94L38.3035 206.94C38.669 206.355 39.3099 206 39.9995 206ZM41.6955 246.94C41.33 246.355 40.6891 246 39.9995 246C39.3099 246 38.669 246.355 38.3035 246.94L-1.69574 310.94C-2.28115 311.877 -1.99639 313.111 -1.05972 313.696C-0.123038 314.281 1.11086 313.997 1.69627 313.06L39.9995 251.774L78.2616 312.993C78.4201 313.271 78.6479 313.514 78.9383 313.696C79.3007 313.922 79.7076 314.019 80.1042 313.997C80.4115 313.982 80.7192 313.894 81.0022 313.73C81.049 313.703 81.0948 313.674 81.1395 313.643C81.3899 313.47 81.5892 313.248 81.7327 312.999L119.998 251.774L158.302 313.06C158.338 313.118 158.377 313.174 158.419 313.228C158.628 313.497 158.895 313.7 159.191 313.83C159.64 314.029 160.133 314.049 160.581 313.913C161.027 313.778 161.428 313.486 161.694 313.06L199.998 251.774L238.302 313.06C238.354 313.143 238.411 313.221 238.472 313.294C238.673 313.53 238.92 313.711 239.191 313.83C239.51 313.971 239.851 314.022 240.182 313.992C240.316 313.979 240.45 313.953 240.581 313.913C241.027 313.778 241.428 313.486 241.694 313.06L279.998 251.774L318.26 312.992C318.418 313.271 318.646 313.514 318.936 313.696C319.299 313.922 319.706 314.019 320.102 313.997C320.408 313.982 320.715 313.895 320.997 313.732C321.046 313.704 321.093 313.674 321.14 313.641C321.389 313.468 321.588 313.247 321.731 312.998L359.996 251.774L398.3 313.06C398.885 313.996 400.119 314.281 401.056 313.696C401.992 313.11 402.277 311.876 401.692 310.94L361.692 246.94C361.326 246.355 360.685 246 359.996 246C359.306 246 358.665 246.355 358.3 246.94L319.997 308.225L281.694 246.94C281.328 246.355 280.687 246 279.998 246C279.308 246 278.667 246.355 278.302 246.94L239.998 308.227L201.694 246.94C201.328 246.355 200.687 246 199.998 246C199.308 246 198.667 246.355 198.302 246.94L159.998 308.227L121.694 246.94C121.328 246.355 120.687 246 119.998 246C119.308 246 118.667 246.355 118.302 246.94L79.999 308.225L41.6955 246.94ZM39.9995 286C40.6891 286 41.33 286.355 41.6955 286.94L79.999 348.225L118.302 286.94C118.667 286.355 119.308 286 119.998 286C120.687 286 121.328 286.355 121.694 286.94L159.998 348.227L198.302 286.94C198.667 286.355 199.308 286 199.998 286C200.687 286 201.328 286.355 201.694 286.94L239.998 348.227L278.302 286.94C278.667 286.355 279.308 286 279.998 286C280.687 286 281.328 286.355 281.694 286.94L319.997 348.225L358.3 286.94C358.665 286.355 359.306 286 359.996 286C360.685 286 361.326 286.355 361.692 286.94L401.692 350.94C402.277 351.876 401.992 353.11 401.056 353.696C400.119 354.281 398.885 353.996 398.3 353.06L359.996 291.774L321.731 352.998C321.588 353.247 321.389 353.468 321.14 353.641C321.093 353.674 321.046 353.704 320.997 353.732C320.715 353.895 320.408 353.982 320.102 353.997C319.706 354.019 319.299 353.922 318.936 353.696C318.646 353.514 318.418 353.271 318.26 352.992L279.998 291.774L241.694 353.06C241.428 353.486 241.027 353.778 240.581 353.913C240.45 353.953 240.316 353.979 240.182 353.992C239.851 354.022 239.51 353.971 239.191 353.83C238.92 353.711 238.673 353.53 238.472 353.294C238.45 353.268 238.429 353.241 238.408 353.214C238.387 353.186 238.366 353.157 238.346 353.128C238.331 353.106 238.316 353.083 238.302 353.06L199.998 291.774L161.694 353.06C161.428 353.486 161.027 353.778 160.581 353.913C160.133 354.049 159.64 354.029 159.191 353.83C158.895 353.7 158.628 353.497 158.419 353.228C158.408 353.214 158.397 353.2 158.387 353.186C158.368 353.16 158.35 353.134 158.332 353.107L158.321 353.09C158.314 353.08 158.308 353.07 158.302 353.06L119.998 291.774L81.7327 352.999C81.5892 353.248 81.3899 353.47 81.1395 353.643C81.0948 353.674 81.049 353.703 81.0022 353.73C80.7192 353.894 80.4115 353.982 80.1042 353.997C79.7076 354.019 79.3007 353.922 78.9383 353.696C78.6479 353.514 78.4201 353.271 78.2616 352.993L39.9995 291.774L1.69627 353.06C1.11086 353.997 -0.123038 354.281 -1.05972 353.696C-1.99639 353.111 -2.28115 351.877 -1.69574 350.94L38.3035 286.94C38.669 286.355 39.3099 286 39.9995 286ZM41.6955 326.94C41.33 326.355 40.6891 326 39.9995 326C39.3099 326 38.669 326.355 38.3035 326.94L-1.69574 390.94C-2.28115 391.877 -1.99639 393.111 -1.05972 393.696C-0.123038 394.281 1.11086 393.997 1.69627 393.06L39.9995 331.774L78.2616 392.993C78.4201 393.271 78.6479 393.514 78.9383 393.696C79.3007 393.922 79.7076 394.019 80.1042 393.997C80.4115 393.982 80.7192 393.894 81.0022 393.73C81.0176 393.721 81.0329 393.712 81.0481 393.703C81.058 393.697 81.0678 393.691 81.0776 393.684L81.1011 393.669L81.1135 393.661L81.1395 393.643C81.3899 393.47 81.5892 393.248 81.7327 392.999L119.998 331.774L158.302 393.06C158.338 393.118 158.377 393.174 158.419 393.228C158.628 393.497 158.895 393.7 159.191 393.83C159.64 394.029 160.133 394.049 160.581 393.913C161.027 393.778 161.428 393.486 161.694 393.06L199.998 331.774L238.302 393.06C238.319 393.088 238.337 393.115 238.356 393.142C238.372 393.165 238.389 393.188 238.406 393.211C238.427 393.239 238.45 393.267 238.472 393.294C238.673 393.53 238.92 393.711 239.191 393.83C239.51 393.971 239.851 394.022 240.182 393.992C240.316 393.979 240.45 393.953 240.581 393.913C241.027 393.778 241.428 393.486 241.694 393.06L279.998 331.774L318.26 392.992C318.418 393.271 318.646 393.514 318.936 393.696C319.299 393.922 319.706 394.019 320.102 393.997C320.408 393.982 320.715 393.895 320.997 393.732L321.014 393.722L321.029 393.713C321.041 393.706 321.054 393.698 321.066 393.691C321.091 393.675 321.115 393.658 321.14 393.641C321.389 393.468 321.588 393.247 321.731 392.998L359.996 331.774L398.3 393.06C398.885 393.996 400.119 394.281 401.056 393.696C401.992 393.11 402.277 391.876 401.692 390.94L361.692 326.94C361.326 326.355 360.685 326 359.996 326C359.306 326 358.665 326.355 358.3 326.94L319.997 388.225L281.694 326.94C281.328 326.355 280.687 326 279.998 326C279.308 326 278.667 326.355 278.302 326.94L239.998 388.227L201.694 326.94C201.328 326.355 200.687 326 199.998 326C199.308 326 198.667 326.355 198.302 326.94L159.998 388.227L121.694 326.94C121.328 326.355 120.687 326 119.998 326C119.308 326 118.667 326.355 118.302 326.94L79.999 388.225L41.6955 326.94ZM39.9995 366C40.6891 366 41.33 366.355 41.6955 366.94L79.999 428.225L118.302 366.94C118.667 366.355 119.308 366 119.998 366C120.687 366 121.328 366.355 121.694 366.94L159.998 428.227L198.302 366.94C198.667 366.355 199.308 366 199.998 366C200.687 366 201.328 366.355 201.694 366.94L239.998 428.227L278.302 366.94C278.667 366.355 279.308 366 279.998 366C280.687 366 281.328 366.355 281.694 366.94L319.997 428.225L358.3 366.94C358.665 366.355 359.306 366 359.996 366C360.685 366 361.326 366.355 361.692 366.94L401.692 430.94C402.277 431.876 401.992 433.11 401.056 433.696C400.119 434.281 398.885 433.996 398.3 433.06L359.996 371.774L321.731 432.998C321.588 433.247 321.389 433.468 321.14 433.641C321.093 433.674 321.046 433.704 320.997 433.732C320.715 433.895 320.408 433.982 320.102 433.997C319.706 434.019 319.299 433.922 318.936 433.696C318.646 433.514 318.418 433.271 318.26 432.992L279.998 371.774L241.694 433.06C241.428 433.486 241.027 433.778 240.581 433.913C240.45 433.953 240.316 433.979 240.182 433.992C239.851 434.022 239.51 433.971 239.191 433.83C238.92 433.711 238.673 433.53 238.472 433.294C238.411 433.221 238.354 433.143 238.302 433.06L199.998 371.774L161.694 433.06C161.428 433.486 161.027 433.778 160.581 433.913C160.133 434.049 159.64 434.029 159.191 433.83C158.895 433.7 158.628 433.497 158.419 433.228C158.377 433.174 158.338 433.118 158.302 433.06L119.998 371.774L81.7327 432.999C81.5892 433.248 81.3899 433.47 81.1395 433.643C81.0948 433.674 81.049 433.703 81.0022 433.73C80.7192 433.894 80.4115 433.982 80.1042 433.997C79.7076 434.019 79.3007 433.922 78.9383 433.696C78.6479 433.514 78.4201 433.271 78.2616 432.993L39.9995 371.774L1.69627 433.06C1.11086 433.997 -0.123038 434.281 -1.05972 433.696C-1.99639 433.111 -2.28115 431.877 -1.69574 430.94L38.3035 366.94C38.669 366.355 39.3099 366 39.9995 366ZM41.6955 406.94C41.33 406.355 40.6891 406 39.9995 406C39.3099 406 38.669 406.355 38.3035 406.94L-1.69574 470.94C-2.28115 471.877 -1.99639 473.111 -1.05972 473.696C-0.123038 474.281 1.11086 473.997 1.69627 473.06L39.9995 411.774L78.2616 472.993C78.4201 473.271 78.6479 473.514 78.9383 473.696C79.3007 473.922 79.7076 474.019 80.1042 473.997C80.4115 473.982 80.7192 473.894 81.0022 473.73C81.0194 473.72 81.0365 473.71 81.0534 473.7C81.0826 473.682 81.1112 473.663 81.1395 473.643C81.3899 473.47 81.5892 473.248 81.7327 472.999L119.998 411.774L158.302 473.06C158.338 473.118 158.377 473.174 158.419 473.228C158.628 473.497 158.895 473.7 159.191 473.83C159.64 474.029 160.133 474.049 160.581 473.913C161.027 473.778 161.428 473.486 161.694 473.06L199.998 411.774L238.302 473.06C238.329 473.103 238.357 473.145 238.387 473.185C238.414 473.223 238.443 473.259 238.472 473.294C238.673 473.53 238.92 473.711 239.191 473.83C239.51 473.971 239.851 474.022 240.182 473.992C240.316 473.979 240.45 473.953 240.581 473.913C241.027 473.778 241.428 473.486 241.694 473.06L279.998 411.774L318.26 472.992C318.418 473.271 318.646 473.514 318.936 473.696C319.299 473.922 319.706 474.019 320.102 473.997C320.408 473.982 320.715 473.895 320.997 473.732C321.046 473.704 321.093 473.674 321.14 473.641C321.389 473.468 321.588 473.247 321.731 472.998L359.996 411.774L398.3 473.06C398.885 473.996 400.119 474.281 401.056 473.696C401.992 473.11 402.277 471.876 401.692 470.94L361.692 406.94C361.326 406.355 360.685 406 359.996 406C359.306 406 358.665 406.355 358.3 406.94L319.997 468.225L281.694 406.94C281.328 406.355 280.687 406 279.998 406C279.308 406 278.667 406.355 278.302 406.94L239.998 468.227L201.694 406.94C201.328 406.355 200.687 406 199.998 406C199.308 406 198.667 406.355 198.302 406.94L159.998 468.227L121.694 406.94C121.328 406.355 120.687 406 119.998 406C119.308 406 118.667 406.355 118.302 406.94L79.999 468.225L41.6955 406.94ZM39.9995 446C40.6891 446 41.33 446.355 41.6955 446.94L79.999 508.225L118.302 446.94C118.667 446.355 119.308 446 119.998 446C120.687 446 121.328 446.355 121.694 446.94L159.998 508.227L198.302 446.94C198.667 446.355 199.308 446 199.998 446C200.687 446 201.328 446.355 201.694 446.94L239.998 508.227L278.302 446.94C278.667 446.355 279.308 446 279.998 446C280.687 446 281.328 446.355 281.694 446.94L319.997 508.225L358.3 446.94C358.665 446.355 359.306 446 359.996 446C360.685 446 361.326 446.355 361.692 446.94L401.692 510.94C402.277 511.876 401.992 513.11 401.056 513.696C400.119 514.281 398.885 513.996 398.3 513.06L359.996 451.774L321.731 512.998C321.588 513.247 321.389 513.468 321.14 513.641C321.104 513.667 321.067 513.69 321.03 513.713C321.019 513.719 321.008 513.726 320.997 513.732C320.715 513.895 320.408 513.982 320.102 513.997C319.706 514.019 319.299 513.922 318.936 513.696C318.646 513.514 318.418 513.271 318.26 512.992L279.998 451.774L241.694 513.06C241.428 513.486 241.027 513.778 240.581 513.913C240.511 513.935 240.441 513.952 240.37 513.965C240.308 513.977 240.245 513.986 240.182 513.992C239.851 514.022 239.51 513.971 239.191 513.83C238.92 513.711 238.673 513.53 238.472 513.294C238.439 513.254 238.407 513.213 238.376 513.171C238.35 513.135 238.325 513.098 238.302 513.06L199.998 451.774L161.694 513.06C161.428 513.486 161.027 513.778 160.581 513.913C160.133 514.049 159.64 514.029 159.191 513.83C158.895 513.7 158.628 513.497 158.419 513.228C158.377 513.174 158.338 513.118 158.302 513.06L119.998 451.774L81.7327 512.999C81.5892 513.248 81.3899 513.47 81.1395 513.643C81.1151 513.66 81.0904 513.676 81.0653 513.692C81.0445 513.705 81.0235 513.718 81.0022 513.73C80.7192 513.894 80.4115 513.982 80.1042 513.997C79.7076 514.019 79.3007 513.922 78.9383 513.696C78.6479 513.514 78.4201 513.271 78.2616 512.993L39.9995 451.774L1.69627 513.06C1.11086 513.997 -0.123038 514.281 -1.05972 513.696C-1.99639 513.111 -2.28115 511.877 -1.69574 510.94L38.3035 446.94C38.669 446.355 39.3099 446 39.9995 446ZM41.6955 486.94C41.33 486.355 40.6891 486 39.9995 486C39.3099 486 38.669 486.355 38.3035 486.94L-1.69574 550.94C-2.28115 551.877 -1.99639 553.111 -1.05972 553.696C-0.123038 554.281 1.11086 553.997 1.69627 553.06L39.9995 491.774L78.2616 552.993C78.4201 553.271 78.6479 553.514 78.9383 553.696C79.3007 553.922 79.7076 554.019 80.1042 553.997C80.4115 553.982 80.7192 553.894 81.0022 553.73C81.049 553.703 81.0948 553.674 81.1395 553.643C81.3899 553.47 81.5892 553.248 81.7327 552.999L119.998 491.774L158.302 553.06C158.321 553.09 158.34 553.12 158.36 553.149C158.379 553.176 158.399 553.202 158.419 553.228C158.628 553.497 158.895 553.7 159.191 553.83C159.64 554.029 160.133 554.049 160.581 553.913C161.027 553.778 161.428 553.486 161.694 553.06L199.998 491.774L238.302 553.06C238.354 553.143 238.411 553.221 238.472 553.294C238.673 553.53 238.92 553.711 239.191 553.83C239.51 553.971 239.851 554.022 240.182 553.992C240.246 553.986 240.31 553.977 240.374 553.965C240.443 553.951 240.512 553.934 240.581 553.913C241.027 553.778 241.428 553.486 241.694 553.06L279.998 491.774L318.26 552.992C318.418 553.271 318.646 553.514 318.936 553.696C319.299 553.922 319.706 554.019 320.102 553.997C320.408 553.982 320.715 553.895 320.997 553.732C321.046 553.704 321.093 553.674 321.14 553.641C321.389 553.468 321.588 553.247 321.731 552.998L359.996 491.774L398.3 553.06C398.885 553.996 400.119 554.281 401.056 553.696C401.992 553.11 402.277 551.876 401.692 550.94L361.692 486.94C361.326 486.355 360.685 486 359.996 486C359.306 486 358.665 486.355 358.3 486.94L319.997 548.225L281.694 486.94C281.328 486.355 280.687 486 279.998 486C279.308 486 278.667 486.355 278.302 486.94L239.998 548.227L201.694 486.94C201.328 486.355 200.687 486 199.998 486C199.308 486 198.667 486.355 198.302 486.94L159.998 548.227L121.694 486.94C121.328 486.355 120.687 486 119.998 486C119.308 486 118.667 486.355 118.302 486.94L79.999 548.225L41.6955 486.94Z" fill="#595959"/>
</g>
<defs>
<clipPath id="clip0_259_223763">
<rect width="400" height="400" rx="200" fill="white"/>
</clipPath>
</defs>
</svg>
