<svg width="1em" height="1em" viewBox="0 0 400 400" fill="none" xmlns="http://www.w3.org/2000/svg">
<g clip-path="url(#clip0_259_223006)">
<path fill-rule="evenodd" clip-rule="evenodd" d="M142.079 61.1542C144.657 59.3223 147.301 57.6265 150 56.0669V94H144L140 90H122.979C125.34 85.9982 127.999 82.2038 130.926 78.6449C129.696 73.9975 131.322 68.7971 135.576 65.7745L142.079 61.1542ZM190 94H170V47.2719C176.539 45.2166 183.242 43.8501 190 43.1724V94ZM210 94V43.1724C216.757 43.8501 223.461 45.2166 230 47.2719V94H210ZM250 94V56.0669C252.699 57.6265 255.342 59.3223 257.92 61.1542L264.423 65.7745C270.478 70.0765 271.21 78.79 265.958 84.0419L256 94H250ZM269.074 78.6445C268.553 80.6118 267.52 82.4799 265.958 84.0419L260 90H277.021C274.66 85.9981 272 82.2035 269.074 78.6445ZM110.424 130H144.963L145.349 140.431C145.764 151.627 150.855 162.136 159.383 169.401L160.087 170H104.435L110.424 130ZM295.565 170H239.913L240.617 169.401C249.145 162.136 254.236 151.627 254.651 140.431L255.037 130H289.576L295.565 170ZM98.4463 210L92.4576 250H193.537L192.177 210H98.4463ZM207.823 210L206.463 250H307.542L301.554 210H207.823ZM194.898 290L195 293L200 300L205 293L205.102 290H313.531L319.52 330H80.4802L86.4689 290H194.898ZM74.4915 370L70 400H330L325.508 370H74.4915ZM176 140L190.952 154.952L190 146L176 140ZM209.048 154.952L224 140L210 146L209.048 154.952Z" fill="white" fill-opacity="0.4"/>
<path fill-rule="evenodd" clip-rule="evenodd" d="M145.349 120.431L144.666 102H255.333L254.65 120.431C254.236 131.627 249.145 142.136 240.616 149.401L225.938 161.904C220.956 166.148 215.194 168.977 209.17 170.393L209.718 154.281L224 140L224 140L208 130H228C239.046 130 248 121.046 248 110H228C216.954 110 208 118.954 208 130H192L176 140L190 146L190 146.006L190 146L176 140L190.282 154.282L190.83 170.393C184.806 168.978 179.043 166.148 174.061 161.904L159.383 149.401C150.854 142.136 145.764 131.627 145.349 120.431ZM174.061 181.904C179.232 186.309 185.244 189.19 191.515 190.547L195 293L200 300L205 293L208.485 190.547C214.756 189.19 220.768 186.309 225.939 181.904L240.617 169.401C249.145 162.136 254.236 151.627 254.651 140.431L254.756 137.585L300 400H100L145.244 137.585L145.349 140.431C145.764 151.627 150.855 162.136 159.383 169.401L174.061 181.904Z" fill="white"/>
</g>
<defs>
<clipPath id="clip0_259_223006">
<rect width="400" height="400" rx="200" fill="white"/>
</clipPath>
</defs>
</svg>
