<svg width="1em" height="1em" viewBox="0 0 400 400" fill="none" xmlns="http://www.w3.org/2000/svg">
<path fill-rule="evenodd" clip-rule="evenodd" d="M138.97 200H72.4364C70.451 186.223 71.4188 172.676 74.852 160H133.364L130 136H162.144C152.222 140.645 145 145 145 145L166.81 188.619C168.92 192.84 170.267 197.4 170.788 202.09L175.274 242.47C175.746 246.712 177.561 250.692 180.456 253.827L185.304 259.079C186.789 260.688 188.471 261.995 190.278 263H190V323L200 311L210 323V263H209.722C211.529 261.995 213.211 260.688 214.696 259.079L219.544 253.827C222.439 250.692 224.254 246.712 224.725 242.47L229.212 202.09C229.733 197.4 231.08 192.84 233.19 188.619L255 145C255 145 247.778 140.645 237.856 136H270L266.636 160H325.147C328.58 172.676 329.548 186.223 327.563 200H261.03L255.424 240H317.331L306.248 280H249.818L244.212 320H295.165L284.082 360H238.606L233 400H167L161.394 360H115.917L104.834 320H155.788L150.182 280H93.7512L82.6684 240H144.576L138.97 200ZM96.3435 120H239.056C241.253 117.545 244.446 116 248 116H272C272 117.372 271.845 118.712 271.55 120H303.656C285.555 99.3614 258.969 86 228.525 86H171.474C141.03 86 114.444 99.3614 96.3435 120Z" fill="white" fill-opacity="0.4"/>
<path fill-rule="evenodd" clip-rule="evenodd" d="M115.731 126.904C112.255 119.684 113.423 111.087 118.7 105.057L130.061 92.0727C139.327 81.4832 153.476 76.541 167.32 79.0581L192.844 83.699C197.576 84.5593 202.424 84.5593 207.155 83.699L232.68 79.0581C246.524 76.541 260.673 81.4832 269.939 92.0727L281.3 105.057C286.576 111.087 287.744 119.684 284.268 126.904L272.439 151.473C269.863 156.823 265.209 160.516 259.901 162.031L243.923 193.986C242.446 196.94 241.503 200.133 241.139 203.416L236.652 243.796C235.898 250.582 232.993 256.949 228.361 261.967L223.514 267.219C219.671 271.382 214.998 274.282 210 275.92V263H209.722C211.528 261.995 213.211 260.688 214.696 259.079L219.544 253.827C222.438 250.692 224.254 246.712 224.725 242.47L229.212 202.09C229.733 197.4 231.08 192.84 233.19 188.619L246.846 161.308C246.645 161.225 246.445 161.14 246.245 161.05L233.974 155.556C233.683 163.361 230.894 170.882 226 177V149.721L213.895 138.212C206.128 130.827 193.92 130.877 186.214 138.327L174 150.133V177C169.146 170.933 166.363 163.486 166.033 155.75L153.7 161.191C153.534 161.264 153.368 161.335 153.201 161.403L166.809 188.619C168.92 192.84 170.267 197.4 170.788 202.09L175.274 242.47C175.746 246.712 177.561 250.692 180.456 253.827L185.304 259.079C186.788 260.688 188.471 261.995 190.278 263H190V275.92C185.001 274.282 180.329 271.382 176.486 267.219L171.638 261.967C167.007 256.949 164.102 250.582 163.348 243.796L158.861 203.416C158.496 200.133 157.553 196.94 156.076 193.986L140.147 162.128C134.837 160.612 130.183 156.918 127.607 151.569L115.731 126.904ZM236 136V135.143V128C236 126.052 236.464 124.212 237.288 122.585C239.267 118.678 243.321 116 248 116H272C272 124.255 266.375 131.313 258.582 133.313C257.776 133.52 256.947 133.673 256.098 133.767L237.499 135.833L236 136Z" fill="white"/>
</svg>
