<svg width="1em" height="1em" viewBox="0 0 400 400" fill="none" xmlns="http://www.w3.org/2000/svg">
<g clip-path="url(#clip0_259_223968)">
<rect width="400" height="400" rx="200" fill="white"/>
<path fill-rule="evenodd" clip-rule="evenodd" d="M26.6805 22.5631C13.5183 -0.461769 -11.4081 -16 -40 -16C-68.5919 -16 -93.5183 -0.461767 -106.68 22.5631L-96.0407 29.0651C-85.1343 9.34964 -64.1262 -4 -40.0001 -4C-15.874 -4 5.13416 9.34968 16.0405 29.0652L26.6805 22.5631ZM-97.8711 32.6344L-95.1236 34.3134L-42 66.7778V180.024C-72.6211 180.764 -99.0083 198.454 -112 224L-97.8711 232.634L-95.1236 234.313L-42 266.778V460H-38V266.778L15.1234 234.313L17.8708 232.634L32 224C19.0082 198.454 -7.37892 180.764 -38 180.024V66.7778L15.1234 34.3134L17.8708 32.6344L32 24C18.7262 -2.10063 -8.53082 -20 -40 -20C-71.4692 -20 -98.7262 -2.10063 -112 24L-97.8711 32.6344ZM-42 184.025C-69.7514 184.731 -93.8262 200.077 -106.68 222.563L-96.0407 229.065C-85.4368 209.896 -65.2836 196.745 -42 196.031V184.025ZM-38 196.031V184.025C-10.2486 184.731 13.8261 200.077 26.6805 222.563L16.0405 229.065C5.43665 209.897 -14.7164 196.745 -38 196.031ZM-42 199.232C-64.1273 199.947 -83.2668 212.486 -93.307 230.736L-44.5052 260.559L-59.9993 233.723L-56.5352 231.723L-42 256.898V228V199.232ZM-38 228V256.898L-23.4648 231.723L-20.0007 233.723L-35.4948 260.559L13.3068 230.736C3.26668 212.486 -15.8728 199.947 -38 199.232V228ZM-23.4648 31.7225L-38 56.8981V28H-42V56.8981L-56.5352 31.7225L-59.9993 33.7225L-44.5052 60.5591L-93.307 30.7357C-82.9655 11.9381 -62.9704 -0.799999 -40.0001 -0.799999C-17.0298 -0.799999 2.96536 11.9381 13.3068 30.7358L-35.4948 60.5591L-20.0007 33.7225L-23.4648 31.7225ZM186.68 22.5631C173.518 -0.461769 148.592 -16 120 -16C91.4081 -16 66.4817 -0.461767 53.3195 22.5631L63.9593 29.0651C74.8657 9.34964 95.8738 -4 120 -4C144.126 -4 165.134 9.34968 176.04 29.0652L186.68 22.5631ZM62.1289 32.6344L64.8763 34.3134L118 66.7778V180H120C88.5308 180 61.2738 197.899 48 224L62.1289 232.634L64.8763 234.313L118 266.778V460H122V266.778L175.123 234.313L177.871 232.634L192 224C178.726 197.899 151.469 180 120 180H122V66.7778L175.123 34.3134L177.871 32.6344L192 24C178.726 -2.10063 151.469 -20 120 -20C88.5308 -20 61.2738 -2.10063 48 24L62.1289 32.6344ZM136.535 31.7225L122 56.8981V28H118V56.8981L103.465 31.7225L100.001 33.7225L115.495 60.5591L66.693 30.7357C77.0345 11.9381 97.0296 -0.799999 120 -0.799999C142.97 -0.799999 162.965 11.9381 173.307 30.7358L124.505 60.5591L139.999 33.7225L136.535 31.7225ZM280 -16C308.592 -16 333.518 -0.461769 346.68 22.5631L336.041 29.0652C325.134 9.34968 304.126 -4 280 -4C255.874 -4 234.866 9.34964 223.959 29.0651L213.32 22.5631C226.482 -0.461767 251.408 -16 280 -16ZM224.876 34.3134L222.129 32.6344L208 24C221.274 -2.10063 248.531 -20 280 -20C311.469 -20 338.726 -2.10063 352 24L337.871 32.6344L335.123 34.3134L282 66.7778V180H280H278V66.7778L224.876 34.3134ZM280 180C248.531 180 221.274 197.899 208 224L222.129 232.634L224.876 234.313L278 266.778V460H282V266.778L335.123 234.313L337.871 232.634L352 224C338.726 197.899 311.469 180 280 180ZM282 56.8981L296.535 31.7225L299.999 33.7225L284.505 60.5591L333.307 30.7358C322.965 11.9381 302.97 -0.799999 280 -0.799999C257.03 -0.799999 237.034 11.9381 226.693 30.7357L275.495 60.5591L260.001 33.7225L263.465 31.7225L278 56.8981V28H282V56.8981ZM506.68 22.5631C493.518 -0.461769 468.592 -16 440 -16C411.408 -16 386.482 -0.461767 373.32 22.5631L383.959 29.0651C394.866 9.34964 415.874 -4 440 -4C464.126 -4 485.134 9.34968 496.041 29.0652L506.68 22.5631ZM382.129 32.6344L384.876 34.3134L438 66.7778V180.024C407.379 180.764 380.992 198.454 368 224L382.129 232.634L384.876 234.313L438 266.778V460H442V266.778L495.123 234.313L497.871 232.634L512 224C499.008 198.454 472.621 180.764 442 180.024V66.7778L495.123 34.3134L497.871 32.6344L512 24C498.726 -2.10063 471.469 -20 440 -20C408.531 -20 381.274 -2.10063 368 24L382.129 32.6344ZM438 184.025C410.249 184.731 386.174 200.077 373.32 222.563L383.959 229.065C394.563 209.896 414.716 196.745 438 196.031V184.025ZM442 196.031V184.025C469.751 184.731 493.826 200.077 506.68 222.563L496.041 229.065C485.437 209.897 465.284 196.745 442 196.031ZM438 199.232C415.873 199.947 396.733 212.486 386.693 230.736L435.495 260.559L420.001 233.723L423.465 231.723L438 256.898V228V199.232ZM442 228V256.898L456.535 231.723L459.999 233.723L444.505 260.559L493.307 230.736C483.267 212.486 464.127 199.947 442 199.232V228ZM456.535 31.7225L442 56.8981V28H438V56.8981L423.465 31.7225L420.001 33.7225L435.495 60.5591L386.693 30.7357C397.034 11.9381 417.03 -0.799999 440 -0.799999C462.97 -0.799999 482.965 11.9381 493.307 30.7358L444.505 60.5591L459.999 33.7225L456.535 31.7225ZM-120 84C-91.4081 84 -66.4817 99.5382 -53.3195 122.563L-63.9595 129.065C-74.8659 109.35 -95.874 96 -120 96C-144.126 96 -165.134 109.35 -176.041 129.065L-186.68 122.563C-173.518 99.5382 -148.592 84 -120 84ZM-175.124 134.313L-177.871 132.634L-192 124C-178.726 97.8994 -151.469 80 -120 80C-88.5308 80 -61.2738 97.8994 -48 124L-62.1292 132.634L-64.8766 134.313L-118 166.778L-118 280H-120H-122L-122 166.778L-175.124 134.313ZM-120 280C-151.469 280 -178.726 297.899 -192 324L-177.871 332.634L-175.124 334.313L-122 366.778L-122 560H-118L-118 366.778L-64.8766 334.313L-62.1292 332.634L-48 324C-61.2738 297.899 -88.5308 280 -120 280ZM362 280V166.778L415.123 134.313L417.871 132.634L432 124C418.726 97.8994 391.469 80 360 80C328.531 80 301.274 97.8994 288 124L302.129 132.634L304.876 134.313L358 166.778V280H360C328.531 280 301.274 297.899 288 324L302.129 332.634L304.876 334.313L358 366.778V560H362V366.778L415.123 334.313L417.871 332.634L432 324C418.726 297.899 391.469 280 360 280H362ZM202 280V166.778L255.123 134.313L257.871 132.634L272 124C258.726 97.8994 231.469 80 200 80C168.531 80 141.274 97.8994 128 124L142.129 132.634L144.876 134.313L198 166.778V280H200C168.531 280 141.274 297.899 128 324L142.129 332.634L144.876 334.313L198 366.778V560H202V366.778L255.123 334.313L257.871 332.634L272 324C258.726 297.899 231.469 280 200 280H202ZM42 280V166.778L95.1234 134.313L97.8708 132.634L112 124C98.7262 97.8994 71.4692 80 40 80C8.53082 80 -18.7262 97.8994 -32 124L-17.8711 132.634L-15.1237 134.313L38 166.778V280H40C8.53082 280 -18.7262 297.899 -32 324L-17.8711 332.634L-15.1237 334.313L38 366.778V560H42V366.778L95.1234 334.313L97.8708 332.634L112 324C98.7262 297.899 71.4692 280 40 280H42ZM-118 156.898L-103.465 131.723L-100.001 133.723L-115.495 160.559L-66.6932 130.736C-77.0346 111.938 -97.0298 99.2 -120 99.2C-142.97 99.2 -162.966 111.938 -173.307 130.736L-124.505 160.559L-139.999 133.723L-136.535 131.723L-122 156.898V128H-118V156.898ZM106.68 122.563C93.5183 99.5382 68.5919 84 40 84C11.4081 84 -13.5183 99.5382 -26.6805 122.563L-16.0407 129.065C-5.13431 109.35 15.8738 96 39.9999 96C64.126 96 85.1342 109.35 96.0405 129.065L106.68 122.563ZM56.5352 131.723L42 156.898V128H38V156.898L23.4648 131.723L20.0007 133.723L35.4948 160.559L-13.307 130.736C-2.96552 111.938 17.0296 99.2 39.9999 99.2C62.9702 99.2 82.9654 111.938 93.3068 130.736L44.5052 160.559L59.9993 133.723L56.5352 131.723ZM200 84C228.592 84 253.518 99.5382 266.68 122.563L256.04 129.065C245.134 109.35 224.126 96 200 96C175.874 96 154.866 109.35 143.959 129.065L133.32 122.563C146.482 99.5382 171.408 84 200 84ZM202 156.898L216.535 131.723L219.999 133.723L204.505 160.559L253.307 130.736C242.965 111.938 222.97 99.2 200 99.2C177.03 99.2 157.034 111.938 146.693 130.736L195.495 160.559L180.001 133.723L183.465 131.723L198 156.898V128H202V156.898ZM426.68 122.563C413.518 99.5382 388.592 84 360 84C331.408 84 306.482 99.5382 293.32 122.563L303.959 129.065C314.866 109.35 335.874 96 360 96C384.126 96 405.134 109.35 416.041 129.065L426.68 122.563ZM376.535 131.723L362 156.898V128H358V156.898L343.465 131.723L340.001 133.723L355.495 160.559L306.693 130.736C317.034 111.938 337.03 99.2 360 99.2C382.97 99.2 402.965 111.938 413.307 130.736L364.505 160.559L379.999 133.723L376.535 131.723ZM186.68 222.563C173.518 199.538 148.592 184 120 184C91.4081 184 66.4817 199.538 53.3195 222.563L63.9593 229.065C74.8657 209.35 95.8738 196 120 196C144.126 196 165.134 209.35 176.04 229.065L186.68 222.563ZM136.535 231.723L122 256.898V228H118V256.898L103.465 231.723L100.001 233.723L115.495 260.559L66.693 230.736C77.0345 211.938 97.0296 199.2 120 199.2C142.97 199.2 162.965 211.938 173.307 230.736L124.505 260.559L139.999 233.723L136.535 231.723ZM280 184C308.592 184 333.518 199.538 346.68 222.563L336.041 229.065C325.134 209.35 304.126 196 280 196C255.874 196 234.866 209.35 223.959 229.065L213.32 222.563C226.482 199.538 251.408 184 280 184ZM282 256.898L296.535 231.723L299.999 233.723L284.505 260.559L333.307 230.736C322.965 211.938 302.97 199.2 280 199.2C257.03 199.2 237.034 211.938 226.693 230.736L275.495 260.559L260.001 233.723L263.465 231.723L278 256.898V228H282V256.898ZM-120 284C-91.4081 284 -66.4817 299.538 -53.3195 322.563L-63.9595 329.065C-74.8659 309.35 -95.874 296 -120 296C-144.126 296 -165.134 309.35 -176.041 329.065L-186.68 322.563C-173.518 299.538 -148.592 284 -120 284ZM-118 356.898L-103.465 331.723L-100.001 333.723L-115.495 360.559L-66.6932 330.736C-77.0346 311.938 -97.0298 299.2 -120 299.2C-142.97 299.2 -162.966 311.938 -173.307 330.736L-124.505 360.559L-139.999 333.723L-136.535 331.723L-122 356.898V328H-118V356.898ZM106.68 322.563C93.5183 299.538 68.5919 284 40 284C11.4081 284 -13.5183 299.538 -26.6805 322.563L-16.0407 329.065C-5.13431 309.35 15.8738 296 39.9999 296C64.126 296 85.1342 309.35 96.0405 329.065L106.68 322.563ZM56.5352 331.723L42 356.898V328H38V356.898L23.4648 331.723L20.0007 333.723L35.4948 360.559L-13.307 330.736C-2.96552 311.938 17.0296 299.2 39.9999 299.2C62.9702 299.2 82.9654 311.938 93.3068 330.736L44.5052 360.559L59.9993 333.723L56.5352 331.723ZM200 284C228.592 284 253.518 299.538 266.68 322.563L256.04 329.065C245.134 309.35 224.126 296 200 296C175.874 296 154.866 309.35 143.959 329.065L133.32 322.563C146.482 299.538 171.408 284 200 284ZM202 356.898L216.535 331.723L219.999 333.723L204.505 360.559L253.307 330.736C242.965 311.938 222.97 299.2 200 299.2C177.03 299.2 157.034 311.938 146.693 330.736L195.495 360.559L180.001 333.723L183.465 331.723L198 356.898V328H202V356.898ZM426.68 322.563C413.518 299.538 388.592 284 360 284C331.408 284 306.482 299.538 293.32 322.563L303.959 329.065C314.866 309.35 335.874 296 360 296C384.126 296 405.134 309.35 416.041 329.065L426.68 322.563ZM376.535 331.723L362 356.898V328H358V356.898L343.465 331.723L340.001 333.723L355.495 360.559L306.693 330.736C317.034 311.938 337.03 299.2 360 299.2C382.97 299.2 402.965 311.938 413.307 330.736L364.505 360.559L379.999 333.723L376.535 331.723Z" fill="#595959"/>
</g>
<defs>
<clipPath id="clip0_259_223968">
<rect width="400" height="400" rx="200" fill="white"/>
</clipPath>
</defs>
</svg>
