<svg width="1em" height="1em" viewBox="0 0 400 400" fill="none" xmlns="http://www.w3.org/2000/svg">
<g clip-path="url(#clip0_259_223440)">
<path fill-rule="evenodd" clip-rule="evenodd" d="M102.084 146.313C102.527 142.81 103.15 139.369 103.943 136H296.057C296.85 139.369 297.473 142.81 297.916 146.312L330 400H280.007C292.561 383.287 300 362.512 300 340C300 284.772 255.228 240 200 240C144.772 240 100 284.772 100 340C100 362.512 107.439 383.287 119.993 400H70L102.084 146.313ZM190 128H106.186C119.209 88.1093 156.655 60 200 60C243.346 60 280.791 88.1093 293.814 128H210L216 98L210 88H200H190L184 98L190 128ZM280 340C280 363.894 269.525 385.341 252.917 400H200C233.137 400 260 373.137 260 340C260 318.59 248.786 299.799 231.911 289.18L234 287.555V285C234 276.716 227.284 270 219 270H181C172.716 270 166 276.716 166 285V287.556L168.089 289.18C151.214 299.799 140 318.59 140 340C140 373.137 166.863 400 200 400H147.084C130.475 385.341 120 363.894 120 340C120 295.817 155.817 260 200 260C244.183 260 280 295.817 280 340ZM176.602 295.801C160.778 304.196 150 320.839 150 340C150 367.614 172.386 390 200 390C227.614 390 250 367.614 250 340C250 320.839 239.222 304.196 223.398 295.801L212.278 304.45C205.056 310.067 194.943 310.067 187.721 304.45L176.602 295.801ZM232 192C220.954 192 212 200.954 212 212H236C247.046 212 256 203.046 256 192H232Z" fill="white" fill-opacity="0.4"/>
<path fill-rule="evenodd" clip-rule="evenodd" d="M80 -22V42.792C80 73.9973 103.92 99.9933 135.017 102.585L185.763 106.814L184 98L184.588 97.0195C125.593 89.4558 80 39.0523 80 -22ZM215.412 97.0195L216 98L214.237 106.814L264.983 102.585C296.08 99.9933 320 73.9973 320 42.792V-22C320 39.0523 274.407 89.4558 215.412 97.0195ZM194 102L190 88H200H210L206 102H194ZM271.999 164H127.999V172H122.363H121.155C116.77 172 112.761 174.478 110.8 178.4C107.815 184.369 108.127 191.457 111.625 197.141L116.142 204.482C119.782 210.397 126.23 214 133.175 214H134.772L142.353 239.66C144.724 247.684 149.552 254.763 156.156 259.9L187.72 284.45C194.943 290.067 205.056 290.067 212.278 284.45L243.842 259.9C250.447 254.763 255.274 247.684 257.645 239.66L265.227 214H266.824C273.769 214 280.217 210.397 283.857 204.482L288.374 197.141C291.872 191.457 292.184 184.369 289.199 178.4C287.238 174.478 283.23 172 278.845 172H277.636H271.999V164ZM232 192C220.954 192 212 200.954 212 212H236C247.046 212 256 203.046 256 192H232ZM166 287.556V326C166 344.778 181.222 360 200 360C218.778 360 234 344.778 234 326V287.555L212.278 304.45C205.056 310.067 194.943 310.067 187.721 304.45L166 287.556Z" fill="white"/>
</g>
<defs>
<clipPath id="clip0_259_223440">
<rect width="400" height="400" rx="200" fill="white"/>
</clipPath>
</defs>
</svg>
