<svg width="1em" height="1em" viewBox="0 0 400 400" fill="none" xmlns="http://www.w3.org/2000/svg">
<g clip-path="url(#clip0_259_224058)">
<rect width="400" height="400" rx="200" fill="white"/>
<mask id="path-2-inside-1_259_224058" fill="white">
<path fill-rule="evenodd" clip-rule="evenodd" d="M120 136.684C120 105.273 138.103 78.0907 164.444 65V68.3253C139.794 81.173 122.963 106.963 122.963 136.684C122.963 162.785 135.944 185.855 155.801 199.789C159.543 197.304 163.506 195.126 167.653 193.29C148.034 182.055 134.815 160.913 134.815 136.684C134.815 113.801 146.606 93.6717 164.444 82.0409V85.6148C148.325 96.8588 137.778 115.54 137.778 136.684C137.778 160.544 151.207 181.266 170.919 191.707C171.41 191.429 171.905 191.159 172.405 190.896C164.481 183.67 159.508 173.263 159.508 161.694C159.508 139.876 177.195 122.188 199.014 122.188C220.833 122.188 238.52 139.876 238.52 161.694C238.52 172.919 233.839 183.05 226.322 190.243C227.256 190.707 228.177 191.195 229.083 191.706C248.794 181.265 262.222 160.543 262.222 136.684C262.222 115.54 251.675 96.8588 235.556 85.6149V82.0409C253.394 93.6717 265.185 113.801 265.185 136.684C265.185 160.913 251.966 182.055 232.347 193.29C236.494 195.126 240.457 197.304 244.199 199.789C264.056 185.855 277.037 162.785 277.037 136.684C277.037 106.963 260.206 81.173 235.556 68.3253V65C261.897 78.0907 280 105.273 280 136.684C280 163.398 266.907 187.053 246.788 201.583C266.907 216.113 280 239.768 280 266.481C280 297.892 261.897 325.075 235.556 338.166V334.84C260.206 321.993 277.037 296.202 277.037 266.481C277.037 240.38 264.056 217.311 244.199 203.377C244.105 203.439 244.011 203.501 243.917 203.562C252.529 213.061 258.101 225.366 259.099 238.942C263.004 247.308 265.185 256.64 265.185 266.481C265.185 289.365 253.394 309.494 235.556 321.125V317.551C251.675 306.307 262.222 287.626 262.222 266.481C262.222 259.714 261.142 253.199 259.144 247.099C257.21 278.081 231.47 302.61 200.001 302.61C168.53 302.61 142.789 278.077 140.858 247.092C138.859 253.193 137.778 259.711 137.778 266.481C137.778 287.626 148.325 306.307 164.444 317.551V321.125C146.606 309.494 134.815 289.365 134.815 266.481C134.815 256.637 136.997 247.302 140.904 238.935C141.904 225.362 147.475 213.061 156.084 203.564C155.99 203.502 155.896 203.439 155.801 203.377C135.944 217.311 122.963 240.38 122.963 266.481C122.963 296.203 139.794 321.993 164.444 334.84V338.166C138.103 325.075 120 297.892 120 266.481C120 239.768 133.093 216.113 153.212 201.583C133.093 187.053 120 163.398 120 136.684ZM200 204.259C196.821 204.259 193.698 204.497 190.648 204.957C173.342 209.157 160.492 224.753 160.492 243.35C160.492 265.169 178.18 282.857 199.998 282.857C221.817 282.857 239.505 265.169 239.505 243.35C239.505 224.751 226.652 209.154 209.343 204.956C206.296 204.497 203.176 204.259 200 204.259ZM199.014 198.237C219.196 198.237 235.557 181.876 235.557 161.694C235.557 141.512 219.196 125.151 199.014 125.151C178.832 125.151 162.471 141.512 162.471 161.694C162.471 181.876 178.832 198.237 199.014 198.237ZM214.816 161.695C214.816 170.422 207.741 177.497 199.013 177.497C190.286 177.497 183.211 170.422 183.211 161.695C183.211 152.967 190.286 145.892 199.013 145.892C207.741 145.892 214.816 152.967 214.816 161.695ZM14.4814 121.583C45.8922 121.583 73.0749 139.686 86.1656 166.027H82.8403C69.9926 141.377 44.2025 124.546 14.4814 124.546C-11.6198 124.546 -34.6891 137.526 -48.6233 157.384C-46.1388 161.126 -43.9607 165.088 -42.1248 169.236C-30.8894 149.617 -9.74777 136.398 14.4814 136.398C37.3646 136.398 57.4939 148.189 69.1247 166.027H65.5508C54.3068 149.907 35.6258 139.361 14.4814 139.361C-9.37799 139.361 -30.1008 152.79 -40.5409 172.502C-40.2638 172.993 -39.9934 173.488 -39.73 173.988C-32.5049 166.063 -22.0974 161.091 -10.5285 161.091C11.2901 161.091 28.9776 178.778 28.9776 200.597C28.9776 222.415 11.2901 240.103 -10.5285 240.103C-21.7534 240.103 -31.8849 235.422 -39.0771 227.905C-39.5411 228.839 -40.029 229.76 -40.5401 230.665C-30.0998 250.377 -9.37741 263.805 14.4813 263.805C35.6257 263.805 54.3068 253.258 65.5508 237.138H69.1247C57.4939 254.977 37.3646 266.768 14.4813 266.768C-9.7478 266.768 -30.8894 253.549 -42.1248 233.929C-43.9607 238.077 -46.1388 242.04 -48.6234 245.781C-34.6891 265.639 -11.6198 278.62 14.4813 278.62C44.2025 278.62 69.9926 261.789 82.8403 237.138H86.1656C73.0749 263.48 45.8922 281.583 14.4813 281.583C-12.232 281.583 -35.8873 268.49 -50.4172 248.371C-64.9471 268.49 -88.6024 281.583 -115.316 281.583C-146.727 281.583 -173.909 263.48 -187 237.138H-183.675C-170.827 261.789 -145.037 278.62 -115.316 278.62C-89.2146 278.62 -66.1452 265.639 -52.211 245.781L-52.3072 245.636L-52.3968 245.5C-61.8956 254.111 -74.2003 259.684 -87.7763 260.682C-96.142 264.587 -105.474 266.768 -115.316 266.768C-138.199 266.768 -158.328 254.977 -169.959 237.138H-166.385C-155.141 253.258 -136.46 263.805 -115.316 263.805C-108.548 263.805 -102.033 262.725 -95.9333 260.727C-126.915 258.793 -151.444 233.053 -151.444 201.584C-151.444 170.113 -126.911 144.371 -95.9259 142.441C-102.028 140.442 -108.545 139.361 -115.316 139.361C-136.46 139.361 -155.141 149.907 -166.385 166.027H-169.959C-158.328 148.189 -138.199 136.398 -115.316 136.398C-105.471 136.398 -96.1366 138.58 -87.7689 142.487C-74.1964 143.487 -61.8949 149.058 -52.398 157.667L-52.3073 157.529L-52.211 157.384C-66.1452 137.526 -89.2146 124.546 -115.316 124.546C-145.037 124.546 -170.827 141.377 -183.675 166.027H-187C-173.909 139.686 -146.727 121.583 -115.316 121.583C-88.6024 121.583 -64.9471 134.676 -50.4172 154.795C-35.8872 134.676 -12.232 121.583 14.4814 121.583ZM-53.0935 201.583C-53.0935 198.404 -53.3318 195.281 -53.7916 192.231C-57.9914 174.925 -73.5874 162.075 -92.1848 162.075C-114.003 162.075 -131.691 179.762 -131.691 201.581C-131.691 223.4 -114.003 241.087 -92.1848 241.087C-73.5855 241.087 -57.9882 228.234 -53.7903 210.926C-53.3314 207.878 -53.0935 204.758 -53.0935 201.583ZM-47.0717 200.597C-47.0717 220.779 -30.7108 237.14 -10.5285 237.14C9.65372 237.14 26.0147 220.779 26.0147 200.597C26.0147 180.414 9.65372 164.054 -10.5285 164.054C-30.7108 164.054 -47.0717 180.414 -47.0717 200.597ZM384.686 281.583C353.275 281.583 326.092 263.48 313.002 237.138H316.327C329.175 261.789 354.965 278.62 384.686 278.62C410.787 278.62 433.856 265.639 447.791 245.781C445.306 242.04 443.128 238.077 441.292 233.929C430.057 253.549 408.915 266.768 384.686 266.768C361.803 266.768 341.673 254.977 330.042 237.138H333.616C344.86 253.258 363.541 263.805 384.686 263.805C408.545 263.805 429.268 250.376 439.708 230.664C439.431 230.173 439.161 229.677 438.897 229.178C431.672 237.102 421.265 242.075 409.696 242.075C387.877 242.075 370.19 224.387 370.19 202.569C370.19 180.75 387.877 163.063 409.696 163.063C420.921 163.063 431.052 167.744 438.244 175.261C438.708 174.326 439.196 173.406 439.707 172.5C429.267 152.789 408.545 139.361 384.686 139.361C363.541 139.361 344.86 149.907 333.616 166.027H330.042C341.673 148.189 361.803 136.398 384.686 136.398C408.915 136.398 430.057 149.617 441.292 169.236C443.128 165.088 445.306 161.126 447.791 157.384C433.856 137.526 410.787 124.546 384.686 124.546C354.965 124.546 329.175 141.377 316.327 166.027H313.002C326.092 139.686 353.275 121.583 384.686 121.583C411.399 121.583 435.054 134.676 449.584 154.795C464.114 134.676 487.77 121.583 514.483 121.583C545.894 121.583 573.076 139.686 586.167 166.027H582.842C569.994 141.377 544.204 124.546 514.483 124.546C488.382 124.546 465.312 137.526 451.378 157.384C451.44 157.478 451.502 157.571 451.564 157.665C461.063 149.054 473.368 143.482 486.943 142.484C495.309 138.579 504.641 136.398 514.483 136.398C537.366 136.398 557.495 148.189 569.126 166.027H565.552C554.308 149.907 535.627 139.361 514.483 139.361C507.715 139.361 501.2 140.441 495.101 142.439C526.082 144.373 550.611 170.112 550.611 201.581C550.611 233.053 526.078 258.794 495.093 260.724C501.195 262.724 507.713 263.805 514.483 263.805C535.627 263.805 554.308 253.258 565.552 237.138H569.126C557.495 254.977 537.366 266.768 514.483 266.768C504.638 266.768 495.304 264.586 486.936 260.679C473.364 259.679 461.062 254.107 451.565 245.498C451.503 245.593 451.441 245.687 451.378 245.781C465.312 265.639 488.382 278.62 514.483 278.62C544.204 278.62 569.994 261.789 582.842 237.138H586.167C573.076 263.48 545.894 281.583 514.483 281.583C487.77 281.583 464.114 268.49 449.584 248.371C435.054 268.49 411.399 281.583 384.686 281.583ZM452.261 201.583C452.261 204.761 452.499 207.884 452.959 210.935C457.159 228.24 472.755 241.091 491.352 241.091C513.171 241.091 530.858 223.403 530.858 201.584C530.858 179.766 513.171 162.078 491.352 162.078C472.753 162.078 457.155 174.931 452.958 192.24C452.499 195.287 452.261 198.407 452.261 201.583ZM446.239 202.569C446.239 182.387 429.878 166.026 409.696 166.026C389.513 166.026 373.153 182.387 373.153 202.569C373.153 222.751 389.513 239.112 409.696 239.112C429.878 239.112 446.239 222.751 446.239 202.569ZM409.696 186.767C418.424 186.767 425.499 193.842 425.499 202.569C425.499 211.297 418.424 218.372 409.696 218.372C400.969 218.372 393.894 211.297 393.894 202.569C393.894 193.842 400.969 186.767 409.696 186.767ZM-26.3314 200.596C-26.3314 209.324 -19.2564 216.399 -10.5289 216.399C-1.80148 216.399 5.27353 209.324 5.27353 200.596C5.27353 191.869 -1.80148 184.794 -10.5289 184.794C-19.2564 184.794 -26.3314 191.869 -26.3314 200.596Z"/>
</mask>
<path fill-rule="evenodd" clip-rule="evenodd" d="M120 136.684C120 105.273 138.103 78.0907 164.444 65V68.3253C139.794 81.173 122.963 106.963 122.963 136.684C122.963 162.785 135.944 185.855 155.801 199.789C159.543 197.304 163.506 195.126 167.653 193.29C148.034 182.055 134.815 160.913 134.815 136.684C134.815 113.801 146.606 93.6717 164.444 82.0409V85.6148C148.325 96.8588 137.778 115.54 137.778 136.684C137.778 160.544 151.207 181.266 170.919 191.707C171.41 191.429 171.905 191.159 172.405 190.896C164.481 183.67 159.508 173.263 159.508 161.694C159.508 139.876 177.195 122.188 199.014 122.188C220.833 122.188 238.52 139.876 238.52 161.694C238.52 172.919 233.839 183.05 226.322 190.243C227.256 190.707 228.177 191.195 229.083 191.706C248.794 181.265 262.222 160.543 262.222 136.684C262.222 115.54 251.675 96.8588 235.556 85.6149V82.0409C253.394 93.6717 265.185 113.801 265.185 136.684C265.185 160.913 251.966 182.055 232.347 193.29C236.494 195.126 240.457 197.304 244.199 199.789C264.056 185.855 277.037 162.785 277.037 136.684C277.037 106.963 260.206 81.173 235.556 68.3253V65C261.897 78.0907 280 105.273 280 136.684C280 163.398 266.907 187.053 246.788 201.583C266.907 216.113 280 239.768 280 266.481C280 297.892 261.897 325.075 235.556 338.166V334.84C260.206 321.993 277.037 296.202 277.037 266.481C277.037 240.38 264.056 217.311 244.199 203.377C244.105 203.439 244.011 203.501 243.917 203.562C252.529 213.061 258.101 225.366 259.099 238.942C263.004 247.308 265.185 256.64 265.185 266.481C265.185 289.365 253.394 309.494 235.556 321.125V317.551C251.675 306.307 262.222 287.626 262.222 266.481C262.222 259.714 261.142 253.199 259.144 247.099C257.21 278.081 231.47 302.61 200.001 302.61C168.53 302.61 142.789 278.077 140.858 247.092C138.859 253.193 137.778 259.711 137.778 266.481C137.778 287.626 148.325 306.307 164.444 317.551V321.125C146.606 309.494 134.815 289.365 134.815 266.481C134.815 256.637 136.997 247.302 140.904 238.935C141.904 225.362 147.475 213.061 156.084 203.564C155.99 203.502 155.896 203.439 155.801 203.377C135.944 217.311 122.963 240.38 122.963 266.481C122.963 296.203 139.794 321.993 164.444 334.84V338.166C138.103 325.075 120 297.892 120 266.481C120 239.768 133.093 216.113 153.212 201.583C133.093 187.053 120 163.398 120 136.684ZM200 204.259C196.821 204.259 193.698 204.497 190.648 204.957C173.342 209.157 160.492 224.753 160.492 243.35C160.492 265.169 178.18 282.857 199.998 282.857C221.817 282.857 239.505 265.169 239.505 243.35C239.505 224.751 226.652 209.154 209.343 204.956C206.296 204.497 203.176 204.259 200 204.259ZM199.014 198.237C219.196 198.237 235.557 181.876 235.557 161.694C235.557 141.512 219.196 125.151 199.014 125.151C178.832 125.151 162.471 141.512 162.471 161.694C162.471 181.876 178.832 198.237 199.014 198.237ZM214.816 161.695C214.816 170.422 207.741 177.497 199.013 177.497C190.286 177.497 183.211 170.422 183.211 161.695C183.211 152.967 190.286 145.892 199.013 145.892C207.741 145.892 214.816 152.967 214.816 161.695ZM14.4814 121.583C45.8922 121.583 73.0749 139.686 86.1656 166.027H82.8403C69.9926 141.377 44.2025 124.546 14.4814 124.546C-11.6198 124.546 -34.6891 137.526 -48.6233 157.384C-46.1388 161.126 -43.9607 165.088 -42.1248 169.236C-30.8894 149.617 -9.74777 136.398 14.4814 136.398C37.3646 136.398 57.4939 148.189 69.1247 166.027H65.5508C54.3068 149.907 35.6258 139.361 14.4814 139.361C-9.37799 139.361 -30.1008 152.79 -40.5409 172.502C-40.2638 172.993 -39.9934 173.488 -39.73 173.988C-32.5049 166.063 -22.0974 161.091 -10.5285 161.091C11.2901 161.091 28.9776 178.778 28.9776 200.597C28.9776 222.415 11.2901 240.103 -10.5285 240.103C-21.7534 240.103 -31.8849 235.422 -39.0771 227.905C-39.5411 228.839 -40.029 229.76 -40.5401 230.665C-30.0998 250.377 -9.37741 263.805 14.4813 263.805C35.6257 263.805 54.3068 253.258 65.5508 237.138H69.1247C57.4939 254.977 37.3646 266.768 14.4813 266.768C-9.7478 266.768 -30.8894 253.549 -42.1248 233.929C-43.9607 238.077 -46.1388 242.04 -48.6234 245.781C-34.6891 265.639 -11.6198 278.62 14.4813 278.62C44.2025 278.62 69.9926 261.789 82.8403 237.138H86.1656C73.0749 263.48 45.8922 281.583 14.4813 281.583C-12.232 281.583 -35.8873 268.49 -50.4172 248.371C-64.9471 268.49 -88.6024 281.583 -115.316 281.583C-146.727 281.583 -173.909 263.48 -187 237.138H-183.675C-170.827 261.789 -145.037 278.62 -115.316 278.62C-89.2146 278.62 -66.1452 265.639 -52.211 245.781L-52.3072 245.636L-52.3968 245.5C-61.8956 254.111 -74.2003 259.684 -87.7763 260.682C-96.142 264.587 -105.474 266.768 -115.316 266.768C-138.199 266.768 -158.328 254.977 -169.959 237.138H-166.385C-155.141 253.258 -136.46 263.805 -115.316 263.805C-108.548 263.805 -102.033 262.725 -95.9333 260.727C-126.915 258.793 -151.444 233.053 -151.444 201.584C-151.444 170.113 -126.911 144.371 -95.9259 142.441C-102.028 140.442 -108.545 139.361 -115.316 139.361C-136.46 139.361 -155.141 149.907 -166.385 166.027H-169.959C-158.328 148.189 -138.199 136.398 -115.316 136.398C-105.471 136.398 -96.1366 138.58 -87.7689 142.487C-74.1964 143.487 -61.8949 149.058 -52.398 157.667L-52.3073 157.529L-52.211 157.384C-66.1452 137.526 -89.2146 124.546 -115.316 124.546C-145.037 124.546 -170.827 141.377 -183.675 166.027H-187C-173.909 139.686 -146.727 121.583 -115.316 121.583C-88.6024 121.583 -64.9471 134.676 -50.4172 154.795C-35.8872 134.676 -12.232 121.583 14.4814 121.583ZM-53.0935 201.583C-53.0935 198.404 -53.3318 195.281 -53.7916 192.231C-57.9914 174.925 -73.5874 162.075 -92.1848 162.075C-114.003 162.075 -131.691 179.762 -131.691 201.581C-131.691 223.4 -114.003 241.087 -92.1848 241.087C-73.5855 241.087 -57.9882 228.234 -53.7903 210.926C-53.3314 207.878 -53.0935 204.758 -53.0935 201.583ZM-47.0717 200.597C-47.0717 220.779 -30.7108 237.14 -10.5285 237.14C9.65372 237.14 26.0147 220.779 26.0147 200.597C26.0147 180.414 9.65372 164.054 -10.5285 164.054C-30.7108 164.054 -47.0717 180.414 -47.0717 200.597ZM384.686 281.583C353.275 281.583 326.092 263.48 313.002 237.138H316.327C329.175 261.789 354.965 278.62 384.686 278.62C410.787 278.62 433.856 265.639 447.791 245.781C445.306 242.04 443.128 238.077 441.292 233.929C430.057 253.549 408.915 266.768 384.686 266.768C361.803 266.768 341.673 254.977 330.042 237.138H333.616C344.86 253.258 363.541 263.805 384.686 263.805C408.545 263.805 429.268 250.376 439.708 230.664C439.431 230.173 439.161 229.677 438.897 229.178C431.672 237.102 421.265 242.075 409.696 242.075C387.877 242.075 370.19 224.387 370.19 202.569C370.19 180.75 387.877 163.063 409.696 163.063C420.921 163.063 431.052 167.744 438.244 175.261C438.708 174.326 439.196 173.406 439.707 172.5C429.267 152.789 408.545 139.361 384.686 139.361C363.541 139.361 344.86 149.907 333.616 166.027H330.042C341.673 148.189 361.803 136.398 384.686 136.398C408.915 136.398 430.057 149.617 441.292 169.236C443.128 165.088 445.306 161.126 447.791 157.384C433.856 137.526 410.787 124.546 384.686 124.546C354.965 124.546 329.175 141.377 316.327 166.027H313.002C326.092 139.686 353.275 121.583 384.686 121.583C411.399 121.583 435.054 134.676 449.584 154.795C464.114 134.676 487.77 121.583 514.483 121.583C545.894 121.583 573.076 139.686 586.167 166.027H582.842C569.994 141.377 544.204 124.546 514.483 124.546C488.382 124.546 465.312 137.526 451.378 157.384C451.44 157.478 451.502 157.571 451.564 157.665C461.063 149.054 473.368 143.482 486.943 142.484C495.309 138.579 504.641 136.398 514.483 136.398C537.366 136.398 557.495 148.189 569.126 166.027H565.552C554.308 149.907 535.627 139.361 514.483 139.361C507.715 139.361 501.2 140.441 495.101 142.439C526.082 144.373 550.611 170.112 550.611 201.581C550.611 233.053 526.078 258.794 495.093 260.724C501.195 262.724 507.713 263.805 514.483 263.805C535.627 263.805 554.308 253.258 565.552 237.138H569.126C557.495 254.977 537.366 266.768 514.483 266.768C504.638 266.768 495.304 264.586 486.936 260.679C473.364 259.679 461.062 254.107 451.565 245.498C451.503 245.593 451.441 245.687 451.378 245.781C465.312 265.639 488.382 278.62 514.483 278.62C544.204 278.62 569.994 261.789 582.842 237.138H586.167C573.076 263.48 545.894 281.583 514.483 281.583C487.77 281.583 464.114 268.49 449.584 248.371C435.054 268.49 411.399 281.583 384.686 281.583ZM452.261 201.583C452.261 204.761 452.499 207.884 452.959 210.935C457.159 228.24 472.755 241.091 491.352 241.091C513.171 241.091 530.858 223.403 530.858 201.584C530.858 179.766 513.171 162.078 491.352 162.078C472.753 162.078 457.155 174.931 452.958 192.24C452.499 195.287 452.261 198.407 452.261 201.583ZM446.239 202.569C446.239 182.387 429.878 166.026 409.696 166.026C389.513 166.026 373.153 182.387 373.153 202.569C373.153 222.751 389.513 239.112 409.696 239.112C429.878 239.112 446.239 222.751 446.239 202.569ZM409.696 186.767C418.424 186.767 425.499 193.842 425.499 202.569C425.499 211.297 418.424 218.372 409.696 218.372C400.969 218.372 393.894 211.297 393.894 202.569C393.894 193.842 400.969 186.767 409.696 186.767ZM-26.3314 200.596C-26.3314 209.324 -19.2564 216.399 -10.5289 216.399C-1.80148 216.399 5.27353 209.324 5.27353 200.596C5.27353 191.869 -1.80148 184.794 -10.5289 184.794C-19.2564 184.794 -26.3314 191.869 -26.3314 200.596Z" fill="#595959"/>
<path d="M164.444 65H167.407V60.2189L163.126 62.3466L164.444 65ZM164.444 68.3253L165.814 70.9528L167.407 70.1223V68.3253H164.444ZM155.801 199.789L154.1 202.214L155.755 203.376L157.441 202.257L155.801 199.789ZM167.653 193.29L168.853 196L174.208 193.63L169.126 190.719L167.653 193.29ZM164.444 82.0409H167.407V76.5719L162.826 79.5589L164.444 82.0409ZM164.444 85.6148L166.14 88.045L167.407 87.1607V85.6148H164.444ZM170.919 191.707L169.532 194.325L170.964 195.083L172.375 194.287L170.919 191.707ZM172.405 190.896L173.787 193.517L177.519 191.549L174.401 188.706L172.405 190.896ZM226.322 190.243L224.274 188.102L221.224 191.02L225.004 192.896L226.322 190.243ZM229.083 191.706L227.626 194.286L229.038 195.083L230.469 194.324L229.083 191.706ZM235.556 85.6149H232.593V87.1607L233.86 88.045L235.556 85.6149ZM235.556 82.0409L237.174 79.5589L232.593 76.5719V82.0409H235.556ZM232.347 193.29L230.874 190.719L225.792 193.63L231.147 196L232.347 193.29ZM244.199 199.789L242.559 202.257L244.245 203.376L245.9 202.214L244.199 199.789ZM235.556 68.3253H232.593V70.1223L234.186 70.9528L235.556 68.3253ZM235.556 65L236.874 62.3466L232.593 60.2189V65H235.556ZM246.788 201.583L245.053 199.181L241.727 201.583L245.053 203.985L246.788 201.583ZM235.556 338.166H232.593V342.947L236.874 340.819L235.556 338.166ZM235.556 334.84L234.186 332.213L232.593 333.043V334.84H235.556ZM244.199 203.377L245.9 200.951L244.245 199.789L242.559 200.908L244.199 203.377ZM243.917 203.562L242.289 201.087L239.398 202.989L241.722 205.553L243.917 203.562ZM259.099 238.942L256.144 239.159L256.184 239.702L256.414 240.195L259.099 238.942ZM235.556 321.125H232.593V326.594L237.174 323.607L235.556 321.125ZM235.556 317.551L233.86 315.121L232.593 316.005V317.551H235.556ZM259.144 247.099L261.96 246.177L256.187 246.914L259.144 247.099ZM140.858 247.092L143.816 246.907L138.043 246.169L140.858 247.092ZM164.444 317.551H167.407V316.005L166.14 315.121L164.444 317.551ZM164.444 321.125L162.826 323.607L167.407 326.594V321.125H164.444ZM140.904 238.935L143.589 240.188L143.819 239.695L143.859 239.152L140.904 238.935ZM156.084 203.564L158.28 205.554L160.603 202.99L157.713 201.089L156.084 203.564ZM155.801 203.377L157.44 200.908L155.755 199.789L154.1 200.951L155.801 203.377ZM164.444 334.84H167.407V333.043L165.814 332.213L164.444 334.84ZM164.444 338.166L163.126 340.819L167.407 342.947V338.166H164.444ZM153.212 201.583L154.947 203.985L158.273 201.583L154.947 199.181L153.212 201.583ZM190.648 204.957L190.207 202.027L190.077 202.047L189.949 202.078L190.648 204.957ZM209.343 204.956L210.042 202.076L209.914 202.046L209.784 202.026L209.343 204.956ZM86.1656 166.027V168.99H90.9467L88.819 164.709L86.1656 166.027ZM14.4814 121.583V118.62V121.583ZM82.8403 166.027L80.2128 167.397L81.0434 168.99H82.8403V166.027ZM14.4814 124.546V121.583V124.546ZM-48.6233 157.384L-51.0488 155.682L-52.2107 157.338L-51.0916 159.023L-48.6233 157.384ZM-42.1248 169.236L-44.8343 170.435L-42.464 175.791L-39.5536 170.709L-42.1248 169.236ZM69.1247 166.027V168.99H74.5938L71.6067 164.409L69.1247 166.027ZM65.5508 166.027L63.1206 167.722L64.005 168.99H65.5508V166.027ZM14.4814 139.361V142.324V139.361ZM-40.5409 172.502L-43.1593 171.115L-43.9177 172.547L-43.1213 173.958L-40.5409 172.502ZM-39.73 173.988L-42.3511 175.37L-40.3834 179.102L-37.5405 175.984L-39.73 173.988ZM-10.5285 161.091V158.128V161.091ZM-10.5285 240.103V243.066V240.103ZM-39.0771 227.905L-36.9362 225.856L-39.8539 222.807L-41.7309 226.587L-39.0771 227.905ZM-40.5401 230.665L-43.1206 229.209L-43.9169 230.62L-43.1585 232.052L-40.5401 230.665ZM65.5508 237.138V234.175H64.0049L63.1206 235.443L65.5508 237.138ZM69.1247 237.138L71.6067 238.757L74.5938 234.175H69.1247V237.138ZM-42.1248 233.929L-39.5536 232.457L-42.464 227.375L-44.8343 232.73L-42.1248 233.929ZM-48.6234 245.781L-51.0917 244.142L-52.2107 245.827L-51.0488 247.483L-48.6234 245.781ZM82.8403 237.138V234.175H81.0433L80.2128 235.769L82.8403 237.138ZM86.1656 237.138L88.819 238.457L90.9467 234.175H86.1656V237.138ZM-50.4172 248.371L-48.0152 246.636L-50.4172 243.31L-52.8192 246.636L-50.4172 248.371ZM-187 237.138V234.175H-191.781L-189.653 238.457L-187 237.138ZM-183.675 237.138L-181.047 235.769L-181.878 234.175H-183.675V237.138ZM-52.211 245.781L-49.7856 247.483L-48.625 245.829L-49.741 244.145L-52.211 245.781ZM-52.3072 245.636L-54.7808 247.267L-54.7773 247.273L-52.3072 245.636ZM-52.3968 245.5L-49.9232 243.869L-51.826 240.984L-54.3869 243.305L-52.3968 245.5ZM-87.7763 260.682L-87.9936 257.727L-88.5363 257.767L-89.0295 257.997L-87.7763 260.682ZM-169.959 237.138V234.175H-175.428L-172.441 238.757L-169.959 237.138ZM-166.385 237.138L-163.955 235.443L-164.839 234.175H-166.385V237.138ZM-95.9333 260.727L-95.0111 263.543L-95.7487 257.77L-95.9333 260.727ZM-95.9259 142.441L-95.7417 145.398L-95.0033 139.625L-95.9259 142.441ZM-166.385 166.027V168.99H-164.839L-163.955 167.722L-166.385 166.027ZM-169.959 166.027L-172.441 164.409L-175.428 168.99H-169.959V166.027ZM-87.7689 142.487L-89.0225 145.172L-88.5294 145.402L-87.9866 145.442L-87.7689 142.487ZM-52.398 157.667L-54.388 159.862L-51.8272 162.184L-49.9245 159.298L-52.398 157.667ZM-52.3073 157.529L-54.7774 155.893L-54.7808 155.898L-52.3073 157.529ZM-52.211 157.384L-49.7409 159.021L-48.6251 157.336L-49.7856 155.682L-52.211 157.384ZM-183.675 166.027V168.99H-181.878L-181.047 167.397L-183.675 166.027ZM-187 166.027L-189.653 164.709L-191.781 168.99H-187V166.027ZM-50.4172 154.795L-52.8192 156.529L-50.4172 159.855L-48.0152 156.529L-50.4172 154.795ZM-53.7916 192.231L-50.8617 191.789L-50.8813 191.66L-50.9122 191.532L-53.7916 192.231ZM-53.7903 210.926L-50.9108 211.624L-50.8799 211.497L-50.8604 211.367L-53.7903 210.926ZM-10.5285 237.14V234.177V237.14ZM313.002 237.138V234.175H308.22L310.348 238.457L313.002 237.138ZM316.327 237.138L318.954 235.769L318.124 234.175H316.327V237.138ZM447.791 245.781L450.216 247.483L451.378 245.827L450.259 244.142L447.791 245.781ZM441.292 233.929L444.001 232.73L441.631 227.375L438.721 232.457L441.292 233.929ZM330.042 237.138V234.175H324.573L327.56 238.757L330.042 237.138ZM333.616 237.138L336.047 235.443L335.162 234.175H333.616V237.138ZM439.708 230.664L442.326 232.051L443.085 230.619L442.288 229.208L439.708 230.664ZM438.897 229.178L441.518 227.796L439.55 224.063L436.708 227.181L438.897 229.178ZM409.696 242.075V239.112V242.075ZM438.244 175.261L436.103 177.309L439.021 180.359L440.898 176.579L438.244 175.261ZM439.707 172.5L442.288 173.956L443.084 172.545L442.326 171.113L439.707 172.5ZM333.616 166.027V168.99H335.162L336.047 167.722L333.616 166.027ZM330.042 166.027L327.56 164.409L324.573 168.99H330.042V166.027ZM441.292 169.236L438.721 170.709L441.631 175.791L444.001 170.435L441.292 169.236ZM447.791 157.384L450.259 159.023L451.378 157.338L450.216 155.682L447.791 157.384ZM384.686 124.546V121.583V124.546ZM316.327 166.027V168.99H318.124L318.954 167.397L316.327 166.027ZM313.002 166.027L310.348 164.709L308.22 168.99H313.002V166.027ZM384.686 121.583V118.62V121.583ZM449.584 154.795L447.182 156.529L449.584 159.855L451.986 156.529L449.584 154.795ZM586.167 166.027V168.99H590.948L588.82 164.709L586.167 166.027ZM582.842 166.027L580.214 167.397L581.045 168.99H582.842V166.027ZM451.378 157.384L448.953 155.682L447.791 157.338L448.91 159.023L451.378 157.384ZM451.564 157.665L449.089 159.294L450.991 162.184L453.554 159.86L451.564 157.665ZM486.943 142.484L487.161 145.439L487.704 145.399L488.197 145.168L486.943 142.484ZM569.126 166.027V168.99H574.595L571.608 164.409L569.126 166.027ZM565.552 166.027L563.122 167.722L564.006 168.99H565.552V166.027ZM514.483 139.361V136.398V136.398V139.361ZM495.101 142.439L494.178 139.623L494.916 145.396L495.101 142.439ZM495.093 260.724L494.909 257.767L494.171 263.54L495.093 260.724ZM565.552 237.138V234.175H564.007L563.122 235.443L565.552 237.138ZM569.126 237.138L571.608 238.757L574.595 234.175H569.126V237.138ZM486.936 260.679L488.19 257.994L487.697 257.764L487.154 257.724L486.936 260.679ZM451.565 245.498L453.555 243.303L450.992 240.979L449.09 243.87L451.565 245.498ZM451.378 245.781L448.91 244.143L447.791 245.828L448.953 247.483L451.378 245.781ZM582.842 237.138V234.175H581.045L580.214 235.769L582.842 237.138ZM586.167 237.138L588.821 238.457L590.948 234.175H586.167V237.138ZM449.584 248.371L451.986 246.636L449.584 243.31L447.182 246.636L449.584 248.371ZM452.959 210.935L450.029 211.376L450.048 211.506L450.079 211.633L452.959 210.935ZM491.352 241.091V238.128V241.091ZM491.352 162.078V159.115V159.115V162.078ZM452.958 192.24L450.078 191.541L450.047 191.669L450.028 191.798L452.958 192.24ZM409.696 218.372V215.409V218.372ZM-10.5289 216.399V219.362V216.399ZM-10.5289 184.794V181.831V184.794ZM163.126 62.3466C135.816 75.9186 117.037 104.106 117.037 136.684H122.963C122.963 106.441 140.39 80.2628 165.763 67.6534L163.126 62.3466ZM167.407 68.3253V65H161.482V68.3253H167.407ZM125.926 136.684C125.926 108.11 142.104 83.3102 165.814 70.9528L163.075 65.6978C137.484 79.0357 120 105.816 120 136.684H125.926ZM157.503 197.364C138.402 183.96 125.926 161.779 125.926 136.684H120C120 163.792 133.485 187.749 154.1 202.214L157.503 197.364ZM166.454 190.581C162.152 192.485 158.042 194.744 154.162 197.321L157.441 202.257C161.044 199.865 164.859 197.767 168.853 196L166.454 190.581ZM131.852 136.684C131.852 162.019 145.677 184.12 166.181 195.862L169.126 190.719C150.39 179.99 137.778 159.808 137.778 136.684H131.852ZM162.826 79.5589C144.185 91.7135 131.852 112.758 131.852 136.684H137.778C137.778 114.844 149.028 95.63 166.063 84.5229L162.826 79.5589ZM167.407 85.6148V82.0409H161.482V85.6148H167.407ZM140.741 136.684C140.741 116.549 150.78 98.7586 166.14 88.045L162.749 83.1847C145.869 94.959 134.815 114.53 134.815 136.684H140.741ZM172.306 189.088C153.525 179.141 140.741 159.403 140.741 136.684H134.815C134.815 161.684 148.889 183.392 169.532 194.325L172.306 189.088ZM171.023 188.275C170.499 188.551 169.978 188.835 169.463 189.126L172.375 194.287C172.842 194.024 173.312 193.767 173.787 193.517L171.023 188.275ZM156.545 161.694C156.545 174.131 161.894 185.322 170.409 193.085L174.401 188.706C167.067 182.019 162.471 172.395 162.471 161.694H156.545ZM199.014 119.225C175.559 119.225 156.545 138.239 156.545 161.694H162.471C162.471 141.512 178.832 125.151 199.014 125.151V119.225ZM241.483 161.694C241.483 138.239 222.469 119.225 199.014 119.225V125.151C219.196 125.151 235.557 141.512 235.557 161.694H241.483ZM228.37 192.384C236.447 184.656 241.483 173.76 241.483 161.694H235.557C235.557 172.078 231.23 181.445 224.274 188.102L228.37 192.384ZM230.539 189.125C229.588 188.589 228.621 188.076 227.64 187.589L225.004 192.896C225.892 193.337 226.766 193.801 227.626 194.286L230.539 189.125ZM259.259 136.684C259.259 159.403 246.476 179.14 227.696 189.087L230.469 194.324C251.112 183.391 265.185 161.683 265.185 136.684H259.259ZM233.86 88.045C249.22 98.7586 259.259 116.549 259.259 136.684H265.185C265.185 114.53 254.131 94.959 237.251 83.1847L233.86 88.045ZM232.593 82.0409V85.6149H238.519V82.0409H232.593ZM268.148 136.684C268.148 112.758 255.815 91.7135 237.174 79.5589L233.937 84.5229C250.972 95.63 262.222 114.844 262.222 136.684H268.148ZM233.819 195.862C254.323 184.12 268.148 162.019 268.148 136.684H262.222C262.222 159.808 249.61 179.99 230.874 190.719L233.819 195.862ZM245.838 197.321C241.958 194.744 237.848 192.485 233.546 190.581L231.147 196C235.141 197.767 238.956 199.865 242.559 202.257L245.838 197.321ZM274.074 136.684C274.074 161.779 261.598 183.96 242.497 197.364L245.9 202.214C266.515 187.749 280 163.792 280 136.684H274.074ZM234.186 70.9528C257.896 83.3103 274.074 108.11 274.074 136.684H280C280 105.816 262.516 79.0358 236.925 65.6978L234.186 70.9528ZM232.593 65V68.3253H238.519V65H232.593ZM282.963 136.684C282.963 104.106 264.184 75.9186 236.874 62.3466L234.237 67.6534C259.61 80.2628 277.037 106.441 277.037 136.684H282.963ZM248.523 203.985C269.38 188.922 282.963 164.389 282.963 136.684H277.037C277.037 162.406 264.434 185.184 245.053 199.181L248.523 203.985ZM282.963 266.481C282.963 238.776 269.38 214.244 248.523 199.181L245.053 203.985C264.434 217.982 277.037 240.76 277.037 266.481H282.963ZM236.874 340.819C264.184 327.247 282.963 299.06 282.963 266.481H277.037C277.037 296.724 259.61 322.903 234.237 335.512L236.874 340.819ZM232.593 334.84V338.166H238.519V334.84H232.593ZM274.074 266.481C274.074 295.055 257.896 319.855 234.186 332.213L236.925 337.468C262.516 324.13 280 297.35 280 266.481H274.074ZM242.497 205.802C261.598 219.205 274.074 241.387 274.074 266.481H280C280 239.374 266.515 215.416 245.9 200.951L242.497 205.802ZM245.546 206.038C245.643 205.974 245.741 205.909 245.838 205.845L242.559 200.908C242.469 200.968 242.379 201.028 242.289 201.087L245.546 206.038ZM262.054 238.725C261.006 224.466 255.152 211.543 246.113 201.572L241.722 205.553C249.905 214.579 255.196 226.265 256.144 239.159L262.054 238.725ZM268.148 266.481C268.148 256.198 265.868 246.439 261.784 237.689L256.414 240.195C260.14 248.177 262.222 257.082 262.222 266.481H268.148ZM237.174 323.607C255.815 311.452 268.148 290.408 268.148 266.481H262.222C262.222 288.321 250.972 307.536 233.937 318.643L237.174 323.607ZM232.593 317.551V321.125H238.519V317.551H232.593ZM259.259 266.481C259.259 286.616 249.22 304.407 233.86 315.121L237.251 319.981C254.131 308.207 265.185 288.635 265.185 266.481H259.259ZM256.328 248.021C258.23 253.827 259.259 260.031 259.259 266.481H265.185C265.185 259.397 264.054 252.57 261.96 246.177L256.328 248.021ZM200.001 305.573C233.045 305.573 260.071 279.817 262.101 247.284L256.187 246.914C254.35 276.344 229.896 299.647 200.001 299.647V305.573ZM137.901 247.276C139.928 279.813 166.955 305.573 200.001 305.573V299.647C170.105 299.647 145.649 276.34 143.816 246.907L137.901 247.276ZM140.741 266.481C140.741 260.028 141.771 253.822 143.674 248.014L138.043 246.169C135.947 252.565 134.815 259.394 134.815 266.481H140.741ZM166.14 315.121C150.78 304.407 140.741 286.616 140.741 266.481H134.815C134.815 288.635 145.869 308.207 162.749 319.981L166.14 315.121ZM167.407 321.125V317.551H161.482V321.125H167.407ZM131.852 266.481C131.852 290.408 144.185 311.452 162.826 323.607L166.063 318.643C149.028 307.536 137.778 288.321 137.778 266.481H131.852ZM138.22 237.681C134.133 246.433 131.852 256.195 131.852 266.481H137.778C137.778 257.079 139.861 248.171 143.589 240.188L138.22 237.681ZM153.889 201.574C144.852 211.543 138.999 224.462 137.949 238.717L143.859 239.152C144.809 226.262 150.099 214.578 158.28 205.554L153.889 201.574ZM154.162 205.845C154.26 205.91 154.358 205.974 154.456 206.039L157.713 201.089C157.622 201.029 157.531 200.969 157.44 200.908L154.162 205.845ZM125.926 266.481C125.926 241.387 138.402 219.205 157.503 205.802L154.1 200.951C133.485 215.416 120 239.374 120 266.481H125.926ZM165.814 332.213C142.104 319.855 125.926 295.055 125.926 266.481H120C120 297.35 137.484 324.13 163.075 337.468L165.814 332.213ZM167.407 338.166V334.84H161.482V338.166H167.407ZM117.037 266.481C117.037 299.06 135.816 327.247 163.126 340.819L165.763 335.512C140.39 322.903 122.963 296.724 122.963 266.481H117.037ZM151.477 199.181C130.62 214.244 117.037 238.776 117.037 266.481H122.963C122.963 240.76 135.566 217.982 154.947 203.985L151.477 199.181ZM117.037 136.684C117.037 164.389 130.62 188.922 151.477 203.985L154.947 199.181C135.566 185.184 122.963 162.406 122.963 136.684H117.037ZM191.09 207.887C193.994 207.449 196.97 207.222 200 207.222V201.296C196.673 201.296 193.403 201.546 190.207 202.027L191.09 207.887ZM163.455 243.35C163.455 226.152 175.339 211.722 191.347 207.837L189.949 202.078C171.346 206.593 157.529 223.354 157.529 243.35H163.455ZM199.998 279.894C179.816 279.894 163.455 263.533 163.455 243.35H157.529C157.529 266.805 176.543 285.82 199.998 285.82V279.894ZM236.542 243.35C236.542 263.533 220.181 279.894 199.998 279.894V285.82C223.453 285.82 242.467 266.805 242.467 243.35H236.542ZM208.645 207.835C224.655 211.719 236.542 226.15 236.542 243.35H242.467C242.467 223.352 228.648 206.589 210.042 202.076L208.645 207.835ZM200 207.222C203.027 207.222 206 207.449 208.902 207.886L209.784 202.026C206.591 201.545 203.324 201.296 200 201.296V207.222ZM232.594 161.694C232.594 180.24 217.56 195.274 199.014 195.274V201.2C220.833 201.2 238.52 183.513 238.52 161.694H232.594ZM199.014 128.114C217.56 128.114 232.594 143.148 232.594 161.694H238.52C238.52 139.876 220.833 122.188 199.014 122.188V128.114ZM165.434 161.694C165.434 143.148 180.468 128.114 199.014 128.114V122.188C177.195 122.188 159.508 139.876 159.508 161.694H165.434ZM199.014 195.274C180.468 195.274 165.434 180.24 165.434 161.694H159.508C159.508 183.513 177.195 201.2 199.014 201.2V195.274ZM199.013 180.46C209.377 180.46 217.779 172.058 217.779 161.695H211.853C211.853 168.786 206.104 174.534 199.013 174.534V180.46ZM180.248 161.695C180.248 172.058 188.65 180.46 199.013 180.46V174.534C191.922 174.534 186.174 168.786 186.174 161.695H180.248ZM199.013 142.929C188.65 142.929 180.248 151.331 180.248 161.695H186.174C186.174 154.603 191.922 148.855 199.013 148.855V142.929ZM217.779 161.695C217.779 151.331 209.377 142.929 199.013 142.929V148.855C206.104 148.855 211.853 154.603 211.853 161.695H217.779ZM88.819 164.709C75.247 137.399 47.0599 118.62 14.4814 118.62V124.546C44.7245 124.546 70.9028 141.973 83.5122 167.346L88.819 164.709ZM82.8403 168.99H86.1656V163.064H82.8403V168.99ZM14.4814 127.509C43.0552 127.509 67.8554 143.687 80.2128 167.397L85.4678 164.658C72.1299 139.067 45.3498 121.583 14.4814 121.583V127.509ZM-46.1979 159.086C-32.7946 139.985 -10.6134 127.509 14.4814 127.509V121.583C-12.6261 121.583 -36.5837 135.068 -51.0488 155.682L-46.1979 159.086ZM-39.4154 168.037C-41.3196 163.735 -43.5786 159.625 -46.155 155.745L-51.0916 159.023C-48.6989 162.626 -46.6017 166.442 -44.8343 170.435L-39.4154 168.037ZM14.4814 133.435C-10.8529 133.435 -32.9544 147.26 -44.696 167.764L-39.5536 170.709C-28.8245 151.973 -8.64267 139.361 14.4814 139.361V133.435ZM71.6067 164.409C59.4522 145.767 38.4078 133.435 14.4814 133.435V139.361C36.3215 139.361 55.5357 150.61 66.6427 167.646L71.6067 164.409ZM65.5508 168.99H69.1247V163.064H65.5508V168.99ZM14.4814 142.324C34.6164 142.324 52.407 152.363 63.1206 167.722L67.981 164.332C56.2066 147.452 36.6352 136.398 14.4814 136.398V142.324ZM-37.9225 173.888C-27.9756 155.108 -8.2377 142.324 14.4814 142.324V136.398C-10.5183 136.398 -32.226 150.472 -43.1593 171.115L-37.9225 173.888ZM-37.1089 172.606C-37.3856 172.081 -37.6695 171.561 -37.9605 171.046L-43.1213 173.958C-42.858 174.425 -42.6012 174.895 -42.3511 175.37L-37.1089 172.606ZM-10.5285 158.128C-22.9652 158.128 -34.1566 163.477 -41.9195 171.992L-37.5405 175.984C-30.8531 168.649 -21.2296 164.054 -10.5285 164.054V158.128ZM31.9406 200.597C31.9406 177.142 12.9265 158.128 -10.5285 158.128V164.054C9.65373 164.054 26.0147 180.414 26.0147 200.597H31.9406ZM-10.5285 243.066C12.9265 243.066 31.9406 224.052 31.9406 200.597H26.0147C26.0147 220.779 9.6537 237.14 -10.5285 237.14V243.066ZM-41.2179 229.953C-33.49 238.03 -22.5949 243.066 -10.5285 243.066V237.14C-20.9119 237.14 -30.2797 232.813 -36.9362 225.856L-41.2179 229.953ZM-37.9597 232.121C-37.423 231.17 -36.9106 230.204 -36.4232 229.222L-41.7309 226.587C-42.1716 227.474 -42.6351 228.349 -43.1206 229.209L-37.9597 232.121ZM14.4813 260.842C-8.23715 260.842 -27.9746 248.059 -37.9218 229.278L-43.1585 232.052C-32.2249 252.695 -10.5177 266.768 14.4813 266.768V260.842ZM63.1206 235.443C52.407 250.803 34.6163 260.842 14.4813 260.842V266.768C36.6351 266.768 56.2066 255.714 67.9809 238.833L63.1206 235.443ZM69.1247 234.175H65.5508V240.101H69.1247V234.175ZM14.4813 269.731C38.4078 269.731 59.4521 257.398 71.6067 238.757L66.6427 235.52C55.5356 252.555 36.3214 263.805 14.4813 263.805V269.731ZM-44.696 235.402C-32.9544 255.905 -10.8529 269.731 14.4813 269.731V263.805C-8.6427 263.805 -28.8245 251.192 -39.5536 232.457L-44.696 235.402ZM-46.155 247.42C-43.5786 243.541 -41.3196 239.431 -39.4154 235.129L-44.8343 232.73C-46.6017 236.724 -48.699 240.539 -51.0917 244.142L-46.155 247.42ZM14.4813 275.657C-10.6134 275.657 -32.7946 263.181 -46.1979 244.079L-51.0488 247.483C-36.5837 268.098 -12.6261 281.583 14.4813 281.583V275.657ZM80.2128 235.769C67.8553 259.479 43.0552 275.657 14.4813 275.657V281.583C45.3498 281.583 72.1298 264.099 85.4678 238.508L80.2128 235.769ZM86.1656 234.175H82.8403V240.101H86.1656V234.175ZM14.4813 284.546C47.0599 284.546 75.247 265.767 88.819 238.457L83.5122 235.82C70.9028 261.193 44.7245 278.62 14.4813 278.62V284.546ZM-52.8192 250.106C-37.7562 270.963 -13.2236 284.546 14.4813 284.546V278.62C-11.2404 278.62 -34.0183 266.017 -48.0152 246.636L-52.8192 250.106ZM-115.316 284.546C-87.6108 284.546 -63.0782 270.963 -48.0152 250.106L-52.8192 246.636C-66.8161 266.017 -89.594 278.62 -115.316 278.62V284.546ZM-189.653 238.457C-176.081 265.767 -147.894 284.546 -115.316 284.546V278.62C-145.559 278.62 -171.737 261.193 -184.347 235.82L-189.653 238.457ZM-183.675 234.175H-187V240.101H-183.675V234.175ZM-115.316 275.657C-143.89 275.657 -168.69 259.479 -181.047 235.769L-186.302 238.508C-172.964 264.099 -146.184 281.583 -115.316 281.583V275.657ZM-54.6364 244.079C-68.0398 263.181 -90.221 275.657 -115.316 275.657V281.583C-88.2082 281.583 -64.2507 268.098 -49.7856 247.483L-54.6364 244.079ZM-54.7773 247.273L-54.6811 247.418L-49.741 244.145L-49.8371 244L-54.7773 247.273ZM-54.8704 247.131L-54.7808 247.267L-49.8336 244.005L-49.9232 243.869L-54.8704 247.131ZM-87.5589 263.637C-73.3008 262.588 -60.3777 256.735 -50.4068 247.695L-54.3869 243.305C-63.4135 251.488 -75.0998 256.779 -87.9936 257.727L-87.5589 263.637ZM-115.316 269.731C-105.032 269.731 -95.2731 267.451 -86.523 263.367L-89.0295 257.997C-97.011 261.723 -105.916 263.805 -115.316 263.805V269.731ZM-172.441 238.757C-160.287 257.398 -139.242 269.731 -115.316 269.731V263.805C-137.156 263.805 -156.37 252.555 -167.477 235.52L-172.441 238.757ZM-166.385 234.175H-169.959V240.101H-166.385V234.175ZM-115.316 260.842C-135.451 260.842 -153.241 250.803 -163.955 235.443L-168.815 238.833C-157.041 255.714 -137.47 266.768 -115.316 266.768V260.842ZM-96.8555 257.911C-102.661 259.812 -108.865 260.842 -115.316 260.842V266.768C-108.231 266.768 -101.405 265.637 -95.0111 263.543L-96.8555 257.911ZM-154.407 201.584C-154.407 234.628 -128.651 261.653 -96.1179 263.684L-95.7487 257.77C-125.179 255.933 -148.481 231.479 -148.481 201.584H-154.407ZM-96.1101 139.484C-128.647 141.511 -154.407 168.538 -154.407 201.584H-148.481C-148.481 171.687 -125.175 147.232 -95.7417 145.398L-96.1101 139.484ZM-115.316 142.324C-108.863 142.324 -102.656 143.354 -96.8484 145.257L-95.0033 139.625C-101.399 137.53 -108.228 136.398 -115.316 136.398V142.324ZM-163.955 167.722C-153.241 152.363 -135.451 142.324 -115.316 142.324V136.398C-137.47 136.398 -157.041 147.452 -168.815 164.332L-163.955 167.722ZM-169.959 168.99H-166.385V163.064H-169.959V168.99ZM-115.316 133.435C-139.242 133.435 -160.287 145.767 -172.441 164.409L-167.477 167.646C-156.37 150.61 -137.156 139.361 -115.316 139.361V133.435ZM-86.5153 139.802C-95.2674 135.716 -105.029 133.435 -115.316 133.435V139.361C-105.913 139.361 -97.0058 141.444 -89.0225 145.172L-86.5153 139.802ZM-50.408 155.472C-60.377 146.435 -73.2967 140.582 -87.5512 139.532L-87.9866 145.442C-75.0962 146.392 -63.4128 151.681 -54.388 159.862L-50.408 155.472ZM-54.7808 155.898L-54.8716 156.036L-49.9245 159.298L-49.8337 159.161L-54.7808 155.898ZM-54.6811 155.748L-54.7774 155.893L-49.8372 159.166L-49.7409 159.021L-54.6811 155.748ZM-115.316 127.509C-90.2209 127.509 -68.0398 139.985 -54.6364 159.086L-49.7856 155.682C-64.2507 135.068 -88.2082 121.583 -115.316 121.583V127.509ZM-181.047 167.397C-168.69 143.687 -143.89 127.509 -115.316 127.509V121.583C-146.184 121.583 -172.964 139.067 -186.302 164.658L-181.047 167.397ZM-187 168.99H-183.675V163.064H-187V168.99ZM-115.316 118.62C-147.894 118.62 -176.081 137.398 -189.653 164.709L-184.347 167.346C-171.737 141.973 -145.559 124.546 -115.316 124.546V118.62ZM-48.0152 153.06C-63.0782 132.203 -87.6108 118.62 -115.316 118.62V124.546C-89.594 124.546 -66.8161 137.149 -52.8192 156.529L-48.0152 153.06ZM14.4814 118.62C-13.2236 118.62 -37.7562 132.203 -52.8192 153.06L-48.0152 156.529C-34.0183 137.149 -11.2403 124.546 14.4814 124.546V118.62ZM-56.7215 192.673C-56.2837 195.577 -56.0565 198.553 -56.0565 201.583H-50.1305C-50.1305 198.256 -50.38 194.985 -50.8617 191.789L-56.7215 192.673ZM-92.1848 165.038C-74.9861 165.038 -60.5558 176.922 -56.671 192.93L-50.9122 191.532C-55.427 172.929 -72.1887 159.112 -92.1848 159.112V165.038ZM-128.728 201.581C-128.728 181.399 -112.367 165.038 -92.1848 165.038V159.112C-115.64 159.112 -134.654 178.126 -134.654 201.581H-128.728ZM-92.1848 238.124C-112.367 238.124 -128.728 221.763 -128.728 201.581H-134.654C-134.654 225.036 -115.64 244.05 -92.1848 244.05V238.124ZM-56.6698 210.227C-60.5528 226.238 -74.9843 238.124 -92.1848 238.124V244.05C-72.1866 244.05 -55.4235 230.231 -50.9108 211.624L-56.6698 210.227ZM-56.0565 201.583C-56.0565 204.61 -56.2832 207.583 -56.7202 210.485L-50.8604 211.367C-50.3795 208.174 -50.1305 204.906 -50.1305 201.583H-56.0565ZM-10.5285 234.177C-29.0744 234.177 -44.1088 219.143 -44.1088 200.597H-50.0347C-50.0347 222.415 -32.3472 240.103 -10.5285 240.103V234.177ZM23.0517 200.597C23.0517 219.143 8.01732 234.177 -10.5285 234.177V240.103C11.2901 240.103 28.9776 222.415 28.9776 200.597H23.0517ZM-10.5285 167.017C8.01732 167.017 23.0517 182.051 23.0517 200.597H28.9776C28.9776 178.778 11.2901 161.091 -10.5285 161.091V167.017ZM-44.1088 200.597C-44.1088 182.051 -29.0744 167.017 -10.5285 167.017V161.091C-32.3472 161.091 -50.0347 178.778 -50.0347 200.597H-44.1088ZM310.348 238.457C323.92 265.767 352.107 284.546 384.686 284.546V278.62C354.443 278.62 328.264 261.193 315.655 235.82L310.348 238.457ZM316.327 234.175H313.002V240.101H316.327V234.175ZM384.686 275.657C356.112 275.657 331.312 259.479 318.954 235.769L313.699 238.508C327.037 264.099 353.817 281.583 384.686 281.583V275.657ZM445.365 244.079C431.962 263.181 409.781 275.657 384.686 275.657V281.583C411.793 281.583 435.751 268.098 450.216 247.483L445.365 244.079ZM438.583 235.129C440.487 239.431 442.746 243.541 445.322 247.42L450.259 244.142C447.866 240.539 445.769 236.724 444.001 232.73L438.583 235.129ZM384.686 269.731C410.02 269.731 432.122 255.905 443.863 235.402L438.721 232.457C427.992 251.192 407.81 263.805 384.686 263.805V269.731ZM327.56 238.757C339.715 257.398 360.759 269.731 384.686 269.731V263.805C362.846 263.805 343.632 252.555 332.524 235.52L327.56 238.757ZM333.616 234.175H330.042V240.101H333.616V234.175ZM384.686 260.842C364.551 260.842 346.76 250.803 336.047 235.443L331.186 238.833C342.961 255.714 362.532 266.768 384.686 266.768V260.842ZM437.09 229.277C427.143 248.058 407.405 260.842 384.686 260.842V266.768C409.685 266.768 431.393 252.694 442.326 232.051L437.09 229.277ZM436.276 230.56C436.553 231.084 436.837 231.604 437.128 232.12L442.288 229.208C442.025 228.741 441.768 228.27 441.518 227.796L436.276 230.56ZM409.696 245.038C422.132 245.038 433.324 239.688 441.087 231.174L436.708 227.181C430.02 234.516 420.397 239.112 409.696 239.112V245.038ZM367.227 202.569C367.227 226.024 386.241 245.038 409.696 245.038V239.112C389.513 239.112 373.152 222.751 373.152 202.569H367.227ZM409.696 160.1C386.241 160.1 367.227 179.114 367.227 202.569H373.152C373.152 182.387 389.513 166.026 409.696 166.026V160.1ZM440.385 173.212C432.657 165.136 421.762 160.1 409.696 160.1V166.026C420.079 166.026 429.447 170.352 436.103 177.309L440.385 173.212ZM437.127 171.044C436.59 171.995 436.078 172.962 435.59 173.943L440.898 176.579C441.339 175.691 441.802 174.817 442.288 173.956L437.127 171.044ZM384.686 142.324C407.404 142.324 427.142 155.107 437.089 173.887L442.326 171.113C431.392 150.471 409.685 136.398 384.686 136.398V142.324ZM336.047 167.722C346.76 152.363 364.551 142.324 384.686 142.324V136.398C362.532 136.398 342.961 147.452 331.186 164.332L336.047 167.722ZM330.042 168.99H333.616V163.064H330.042V168.99ZM384.686 133.435C360.759 133.435 339.715 145.767 327.56 164.409L332.524 167.646C343.632 150.611 362.846 139.361 384.686 139.361V133.435ZM443.863 167.764C432.122 147.26 410.02 133.435 384.686 133.435V139.361C407.81 139.361 427.992 151.973 438.721 170.709L443.863 167.764ZM445.322 155.745C442.746 159.625 440.487 163.735 438.583 168.037L444.001 170.435C445.769 166.442 447.866 162.626 450.259 159.023L445.322 155.745ZM384.686 127.509C409.781 127.509 431.962 139.985 445.365 159.086L450.216 155.682C435.751 135.068 411.793 121.583 384.686 121.583V127.509ZM318.954 167.397C331.312 143.687 356.112 127.509 384.686 127.509V121.583C353.817 121.583 327.037 139.067 313.699 164.658L318.954 167.397ZM313.002 168.99H316.327V163.064H313.002V168.99ZM384.686 118.62C352.107 118.62 323.92 137.398 310.348 164.709L315.655 167.346C328.264 141.973 354.443 124.546 384.686 124.546V118.62ZM451.986 153.06C436.923 132.203 412.391 118.62 384.686 118.62V124.546C410.408 124.546 433.185 137.149 447.182 156.529L451.986 153.06ZM514.483 118.62C486.778 118.62 462.245 132.203 447.182 153.06L451.986 156.529C465.983 137.149 488.761 124.546 514.483 124.546V118.62ZM588.82 164.709C575.249 137.398 547.061 118.62 514.483 118.62V124.546C544.726 124.546 570.904 141.973 583.514 167.346L588.82 164.709ZM582.842 168.99H586.167V163.064H582.842V168.99ZM514.483 127.509C543.057 127.509 567.857 143.687 580.214 167.397L585.469 164.658C572.131 139.067 545.351 121.583 514.483 121.583V127.509ZM453.804 159.086C467.207 139.985 489.388 127.509 514.483 127.509V121.583C487.375 121.583 463.418 135.068 448.953 155.682L453.804 159.086ZM454.039 156.036C453.975 155.939 453.911 155.842 453.846 155.745L448.91 159.023C448.97 159.114 449.03 159.204 449.089 159.294L454.039 156.036ZM486.726 139.529C472.468 140.577 459.545 146.431 449.574 155.47L453.554 159.86C462.581 151.677 474.267 146.387 487.161 145.439L486.726 139.529ZM514.483 133.435C504.199 133.435 494.44 135.714 485.69 139.799L488.197 145.168C496.178 141.443 505.083 139.361 514.483 139.361V133.435ZM571.608 164.409C559.454 145.767 538.409 133.435 514.483 133.435V139.361C536.323 139.361 555.537 150.61 566.644 167.645L571.608 164.409ZM565.552 168.99H569.126V163.064H565.552V168.99ZM514.483 142.324C534.618 142.324 552.409 152.363 563.122 167.722L567.982 164.332C556.208 147.452 536.637 136.398 514.483 136.398V142.324ZM496.023 145.254C501.828 143.353 508.033 142.324 514.483 142.324V136.398C507.398 136.398 500.572 137.529 494.178 139.623L496.023 145.254ZM553.574 201.581C553.574 168.538 527.819 141.512 495.285 139.481L494.916 145.396C524.346 147.233 547.648 171.687 547.648 201.581H553.574ZM495.277 263.682C527.814 261.655 553.574 234.627 553.574 201.581H547.648C547.648 231.478 524.342 255.934 494.909 257.767L495.277 263.682ZM514.483 260.842C508.03 260.842 501.823 259.812 496.016 257.909L494.171 263.54C500.566 265.636 507.395 266.768 514.483 266.768V260.842ZM563.122 235.443C552.409 250.803 534.618 260.842 514.483 260.842V266.768C536.637 266.768 556.208 255.714 567.983 238.833L563.122 235.443ZM569.126 234.175H565.552V240.101H569.126V234.175ZM514.483 269.731C538.409 269.731 559.454 257.398 571.608 238.757L566.644 235.52C555.537 252.555 536.323 263.805 514.483 263.805V269.731ZM485.682 263.363C494.435 267.45 504.196 269.731 514.483 269.731V263.805C505.081 263.805 496.173 261.721 488.19 257.994L485.682 263.363ZM449.575 247.694C459.544 256.731 472.464 262.583 486.718 263.633L487.154 257.724C474.263 256.774 462.58 251.484 453.555 243.303L449.575 247.694ZM453.847 247.42C453.912 247.322 453.976 247.225 454.04 247.127L449.09 243.87C449.03 243.961 448.97 244.052 448.91 244.143L453.847 247.42ZM514.483 275.657C489.388 275.657 467.207 263.181 453.804 244.079L448.953 247.483C463.418 268.098 487.375 281.583 514.483 281.583V275.657ZM580.214 235.769C567.857 259.479 543.057 275.657 514.483 275.657V281.583C545.351 281.583 572.131 264.099 585.469 238.508L580.214 235.769ZM586.167 234.175H582.842V240.101H586.167V234.175ZM514.483 284.546C547.062 284.546 575.249 265.767 588.821 238.457L583.514 235.82C570.904 261.193 544.726 278.62 514.483 278.62V284.546ZM447.182 250.106C462.245 270.963 486.778 284.546 514.483 284.546V278.62C488.761 278.62 465.983 266.017 451.986 246.636L447.182 250.106ZM384.686 284.546C412.391 284.546 436.923 270.963 451.986 250.106L447.182 246.636C433.185 266.017 410.408 278.62 384.686 278.62V284.546ZM455.889 210.493C455.451 207.588 455.224 204.613 455.224 201.583H449.298C449.298 204.91 449.547 208.18 450.029 211.376L455.889 210.493ZM491.352 238.128C474.153 238.128 459.723 226.244 455.838 210.236L450.079 211.633C454.594 230.237 471.356 244.054 491.352 244.054V238.128ZM527.895 201.584C527.895 221.767 511.534 238.128 491.352 238.128V244.054C514.807 244.054 533.821 225.039 533.821 201.584H527.895ZM491.352 165.041C511.534 165.041 527.895 181.402 527.895 201.584H533.821C533.821 178.129 514.807 159.115 491.352 159.115V165.041ZM455.837 192.938C459.72 176.928 474.152 165.041 491.352 165.041V159.115C471.354 159.115 454.591 172.935 450.078 191.541L455.837 192.938ZM455.224 201.583C455.224 198.555 455.45 195.583 455.887 192.681L450.028 191.798C449.547 194.991 449.298 198.259 449.298 201.583H455.224ZM409.696 168.989C428.242 168.989 443.276 184.023 443.276 202.569H449.202C449.202 180.75 431.514 163.063 409.696 163.063V168.989ZM376.115 202.569C376.115 184.023 391.15 168.989 409.696 168.989V163.063C387.877 163.063 370.19 180.75 370.19 202.569H376.115ZM409.696 236.149C391.15 236.149 376.115 221.115 376.115 202.569H370.19C370.19 224.387 387.877 242.075 409.696 242.075V236.149ZM443.276 202.569C443.276 221.115 428.242 236.149 409.696 236.149V242.075C431.514 242.075 449.202 224.387 449.202 202.569H443.276ZM428.462 202.569C428.462 192.205 420.06 183.804 409.696 183.804V189.73C416.787 189.73 422.536 195.478 422.536 202.569H428.462ZM409.696 221.335C420.06 221.335 428.462 212.933 428.462 202.569H422.536C422.536 209.66 416.787 215.409 409.696 215.409V221.335ZM390.931 202.569C390.931 212.933 399.332 221.335 409.696 221.335V215.409C402.605 215.409 396.857 209.66 396.857 202.569H390.931ZM409.696 183.804C399.332 183.804 390.931 192.205 390.931 202.569H396.857C396.857 195.478 402.605 189.73 409.696 189.73V183.804ZM-10.5289 213.436C-17.62 213.436 -23.3684 207.687 -23.3684 200.596H-29.2944C-29.2944 210.96 -20.8928 219.362 -10.5289 219.362V213.436ZM2.31056 200.596C2.31056 207.687 -3.43788 213.436 -10.5289 213.436V219.362C-0.165085 219.362 8.2365 210.96 8.2365 200.596H2.31056ZM-10.5289 187.757C-3.43788 187.757 2.31056 193.505 2.31056 200.596H8.2365C8.2365 190.232 -0.165085 181.831 -10.5289 181.831V187.757ZM-23.3684 200.596C-23.3684 193.505 -17.62 187.757 -10.5289 187.757V181.831C-20.8928 181.831 -29.2944 190.232 -29.2944 200.596H-23.3684Z" fill="#595959" mask="url(#path-2-inside-1_259_224058)"/>
</g>
<defs>
<clipPath id="clip0_259_224058">
<rect width="400" height="400" rx="200" fill="white"/>
</clipPath>
</defs>
</svg>
