<svg width="1em" height="1em" viewBox="0 0 400 400" fill="none" xmlns="http://www.w3.org/2000/svg">
<g clip-path="url(#clip0_259_223232)">
<path fill-rule="evenodd" clip-rule="evenodd" d="M180 144H160V89.1308C166.548 86.9065 173.239 85.2441 180 84.1436V144ZM220 144V84.1436C226.761 85.2441 233.452 86.9065 240 89.1308V144H220ZM134.333 112.666C118.943 124.728 106.882 141.002 99.9705 160H300.03C293.118 141.002 281.057 124.728 265.667 112.666L250 144H150L134.333 112.666ZM309.355 200H254.728C252.091 201.281 249.129 202 246 202H222C222 201.325 222.033 200.658 222.099 200H90.6452L82.5161 240H184.3L184.333 240H215.667L215.7 240H317.484L309.355 200ZM74.3871 280L66.2581 320H333.742L325.613 280H74.3871ZM58.129 360L50 400H350L341.871 360H58.129Z" fill="white" fill-opacity="0.4"/>
<path fill-rule="evenodd" clip-rule="evenodd" d="M115.441 138.314C106.366 118.145 112.175 94.3883 129.534 80.6839L138 74L144.212 95.7405C140.679 97.5147 137.211 99.4676 133.82 101.599C131.652 102.961 130.873 105.746 132.018 108.035L150 144H250L267.982 108.035C269.127 105.746 268.348 102.961 266.18 101.599C262.789 99.4676 259.321 97.5148 255.789 95.7406L262 74L270.466 80.6839C287.825 94.3883 293.635 118.145 284.559 138.314C283.301 141.109 280.815 143.098 277.906 143.76C280.515 150.249 281.237 157.468 279.784 164.555L271.789 203.527C269.414 215.105 261.542 224.798 250.697 229.498L243.586 232.579C239.989 234.138 237.092 236.968 235.449 240.527C233.285 245.215 228.986 248.565 223.911 249.517L207.372 252.618C202.5 253.531 197.5 253.531 192.628 252.618L176.089 249.517C171.014 248.565 166.715 245.215 164.551 240.527C162.908 236.968 160.011 234.138 156.414 232.579L149.303 229.498C138.458 224.798 130.586 215.105 128.211 203.527L120.216 164.555C118.763 157.468 119.485 150.249 122.094 143.76C119.185 143.098 116.699 141.108 115.441 138.314ZM222 202C222 190.954 230.954 182 242 182H266C266 193.046 257.046 202 246 202H222ZM166 263.038V316C166 334.777 181.222 350 200 350C218.778 350 234 334.777 234 316V263.038C231.63 266.397 228.025 268.745 223.911 269.517L207.372 272.618C202.5 273.531 197.5 273.531 192.628 272.618L176.089 269.517C171.975 268.745 168.37 266.397 166 263.038ZM200 176C204.418 176 208 172.418 208 168C208 163.582 204.418 160 200 160C195.582 160 192 163.582 192 168C192 172.418 195.582 176 200 176Z" fill="white"/>
</g>
<defs>
<clipPath id="clip0_259_223232">
<rect width="400" height="400" rx="200" fill="white"/>
</clipPath>
</defs>
</svg>
