<svg width="1em" height="1em" viewBox="0 0 400 400" fill="none" xmlns="http://www.w3.org/2000/svg">
<path fill-rule="evenodd" clip-rule="evenodd" d="M104.609 109.853C115.891 102.774 127.765 97.0647 140 92.7242V150H180V83.5209C193.29 82.0326 206.71 82.0326 220 83.5208V150H260V92.7239C272.236 97.0644 284.109 102.774 295.391 109.853C298.949 112.086 299.839 116.882 297.319 120.242L288.936 131.42C292.297 137.258 295.107 143.473 297.289 150L275 150L273.6 150L125 150L125 150H102.711C104.893 143.472 107.703 137.257 111.065 131.419L102.682 120.242C100.162 116.882 101.052 112.086 104.609 109.853ZM94.7812 190L88.1562 230H311.844L305.219 190H265.901C264.898 200.107 256.371 208 246 208H212C212 200.084 216.599 193.242 223.272 190H94.7812ZM133.531 270H81.5312L74.9062 310H325.094L318.469 270H266.469C264.889 272.385 263.044 274.613 260.954 276.638L257.609 279.879C247.376 289.792 234.759 296.897 220.977 300.506C207.224 304.108 192.775 304.108 179.023 300.506C165.241 296.897 152.624 289.792 142.391 279.879L139.046 276.638C136.955 274.613 135.111 272.385 133.531 270ZM68.2812 350L61.6562 390H338.344L331.719 350H68.2812ZM190 224C190 226.209 188.209 228 186 228C183.791 228 182 226.209 182 224C182 221.791 183.791 220 186 220C188.209 220 190 221.791 190 224ZM218 224C218 226.209 216.209 228 214 228C211.791 228 210 226.209 210 224C210 221.791 211.791 220 214 220C216.209 220 218 221.791 218 224Z" fill="white" fill-opacity="0.4"/>
<path fill-rule="evenodd" clip-rule="evenodd" d="M121.159 196.943L128.353 162H271.647L278.842 196.943C281.227 208.528 278.34 220.363 271.333 229.446C269.398 235.949 265.817 241.927 260.835 246.753L257.608 249.879C247.376 259.792 234.759 266.896 220.977 270.506C207.224 274.108 192.775 274.108 179.023 270.506C165.241 266.896 152.623 259.792 142.391 249.879L139.164 246.753C134.181 241.926 130.6 235.947 128.665 229.443C121.66 220.361 118.774 208.527 121.159 196.943ZM263.417 237.192C263.972 236.783 264.513 236.361 265.042 235.928C263.753 237.672 262.313 239.321 260.732 240.853L257.608 243.879C247.376 253.792 234.758 260.896 220.976 264.506C207.224 268.108 192.775 268.108 179.022 264.506C165.24 260.896 152.623 253.792 142.391 243.879L139.267 240.853C137.684 239.32 136.244 237.67 134.954 235.923C135.484 236.358 136.027 236.782 136.583 237.192L143.217 242.089C152.983 249.297 164.033 254.58 175.775 257.655C191.657 261.815 208.343 261.815 224.226 257.655C235.968 254.58 247.017 249.297 256.783 242.089L263.417 237.192ZM212 208C212 196.954 220.954 188 232 188H266C266 199.046 257.046 208 246 208H212ZM186 228C188.209 228 190 226.209 190 224C190 221.791 188.209 220 186 220C183.791 220 182 221.791 182 224C182 226.209 183.791 228 186 228ZM214 228C216.209 228 218 226.209 218 224C218 221.791 216.209 220 214 220C211.791 220 210 221.791 210 224C210 226.209 211.791 228 214 228ZM129.367 275.411C129.975 272.833 131.066 270.471 132.531 268.411C134.315 271.399 136.497 274.169 139.046 276.638L142.391 279.879C152.624 289.792 165.241 296.896 179.023 300.506C192.775 304.108 207.224 304.108 220.977 300.506C234.759 296.896 247.376 289.792 257.609 279.879L260.954 276.638C263.502 274.169 265.685 271.399 267.468 268.411C265.706 265.934 263.403 263.895 260.751 262.445C265.609 265.1 269.294 269.732 270.633 275.411L300 400H100L129.367 275.411Z" fill="white"/>
</svg>
