<svg width="1em" height="1em" viewBox="0 0 400 400" fill="none" xmlns="http://www.w3.org/2000/svg">
<path d="M89.1667 180L82.0455 220H174L180 214L200 210L220 214L226 220H317.955L310.833 180H89.1667Z" fill="white" fill-opacity="0.4"/>
<path d="M67.803 300L74.9242 260H325.076L332.197 300H237.536C242.105 300 246.49 298.438 250 295.641V294.571C250 289.838 246.162 286 241.429 286C209.071 286 190.929 286 158.571 286C153.838 286 150 289.838 150 294.571V295.641C153.51 298.438 157.895 300 162.464 300H67.803Z" fill="white" fill-opacity="0.4"/>
<path d="M50 400L60.6818 340H339.318L350 400H50Z" fill="white" fill-opacity="0.4"/>
<path d="M200 154C227.614 154 250 131.614 250 104C250 101.857 249.865 99.7463 249.604 97.6747C250.997 98.4593 252.375 99.2799 253.738 100.136L303.377 131.325C308.329 134.437 308.377 141.638 303.467 144.816L280 160H120L96.6254 144.875C91.6917 141.683 91.7685 134.439 96.7687 131.351L148.003 99.72C148.77 99.2465 149.541 98.7843 150.318 98.3334C150.108 100.193 150 102.084 150 104C150 131.614 172.386 154 200 154Z" fill="white" fill-opacity="0.4"/>
<path d="M180 214L200 210L220 214L232 226L216 228L200 250L184 228L168 226L180 214Z" fill="white" fill-opacity="0.4"/>
<path d="M240 104C240 126.091 222.091 144 200 144C177.909 144 160 126.091 160 104C160 81.9086 177.909 64 200 64C222.091 64 240 81.9086 240 104Z" fill="white"/>
<path d="M150 295.641V316C150 343.614 172.386 366 200 366C227.614 366 250 343.614 250 316V295.641C246.49 298.438 242.105 300 237.536 300H162.464C157.895 300 153.51 298.438 150 295.641Z" fill="white"/>
<path fill-rule="evenodd" clip-rule="evenodd" d="M120 170H280L289.129 214.127C290.934 222.849 288.481 231.91 282.522 238.53L252.958 271.379C249.166 275.594 243.762 278 238.092 278H161.907C156.237 278 150.834 275.594 147.041 271.379L117.477 238.53C111.519 231.91 109.065 222.849 110.87 214.127L120 170ZM188 250H200H212L232 226L220 214L200 210L180 214L168 226L188 250Z" fill="white"/>
</svg>
