<svg width="1em" height="1em" viewBox="0 0 400 400" fill="none" xmlns="http://www.w3.org/2000/svg">
<g clip-path="url(#clip0_259_224081)">
<rect width="400" height="400" rx="200" fill="white"/>
<path fill-rule="evenodd" clip-rule="evenodd" d="M-40 -93C-51.0457 -93 -60 -84.0457 -60 -73C-60 -70.7935 -58.957 -67.9064 -56.8524 -64.5191C-54.7985 -61.2134 -51.9962 -57.8463 -49.0941 -54.7782C-46.2067 -51.7256 -43.3056 -49.0581 -41.1192 -47.1492C-40.7199 -46.8005 -40.3453 -46.478 -40 -46.1838C-39.6547 -46.478 -39.2801 -46.8005 -38.8808 -47.1492C-36.6944 -49.0581 -33.7933 -51.7256 -30.9059 -54.7782C-28.0038 -57.8463 -25.2015 -61.2134 -23.1476 -64.5191C-21.043 -67.9064 -20 -70.7935 -20 -73C-20 -84.0457 -28.9543 -93 -40 -93ZM-44.1948 -36.767L-76 -35V-43H-48.4856C-50.426 -44.7674 -52.6624 -46.9088 -54.9059 -49.2807C-58.0038 -52.5557 -61.2015 -56.3602 -63.6476 -60.2971C-66.043 -64.1525 -68 -68.5791 -68 -73C-68 -88.464 -55.464 -101 -40 -101C-24.536 -101 -12 -88.464 -12 -73C-12 -68.5791 -13.957 -64.1525 -16.3524 -60.2971C-18.7985 -56.3602 -21.9962 -52.5557 -25.0941 -49.2807C-27.3376 -46.9088 -29.574 -44.7674 -31.5144 -43H-4V-35L-35.8052 -36.767L-34 21H-46L-44.1948 -36.767ZM80 -93C68.9543 -93 60 -84.0457 60 -73C60 -70.7935 61.043 -67.9064 63.1476 -64.5191C65.2015 -61.2134 68.0038 -57.8463 70.9059 -54.7782C73.7933 -51.7256 76.6944 -49.0581 78.8808 -47.1492C79.2801 -46.8005 79.6547 -46.478 80 -46.1838C80.3453 -46.478 80.7199 -46.8005 81.1192 -47.1492C83.3056 -49.0581 86.2067 -51.7256 89.0941 -54.7782C91.9962 -57.8463 94.7985 -61.2134 96.8524 -64.5191C98.957 -67.9064 100 -70.7935 100 -73C100 -84.0457 91.0457 -93 80 -93ZM75.8052 -36.767L44 -35V-43H71.5144C69.574 -44.7674 67.3376 -46.9088 65.0941 -49.2807C61.9962 -52.5557 58.7985 -56.3602 56.3524 -60.2971C53.957 -64.1525 52 -68.5791 52 -73C52 -88.464 64.536 -101 80 -101C95.464 -101 108 -88.464 108 -73C108 -68.5791 106.043 -64.1525 103.648 -60.2971C101.201 -56.3602 98.0038 -52.5557 94.9059 -49.2807C92.6624 -46.9088 90.426 -44.7674 88.4856 -43H116V-35L84.1948 -36.767L86 21H74L75.8052 -36.767ZM180 -73C180 -84.0457 188.954 -93 200 -93C211.046 -93 220 -84.0457 220 -73C220 -70.7935 218.957 -67.9064 216.852 -64.5191C214.799 -61.2134 211.996 -57.8463 209.094 -54.7782C206.207 -51.7256 203.306 -49.0581 201.119 -47.1492C200.72 -46.8005 200.345 -46.478 200 -46.1838C199.655 -46.478 199.28 -46.8005 198.881 -47.1492C196.694 -49.0581 193.793 -51.7256 190.906 -54.7782C188.004 -57.8463 185.202 -61.2134 183.148 -64.5191C181.043 -67.9064 180 -70.7935 180 -73ZM164 -35L195.805 -36.767L194 21H206L204.195 -36.767L236 -35V-43H208.486C210.426 -44.7674 212.662 -46.9088 214.906 -49.2807C218.004 -52.5557 221.201 -56.3602 223.648 -60.2971C226.043 -64.1525 228 -68.5791 228 -73C228 -88.464 215.464 -101 200 -101C184.536 -101 172 -88.464 172 -73C172 -68.5791 173.957 -64.1525 176.352 -60.2971C178.799 -56.3602 181.996 -52.5557 185.094 -49.2807C187.338 -46.9088 189.574 -44.7674 191.514 -43H164V-35ZM320 -93C308.954 -93 300 -84.0457 300 -73C300 -70.7935 301.043 -67.9064 303.148 -64.5191C305.202 -61.2134 308.004 -57.8463 310.906 -54.7782C313.793 -51.7256 316.694 -49.0581 318.881 -47.1492C319.28 -46.8005 319.655 -46.478 320 -46.1838C320.345 -46.478 320.72 -46.8005 321.119 -47.1492C323.306 -49.0581 326.207 -51.7256 329.094 -54.7782C331.996 -57.8463 334.799 -61.2134 336.852 -64.5191C338.957 -67.9064 340 -70.7935 340 -73C340 -84.0457 331.046 -93 320 -93ZM315.805 -36.767L284 -35V-43H311.514C309.574 -44.7674 307.338 -46.9088 305.094 -49.2807C301.996 -52.5557 298.798 -56.3602 296.352 -60.2971C293.957 -64.1525 292 -68.5791 292 -73C292 -88.464 304.536 -101 320 -101C335.464 -101 348 -88.464 348 -73C348 -68.5791 346.043 -64.1525 343.648 -60.2971C341.201 -56.3602 338.004 -52.5557 334.906 -49.2807C332.662 -46.9088 330.426 -44.7674 328.486 -43H356V-35L324.195 -36.767L326 21H314L315.805 -36.767ZM420 -73C420 -84.0457 428.954 -93 440 -93C451.046 -93 460 -84.0457 460 -73C460 -70.7935 458.957 -67.9064 456.852 -64.5191C454.799 -61.2134 451.996 -57.8463 449.094 -54.7782C446.207 -51.7256 443.306 -49.0581 441.119 -47.1492C440.72 -46.8005 440.345 -46.478 440 -46.1838C439.655 -46.478 439.28 -46.8005 438.881 -47.1492C436.694 -49.0581 433.793 -51.7256 430.906 -54.7782C428.004 -57.8463 425.202 -61.2134 423.148 -64.5191C421.043 -67.9064 420 -70.7935 420 -73ZM404 -35L435.805 -36.767L434 21H446L444.195 -36.767L476 -35V-43H448.486C450.426 -44.7674 452.662 -46.9088 454.906 -49.2807C458.004 -52.5557 461.201 -56.3602 463.648 -60.2971C466.043 -64.1525 468 -68.5791 468 -73C468 -88.464 455.464 -101 440 -101C424.536 -101 412 -88.464 412 -73C412 -68.5791 413.957 -64.1525 416.352 -60.2971C418.798 -56.3602 421.996 -52.5557 425.094 -49.2807C427.338 -46.9088 429.574 -44.7674 431.514 -43H404V-35ZM20 67C8.9543 67 0 75.9543 0 87C0 89.2065 1.04302 92.0936 3.1476 95.4809C5.20149 98.7866 8.00379 102.154 10.9059 105.222C13.7933 108.274 16.6944 110.942 18.8808 112.851C19.2801 113.199 19.6547 113.522 20 113.816C20.3453 113.522 20.7199 113.199 21.1192 112.851C23.3056 110.942 26.2067 108.274 29.0941 105.222C31.9962 102.154 34.7985 98.7866 36.8524 95.4809C38.957 92.0936 40 89.2065 40 87C40 75.9543 31.0457 67 20 67ZM15.8052 123.233L-16 125V117H11.5144C9.57404 115.233 7.33761 113.091 5.09406 110.719C1.99621 107.444 -1.20149 103.64 -3.6476 99.7029C-6.04302 95.8475 -8 91.4209 -8 87C-8 71.536 4.53603 59 20 59C35.464 59 48 71.536 48 87C48 91.4209 46.043 95.8475 43.6476 99.7029C41.2015 103.64 38.0038 107.444 34.9059 110.719C32.6624 113.091 30.426 115.233 28.4856 117H56V125L24.1948 123.233L26 181H14L15.8052 123.233ZM120 87C120 75.9543 128.954 67 140 67C151.046 67 160 75.9543 160 87C160 89.2065 158.957 92.0936 156.852 95.4809C154.799 98.7866 151.996 102.154 149.094 105.222C146.207 108.274 143.306 110.942 141.119 112.851C140.72 113.199 140.345 113.522 140 113.816C139.655 113.522 139.28 113.199 138.881 112.851C136.694 110.942 133.793 108.274 130.906 105.222C128.004 102.154 125.201 98.7866 123.148 95.4809C121.043 92.0936 120 89.2065 120 87ZM104 125L135.805 123.233L134 181H146L144.195 123.233L176 125V117H148.486C150.426 115.233 152.662 113.091 154.906 110.719C158.004 107.444 161.201 103.64 163.648 99.7029C166.043 95.8475 168 91.4209 168 87C168 71.536 155.464 59 140 59C124.536 59 112 71.536 112 87C112 91.4209 113.957 95.8475 116.352 99.7029C118.799 103.64 121.996 107.444 125.094 110.719C127.338 113.091 129.574 115.233 131.514 117H104V125ZM260 67C248.954 67 240 75.9543 240 87C240 89.2065 241.043 92.0936 243.148 95.4809C245.202 98.7866 248.004 102.154 250.906 105.222C253.793 108.274 256.694 110.942 258.881 112.851C259.28 113.199 259.655 113.522 260 113.816C260.345 113.522 260.72 113.199 261.119 112.851C263.306 110.942 266.207 108.274 269.094 105.222C271.996 102.154 274.799 98.7866 276.852 95.4809C278.957 92.0936 280 89.2065 280 87C280 75.9543 271.046 67 260 67ZM255.805 123.233L224 125V117H251.514C249.574 115.233 247.338 113.091 245.094 110.719C241.996 107.444 238.798 103.64 236.352 99.7029C233.957 95.8475 232 91.4209 232 87C232 71.536 244.536 59 260 59C275.464 59 288 71.536 288 87C288 91.4209 286.043 95.8475 283.648 99.7029C281.201 103.64 278.004 107.444 274.906 110.719C272.662 113.091 270.426 115.233 268.486 117H296V125L264.195 123.233L266 181H254L255.805 123.233ZM360 87C360 75.9543 368.954 67 380 67C391.046 67 400 75.9543 400 87C400 89.2065 398.957 92.0936 396.852 95.4809C394.799 98.7866 391.996 102.154 389.094 105.222C386.207 108.274 383.306 110.942 381.119 112.851C380.72 113.199 380.345 113.522 380 113.816C379.802 113.648 379.595 113.47 379.379 113.284L379.183 113.113C379.084 113.028 378.983 112.94 378.881 112.851C376.694 110.942 373.793 108.274 370.906 105.222C368.004 102.154 365.202 98.7866 363.148 95.4809C361.043 92.0936 360 89.2065 360 87ZM344 125L375.805 123.233L374 181H386L384.195 123.233L416 125V117H388.486C390.426 115.233 392.662 113.091 394.906 110.719C398.004 107.444 401.201 103.64 403.648 99.7029C406.043 95.8475 408 91.4209 408 87C408 71.536 395.464 59 380 59C364.536 59 352 71.536 352 87C352 91.4209 353.957 95.8475 356.352 99.7029C358.798 103.64 361.996 107.444 365.094 110.719C367.338 113.091 369.574 115.233 371.514 117H344V125ZM500 67C488.954 67 480 75.9543 480 87C480 89.2065 481.043 92.0936 483.148 95.4809C485.201 98.7866 488.004 102.154 490.906 105.222C493.793 108.274 496.694 110.942 498.881 112.851C499.114 113.055 499.339 113.25 499.555 113.435C499.708 113.567 499.857 113.694 500 113.816C500.345 113.522 500.72 113.199 501.119 112.851C503.306 110.942 506.207 108.274 509.094 105.222C511.996 102.154 514.799 98.7866 516.852 95.4809C518.957 92.0936 520 89.2065 520 87C520 75.9543 511.046 67 500 67ZM495.805 123.233L464 125V117H491.514C489.574 115.233 487.338 113.091 485.094 110.719C481.996 107.444 478.799 103.64 476.352 99.7029C473.957 95.8475 472 91.4209 472 87C472 71.536 484.536 59 500 59C515.464 59 528 71.536 528 87C528 91.4209 526.043 95.8475 523.648 99.7029C521.201 103.64 518.004 107.444 514.906 110.719C512.662 113.091 510.426 115.233 508.486 117H536V125L504.195 123.233L506 181H494L495.805 123.233ZM-40 227C-51.0457 227 -60 235.954 -60 247C-60 249.207 -58.957 252.094 -56.8524 255.481C-54.7985 258.787 -51.9962 262.154 -49.0941 265.222C-46.2067 268.274 -43.3056 270.942 -41.1192 272.851C-40.7199 273.199 -40.3453 273.522 -40 273.816C-39.6547 273.522 -39.2801 273.199 -38.8808 272.851C-36.6944 270.942 -33.7933 268.274 -30.9059 265.222C-28.0038 262.154 -25.2015 258.787 -23.1476 255.481C-21.043 252.094 -20 249.207 -20 247C-20 235.954 -28.9543 227 -40 227ZM-44.1948 283.233L-76 285V277H-48.4856C-50.426 275.233 -52.6624 273.091 -54.9059 270.719C-58.0038 267.444 -61.2015 263.64 -63.6476 259.703C-66.043 255.848 -68 251.421 -68 247C-68 231.536 -55.464 219 -40 219C-24.536 219 -12 231.536 -12 247C-12 251.421 -13.957 255.848 -16.3524 259.703C-18.7985 263.64 -21.9962 267.444 -25.0941 270.719C-27.3376 273.091 -29.574 275.233 -31.5144 277H-4V285L-35.8052 283.233L-34 341H-46L-44.1948 283.233ZM80 227C68.9543 227 60 235.954 60 247C60 249.207 61.043 252.094 63.1476 255.481C65.2015 258.787 68.0038 262.154 70.9059 265.222C73.7933 268.274 76.6944 270.942 78.8808 272.851C79.2801 273.199 79.6547 273.522 80 273.816C80.3453 273.522 80.7199 273.199 81.1192 272.851C83.3056 270.942 86.2067 268.274 89.0941 265.222C91.9962 262.154 94.7985 258.787 96.8524 255.481C98.957 252.094 100 249.207 100 247C100 235.954 91.0457 227 80 227ZM75.8052 283.233L44 285V277H71.5144C69.574 275.233 67.3376 273.091 65.0941 270.719C61.9962 267.444 58.7985 263.64 56.3524 259.703C53.957 255.848 52 251.421 52 247C52 231.536 64.536 219 80 219C95.464 219 108 231.536 108 247C108 251.421 106.043 255.848 103.648 259.703C101.201 263.64 98.0038 267.444 94.9059 270.719C92.6624 273.091 90.426 275.233 88.4856 277H116V285L84.1948 283.233L86 341H74L75.8052 283.233ZM180 247C180 235.954 188.954 227 200 227C211.046 227 220 235.954 220 247C220 249.207 218.957 252.094 216.852 255.481C214.799 258.787 211.996 262.154 209.094 265.222C206.207 268.274 203.306 270.942 201.119 272.851C200.72 273.199 200.345 273.522 200 273.816C199.655 273.522 199.28 273.199 198.881 272.851C196.694 270.942 193.793 268.274 190.906 265.222C188.004 262.154 185.202 258.787 183.148 255.481C181.043 252.094 180 249.207 180 247ZM164 285L195.805 283.233L194 341H206L204.195 283.233L236 285V277H208.486C210.426 275.233 212.662 273.091 214.906 270.719C218.004 267.444 221.201 263.64 223.648 259.703C226.043 255.848 228 251.421 228 247C228 231.536 215.464 219 200 219C184.536 219 172 231.536 172 247C172 251.421 173.957 255.848 176.352 259.703C178.799 263.64 181.996 267.444 185.094 270.719C187.338 273.091 189.574 275.233 191.514 277H164V285ZM320 227C308.954 227 300 235.954 300 247C300 249.207 301.043 252.094 303.148 255.481C305.202 258.787 308.004 262.154 310.906 265.222C313.793 268.274 316.694 270.942 318.881 272.851C319.28 273.199 319.655 273.522 320 273.816C320.345 273.522 320.72 273.199 321.119 272.851C323.306 270.942 326.207 268.274 329.094 265.222C331.996 262.154 334.799 258.787 336.852 255.481C338.957 252.094 340 249.207 340 247C340 235.954 331.046 227 320 227ZM315.805 283.233L284 285V277H311.514C309.574 275.233 307.338 273.091 305.094 270.719C301.996 267.444 298.798 263.64 296.352 259.703C293.957 255.848 292 251.421 292 247C292 231.536 304.536 219 320 219C335.464 219 348 231.536 348 247C348 251.421 346.043 255.848 343.648 259.703C341.201 263.64 338.004 267.444 334.906 270.719C332.662 273.091 330.426 275.233 328.486 277H356V285L324.195 283.233L326 341H314L315.805 283.233ZM420 247C420 235.954 428.954 227 440 227C451.046 227 460 235.954 460 247C460 249.207 458.957 252.094 456.852 255.481C454.799 258.787 451.996 262.154 449.094 265.222C446.207 268.274 443.306 270.942 441.119 272.851C440.72 273.199 440.345 273.522 440 273.816C439.655 273.522 439.28 273.199 438.881 272.851C436.694 270.942 433.793 268.274 430.906 265.222C428.004 262.154 425.202 258.787 423.148 255.481C421.043 252.094 420 249.207 420 247ZM404 285L435.805 283.233L434 341H446L444.195 283.233L476 285V277H448.486C450.426 275.233 452.662 273.091 454.906 270.719C458.004 267.444 461.201 263.64 463.648 259.703C466.043 255.848 468 251.421 468 247C468 231.536 455.464 219 440 219C424.536 219 412 231.536 412 247C412 251.421 413.957 255.848 416.352 259.703C418.798 263.64 421.996 267.444 425.094 270.719C427.338 273.091 429.574 275.233 431.514 277H404V285ZM20 387C8.9543 387 0 395.954 0 407C0 409.207 1.04302 412.094 3.1476 415.481C5.20149 418.787 8.00379 422.154 10.9059 425.222C13.7933 428.274 16.6944 430.942 18.8808 432.851C19.2801 433.199 19.6547 433.522 20 433.816C20.3453 433.522 20.7199 433.199 21.1192 432.851C23.3056 430.942 26.2067 428.274 29.0941 425.222C31.9962 422.154 34.7985 418.787 36.8524 415.481C38.957 412.094 40 409.207 40 407C40 395.954 31.0457 387 20 387ZM15.8052 443.233L-16 445V437H11.5144C9.57404 435.233 7.33761 433.091 5.09406 430.719C1.99621 427.444 -1.20149 423.64 -3.6476 419.703C-6.04302 415.848 -8 411.421 -8 407C-8 391.536 4.53603 379 20 379C35.464 379 48 391.536 48 407C48 411.421 46.043 415.848 43.6476 419.703C41.2015 423.64 38.0038 427.444 34.9059 430.719C32.6624 433.091 30.426 435.233 28.4856 437H56V445L24.1948 443.233L26 501H14L15.8052 443.233ZM120 407C120 395.954 128.954 387 140 387C151.046 387 160 395.954 160 407C160 409.207 158.957 412.094 156.852 415.481C154.799 418.787 151.996 422.154 149.094 425.222C146.207 428.274 143.306 430.942 141.119 432.851C140.72 433.199 140.345 433.522 140 433.816C139.655 433.522 139.28 433.199 138.881 432.851C136.694 430.942 133.793 428.274 130.906 425.222C128.004 422.154 125.201 418.787 123.148 415.481C121.043 412.094 120 409.207 120 407ZM104 445L135.805 443.233L134 501H146L144.195 443.233L176 445V437H148.486C150.426 435.233 152.662 433.091 154.906 430.719C158.004 427.444 161.201 423.64 163.648 419.703C166.043 415.848 168 411.421 168 407C168 391.536 155.464 379 140 379C124.536 379 112 391.536 112 407C112 411.421 113.957 415.848 116.352 419.703C118.799 423.64 121.996 427.444 125.094 430.719C127.338 433.091 129.574 435.233 131.514 437H104V445ZM260 387C248.954 387 240 395.954 240 407C240 409.207 241.043 412.094 243.148 415.481C245.202 418.787 248.004 422.154 250.906 425.222C253.793 428.274 256.694 430.942 258.881 432.851C259.28 433.199 259.655 433.522 260 433.816C260.231 433.62 260.475 433.41 260.73 433.189C260.857 433.079 260.987 432.966 261.119 432.851C263.306 430.942 266.207 428.274 269.094 425.222C271.996 422.154 274.799 418.787 276.852 415.481C278.957 412.094 280 409.207 280 407C280 395.954 271.046 387 260 387ZM255.805 443.233L224 445V437H251.514C249.574 435.233 247.338 433.091 245.094 430.719C241.996 427.444 238.798 423.64 236.352 419.703C233.957 415.848 232 411.421 232 407C232 391.536 244.536 379 260 379C275.464 379 288 391.536 288 407C288 411.421 286.043 415.848 283.648 419.703C281.201 423.64 278.004 427.444 274.906 430.719C272.662 433.091 270.426 435.233 268.486 437H296V445L264.195 443.233L266 501H254L255.805 443.233ZM360 407C360 395.954 368.954 387 380 387C391.046 387 400 395.954 400 407C400 409.207 398.957 412.094 396.852 415.481C394.799 418.787 391.996 422.154 389.094 425.222C386.207 428.274 383.306 430.942 381.119 432.851C380.72 433.199 380.345 433.522 380 433.816C379.802 433.648 379.595 433.47 379.379 433.284L379.183 433.113L379.003 432.957L378.881 432.851C376.694 430.942 373.793 428.274 370.906 425.222C368.004 422.154 365.202 418.787 363.148 415.481C361.043 412.094 360 409.207 360 407ZM344 445L375.805 443.233L374 501H386L384.195 443.233L416 445V437H388.486C390.426 435.233 392.662 433.091 394.906 430.719C398.004 427.444 401.201 423.64 403.648 419.703C406.043 415.848 408 411.421 408 407C408 391.536 395.464 379 380 379C364.536 379 352 391.536 352 407C352 411.421 353.957 415.848 356.352 419.703C358.798 423.64 361.996 427.444 365.094 430.719C367.338 433.091 369.574 435.233 371.514 437H344V445ZM500 387C488.954 387 480 395.954 480 407C480 409.207 481.043 412.094 483.148 415.481C485.201 418.787 488.004 422.154 490.906 425.222C493.793 428.274 496.694 430.942 498.881 432.851C499.28 433.199 499.655 433.522 500 433.816C500.345 433.522 500.72 433.199 501.119 432.851C503.306 430.942 506.207 428.274 509.094 425.222C511.996 422.154 514.799 418.787 516.852 415.481C518.957 412.094 520 409.207 520 407C520 395.954 511.046 387 500 387ZM495.805 443.233L464 445V437H491.514C489.574 435.233 487.338 433.091 485.094 430.719C481.996 427.444 478.799 423.64 476.352 419.703C473.957 415.848 472 411.421 472 407C472 391.536 484.536 379 500 379C515.464 379 528 391.536 528 407C528 411.421 526.043 415.848 523.648 419.703C521.201 423.64 518.004 427.444 514.906 430.719C512.662 433.091 510.426 435.233 508.486 437H536V445L504.195 443.233L506 501H494L495.805 443.233Z" fill="#595959"/>
</g>
<defs>
<clipPath id="clip0_259_224081">
<rect width="400" height="400" rx="200" fill="white"/>
</clipPath>
</defs>
</svg>
