<svg width="1em" height="1em" viewBox="0 0 400 400" fill="none" xmlns="http://www.w3.org/2000/svg">
<g clip-path="url(#clip0_259_222871)">
<path fill-rule="evenodd" clip-rule="evenodd" d="M154.17 81.0376L153.677 80.9281C147.962 79.6581 142.038 79.6581 136.323 80.9281L108.677 87.0716C102.962 88.3416 97.0379 88.3416 91.3228 87.0716L63.6772 80.9281C57.9621 79.6581 52.0379 79.6581 46.3228 80.9281L14.3451 88.0342C11.8063 88.5984 10 90.8502 10 93.451C10 96.5155 12.4843 98.9998 15.5489 98.9998H47.1221C52.3162 98.9998 57.4525 100.09 62.1989 102.199L92.243 115.552C97.3574 117.825 102.892 119 108.489 119L141.269 115C141.852 115 142.435 115.015 143.016 115.045C143.005 114.709 143 114.373 143 114.037V111.139C143 100.692 146.556 90.5554 153.082 82.3972L154.17 81.0376ZM151.556 140.859C153.253 143.411 156.138 145 159.286 145C165.855 145 170.346 138.366 167.907 132.267L164.153 122.884C163.391 120.979 163 118.946 163 116.894V107.5C163 99.4525 164.496 91.4772 167.411 83.9801L174.712 85.6024C183.428 87.5395 189.691 95.1309 189.989 104H190V130H210V104H210.011C210.309 95.1309 216.572 87.5395 225.288 85.6024L232.589 83.9801C235.504 91.4772 237 99.4525 237 107.5V116.894C237 118.946 236.609 120.979 235.847 122.884L232.093 132.267C229.654 138.366 234.145 145 240.714 145C243.862 145 246.747 143.411 248.444 140.859C259.428 148.299 268.668 158.239 275.29 170H124.71C131.332 158.239 140.572 148.299 151.556 140.859ZM256.984 115.045C257.565 115.015 258.148 115 258.731 115L291.511 119C297.108 119 302.643 117.825 307.757 115.552L337.801 102.199C342.548 100.09 347.684 98.9998 352.878 98.9998H384.451C387.516 98.9998 390 96.5155 390 93.451C390 90.8502 388.194 88.5984 385.655 88.0342L353.677 80.9281C347.962 79.6581 342.038 79.6581 336.323 80.9281L308.677 87.0716C302.962 88.3416 297.038 88.3416 291.323 87.0716L263.677 80.9281C257.962 79.6581 252.038 79.6581 246.323 80.9281L245.83 81.0376L246.918 82.3972C253.444 90.5554 257 100.692 257 111.139V114.037C257 114.373 256.995 114.709 256.984 115.045ZM111.408 210L101.127 250H138.973C138.774 249.619 138.58 249.236 138.394 248.849C141.374 243.488 147.079 240 153.442 240H222V210H111.408ZM165.891 291.639C165.793 291.089 165.684 290.543 165.564 290H90.8451L80.5634 330H319.437L309.155 290H234.435C234.315 290.543 234.206 291.089 234.108 291.639L232.41 301.192C230.156 313.873 216.584 321.108 204.746 316.034C201.727 314.74 198.272 314.74 195.253 316.034C183.415 321.108 169.844 313.873 167.589 301.192L165.891 291.639ZM261.606 248.849C261.419 249.236 261.226 249.619 261.026 250H298.873L288.592 210H242.583L226.333 240H246.558C252.92 240 258.625 243.488 261.606 248.849ZM329.718 370H70.2817L60 410H340L329.718 370Z" fill="white" fill-opacity="0.4"/>
<path fill-rule="evenodd" clip-rule="evenodd" d="M133.84 168.987C131.428 172.808 130.372 177.35 130.875 181.872L134.651 215.855C135.53 223.771 138.753 231.244 143.906 237.317L157.009 252.761C161.588 258.157 164.653 264.671 165.891 271.638L167.59 281.192C169.844 293.873 183.416 301.107 195.254 296.034C198.272 294.74 201.728 294.74 204.746 296.034C216.584 301.107 230.156 293.873 232.41 281.192L234.109 271.638C235.347 264.671 238.412 258.157 242.991 252.761L252.819 241.178C256.53 242.628 259.653 245.336 261.605 248.849C260.141 251.877 258.293 254.725 256.094 257.317L242.99 272.761C238.412 278.157 235.347 284.671 234.108 291.639L232.41 301.192C230.155 313.873 216.584 321.108 204.746 316.034C201.727 314.74 198.272 314.74 195.253 316.034C183.415 321.108 169.843 313.873 167.589 301.192L165.891 291.639C164.652 284.671 161.587 278.157 157.009 272.761L143.905 257.317C141.705 254.725 139.858 251.877 138.394 248.849C137.673 250.145 137.112 251.549 136.74 253.041L131.828 272.687C120.74 317.038 154.284 360 200 360C245.715 360 279.259 317.038 268.172 272.687L263.26 253.041C261.876 247.505 257.899 243.162 252.819 241.177L256.094 237.317C261.247 231.244 264.47 223.771 265.349 215.855L269.125 181.872C269.628 177.35 268.572 172.808 266.16 168.987C275.905 170.041 285.771 168.691 294.891 165.043L330 151L317.916 146.972C306.134 143.045 293.599 141.914 281.304 143.671L250.164 148.119C241.181 138.349 229.5 131.375 216.528 128.132C205.676 125.419 194.324 125.419 183.472 128.132C170.5 131.375 158.819 138.349 149.836 148.119L118.696 143.671C106.401 141.914 93.866 143.045 82.0837 146.972L70 151L105.109 165.043C114.229 168.691 124.095 170.041 133.84 168.987ZM222 200H248L222 248V200Z" fill="white"/>
</g>
<defs>
<clipPath id="clip0_259_222871">
<rect width="400" height="400" rx="200" fill="white"/>
</clipPath>
</defs>
</svg>
