<svg width="1em" height="1em" viewBox="0 0 400 400" fill="none" xmlns="http://www.w3.org/2000/svg">
<path fill-rule="evenodd" clip-rule="evenodd" d="M105.021 170.872C105.915 167.151 107.014 163.524 108.306 160H291.694C292.986 163.524 294.086 167.151 294.979 170.872L301.974 200H220.741L220 192H236C242.627 192 248 186.627 248 180H232C225.373 180 220 185.373 220 192L200 180L180 192L179.26 200H98.0265L105.021 170.872ZM88.4213 240H175.556L174.662 249.654C174.994 249.773 175.328 249.889 175.664 250H175C168.134 250 162.345 254.613 160.564 260.908C166.538 266.631 174.27 270.491 182.833 271.659L184.621 271.903L185.37 280H78.816L88.4213 240ZM225.339 249.654C225.007 249.773 224.673 249.889 224.337 250H225C231.866 250 237.654 254.613 239.435 260.909C233.462 266.631 225.73 270.491 217.167 271.659L215.379 271.903L214.63 280H321.184L311.579 240H224.445L225.339 249.654ZM200 96C224.255 96 246.811 104.93 264.13 120H135.87C153.19 104.93 175.746 96 200 96ZM189.074 320H69.2107L59.6055 360H340.395L330.79 320H210.926L210.922 320.043C210.4 325.685 205.666 330 200 330C194.334 330 189.6 325.685 189.078 320.043L189.074 320Z" fill="white" fill-opacity="0.4"/>
<path fill-rule="evenodd" clip-rule="evenodd" d="M170 20H186V123.781C195.286 122.469 204.714 122.469 214 123.781V20H230L247.6 134.4L260.607 139.974C266.021 142.295 268.95 148.201 267.522 153.915L250.569 221.727C247.293 234.829 237.705 245.194 225.339 249.654L220.001 192L220 192H236C242.627 192 248 186.627 248 180H232C225.373 180 220 185.373 220 192L210.922 290.043C210.4 295.684 205.666 300 200 300C194.334 300 189.6 295.684 189.078 290.043L185.558 252.031L182.835 251.659L185.549 251.929L180 192.005L174.663 249.654C175.09 249.808 175.521 249.955 175.955 250.095C162.967 245.908 152.821 235.282 149.432 221.727L132.479 153.915C131.051 148.201 133.98 142.295 139.394 139.974L152.4 134.4L170 20ZM160 265C160 263.582 160.197 262.209 160.565 260.909C166.538 266.631 174.27 270.491 182.833 271.659L184.621 271.903L189.078 320.043C189.6 325.685 194.334 330 200 330C205.666 330 210.4 325.685 210.922 320.043L215.379 271.903L217.167 271.659C225.73 270.491 233.462 266.631 239.435 260.909C239.168 259.967 238.812 259.062 238.376 258.204C239.414 260.244 240 262.554 240 265V300C240 322.091 222.091 340 200 340C177.909 340 160 322.091 160 300V265Z" fill="white"/>
</svg>
