<svg width="1em" height="1em" viewBox="0 0 400 400" fill="none" xmlns="http://www.w3.org/2000/svg">
<g clip-path="url(#clip0_259_223904)">
<rect width="400" height="400" rx="200" fill="white"/>
<path fill-rule="evenodd" clip-rule="evenodd" d="M-184 101L-124 29L-64 101H-184ZM-175.46 97L-124 35.2482L-72.5402 97H-175.46ZM-100 85.8L-124 57L-148 85.8H-100ZM4 29L-56 101H64L4 29ZM4 35.2482L-47.4598 97H55.4598L4 35.2482ZM28 85.8L4 57L-20 85.8H28ZM132 29L72 101H192L132 29ZM132 35.2482L80.5402 97H183.46L132 35.2482ZM156 85.8L132 57L108 85.8H156ZM260 29L200 101H320L260 29ZM260 35.2482L208.54 97H311.46L260 35.2482ZM284 85.8L260 57L236 85.8H284ZM388 29L328 101H448L388 29ZM388 35.2482L336.54 97H439.46L388 35.2482ZM412 85.8L388 57L364 85.8H412ZM516 29L456 101H576L516 29ZM516 35.2482L464.54 97H567.46L516 35.2482ZM540 85.8L516 57L492 85.8H540ZM644 29L584 101H704L644 29ZM644 35.2482L592.54 97H695.46L644 35.2482ZM668 85.8L644 57L620 85.8H668ZM-244 191L-184 119L-124 191H-244ZM-235.46 187L-184 125.248L-132.54 187H-235.46ZM-160 175.8L-184 147L-208 175.8H-160ZM-56 119L-116 191H4L-56 119ZM-56 125.248L-107.46 187H-4.54016L-56 125.248ZM-32 175.8L-56 147L-80 175.8H-32ZM72 119L12 191H132L72 119ZM72 125.248L20.5402 187H123.46L72 125.248ZM96 175.8L72 147L48 175.8H96ZM200 119L140 191H260L200 119ZM200 125.248L148.54 187H251.46L200 125.248ZM224 175.8L200 147L176 175.8H224ZM328 119L268 191H388L328 119ZM328 125.248L276.54 187H379.46L328 125.248ZM352 175.8L328 147L304 175.8H352ZM456 119L396 191H516L456 119ZM456 125.248L404.54 187H507.46L456 125.248ZM480 175.8L456 147L432 175.8H480ZM584 119L524 191H644L584 119ZM584 125.248L532.54 187H635.46L584 125.248ZM608 175.8L584 147L560 175.8H608ZM-184 281L-124 209L-64 281H-184ZM-175.46 277L-124 215.248L-72.5402 277H-175.46ZM-100 265.8L-124 237L-148 265.8H-100ZM4 209L-56 281H64L4 209ZM4 215.248L-47.4598 277H55.4598L4 215.248ZM28 265.8L4 237L-20 265.8H28ZM132 209L72 281H192L132 209ZM132 215.248L80.5402 277H183.46L132 215.248ZM156 265.8L132 237L108 265.8H156ZM260 209L200 281H320L260 209ZM260 215.248L208.54 277H311.46L260 215.248ZM284 265.8L260 237L236 265.8H284ZM388 209L328 281H448L388 209ZM388 215.248L336.54 277H439.46L388 215.248ZM412 265.8L388 237L364 265.8H412ZM516 209L456 281H576L516 209ZM516 215.248L464.54 277H567.46L516 215.248ZM540 265.8L516 237L492 265.8H540ZM644 209L584 281H704L644 209ZM644 215.248L592.54 277H695.46L644 215.248ZM668 265.8L644 237L620 265.8H668ZM-244 371L-184 299L-124 371H-244ZM-235.46 367L-184 305.248L-132.54 367H-235.46ZM-160 355.8L-184 327L-208 355.8H-160ZM-56 299L-116 371H4L-56 299ZM-56 305.248L-107.46 367H-4.54016L-56 305.248ZM-32 355.8L-56 327L-80 355.8H-32ZM72 299L12 371H132L72 299ZM72 305.248L20.5402 367H123.46L72 305.248ZM96 355.8L72 327L48 355.8H96ZM200 299L140 371H260L200 299ZM200 305.248L148.54 367H251.46L200 305.248ZM224 355.8L200 327L176 355.8H224ZM328 299L268 371H388L328 299ZM328 305.248L276.54 367H379.46L328 305.248ZM352 355.8L328 327L304 355.8H352ZM456 299L396 371H516L456 299ZM456 305.248L404.54 367H507.46L456 305.248ZM480 355.8L456 327L432 355.8H480ZM584 299L524 371H644L584 299ZM584 305.248L532.54 367H635.46L584 305.248ZM608 355.8L584 327L560 355.8H608Z" fill="#595959"/>
</g>
<defs>
<clipPath id="clip0_259_223904">
<rect width="400" height="400" rx="200" fill="white"/>
</clipPath>
</defs>
</svg>
