<svg width="1em" height="1em" viewBox="0 0 400 400" fill="none" xmlns="http://www.w3.org/2000/svg">
<path fill-rule="evenodd" clip-rule="evenodd" d="M124.836 71.3407C126.544 70.401 128.266 69.4956 130 68.6245V98.9999L122.05 79.1242C120.879 76.1984 122.075 72.8593 124.836 71.3407ZM170 124V54.9444C163.251 56.2667 156.569 58.0395 150 60.2629V124H140L138.4 120H99.5749C94.7554 129.302 91.3374 139.497 89.6186 150.328L88.0838 160H311.916L310.381 150.328C308.663 139.497 305.245 129.302 300.425 120H261.6L260 124H250V60.2628C243.431 58.0394 236.749 56.2666 230 54.9443V124H210V52.3548C203.34 51.9273 196.66 51.9273 190 52.3548V124H170ZM270 99.0006V68.6244C271.734 69.4955 273.456 70.4009 275.165 71.3407C277.926 72.8593 279.121 76.1984 277.951 79.1242L270 99.0006ZM81.7365 200H318.263L324.611 240H75.3892L81.7365 200ZM69.0419 280H330.958L337.305 320H236.556L260 311.021V305C260 296.716 253.284 290 245 290H155C146.716 290 140 296.716 140 305V311.021L163.444 320H62.6946L69.0419 280ZM56.3473 360H343.653L350 400H50L56.3473 360ZM232 222C232 210.954 240.954 202 252 202H276C276 213.046 267.046 222 256 222H232Z" fill="white" fill-opacity="0.4"/>
<path fill-rule="evenodd" clip-rule="evenodd" d="M87 104L129.568 97.9189L140 124H260L270.432 97.9189L313 104C309.696 120.521 295.97 131.442 280.832 132.776C281.614 135.97 282.154 139.24 282.438 142.561L291.44 248.009C292.956 265.77 282.537 282.39 265.89 288.765L235.765 300.303C234.187 300.907 232.598 301.47 231 301.991V298C231 294.686 228.313 292 225 292C221.686 292 219 294.686 219 298V305.096C206.451 307.524 193.549 307.524 181 305.096V298C181 294.686 178.313 292 175 292C171.686 292 169 294.686 169 298V301.991C167.401 301.47 165.812 300.907 164.235 300.303L134.109 288.765C117.463 282.39 107.044 265.769 108.56 248.009L117.562 142.561C117.845 139.24 118.385 135.97 119.167 132.776C104.03 131.442 90.3042 120.521 87 104ZM252 202C240.954 202 232 210.954 232 222H256C267.046 222 276 213.046 276 202H252ZM140 320V311.021L164.235 320.303C187.263 329.122 212.737 329.122 235.765 320.303L260 311.021V320C260 353.137 233.137 380 200 380C166.863 380 140 353.137 140 320Z" fill="white"/>
</svg>
