<svg width="1em" height="1em" viewBox="0 0 400 400" fill="none" xmlns="http://www.w3.org/2000/svg">
<g clip-path="url(#clip0_259_223132)">
<path fill-rule="evenodd" clip-rule="evenodd" d="M94.0447 162.09C93.0432 160.087 92.1116 158.056 91.2505 156H116.8L120 164H280L283.2 156H308.749C307.887 158.056 306.956 160.087 305.954 162.09L290 194H110L94.0447 162.09ZM291.789 116H316.502C316.443 111.64 316.098 107.272 315.463 102.924L311.532 76H283.761C289.209 88.7628 291.889 102.385 291.789 116ZM266.667 36H305.693L300 -3H250L266.667 36ZM150 -3H99.9996L94.3061 36H133.333L150 -3ZM116.239 76C110.791 88.7628 108.111 102.385 108.211 116H83.4967C83.5564 111.64 83.9014 107.272 84.5363 102.924L88.4667 76H116.239Z" fill="white" fill-opacity="0.4"/>
<path fill-rule="evenodd" clip-rule="evenodd" d="M128 164H272V172H277.787L284.583 172C289.129 172 293.284 174.568 295.317 178.633L295.779 179.558C298.451 184.903 298.594 191.164 296.166 196.625L289.279 212.123C286.069 219.345 278.906 224 271.002 224H263.404L257.971 243.644C255.409 252.904 249.601 260.933 241.606 266.262L211.094 286.604C204.376 291.083 195.624 291.083 188.906 286.604L158.394 266.262C150.399 260.933 144.59 252.904 142.029 243.644L136.596 224H128.997C121.094 224 113.931 219.345 110.721 212.123L103.833 196.625C101.406 191.164 101.548 184.903 104.221 179.558L104.683 178.633C106.716 174.568 110.871 172 115.416 172L122.213 172H128V164ZM160 287.333V320C160 342.092 177.909 360 200 360C222.091 360 240 342.092 240 320V287.333L211.094 306.604C204.376 311.083 195.624 311.083 188.906 306.604L160 287.333ZM248 200H212V248L248 200Z" fill="white"/>
</g>
<defs>
<clipPath id="clip0_259_223132">
<rect width="400" height="400" rx="200" fill="white"/>
</clipPath>
</defs>
</svg>
