<svg width="1em" height="1em" viewBox="0 0 400 400" fill="none" xmlns="http://www.w3.org/2000/svg">
<path fill-rule="evenodd" clip-rule="evenodd" d="M180 152H140V86.1222C152.789 80.155 166.28 76.1992 180 74.2549V118.923L174 112C170.759 121.725 172.766 131.887 178.426 139.484L144 132L152.284 140.284C159.652 147.652 169.597 151.848 180 151.996V152ZM220 152V151.996C230.403 151.848 240.348 147.652 247.716 140.284L256 132L221.575 139.484C227.235 131.886 229.242 121.725 226 112L220 118.924V74.2549C233.72 76.1992 247.211 80.155 260 86.1222V152L220 152ZM96.8767 152L102.344 119.86L115.2 152H96.8767ZM297.657 119.859L284.8 152L303.124 152L297.657 119.859ZM90.0726 192L85.8907 216.585C85.0056 221.788 84.6419 226.943 84.7584 232H212V200H248L224 232H315.242C315.359 226.943 314.995 221.788 314.11 216.585L309.928 192H90.0726ZM232.488 272C236.978 274.592 240 279.443 240 285V287.334L211.094 306.604C204.376 311.083 195.624 311.083 188.906 306.604L160 287.334V285C160 279.443 163.022 274.592 167.512 272H96.6604C99.1229 275.982 101.927 279.74 105.036 283.229L109.462 312H160V309.862C161.573 309.954 163.159 310 164.758 310H235.243C236.842 310 238.428 309.954 240 309.862V312H290.539L294.965 283.229C298.074 279.74 300.878 275.982 303.34 272H232.488ZM240 352V392H278.231L284.385 352H240ZM160 392H121.77L115.616 352H160V392Z" fill="white" fill-opacity="0.4"/>
<path fill-rule="evenodd" clip-rule="evenodd" d="M188 135.042C188 129.109 189.489 123.271 192.33 118.062L200 104L207.67 118.062C210.511 123.271 212 129.109 212 135.042C212 135.557 211.978 136.069 211.934 136.576L244 122L241.787 126.427C239.873 130.255 237.378 133.71 234.426 136.69L221.48 139.504C217.196 140.436 213.117 142.06 209.395 144.293C207.694 147.074 205.228 149.386 202.199 150.9L200 152L197.801 150.9C194.772 149.386 192.306 147.074 190.605 144.293C186.883 142.06 182.804 140.436 178.52 139.504L165.574 136.69C162.622 133.71 160.127 130.255 158.213 126.427L156 122L188.066 136.576C188.022 136.069 188 135.557 188 135.042ZM272 172V164H128V172H122.213H121.962H115.416C110.871 172 106.716 174.568 104.683 178.633L104.221 179.558C101.548 184.903 101.406 191.164 103.833 196.625L110.721 212.123C113.931 219.345 121.094 224 128.997 224H136.596L142.029 243.644C144.59 252.904 150.399 260.933 158.393 266.262L188.906 286.604C195.624 291.083 204.376 291.083 211.094 286.604L241.606 266.262C249.6 260.933 255.409 252.904 257.971 243.644L263.404 224H271.002C278.906 224 286.069 219.345 289.279 212.123L296.166 196.625C298.594 191.164 298.451 184.903 295.779 179.558L295.317 178.633C293.284 174.568 289.129 172 284.583 172H278.038H277.787H272ZM120 164H120L120.001 164.006L120 164ZM212 200H248L212 248V200ZM160 287.333V320C160 342.092 177.909 360 200 360C222.091 360 240 342.092 240 320V287.333L211.094 306.604C204.376 311.083 195.624 311.083 188.906 306.604L160 287.333Z" fill="white"/>
</svg>
