<svg width="1em" height="1em" viewBox="0 0 400 400" fill="none" xmlns="http://www.w3.org/2000/svg">
<path fill-rule="evenodd" clip-rule="evenodd" d="M197.894 120V80.0001H197.894V77.3265L193.736 79.9461C160.46 81.4804 127.645 95.2487 102.643 121.251C101.058 122.899 100.683 125.366 101.705 127.411L108.908 141.816C105.204 146.915 102.004 152.337 99.3386 158H197.894V120H197.894ZM201.894 77.1934V79.8149L201.894 79.8149V158L201.894 158H300.662C297.996 152.337 294.796 146.915 291.092 141.815L298.294 127.411C299.316 125.366 298.941 122.899 297.356 121.251C272.354 95.249 239.54 81.4807 206.264 79.9461L201.894 77.1934ZM93.6788 228.155C91.0047 218.825 89.7457 209.353 89.8026 200H212V240H97.0733L93.6788 228.155ZM218 240H302.927L306.321 228.156C308.996 218.825 310.255 209.353 310.198 200H248L218 240ZM120 320L108.537 280H160.853C160.301 281.564 160 283.247 160 285V287.333L188.906 306.604C195.624 311.083 204.376 311.083 211.094 306.604L240 287.333V285C240 283.247 239.699 281.564 239.146 280H291.464L280 320H120Z" fill="white" fill-opacity="0.4"/>
<path fill-rule="evenodd" clip-rule="evenodd" d="M184.962 27.3327L197.895 19.25V151.028C193.788 150.811 189.708 149.925 185.821 148.371C170.404 142.204 160.797 126.717 162.121 110.165L166.29 58.0628C167.299 45.4415 174.225 34.0434 184.962 27.3327ZM201.895 19.25V151.028C206.002 150.811 210.081 149.925 213.968 148.371C229.386 142.204 238.992 126.717 237.668 110.165L233.5 58.0629C232.49 45.4415 225.564 34.0434 214.827 27.3327L201.895 19.25ZM272 164H128V172H122.213H121.962H115.416C110.871 172 106.716 174.568 104.683 178.633L104.221 179.558C101.548 184.903 101.406 191.164 103.833 196.625L110.721 212.123C113.931 219.345 121.094 224 128.997 224H136.596L142.029 243.644C144.59 252.904 150.399 260.933 158.393 266.262L188.906 286.604C195.624 291.083 204.376 291.083 211.094 286.604L241.606 266.262C249.6 260.933 255.409 252.904 257.971 243.644L263.404 224H271.002C278.906 224 286.069 219.345 289.279 212.123L296.166 196.625C298.594 191.164 298.451 184.903 295.779 179.558L295.317 178.633C293.284 174.568 289.129 172 284.583 172H278.038H277.787H272V164ZM248 200H212V248L248 200ZM160 287.333V320C160 342.092 177.909 360 200 360C222.091 360 240 342.092 240 320V287.333L211.094 306.604C204.376 311.083 195.624 311.083 188.906 306.604L160 287.333Z" fill="white"/>
</svg>
