<svg width="1em" height="1em" viewBox="0 0 400 400" fill="none" xmlns="http://www.w3.org/2000/svg">
<path fill-rule="evenodd" clip-rule="evenodd" d="M10 63.451C10 60.8502 11.8063 58.5984 14.3451 58.0342L46.3228 50.9281C52.0379 49.6581 57.9621 49.6581 63.6772 50.9281L91.3228 57.0716C97.0379 58.3416 102.962 58.3416 108.677 57.0716L136.323 50.9281C142.038 49.6581 147.962 49.6581 153.677 50.9281L174.712 55.6024C183.428 57.5395 189.691 65.1309 189.989 73.9998H190V93H162.491C159.086 89.004 154.187 86.3232 148.642 85.8091C146.221 85.2712 143.749 84.9998 141.269 84.9998L108.489 88.9998C102.892 88.9998 97.3574 87.8254 92.243 85.5523L62.1989 72.1993C57.4525 70.0898 52.3162 68.9998 47.1221 68.9998H15.5489C12.4843 68.9998 10 66.5155 10 63.451ZM168.107 113H190V124.908C189.007 125.768 188.124 126.759 187.377 127.857L183.2 134H170L168.107 113ZM212.623 127.857L216.8 134H230L231.893 113H210V124.908C210.993 125.768 211.876 126.759 212.623 127.857ZM224.852 344.963C223.249 345.546 221.631 346.07 220 346.537V400H260V191.828C258.179 192.694 256.18 193.256 254.066 193.449L244 194.364V317.625C244 329.857 236.348 340.783 224.852 344.963ZM242.648 176H260V166H238.459C240.309 169.138 241.715 172.504 242.648 176ZM156 186.312C156 179.152 157.921 172.141 161.541 166H140V400H180V346.537C178.369 346.07 176.751 345.546 175.148 344.963C163.652 340.783 156 329.857 156 317.625V186.312ZM210 93H237.509C240.914 89.004 245.813 86.3232 251.358 85.8091C253.779 85.2712 256.251 84.9998 258.731 84.9998L291.511 88.9998C297.108 88.9998 302.643 87.8254 307.757 85.5523L337.801 72.1993C342.548 70.0898 347.684 68.9998 352.878 68.9998H384.451C387.516 68.9998 390 66.5155 390 63.451C390 60.8502 388.194 58.5984 385.655 58.0342L353.677 50.9281C347.962 49.6581 342.038 49.6581 336.323 50.9281L308.677 57.0716C302.962 58.3416 297.038 58.3416 291.323 57.0716L263.677 50.9281C257.962 49.6581 252.038 49.6581 246.323 50.9281L225.288 55.6024C216.572 57.5395 210.309 65.1309 210.011 73.9998H210V93ZM100 239.726L60 367.945V400H100V239.726ZM300 400V239.726L340 367.945V400H300Z" fill="white" fill-opacity="0.4"/>
<path fill-rule="evenodd" clip-rule="evenodd" d="M125.996 149.3C119.632 158.659 117.531 170.275 120.213 181.271L151.889 311.145C152.736 314.618 154.137 317.875 156 320.814V327.625C156 339.857 163.652 350.783 175.148 354.963C191.202 360.801 208.798 360.801 224.852 354.963C236.348 350.783 244 339.857 244 327.625V320.815C245.863 317.876 247.264 314.618 248.111 311.145L279.788 181.271C282.47 170.275 280.368 158.659 274.004 149.3L255.39 121.926C251.982 116.915 246.487 113.719 240.446 113.236L201.595 110.128C200.534 110.043 199.467 110.043 198.405 110.128L159.554 113.236C153.514 113.719 148.018 116.915 144.611 121.926L125.996 149.3ZM243.787 321.147C240.003 326.96 234.395 331.493 227.696 333.929C226.472 334.374 225.239 334.789 224 335.173V323H216V337.213C205.441 339.34 194.56 339.34 184 337.213V323H176V335.173C174.761 334.789 173.529 334.374 172.305 333.929C165.605 331.493 159.997 326.96 156.213 321.146C157.522 331.915 164.768 341.188 175.148 344.963C191.202 350.801 208.798 350.801 224.852 344.963C235.231 341.189 242.478 331.916 243.787 321.147ZM226 188C226 181.373 231.373 176 238 176H270C270 185.062 263.09 192.628 254.066 193.449L226 196V188Z" fill="white"/>
</svg>
