<svg width="1em" height="1em" viewBox="0 0 400 400" fill="none" xmlns="http://www.w3.org/2000/svg">
<rect width="400" height="400" rx="200" fill="white"/>
<path fill-rule="evenodd" clip-rule="evenodd" d="M200 28C202.209 28 204 29.7909 204 32V40C204 42.2091 202.209 44 200 44C197.791 44 196 42.2091 196 40V32C196 29.7909 197.791 28 200 28ZM101.969 200L200 326.914L298.031 200L200 73.0859L101.969 200ZM91.8608 200L200 340.001L308.139 200L200 59.9989L91.8608 200ZM130.902 200L200 289.457L269.098 200L200 110.543L130.902 200ZM125.847 200L200 296.001L274.153 200L200 103.999L125.847 200ZM200 168L175.282 200L200 232L224.718 200L200 168ZM204 360C204 357.791 202.209 356 200 356C197.791 356 196 357.791 196 360V368C196 370.209 197.791 372 200 372C202.209 372 204 370.209 204 368V360ZM48 200C48 197.791 49.7909 196 52 196H76C78.2091 196 80 197.791 80 200C80 202.209 78.2091 204 76 204H52C49.7909 204 48 202.209 48 200ZM324 196C321.791 196 320 197.791 320 200C320 202.209 321.791 204 324 204H348C350.209 204 352 202.209 352 200C352 197.791 350.209 196 348 196H324Z" fill="#595959"/>
</svg>
