<svg width="1em" height="1em" viewBox="0 0 400 400" fill="none" xmlns="http://www.w3.org/2000/svg">
<g clip-path="url(#clip0_259_223518)">
<rect width="400" height="400" rx="200" fill="white"/>
<path fill-rule="evenodd" clip-rule="evenodd" d="M200 360V400C198.664 400 197.33 399.987 196 399.961V359.951C190.293 359.811 184.659 359.372 179.115 358.649L173.896 398.289L170.676 397.866C170.428 397.829 170.18 397.792 169.932 397.755L175.155 358.083C169.527 357.205 163.995 356.034 158.577 354.586L148.234 393.185L144.371 392.15L154.726 353.504C149.276 351.9 143.947 350.013 138.756 347.86L123.465 384.776L119.769 383.246L135.081 346.281C129.898 343.978 124.86 341.407 119.985 338.586L99.998 373.205L97.0465 371.501C96.8774 371.399 96.7085 371.297 96.5397 371.195L116.548 336.54C111.723 333.584 107.067 330.38 102.597 326.946L78.2532 358.671L76.5155 357.337C76.0412 356.964 75.5685 356.589 75.0976 356.212L99.4553 324.469C95.0601 320.914 90.857 317.131 86.8639 313.138L58.5806 341.421L58.0613 340.902C57.2944 340.13 56.5337 339.351 55.7793 338.566L84.0706 310.275C80.1798 306.186 76.5031 301.891 73.0585 297.409L41.3329 321.753L39.8611 319.834C39.5448 319.412 39.2301 318.989 38.917 318.564L70.6606 294.207C67.3374 289.652 64.2488 284.915 61.4129 280.013L26.7949 300L24.8765 296.677L24.7976 296.534L59.453 276.526C56.7571 271.585 54.3141 266.486 52.1414 261.247L15.2296 276.537L13.6989 272.841L50.6557 257.533C48.6346 252.29 46.8817 246.914 45.4137 241.422L6.81679 251.764L5.78151 247.9L44.4295 237.544C43.1192 232.095 42.0877 226.538 41.351 220.887L1.71461 226.105L1.3244 223.141C1.28586 222.807 1.24814 222.472 1.21125 222.137L40.8834 216.914C40.2994 211.356 40 205.713 40 200H0C0 198.664 0.0131082 197.33 0.0392029 196H40.049C40.1558 191.65 40.4361 187.344 40.8833 183.087L1.21115 177.864C1.25226 177.49 1.2944 177.117 1.33756 176.745L1.71269 173.895L41.3509 179.114C42.0875 173.463 43.119 167.906 44.4292 162.457L5.7776 152.1L6.81288 148.236L45.4134 158.579C46.8813 153.087 48.6341 147.711 50.655 142.469L13.695 127.159L15.2258 123.464L52.1407 138.754C54.3134 133.515 56.7564 128.416 59.4525 123.475L24.797 103.467L24.9198 103.244L26.793 100L61.4123 119.988C64.2486 115.086 67.3375 110.348 70.6612 105.793L38.9176 81.4348C39.2023 81.0487 39.4883 80.6636 39.7757 80.2796L41.3349 78.2477L73.0591 102.591C76.5036 98.1086 80.18 93.8143 84.0705 89.7255L55.7792 61.4342C56.5274 60.6557 57.2819 59.8832 58.0425 59.1168L58.5806 58.5787L86.8639 86.862C90.8565 82.8693 95.0593 79.0868 99.454 75.5322L75.0963 43.7886C75.5914 43.3922 76.0884 42.9981 76.5873 42.6064L78.2513 41.3296L102.595 73.0554C107.066 69.62 111.723 66.4154 116.549 63.4595L96.5411 28.804C96.6922 28.7125 96.8434 28.6212 96.9947 28.5301L100 26.795L119.987 61.4129C124.862 58.5919 129.9 56.0209 135.084 53.7172L119.773 16.7548L123.469 15.2241L138.759 52.1386C143.95 49.9862 149.279 48.0992 154.729 46.4945L144.374 7.85019L148.238 6.81491L158.58 45.4131C163.998 43.9651 169.529 42.7944 175.157 41.9171L169.934 2.24493C170.162 2.21058 170.39 2.17662 170.618 2.14304L173.898 1.71117L179.117 41.3505C184.66 40.6279 190.293 40.1891 196 40.049V0.0392029C197.33 0.0131082 198.664 0 200 0V40C205.713 40 211.357 40.2995 216.915 40.8835L222.138 1.21137C222.542 1.25583 222.945 1.30149 223.348 1.34835L226.107 1.71152L220.888 41.3512C226.537 42.0877 232.094 43.1189 237.542 44.4289L247.898 5.77965L251.762 6.81493L241.42 45.4131C246.913 46.8812 252.289 48.6342 257.533 50.6555L272.843 13.6938L276.538 15.2246L261.247 52.1413C266.486 54.3137 271.584 56.7565 276.525 59.4522L296.533 24.7967L296.626 24.8479L299.998 26.795L280.012 61.412C284.914 64.2486 289.652 67.3378 294.208 70.6618L318.566 38.9182C319.158 39.3548 319.748 39.7946 320.335 40.2375L321.758 41.3293L297.41 73.0597C301.892 76.504 306.186 80.1803 310.275 84.0706L338.566 55.7793C339.527 56.7033 340.48 57.6368 341.422 58.5797L313.138 86.8639C317.131 90.8565 320.913 95.0591 324.468 99.4538L356.211 75.096C356.715 75.7252 357.215 76.3575 357.711 76.9929L358.674 78.2479L326.944 102.595C330.38 107.066 333.585 111.723 336.541 116.55L371.196 96.5412C371.288 96.6927 371.379 96.8443 371.471 96.9961L373.205 100L338.587 119.987C341.408 124.861 343.978 129.899 346.282 135.081L383.251 119.768L384.781 123.463L347.86 138.757C350.013 143.948 351.9 149.278 353.505 154.728L392.152 144.373L393.187 148.236L354.587 158.579C356.034 163.996 357.205 169.527 358.082 175.154L397.755 169.931C397.803 170.254 397.851 170.577 397.898 170.9L398.293 173.895L358.649 179.114C359.372 184.659 359.811 190.292 359.951 196H399.961C399.987 197.33 400 198.664 400 200H360C360 207.079 359.54 214.051 358.649 220.887L398.291 226.106L397.88 229.228C397.838 229.509 397.797 229.789 397.754 230.07L358.082 224.847C357.205 230.474 356.034 236.005 354.586 241.422L393.183 251.764L392.148 255.628L353.505 245.273C351.9 250.724 350.012 256.053 347.859 261.245L384.778 276.537L383.247 280.233L346.281 264.921C343.978 270.103 341.407 275.14 338.587 280.014L373.203 300L371.426 303.079C371.349 303.206 371.272 303.333 371.195 303.46L336.54 283.451C333.584 288.277 330.38 292.934 326.945 297.404L358.676 321.752L357.836 322.847C357.299 323.536 356.758 324.221 356.212 324.903L324.468 300.545C320.914 304.94 317.131 309.143 313.138 313.136L341.422 341.42C340.479 342.363 339.527 343.297 338.566 344.221L310.274 315.929C306.186 319.82 301.891 323.497 297.409 326.941L321.756 358.671L320.237 359.836C319.682 360.255 319.124 360.67 318.565 361.083L294.207 329.339C289.652 332.663 284.915 335.751 280.013 338.587L300 373.205L296.678 375.123L296.534 375.202L276.526 340.547C271.586 343.242 266.488 345.685 261.25 347.857L276.542 384.776L272.847 386.307L257.536 349.343C252.293 351.365 246.916 353.118 241.423 354.586L251.766 393.185L247.902 394.221L237.546 355.57C232.097 356.88 226.54 357.912 220.89 358.649L226.109 398.289L223.407 398.645C222.985 398.694 222.563 398.742 222.14 398.788L216.917 359.116C211.358 359.7 205.714 360 200 360ZM200 356C286.156 356 356 286.156 356 200C356 113.844 286.156 44 200 44C113.844 44 44 113.844 44 200C44 286.156 113.844 356 200 356ZM200 332C272.902 332 332 272.902 332 200C332 127.098 272.902 68 200 68C127.098 68 68 127.098 68 200C68 272.902 127.098 332 200 332ZM200 336C275.111 336 336 275.111 336 200C336 124.889 275.111 64 200 64C124.889 64 64 124.889 64 200C64 275.111 124.889 336 200 336ZM113.657 200L198.51 115.147L283.362 200L198.51 284.853L113.657 200ZM198.51 290.51L108 200L198.51 109.49L289.019 200L198.51 290.51ZM137.657 200L199.882 137.775L262.108 200L199.882 262.225L137.657 200ZM199.882 267.882L132 200L199.882 132.118L267.764 200L199.882 267.882ZM200 220C211.046 220 220 211.046 220 200C220 188.954 211.046 180 200 180C188.954 180 180 188.954 180 200C180 211.046 188.954 220 200 220ZM200 224C213.255 224 224 213.255 224 200C224 186.745 213.255 176 200 176C186.745 176 176 186.745 176 200C176 213.255 186.745 224 200 224Z" fill="#595959"/>
</g>
<defs>
<clipPath id="clip0_259_223518">
<rect width="400" height="400" rx="200" fill="white"/>
</clipPath>
</defs>
</svg>
