<svg width="1em" height="1em" viewBox="0 0 400 400" fill="none" xmlns="http://www.w3.org/2000/svg">
<g clip-path="url(#clip0_259_223289)">
<path fill-rule="evenodd" clip-rule="evenodd" d="M198 60.02C149.159 60.9962 108.239 97.6481 102.084 146.313L100.606 158H198V60.02ZM99.5941 166L70 400H119.993C107.439 383.287 100 362.512 100 340C100 284.772 144.772 240 200 240C255.228 240 300 284.772 300 340C300 362.512 292.561 383.287 280.007 400H330L300.406 166H99.5941ZM299.394 158H202V60.02C250.841 60.9962 291.761 97.648 297.916 146.313L299.394 158ZM252.917 400C269.525 385.341 280 363.894 280 340C280 295.817 244.183 260 200 260C155.817 260 120 295.817 120 340C120 363.894 130.475 385.341 147.084 400H200H252.917ZM260 340C260 373.137 233.137 400 200 400C166.863 400 140 373.137 140 340C140 318.59 151.214 299.799 168.089 289.181L166 287.556V285C166 276.716 172.716 270 181 270H219C227.284 270 234 276.716 234 285V287.555L231.911 289.18C248.786 299.799 260 318.59 260 340ZM150 340C150 320.839 160.778 304.196 176.602 295.802L187.721 304.45C194.943 310.067 205.056 310.067 212.278 304.45L223.398 295.801C239.222 304.196 250 320.839 250 340C250 367.614 227.614 390 200 390C172.386 390 150 367.614 150 340ZM212 212C212 200.954 220.954 192 232 192H256C256 203.046 247.046 212 236 212H212Z" fill="white" fill-opacity="0.4"/>
<path fill-rule="evenodd" clip-rule="evenodd" d="M185.068 27.3327L198 19.25V151.028C193.893 150.811 189.813 149.925 185.927 148.371C170.509 142.204 160.903 126.717 162.227 110.165L166.395 58.0628C167.405 45.4415 174.331 34.0434 185.068 27.3327ZM202 19.25V151.028C206.107 150.811 210.187 149.925 214.074 148.371C229.491 142.204 239.098 126.717 237.773 110.165L233.605 58.0629C232.595 45.4415 225.67 34.0434 214.933 27.3327L202 19.25ZM127.999 166H271.999V172H277.636H278.845C283.23 172 287.238 174.478 289.199 178.4C292.184 184.369 291.872 191.457 288.374 197.141L283.857 204.482C280.217 210.397 273.769 214 266.824 214H265.227L257.645 239.66C255.274 247.684 250.447 254.763 243.842 259.9L212.278 284.45C205.056 290.067 194.943 290.067 187.72 284.45L156.156 259.9C149.552 254.763 144.724 247.684 142.353 239.66L134.772 214H133.176C126.23 214 119.782 210.397 116.142 204.482L111.625 197.141C108.127 191.457 107.815 184.369 110.8 178.4C112.761 174.478 116.77 172 121.155 172H122.363H127.999V166ZM212 212C212 200.954 220.954 192 232 192H256C256 203.046 247.046 212 236 212H212ZM166 287.556V326C166 344.778 181.222 360 200 360C218.778 360 234 344.778 234 326V287.555L212.278 304.45C205.056 310.067 194.943 310.067 187.721 304.45L166 287.556Z" fill="white"/>
</g>
<defs>
<clipPath id="clip0_259_223289">
<rect width="400" height="400" rx="200" fill="white"/>
</clipPath>
</defs>
</svg>
