<svg width="1em" height="1em" viewBox="0 0 400 400" fill="none" xmlns="http://www.w3.org/2000/svg">
<g clip-path="url(#clip0_259_223209)">
<path fill-rule="evenodd" clip-rule="evenodd" d="M190 50.3789C173.57 51.6287 157.994 55.9326 143.838 62.724L190 142.679L190 118L184 88L190 78L190 50.3789ZM210 142.68L210 118L216 88L210 78L210 50.3789C226.43 51.6288 242.006 55.9327 256.163 62.7243L210 142.68ZM92.7397 106.526C101.823 93.2915 113.292 81.8225 126.527 72.7394L172.68 152.68L92.7397 106.526ZM82.7242 123.838C75.9327 137.994 71.6288 153.57 70.3789 170H162.68L82.7242 123.838ZM82.7242 236.162C75.9327 222.006 71.6288 206.43 70.3789 190H162.68L82.7242 236.162ZM100 263.071C107.676 272.301 116.605 280.451 126.527 287.261L172.68 207.32L92.74 253.474C90.1512 249.702 87.7562 245.786 85.5693 241.742L90.0006 400H310.001L314.432 241.742C310.324 249.339 305.482 256.481 300 263.072V400H260V295.356C247.691 301.772 234.226 306.275 220 308.471V400H180V308.471C179.303 308.364 178.608 308.25 177.915 308.132C181.885 308.811 185.916 309.31 190 309.621V287H168.05C165.058 287 162.371 285.339 161 282.782V281.5C161 277.358 164.358 274 168.5 274H190V217.321L143.838 297.276C142.547 296.656 141.267 296.016 140 295.356V400H100V263.071ZM210 287H231.95C234.942 287 237.629 285.339 239 282.783V281.5C239 277.358 235.642 274 231.5 274H210V217.32L256.163 297.276C242.006 304.067 226.43 308.371 210 309.621V287ZM307.26 253.474C298.177 266.708 286.709 278.177 273.474 287.26L231.177 214H238.89L307.26 253.474ZM317.276 236.162L262.868 204.75C264.851 201.645 266 197.957 266 194H244.249L237.321 190H329.621C328.371 206.43 324.067 222.006 317.276 236.162ZM317.276 123.838C324.067 137.994 328.371 153.57 329.621 170H237.321L317.276 123.838ZM307.26 106.526C298.177 93.2918 286.709 81.8229 273.474 72.7398L227.321 152.679L307.26 106.526Z" fill="white" fill-opacity="0.4"/>
<path fill-rule="evenodd" clip-rule="evenodd" d="M194 92L190 78H200H210L206 92H194ZM187.63 106.148L190 118H210L212.371 106.147C213.73 106.317 215.087 106.514 216.44 106.74L244.118 111.353C246.457 111.743 248.756 112.296 250.998 113.005L262 91C287.832 91 300.769 122.232 282.503 140.497L281.991 141.009C285.861 149.98 287.088 160.017 285.291 169.901L277.775 211.242C275.413 224.232 266.792 235.221 254.737 240.607L250.5 242.5L245.751 255.749C242.901 263.697 235.367 269 226.924 269H173.077C164.633 269 157.099 263.697 154.25 255.749L149.5 242.5L145.263 240.607C133.208 235.221 124.588 224.232 122.226 211.242L114.71 169.901C112.913 160.017 114.14 149.98 118.009 141.009L117.498 140.497C99.232 122.232 112.169 91 138 91L149.003 113.005C151.245 112.296 153.543 111.743 155.883 111.353L183.56 106.74C184.914 106.514 186.27 106.317 187.63 106.148ZM222 214C222 202.954 230.954 194 242 194H266C266 205.046 257.046 214 246 214H222ZM161 305V282.782C162.371 285.338 165.058 287 168.05 287H231.95C234.942 287 237.629 285.339 239 282.783V305C239 326.539 221.539 344 200 344C178.461 344 161 326.539 161 305Z" fill="white"/>
</g>
<defs>
<clipPath id="clip0_259_223209">
<rect width="400" height="400" rx="200" fill="white"/>
</clipPath>
</defs>
</svg>
