<svg width="1em" height="1em" viewBox="0 0 400 400" fill="none" xmlns="http://www.w3.org/2000/svg">
<path fill-rule="evenodd" clip-rule="evenodd" d="M103.943 136C103.15 139.369 102.527 142.81 102.084 146.313L70 400H119.993C107.439 383.287 100 362.512 100 340C100 284.772 144.772 240 200 240C255.228 240 300 284.772 300 340C300 362.512 292.561 383.287 280.007 400H330L297.916 146.312C297.473 142.81 296.85 139.369 296.057 136H235.731C229.144 149.05 215.617 158 200 158C184.383 158 170.856 149.05 164.269 136H103.943ZM238.74 128C239.562 124.804 240 121.453 240 118C240 95.9086 222.091 78 200 78C177.909 78 160 95.9086 160 118C160 121.453 160.438 124.804 161.26 128H106.186C119.209 88.1093 156.655 60 200 60C243.346 60 280.791 88.1093 293.814 128H238.74ZM252.917 400C269.525 385.341 280 363.894 280 340C280 295.817 244.183 260 200 260C155.817 260 120 295.817 120 340C120 363.894 130.475 385.341 147.084 400H200H252.917ZM260 340C260 373.137 233.137 400 200 400C166.863 400 140 373.137 140 340C140 318.59 151.214 299.799 168.089 289.18L166 287.556V285C166 276.716 172.716 270 181 270H219C227.284 270 234 276.716 234 285V287.555L231.911 289.18C248.786 299.799 260 318.59 260 340ZM150 340C150 320.839 160.778 304.196 176.602 295.801L187.721 304.45C194.943 310.067 205.056 310.067 212.278 304.45L223.398 295.801C239.222 304.196 250 320.839 250 340C250 367.614 227.614 390 200 390C172.386 390 150 367.614 150 340ZM212 212C212 200.954 220.954 192 232 192H256C256 203.046 247.046 212 236 212H212Z" fill="white" fill-opacity="0.4"/>
<path fill-rule="evenodd" clip-rule="evenodd" d="M229.917 91.448C264.323 80.675 290.73 51.8123 298 16C299.311 22.4622 300 29.1507 300 36C300 77.5171 274.7 113.125 238.676 128.246C239.54 124.976 240 121.542 240 118C240 107.811 236.19 98.5109 229.917 91.448ZM170.083 91.448C135.677 80.675 109.27 51.8123 102 16C100.689 22.4622 100 29.1507 100 36C100 77.5171 125.3 113.125 161.324 128.246C160.46 124.976 160 121.542 160 118C160 107.811 163.81 98.5109 170.083 91.448ZM230 118C230 134.569 216.569 148 200 148C183.431 148 170 134.569 170 118C170 101.431 183.431 88 200 88C216.569 88 230 101.431 230 118ZM271.999 164H127.999V172H122.363H121.155C116.77 172 112.761 174.478 110.8 178.4C107.815 184.369 108.127 191.457 111.625 197.141L116.142 204.482C119.782 210.397 126.23 214 133.175 214H134.772L142.353 239.66C144.724 247.684 149.552 254.763 156.156 259.9L187.72 284.45C194.943 290.067 205.056 290.067 212.278 284.45L243.842 259.9C250.447 254.763 255.274 247.684 257.645 239.66L265.227 214H266.824C273.769 214 280.217 210.397 283.857 204.482L288.374 197.141C291.872 191.457 292.184 184.369 289.199 178.4C287.238 174.478 283.23 172 278.845 172H277.636H271.999V164ZM232 192C220.954 192 212 200.954 212 212H236C247.046 212 256 203.046 256 192H232ZM166 287.556V326C166 344.778 181.222 360 200 360C218.778 360 234 344.778 234 326V287.555L212.278 304.45C205.056 310.067 194.943 310.067 187.721 304.45L166 287.556Z" fill="white"/>
</svg>
