<svg width="1em" height="1em" viewBox="0 0 400 400" fill="none" xmlns="http://www.w3.org/2000/svg">
<path fill-rule="evenodd" clip-rule="evenodd" d="M202.4 143.2L218.745 130.941C219.171 130.622 219.589 130.295 220 129.96V144H200C200.844 144 201.689 143.733 202.4 143.2ZM200 144H180V129.96C180.411 130.295 180.829 130.622 181.255 130.941L197.6 143.2C198.311 143.733 199.156 144 200 144ZM100 400H70L99.8471 164H100V400ZM120 164V400H160V164H120ZM180 298.445V400H220V298.444L212.278 304.45C205.056 310.067 194.943 310.067 187.721 304.45L180 298.445ZM180 270.033C180.331 270.011 180.664 270 181 270H219C219.336 270 219.669 270.011 220 270.033V218.666L212 224V212C212 205.457 215.142 199.647 220 195.998V164H180V270.033ZM240 164V192H260L240 205.333V400H280V164H240ZM280 144H240V68.4541C255.984 75.5484 269.795 86.7785 280 100.88V144ZM300 164H300.153L330 400H300V164ZM160 144H120V100.88C130.205 86.7785 144.016 75.5484 160 68.4541V144Z" fill="white" fill-opacity="0.4"/>
<path fill-rule="evenodd" clip-rule="evenodd" d="M218.745 130.941L202.4 143.2C201.689 143.733 200.844 144 200 144C199.156 144 198.311 143.733 197.6 143.2L181.255 130.941C172.768 124.576 167.157 115.1 165.657 104.598L160 65C180 59 200 45 200 45C200.033 45.0229 220.016 59.0049 240 65L234.343 104.598C232.843 115.1 227.232 124.576 218.745 130.941ZM127.999 164H271.999V172H277.636H278.845C283.23 172 287.238 174.478 289.199 178.4C292.184 184.369 291.872 191.457 288.374 197.141L283.857 204.482C280.217 210.397 273.769 214 266.824 214H265.227L257.645 239.66C255.274 247.684 250.447 254.763 243.842 259.9L212.278 284.45C205.056 290.067 194.943 290.067 187.72 284.45L156.156 259.9C149.552 254.763 144.724 247.684 142.353 239.66L134.772 214H133.176C126.23 214 119.782 210.397 116.142 204.482L111.625 197.141C108.127 191.457 107.815 184.369 110.8 178.4C112.761 174.478 116.77 172 121.155 172H122.363H127.999V164ZM177.536 102.901L173.268 73.0245C180.864 69.9648 187.894 66.3196 193.416 63.1903C195.892 61.7871 198.113 60.4606 200 59.2964C201.887 60.4606 204.108 61.7871 206.584 63.1903C212.106 66.3196 219.136 69.9648 226.732 73.0245L222.464 102.901C221.414 110.252 217.486 116.885 211.545 121.341L200 130L188.455 121.341C182.514 116.885 178.586 110.252 177.536 102.901ZM232 192C220.954 192 212 200.954 212 212V224L260 192H232ZM166 326V287.556L187.721 304.45C194.943 310.067 205.056 310.067 212.278 304.45L234 287.555V326C234 344.778 218.778 360 200 360C181.222 360 166 344.778 166 326Z" fill="white"/>
</svg>
