<svg width="1em" height="1em" viewBox="0 0 400 400" fill="none" xmlns="http://www.w3.org/2000/svg">
<rect width="400" height="400" rx="200" fill="white"/>
<path fill-rule="evenodd" clip-rule="evenodd" d="M6.71457 72L40.0001 115.092L73.2857 72L40.0001 28.9076L6.71457 72ZM2.92383 72L40.0001 120L77.0764 72L40.0001 24L2.92383 72ZM18.3723 71.999L40.0001 43.999L61.628 71.999L40.0001 99.999L18.3723 71.999ZM40.0001 243.092L6.71457 200L40.0001 156.908L73.2857 200L40.0001 243.092ZM40.0001 248L2.92383 200L40.0001 152L77.0764 200L40.0001 248ZM18.3723 199.999L40.0001 171.999L61.628 199.999L40.0001 227.999L18.3723 199.999ZM40.0001 371.092L6.71457 328L40.0001 284.908L73.2857 328L40.0001 371.092ZM40.0001 376L2.92383 328L40.0001 280L77.0764 328L40.0001 376ZM18.3723 327.999L40.0001 299.999L61.628 327.999L40.0001 355.999L18.3723 327.999ZM166.715 72L200 115.092L233.286 72L200 28.9076L166.715 72ZM162.924 72L200 120L237.076 72L200 24L162.924 72ZM178.372 71.999L200 43.999L221.628 71.999L200 99.999L178.372 71.999ZM200 243.092L166.715 200L200 156.908L233.286 200L200 243.092ZM200 248L162.924 200L200 152L237.076 200L200 248ZM178.372 199.999L200 171.999L221.628 199.999L200 227.999L178.372 199.999ZM200 371.092L166.715 328L200 284.908L233.286 328L200 371.092ZM200 376L162.924 328L200 280L237.076 328L200 376ZM178.372 327.999L200 299.999L221.628 327.999L200 355.999L178.372 327.999ZM360 115.092L326.715 72L360 28.9076L393.286 72L360 115.092ZM360 120L322.924 72L360 24L397.076 72L360 120ZM360 43.999L338.372 71.999L360 99.999L381.628 71.999L360 43.999ZM326.715 200L360 243.092L393.286 200L360 156.908L326.715 200ZM322.924 200L360 248L397.076 200L360 152L322.924 200ZM360 171.999L338.372 199.999L360 227.999L381.628 199.999L360 171.999ZM326.715 328L360 371.092L393.286 328L360 284.908L326.715 328ZM322.924 328L360 376L397.076 328L360 280L322.924 328ZM360 299.999L338.372 327.999L360 355.999L381.628 327.999L360 299.999ZM75.9781 132L108 173.457L140.022 132L108 90.5435L75.9781 132ZM70.9238 132L108 180L145.076 132L108 84L70.9238 132ZM75.9781 260L108 301.457L140.022 260L108 218.543L75.9781 260ZM70.9238 260L108 308L145.076 260L108 212L70.9238 260ZM288 173.457L255.978 132L288 90.5435L320.022 132L288 173.457ZM288 180L250.924 132L288 84L325.076 132L288 180ZM255.978 260L288 301.457L320.022 260L288 218.543L255.978 260ZM250.924 260L288 308L325.076 260L288 212L250.924 260Z" fill="#595959"/>
</svg>
