<svg width="456" height="170" viewBox="0 0 456 170" fill="none" xmlns="http://www.w3.org/2000/svg">
<g clip-path="url(#clip0_1529_9560)">
<rect width="456" height="170" fill="#F0B90B"/>
<mask id="mask0_1529_9560" style="mask-type:alpha" maskUnits="userSpaceOnUse" x="0" y="0" width="564" height="170">
<rect width="564" height="170" fill="url(#paint0_linear_1529_9560)"/>
</mask>
<g mask="url(#mask0_1529_9560)">
<g opacity="0.8">
<g opacity="0.6" filter="url(#filter0_f_1529_9560)">
<ellipse cx="282" cy="132.606" rx="282" ry="66.8286" fill="#FF00C7"/>
</g>
</g>
</g>
<g style="mix-blend-mode:overlay" opacity="0.2">
<path fill-rule="evenodd" clip-rule="evenodd" d="M511.109 -35.2858L510.902 -79.7796H511.064L473.238 -102.026L408.421 -63.8426L343.997 -102.026L306.194 -79.7796V-35.2858L371.011 2.71257V78.896L408.652 100.935L446.293 78.896V2.71257L511.109 -35.2858ZM408.445 -216L306.172 -155.754L343.813 -133.507L408.445 -171.691L473.262 -133.507L510.902 -155.754L408.445 -216ZM150.801 -35.2857L150.593 -79.7795H150.755L112.93 -102.026L48.1124 -63.8426L-16.3114 -102.026L-54.1145 -79.7795V-35.2857L10.7029 2.71263V78.8961L48.3439 100.935L85.9848 78.8961V2.71263L150.801 -35.2857ZM48.136 -216L-54.1367 -155.754L-16.4958 -133.507L48.136 -171.691L112.953 -133.507L150.593 -155.754L48.136 -216ZM-81.3596 -19.5189L-81.1517 56.479L-16.5199 94.4787V138.972L-118.977 78.9337V-41.7423L-81.3596 -19.5189ZM-81.3596 -95.5169V-51.2308L-119 -73.4777V-117.764L-81.3596 -140.011L-43.5343 -117.764L-81.3596 -95.5169ZM10.4722 -117.764L48.1132 -140.011L85.9385 -117.764L48.1132 -95.5169L10.4722 -117.764ZM330.902 281.67L330.695 237.177H330.857L293.031 214.93L228.214 253.113L163.79 214.93L125.987 237.177V281.67L190.804 319.669V395.852L228.445 417.891L266.086 395.852V319.669L330.902 281.67ZM228.237 100.956L125.965 161.202L163.606 183.449L228.237 145.265L293.055 183.449L330.695 161.202L228.237 100.956ZM98.9498 373.435L98.7419 297.437L61.1245 275.214V395.89L163.582 455.928V411.435L98.9498 373.435ZM98.7419 265.725V221.439L136.567 199.192L98.7419 176.945L61.1015 199.192V243.478L98.7419 265.725ZM228.215 176.945L190.574 199.192L228.215 221.439L266.04 199.192L228.215 176.945ZM163.606 335.437L125.965 313.19V357.684L163.606 379.723V335.437ZM228.238 449.617L190.597 427.372V471.658L228.238 493.903L266.063 471.658V427.372L228.238 449.617ZM357.687 176.945L320.046 199.192L357.687 221.439V265.725L395.512 243.478V199.192L357.687 176.945ZM357.895 297.437L357.687 373.435L293.077 411.411V455.905L395.536 395.866V275.19L357.895 297.437ZM330.68 357.692L293.039 379.731V335.445L330.68 313.198V357.692ZM-16.4958 18.4807L-54.1367 -3.76622V40.7276L-16.4958 62.7668V18.4807ZM48.136 132.661L10.4951 110.416V154.702L48.136 176.947L85.9613 154.702V110.416L48.136 132.661ZM177.585 -140.011L139.944 -117.764L177.585 -95.5169V-51.2308L215.411 -73.4777V-117.764L177.585 -140.011ZM177.793 -19.5189L177.585 56.479L112.976 94.4551V138.949L215.434 78.9101V-41.7658L177.793 -19.5189ZM150.578 40.7361L112.938 62.7752V18.4892L150.578 -3.75775V40.7361ZM278.949 -19.519L279.157 56.479L343.789 94.4786V138.972L241.332 78.9336V-41.7424L278.949 -19.519ZM278.949 -95.5169V-51.2309L241.309 -73.4778V-117.764L278.949 -140.011L316.774 -117.764L278.949 -95.5169ZM370.781 -117.764L408.422 -140.011L446.247 -117.764L408.422 -95.5169L370.781 -117.764ZM306.172 -3.76628V40.7275L343.813 62.7667V18.4806L306.172 -3.76628ZM408.445 132.661L370.804 110.415V154.702L408.445 176.947L446.27 154.702V110.415L408.445 132.661ZM537.894 -140.011L500.253 -117.764L537.894 -95.5169V-51.2309L575.719 -73.4778V-117.764L537.894 -140.011ZM538.102 -19.519L537.894 56.4789L473.284 94.455V138.949L575.743 78.9101V-41.7659L538.102 -19.519ZM510.887 40.736L473.246 62.7752V18.4891L510.887 -3.75781V40.736Z" fill="url(#paint1_linear_1529_9560)"/>
</g>
</g>
<defs>
<filter id="filter0_f_1529_9560" x="-411.25" y="-345.473" width="1386.5" height="956.157" filterUnits="userSpaceOnUse" color-interpolation-filters="sRGB">
<feFlood flood-opacity="0" result="BackgroundImageFix"/>
<feBlend mode="normal" in="SourceGraphic" in2="BackgroundImageFix" result="shape"/>
<feGaussianBlur stdDeviation="205.625" result="effect1_foregroundBlur_1529_9560"/>
</filter>
<linearGradient id="paint0_linear_1529_9560" x1="282" y1="17.2125" x2="295.936" y2="179.746" gradientUnits="userSpaceOnUse">
<stop stop-color="#6747FE"/>
<stop offset="1" stop-color="#DB74FF"/>
</linearGradient>
<linearGradient id="paint1_linear_1529_9560" x1="228.344" y1="-99.8424" x2="228.344" y2="242.408" gradientUnits="userSpaceOnUse">
<stop stop-color="white"/>
<stop offset="1" stop-color="white" stop-opacity="0"/>
</linearGradient>
<clipPath id="clip0_1529_9560">
<rect width="456" height="170" fill="white"/>
</clipPath>
</defs>
</svg>
