<svg width="456" height="170" viewBox="0 0 456 170" fill="none" xmlns="http://www.w3.org/2000/svg">
<g clip-path="url(#clip0_1529_9494)">
<rect width="456" height="170" fill="url(#paint0_linear_1529_9494)"/>
<mask id="mask0_1529_9494" style="mask-type:alpha" maskUnits="userSpaceOnUse" x="0" y="0" width="564" height="170">
<rect width="564" height="170" fill="url(#paint1_linear_1529_9494)"/>
</mask>
<g mask="url(#mask0_1529_9494)">
<g opacity="0.8" filter="url(#filter0_f_1529_9494)">
<ellipse cx="255.202" cy="90.8496" rx="255.202" ry="90.8496" transform="matrix(0.999734 0.0230638 -0.832403 0.554171 -23.875 39.3008)" fill="#FFE600"/>
</g>
</g>
<g style="mix-blend-mode:overlay" opacity="0.4">
<path d="M505.768 -153.275L281.781 71.1481L506.832 295.493C559.285 232.416 587.913 152.936 587.721 70.9186C587.529 -11.0984 558.529 -90.4445 505.782 -153.275H505.768Z" fill="url(#paint2_linear_1529_9494)"/>
<path d="M467.723 -166.184C417.18 -208.114 311.509 -189.563 245.83 -191.782L93.7227 208L467.723 -166.184Z" fill="url(#paint3_linear_1529_9494)"/>
<path d="M199.974 -169.961L-33.3302 -166.892C-33.7697 -158.527 -97.8486 151.494 -97.7106 159.992C-96.685 248.124 -65.2088 333.198 -8.60317 400.832L199.974 -169.961Z" fill="url(#paint4_linear_1529_9494)"/>
<path d="M250.102 98.582L59.0306 290.026L57.7227 293.46C112.173 338.429 180.654 362.935 251.289 362.726C321.924 362.518 390.259 337.609 444.443 292.32L250.102 98.582Z" fill="url(#paint5_linear_1529_9494)"/>
</g>
</g>
<defs>
<filter id="filter0_f_1529_9494" x="-345.539" y="-190.161" width="1002.35" height="571.388" filterUnits="userSpaceOnUse" color-interpolation-filters="sRGB">
<feFlood flood-opacity="0" result="BackgroundImageFix"/>
<feBlend mode="normal" in="SourceGraphic" in2="BackgroundImageFix" result="shape"/>
<feGaussianBlur stdDeviation="117.5" result="effect1_foregroundBlur_1529_9494"/>
</filter>
<linearGradient id="paint0_linear_1529_9494" x1="53.8333" y1="-4.79075e-07" x2="60.168" y2="181.972" gradientUnits="userSpaceOnUse">
<stop stop-color="#FD2B01"/>
<stop offset="1" stop-color="#C20200"/>
</linearGradient>
<linearGradient id="paint1_linear_1529_9494" x1="282" y1="17.2125" x2="295.936" y2="179.746" gradientUnits="userSpaceOnUse">
<stop stop-color="#6747FE"/>
<stop offset="1" stop-color="#DB74FF"/>
</linearGradient>
<linearGradient id="paint2_linear_1529_9494" x1="434.752" y1="-127.755" x2="434.752" y2="201.854" gradientUnits="userSpaceOnUse">
<stop stop-color="white"/>
<stop offset="1" stop-color="white" stop-opacity="0"/>
</linearGradient>
<linearGradient id="paint3_linear_1529_9494" x1="280.723" y1="-171.139" x2="280.723" y2="124.12" gradientUnits="userSpaceOnUse">
<stop stop-color="white"/>
<stop offset="1" stop-color="white" stop-opacity="0.8"/>
</linearGradient>
<linearGradient id="paint4_linear_1529_9494" x1="49.4119" y1="-135.677" x2="54.9003" y2="281.469" gradientUnits="userSpaceOnUse">
<stop stop-color="white"/>
<stop offset="1" stop-color="white" stop-opacity="0"/>
</linearGradient>
<linearGradient id="paint5_linear_1529_9494" x1="251.083" y1="113.603" x2="251.083" y2="307.612" gradientUnits="userSpaceOnUse">
<stop stop-color="white"/>
<stop offset="1" stop-color="white" stop-opacity="0"/>
</linearGradient>
<clipPath id="clip0_1529_9494">
<rect width="456" height="170" fill="white"/>
</clipPath>
</defs>
</svg>
