<svg width="456" height="170" viewBox="0 0 456 170" fill="none" xmlns="http://www.w3.org/2000/svg">
<g clip-path="url(#clip0_1529_9594)">
<rect width="456" height="170" fill="url(#paint0_linear_1529_9594)"/>
<mask id="mask0_1529_9594" style="mask-type:alpha" maskUnits="userSpaceOnUse" x="0" y="0" width="564" height="170">
<rect width="564" height="170" fill="url(#paint1_linear_1529_9594)"/>
</mask>
<g mask="url(#mask0_1529_9594)">
<g opacity="0.6" filter="url(#filter0_f_1529_9594)">
<ellipse cx="281.736" cy="114.398" rx="303.541" ry="82.6878" fill="url(#paint2_radial_1529_9594)"/>
</g>
</g>
<g style="mix-blend-mode:soft-light" opacity="0.2">
<path fill-rule="evenodd" clip-rule="evenodd" d="M352.625 48.0665L280.155 173.376C279.594 174.346 280.908 175.298 281.66 174.468L316.084 136.299C316.935 135.357 318.459 135.515 319.094 136.617L351.817 193.2C352.537 194.446 351.639 196 350.199 196H268.693C267.693 196 266.767 195.468 266.262 194.6L224.7 122.734C224.2 121.865 224.2 120.801 224.7 119.934L308.633 -25.2047C309.353 -26.4507 311.152 -26.4507 311.872 -25.2047L352.625 45.2618C353.125 46.1302 353.125 47.1988 352.625 48.0665ZM125.375 122.734L166.128 193.2C166.848 194.446 168.648 194.446 169.368 193.2L253.304 48.0665C253.805 47.1988 253.805 46.1348 253.304 45.2664L211.738 -26.6C211.238 -27.468 210.312 -28 209.312 -28H127.806C126.366 -28 125.464 -26.446 126.184 -25.2L158.911 31.3833C159.546 32.48 161.07 32.6433 161.921 31.7007L196.34 -6.468C197.092 -7.29864 198.406 -6.34664 197.845 -5.376L125.375 119.934C124.875 120.801 124.875 121.865 125.375 122.734Z" fill="black"/>
</g>
</g>
<defs>
<filter id="filter0_f_1529_9594" x="-144.005" y="-90.49" width="851.482" height="409.776" filterUnits="userSpaceOnUse" color-interpolation-filters="sRGB">
<feFlood flood-opacity="0" result="BackgroundImageFix"/>
<feBlend mode="normal" in="SourceGraphic" in2="BackgroundImageFix" result="shape"/>
<feGaussianBlur stdDeviation="61.1" result="effect1_foregroundBlur_1529_9594"/>
</filter>
<linearGradient id="paint0_linear_1529_9594" x1="228" y1="0" x2="228" y2="170" gradientUnits="userSpaceOnUse">
<stop stop-color="#1A9FFF"/>
<stop offset="1" stop-color="#1A56FF"/>
</linearGradient>
<linearGradient id="paint1_linear_1529_9594" x1="282" y1="17.2125" x2="295.936" y2="179.746" gradientUnits="userSpaceOnUse">
<stop stop-color="#6747FE"/>
<stop offset="1" stop-color="#DB74FF"/>
</linearGradient>
<radialGradient id="paint2_radial_1529_9594" cx="0" cy="0" r="1" gradientUnits="userSpaceOnUse" gradientTransform="translate(281.736 136.452) rotate(-90) scale(113.771 417.645)">
<stop stop-color="#7500BC"/>
<stop offset="1" stop-color="#7500BC" stop-opacity="0"/>
</radialGradient>
<clipPath id="clip0_1529_9594">
<rect width="456" height="170" fill="white"/>
</clipPath>
</defs>
</svg>
