<svg width="456" height="170" viewBox="0 0 456 170" fill="none" xmlns="http://www.w3.org/2000/svg">
<g clip-path="url(#clip0_1529_9504)">
<rect width="456" height="170" fill="url(#paint0_linear_1529_9504)"/>
<mask id="mask0_1529_9504" style="mask-type:alpha" maskUnits="userSpaceOnUse" x="0" y="0" width="564" height="170">
<rect width="564" height="170" fill="url(#paint1_linear_1529_9504)"/>
</mask>
<g mask="url(#mask0_1529_9504)">
<g opacity="0.8">
<g filter="url(#filter0_f_1529_9504)">
<ellipse cx="402.842" cy="100.393" rx="402.842" ry="100.393" transform="matrix(0.998215 -0.0597153 0.852033 0.523488 -26.5508 129.038)" fill="#DD00BA"/>
</g>
<g opacity="0.5" filter="url(#filter1_f_1529_9504)">
<ellipse cx="314.942" cy="52.2901" rx="314.942" ry="52.2901" transform="matrix(0.999905 0.0138034 0.126127 0.992014 -225.602 -56.7666)" fill="#00FF85"/>
</g>
</g>
</g>
<g style="mix-blend-mode:soft-light" opacity="0.4">
<path d="M93.5732 -3.10067L63 -38L32.4268 -3.10067C8.94868 23.6846 27.6968 66 63 66C98.3032 66 117.051 23.6846 93.5732 -3.10067Z" fill="black"/>
</g>
<g style="mix-blend-mode:soft-light" opacity="0.4">
<path d="M422.573 118.899L392 84L361.427 118.899C337.949 145.685 356.697 188 392 188C427.303 188 446.051 145.685 422.573 118.899Z" fill="black"/>
</g>
<g style="mix-blend-mode:soft-light" opacity="0.5">
<path fill-rule="evenodd" clip-rule="evenodd" d="M224.642 21.644C229.689 22.6267 232.993 27.5624 232.021 32.6683L203.991 180.035C203.15 184.452 199.34 187.651 194.894 187.671C190.448 187.69 186.61 184.526 185.731 180.116L170.065 101.484L154.4 150.67C153.238 154.32 150.004 156.892 146.225 157.172C142.445 157.453 138.875 155.387 137.198 151.948L116.751 110.004L102.176 127.826C100.408 129.988 97.7796 131.239 95.0066 131.239H-59.695C-64.8341 131.239 -69.0002 127.024 -69.0002 121.825C-69.0002 116.625 -64.8341 112.41 -59.695 112.41H90.6284L111.571 86.8008C113.583 84.3414 116.689 83.0806 119.822 83.4517C122.956 83.8228 125.69 85.7751 127.086 88.6379L143.73 122.78L163.285 61.3769C164.584 57.2995 168.439 54.6231 172.667 54.8646C176.894 55.1061 180.427 58.2046 181.264 62.404L194.641 129.55L213.746 29.1099C214.718 24.004 219.596 20.6614 224.642 21.644Z" fill="black"/>
</g>
<g style="mix-blend-mode:soft-light" opacity="0.5">
<path fill-rule="evenodd" clip-rule="evenodd" d="M235.642 148.027C230.556 147.044 227.226 142.108 228.205 137.003L256.456 -10.3643C257.303 -14.7813 261.144 -17.98 265.624 -17.9998C270.105 -18.0195 273.974 -14.8548 274.859 -10.4455L290.649 68.1872L306.436 19.0005C307.608 15.3508 310.867 12.779 314.676 12.4984C318.486 12.2178 322.084 14.2844 323.774 17.7232L344.382 59.6668L359.072 41.8446C360.853 39.683 363.503 38.4317 366.297 38.4317H537.578C542.758 38.4317 546.957 42.6468 546.957 47.8464C546.957 53.046 542.758 57.2611 537.578 57.2611H370.71L349.602 82.8701C347.575 85.3295 344.445 86.5903 341.287 86.2192C338.128 85.8481 335.372 83.8958 333.966 81.033L317.191 46.891L297.482 108.294C296.173 112.371 292.287 115.048 288.026 114.806C283.766 114.565 280.205 111.466 279.362 107.267L265.879 40.1211L246.624 140.561C245.645 145.667 240.728 149.009 235.642 148.027Z" fill="black"/>
</g>
</g>
<defs>
<filter id="filter0_f_1529_9504" x="-302.594" y="-252.775" width="1527.41" height="820.624" filterUnits="userSpaceOnUse" color-interpolation-filters="sRGB">
<feFlood flood-opacity="0" result="BackgroundImageFix"/>
<feBlend mode="normal" in="SourceGraphic" in2="BackgroundImageFix" result="shape"/>
<feGaussianBlur stdDeviation="176.25" result="effect1_foregroundBlur_1529_9504"/>
</filter>
<filter id="filter1_f_1529_9504" x="-454.078" y="-287.604" width="1099.96" height="574.115" filterUnits="userSpaceOnUse" color-interpolation-filters="sRGB">
<feFlood flood-opacity="0" result="BackgroundImageFix"/>
<feBlend mode="normal" in="SourceGraphic" in2="BackgroundImageFix" result="shape"/>
<feGaussianBlur stdDeviation="117.5" result="effect1_foregroundBlur_1529_9504"/>
</filter>
<linearGradient id="paint0_linear_1529_9504" x1="228" y1="1.2666e-06" x2="215.22" y2="169.034" gradientUnits="userSpaceOnUse">
<stop stop-color="#4FF4FF"/>
<stop offset="0.989583" stop-color="#0047FF"/>
</linearGradient>
<linearGradient id="paint1_linear_1529_9504" x1="282" y1="17.2125" x2="295.936" y2="179.746" gradientUnits="userSpaceOnUse">
<stop stop-color="#6747FE"/>
<stop offset="1" stop-color="#DB74FF"/>
</linearGradient>
<clipPath id="clip0_1529_9504">
<rect width="456" height="170" fill="white"/>
</clipPath>
</defs>
</svg>
