<svg width="456" height="170" viewBox="0 0 456 170" fill="none" xmlns="http://www.w3.org/2000/svg">
<g clip-path="url(#clip0_1529_9481)">
<rect width="456" height="170" fill="url(#paint0_linear_1529_9481)"/>
<mask id="mask0_1529_9481" style="mask-type:alpha" maskUnits="userSpaceOnUse" x="0" y="0" width="564" height="170">
<rect width="564" height="170" fill="url(#paint1_linear_1529_9481)"/>
</mask>
<g mask="url(#mask0_1529_9481)">
<g opacity="0.4" filter="url(#filter0_f_1529_9481)">
<ellipse cx="283.424" cy="311.518" rx="283.424" ry="311.518" transform="matrix(0.98228 -0.187419 0.992989 0.118208 -700.77 52.1133)" fill="#00FFC2"/>
</g>
</g>
<g style="mix-blend-mode:soft-light" opacity="0.3">
<path fill-rule="evenodd" clip-rule="evenodd" d="M297.51 10.6234C334.496 14.9799 352.988 25.4363 352.988 55.9328C352.988 79.4596 335.377 97.7583 308.959 102.117V123.029C308.078 127.386 305.436 130 301.912 130H288.703C284.301 129.127 281.66 126.513 281.66 123.029V102.117C252.6 97.7583 238.509 82.0737 234.988 60.2912V59.4195C234.988 55.9328 237.63 53.3187 241.151 53.3187H256.123C258.764 53.3187 261.406 55.063 262.285 58.5469C264.927 71.6173 272.852 81.2039 295.75 81.2039C312.479 81.2039 324.809 71.6192 324.809 57.6771C324.809 43.735 316.884 38.5068 292.227 34.1503C255.242 29.7919 237.63 18.4657 237.63 -10.2893C237.63 -32.0737 254.36 -49.5007 280.778 -52.9865V-73.0275C281.66 -77.3859 284.301 -80 287.824 -80H301.033C305.436 -79.1274 308.078 -76.5133 308.078 -73.0275V-52.1148C328.33 -50.3724 344.181 -35.5604 347.705 -16.3892V-15.5175C347.705 -12.0336 345.063 -9.41951 341.539 -9.41951H327.451C324.809 -9.41951 322.168 -11.161 321.287 -13.7751C316.884 -26.8455 308.078 -32.0737 292.227 -32.0737C274.615 -32.0737 265.809 -24.2343 265.809 -12.0336C265.809 0.167076 271.092 7.13766 297.51 10.6234ZM177.51 112.623C214.496 116.98 232.988 127.436 232.988 157.933C232.988 181.46 215.377 199.758 188.959 204.117V225.029C188.078 229.386 185.436 232 181.912 232H168.703C164.301 231.127 161.66 228.513 161.66 225.029V204.117C132.6 199.758 118.509 184.074 114.988 162.291V161.42C114.988 157.933 117.63 155.319 121.151 155.319H136.123C138.764 155.319 141.406 157.063 142.285 160.547C144.927 173.617 152.852 183.204 175.75 183.204C192.479 183.204 204.809 173.619 204.809 159.677C204.809 145.735 196.884 140.507 172.227 136.15C135.242 131.792 117.63 120.466 117.63 91.7107C117.63 69.9263 134.36 52.4993 160.778 49.0135V28.9725C161.66 24.6141 164.301 22 167.824 22H181.033C185.436 22.8726 188.078 25.4867 188.078 28.9725V49.8852C208.33 51.6276 224.181 66.4396 227.705 85.6108V86.4825C227.705 89.9664 225.063 92.5805 221.539 92.5805H207.451C204.809 92.5805 202.168 90.839 201.287 88.2249C196.884 75.1545 188.078 69.9263 172.227 69.9263C154.615 69.9263 145.809 77.7657 145.809 89.9664C145.809 102.167 151.092 109.138 177.51 112.623ZM90.9236 -63.9397C91.04 -67.7688 88.0461 -70.164 84.5754 -69.5048C83.4373 -69.9238 82.6607 -69.5655 81.1039 -68.8472L70.2154 -63.8237C67.1036 -62.388 65.0725 -58.6197 64.5945 -55.5678C70.866 15.1524 17.5822 77.4865 -52.7373 82.5585C-90.7985 85.962 -127.554 71.7756 -153.964 45.2671C-156.958 42.8721 -160.01 42.394 -163.9 44.1885L-174.789 49.2122C-177.9 50.6477 -179.515 53.2788 -178.853 56.75L-178.853 56.75L-178.853 56.7501C-178.493 57.5282 -177.774 59.0836 -176.638 59.5031C-119.142 122.634 -21.8853 126.84 41.2166 69.4138C79.078 34.9582 96.7006 -14.6996 90.9236 -63.9397ZM395.103 245.21C391.786 246.425 388.442 244.548 387.935 240.751C374.231 193.105 383.547 141.243 415.304 101.091C468.233 34.1721 564.88 22.5129 631.872 75.4586C633.062 75.6878 634.025 77.1057 634.506 77.815C635.723 81.1324 634.558 83.991 631.721 85.9132L621.793 92.64C618.247 95.0428 615.158 95.0672 611.815 93.1908C581.447 71.3277 542.874 63.3045 505.872 72.8495C437.312 89.2842 394.869 159.45 412.553 228.211C412.577 231.3 411.186 235.348 408.349 237.271L398.422 243.997C397.002 244.959 396.294 245.439 395.103 245.21Z" fill="url(#paint2_linear_1529_9481)"/>
</g>
</g>
<defs>
<filter id="filter0_f_1529_9481" x="-734.83" y="-234.447" width="1243.59" height="540.53" filterUnits="userSpaceOnUse" color-interpolation-filters="sRGB">
<feFlood flood-opacity="0" result="BackgroundImageFix"/>
<feBlend mode="normal" in="SourceGraphic" in2="BackgroundImageFix" result="shape"/>
<feGaussianBlur stdDeviation="102.812" result="effect1_foregroundBlur_1529_9481"/>
</filter>
<linearGradient id="paint0_linear_1529_9481" x1="228" y1="-1.59928e-06" x2="215.22" y2="169.034" gradientUnits="userSpaceOnUse">
<stop stop-color="#2682E8"/>
<stop offset="1" stop-color="#0425D3"/>
</linearGradient>
<linearGradient id="paint1_linear_1529_9481" x1="282" y1="17.2125" x2="295.936" y2="179.746" gradientUnits="userSpaceOnUse">
<stop stop-color="#6747FE"/>
<stop offset="1" stop-color="#DB74FF"/>
</linearGradient>
<linearGradient id="paint2_linear_1529_9481" x1="390.228" y1="-43.9769" x2="390.228" y2="192.371" gradientUnits="userSpaceOnUse">
<stop/>
<stop offset="1" stop-opacity="0"/>
</linearGradient>
<clipPath id="clip0_1529_9481">
<rect width="456" height="170" fill="white"/>
</clipPath>
</defs>
</svg>
