<svg width="60" height="60" viewBox="0 0 60 60" fill="none" xmlns="http://www.w3.org/2000/svg">
<circle cx="30" cy="30" r="30" fill="#7CA016"/>
<g clip-path="url(#clip0_2222_53022)">
<path d="M49.055 16.3897C42.5372 14.3198 35.3768 15.6442 30.0269 19.8312C24.6769 15.6442 17.5165 14.3198 10.9987 16.3897L9.59924 16.8333L9.54541 16.8512L9.84227 18.0648L9.90751 18.3339C9.91077 18.3469 9.91566 18.3616 9.91893 18.3747C9.9646 18.5574 10.0119 18.7384 10.0608 18.9195C10.0641 18.9341 10.069 18.9488 10.0739 18.9635C11.8175 25.2138 16.4171 30.2734 22.3804 32.6433C22.245 33.4263 22.1585 34.2092 22.1145 34.9921C21.7638 41.1918 24.2137 47.2872 28.9357 51.5329L30.0269 52.5131L31.1181 51.5329C35.8417 47.2855 38.2915 41.1918 37.9392 34.9921C36.8904 35.3754 35.8107 35.682 34.7097 35.9088C34.7733 40.3763 33.1194 44.7264 30.0269 48.0375C26.9343 44.728 25.2804 40.3763 25.344 35.9088C25.3555 35.1438 25.4142 34.3772 25.5283 33.6106C25.5332 33.6106 25.5398 33.6122 25.5447 33.6138C25.5789 33.3007 25.6229 32.9891 25.6768 32.6809C25.8105 31.9126 26.0079 31.1607 26.264 30.43C26.507 29.7384 26.8038 29.0664 27.1529 28.4172C27.3209 28.078 27.4987 27.7436 27.6879 27.4157C27.9587 26.946 28.2506 26.4926 28.5622 26.0538C28.3093 25.7586 28.0435 25.4715 27.7629 25.1991C27.254 24.7033 26.706 24.2531 26.127 23.8502C25.6719 24.4684 25.2494 25.1143 24.8629 25.7847C24.1876 26.9541 23.6298 28.1823 23.1943 29.4513C18.6778 27.5234 15.1351 23.7262 13.5285 19.0875C18.4103 18.0224 23.5613 19.1184 27.59 22.0772C27.5884 22.0789 27.5868 22.0821 27.5851 22.0837C27.9913 22.3741 28.3811 22.684 28.7579 23.0118C28.9618 23.1896 29.1624 23.3739 29.3565 23.5631C29.394 23.6006 29.4299 23.6382 29.4674 23.6757C29.5049 23.7132 29.5408 23.7507 29.5783 23.7882C29.6648 23.8763 29.7512 23.9627 29.8344 24.0525C29.898 24.1193 29.9632 24.1829 30.0269 24.2498C30.9191 25.2105 31.7036 26.2691 32.3658 27.4141C32.9237 28.3797 33.3836 29.3926 33.7457 30.4381C32.5289 30.7024 31.2844 30.8394 30.0269 30.8394C29.5392 30.8394 29.0531 30.8182 28.5703 30.7774C28.1674 31.8001 27.9097 32.875 27.8021 33.9808C28.6209 34.0673 29.4462 34.1064 30.2699 34.0966C30.3188 34.0966 30.3661 34.0966 30.4134 34.0934C30.5814 34.0901 30.7478 34.0852 30.9142 34.0787C30.9713 34.0754 31.0283 34.0722 31.0854 34.0705C31.242 34.0624 31.3986 34.0542 31.5552 34.0428C31.64 34.0363 31.7232 34.0281 31.808 34.0216C31.9385 34.0102 32.0673 34.0004 32.1978 33.9874C32.4148 33.9645 32.6317 33.9401 32.847 33.9107C32.8519 33.9107 32.8584 33.9107 32.8633 33.9091C33.0395 33.8846 33.214 33.8585 33.3885 33.8308C33.4065 33.8275 33.426 33.8242 33.444 33.821C33.6071 33.7933 33.7686 33.7655 33.9317 33.7345C33.9561 33.7296 33.9806 33.7248 34.0051 33.7199C34.1665 33.6889 34.328 33.6546 34.4879 33.6204C34.5254 33.6122 34.5629 33.6041 34.602 33.5959C35.1175 33.4801 35.6247 33.3447 36.1255 33.1914C36.3897 33.1098 36.6507 33.0234 36.91 32.932L36.9214 32.9272C37.1025 32.8635 37.2819 32.795 37.4597 32.7265C37.5298 32.6988 37.6016 32.6727 37.6717 32.6433C43.6382 30.2669 48.246 25.1681 49.9798 18.9651C49.9831 18.9504 49.988 18.9358 49.9929 18.9211C50.0435 18.74 50.0908 18.559 50.1348 18.3763C50.1609 18.2735 50.187 18.1708 50.2115 18.0664C50.3044 17.6603 50.3843 17.2509 50.4545 16.8366L49.055 16.3929V16.3897ZM36.8594 29.4497C36.4256 28.1807 35.8678 26.9525 35.1909 25.783C34.4177 24.4439 33.5043 23.2027 32.4637 22.0756C36.4925 19.1184 41.645 18.0207 46.5252 19.0858C44.9186 23.7246 41.3759 27.5218 36.8594 29.4497Z" fill="white"/>
</g>
<defs>
<clipPath id="clip0_2222_53022">
<rect width="40.9091" height="37.0875" fill="white" transform="translate(9.54541 15.427)"/>
</clipPath>
</defs>
</svg>
