<svg width="1em" height="1em" viewBox="0 0 88 88" fill="none" xmlns="http://www.w3.org/2000/svg">
<g clip-path="url(#clip0_2151_50327)">
<path fill-rule="evenodd" clip-rule="evenodd" d="M80.0255 42H72V50H79.5834C76.7261 67.0707 61.8823 80.08 44 80.08C24.0736 80.08 7.92 63.9264 7.92 44C7.92 24.0736 24.0736 7.92 44 7.92C58.3943 7.92 70.8198 16.3493 76.6097 28.5409L84.0811 25.8216C77.1625 10.5912 61.8181 0 44 0C19.6995 0 0 19.6995 0 44C0 68.3005 19.6995 88 44 88C68.3005 88 88 68.3005 88 44C88 43.3297 87.985 42.663 87.9554 42H87H80.0255Z" fill="#7CA016"/>
<g clip-path="url(#clip1_2151_50327)">
<path d="M66.8661 27.6675C59.0447 25.1837 50.4522 26.773 44.0323 31.7974C37.6123 26.773 29.0198 25.1837 21.1985 27.6675L19.5191 28.1999L19.4545 28.2214L19.8108 29.6777L19.889 30.0006C19.893 30.0163 19.8988 30.0339 19.9027 30.0495C19.9576 30.2688 20.0143 30.486 20.073 30.7033C20.0769 30.7209 20.0828 30.7385 20.0887 30.7561C22.181 38.2565 27.7006 44.328 34.8565 47.172C34.694 48.1115 34.5903 49.051 34.5374 49.9905C34.1166 57.4301 37.0565 64.7445 42.7228 69.8394L44.0323 71.0157L45.3417 69.8394C51.01 64.7426 53.9499 57.4301 53.5271 49.9905C52.2686 50.4504 50.9728 50.8184 49.6517 51.0905C49.728 56.4515 47.7433 61.6716 44.0323 65.6449C40.3212 61.6735 38.3365 56.4515 38.4129 51.0905C38.4266 50.1725 38.497 49.2526 38.6341 48.3326C38.6399 48.3326 38.6478 48.3346 38.6536 48.3365C38.6947 47.9607 38.7476 47.5869 38.8122 47.217C38.9727 46.2951 39.2095 45.3928 39.5168 44.5159C39.8084 43.686 40.1647 42.8796 40.5835 42.1006C40.7851 41.6935 40.9985 41.2922 41.2255 40.8988C41.5504 40.3351 41.9008 39.791 42.2746 39.2645C41.9712 38.9102 41.6522 38.5657 41.3155 38.2389C40.7049 37.6438 40.0472 37.1036 39.3524 36.6202C38.8063 37.362 38.2994 38.1371 37.8355 38.9415C37.0252 40.3449 36.3558 41.8188 35.8332 43.3415C30.4134 41.028 26.1622 36.4714 24.2342 30.9049C30.0924 29.6268 36.2736 30.9421 41.1081 34.4926C41.1061 34.4946 41.1042 34.4985 41.1022 34.5004C41.5896 34.8488 42.0574 35.2207 42.5095 35.6141C42.7542 35.8275 42.9949 36.0487 43.2278 36.2757C43.2728 36.3207 43.3159 36.3657 43.3609 36.4108C43.4059 36.4558 43.449 36.5008 43.494 36.5458C43.5977 36.6515 43.7015 36.7552 43.8013 36.8629C43.8776 36.9431 43.9559 37.0195 44.0323 37.0997C45.1029 38.2526 46.0444 39.5228 46.839 40.8969C47.5084 42.0556 48.0604 43.2711 48.4949 44.5257C47.0348 44.8428 45.5413 45.0072 44.0323 45.0072C43.447 45.0072 42.8638 44.9817 42.2844 44.9328C41.801 46.16 41.4917 47.4499 41.3625 48.7769C42.3451 48.8807 43.3355 48.9276 44.3239 48.9159C44.3826 48.9159 44.4394 48.9159 44.4961 48.912C44.6977 48.9081 44.8974 48.9022 45.097 48.8944C45.1655 48.8905 45.234 48.8865 45.3025 48.8846C45.4904 48.8748 45.6784 48.865 45.8663 48.8513C45.968 48.8435 46.0679 48.8337 46.1696 48.8259C46.3262 48.8122 46.4808 48.8004 46.6374 48.7848C46.8977 48.7574 47.1581 48.728 47.4164 48.6928C47.4223 48.6928 47.4301 48.6928 47.436 48.6908C47.6474 48.6615 47.8568 48.6301 48.0662 48.5969C48.0878 48.5929 48.1113 48.589 48.1328 48.5851C48.3285 48.5518 48.5223 48.5186 48.718 48.4814C48.7474 48.4755 48.7767 48.4696 48.8061 48.4638C48.9999 48.4266 49.1936 48.3855 49.3855 48.3444C49.4305 48.3346 49.4755 48.3248 49.5225 48.315C50.141 48.176 50.7497 48.0136 51.3506 47.8296C51.6677 47.7317 51.9808 47.628 52.292 47.5184L52.3057 47.5125C52.523 47.4362 52.7383 47.354 52.9517 47.2718C53.0358 47.2385 53.1219 47.2072 53.2061 47.172C60.3659 44.3202 65.8952 38.2017 67.9758 30.7581C67.9798 30.7405 67.9856 30.7229 67.9915 30.7052C68.0522 30.488 68.1089 30.2707 68.1618 30.0515C68.1931 29.9282 68.2244 29.8049 68.2538 29.6796C68.3653 29.1923 68.4613 28.701 68.5454 28.2038L66.8661 27.6714V27.6675ZM52.2314 43.3396C51.7107 41.8168 51.0413 40.343 50.2291 38.9396C49.3013 37.3326 48.2052 35.8431 46.9565 34.4906C51.791 30.9421 57.9741 29.6248 63.8303 30.9029C61.9024 36.4695 57.6511 41.026 52.2314 43.3396Z" fill="#7CA016"/>
</g>
</g>
<defs>
<clipPath id="clip0_2151_50327">
<rect width="88" height="88" fill="white"/>
</clipPath>
<clipPath id="clip1_2151_50327">
<rect width="49.0909" height="44.505" fill="white" transform="translate(19.4545 26.5125)"/>
</clipPath>
</defs>
</svg>
