<svg width="1em" height="1em" viewBox="0 0 60 60" fill="none" xmlns="http://www.w3.org/2000/svg">
<path fill-rule="evenodd" clip-rule="evenodd" d="M54.5628 28.6364H49.0909V34.0909H54.2614C52.3132 45.73 42.1925 54.6 30 54.6C16.4138 54.6 5.4 43.5862 5.4 30C5.4 16.4138 16.4138 5.4 30 5.4C39.8143 5.4 48.2862 11.1472 52.2339 19.4597L57.328 17.6056C52.6108 7.22128 42.1487 0 30 0C13.4315 0 0 13.4315 0 30C0 46.5685 13.4315 60 30 60C46.5685 60 60 46.5685 60 30C60 29.543 59.9898 29.0884 59.9696 28.6364H59.3182H54.5628Z" fill="#EB605F"/>
<path d="M15.7754 16.3325H24.4221L15.7754 42.8305V16.3325Z" fill="#EB605F" fill-opacity="0.8"/>
<path d="M25.8164 30.8364L43.3887 43.3881H43.9466V30.8364H25.8164Z" fill="#EB605F" fill-opacity="0.5"/>
<path d="M32.7893 24.4214C33.6819 19.9586 29.8141 17.1693 27.7687 16.3325H43.9463L43.3885 30.2788H26.374C30.8368 30.0557 32.5104 26.2809 32.7893 24.4214Z" fill="#EB605F"/>
<path fill-rule="evenodd" clip-rule="evenodd" d="M43.3887 16.6113H16.6118V43.3882H43.3887V16.6113ZM15.4961 15.4956V44.5039H44.5044V15.4956H15.4961Z" fill="#EB605F"/>
<path fill-rule="evenodd" clip-rule="evenodd" d="M24.9796 16.6113H16.6118V43.3882H24.9796V16.6113ZM15.4961 15.4956V44.5039H26.0953V15.4956H15.4961Z" fill="#EB605F"/>
<path fill-rule="evenodd" clip-rule="evenodd" d="M43.3886 31.1157H26.0952V43.3884H43.3886V31.1157ZM24.9795 30V44.5041H44.5043V30H24.9795Z" fill="#EB605F"/>
<path d="M26.0957 31.0957C30.1486 30.8097 33.3478 27.4312 33.3478 23.3054C33.3478 19.1797 30.1486 15.8012 26.0957 15.5151V16.6341C29.5318 16.9176 32.2321 19.7962 32.2321 23.3054C32.2321 26.8147 29.5318 29.6933 26.0957 29.9767V31.0957Z" fill="#EB605F"/>
<path fill-rule="evenodd" clip-rule="evenodd" d="M43.6172 44.1179L26.0449 31.2873L26.7028 30.3862L44.2752 43.2168L43.6172 44.1179Z" fill="#EB605F"/>
<path fill-rule="evenodd" clip-rule="evenodd" d="M15.5232 43.5939L24.4488 16.1597L25.5098 16.5048L16.5841 43.9391L15.5232 43.5939Z" fill="#EB605F"/>
</svg>
