<svg width="1em" height="1em" viewBox="0 0 60 60" fill="none" xmlns="http://www.w3.org/2000/svg">
<circle cx="30" cy="30" r="30" fill="#7CA016"/>
<g clip-path="url(#clip0_6182_143157)">
<path d="M49.0545 16.39C42.5367 14.3202 35.3763 15.6446 30.0264 19.8316C24.6764 15.6446 17.516 14.3202 10.9982 16.39L9.59875 16.8337L9.54492 16.8516L9.84178 18.0651L9.90702 18.3343C9.91028 18.3473 9.91518 18.362 9.91844 18.375C9.96411 18.5577 10.0114 18.7388 10.0603 18.9198C10.0636 18.9345 10.0685 18.9492 10.0734 18.9639C11.817 25.2142 16.4167 30.2738 22.3799 32.6437C22.2445 33.4266 22.158 34.2095 22.114 34.9925C21.7633 41.1922 24.2132 47.2875 28.9352 51.5332L30.0264 52.5135L31.1176 51.5332C35.8412 47.2859 38.291 41.1922 37.9387 34.9925C36.8899 35.3758 35.8102 35.6824 34.7092 35.9091C34.7728 40.3767 33.1189 44.7267 30.0264 48.0378C26.9338 44.7284 25.2799 40.3767 25.3435 35.9091C25.355 35.1442 25.4137 34.3776 25.5279 33.6109C25.5328 33.6109 25.5393 33.6126 25.5442 33.6142C25.5784 33.301 25.6225 32.9895 25.6763 32.6812C25.81 31.913 26.0074 31.1611 26.2635 30.4303C26.5065 29.7388 26.8034 29.0668 27.1524 28.4176C27.3204 28.0783 27.4982 27.744 27.6874 27.4161C27.9582 26.9464 28.2501 26.4929 28.5617 26.0542C28.3088 25.7589 28.043 25.4719 27.7624 25.1995C27.2535 24.7036 26.7055 24.2534 26.1265 23.8506C25.6714 24.4687 25.2489 25.1147 24.8624 25.785C24.1871 26.9545 23.6293 28.1827 23.1938 29.4517C18.6773 27.5238 15.1346 23.7266 13.528 19.0878C18.4098 18.0227 23.5608 19.1188 27.5895 22.0776C27.5879 22.0792 27.5863 22.0825 27.5846 22.0841C27.9908 22.3744 28.3806 22.6843 28.7574 23.0122C28.9613 23.19 29.1619 23.3743 29.356 23.5635C29.3935 23.601 29.4294 23.6385 29.4669 23.676C29.5044 23.7136 29.5403 23.7511 29.5778 23.7886C29.6643 23.8767 29.7507 23.9631 29.8339 24.0528C29.8975 24.1197 29.9628 24.1833 30.0264 24.2502C30.9186 25.2109 31.7031 26.2695 32.3653 27.4145C32.9232 28.3801 33.3831 29.393 33.7452 30.4385C32.5284 30.7027 31.2839 30.8397 30.0264 30.8397C29.5387 30.8397 29.0526 30.8185 28.5698 30.7778C28.1669 31.8004 27.9092 32.8753 27.8016 33.9812C28.6204 34.0676 29.4457 34.1068 30.2694 34.097C30.3183 34.097 30.3656 34.097 30.4129 34.0937C30.5809 34.0905 30.7473 34.0856 30.9137 34.0791C30.9708 34.0758 31.0279 34.0725 31.0849 34.0709C31.2415 34.0628 31.3981 34.0546 31.5547 34.0432C31.6395 34.0367 31.7227 34.0285 31.8075 34.022C31.938 34.0106 32.0669 34.0008 32.1973 33.9877C32.4143 33.9649 32.6312 33.9404 32.8465 33.9111C32.8514 33.9111 32.8579 33.9111 32.8628 33.9094C33.039 33.885 33.2135 33.8589 33.388 33.8311C33.406 33.8279 33.4255 33.8246 33.4435 33.8214C33.6066 33.7936 33.7681 33.7659 33.9312 33.7349C33.9556 33.73 33.9801 33.7251 34.0046 33.7202C34.166 33.6892 34.3275 33.655 34.4874 33.6207C34.5249 33.6126 34.5624 33.6044 34.6015 33.5963C35.117 33.4805 35.6242 33.3451 36.125 33.1918C36.3892 33.1102 36.6502 33.0238 36.9095 32.9324L36.9209 32.9275C37.102 32.8639 37.2814 32.7954 37.4592 32.7269C37.5293 32.6992 37.6011 32.6731 37.6712 32.6437C43.6377 30.2672 48.2455 25.1685 49.9794 18.9655C49.9826 18.9508 49.9875 18.9361 49.9924 18.9215C50.043 18.7404 50.0903 18.5594 50.1343 18.3767C50.1604 18.2739 50.1865 18.1712 50.211 18.0668C50.3039 17.6606 50.3839 17.2512 50.454 16.8369L49.0545 16.3933V16.39ZM36.859 29.4501C36.4251 28.1811 35.8673 26.9529 35.1904 25.7834C34.4172 24.4443 33.5038 23.203 32.4632 22.076C36.492 19.1188 41.6445 18.0211 46.5247 19.0862C44.9181 23.725 41.3754 27.5221 36.859 29.4501Z" fill="white"/>
</g>
<defs>
<clipPath id="clip0_6182_143157">
<rect width="40.9091" height="37.0875" fill="white" transform="translate(9.54492 15.4272)"/>
</clipPath>
</defs>
</svg>
