<svg width="1em" height="1em" viewBox="0 0 60 60" fill="none" xmlns="http://www.w3.org/2000/svg">
<path fill-rule="evenodd" clip-rule="evenodd" d="M54.5713 28.8001H48V34.2001H54.2429C52.2499 45.7854 42.1543 54.6 30 54.6C16.4138 54.6 5.4 43.5862 5.4 30C5.4 16.4138 16.4138 5.4 30 5.4C39.6687 5.4 48.0345 10.9779 52.0552 19.0914L57.1565 17.2347C52.3605 7.04973 42.0035 0 30 0C13.4315 0 0 13.4315 0 30C0 46.5685 13.4315 60 30 60C46.5685 60 60 46.5685 60 30C60 29.598 59.9921 29.1979 59.9764 28.7998L54.5712 28.7998C54.5712 28.7999 54.5713 28.8 54.5713 28.8001Z" fill="#7246EE"/>
<path fill-rule="evenodd" clip-rule="evenodd" d="M16.8 20.3198H11.52L24.72 44.9598L29.12 36.7465L26.48 31.8185L26.04 32.6398L24.72 35.1038L23.4 32.6398L16.8 20.3198ZM27.36 30.1758L28.68 32.6398L30 35.1038L31.98 38.7998L35.28 44.9598L48.48 20.3198H43.2L36.6 32.6398L35.28 35.1038L33.96 32.6398L32.64 30.1758L30 25.2478L27.36 20.3198H22.08L27.36 30.1758ZM37.92 20.3198L33.52 28.5332L30.88 23.6052L32.64 20.3198H37.92Z" fill="#7246EE"/>
</svg>
