<svg width="1em" height="1em" viewBox="0 0 61 60" fill="none" xmlns="http://www.w3.org/2000/svg">
<circle cx="30.793" cy="30" r="30" fill="#1F8DF2"/>
<path d="M39.3675 45.5977C39.3675 45.5977 41.9699 45.7868 43.8446 45.5977C45.4185 45.3864 46.9227 44.9532 48.3247 44.3324C48.4981 44.255 48.5707 44.0465 48.4848 43.8768L45.9076 38.7245L45.8883 38.6873C44.5782 39.2724 43.1303 39.5999 41.6053 39.5999C40.5013 39.5999 39.4387 39.4287 38.4383 39.1131C36.8244 38.604 35.378 37.7152 34.2013 36.5511C33.404 35.7621 32.3444 35.2991 31.2255 35.2991H26.4757C26.2222 35.2991 26.0622 35.0267 26.1837 34.8034L28.509 30.5279L30.8105 26.2956C30.9365 26.0634 31.2684 26.0634 31.3959 26.2956C31.3959 26.2956 31.3974 26.2896 31.3989 26.2867L33.6974 30.5294L34.8415 32.6001C34.8756 32.6641 34.9112 32.7282 34.9467 32.7907C36.2642 35.116 38.751 36.6865 41.6053 36.6865C42.5301 36.6865 43.4178 36.5213 44.2388 36.2191C44.4256 36.1506 44.5115 35.9318 44.4211 35.7531L40.2241 27.3645L36.4006 19.7216L33.6663 14.2567L31.4018 9.72963C31.2788 9.484 30.9291 9.484 30.8061 9.72963L21.9823 27.366L13.1022 45.1124C12.991 45.3357 13.1525 45.5977 13.4 45.5977C13.4 45.5977 17.8668 41.8642 25.9644 41.8642C27.1678 41.8642 28.3667 42.0056 29.5063 42.3956C30.4533 42.7201 31.8716 43.4749 33.0631 43.9706C33.8664 44.3041 34.64 44.7031 35.4803 44.9278C36.6377 45.239 38.219 45.5977 39.369 45.5977H39.3675Z" fill="white"/>
</svg>
