<svg width="1em" height="1em" viewBox="0 0 61 60" fill="none" xmlns="http://www.w3.org/2000/svg">
<path fill-rule="evenodd" clip-rule="evenodd" d="M55.3558 28.6364H49.8839V34.0909H55.0544C53.1062 45.73 42.9854 54.6 30.793 54.6C17.2068 54.6 6.19297 43.5862 6.19297 30C6.19297 16.4138 17.2068 5.4 30.793 5.4C40.6073 5.4 49.0792 11.1472 53.0269 19.4597L58.121 17.6056C53.4037 7.22128 42.9417 0 30.793 0C14.2244 0 0.792969 13.4315 0.792969 30C0.792969 46.5685 14.2244 60 30.793 60C47.3615 60 60.793 46.5685 60.793 30C60.793 29.543 60.7828 29.0884 60.7625 28.6364H60.1111H55.3558Z" fill="#1F8DF2"/>
<path d="M37.8082 42.762C37.8082 42.762 39.9374 42.9167 41.4713 42.762C42.759 42.5891 43.9897 42.2346 45.1368 41.7267C45.2786 41.6634 45.338 41.4929 45.2677 41.354L43.1591 37.1385L43.1433 37.108C42.0715 37.5867 40.8868 37.8547 39.6391 37.8547C38.7358 37.8547 37.8664 37.7146 37.0479 37.4564C35.7274 37.0398 34.544 36.3127 33.5813 35.3602C32.9289 34.7146 32.0619 34.3358 31.1465 34.3358H27.2603C27.0529 34.3358 26.922 34.113 27.0214 33.9303L28.9239 30.4321L30.807 26.9693C30.91 26.7793 31.1816 26.7793 31.2859 26.9693C31.2859 26.9693 31.2871 26.9645 31.2883 26.962L33.169 30.4334L34.1051 32.1276C34.133 32.18 34.1621 32.2324 34.1912 32.2835C35.2691 34.186 37.3038 35.471 39.6391 35.471C40.3957 35.471 41.122 35.3358 41.7938 35.0886C41.9466 35.0325 42.0169 34.8535 41.9429 34.7073L38.509 27.8439L35.3807 21.5906L33.1435 17.1193L31.2908 13.4154C31.1901 13.2144 30.904 13.2144 30.8033 13.4154L23.5839 27.8451L16.3183 42.3649C16.2274 42.5476 16.3595 42.762 16.562 42.762C16.562 42.762 20.2166 39.7073 26.842 39.7073C27.8265 39.7073 28.8075 39.823 29.7399 40.1421C30.5147 40.4076 31.6751 41.0251 32.65 41.4307C33.3072 41.7036 33.9402 42.03 34.6277 42.2139C35.5747 42.4685 36.8685 42.762 37.8094 42.762H37.8082Z" fill="#1F8DF2"/>
</svg>
