<svg width="1em" height="1em" viewBox="0 0 88 88" fill="none" xmlns="http://www.w3.org/2000/svg">
<path d="M37.3683 75.1464L40.2506 78.0776C38.2732 76.0666 37.5782 72.7948 38.6684 68.706C40.849 60.4611 49.3196 51.9979 57.634 49.8559L54.7517 46.9246C46.4708 49.1007 37.9667 57.5298 35.7861 65.7747C34.6959 69.8635 35.3909 73.1354 37.3683 75.1464Z" fill="white"/>
<path d="M37.3601 75.1628L40.2419 78.0935C39.5047 77.3438 38.9027 76.3941 38.5704 75.2463L35.6886 72.3155C36.0546 73.4302 36.5894 74.379 37.3601 75.1628Z" fill="white" stroke="#1A1A1A" stroke-width="0.6" stroke-miterlimit="10"/>
<path d="M35.6926 72.3115L38.5744 75.2423C38.4746 74.9383 38.3749 74.567 38.3089 74.2299L35.427 71.2991C35.4931 71.6363 35.5927 72.0076 35.6926 72.3115Z" fill="white" stroke="#1A1A1A" stroke-width="0.6" stroke-miterlimit="10"/>
<path d="M35.4166 71.3018L38.2984 74.2325C38.2321 73.9626 38.233 73.6936 38.1667 73.4237L35.2849 70.4929C35.3512 70.7629 35.3503 71.0319 35.4166 71.3018Z" fill="white" stroke="#1A1A1A" stroke-width="0.6" stroke-miterlimit="10"/>
<path d="M35.3223 70.4577L38.2041 73.3884C38.1713 73.1525 38.1722 72.8835 38.1394 72.6477L35.2576 69.7169C35.2566 69.986 35.2895 70.2218 35.3223 70.4577Z" fill="white" stroke="#1A1A1A" stroke-width="0.6" stroke-miterlimit="10"/>
<path d="M35.2585 69.7217L38.1403 72.6524C38.1075 72.4166 38.1419 72.1816 38.1428 71.9126L35.261 68.9819C35.2601 69.2509 35.2592 69.5199 35.2585 69.7217Z" fill="white" stroke="#1A1A1A" stroke-width="0.6" stroke-miterlimit="10"/>
<path d="M35.2947 69.0108L38.1766 71.9415C38.1772 71.7398 38.2117 71.5048 38.2461 71.2699L35.3643 68.3392C35.2626 68.5732 35.2619 68.775 35.2947 69.0108Z" fill="white" stroke="#1A1A1A" stroke-width="0.6" stroke-miterlimit="10"/>
<path d="M35.2965 68.3336L38.1783 71.2643C38.179 71.0625 38.2134 70.8276 38.2478 70.5927L35.366 67.6619C35.3651 67.9309 35.3309 68.0986 35.2965 68.3336Z" fill="white" stroke="#1A1A1A" stroke-width="0.6" stroke-miterlimit="10"/>
<path d="M35.3977 67.6988L38.2795 70.6295C38.3139 70.3946 38.3481 70.2269 38.3826 69.992L35.5008 67.0612C35.4328 67.2621 35.3984 67.497 35.3977 67.6988Z" fill="white" stroke="#1A1A1A" stroke-width="0.6" stroke-miterlimit="10"/>
<path d="M35.4968 67.0645L38.3786 69.9952C38.413 69.7603 38.4472 69.5926 38.5151 69.3917L35.6333 66.461C35.5654 66.6618 35.4975 66.8627 35.4968 67.0645Z" fill="white" stroke="#1A1A1A" stroke-width="0.6" stroke-miterlimit="10"/>
<path d="M35.6127 66.4239L38.4945 69.3546C38.5625 69.1537 38.5969 68.9188 38.6649 68.7179L35.7831 65.7872C35.6814 66.0212 35.6807 66.223 35.6127 66.4239Z" fill="white" stroke="#1A1A1A" stroke-width="0.6" stroke-miterlimit="10"/>
<path d="M35.7487 65.8257L38.6305 68.7564L38.6642 68.7233C38.7322 68.5224 38.7664 68.3547 38.8343 68.1538L35.9525 65.2231C35.851 65.3899 35.8168 65.5576 35.7487 65.8257C35.7712 65.8036 35.7712 65.8036 35.7487 65.8257Z" fill="white"/>
<path d="M35.7487 65.8257L38.6305 68.7564L38.6642 68.7233C38.7322 68.5224 38.7664 68.3547 38.8343 68.1538L35.9525 65.2231C35.851 65.3899 35.8168 65.5576 35.7487 65.8257C35.7712 65.8036 35.7712 65.8036 35.7487 65.8257" stroke="#1A1A1A" stroke-width="0.6" stroke-miterlimit="10"/>
<path d="M35.9188 65.1824L38.8006 68.1131C38.8686 67.9122 38.9365 67.7114 39.0044 67.5105L36.1226 64.5798C36.0547 64.7807 35.9868 64.9815 35.9188 65.1824Z" fill="white" stroke="#1A1A1A" stroke-width="0.6" stroke-miterlimit="10"/>
<path d="M36.1156 64.587L38.9974 67.5178C39.0654 67.3169 39.1333 67.1161 39.2012 66.9152L36.3194 63.9845C36.2852 64.1521 36.1835 64.3862 36.1156 64.587Z" fill="white" stroke="#1A1A1A" stroke-width="0.6" stroke-miterlimit="10"/>
<path d="M36.3527 63.9446L39.2345 66.8753C39.3024 66.6745 39.3703 66.4736 39.472 66.2396L36.5902 63.3088C36.4885 63.5429 36.4206 63.7437 36.3527 63.9446Z" fill="white" stroke="#1A1A1A" stroke-width="0.6" stroke-miterlimit="10"/>
<path d="M36.5599 63.3442L39.4417 66.275C39.5096 66.0741 39.6113 65.8401 39.7128 65.6733L36.831 62.7425C36.763 62.9434 36.6616 63.1102 36.5599 63.3442Z" fill="white" stroke="#1A1A1A" stroke-width="0.6" stroke-miterlimit="10"/>
<path d="M36.8629 62.7104L39.7447 65.6412C39.8126 65.4403 39.9478 65.2403 40.0495 65.0063L37.1677 62.0756C37.0325 62.2755 36.9308 62.5096 36.8629 62.7104Z" fill="white" stroke="#1A1A1A" stroke-width="0.6" stroke-miterlimit="10"/>
<path d="M37.1417 62.1136L40.0235 65.0444C40.1252 64.8103 40.2266 64.6436 40.3283 64.4095L37.4465 61.4788C37.3785 61.6796 37.2433 61.8796 37.1417 62.1136Z" fill="white" stroke="#1A1A1A" stroke-width="0.6" stroke-miterlimit="10"/>
<path d="M37.4786 61.431L40.3604 64.3618C40.4621 64.1277 40.5973 63.9278 40.6989 63.6937L37.8171 60.763C37.6817 61.0302 37.5465 61.2302 37.4786 61.431Z" fill="white" stroke="#1A1A1A" stroke-width="0.6" stroke-miterlimit="10"/>
<path d="M37.782 60.805L40.6638 63.7358C40.799 63.5358 40.9007 63.3018 41.0358 63.1018L38.154 60.1711C38.0524 60.4051 37.9172 60.6051 37.782 60.805Z" fill="white" stroke="#1A1A1A" stroke-width="0.6" stroke-miterlimit="10"/>
<path d="M38.1497 60.1713L41.0315 63.1021C41.1667 62.9021 41.2683 62.6681 41.4035 62.4681L38.5217 59.5374C38.42 59.7714 38.2848 59.9714 38.1497 60.1713Z" fill="white" stroke="#1A1A1A" stroke-width="0.6" stroke-miterlimit="10"/>
<path d="M38.5209 59.534L41.4028 62.4647C41.5379 62.2648 41.6731 62.0648 41.8083 61.8649L38.9265 58.9341C38.7913 59.1341 38.6561 59.334 38.5209 59.534Z" fill="white" stroke="#1A1A1A" stroke-width="0.6" stroke-miterlimit="10"/>
<path d="M38.9267 58.9432L41.8085 61.8739C41.9437 61.674 42.0789 61.474 42.2141 61.274L39.3323 58.3433C39.1971 58.5433 39.0619 58.7432 38.9267 58.9432Z" fill="white" stroke="#1A1A1A" stroke-width="0.6" stroke-miterlimit="10"/>
<path d="M39.3337 58.3404L42.2155 61.2711C42.3507 61.0712 42.4859 60.8712 42.621 60.6712L39.7392 57.7405C39.6041 57.9405 39.4689 58.1404 39.3337 58.3404Z" fill="white" stroke="#1A1A1A" stroke-width="0.6" stroke-miterlimit="10"/>
<path d="M39.7689 57.7668L42.6507 60.6975C42.7859 60.4975 42.9211 60.2976 43.0898 60.1317L40.208 57.201C40.0393 57.3668 39.9041 57.5668 39.7689 57.7668Z" fill="white" stroke="#1A1A1A" stroke-width="0.6" stroke-miterlimit="10"/>
<path d="M40.143 57.2043L43.0248 60.135C43.1599 59.9351 43.3286 59.7692 43.4638 59.5692L40.582 56.6385C40.4468 56.8384 40.3116 57.0384 40.143 57.2043Z" fill="white" stroke="#1A1A1A" stroke-width="0.6" stroke-miterlimit="10"/>
<path d="M40.6193 56.6726L43.5011 59.6034C43.6363 59.4034 43.8049 59.2375 43.9401 59.0376L41.0583 56.1068C40.9232 56.3068 40.7544 56.4727 40.6193 56.6726Z" fill="white" stroke="#1A1A1A" stroke-width="0.6" stroke-miterlimit="10"/>
<path d="M41.0645 56.1052L43.9463 59.036C44.1152 58.8028 44.284 58.637 44.4864 58.4379L41.6046 55.5072C41.4021 55.7062 41.267 55.9062 41.0645 56.1052Z" fill="white" stroke="#1A1A1A" stroke-width="0.6" stroke-miterlimit="10"/>
<path d="M41.5899 55.5051L44.4717 58.4359C44.6742 58.2368 44.8768 57.9705 45.0793 57.7715L42.1974 54.8407C41.9613 55.073 41.7588 55.272 41.5899 55.5051Z" fill="white" stroke="#1A1A1A" stroke-width="0.6" stroke-miterlimit="10"/>
<path d="M42.2032 54.8391L45.085 57.7699C45.4224 57.4381 45.6925 57.1055 46.0299 56.7737L43.1481 53.8429C42.8107 54.1747 42.4733 54.5065 42.2032 54.8391Z" fill="white" stroke="#1A1A1A" stroke-width="0.6" stroke-miterlimit="10"/>
<path d="M43.1165 53.8805L45.9983 56.8112C46.4369 56.3799 46.9092 55.9155 47.3814 55.5183L44.4995 52.5875C44.0609 53.0188 43.5888 53.416 43.1165 53.8805Z" fill="white" stroke="#1A1A1A" stroke-width="0.6" stroke-miterlimit="10"/>
<path d="M44.5349 52.6226L47.4167 55.5533C47.7876 55.2556 48.1588 54.8907 48.5632 54.6271L45.6814 51.6963C45.2769 51.9599 44.906 52.2576 44.5349 52.6226Z" fill="white" stroke="#1A1A1A" stroke-width="0.6" stroke-miterlimit="10"/>
<path d="M45.6465 51.6554L48.5283 54.5861C48.798 54.388 49.0677 54.1898 49.3374 53.9917L46.4556 51.0609C46.1859 51.2591 45.9162 51.4572 45.6465 51.6554Z" fill="white" stroke="#1A1A1A" stroke-width="0.6" stroke-miterlimit="10"/>
<path d="M46.4531 51.0686L49.3349 53.9993C49.5709 53.8344 49.7731 53.7026 50.009 53.5376L47.1272 50.6068C46.8578 50.7377 46.6556 50.8695 46.4531 51.0686Z" fill="white" stroke="#1A1A1A" stroke-width="0.6" stroke-miterlimit="10"/>
<path d="M47.0952 50.5754L49.977 53.5062C50.213 53.3412 50.4152 53.2094 50.6511 53.0444L47.7693 50.1137C47.5334 50.2787 47.3312 50.4105 47.0952 50.5754Z" fill="white" stroke="#1A1A1A" stroke-width="0.6" stroke-miterlimit="10"/>
<path d="M47.78 50.1057L50.6618 53.0365C50.864 52.9047 51.1 52.7397 51.3022 52.6079L48.4204 49.6771C48.2182 49.8089 47.9822 49.9739 47.78 50.1057Z" fill="white" stroke="#1A1A1A" stroke-width="0.6" stroke-miterlimit="10"/>
<path d="M48.4397 49.7178L51.3215 52.6485C51.5237 52.5167 51.7932 52.3858 51.9954 52.254L49.1136 49.3233C48.8779 49.421 48.6419 49.586 48.4397 49.7178Z" fill="white" stroke="#1A1A1A" stroke-width="0.6" stroke-miterlimit="10"/>
<path d="M49.0781 49.2915L51.9599 52.2222C52.1621 52.0904 52.4316 51.9595 52.6338 51.8277L49.752 48.897C49.5498 49.0288 49.3476 49.1606 49.0781 49.2915Z" fill="white" stroke="#1A1A1A" stroke-width="0.6" stroke-miterlimit="10"/>
<path d="M49.7874 48.9225L52.6692 51.8532C52.9049 51.7555 53.1408 51.5905 53.3765 51.4928L50.4947 48.5621C50.259 48.6598 50.0233 48.7575 49.7874 48.9225Z" fill="white" stroke="#1A1A1A" stroke-width="0.6" stroke-miterlimit="10"/>
<path d="M50.5378 48.5334L53.4196 51.4642C53.6554 51.3665 53.8913 51.2015 54.127 51.1038L51.2452 48.173C50.9758 48.3039 50.74 48.4016 50.5378 48.5334Z" fill="white" stroke="#1A1A1A" stroke-width="0.6" stroke-miterlimit="10"/>
<path d="M51.2024 48.1963L54.0842 51.127C54.3199 51.0293 54.5556 50.9316 54.7914 50.8339L51.9095 47.9031C51.7076 47.9677 51.4718 48.0654 51.2024 48.1963Z" fill="white" stroke="#1A1A1A" stroke-width="0.6" stroke-miterlimit="10"/>
<path d="M51.9482 47.8817L54.83 50.8125C55.0658 50.7147 55.3015 50.617 55.5035 50.5525L52.6217 47.6217C52.3524 47.6854 52.1504 47.7499 51.9482 47.8817Z" fill="white" stroke="#1A1A1A" stroke-width="0.6" stroke-miterlimit="10"/>
<path d="M52.6233 47.6171L55.5051 50.5478C55.7408 50.4501 55.9428 50.3855 56.1785 50.2878L53.2967 47.3571C53.061 47.4548 52.859 47.5193 52.6233 47.6171Z" fill="white" stroke="#1A1A1A" stroke-width="0.6" stroke-miterlimit="10"/>
<path d="M53.3 47.3568L56.1819 50.2876C56.3838 50.223 56.6195 50.1253 56.8215 50.0607L53.9397 47.13C53.7378 47.1945 53.502 47.2923 53.3 47.3568Z" fill="white" stroke="#1A1A1A" stroke-width="0.6" stroke-miterlimit="10"/>
<path d="M53.9238 47.1243L56.8056 50.055C57.0076 49.9905 57.2096 49.9259 57.4451 49.8954L54.5633 46.9647C54.3278 46.9952 54.1258 47.0597 53.9238 47.1243Z" fill="white" stroke="#1A1A1A" stroke-width="0.6" stroke-miterlimit="10"/>
<path d="M54.5837 46.9683L57.4655 49.899C57.5328 49.8999 57.5665 49.8667 57.6338 49.8676L54.752 46.9369C54.6847 46.936 54.6175 46.9351 54.5837 46.9683Z" fill="white" stroke="#1A1A1A" stroke-width="0.6" stroke-miterlimit="10"/>
<path d="M37.3683 75.1464L40.2506 78.0776C38.2732 76.0666 37.5782 72.7948 38.6684 68.706C40.849 60.4611 49.3196 51.9979 57.634 49.8559L54.7517 46.9246C46.4708 49.1007 37.9667 57.5298 35.7861 65.7747C34.6959 69.8635 35.3909 73.1354 37.3683 75.1464Z" stroke="#1A1A1A" stroke-width="0.6" stroke-miterlimit="10"/>
<path d="M67.1418 51.4948L64.2595 48.5635C62.2486 46.5185 58.9214 45.8348 54.7473 46.9224L57.6296 49.8536C61.8037 48.766 65.1309 49.4497 67.1418 51.4948Z" fill="white"/>
<path d="M54.719 46.8878L57.6008 49.8186C57.769 49.7872 57.9038 49.7217 58.072 49.6904L55.1902 46.7596C55.0555 46.8251 54.8872 46.8564 54.719 46.8878Z" fill="white" stroke="#1A1A1A" stroke-width="0.6" stroke-miterlimit="10"/>
<path d="M55.1897 46.7601L58.0715 49.6909C58.2735 49.6263 58.4752 49.629 58.6772 49.5645L55.7954 46.6337C55.5934 46.6983 55.3914 46.7628 55.1897 46.7601Z" fill="white" stroke="#1A1A1A" stroke-width="0.6" stroke-miterlimit="10"/>
<path d="M55.7988 46.63L58.6806 49.5607C58.8826 49.4962 59.0844 49.4989 59.2526 49.4675L56.3708 46.5368C56.2025 46.5682 56.0006 46.6327 55.7988 46.63Z" fill="white" stroke="#1A1A1A" stroke-width="0.6" stroke-miterlimit="10"/>
<path d="M56.3972 46.573L59.279 49.5037C59.4473 49.4724 59.6827 49.4419 59.851 49.4105L56.9692 46.4798C56.7674 46.4771 56.5992 46.5085 56.3972 46.573Z" fill="white" stroke="#1A1A1A" stroke-width="0.6" stroke-miterlimit="10"/>
<path d="M56.9636 46.4756L59.8454 49.4063C60.0472 49.409 60.2154 49.3777 60.4172 49.3804L57.5353 46.4496C57.3336 46.4469 57.1319 46.4442 56.9636 46.4756Z" fill="white" stroke="#1A1A1A" stroke-width="0.6" stroke-miterlimit="10"/>
<path d="M57.5427 46.4534L60.4245 49.3841C60.6263 49.3868 60.7945 49.3554 60.9963 49.3582L58.1144 46.4274C57.9464 46.3915 57.7447 46.3888 57.5427 46.4534Z" fill="white" stroke="#1A1A1A" stroke-width="0.6" stroke-miterlimit="10"/>
<path d="M58.0876 46.3938L60.9694 49.3245C61.1712 49.3272 61.3729 49.33 61.5412 49.2986L58.6594 46.3678C58.4911 46.3992 58.2894 46.3965 58.0876 46.3938Z" fill="white" stroke="#1A1A1A" stroke-width="0.6" stroke-miterlimit="10"/>
<path d="M58.687 46.3995L61.5688 49.3303C61.7706 49.333 61.9723 49.3357 62.1403 49.3716L59.2585 46.4408C59.0905 46.4049 58.8888 46.4022 58.687 46.3995Z" fill="white" stroke="#1A1A1A" stroke-width="0.6" stroke-miterlimit="10"/>
<path d="M59.2603 46.4419L62.1421 49.3726C62.3438 49.3753 62.5118 49.4112 62.7471 49.448L59.8653 46.5173C59.6637 46.4473 59.462 46.4446 59.2603 46.4419Z" fill="white" stroke="#1A1A1A" stroke-width="0.6" stroke-miterlimit="10"/>
<path d="M59.8247 46.4877L62.7065 49.4184C62.9083 49.4211 63.1098 49.4911 63.2778 49.527L60.396 46.5962C60.228 46.5603 60.06 46.5245 59.8247 46.4877Z" fill="white" stroke="#1A1A1A" stroke-width="0.6" stroke-miterlimit="10"/>
<path d="M60.438 46.5577L63.3198 49.4885C63.5551 49.5253 63.7231 49.5612 63.9246 49.6311L61.0428 46.7004C60.8748 46.6645 60.6395 46.6277 60.438 46.5577Z" fill="white" stroke="#1A1A1A" stroke-width="0.6" stroke-miterlimit="10"/>
<path d="M61.0764 46.7419L63.9582 49.6727C64.1935 49.7095 64.4285 49.8135 64.63 49.8835L61.7482 46.9527C61.5132 46.8487 61.2779 46.8119 61.0764 46.7419Z" fill="white" stroke="#1A1A1A" stroke-width="0.6" stroke-miterlimit="10"/>
<path d="M61.7524 46.9532L64.6342 49.884C64.8693 49.988 65.1043 50.0921 65.3393 50.1961L62.4575 47.2654C62.2225 47.1613 61.9875 47.0573 61.7524 46.9532Z" fill="white" stroke="#1A1A1A" stroke-width="0.6" stroke-miterlimit="10"/>
<path d="M62.447 47.2642L65.3288 50.1949C65.6309 50.3671 65.8994 50.5052 66.1677 50.7106L63.2859 47.7798C63.0176 47.5745 62.7491 47.4364 62.447 47.2642Z" fill="white" stroke="#1A1A1A" stroke-width="0.6" stroke-miterlimit="10"/>
<path d="M63.2939 47.7783L66.1758 50.7091C66.5113 50.9153 66.8129 51.222 67.081 51.4947L64.1992 48.5639C63.9648 48.2581 63.6295 47.9846 63.2939 47.7783Z" fill="white" stroke="#1A1A1A" stroke-width="0.6" stroke-miterlimit="10"/>
<path d="M67.1418 51.4948L64.2595 48.5635C62.2486 46.5185 58.9214 45.8348 54.7473 46.9224L57.6296 49.8536C61.8037 48.766 65.1309 49.4497 67.1418 51.4948Z" stroke="#1A1A1A" stroke-width="0.6" stroke-miterlimit="10"/>
<path d="M37.0637 75.4478L39.946 78.379C41.9904 80.4581 45.4184 81.1768 49.6598 80.0902L46.7775 77.1589C42.5026 78.2115 39.1419 77.4937 37.0637 75.4478Z" fill="white"/>
<path d="M37.0637 75.4478L39.946 78.379C41.9904 80.4581 45.4184 81.1768 49.6598 80.0902L46.7775 77.1589C42.5026 78.2115 39.1419 77.4937 37.0637 75.4478Z" fill="white" stroke="#1A1A1A" stroke-width="0.6" stroke-miterlimit="10"/>
<path d="M67.4513 51.2045L64.569 48.2732C66.5799 50.3183 67.2747 53.6575 66.2178 57.8476C64.0029 66.2602 55.3299 74.9225 46.8472 77.0958L49.7295 80.0271C58.1787 77.8197 66.8852 69.1914 69.1001 60.7789C70.157 56.5887 69.4622 53.2496 67.4513 51.2045Z" fill="#1A1A1A" stroke="#1A1A1A" stroke-width="0.6"/>
<path d="M67.4513 51.2045L64.569 48.2732C66.5799 50.3183 67.2747 53.6575 66.2178 57.8476C64.0029 66.2602 55.3299 74.9225 46.8472 77.0958L49.7295 80.0271C58.1787 77.8197 66.8852 69.1914 69.1001 60.7789C70.157 56.5887 69.4622 53.2496 67.4513 51.2045Z" stroke="#1A1A1A" stroke-width="0.6" stroke-miterlimit="10"/>
<path d="M66.1555 57.8487C68.3703 49.4361 63.2756 44.3899 54.8264 46.5973C46.3773 48.8047 37.6707 57.4329 35.4558 65.8455C33.241 74.2581 38.3357 79.3044 46.7849 77.097C55.2676 74.9236 63.9406 66.2613 66.1555 57.8487Z" fill="white" stroke="#1A1A1A" stroke-width="0.6" stroke-miterlimit="10"/>
<ellipse cx="50.0876" cy="61.4075" rx="15.5927" ry="9.11433" transform="rotate(-44.777 50.0876 61.4075)" fill="#7246EE"/>
<path fill-rule="evenodd" clip-rule="evenodd" d="M42.1996 64.5266L39.9858 66.7231L51.5118 67.2703L51.3593 63.427L49.0541 63.3176L49.0694 63.7019L49.1151 64.8549L47.9625 64.8002L42.1996 64.5266ZM49.0236 62.5489L50.1762 62.6036L51.3288 62.6583L53.0577 62.7404L55.9392 62.8772L55.4818 51.3473L53.2681 53.5439L53.4968 59.3088L53.5426 60.4618L52.39 60.4071L51.2374 60.3524L48.9322 60.2429L46.627 60.1335L44.4133 62.3301L49.0236 62.5489ZM51.0544 55.7404L51.2069 59.5837L48.9017 59.4743L48.8407 57.937L51.0544 55.7404Z" fill="white"/>
<path d="M62.7158 58.1433C64.5216 51.3397 60.399 47.2146 53.532 49.006C46.665 50.7974 39.6457 57.7665 37.8734 64.6042C36.0677 71.4078 40.1902 75.5329 47.0573 73.7415C53.9243 71.9501 60.9436 64.981 62.7158 58.1433Z" stroke="#1A1A1A" stroke-width="0.6" stroke-miterlimit="10"/>
<path d="M16.1506 31.6673L13.7966 35.0814C15.4116 32.7391 18.5201 31.4267 22.7783 31.7269C31.3614 32.3148 41.3603 39.0917 45.0676 46.9193L47.4216 43.5052C43.6869 35.7172 33.7155 28.9006 25.1324 28.3128C20.8741 28.0125 17.7656 29.325 16.1506 31.6673Z" fill="white"/>
<path d="M16.1492 31.6688L13.7952 35.0829C14.3974 34.2095 15.2235 33.4319 16.2973 32.8838L18.6513 29.4696C17.6168 30.0449 16.7788 30.7557 16.1492 31.6688Z" fill="white" stroke="#1A1A1A" stroke-width="0.6" stroke-miterlimit="10"/>
<path d="M18.6525 29.4671L16.2985 32.8812C16.5807 32.7243 16.9295 32.5548 17.251 32.425L19.605 29.0109C19.2835 29.1407 18.9347 29.3102 18.6525 29.4671Z" fill="white" stroke="#1A1A1A" stroke-width="0.6" stroke-miterlimit="10"/>
<path d="M19.6043 29.0064L17.2503 32.4205C17.5051 32.3033 17.7718 32.2529 18.0266 32.1357L20.3806 28.7216C20.1258 28.8388 19.8591 28.8892 19.6043 29.0064Z" fill="white" stroke="#1A1A1A" stroke-width="0.6" stroke-miterlimit="10"/>
<path d="M20.4203 28.75L18.0663 32.1641C18.2937 32.0866 18.5604 32.0362 18.7878 31.9587L21.1418 28.5446C20.8751 28.595 20.6477 28.6725 20.4203 28.75Z" fill="white" stroke="#1A1A1A" stroke-width="0.6" stroke-miterlimit="10"/>
<path d="M21.1369 28.5473L18.7829 31.9614C19.0103 31.8839 19.2496 31.8732 19.5163 31.8229L21.8703 28.4087C21.6036 28.4591 21.3369 28.5095 21.1369 28.5473Z" fill="white" stroke="#1A1A1A" stroke-width="0.6" stroke-miterlimit="10"/>
<path d="M21.8442 28.4442L19.4902 31.8584C19.6902 31.8206 19.9296 31.8099 20.1689 31.7992L22.5229 28.385C22.2717 28.3289 22.0716 28.3667 21.8442 28.4442Z" fill="white" stroke="#1A1A1A" stroke-width="0.6" stroke-miterlimit="10"/>
<path d="M22.5154 28.3195L20.1614 31.7336C20.3614 31.6958 20.6007 31.6851 20.8401 31.6744L23.1941 28.2603C22.9274 28.3107 22.7547 28.3088 22.5154 28.3195Z" fill="white" stroke="#1A1A1A" stroke-width="0.6" stroke-miterlimit="10"/>
<path d="M23.1682 28.2987L20.8142 31.7128C21.0536 31.7021 21.2262 31.704 21.4655 31.6933L23.8195 28.2792C23.6076 28.2502 23.3683 28.2609 23.1682 28.2987Z" fill="white" stroke="#1A1A1A" stroke-width="0.6" stroke-miterlimit="10"/>
<path d="M23.8187 28.2823L21.4646 31.6964C21.704 31.6857 21.8766 31.6876 22.0886 31.7166L24.4426 28.3025C24.2306 28.2735 24.0187 28.2445 23.8187 28.2823Z" fill="white" stroke="#1A1A1A" stroke-width="0.6" stroke-miterlimit="10"/>
<path d="M24.4634 28.2642L22.1094 31.6784C22.3214 31.7074 22.5607 31.6967 22.7727 31.7257L25.1267 28.3115C24.8754 28.2554 24.6754 28.2932 24.4634 28.2642Z" fill="white" stroke="#1A1A1A" stroke-width="0.6" stroke-miterlimit="10"/>
<path d="M25.0943 28.2847L22.7403 31.6989L22.7796 31.726C22.9916 31.755 23.1642 31.7569 23.3762 31.7859L25.7302 28.3717C25.5456 28.303 25.373 28.3011 25.0943 28.2847C25.1205 28.3028 25.1205 28.3028 25.0943 28.2847Z" fill="white"/>
<path d="M25.0943 28.2847L22.7403 31.6989L22.7796 31.726C22.9916 31.755 23.1642 31.7569 23.3762 31.7859L25.7302 28.3717C25.5456 28.303 25.373 28.3011 25.0943 28.2847C25.1205 28.3028 25.1205 28.3028 25.0943 28.2847" stroke="#1A1A1A" stroke-width="0.6" stroke-miterlimit="10"/>
<path d="M25.7598 28.3332L23.4058 31.7473C23.6178 31.7763 23.8297 31.8053 24.0417 31.8343L26.3957 28.4202C26.1838 28.3912 25.9718 28.3622 25.7598 28.3332Z" fill="white" stroke="#1A1A1A" stroke-width="0.6" stroke-miterlimit="10"/>
<path d="M26.3863 28.4161L24.0323 31.8302C24.2443 31.8592 24.4562 31.8882 24.6682 31.9172L27.0222 28.5031C26.8495 28.5012 26.5983 28.4451 26.3863 28.4161Z" fill="white" stroke="#1A1A1A" stroke-width="0.6" stroke-miterlimit="10"/>
<path d="M27.0635 28.5279L24.7095 31.942C24.9215 31.971 25.1335 32 25.3847 32.0561L27.7387 28.642C27.4875 28.5859 27.2755 28.5569 27.0635 28.5279Z" fill="white" stroke="#1A1A1A" stroke-width="0.6" stroke-miterlimit="10"/>
<path d="M27.7001 28.6185L25.346 32.0327C25.558 32.0617 25.8093 32.1178 25.9939 32.1865L28.3479 28.7723C28.1359 28.7433 27.9513 28.6746 27.7001 28.6185Z" fill="white" stroke="#1A1A1A" stroke-width="0.6" stroke-miterlimit="10"/>
<path d="M28.388 28.7993L26.034 32.2135C26.246 32.2425 26.4699 32.3383 26.7212 32.3944L29.0752 28.9802C28.8513 28.8844 28.6 28.8283 28.388 28.7993Z" fill="white" stroke="#1A1A1A" stroke-width="0.6" stroke-miterlimit="10"/>
<path d="M29.0333 28.9625L26.6793 32.3767C26.9306 32.4328 27.1152 32.5015 27.3664 32.5576L29.7204 29.1434C29.5085 29.1144 29.2846 29.0186 29.0333 28.9625Z" fill="white" stroke="#1A1A1A" stroke-width="0.6" stroke-miterlimit="10"/>
<path d="M29.7711 29.1631L27.4171 32.5772C27.6684 32.6334 27.8923 32.7292 28.1435 32.7853L30.4975 29.3711C30.207 29.2879 29.9831 29.1921 29.7711 29.1631Z" fill="white" stroke="#1A1A1A" stroke-width="0.6" stroke-miterlimit="10"/>
<path d="M30.452 29.3446L28.098 32.7587C28.3219 32.8545 28.5732 32.9106 28.7971 33.0064L31.1511 29.5923C30.8998 29.5362 30.6759 29.4404 30.452 29.3446Z" fill="white" stroke="#1A1A1A" stroke-width="0.6" stroke-miterlimit="10"/>
<path d="M31.1493 29.593L28.7953 33.0072C29.0192 33.103 29.2705 33.1591 29.4943 33.2549L31.8484 29.8407C31.5971 29.7846 31.3732 29.6888 31.1493 29.593Z" fill="white" stroke="#1A1A1A" stroke-width="0.6" stroke-miterlimit="10"/>
<path d="M31.8495 29.8398L29.4955 33.254C29.7194 33.3498 29.9433 33.4456 30.1672 33.5414L32.5212 30.1272C32.2973 30.0314 32.0734 29.9356 31.8495 29.8398Z" fill="white" stroke="#1A1A1A" stroke-width="0.6" stroke-miterlimit="10"/>
<path d="M32.5175 30.1274L30.1635 33.5415C30.3874 33.6373 30.6113 33.7332 30.8352 33.829L33.1892 30.4148C32.9653 30.319 32.7414 30.2232 32.5175 30.1274Z" fill="white" stroke="#1A1A1A" stroke-width="0.6" stroke-miterlimit="10"/>
<path d="M33.1891 30.4123L30.8351 33.8265C31.059 33.9223 31.2829 34.0181 31.5068 34.1139L33.8608 30.6997C33.6369 30.6039 33.413 30.5081 33.1891 30.4123Z" fill="white" stroke="#1A1A1A" stroke-width="0.6" stroke-miterlimit="10"/>
<path d="M33.8369 30.738L31.4829 34.1521C31.7067 34.2479 31.9306 34.3437 32.1272 34.4792L34.4812 31.0651C34.2846 30.9296 34.0608 30.8338 33.8369 30.738Z" fill="white" stroke="#1A1A1A" stroke-width="0.6" stroke-miterlimit="10"/>
<path d="M34.4684 31.0008L32.1144 34.4149C32.3383 34.5107 32.5349 34.6462 32.7588 34.742L35.1128 31.3279C34.8889 31.2321 34.665 31.1363 34.4684 31.0008Z" fill="white" stroke="#1A1A1A" stroke-width="0.6" stroke-miterlimit="10"/>
<path d="M35.0874 31.3721L32.7333 34.7863C32.9572 34.8821 33.1538 35.0176 33.3777 35.1134L35.7317 31.6992C35.5078 31.6034 35.3112 31.4679 35.0874 31.3721Z" fill="white" stroke="#1A1A1A" stroke-width="0.6" stroke-miterlimit="10"/>
<path d="M35.7339 31.6966L33.3799 35.1107C33.6431 35.2336 33.8396 35.3691 34.0754 35.5317L36.4294 32.1176C36.1936 31.955 35.9697 31.8592 35.7339 31.6966Z" fill="white" stroke="#1A1A1A" stroke-width="0.6" stroke-miterlimit="10"/>
<path d="M36.4245 32.1087L34.0705 35.5228C34.3063 35.6854 34.6089 35.8354 34.8447 35.998L37.1987 32.5839C36.9236 32.3942 36.6877 32.2316 36.4245 32.1087Z" fill="white" stroke="#1A1A1A" stroke-width="0.6" stroke-miterlimit="10"/>
<path d="M37.2055 32.595L34.8515 36.0092C35.2446 36.2802 35.6257 36.4843 36.0187 36.7553L38.3727 33.3412C37.9797 33.0702 37.5867 32.7992 37.2055 32.595Z" fill="white" stroke="#1A1A1A" stroke-width="0.6" stroke-miterlimit="10"/>
<path d="M38.3252 33.3154L35.9712 36.7296C36.4821 37.0819 37.0324 37.4613 37.516 37.8533L39.87 34.4391C39.359 34.0868 38.8755 33.6948 38.3252 33.3154Z" fill="white" stroke="#1A1A1A" stroke-width="0.6" stroke-miterlimit="10"/>
<path d="M39.8418 34.4783L37.4878 37.8924C37.8535 38.2031 38.2858 38.5012 38.6241 38.8516L40.9781 35.4375C40.6398 35.0871 40.2741 34.7764 39.8418 34.4783Z" fill="white" stroke="#1A1A1A" stroke-width="0.6" stroke-miterlimit="10"/>
<path d="M41.0085 35.3936L38.6545 38.8077C38.9023 39.0371 39.1501 39.2665 39.3978 39.4959L41.7518 36.0818C41.5041 35.8524 41.2563 35.623 41.0085 35.3936Z" fill="white" stroke="#1A1A1A" stroke-width="0.6" stroke-miterlimit="10"/>
<path d="M41.7463 36.0811L39.3923 39.4952C39.6008 39.6975 39.7699 39.8727 39.9784 40.075L42.3324 36.6609C42.1513 36.4189 41.9822 36.2437 41.7463 36.0811Z" fill="white" stroke="#1A1A1A" stroke-width="0.6" stroke-miterlimit="10"/>
<path d="M42.3611 36.6196L40.0071 40.0338C40.2155 40.2361 40.3847 40.4113 40.5931 40.6136L42.9471 37.1994C42.7387 36.9971 42.5695 36.8219 42.3611 36.6196Z" fill="white" stroke="#1A1A1A" stroke-width="0.6" stroke-miterlimit="10"/>
<path d="M42.9534 37.2073L40.5994 40.6214C40.7685 40.7966 40.977 40.9989 41.1461 41.1741L43.5001 37.76C43.331 37.5848 43.1225 37.3825 42.9534 37.2073Z" fill="white" stroke="#1A1A1A" stroke-width="0.6" stroke-miterlimit="10"/>
<path d="M43.4673 37.7919L41.1133 41.206C41.2824 41.3812 41.4635 41.6232 41.6327 41.7984L43.9867 38.3843C43.8449 38.1694 43.6364 37.9671 43.4673 37.7919Z" fill="white" stroke="#1A1A1A" stroke-width="0.6" stroke-miterlimit="10"/>
<path d="M44.0122 38.3474L41.6582 41.7616C41.8273 41.9368 42.0084 42.1788 42.1776 42.354L44.5316 38.9398C44.3624 38.7646 44.1933 38.5894 44.0122 38.3474Z" fill="white" stroke="#1A1A1A" stroke-width="0.6" stroke-miterlimit="10"/>
<path d="M44.5073 38.978L42.1533 42.3922C42.2951 42.6071 42.5035 42.8094 42.6453 43.0243L44.9993 39.6101C44.8575 39.3952 44.7158 39.1803 44.5073 38.978Z" fill="white" stroke="#1A1A1A" stroke-width="0.6" stroke-miterlimit="10"/>
<path d="M45.04 39.6428L42.686 43.057C42.8278 43.2719 43.0363 43.4742 43.178 43.6891L45.5321 40.2749C45.351 40.0329 45.2092 39.818 45.04 39.6428Z" fill="white" stroke="#1A1A1A" stroke-width="0.6" stroke-miterlimit="10"/>
<path d="M45.4954 40.2433L43.1414 43.6574C43.2831 43.8723 43.4249 44.0872 43.5667 44.3021L45.9207 40.888C45.8182 40.7002 45.6764 40.4853 45.4954 40.2433Z" fill="white" stroke="#1A1A1A" stroke-width="0.6" stroke-miterlimit="10"/>
<path d="M45.9563 40.9146L43.6023 44.3287C43.7441 44.5436 43.8858 44.7585 43.9883 44.9463L46.3423 41.5321C46.2279 41.2776 46.1255 41.0898 45.9563 40.9146Z" fill="white" stroke="#1A1A1A" stroke-width="0.6" stroke-miterlimit="10"/>
<path d="M46.3445 41.5355L43.9905 44.9497C44.1323 45.1646 44.2347 45.3524 44.3765 45.5673L46.7305 42.1531C46.5887 41.9382 46.4863 41.7504 46.3445 41.5355Z" fill="white" stroke="#1A1A1A" stroke-width="0.6" stroke-miterlimit="10"/>
<path d="M46.7302 42.1534L44.3762 45.5676C44.4787 45.7554 44.6205 45.9703 44.723 46.1581L47.077 42.7439C46.9745 42.5561 46.8327 42.3412 46.7302 42.1534Z" fill="white" stroke="#1A1A1A" stroke-width="0.6" stroke-miterlimit="10"/>
<path d="M47.0764 42.734L44.7224 46.1481C44.8249 46.3359 44.9274 46.5237 45.0025 46.7512L47.3565 43.3371C47.2814 43.1096 47.1789 42.9218 47.0764 42.734Z" fill="white" stroke="#1A1A1A" stroke-width="0.6" stroke-miterlimit="10"/>
<path d="M47.3589 43.3473L45.0049 46.7614C45.0168 46.8282 45.0561 46.8554 45.0681 46.9222L47.4221 43.508C47.4101 43.4412 47.3982 43.3744 47.3589 43.3473Z" fill="white" stroke="#1A1A1A" stroke-width="0.6" stroke-miterlimit="10"/>
<path d="M16.1506 31.6673L13.7966 35.0814C15.4116 32.7391 18.5201 31.4267 22.7783 31.7269C31.3614 32.3148 41.3603 39.0917 45.0676 46.9193L47.4216 43.5052C43.6869 35.7172 33.7155 28.9006 25.1324 28.3128C20.8741 28.0125 17.7656 29.325 16.1506 31.6673Z" stroke="#1A1A1A" stroke-width="0.6" stroke-miterlimit="10"/>
<path d="M45.2578 56.6596L47.6118 53.2455C49.2541 50.8635 49.2969 47.4373 47.4236 43.5099L45.0696 46.924C46.9429 50.8514 46.9001 54.2777 45.2578 56.6596Z" fill="white"/>
<path d="M47.4492 43.4758L45.0952 46.89C45.1584 47.0507 45.2489 47.1717 45.3121 47.3324L47.6661 43.9182C47.5756 43.7972 47.5124 43.6365 47.4492 43.4758Z" fill="white" stroke="#1A1A1A" stroke-width="0.6" stroke-miterlimit="10"/>
<path d="M47.6648 43.9132L45.3108 47.3274C45.4133 47.5152 45.4491 47.7156 45.5515 47.9034L47.9055 44.4892C47.8031 44.3014 47.7006 44.1136 47.6648 43.9132Z" fill="white" stroke="#1A1A1A" stroke-width="0.6" stroke-miterlimit="10"/>
<path d="M47.9111 44.4939L45.5571 47.908C45.6596 48.0958 45.6954 48.2962 45.7586 48.4569L48.1126 45.0428C48.0494 44.8821 47.9469 44.6943 47.9111 44.4939Z" fill="white" stroke="#1A1A1A" stroke-width="0.6" stroke-miterlimit="10"/>
<path d="M48.0781 45.0865L45.7241 48.5007C45.7873 48.6614 45.8624 48.8889 45.9256 49.0496L48.2796 45.6354C48.2438 45.4351 48.1806 45.2743 48.0781 45.0865Z" fill="white" stroke="#1A1A1A" stroke-width="0.6" stroke-miterlimit="10"/>
<path d="M48.2825 45.6268L45.9285 49.041C45.9643 49.2414 46.0274 49.4021 46.0632 49.6025L48.4172 46.1883C48.3814 45.9879 48.3456 45.7875 48.2825 45.6268Z" fill="white" stroke="#1A1A1A" stroke-width="0.6" stroke-miterlimit="10"/>
<path d="M48.4194 46.1949L46.0654 49.6091C46.1012 49.8095 46.1644 49.9702 46.2002 50.1706L48.5542 46.7564C48.5577 46.5831 48.5219 46.3827 48.4194 46.1949Z" fill="white" stroke="#1A1A1A" stroke-width="0.6" stroke-miterlimit="10"/>
<path d="M48.5762 46.7186L46.2222 50.1328C46.258 50.3332 46.2938 50.5336 46.3569 50.6943L48.7109 47.2801C48.6478 47.1194 48.612 46.919 48.5762 46.7186Z" fill="white" stroke="#1A1A1A" stroke-width="0.6" stroke-miterlimit="10"/>
<path d="M48.689 47.3173L46.335 50.7314C46.3708 50.9318 46.4066 51.1322 46.4031 51.3055L48.7571 47.8914C48.7606 47.7181 48.7248 47.5177 48.689 47.3173Z" fill="white" stroke="#1A1A1A" stroke-width="0.6" stroke-miterlimit="10"/>
<path d="M48.7568 47.8875L46.4028 51.3016C46.4386 51.502 46.4351 51.6753 46.4435 51.9154L48.7975 48.5012C48.8284 48.2882 48.7926 48.0878 48.7568 47.8875Z" fill="white" stroke="#1A1A1A" stroke-width="0.6" stroke-miterlimit="10"/>
<path d="M48.8198 48.4589L46.4658 51.873C46.5016 52.0734 46.4707 52.2864 46.4672 52.4597L48.8212 49.0456C48.8247 48.8723 48.8282 48.699 48.8198 48.4589Z" fill="white" stroke="#1A1A1A" stroke-width="0.6" stroke-miterlimit="10"/>
<path d="M48.8655 49.078L46.5115 52.4922C46.5199 52.7323 46.5164 52.9055 46.4855 53.1185L48.8395 49.7044C48.843 49.5311 48.8346 49.291 48.8655 49.078Z" fill="white" stroke="#1A1A1A" stroke-width="0.6" stroke-miterlimit="10"/>
<path d="M48.8066 49.7454L46.4526 53.1595C46.4611 53.3996 46.4028 53.6523 46.3719 53.8653L48.7259 50.4512C48.7842 50.1985 48.7758 49.9584 48.8066 49.7454Z" fill="white" stroke="#1A1A1A" stroke-width="0.6" stroke-miterlimit="10"/>
<path d="M48.7244 50.4528L46.3704 53.8669C46.3121 54.1196 46.2539 54.3723 46.1956 54.625L48.5496 51.2109C48.6079 50.9582 48.6661 50.7055 48.7244 50.4528Z" fill="white" stroke="#1A1A1A" stroke-width="0.6" stroke-miterlimit="10"/>
<path d="M48.552 51.2048L46.198 54.619C46.085 54.9511 45.9994 55.2435 45.8471 55.5485L48.2011 52.1343C48.3534 51.8293 48.439 51.5369 48.552 51.2048Z" fill="white" stroke="#1A1A1A" stroke-width="0.6" stroke-miterlimit="10"/>
<path d="M48.2029 52.137L45.8489 55.5511C45.7085 55.9229 45.4621 56.2802 45.2432 56.5978L47.5972 53.1836C47.8555 52.8931 48.0625 52.5088 48.2029 52.137Z" fill="white" stroke="#1A1A1A" stroke-width="0.6" stroke-miterlimit="10"/>
<path d="M45.2578 56.6596L47.6118 53.2455C49.2541 50.8635 49.2969 47.4373 47.4236 43.5099L45.0696 46.924C46.9429 50.8514 46.9001 54.2777 45.2578 56.6596Z" stroke="#1A1A1A" stroke-width="0.6" stroke-miterlimit="10"/>
<path d="M15.7957 31.4279L13.4417 34.842C11.7719 37.2637 11.7137 40.7964 13.599 44.7906L15.953 41.3765C14.0951 37.3426 14.1653 33.8766 15.7957 31.4279Z" fill="white"/>
<path d="M15.7957 31.4279L13.4417 34.842C11.7719 37.2637 11.7137 40.7964 13.599 44.7906L15.953 41.3765C14.0951 37.3426 14.1653 33.8766 15.7957 31.4279Z" fill="white" stroke="#1A1A1A" stroke-width="0.6" stroke-miterlimit="10"/>
<path d="M45.609 56.8936L47.963 53.4794C46.3207 55.8614 43.1455 57.1865 38.7932 56.9385C30.0374 56.3488 19.8028 49.4092 16.0323 41.4209L13.6783 44.8351C17.4761 52.7837 27.6834 59.7629 36.4392 60.3527C40.7915 60.6006 43.9667 59.2755 45.609 56.8936Z" fill="#1A1A1A" stroke="#1A1A1A" stroke-width="0.6"/>
<path d="M45.609 56.8936L47.963 53.4794C46.3207 55.8614 43.1455 57.1865 38.7932 56.9385C30.0374 56.3488 19.8028 49.4092 16.0323 41.4209L13.6783 44.8351C17.4761 52.7837 27.6834 59.7629 36.4392 60.3527C40.7915 60.6006 43.9667 59.2755 45.609 56.8936Z" stroke="#1A1A1A" stroke-width="0.6" stroke-miterlimit="10"/>
<path d="M38.7812 56.8835C47.5369 57.4733 51.5642 51.4642 47.7663 43.5155C43.9684 35.5669 33.7611 28.5877 25.0053 27.9979C16.2496 27.4081 12.2224 33.4172 16.0203 41.3659C19.7908 49.3542 30.0254 56.2938 38.7812 56.8835Z" fill="white" stroke="#1A1A1A" stroke-width="0.6" stroke-miterlimit="10"/>
<g clip-path="url(#clip0_5157_120652)">
<ellipse cx="32.5309" cy="41.7714" rx="16.535" ry="9.19126" transform="rotate(34.2665 32.5309 41.7714)" fill="white"/>
<path d="M36.7651 35.5565C30.5913 31.3503 23.6887 30.7223 21.3506 34.1542C21.0974 34.5258 20.9127 34.9314 20.784 35.3606L23.266 37.0516C23.5836 37.2679 23.8126 37.3403 24.0109 37.3134L25.4301 37.1046L25.2341 39.7902C25.2116 40.0587 25.4024 40.3361 25.7504 40.575C26.1073 40.82 26.4854 40.8993 26.6903 40.7476L28.9444 39.1786L27.522 43.1597C27.4241 43.4188 27.5425 43.6632 27.9449 43.9374L27.9494 43.9404C28.3497 44.2131 28.6241 44.2236 28.8308 44.0404L35.1095 38.6835C35.2998 38.5147 35.1713 38.1505 34.8241 37.8721C34.4783 37.5964 34.0396 37.5051 33.8493 37.6739L29.8683 41.1384L31.0417 37.8158C31.1399 37.566 30.9362 37.2306 30.6167 37.0075C30.2556 36.7542 29.8987 36.6967 29.6762 36.8599L26.7307 38.8861L26.8834 36.8263C26.9256 36.6203 26.7497 36.3257 26.4807 36.1151C26.1094 35.824 25.8118 35.785 25.5478 35.8217L23.4387 36.0773L22.6494 35.5395C22.713 35.4173 22.782 35.2968 22.8599 35.1825C24.883 32.213 30.8515 32.756 36.1935 36.3955C40.5002 39.3297 43.0825 43.3821 42.859 46.3964L44.4332 47.4689C44.9276 43.9512 41.9148 39.065 36.7651 35.5565Z" fill="url(#paint0_linear_5157_120652)"/>
<path d="M44.2779 48.1821L41.7914 46.4881C41.4739 46.2717 41.2449 46.1994 41.0465 46.2263L39.6274 46.4351L39.8233 43.7495C39.8459 43.481 39.6551 43.2036 39.3071 42.9647C38.9502 42.7197 38.572 42.6404 38.3672 42.792L36.113 44.3611L37.5354 40.38C37.6333 40.1209 37.515 39.8765 37.1125 39.6023L37.108 39.5992C36.7078 39.3265 36.4333 39.3161 36.2267 39.4992L29.948 44.8562C29.7577 45.025 29.8861 45.3891 30.2334 45.6676C30.5792 45.9432 31.0179 46.0346 31.2082 45.8658L35.1892 42.4013L34.0157 45.7239C33.9176 45.9737 34.1213 46.309 34.4407 46.5321C34.8018 46.7854 35.1588 46.843 35.3813 46.6797L38.3267 44.6535L38.174 46.7134C38.1319 46.9194 38.3077 47.2139 38.5768 47.4245C38.9481 47.7157 39.2456 47.7547 39.5096 47.718L41.6187 47.4624L42.4125 48.0032C42.3489 48.1254 42.2799 48.2459 42.202 48.3602C40.1789 51.3297 34.2104 50.7867 28.8684 47.1472C24.5617 44.213 21.9795 40.1607 22.203 37.1463L20.6288 36.0738C20.1343 39.5915 23.1493 44.4792 28.2968 47.9862C34.4706 52.1924 41.3733 52.8204 43.7114 49.3886C43.9646 49.0169 44.1492 48.6113 44.2779 48.1821Z" fill="url(#paint1_linear_5157_120652)"/>
</g>
<path d="M37.8339 53.5289C44.9178 54.0202 48.2179 49.1498 45.1339 42.689C42.0498 36.2283 33.8077 30.6041 26.6964 30.1524C19.6125 29.6611 16.3124 34.5315 19.3965 40.9923C22.4806 47.453 30.7226 53.0772 37.8339 53.5289Z" stroke="#1A1A1A" stroke-width="0.6" stroke-miterlimit="10"/>
<defs>
<linearGradient id="paint0_linear_5157_120652" x1="25.5847" y1="27.9393" x2="23.2026" y2="54.1228" gradientUnits="userSpaceOnUse">
<stop stop-color="#FC829F"/>
<stop offset="0.336804" stop-color="#FF1C53"/>
<stop offset="0.435763" stop-color="#EA49F8"/>
<stop offset="0.529514" stop-color="#B250FF"/>
<stop offset="0.633681" stop-color="#7246EE"/>
<stop offset="1" stop-color="#323CFF"/>
</linearGradient>
<linearGradient id="paint1_linear_5157_120652" x1="25.5847" y1="27.9393" x2="23.2026" y2="54.1228" gradientUnits="userSpaceOnUse">
<stop stop-color="#FC829F"/>
<stop offset="0.336804" stop-color="#FF1C53"/>
<stop offset="0.435763" stop-color="#EA49F8"/>
<stop offset="0.529514" stop-color="#B250FF"/>
<stop offset="0.633681" stop-color="#7246EE"/> 
<stop offset="1" stop-color="#323CFF"/>
</linearGradient>
<clipPath id="clip0_5157_120652">
<rect width="33.0699" height="18.3825" fill="white" transform="translate(24.041 24.8656) rotate(34.2665)"/>
</clipPath>
</defs>
</svg>
