<svg width="1em" height="1em" viewBox="0 0 164 200" fill="none" xmlns="http://www.w3.org/2000/svg">
<path fill-rule="evenodd" clip-rule="evenodd" d="M164 0H0V158L81.9997 200V158H82.0003V200L164 158V0Z" fill="#5E5FF5"/>
<path fill-rule="evenodd" clip-rule="evenodd" d="M164 0H0V158L81.9997 200V158H82.0003V200L164 158V0Z" fill="url(#paint0_angular_4183_104736)" style="mix-blend-mode:multiply"/>
<path opacity="0.16" fill-rule="evenodd" clip-rule="evenodd" d="M10 137.5V128.5L54.1803 153H46.7105L10 137.5ZM10 141V153H34.3158L10 141ZM34.3159 153H10L82 190L154 153H135.8L108.5 166.5L82 184L48.5 160L34.3159 153ZM135.8 153H154V144L135.8 153ZM154 138.5V127.5L135.5 143.5L118.943 153H127.806L154 138.5ZM118.943 153H127.806L98 169.5L105 161L118.943 153ZM109.1 153L135.5 139L154 121V105L140 128.5L98.5 151L97.418 153H109.1ZM97.418 153H109.1L102.5 156.5L82 181.5L97.418 153ZM54.1804 153L65 159L82 181.5L55 156.5L46.7107 153H54.1804Z" fill="white"/>
<path d="M32.207 48.0689L31.6035 34.8465L33.2356 34.4101L34.4075 35.2391L34.8796 48.6887L33.0777 49.1705L32.207 48.0689ZM28.1411 35.7721L33.8172 47.7395L33.5305 49.0494L31.4455 49.6068L24.858 36.6498L28.1411 35.7721ZM38.9695 46.2913L37.915 33.1591L41.1887 32.2839L41.9459 46.7996L39.8703 47.3545L38.9695 46.2913ZM34.4149 34.0948L40.5765 45.9122L40.3232 47.2334L38.5212 47.7151L32.1476 35.823L32.7922 34.5287L34.4149 34.0948Z" fill="white"/>
<path d="M62.3547 35.7563L62.4369 36.3266C62.5922 37.4027 62.5801 38.3911 62.4009 39.2918C62.2272 40.1851 61.9102 40.9741 61.4498 41.6589C60.9885 42.3371 60.4074 42.8913 59.7064 43.3213C59.0045 43.7448 58.2025 44.0217 57.3003 44.1518C56.3918 44.2829 55.5378 44.2449 54.7383 44.0379C53.9444 43.8235 53.2271 43.4567 52.5865 42.9374C51.9514 42.4107 51.4211 41.7439 50.9955 40.937C50.5755 40.1227 50.2879 39.1775 50.1326 38.1014L50.0504 37.5312C49.8952 36.4551 49.9039 35.4671 50.0767 34.5674C50.256 33.6667 50.573 32.8776 51.0278 32.2003C51.4882 31.5156 52.0693 30.9614 52.7712 30.5379C53.4787 30.1069 54.2867 29.8259 55.1952 29.6949C56.0974 29.5648 56.9454 29.6069 57.7393 29.8212C58.5388 30.0282 59.2561 30.3951 59.8912 30.9218C60.5253 31.442 61.0556 32.1088 61.4821 32.9222C61.9086 33.7355 62.1994 34.6802 62.3547 35.7563ZM58.996 36.8229L58.9109 36.2333C58.8105 35.5374 58.661 34.9341 58.4624 34.4234C58.2692 33.9053 58.0307 33.4825 57.7466 33.1551C57.4626 32.8277 57.1368 32.5985 56.7693 32.4673C56.4073 32.3288 56.0104 32.2906 55.5787 32.3529C55.1276 32.418 54.748 32.5681 54.4399 32.8033C54.1308 33.0321 53.8896 33.3431 53.7161 33.7365C53.5426 34.1299 53.4365 34.6024 53.3976 35.1539C53.3643 35.6981 53.3978 36.3182 53.4982 37.0141L53.5832 37.6037C53.6827 38.2932 53.8258 38.8974 54.0125 39.4165C54.2047 39.9281 54.44 40.3513 54.7185 40.6861C55.0035 41.0199 55.327 41.2561 55.689 41.3946C56.0575 41.5322 56.4673 41.5685 56.9183 41.5034C57.35 41.4412 57.72 41.2924 58.0281 41.0572C58.3362 40.822 58.5765 40.5045 58.7491 40.1047C58.9281 39.7039 59.0375 39.231 59.0772 38.6859C59.1225 38.1334 59.0954 37.5124 58.996 36.8229Z" fill="white"/>
<path d="M81.5419 27.8479L82.0211 42.0585L78.6051 42.1737L73.2805 33.5006L73.5787 42.3432L70.1529 42.4587L69.6737 28.2481L73.0995 28.1325L78.4241 36.8057L78.1259 27.963L81.5419 27.8479Z" fill="white"/>
<path d="M94.5542 42.5538L91.4083 42.3237L91.6202 39.6954L94.7466 39.9241C95.3959 39.9717 95.9559 39.856 96.4268 39.5771C96.9041 39.2987 97.2822 38.8596 97.5611 38.2598C97.8469 37.6541 98.0231 36.8967 98.0896 35.9877L98.1345 35.3741C98.1844 34.6923 98.1599 34.09 98.0611 33.567C97.9692 33.0381 97.806 32.592 97.5715 32.2289C97.3374 31.8593 97.032 31.5726 96.6552 31.3687C96.285 31.1654 95.8499 31.0454 95.3499 31.0089L92.1943 30.778L92.3874 28.1385L95.543 28.3694C96.504 28.4397 97.3717 28.6697 98.1461 29.0593C98.9275 29.4428 99.588 29.9611 100.128 30.6143C100.674 31.2613 101.076 32.0121 101.334 32.8665C101.598 33.7148 101.693 34.6422 101.62 35.6487L101.576 36.2428C101.503 37.2427 101.274 38.1463 100.888 38.9537C100.509 39.7615 100.006 40.446 99.3772 41.0071C98.7486 41.5682 98.0229 41.9851 97.2 42.2578C96.3841 42.5245 95.5022 42.6232 94.5542 42.5538ZM94.4035 28.2861L93.3659 42.4669L89.9473 42.2168L90.9849 28.0359L94.4035 28.2861Z" fill="white"/>
<path d="M117.774 42.9532L117.324 45.5513L109.857 44.2591L110.307 41.661L117.774 42.9532ZM113.484 30.4567L111.06 44.4673L107.683 43.8828L110.107 29.8723L113.484 30.4567ZM117.824 36.9361L117.389 39.4476L110.885 38.322L111.319 35.8105L117.824 36.9361ZM119.778 31.5457L119.326 34.1535L111.83 32.8563L112.282 30.2486L119.778 31.5457Z" fill="white"/>
<path d="M128.019 33.3525L133.408 34.8584C134.461 35.1528 135.333 35.5653 136.023 36.0961C136.713 36.6268 137.182 37.2582 137.43 37.99C137.685 38.7236 137.686 39.5419 137.434 40.4448C137.215 41.2286 136.91 41.8497 136.518 42.3081C136.126 42.7664 135.663 43.1067 135.127 43.3289C134.6 43.5466 134.017 43.6846 133.379 43.7429L132.127 44.052L127.603 42.7879L128.296 40.2338L131.644 41.1694C132.065 41.2868 132.434 41.3088 132.752 41.2354C133.069 41.162 133.336 41.0066 133.551 40.7693C133.774 40.5274 133.94 40.2121 134.048 39.8234C134.159 39.4283 134.181 39.0696 134.116 38.7471C134.051 38.4247 133.898 38.1488 133.658 37.9195C133.424 37.6919 133.103 37.5211 132.696 37.4073L130.608 36.8238L127.493 47.9692L124.192 47.0467L128.019 33.3525ZM131.688 49.1413L130.352 42.238L133.856 43.1968L135.264 49.9884L135.225 50.1294L131.688 49.1413Z" fill="white"/>
<path d="M60.0947 67.5677L64.3342 67.095C68.4411 66.6371 71.0302 64.1065 70.4771 59.2054C69.924 54.3043 66.8501 52.5393 62.5539 53.0183L58.5038 53.4699L60.0947 67.5677ZM63.175 64.465L62.1969 55.7982L62.6511 55.7475C64.9223 55.4943 66.6356 56.2422 67.0136 59.5916C67.3916 62.941 65.9003 64.1611 63.6292 64.4144L63.175 64.465Z" fill="white"/>
<path d="M74.9968 66.0454L78.4627 66.0337L80.2096 58.9437C80.5666 57.5333 80.9418 55.8752 81.2795 54.3887L81.3557 54.3884C81.7415 55.8344 82.1091 57.5281 82.4947 58.936L84.2899 66.0141L87.87 66.0021L83.4227 51.8297L79.3475 51.8434L74.9968 66.0454ZM77.9755 62.7789L84.831 62.7559L84.8221 60.1279L77.9665 60.151L77.9755 62.7789Z" fill="white"/>
<path d="M98.2993 67.1338C102.143 67.5493 105.058 65.0679 105.563 60.4489C106.066 55.8488 103.742 52.935 99.8982 52.5196C96.0548 52.1041 93.1562 54.4341 92.6509 59.0531C92.1455 63.6721 94.4559 66.7184 98.2993 67.1338ZM98.6183 64.2186C96.7628 64.018 95.8174 62.1536 96.1156 59.4276C96.4139 56.7017 97.7259 55.2154 99.5813 55.4159C101.437 55.6165 102.416 57.3504 102.117 60.0764C101.819 62.8024 100.474 64.4191 98.6183 64.2186Z" fill="white"/>
<g clip-path="url(#clip0_4183_104736)">
<path fill-rule="evenodd" clip-rule="evenodd" d="M55.5104 92H45L71.2761 140L80.0348 124L74.7795 114.4L73.9037 116L71.2761 120.8L68.6485 116L55.5104 92ZM76.5313 111.2L79.1589 116L81.7865 120.8L85.7279 128L92.2969 140L118.573 92H108.063L94.9245 116L92.2969 120.8L89.6693 116L87.0417 111.2L81.7865 101.6L76.5313 92H66.0209L76.5313 111.2ZM97.5521 92L88.7935 108L83.5382 98.4L87.0417 92H97.5521Z" fill="white"/>
</g>
<defs>
<radialGradient id="paint0_angular_4183_104736" cx="0" cy="0" r="1" gradientUnits="userSpaceOnUse" gradientTransform="translate(82 101.5) rotate(90) scale(97.5 82)">
<stop stop-color="#615DF5" stop-opacity="0.4"/>
<stop offset="1" stop-color="#5E5FF5" stop-opacity="0"/>
</radialGradient>
<clipPath id="clip0_4183_104736">
<rect width="73" height="48" fill="white" transform="translate(45 92)"/>
</clipPath>
</defs>
</svg>
