<svg width="1em" height="1em" viewBox="0 0 60 60" fill="none" xmlns="http://www.w3.org/2000/svg">
<path d="M17.7024 10.4631L20.6951 8.83965C23.7635 7.17515 28.013 7.41036 32.7043 9.93869L29.7116 11.5622C25.0203 9.03385 20.7707 8.79863 17.7024 10.4631V10.4631Z" fill="white"/>
<path d="M17.7024 10.4631L20.6951 8.83965C23.7635 7.17515 28.013 7.41036 32.7043 9.93869L29.7116 11.5622C25.0203 9.03385 20.7707 8.79863 17.7024 10.4631V10.4631Z" stroke="black" stroke-width="0.6" stroke-miterlimit="10" stroke-linejoin="bevel"/>
<path d="M44.6073 47.2393L41.6146 48.8627C44.6442 47.2193 46.5229 43.7249 46.538 38.759C46.5684 28.7592 39.0359 16.584 29.7166 11.5615L32.7093 9.93799C42.0286 14.9605 49.5611 27.1357 49.5307 37.1355C49.5157 42.1015 47.6369 45.5958 44.6073 47.2393H44.6073Z" fill="white"/>
<path d="M44.6073 47.2393L41.6146 48.8627C44.6442 47.2193 46.5229 43.7249 46.538 38.759C46.5684 28.7592 39.0359 16.584 29.7166 11.5615L32.7093 9.93799C42.0286 14.9605 49.5611 27.1357 49.5307 37.1355C49.5157 42.1015 47.6369 45.5958 44.6073 47.2393H44.6073Z" fill="black" stroke="black" stroke-width="0.6" stroke-miterlimit="10" stroke-linejoin="bevel"/>
<path d="M41.6118 48.8625C48.1917 45.2931 48.1741 33.8034 41.5726 23.1995C34.971 12.5956 24.2854 6.89295 17.7056 10.4623C11.1258 14.0317 11.1433 25.5215 17.7449 36.1254C24.3464 46.7293 35.032 52.4319 41.6118 48.8625Z" fill="white" stroke="black" stroke-width="0.6" stroke-miterlimit="10" stroke-linejoin="bevel"/>
<g clip-path="url(#clip0_5691_145487)">
<path d="M37.621 24.3493C31.9522 15.9735 23.4754 11.807 18.691 15.0451C18.1728 15.3958 17.7243 15.8231 17.3349 16.3079L19.6139 19.6752C19.9054 20.106 20.1596 20.3099 20.4268 20.3724L22.347 20.7979L20.6873 24.1283C20.5176 24.4599 20.6154 24.9068 20.9339 25.3813C21.2607 25.8678 21.7015 26.1533 22.0424 26.0597L25.7419 25.1571L21.8375 29.5424C21.5766 29.8251 21.5993 30.1946 21.9689 30.7406L21.973 30.7467C22.3405 31.2897 22.6851 31.4368 23.0449 31.3039L33.8673 27.5312C34.1987 27.4086 34.226 26.8815 33.9291 26.357C33.6326 25.8367 33.1209 25.5063 32.7895 25.6288L25.8919 28.1076L29.1331 24.4411C29.3894 24.1703 29.3056 23.6432 29.0151 23.2028C28.6874 22.7036 28.2622 22.4562 27.8926 22.5559L23.0712 23.7047L24.3473 21.1515C24.5092 20.9092 24.4394 20.4477 24.2067 20.0479C23.8859 19.4954 23.5267 19.3006 23.1706 19.2187L20.3456 18.5165L19.6208 17.4456C19.7662 17.3207 19.9174 17.2007 20.0768 17.0928C24.2166 14.291 31.5463 17.8936 36.4513 25.141C40.4057 30.9838 41.5731 37.4124 39.7056 41.1488L41.151 43.2845C43.6283 39.038 42.3494 31.3358 37.621 24.3493Z" fill="url(#paint0_linear_5691_145487)"/>
<path d="M40.5786 44.1187L38.2955 40.7453C38.004 40.3145 37.7497 40.1106 37.4826 40.0481L35.5624 39.6226L37.2221 36.2922C37.3918 35.9606 37.294 35.5137 36.9755 35.0392C36.6487 34.5527 36.2079 34.2672 35.8669 34.3608L32.1675 35.2634L36.0719 30.8782C36.3328 30.5954 36.3101 30.2259 35.9405 29.6799L35.9364 29.6738C35.5689 29.1308 35.2243 28.9837 34.8645 29.1166L24.0421 32.8893C23.7107 33.0119 23.6834 33.539 23.9803 34.0635C24.2768 34.5838 24.7885 34.9142 25.1199 34.7917L32.0175 32.3129L28.7763 35.9794C28.5199 36.2502 28.6038 36.7773 28.8943 37.2177C29.222 37.7169 29.6472 37.9643 30.0168 37.8646L34.8382 36.7158L33.5621 39.2691C33.4002 39.5114 33.4699 39.9728 33.7026 40.3726C34.0235 40.9251 34.3827 41.1199 34.7388 41.2018L37.5638 41.904L38.2927 42.9809C38.1473 43.1058 37.9961 43.2259 37.8366 43.3338C33.6969 46.1356 26.3672 42.533 21.4622 35.2856C17.5078 29.4428 16.3404 23.0142 18.2079 19.2777L16.7625 17.1421C14.2852 21.3886 15.5661 29.0938 20.2925 36.0772C25.9613 44.4531 34.4381 48.6195 39.2225 45.3815C39.7407 45.0308 40.1892 44.6034 40.5786 44.1187Z" fill="url(#paint1_linear_5691_145487)"/>
</g>
<path d="M14.3696 28.8179L1.99927 35.4623L39.1102 55.9996L57.6657 45.7309L52.099 42.7107L48.8096 40.636L43.1165 48.3178L30.451 41.5027L24.8843 38.4825L16.2251 33.6502L14.3696 28.8179Z" fill="black"/>
<defs>
<linearGradient id="paint0_linear_5691_145487" x1="27.3552" y1="9.18115" x2="11.3264" y2="41.7928" gradientUnits="userSpaceOnUse">
<stop stop-color="#FC829F"/>
<stop offset="0.336804" stop-color="#FF1C53"/>
<stop offset="0.435763" stop-color="#EA49F8"/>
<stop offset="0.529514" stop-color="#B250FF"/>
<stop offset="0.633681" stop-color="#5E5FF5"/>
<stop offset="1" stop-color="#323CFF"/>
</linearGradient>
<linearGradient id="paint1_linear_5691_145487" x1="27.3552" y1="9.18115" x2="11.3264" y2="41.7928" gradientUnits="userSpaceOnUse">
<stop stop-color="#FC829F"/>
<stop offset="0.336804" stop-color="#FF1C53"/>
<stop offset="0.435763" stop-color="#EA49F8"/>
<stop offset="0.529514" stop-color="#B250FF"/>
<stop offset="0.633681" stop-color="#5E5FF5"/>
<stop offset="1" stop-color="#323CFF"/>
</linearGradient>
<clipPath id="clip0_5691_145487">
<rect width="44.7714" height="25.574" fill="white" transform="translate(26.9993 4.50732) rotate(55.91)"/>
</clipPath>
</defs>
</svg>
