<svg width="1em" height="1em" viewBox="0 0 88 88" fill="none" xmlns="http://www.w3.org/2000/svg">
<path d="M29.9275 37.8491L28.6692 40.0286C29.5325 38.5333 31.3492 37.5886 33.9397 37.5636C39.1603 37.5027 45.5377 41.1171 48.1601 45.6724L49.4185 43.4929C46.7814 38.963 40.4187 35.3232 35.198 35.3841C32.6076 35.4091 30.7908 36.3538 29.9275 37.8491Z" fill="white"/>
<path d="M29.9279 37.853L28.6695 40.0325C28.9914 39.475 29.4534 38.9645 30.0764 38.5808L31.3347 36.4013C30.7368 36.7995 30.2644 37.2701 29.9279 37.853Z" fill="white" stroke="#1A1A1A" stroke-width="0.6" stroke-miterlimit="10"/>
<path d="M31.3333 36.4024L30.075 38.5819C30.238 38.4733 30.4408 38.3539 30.629 38.2598L31.8873 36.0802C31.6992 36.1744 31.4964 36.2938 31.3333 36.4024Z" fill="white" stroke="#1A1A1A" stroke-width="0.6" stroke-miterlimit="10"/>
<path d="M31.887 36.0758L30.6286 38.2553C30.777 38.172 30.9359 38.1286 31.0844 38.0453L32.3427 35.8658C32.1943 35.9491 32.0354 35.9925 31.887 36.0758Z" fill="white" stroke="#1A1A1A" stroke-width="0.6" stroke-miterlimit="10"/>
<path d="M32.3693 35.8822L31.111 38.0618C31.2448 38.0038 31.4037 37.9604 31.5375 37.9025L32.7958 35.723C32.6369 35.7664 32.5031 35.8243 32.3693 35.8822Z" fill="white" stroke="#1A1A1A" stroke-width="0.6" stroke-miterlimit="10"/>
<path d="M32.7922 35.7253L31.5338 37.9048C31.6676 37.8469 31.8119 37.8288 31.9708 37.7854L33.2291 35.6059C33.0702 35.6493 32.9113 35.6927 32.7922 35.7253Z" fill="white" stroke="#1A1A1A" stroke-width="0.6" stroke-miterlimit="10"/>
<path d="M33.216 35.6263L31.9576 37.8058C32.0768 37.7732 32.2211 37.7551 32.3653 37.7371L33.6237 35.5575C33.4689 35.5358 33.3498 35.5684 33.216 35.6263Z" fill="white" stroke="#1A1A1A" stroke-width="0.6" stroke-miterlimit="10"/>
<path d="M33.6164 35.5206L32.358 37.7001C32.4772 37.6675 32.6214 37.6494 32.7657 37.6313L34.0241 35.4518C33.8652 35.4953 33.7606 35.5025 33.6164 35.5206Z" fill="white" stroke="#1A1A1A" stroke-width="0.6" stroke-miterlimit="10"/>
<path d="M34.0118 35.4752L32.7535 37.6547C32.8978 37.6366 33.0023 37.6294 33.1466 37.6113L34.4049 35.4318C34.2753 35.4245 34.131 35.4426 34.0118 35.4752Z" fill="white" stroke="#1A1A1A" stroke-width="0.6" stroke-miterlimit="10"/>
<path d="M34.3995 35.4325L33.1412 37.612C33.2854 37.594 33.39 37.5867 33.5196 37.594L34.778 35.4145C34.6483 35.4072 34.5187 35.4 34.3995 35.4325Z" fill="white" stroke="#1A1A1A" stroke-width="0.6" stroke-miterlimit="10"/>
<path d="M34.7921 35.3898L33.5338 37.5693C33.6634 37.5766 33.8077 37.5585 33.9373 37.5658L35.1956 35.3862C35.0409 35.3645 34.9217 35.3971 34.7921 35.3898Z" fill="white" stroke="#1A1A1A" stroke-width="0.6" stroke-miterlimit="10"/>
<path d="M35.1739 35.373L33.9156 37.5525L33.9407 37.567C34.0703 37.5743 34.1748 37.567 34.3045 37.5743L35.5628 35.3948C35.4478 35.3622 35.3433 35.3694 35.1739 35.373C35.1907 35.3827 35.1907 35.3827 35.1739 35.373Z" fill="white"/>
<path d="M35.1739 35.373L33.9156 37.5525L33.9407 37.567C34.0703 37.5743 34.1748 37.567 34.3045 37.5743L35.5628 35.3948C35.4478 35.3622 35.3433 35.3694 35.1739 35.373C35.1907 35.3827 35.1907 35.3827 35.1739 35.373" stroke="#1A1A1A" stroke-width="0.6" stroke-miterlimit="10"/>
<path d="M35.5802 35.3701L34.3218 37.5496C34.4515 37.5568 34.5811 37.5641 34.7107 37.5714L35.9691 35.3919C35.8394 35.3846 35.7098 35.3773 35.5802 35.3701Z" fill="white" stroke="#1A1A1A" stroke-width="0.6" stroke-miterlimit="10"/>
<path d="M35.963 35.3901L34.7046 37.5696C34.8343 37.5769 34.9639 37.5841 35.0935 37.5914L36.3519 35.4119C36.2473 35.4191 36.0926 35.3974 35.963 35.3901Z" fill="white" stroke="#1A1A1A" stroke-width="0.6" stroke-miterlimit="10"/>
<path d="M36.3771 35.4245L35.1187 37.604C35.2483 37.6113 35.378 37.6186 35.5327 37.6403L36.791 35.4608C36.6363 35.439 36.5067 35.4318 36.3771 35.4245Z" fill="white" stroke="#1A1A1A" stroke-width="0.6" stroke-miterlimit="10"/>
<path d="M36.7667 35.4504L35.5083 37.63C35.638 37.6372 35.7927 37.659 35.9077 37.6916L37.166 35.5121C37.0364 35.5048 36.9214 35.4722 36.7667 35.4504Z" fill="white" stroke="#1A1A1A" stroke-width="0.6" stroke-miterlimit="10"/>
<path d="M37.1925 35.5249L35.9341 37.7044C36.0637 37.7117 36.2038 37.7588 36.3586 37.7805L37.6169 35.601C37.4768 35.5539 37.3221 35.5322 37.1925 35.5249Z" fill="white" stroke="#1A1A1A" stroke-width="0.6" stroke-miterlimit="10"/>
<path d="M37.5889 35.5906L36.3306 37.7701C36.4853 37.7918 36.6003 37.8244 36.755 37.8462L38.0134 35.6667C37.8838 35.6594 37.7437 35.6123 37.5889 35.5906Z" fill="white" stroke="#1A1A1A" stroke-width="0.6" stroke-miterlimit="10"/>
<path d="M38.046 35.6763L36.7876 37.8558C36.9424 37.8775 37.0824 37.9246 37.2372 37.9464L38.4955 35.7669C38.3157 35.7306 38.1756 35.6835 38.046 35.6763Z" fill="white" stroke="#1A1A1A" stroke-width="0.6" stroke-miterlimit="10"/>
<path d="M38.4669 35.7537L37.2085 37.9332C37.3486 37.9803 37.5033 38.0021 37.6434 38.0492L38.9018 35.8696C38.747 35.8479 38.607 35.8008 38.4669 35.7537Z" fill="white" stroke="#1A1A1A" stroke-width="0.6" stroke-miterlimit="10"/>
<path d="M38.9005 35.8709L37.6421 38.0504C37.7822 38.0975 37.9369 38.1193 38.077 38.1663L39.3354 35.9868C39.1806 35.9651 39.0405 35.918 38.9005 35.8709Z" fill="white" stroke="#1A1A1A" stroke-width="0.6" stroke-miterlimit="10"/>
<path d="M39.335 35.9855L38.0767 38.165C38.2168 38.2121 38.3568 38.2591 38.4969 38.3062L39.7553 36.1267C39.6152 36.0796 39.4751 36.0325 39.335 35.9855Z" fill="white" stroke="#1A1A1A" stroke-width="0.6" stroke-miterlimit="10"/>
<path d="M39.753 36.1283L38.4946 38.3078C38.6347 38.3549 38.7748 38.402 38.9149 38.4491L40.1732 36.2695C40.0332 36.2225 39.8931 36.1754 39.753 36.1283Z" fill="white" stroke="#1A1A1A" stroke-width="0.6" stroke-miterlimit="10"/>
<path d="M40.1749 36.2655L38.9165 38.445C39.0566 38.4921 39.1967 38.5392 39.3368 38.5863L40.5951 36.4067C40.455 36.3597 40.3149 36.3126 40.1749 36.2655Z" fill="white" stroke="#1A1A1A" stroke-width="0.6" stroke-miterlimit="10"/>
<path d="M40.584 36.4315L39.3257 38.6111C39.4658 38.6581 39.6058 38.7052 39.7313 38.7777L40.9896 36.5982C40.8642 36.5257 40.7241 36.4786 40.584 36.4315Z" fill="white" stroke="#1A1A1A" stroke-width="0.6" stroke-miterlimit="10"/>
<path d="M40.9785 36.56L39.7202 38.7395C39.8603 38.7866 39.9857 38.859 40.1258 38.9061L41.3842 36.7266C41.2441 36.6795 41.104 36.6324 40.9785 36.56Z" fill="white" stroke="#1A1A1A" stroke-width="0.6" stroke-miterlimit="10"/>
<path d="M41.3672 36.7543L40.1089 38.9338C40.249 38.9809 40.3744 39.0533 40.5145 39.1004L41.7729 36.9209C41.6328 36.8738 41.5073 36.8014 41.3672 36.7543Z" fill="white" stroke="#1A1A1A" stroke-width="0.6" stroke-miterlimit="10"/>
<path d="M41.7744 36.9204L40.5161 39.0999C40.6813 39.1614 40.8067 39.2339 40.9573 39.3208L42.2156 37.1413C42.0651 37.0544 41.925 37.0073 41.7744 36.9204Z" fill="white" stroke="#1A1A1A" stroke-width="0.6" stroke-miterlimit="10"/>
<path d="M42.2158 37.1347L40.9575 39.3142C41.108 39.4012 41.2983 39.4772 41.4489 39.5641L42.7072 37.3846C42.5316 37.2832 42.381 37.1963 42.2158 37.1347Z" fill="white" stroke="#1A1A1A" stroke-width="0.6" stroke-miterlimit="10"/>
<path d="M42.71 37.3918L41.4516 39.5713C41.7025 39.7162 41.943 39.8212 42.1939 39.9661L43.4523 37.7866C43.2013 37.6417 42.9504 37.4968 42.71 37.3918Z" fill="white" stroke="#1A1A1A" stroke-width="0.6" stroke-miterlimit="10"/>
<path d="M43.4219 37.772L42.1635 39.9515C42.4897 40.1398 42.841 40.3426 43.1525 40.5563L44.4109 38.3768C44.0847 38.1885 43.7732 37.9748 43.4219 37.772Z" fill="white" stroke="#1A1A1A" stroke-width="0.6" stroke-miterlimit="10"/>
<path d="M44.3945 38.4033L43.1362 40.5828C43.3725 40.753 43.6485 40.9124 43.8701 41.1079L45.1285 38.9284C44.9068 38.7329 44.6705 38.5627 44.3945 38.4033Z" fill="white" stroke="#1A1A1A" stroke-width="0.6" stroke-miterlimit="10"/>
<path d="M45.1465 38.9004L43.8881 41.0799C44.0491 41.2067 44.2102 41.3334 44.3712 41.4602L45.6295 39.2806C45.4685 39.1539 45.3075 39.0271 45.1465 38.9004Z" fill="white" stroke="#1A1A1A" stroke-width="0.6" stroke-miterlimit="10"/>
<path d="M45.627 39.2776L44.3686 41.4571C44.5045 41.5694 44.6154 41.6671 44.7513 41.7794L46.0096 39.5999C45.8883 39.4623 45.7775 39.3645 45.627 39.2776Z" fill="white" stroke="#1A1A1A" stroke-width="0.6" stroke-miterlimit="10"/>
<path d="M46.0234 39.5776L44.7651 41.7572C44.901 41.8694 45.0118 41.9672 45.1477 42.0795L46.4061 39.8999C46.2702 39.7877 46.1594 39.6899 46.0234 39.5776Z" fill="white" stroke="#1A1A1A" stroke-width="0.6" stroke-miterlimit="10"/>
<path d="M46.4102 39.9033L45.1518 42.0828C45.2626 42.1806 45.3986 42.2929 45.5094 42.3906L46.7677 40.2111C46.6569 40.1134 46.521 40.0011 46.4102 39.9033Z" fill="white" stroke="#1A1A1A" stroke-width="0.6" stroke-miterlimit="10"/>
<path d="M46.75 40.2317L45.4917 42.4112C45.6025 42.509 45.7238 42.6466 45.8346 42.7444L47.0929 40.5648C46.9967 40.4417 46.8608 40.3295 46.75 40.2317Z" fill="white" stroke="#1A1A1A" stroke-width="0.6" stroke-miterlimit="10"/>
<path d="M47.1055 40.5403L45.8471 42.7198C45.9579 42.8176 46.0792 42.9552 46.1901 43.053L47.4484 40.8734C47.3376 40.7757 47.2268 40.6779 47.1055 40.5403Z" fill="white" stroke="#1A1A1A" stroke-width="0.6" stroke-miterlimit="10"/>
<path d="M47.4375 40.9001L46.1792 43.0797C46.2753 43.2028 46.4113 43.315 46.5074 43.4382L47.7658 41.2586C47.6696 41.1355 47.5734 41.0124 47.4375 40.9001Z" fill="white" stroke="#1A1A1A" stroke-width="0.6" stroke-miterlimit="10"/>
<path d="M47.793 41.2744L46.5346 43.4539C46.6308 43.577 46.7667 43.6893 46.8629 43.8124L48.1213 41.6329C48 41.4953 47.9038 41.3722 47.793 41.2744Z" fill="white" stroke="#1A1A1A" stroke-width="0.6" stroke-miterlimit="10"/>
<path d="M48.0957 41.6172L46.8374 43.7967C46.9336 43.9198 47.0297 44.0429 47.1259 44.1661L48.3843 41.9865C48.3132 41.8779 48.217 41.7548 48.0957 41.6172Z" fill="white" stroke="#1A1A1A" stroke-width="0.6" stroke-miterlimit="10"/>
<path d="M48.4062 42L47.1479 44.1795C47.2441 44.3026 47.3403 44.4258 47.4114 44.5344L48.6697 42.3549C48.5882 42.2064 48.5171 42.0978 48.4062 42Z" fill="white" stroke="#1A1A1A" stroke-width="0.6" stroke-miterlimit="10"/>
<path d="M48.6719 42.3572L47.4135 44.5367C47.5097 44.6598 47.5808 44.7684 47.677 44.8916L48.9354 42.712C48.8392 42.5889 48.7681 42.4803 48.6719 42.3572Z" fill="white" stroke="#1A1A1A" stroke-width="0.6" stroke-miterlimit="10"/>
<path d="M48.9355 42.7114L47.6772 44.8909C47.7483 44.9996 47.8445 45.1227 47.9156 45.2313L49.1739 43.0518C49.1028 42.9432 49.0066 42.8201 48.9355 42.7114Z" fill="white" stroke="#1A1A1A" stroke-width="0.6" stroke-miterlimit="10"/>
<path d="M49.1719 43.0457L47.9135 45.2252C47.9846 45.3338 48.0557 45.4424 48.1122 45.5764L49.3705 43.3969C49.3141 43.2629 49.243 43.1543 49.1719 43.0457Z" fill="white" stroke="#1A1A1A" stroke-width="0.6" stroke-miterlimit="10"/>
<path d="M49.375 43.4028L48.1167 45.5823C48.1271 45.6222 48.1522 45.6367 48.1627 45.6765L49.421 43.497C49.4106 43.4572 49.4001 43.4173 49.375 43.4028Z" fill="white" stroke="#1A1A1A" stroke-width="0.6" stroke-miterlimit="10"/>
<path d="M29.9275 37.8491L28.6692 40.0286C29.5325 38.5333 31.3492 37.5886 33.9397 37.5636C39.1603 37.5027 45.5377 41.1171 48.1601 45.6724L49.4185 43.4929C46.7814 38.963 40.4187 35.3232 35.198 35.3841C32.6076 35.4091 30.7908 36.3538 29.9275 37.8491Z" stroke="#1A1A1A" stroke-width="0.6" stroke-miterlimit="10"/>
<path d="M48.7434 51.5549L50.0017 49.3754C50.8797 47.8548 50.7393 45.7801 49.4155 43.4952L48.1572 45.6748C49.481 47.9596 49.6213 50.0343 48.7434 51.5549Z" fill="white"/>
<path d="M49.4236 43.4731L48.1652 45.6527C48.2112 45.7468 48.2719 45.8156 48.3179 45.9098L49.5762 43.7302C49.5156 43.6614 49.4696 43.5673 49.4236 43.4731Z" fill="white" stroke="#1A1A1A" stroke-width="0.6" stroke-miterlimit="10"/>
<path d="M49.5759 43.7302L48.3176 45.9097C48.3887 46.0184 48.4201 46.1379 48.4912 46.2465L49.7495 44.067C49.6784 43.9583 49.6073 43.8497 49.5759 43.7302Z" fill="white" stroke="#1A1A1A" stroke-width="0.6" stroke-miterlimit="10"/>
<path d="M49.7517 44.0674L48.4934 46.2469C48.5645 46.3555 48.5958 46.475 48.6419 46.5692L49.9002 44.3896C49.8542 44.2955 49.7831 44.1869 49.7517 44.0674Z" fill="white" stroke="#1A1A1A" stroke-width="0.6" stroke-miterlimit="10"/>
<path d="M49.8806 44.4159L48.6223 46.5954C48.6683 46.6896 48.7248 46.8235 48.7708 46.9177L50.0291 44.7382C49.9977 44.6187 49.9517 44.5245 49.8806 44.4159Z" fill="white" stroke="#1A1A1A" stroke-width="0.6" stroke-miterlimit="10"/>
<path d="M50.033 44.7358L48.7746 46.9153C48.806 47.0348 48.852 47.129 48.8834 47.2485L50.1417 45.069C50.1103 44.9495 50.079 44.83 50.033 44.7358Z" fill="white" stroke="#1A1A1A" stroke-width="0.6" stroke-miterlimit="10"/>
<path d="M50.1443 45.0701L48.8859 47.2496C48.9173 47.3691 48.9633 47.4632 48.9947 47.5827L50.2531 45.4032C50.2468 45.2982 50.2154 45.1787 50.1443 45.0701Z" fill="white" stroke="#1A1A1A" stroke-width="0.6" stroke-miterlimit="10"/>
<path d="M50.2634 45.3787L49.0051 47.5582C49.0365 47.6777 49.0678 47.7972 49.1138 47.8913L50.3722 45.7118C50.3262 45.6176 50.2948 45.4982 50.2634 45.3787Z" fill="white" stroke="#1A1A1A" stroke-width="0.6" stroke-miterlimit="10"/>
<path d="M50.3611 45.7356L49.1027 47.9151C49.1341 48.0346 49.1655 48.1541 49.1718 48.2591L50.4301 46.0796C50.4238 45.9746 50.3925 45.8551 50.3611 45.7356Z" fill="white" stroke="#1A1A1A" stroke-width="0.6" stroke-miterlimit="10"/>
<path d="M50.4294 46.0786L49.1711 48.2581C49.2025 48.3776 49.2088 48.4826 49.2255 48.6275L50.4839 46.4479C50.4922 46.3176 50.4608 46.1981 50.4294 46.0786Z" fill="white" stroke="#1A1A1A" stroke-width="0.6" stroke-miterlimit="10"/>
<path d="M50.4958 46.4214L49.2375 48.6009C49.2689 48.7204 49.2605 48.8507 49.2668 48.9557L50.5252 46.7762C50.5189 46.6712 50.5126 46.5662 50.4958 46.4214Z" fill="white" stroke="#1A1A1A" stroke-width="0.6" stroke-miterlimit="10"/>
<path d="M50.5525 46.7927L49.2941 48.9722C49.3109 49.1171 49.3172 49.2221 49.3088 49.3524L50.5672 47.1729C50.5609 47.0679 50.5441 46.9231 50.5525 46.7927Z" fill="white" stroke="#1A1A1A" stroke-width="0.6" stroke-miterlimit="10"/>
<path d="M50.5486 47.1985L49.2902 49.378C49.307 49.5228 49.284 49.6785 49.2757 49.8089L50.534 47.6294C50.557 47.4737 50.5402 47.3288 50.5486 47.1985Z" fill="white" stroke="#1A1A1A" stroke-width="0.6" stroke-miterlimit="10"/>
<path d="M50.5349 47.6326L49.2766 49.8121C49.2536 49.9678 49.2306 50.1235 49.2076 50.2792L50.466 48.0996C50.489 47.9439 50.5119 47.7883 50.5349 47.6326Z" fill="white" stroke="#1A1A1A" stroke-width="0.6" stroke-miterlimit="10"/>
<path d="M50.4663 48.0955L49.208 50.275C49.1557 50.4814 49.1181 50.6624 49.0408 50.8543L50.2991 48.6748C50.3765 48.4829 50.4141 48.3018 50.4663 48.0955Z" fill="white" stroke="#1A1A1A" stroke-width="0.6" stroke-miterlimit="10"/>
<path d="M50.3005 48.6753L49.0422 50.8548C48.9753 51.0865 48.8436 51.3146 48.7266 51.5174L49.9849 49.3378C50.1271 49.1496 50.2337 48.907 50.3005 48.6753Z" fill="white" stroke="#1A1A1A" stroke-width="0.6" stroke-miterlimit="10"/>
<path d="M48.7434 51.5549L50.0017 49.3754C50.8797 47.8548 50.7393 45.7801 49.4155 43.4952L48.1572 45.6748C49.481 47.9596 49.6213 50.0343 48.7434 51.5549Z" stroke="#1A1A1A" stroke-width="0.6" stroke-miterlimit="10"/>
<path d="M29.7014 37.7209L28.4431 39.9005C27.5505 41.4464 27.6867 43.5863 29.0209 45.911L30.2793 43.7315C28.9597 41.3814 28.834 39.2814 29.7014 37.7209Z" fill="white"/>
<path d="M29.7014 37.7209L28.4431 39.9005C27.5505 41.4464 27.6867 43.5863 29.0209 45.911L30.2793 43.7315C28.9597 41.3814 28.834 39.2814 29.7014 37.7209Z" fill="white" stroke="#1A1A1A" stroke-width="0.6" stroke-miterlimit="10"/>
<path d="M48.9714 51.6784L50.2297 49.4989C49.3518 51.0195 47.4953 51.9751 44.8505 52.0363C39.5253 52.1044 32.9974 48.4031 30.329 43.7537L29.0706 45.9332C31.7537 50.5572 38.267 54.2839 43.5922 54.2158C46.237 54.1546 48.0935 53.199 48.9714 51.6784Z" fill="#1A1A1A" stroke="#1A1A1A" stroke-width="0.6"/>
<path d="M48.9714 51.6784L50.2297 49.4989C49.3518 51.0195 47.4953 51.9751 44.8505 52.0363C39.5253 52.1044 32.9974 48.4031 30.329 43.7537L29.0706 45.9332C31.7537 50.5572 38.267 54.2839 43.5922 54.2158C46.237 54.1546 48.0935 53.199 48.9714 51.6784Z" stroke="#1A1A1A" stroke-width="0.6" stroke-miterlimit="10"/>
<path d="M44.839 52.0042C50.1642 51.9361 52.3088 48.1057 49.6257 43.4816C46.9426 38.8575 40.4293 35.1309 35.1041 35.199C29.779 35.267 27.6344 39.0975 30.3175 43.7215C32.9859 48.3709 39.5138 52.0722 44.839 52.0042Z" fill="white" stroke="#1A1A1A" stroke-width="0.6" stroke-miterlimit="10"/>
<path d="M44.1042 50.0204C48.4133 49.9739 50.1733 46.8676 47.9942 43.1089C45.8151 39.3503 40.5564 36.348 36.2327 36.4198C31.9236 36.4663 30.1636 39.5726 32.3427 43.3313C34.5218 47.0899 39.7805 50.0922 44.1042 50.0204Z" fill="white" stroke="#1A1A1A" stroke-width="0.6" stroke-miterlimit="10"/>
<path d="M39.3881 32.2303L40.3277 33.8578C39.6831 32.7413 39.7505 31.2137 40.7015 29.5292C42.6112 26.1305 47.3295 23.356 51.2544 23.3608L50.3147 21.7334C46.4008 21.7474 41.6716 24.5031 39.7618 27.9018C38.8108 29.5863 38.7435 31.1138 39.3881 32.2303Z" fill="white"/>
<path d="M39.388 32.2354L40.3276 33.8629C40.0873 33.4466 39.9297 32.9572 39.9141 32.4111L38.9745 30.7836C39.0088 31.319 39.1367 31.8002 39.388 32.2354Z" fill="white" stroke="#1A1A1A" stroke-width="0.6" stroke-miterlimit="10"/>
<path d="M38.9749 30.7846L39.9145 32.4121C39.9052 32.2661 39.9036 32.0903 39.913 31.9335L38.9734 30.3061C38.964 30.4629 38.9656 30.6386 38.9749 30.7846Z" fill="white" stroke="#1A1A1A" stroke-width="0.6" stroke-miterlimit="10"/>
<path d="M38.9711 30.305L39.9107 31.9324C39.9123 31.8054 39.9435 31.6864 39.9451 31.5593L39.0055 29.9319C39.0039 30.0589 38.9727 30.1779 38.9711 30.305Z" fill="white" stroke="#1A1A1A" stroke-width="0.6" stroke-miterlimit="10"/>
<path d="M39.0273 29.92L39.967 31.5474C39.9795 31.4393 40.0107 31.3203 40.0232 31.2122L39.0836 29.5847C39.0524 29.7037 39.0399 29.8118 39.0273 29.92Z" fill="white" stroke="#1A1A1A" stroke-width="0.6" stroke-miterlimit="10"/>
<path d="M39.0828 29.589L40.0224 31.2165C40.0349 31.1083 40.0771 31.0083 40.1084 30.8893L39.1687 29.2619C39.1375 29.3808 39.1063 29.4998 39.0828 29.589Z" fill="white" stroke="#1A1A1A" stroke-width="0.6" stroke-miterlimit="10"/>
<path d="M39.1743 29.277L40.1139 30.9045C40.1373 30.8152 40.1795 30.7152 40.2216 30.6152L39.282 28.9877C39.2102 29.0796 39.1868 29.1689 39.1743 29.277Z" fill="white" stroke="#1A1A1A" stroke-width="0.6" stroke-miterlimit="10"/>
<path d="M39.2563 28.9794L40.1959 30.6068C40.2193 30.5176 40.2615 30.4176 40.3037 30.3175L39.3641 28.6901C39.3328 28.8091 39.2985 28.8794 39.2563 28.9794Z" fill="white" stroke="#1A1A1A" stroke-width="0.6" stroke-miterlimit="10"/>
<path d="M39.3743 28.7066L40.3139 30.334C40.356 30.234 40.3904 30.1637 40.4326 30.0636L39.493 28.4362C39.4399 28.5173 39.3977 28.6173 39.3743 28.7066Z" fill="white" stroke="#1A1A1A" stroke-width="0.6" stroke-miterlimit="10"/>
<path d="M39.4922 28.4398L40.4319 30.0673C40.474 29.9673 40.5084 29.8969 40.5615 29.8158L39.6219 28.1884C39.5688 28.2695 39.5157 28.3506 39.4922 28.4398Z" fill="white" stroke="#1A1A1A" stroke-width="0.6" stroke-miterlimit="10"/>
<path d="M39.6114 28.1715L40.551 29.799C40.6041 29.7179 40.6463 29.6178 40.6994 29.5367L39.7597 27.9093C39.6879 28.0012 39.6645 28.0904 39.6114 28.1715Z" fill="white" stroke="#1A1A1A" stroke-width="0.6" stroke-miterlimit="10"/>
<path d="M39.743 27.9163L40.6827 29.5437L40.7014 29.5329C40.7545 29.4518 40.7888 29.3815 40.8419 29.3004L39.9023 27.6729C39.8383 27.7351 39.8039 27.8054 39.743 27.9163C39.7555 27.9091 39.7555 27.9091 39.743 27.9163Z" fill="white"/>
<path d="M39.743 27.9163L40.6827 29.5437L40.7014 29.5329C40.7545 29.4518 40.7888 29.3815 40.8419 29.3004L39.9023 27.6729C39.8383 27.7351 39.8039 27.8054 39.743 27.9163C39.7555 27.9091 39.7555 27.9091 39.743 27.9163" stroke="#1A1A1A" stroke-width="0.6" stroke-miterlimit="10"/>
<path d="M39.8915 27.6538L40.8311 29.2813C40.8842 29.2002 40.9373 29.119 40.9904 29.0379L40.0508 27.4105C39.9977 27.4916 39.9446 27.5727 39.8915 27.6538Z" fill="white" stroke="#1A1A1A" stroke-width="0.6" stroke-miterlimit="10"/>
<path d="M40.0497 27.4146L40.9893 29.042C41.0424 28.9609 41.0955 28.8798 41.1486 28.7987L40.209 27.1712C40.1746 27.2415 40.1028 27.3335 40.0497 27.4146Z" fill="white" stroke="#1A1A1A" stroke-width="0.6" stroke-miterlimit="10"/>
<path d="M40.2255 27.158L41.1651 28.7854C41.2182 28.7043 41.2713 28.6232 41.3431 28.5313L40.4035 26.9038C40.3316 26.9957 40.2786 27.0769 40.2255 27.158Z" fill="white" stroke="#1A1A1A" stroke-width="0.6" stroke-miterlimit="10"/>
<path d="M40.3884 26.9174L41.328 28.5448C41.3811 28.4637 41.4529 28.3718 41.5169 28.3096L40.5773 26.6821C40.5242 26.7632 40.4602 26.8254 40.3884 26.9174Z" fill="white" stroke="#1A1A1A" stroke-width="0.6" stroke-miterlimit="10"/>
<path d="M40.5954 26.6693L41.535 28.2968C41.5881 28.2157 41.6709 28.1427 41.7427 28.0507L40.8031 26.4233C40.7203 26.4963 40.6485 26.5882 40.5954 26.6693Z" fill="white" stroke="#1A1A1A" stroke-width="0.6" stroke-miterlimit="10"/>
<path d="M40.7849 26.4362L41.7245 28.0636C41.7963 27.9717 41.8603 27.9095 41.9321 27.8176L40.9925 26.1901C40.9394 26.2712 40.8567 26.3442 40.7849 26.4362Z" fill="white" stroke="#1A1A1A" stroke-width="0.6" stroke-miterlimit="10"/>
<path d="M41.0134 26.1735L41.953 27.8009C42.0248 27.709 42.1076 27.636 42.1794 27.5441L41.2398 25.9166C41.1492 26.0194 41.0665 26.0924 41.0134 26.1735Z" fill="white" stroke="#1A1A1A" stroke-width="0.6" stroke-miterlimit="10"/>
<path d="M41.2173 25.9299L42.1569 27.5574C42.2396 27.4844 42.3115 27.3925 42.3942 27.3194L41.4546 25.692C41.3828 25.7839 41.3 25.8569 41.2173 25.9299Z" fill="white" stroke="#1A1A1A" stroke-width="0.6" stroke-miterlimit="10"/>
<path d="M41.4575 25.6939L42.3971 27.3213C42.4799 27.2483 42.5517 27.1564 42.6345 27.0834L41.6949 25.4559C41.623 25.5478 41.5403 25.6208 41.4575 25.6939Z" fill="white" stroke="#1A1A1A" stroke-width="0.6" stroke-miterlimit="10"/>
<path d="M41.6946 25.4562L42.6343 27.0836C42.717 27.0106 42.7998 26.9376 42.8825 26.8646L41.9429 25.2372C41.8601 25.3102 41.7774 25.3832 41.6946 25.4562Z" fill="white" stroke="#1A1A1A" stroke-width="0.6" stroke-miterlimit="10"/>
<path d="M41.9427 25.2401L42.8823 26.8676C42.9651 26.7946 43.0478 26.7216 43.1306 26.6485L42.1909 25.0211C42.1082 25.0941 42.0254 25.1671 41.9427 25.2401Z" fill="white" stroke="#1A1A1A" stroke-width="0.6" stroke-miterlimit="10"/>
<path d="M42.1868 25.0158L43.1264 26.6432C43.2092 26.5702 43.2919 26.4972 43.3747 26.4242L42.4351 24.7967C42.3523 24.8697 42.2696 24.9427 42.1868 25.0158Z" fill="white" stroke="#1A1A1A" stroke-width="0.6" stroke-miterlimit="10"/>
<path d="M42.4474 24.8159L43.387 26.4434C43.4698 26.3704 43.5525 26.2974 43.6462 26.2433L42.7066 24.6158C42.6129 24.6699 42.5301 24.7429 42.4474 24.8159Z" fill="white" stroke="#1A1A1A" stroke-width="0.6" stroke-miterlimit="10"/>
<path d="M42.6779 24.6089L43.6175 26.2363C43.7002 26.1633 43.7939 26.1093 43.8767 26.0362L42.937 24.4088C42.8543 24.4818 42.7715 24.5548 42.6779 24.6089Z" fill="white" stroke="#1A1A1A" stroke-width="0.6" stroke-miterlimit="10"/>
<path d="M42.9493 24.428L43.889 26.0554C43.9717 25.9824 44.0654 25.9283 44.1481 25.8553L43.2085 24.2279C43.1258 24.3009 43.0321 24.355 42.9493 24.428Z" fill="white" stroke="#1A1A1A" stroke-width="0.6" stroke-miterlimit="10"/>
<path d="M43.2099 24.2252L44.1495 25.8527C44.251 25.7688 44.3447 25.7148 44.4571 25.6499L43.5175 24.0224C43.4051 24.0873 43.3223 24.1603 43.2099 24.2252Z" fill="white" stroke="#1A1A1A" stroke-width="0.6" stroke-miterlimit="10"/>
<path d="M43.5126 24.0211L44.4522 25.6486C44.5647 25.5837 44.6849 25.489 44.7973 25.4241L43.8577 23.7967C43.7265 23.8724 43.6141 23.9373 43.5126 24.0211Z" fill="white" stroke="#1A1A1A" stroke-width="0.6" stroke-miterlimit="10"/>
<path d="M43.8622 23.7994L44.8019 25.4269C44.9892 25.3187 45.1469 25.2024 45.3343 25.0943L44.3947 23.4668C44.2073 23.575 44.0199 23.6832 43.8622 23.7994Z" fill="white" stroke="#1A1A1A" stroke-width="0.6" stroke-miterlimit="10"/>
<path d="M44.3748 23.48L45.3144 25.1074C45.5579 24.9668 45.8202 24.8154 46.0747 24.6937L45.1351 23.0662C44.8915 23.2068 44.6371 23.3285 44.3748 23.48Z" fill="white" stroke="#1A1A1A" stroke-width="0.6" stroke-miterlimit="10"/>
<path d="M45.1462 23.0862L46.0859 24.7136C46.2841 24.6244 46.4902 24.5054 46.6994 24.4351L45.7598 22.8076C45.5506 22.8779 45.3523 22.9672 45.1462 23.0862Z" fill="white" stroke="#1A1A1A" stroke-width="0.6" stroke-miterlimit="10"/>
<path d="M45.7478 22.7859L46.6874 24.4133C46.8295 24.3565 46.9716 24.2998 47.1136 24.243L46.174 22.6155C46.032 22.6723 45.8899 22.7291 45.7478 22.7859Z" fill="white" stroke="#1A1A1A" stroke-width="0.6" stroke-miterlimit="10"/>
<path d="M46.1697 22.6167L47.1093 24.2442C47.2326 24.1982 47.3372 24.163 47.4606 24.117L46.521 22.4896C46.3867 22.5166 46.2821 22.5518 46.1697 22.6167Z" fill="white" stroke="#1A1A1A" stroke-width="0.6" stroke-miterlimit="10"/>
<path d="M46.5115 22.4707L47.4511 24.0982C47.5744 24.0522 47.679 24.017 47.8024 23.971L46.8628 22.3436C46.7394 22.3896 46.6348 22.4247 46.5115 22.4707Z" fill="white" stroke="#1A1A1A" stroke-width="0.6" stroke-miterlimit="10"/>
<path d="M46.8669 22.3425L47.8066 23.97C47.9112 23.9348 48.0345 23.8888 48.1391 23.8537L47.1995 22.2262C47.0949 22.2614 46.9715 22.3074 46.8669 22.3425Z" fill="white" stroke="#1A1A1A" stroke-width="0.6" stroke-miterlimit="10"/>
<path d="M47.2068 22.2463L48.1464 23.8738C48.251 23.8386 48.3853 23.8116 48.4899 23.7764L47.5503 22.149C47.4347 22.1652 47.3114 22.2112 47.2068 22.2463Z" fill="white" stroke="#1A1A1A" stroke-width="0.6" stroke-miterlimit="10"/>
<path d="M47.5388 22.1296L48.4784 23.7571C48.583 23.7219 48.7173 23.6949 48.8219 23.6597L47.8823 22.0323C47.7777 22.0674 47.6731 22.1026 47.5388 22.1296Z" fill="white" stroke="#1A1A1A" stroke-width="0.6" stroke-miterlimit="10"/>
<path d="M47.8982 22.0508L48.8378 23.6782C48.9533 23.662 49.0767 23.616 49.1922 23.5998L48.2526 21.9723C48.1371 21.9886 48.0215 22.0048 47.8982 22.0508Z" fill="white" stroke="#1A1A1A" stroke-width="0.6" stroke-miterlimit="10"/>
<path d="M48.2712 21.9604L49.2109 23.5879C49.3264 23.5717 49.4497 23.5257 49.5653 23.5094L48.6256 21.882C48.4914 21.909 48.3758 21.9253 48.2712 21.9604Z" fill="white" stroke="#1A1A1A" stroke-width="0.6" stroke-miterlimit="10"/>
<path d="M48.6052 21.8933L49.5448 23.5208C49.6604 23.5045 49.7759 23.4883 49.8914 23.4721L48.9518 21.8446C48.855 21.85 48.7395 21.8663 48.6052 21.8933Z" fill="white" stroke="#1A1A1A" stroke-width="0.6" stroke-miterlimit="10"/>
<path d="M48.9685 21.835L49.9081 23.4624C50.0236 23.4462 50.1392 23.4299 50.236 23.4245L49.2964 21.7971C49.1699 21.7944 49.0731 21.7998 48.9685 21.835Z" fill="white" stroke="#1A1A1A" stroke-width="0.6" stroke-miterlimit="10"/>
<path d="M49.3005 21.7971L50.2401 23.4246C50.3557 23.4083 50.4525 23.4029 50.568 23.3867L49.6284 21.7592C49.5129 21.7755 49.4161 21.7809 49.3005 21.7971Z" fill="white" stroke="#1A1A1A" stroke-width="0.6" stroke-miterlimit="10"/>
<path d="M49.6267 21.759L50.5663 23.3865C50.6631 23.3811 50.7786 23.3648 50.8754 23.3594L49.9358 21.732C49.839 21.7374 49.7235 21.7536 49.6267 21.759Z" fill="white" stroke="#1A1A1A" stroke-width="0.6" stroke-miterlimit="10"/>
<path d="M49.9294 21.73L50.8691 23.3574C50.9658 23.352 51.0626 23.3466 51.1704 23.3601L50.2307 21.7326C50.123 21.7191 50.0262 21.7246 49.9294 21.73Z" fill="white" stroke="#1A1A1A" stroke-width="0.6" stroke-miterlimit="10"/>
<path d="M50.2361 21.7329L51.1757 23.3604C51.2054 23.3685 51.2241 23.3577 51.2538 23.3658L50.3141 21.7383C50.2845 21.7302 50.2548 21.7221 50.2361 21.7329Z" fill="white" stroke="#1A1A1A" stroke-width="0.6" stroke-miterlimit="10"/>
<path d="M39.3881 32.2303L40.3277 33.8578C39.6831 32.7413 39.7505 31.2137 40.7015 29.5292C42.6112 26.1305 47.3295 23.356 51.2544 23.3608L50.3147 21.7334C46.4008 21.7474 41.6716 24.5031 39.7618 27.9018C38.8108 29.5863 38.7435 31.1138 39.3881 32.2303Z" stroke="#1A1A1A" stroke-width="0.6" stroke-miterlimit="10"/>
<path d="M55.2774 25.1781L54.3378 23.5507C53.6822 22.4152 52.2882 21.7314 50.3164 21.7344L51.256 23.3618C53.2278 23.3589 54.6218 24.0427 55.2774 25.1781Z" fill="white"/>
<path d="M50.3047 21.7229L51.2443 23.3504C51.3224 23.3558 51.3895 23.3422 51.4675 23.3476L50.5279 21.7202C50.4608 21.7337 50.3827 21.7283 50.3047 21.7229Z" fill="white" stroke="#1A1A1A" stroke-width="0.6" stroke-miterlimit="10"/>
<path d="M50.5254 21.72L51.465 23.3474C51.5618 23.342 51.6508 23.3663 51.7476 23.3609L50.808 21.7335C50.7112 21.7389 50.6144 21.7443 50.5254 21.72Z" fill="white" stroke="#1A1A1A" stroke-width="0.6" stroke-miterlimit="10"/>
<path d="M50.8123 21.7317L51.7519 23.3591C51.8487 23.3537 51.9376 23.378 52.0157 23.3834L51.0761 21.756C50.998 21.7506 50.9012 21.756 50.8123 21.7317Z" fill="white" stroke="#1A1A1A" stroke-width="0.6" stroke-miterlimit="10"/>
<path d="M51.0859 21.7783L52.0255 23.4058C52.1036 23.4112 52.2113 23.4247 52.2894 23.4301L51.3498 21.8026C51.2608 21.7783 51.1827 21.7729 51.0859 21.7783Z" fill="white" stroke="#1A1A1A" stroke-width="0.6" stroke-miterlimit="10"/>
<path d="M51.3496 21.8018L52.2892 23.4292C52.3782 23.4535 52.4563 23.4589 52.5452 23.4832L51.6056 21.8558C51.5166 21.8315 51.4277 21.8072 51.3496 21.8018Z" fill="white" stroke="#1A1A1A" stroke-width="0.6" stroke-miterlimit="10"/>
<path d="M51.6055 21.8541L52.5451 23.4816C52.6341 23.5059 52.7121 23.5113 52.8011 23.5356L51.8615 21.9082C51.7912 21.873 51.7023 21.8487 51.6055 21.8541Z" fill="white" stroke="#1A1A1A" stroke-width="0.6" stroke-miterlimit="10"/>
<path d="M51.8516 21.8921L52.7912 23.5195C52.8802 23.5439 52.9691 23.5682 53.0472 23.5736L52.1076 21.9461C52.0295 21.9407 51.9405 21.9164 51.8516 21.8921Z" fill="white" stroke="#1A1A1A" stroke-width="0.6" stroke-miterlimit="10"/>
<path d="M52.1189 21.962L53.0585 23.5895C53.1475 23.6138 53.2365 23.6381 53.3067 23.6733L52.3671 22.0458C52.2969 22.0107 52.2079 21.9864 52.1189 21.962Z" fill="white" stroke="#1A1A1A" stroke-width="0.6" stroke-miterlimit="10"/>
<path d="M52.3633 22.0466L53.3029 23.6741C53.3919 23.6984 53.4621 23.7335 53.562 23.7768L52.6224 22.1493C52.5412 22.0953 52.4523 22.071 52.3633 22.0466Z" fill="white" stroke="#1A1A1A" stroke-width="0.6" stroke-miterlimit="10"/>
<path d="M52.6113 22.1313L53.5509 23.7588C53.6399 23.7831 53.7211 23.8372 53.7913 23.8723L52.8517 22.2449C52.7815 22.2097 52.7112 22.1746 52.6113 22.1313Z" fill="white" stroke="#1A1A1A" stroke-width="0.6" stroke-miterlimit="10"/>
<path d="M52.8711 22.2334L53.8107 23.8609C53.9106 23.9041 53.9809 23.9392 54.062 23.9933L53.1224 22.3658C53.0522 22.3307 52.9523 22.2875 52.8711 22.2334Z" fill="white" stroke="#1A1A1A" stroke-width="0.6" stroke-miterlimit="10"/>
<path d="M53.1348 22.385L54.0744 24.0125C54.1743 24.0557 54.2664 24.1287 54.3476 24.1828L53.408 22.5553C53.3159 22.4823 53.2159 22.4391 53.1348 22.385Z" fill="white" stroke="#1A1A1A" stroke-width="0.6" stroke-miterlimit="10"/>
<path d="M53.4082 22.5571L54.3478 24.1846C54.4399 24.2576 54.532 24.3306 54.6241 24.4035L53.6845 22.7761C53.5924 22.7031 53.5003 22.6301 53.4082 22.5571Z" fill="white" stroke="#1A1A1A" stroke-width="0.6" stroke-miterlimit="10"/>
<path d="M53.6816 22.7729L54.6213 24.4004C54.7352 24.5112 54.8382 24.6031 54.9334 24.7248L53.9938 23.0973C53.8986 22.9757 53.7956 22.8838 53.6816 22.7729Z" fill="white" stroke="#1A1A1A" stroke-width="0.6" stroke-miterlimit="10"/>
<path d="M53.998 23.0967L54.9377 24.7241C55.0625 24.8539 55.1609 25.0242 55.2483 25.1756L54.3087 23.5481C54.24 23.3859 54.1229 23.2264 53.998 23.0967Z" fill="white" stroke="#1A1A1A" stroke-width="0.6" stroke-miterlimit="10"/>
<path d="M55.2774 25.1781L54.3378 23.5507C53.6822 22.4152 52.2882 21.7314 50.3164 21.7344L51.256 23.3618C53.2278 23.3589 54.6218 24.0427 55.2774 25.1781Z" stroke="#1A1A1A" stroke-width="0.6" stroke-miterlimit="10"/>
<path d="M39.2246 32.3274L40.1642 33.9548C40.8307 35.1092 42.2653 35.8201 44.2668 35.8252L43.3271 34.1977C41.3148 34.1737 39.9098 33.4709 39.2246 32.3274Z" fill="white"/>
<path d="M39.2246 32.3274L40.1642 33.9548C40.8307 35.1092 42.2653 35.8201 44.2668 35.8252L43.3271 34.1977C41.3148 34.1737 39.9098 33.4709 39.2246 32.3274Z" fill="white" stroke="#1A1A1A" stroke-width="0.6" stroke-miterlimit="10"/>
<path d="M55.4422 25.077L54.5026 23.4495C55.1581 24.5849 55.083 26.1422 54.1351 27.8754C52.1909 31.3444 47.3602 34.1839 43.3574 34.1736L44.297 35.8011C48.2889 35.7924 53.1306 32.9718 55.0747 29.5028C56.0226 27.7697 56.0977 26.2124 55.4422 25.077Z" fill="#1A1A1A" stroke="#1A1A1A" stroke-width="0.6"/>
<path d="M55.4422 25.077L54.5026 23.4495C55.1581 24.5849 55.083 26.1422 54.1351 27.8754C52.1909 31.3444 47.3602 34.1839 43.3574 34.1736L44.297 35.8011C48.2889 35.7924 53.1306 32.9718 55.0747 29.5028C56.0226 27.7697 56.0977 26.2124 55.4422 25.077Z" stroke="#1A1A1A" stroke-width="0.6" stroke-miterlimit="10"/>
<path d="M54.1137 27.8682C56.0578 24.3992 54.3815 21.5822 50.3896 21.5909C46.3976 21.5996 41.556 24.4201 39.6118 27.8891C37.6677 31.3581 39.344 34.1751 43.336 34.1664C47.3388 34.1767 52.1695 31.3372 54.1137 27.8682Z" fill="white" stroke="#1A1A1A" stroke-width="0.6" stroke-miterlimit="10"/>
<path d="M52.5578 27.6032C54.1366 24.7993 52.7849 22.5014 49.5408 22.5073C46.2966 22.5131 42.3918 24.7928 40.824 27.6156C39.2452 30.4195 40.5969 32.7174 43.841 32.7115C47.0852 32.7057 50.99 30.426 52.5578 27.6032Z" fill="white" stroke="#1A1A1A" stroke-width="0.6" stroke-miterlimit="10"/>
<path d="M25.987 63.7416L27.2868 67.6012C26.3951 64.9534 27.1918 61.7369 29.933 58.5651C35.4447 52.1618 46.656 48.2863 54.9921 49.9761L53.6923 46.1165C45.3713 44.4716 34.1449 48.3022 28.6332 54.7056C25.892 57.8773 25.0953 61.0938 25.987 63.7416Z" fill="white"/>
<path d="M25.9872 63.7438L27.287 67.6034C26.9545 66.6161 26.8291 65.509 27.0297 64.3421L25.73 60.4826C25.5737 61.6345 25.6396 62.7116 25.9872 63.7438Z" fill="white" stroke="#1A1A1A" stroke-width="0.6" stroke-miterlimit="10"/>
<path d="M25.7286 60.4801L27.0284 64.3397C27.071 64.0256 27.1429 63.6516 27.23 63.3224L25.9302 59.4628C25.8431 59.792 25.7712 60.166 25.7286 60.4801Z" fill="white" stroke="#1A1A1A" stroke-width="0.6" stroke-miterlimit="10"/>
<path d="M25.9264 59.4606L27.2262 63.3202C27.284 63.0509 27.4012 62.8115 27.459 62.5422L26.1592 58.6826C26.1014 58.9519 25.9842 59.1913 25.9264 59.4606Z" fill="white" stroke="#1A1A1A" stroke-width="0.6" stroke-miterlimit="10"/>
<path d="M26.2048 58.6682L27.5046 62.5278C27.5774 62.3034 27.6947 62.064 27.7676 61.8396L26.4678 57.98C26.3505 58.2194 26.2776 58.4438 26.2048 58.6682Z" fill="white" stroke="#1A1A1A" stroke-width="0.6" stroke-miterlimit="10"/>
<path d="M26.467 57.9854L27.7668 61.845C27.8397 61.6206 27.9721 61.4261 28.0893 61.1867L26.7895 57.3271C26.6723 57.5665 26.555 57.8058 26.467 57.9854Z" fill="white" stroke="#1A1A1A" stroke-width="0.6" stroke-miterlimit="10"/>
<path d="M26.802 57.3685L28.1018 61.2281C28.1898 61.0486 28.3222 60.8541 28.4546 60.6596L27.1548 56.8C26.9628 56.9646 26.8749 57.1441 26.802 57.3685Z" fill="white" stroke="#1A1A1A" stroke-width="0.6" stroke-miterlimit="10"/>
<path d="M27.0989 56.7674L28.3987 60.627C28.4867 60.4475 28.6191 60.253 28.7514 60.0585L27.4517 56.1989C27.3344 56.4383 27.2313 56.5729 27.0989 56.7674Z" fill="white" stroke="#1A1A1A" stroke-width="0.6" stroke-miterlimit="10"/>
<path d="M27.4666 56.2419L28.7664 60.1014C28.8988 59.9069 29.0019 59.7723 29.1342 59.5778L27.8345 55.7182C27.6869 55.8678 27.5546 56.0623 27.4666 56.2419Z" fill="white" stroke="#1A1A1A" stroke-width="0.6" stroke-miterlimit="10"/>
<path d="M27.8363 55.7209L29.1361 59.5805C29.2684 59.386 29.3715 59.2513 29.519 59.1017L28.2192 55.2421C28.0717 55.3918 27.9242 55.5414 27.8363 55.7209Z" fill="white" stroke="#1A1A1A" stroke-width="0.6" stroke-miterlimit="10"/>
<path d="M28.2015 55.2031L29.5013 59.0627C29.6488 58.9131 29.7812 58.7186 29.9287 58.5689L28.6289 54.7094C28.437 54.8739 28.349 55.0535 28.2015 55.2031Z" fill="white" stroke="#1A1A1A" stroke-width="0.6" stroke-miterlimit="10"/>
<path d="M28.5887 54.719L29.8885 58.5786L29.933 58.5636C30.0805 58.414 30.1835 58.2793 30.331 58.1297L29.0312 54.2701C28.8686 54.3749 28.7656 54.5095 28.5887 54.719C28.6184 54.709 28.6184 54.709 28.5887 54.719Z" fill="white"/>
<path d="M28.5887 54.719L29.8885 58.5786L29.933 58.5636C30.0805 58.414 30.1835 58.2793 30.331 58.1297L29.0312 54.2701C28.8686 54.3749 28.7656 54.5095 28.5887 54.719C28.6184 54.709 28.6184 54.709 28.5887 54.719" stroke="#1A1A1A" stroke-width="0.6" stroke-miterlimit="10"/>
<path d="M29.0184 54.2244L30.3182 58.0839C30.4657 57.9343 30.6132 57.7847 30.7607 57.6351L29.4609 53.7755C29.3134 53.9251 29.1659 54.0747 29.0184 54.2244Z" fill="white" stroke="#1A1A1A" stroke-width="0.6" stroke-miterlimit="10"/>
<path d="M29.452 53.7805L30.7518 57.6401C30.8993 57.4905 31.0468 57.3409 31.1943 57.1913L29.8945 53.3317C29.7915 53.4663 29.5995 53.6309 29.452 53.7805Z" fill="white" stroke="#1A1A1A" stroke-width="0.6" stroke-miterlimit="10"/>
<path d="M29.9383 53.3137L31.2381 57.1733C31.3856 57.0237 31.5331 56.8741 31.7251 56.7095L30.4253 52.8499C30.2333 53.0145 30.0858 53.1641 29.9383 53.3137Z" fill="white" stroke="#1A1A1A" stroke-width="0.6" stroke-miterlimit="10"/>
<path d="M30.3842 52.8665L31.684 56.7261C31.8315 56.5765 32.0234 56.4119 32.186 56.3071L30.8862 52.4476C30.7387 52.5972 30.5761 52.7019 30.3842 52.8665Z" fill="white" stroke="#1A1A1A" stroke-width="0.6" stroke-miterlimit="10"/>
<path d="M30.931 52.4319L32.2308 56.2915C32.3783 56.1419 32.5854 56.0222 32.7773 55.8576L31.4775 51.998C31.2705 52.1177 31.0785 52.2823 30.931 52.4319Z" fill="white" stroke="#1A1A1A" stroke-width="0.6" stroke-miterlimit="10"/>
<path d="M31.4389 52.0205L32.7386 55.8801C32.9306 55.7156 33.0932 55.6108 33.2851 55.4462L31.9853 51.5867C31.8378 51.7363 31.6308 51.856 31.4389 52.0205Z" fill="white" stroke="#1A1A1A" stroke-width="0.6" stroke-miterlimit="10"/>
<path d="M32.0306 51.5583L33.3304 55.4178C33.5224 55.2533 33.7294 55.1336 33.9214 54.969L32.6216 51.1094C32.3852 51.2889 32.1782 51.4086 32.0306 51.5583Z" fill="white" stroke="#1A1A1A" stroke-width="0.6" stroke-miterlimit="10"/>
<path d="M32.5741 51.1297L33.8739 54.9893C34.081 54.8696 34.2729 54.705 34.48 54.5853L33.1802 50.7257C32.9882 50.8903 32.7812 51.01 32.5741 51.1297Z" fill="white" stroke="#1A1A1A" stroke-width="0.6" stroke-miterlimit="10"/>
<path d="M33.1796 50.7276L34.4794 54.5872C34.6864 54.4675 34.8784 54.3029 35.0854 54.1832L33.7856 50.3236C33.5937 50.4882 33.3866 50.6079 33.1796 50.7276Z" fill="white" stroke="#1A1A1A" stroke-width="0.6" stroke-miterlimit="10"/>
<path d="M33.7856 50.3221L35.0854 54.1817C35.2924 54.062 35.4995 53.9423 35.7065 53.8226L34.4067 49.963C34.1997 50.0827 33.9926 50.2024 33.7856 50.3221Z" fill="white" stroke="#1A1A1A" stroke-width="0.6" stroke-miterlimit="10"/>
<path d="M34.4047 49.9662L35.7045 53.8258C35.9116 53.7061 36.1186 53.5864 36.3257 53.4667L35.0259 49.6071C34.8188 49.7268 34.6118 49.8465 34.4047 49.9662Z" fill="white" stroke="#1A1A1A" stroke-width="0.6" stroke-miterlimit="10"/>
<path d="M35.0239 49.6055L36.3236 53.465C36.5307 53.3453 36.7377 53.2256 36.9448 53.1059L35.645 49.2464C35.438 49.3661 35.2309 49.4858 35.0239 49.6055Z" fill="white" stroke="#1A1A1A" stroke-width="0.6" stroke-miterlimit="10"/>
<path d="M35.6611 49.2877L36.9609 53.1473C37.1679 53.0276 37.375 52.908 37.5971 52.8331L36.2973 48.9735C36.0752 49.0484 35.8681 49.1681 35.6611 49.2877Z" fill="white" stroke="#1A1A1A" stroke-width="0.6" stroke-miterlimit="10"/>
<path d="M36.2392 48.9457L37.539 52.8053C37.7461 52.6856 37.9682 52.6108 38.1753 52.4911L36.8755 48.6315C36.6684 48.7512 36.4614 48.8709 36.2392 48.9457Z" fill="white" stroke="#1A1A1A" stroke-width="0.6" stroke-miterlimit="10"/>
<path d="M36.8955 48.6776L38.1952 52.5372C38.4023 52.4175 38.6245 52.3427 38.8315 52.223L37.5317 48.3634C37.3247 48.4831 37.1025 48.5579 36.8955 48.6776Z" fill="white" stroke="#1A1A1A" stroke-width="0.6" stroke-miterlimit="10"/>
<path d="M37.5307 48.3601L38.8305 52.2196C39.082 52.085 39.3042 52.0102 39.5708 51.9204L38.271 48.0608C38.0044 48.1506 37.7973 48.2703 37.5307 48.3601Z" fill="white" stroke="#1A1A1A" stroke-width="0.6" stroke-miterlimit="10"/>
<path d="M38.2612 48.0595L39.561 51.9191C39.8276 51.8293 40.1235 51.6797 40.3901 51.5899L39.0903 47.7303C38.7793 47.8351 38.5127 47.9249 38.2612 48.0595Z" fill="white" stroke="#1A1A1A" stroke-width="0.6" stroke-miterlimit="10"/>
<path d="M39.103 47.7314L40.4028 51.591C40.8471 51.4414 41.2319 51.2618 41.6762 51.1122L40.3764 47.2526C39.9321 47.4022 39.4878 47.5519 39.103 47.7314Z" fill="white" stroke="#1A1A1A" stroke-width="0.6" stroke-miterlimit="10"/>
<path d="M40.3281 47.2749L41.6279 51.1345C42.2055 50.94 42.8276 50.7305 43.4203 50.5808L42.1205 46.7212C41.5429 46.9158 40.9502 47.0654 40.3281 47.2749Z" fill="white" stroke="#1A1A1A" stroke-width="0.6" stroke-miterlimit="10"/>
<path d="M42.1348 46.7665L43.4346 50.6261C43.894 50.5213 44.3828 50.3567 44.8573 50.2968L43.5575 46.4372C43.083 46.4971 42.6235 46.6019 42.1348 46.7665Z" fill="white" stroke="#1A1A1A" stroke-width="0.6" stroke-miterlimit="10"/>
<path d="M43.541 46.3875L44.8408 50.247C45.1669 50.1872 45.4931 50.1273 45.8192 50.0674L44.5194 46.2079C44.1933 46.2677 43.8672 46.3276 43.541 46.3875Z" fill="white" stroke="#1A1A1A" stroke-width="0.6" stroke-miterlimit="10"/>
<path d="M44.5156 46.2117L45.8154 50.0713C46.0971 50.0264 46.3344 49.9964 46.6161 49.9515L45.3163 46.0919C45.0195 46.0919 44.7822 46.1219 44.5156 46.2117Z" fill="white" stroke="#1A1A1A" stroke-width="0.6" stroke-miterlimit="10"/>
<path d="M45.3008 46.0452L46.6006 49.9048C46.8823 49.8599 47.1196 49.8299 47.4013 49.785L46.1015 45.9254C45.8198 45.9703 45.5825 46.0003 45.3008 46.0452Z" fill="white" stroke="#1A1A1A" stroke-width="0.6" stroke-miterlimit="10"/>
<path d="M46.1113 45.925L47.4111 49.7846C47.6484 49.7547 47.9301 49.7098 48.1674 49.6799L46.8676 45.8203C46.6303 45.8502 46.3486 45.8951 46.1113 45.925Z" fill="white" stroke="#1A1A1A" stroke-width="0.6" stroke-miterlimit="10"/>
<path d="M46.8733 45.865L48.1731 49.7246C48.4104 49.6946 48.7072 49.6946 48.9445 49.6647L47.6447 45.8051C47.3923 45.7901 47.1106 45.8351 46.8733 45.865Z" fill="white" stroke="#1A1A1A" stroke-width="0.6" stroke-miterlimit="10"/>
<path d="M47.6309 45.7632L48.9306 49.6228C49.1679 49.5928 49.4648 49.5928 49.702 49.5629L48.4022 45.7033C48.165 45.7332 47.9277 45.7632 47.6309 45.7632Z" fill="white" stroke="#1A1A1A" stroke-width="0.6" stroke-miterlimit="10"/>
<path d="M48.418 45.7449L49.7178 49.6045C49.9701 49.6194 50.2518 49.5745 50.5042 49.5894L49.2045 45.7299C48.9521 45.7149 48.6997 45.7 48.418 45.7449Z" fill="white" stroke="#1A1A1A" stroke-width="0.6" stroke-miterlimit="10"/>
<path d="M49.2542 45.717L50.5539 49.5766C50.8063 49.5916 51.088 49.5467 51.3404 49.5616L50.0406 45.702C49.7438 45.702 49.4914 45.6871 49.2542 45.717Z" fill="white" stroke="#1A1A1A" stroke-width="0.6" stroke-miterlimit="10"/>
<path d="M49.9941 45.7124L51.2939 49.572C51.5463 49.5869 51.7987 49.6019 52.0511 49.6168L50.7513 45.7572C50.5434 45.7273 50.291 45.7124 49.9941 45.7124Z" fill="white" stroke="#1A1A1A" stroke-width="0.6" stroke-miterlimit="10"/>
<path d="M50.793 45.7449L52.0928 49.6045C52.3451 49.6194 52.5975 49.6343 52.8055 49.6642L51.5057 45.8047C51.2382 45.7448 51.0302 45.7149 50.793 45.7449Z" fill="white" stroke="#1A1A1A" stroke-width="0.6" stroke-miterlimit="10"/>
<path d="M51.5098 45.8049L52.8096 49.6645C53.0619 49.6795 53.2699 49.7094 53.5223 49.7243L52.2225 45.8647C51.9701 45.8498 51.7622 45.8199 51.5098 45.8049Z" fill="white" stroke="#1A1A1A" stroke-width="0.6" stroke-miterlimit="10"/>
<path d="M52.2227 45.865L53.5224 49.7246C53.7304 49.7545 53.9828 49.7694 54.1908 49.7993L52.891 45.9397C52.683 45.9098 52.4306 45.8949 52.2227 45.865Z" fill="white" stroke="#1A1A1A" stroke-width="0.6" stroke-miterlimit="10"/>
<path d="M52.8828 45.9343L54.1826 49.7939C54.3906 49.8238 54.5985 49.8537 54.8216 49.9285L53.5218 46.0689C53.2987 45.9941 53.0908 45.9642 52.8828 45.9343Z" fill="white" stroke="#1A1A1A" stroke-width="0.6" stroke-miterlimit="10"/>
<path d="M53.5312 46.073L54.831 49.9326C54.8906 49.9625 54.935 49.9475 54.9946 49.9775L53.6948 46.1179C53.6352 46.088 53.5757 46.058 53.5312 46.073Z" fill="white" stroke="#1A1A1A" stroke-width="0.6" stroke-miterlimit="10"/>
<path d="M25.987 63.7416L27.2868 67.6012C26.3951 64.9534 27.1918 61.7369 29.933 58.5651C35.4447 52.1618 46.656 48.2863 54.9921 49.9761L53.6923 46.1165C45.3713 44.4716 34.1449 48.3022 28.6332 54.7056C25.892 57.8773 25.0953 61.0938 25.987 63.7416Z" stroke="#1A1A1A" stroke-width="0.6" stroke-miterlimit="10"/>
<path d="M62.7635 55.5569L61.4637 51.6973C60.5568 49.0045 57.8878 46.9552 53.6975 46.1178L54.9973 49.9774C59.1876 50.8148 61.8566 52.8641 62.7635 55.5569Z" fill="white"/>
<path d="M53.6858 46.0775L54.9856 49.9371C55.1491 49.982 55.2975 49.982 55.461 50.0268L54.1613 46.1672C54.0128 46.1672 53.8493 46.1224 53.6858 46.0775Z" fill="white" stroke="#1A1A1A" stroke-width="0.6" stroke-miterlimit="10"/>
<path d="M54.1565 46.1654L55.4563 50.025C55.6642 50.0549 55.8429 50.1446 56.0508 50.1745L54.7511 46.315C54.5431 46.2851 54.3351 46.2552 54.1565 46.1654Z" fill="white" stroke="#1A1A1A" stroke-width="0.6" stroke-miterlimit="10"/>
<path d="M54.7581 46.3134L56.0578 50.1729C56.2658 50.2028 56.4444 50.2926 56.608 50.3375L55.3082 46.4779C55.1447 46.433 54.9367 46.4031 54.7581 46.3134Z" fill="white" stroke="#1A1A1A" stroke-width="0.6" stroke-miterlimit="10"/>
<path d="M55.3223 46.5305L56.6221 50.3901C56.7856 50.435 57.0087 50.5097 57.1722 50.5546L55.8724 46.695C55.6938 46.6053 55.5302 46.5604 55.3223 46.5305Z" fill="white" stroke="#1A1A1A" stroke-width="0.6" stroke-miterlimit="10"/>
<path d="M55.8674 46.6876L57.1672 50.5472C57.3459 50.6369 57.5094 50.6818 57.688 50.7716L56.3882 46.912C56.2096 46.8222 56.031 46.7325 55.8674 46.6876Z" fill="white" stroke="#1A1A1A" stroke-width="0.6" stroke-miterlimit="10"/>
<path d="M56.3948 46.9143L57.6946 50.7739C57.8732 50.8636 58.0367 50.9085 58.2154 50.9982L56.9156 47.1387C56.7814 47.034 56.6027 46.9442 56.3948 46.9143Z" fill="white" stroke="#1A1A1A" stroke-width="0.6" stroke-miterlimit="10"/>
<path d="M56.8987 47.0991L58.1985 50.9587C58.3771 51.0484 58.5557 51.1382 58.7193 51.1831L57.4195 47.3235C57.256 47.2786 57.0773 47.1889 56.8987 47.0991Z" fill="white" stroke="#1A1A1A" stroke-width="0.6" stroke-miterlimit="10"/>
<path d="M57.4358 47.3627L58.7356 51.2223C58.9142 51.312 59.0929 51.4017 59.2271 51.5065L57.9273 47.6469C57.7931 47.5422 57.6144 47.4524 57.4358 47.3627Z" fill="white" stroke="#1A1A1A" stroke-width="0.6" stroke-miterlimit="10"/>
<path d="M57.9241 47.6447L59.2239 51.5042C59.4025 51.594 59.5367 51.6987 59.7305 51.8333L58.4307 47.9737C58.2813 47.8241 58.1027 47.7344 57.9241 47.6447Z" fill="white" stroke="#1A1A1A" stroke-width="0.6" stroke-miterlimit="10"/>
<path d="M58.4104 47.9313L59.7102 51.7909C59.8888 51.8806 60.0382 52.0302 60.1724 52.1349L58.8726 48.2753C58.7384 48.1706 58.6042 48.0659 58.4104 47.9313Z" fill="white" stroke="#1A1A1A" stroke-width="0.6" stroke-miterlimit="10"/>
<path d="M58.9241 48.2596L60.2239 52.1192C60.4176 52.2539 60.5518 52.3586 60.7011 52.5082L59.4013 48.6486C59.2671 48.5439 59.0734 48.4092 58.9241 48.2596Z" fill="white" stroke="#1A1A1A" stroke-width="0.6" stroke-miterlimit="10"/>
<path d="M59.4143 48.6986L60.7141 52.5582C60.9079 52.6928 61.0723 52.8873 61.2216 53.0369L59.9218 49.1773C59.7574 48.9828 59.5636 48.8482 59.4143 48.6986Z" fill="white" stroke="#1A1A1A" stroke-width="0.6" stroke-miterlimit="10"/>
<path d="M59.9221 49.1794L61.2219 53.039C61.3863 53.2335 61.5508 53.428 61.7152 53.6224L60.4154 49.7628C60.251 49.5684 60.0866 49.3739 59.9221 49.1794Z" fill="white" stroke="#1A1A1A" stroke-width="0.6" stroke-miterlimit="10"/>
<path d="M60.4121 49.7573L61.7119 53.6169C61.9066 53.9011 62.0861 54.1405 62.2363 54.4397L60.9365 50.5801C60.7863 50.2809 60.6068 50.0415 60.4121 49.7573Z" fill="white" stroke="#1A1A1A" stroke-width="0.6" stroke-miterlimit="10"/>
<path d="M60.9397 50.5802L62.2395 54.4398C62.4493 54.7689 62.5853 55.1728 62.7062 55.5318L61.4064 51.6722C61.3299 51.2983 61.1495 50.9093 60.9397 50.5802Z" fill="white" stroke="#1A1A1A" stroke-width="0.6" stroke-miterlimit="10"/>
<path d="M62.7635 55.5569L61.4637 51.6973C60.5568 49.0045 57.8878 46.9552 53.6975 46.1178L54.9973 49.9774C59.1876 50.8148 61.8566 52.8641 62.7635 55.5569Z" stroke="#1A1A1A" stroke-width="0.6" stroke-miterlimit="10"/>
<path d="M25.5898 63.8801L26.8896 67.7397C27.8116 70.4773 30.5552 72.6014 34.8051 73.4688L33.5053 69.6092C29.2403 68.697 26.5562 66.6028 25.5898 63.8801Z" fill="white"/>
<path d="M25.5898 63.8801L26.8896 67.7397C27.8116 70.4773 30.5552 72.6014 34.8051 73.4688L33.5053 69.6092C29.2403 68.697 26.5562 66.6028 25.5898 63.8801Z" fill="white" stroke="#1A1A1A" stroke-width="0.6" stroke-miterlimit="10"/>
<path d="M63.1536 55.4185L61.8539 51.5589C62.7607 54.2516 61.9347 57.5279 59.1793 60.8044C53.5645 67.3424 42.0866 71.3077 33.5869 69.573L34.8867 73.4326C43.3713 75.1224 54.8643 71.202 60.479 64.664C63.2344 61.3875 64.0605 58.1112 63.1536 55.4185Z" fill="#1A1A1A" stroke="#1A1A1A" stroke-width="0.6"/>
<path d="M63.1536 55.4185L61.8539 51.5589C62.7607 54.2516 61.9347 57.5279 59.1793 60.8044C53.5645 67.3424 42.0866 71.3077 33.5869 69.573L34.8867 73.4326C43.3713 75.1224 54.8643 71.202 60.479 64.664C63.2344 61.3875 64.0605 58.1112 63.1536 55.4185Z" stroke="#1A1A1A" stroke-width="0.6" stroke-miterlimit="10"/>
<path d="M59.1291 60.7815C64.7439 54.2435 62.3879 47.5416 53.9033 45.8518C45.4187 44.162 33.9258 48.0824 28.311 54.6204C22.6962 61.1584 25.0522 67.8603 33.5368 69.5501C42.0365 71.2848 53.5143 67.3195 59.1291 60.7815Z" fill="white" stroke="#1A1A1A" stroke-width="0.6" stroke-miterlimit="10"/>
<g clip-path="url(#clip0_5157_120821)">
<ellipse cx="43.5687" cy="56.8066" rx="16.2381" ry="9.02626" transform="rotate(-18.9311 43.5687 56.8066)" fill="white"/>
<path d="M41.1728 49.8209C34.2333 52.2011 29.6786 57.2594 31.0017 61.1169C31.145 61.5346 31.3553 61.9185 31.617 62.2721L34.4069 61.3152C34.7638 61.1928 34.9554 61.0553 35.051 60.8835L35.7217 59.6448L37.7182 61.3788C37.9161 61.5545 38.2464 61.5677 38.639 61.4346C39.0416 61.298 39.3264 61.0473 39.3277 60.7971L39.42 58.1015L41.7137 61.562C41.8598 61.7914 42.1216 61.8422 42.574 61.687L42.5791 61.6853C43.029 61.531 43.1986 61.3213 43.1762 61.0511L42.6576 52.9624C42.6368 52.7135 42.275 52.6002 41.8517 52.7095C41.4315 52.8193 41.1016 53.1104 41.1224 53.3594L41.5046 58.528L39.5823 55.6505C39.4436 55.4264 39.0601 55.3893 38.6967 55.5092C38.2851 55.6442 38.0298 55.891 38.0273 56.162L37.8878 59.6701L36.3579 58.3382C36.2206 58.1839 35.8856 58.1489 35.5617 58.2365C35.1143 58.3572 34.9086 58.5683 34.7822 58.7975L33.7424 60.6063L32.8551 60.9106C32.7965 60.7886 32.7423 60.6635 32.6982 60.535C31.5534 57.1972 35.4917 52.8234 41.4963 50.764C46.3371 49.1037 51.0428 49.4572 53.2816 51.4063L55.0511 50.7994C52.5758 48.3411 46.9612 47.8356 41.1728 49.8209Z" fill="url(#paint0_linear_5157_120821)"/>
<path d="M55.5205 51.341L52.7256 52.2996C52.3687 52.422 52.1771 52.5596 52.0815 52.7313L51.4109 53.9701L49.4144 52.2361C49.2165 52.0604 48.8861 52.0472 48.4935 52.1803C48.0909 52.3168 47.8061 52.5676 47.8048 52.8178L47.7125 55.5134L45.4188 52.0529C45.2727 51.8235 45.0109 51.7727 44.5585 51.9279L44.5535 51.9296C44.1036 52.0839 43.9339 52.2936 43.9564 52.5638L44.4749 60.6525C44.4957 60.9014 44.8576 61.0147 45.2808 60.9054C45.701 60.7956 46.031 60.5045 46.0102 60.2555L45.6279 55.0869L47.5503 57.9644C47.689 58.1885 48.0725 58.2256 48.4359 58.1056C48.8475 57.9707 49.1027 57.7239 49.1053 57.4529L49.2448 53.9448L50.7747 55.2767C50.9119 55.431 51.2469 55.466 51.5708 55.3784C52.0182 55.2577 52.2239 55.0466 52.3504 54.8174L53.3902 53.0086L54.2824 52.7026C54.3411 52.8245 54.3952 52.9496 54.4393 53.0782C55.5841 56.4159 51.6459 60.7897 45.6413 62.8492C40.8004 64.5095 36.0948 64.156 33.856 62.2069L32.0865 62.8138C34.5617 65.272 40.1788 65.7767 45.9647 63.7922C52.9043 61.4121 57.4589 56.3538 56.1359 52.4963C55.9926 52.0785 55.7823 51.6947 55.5205 51.341Z" fill="url(#paint1_linear_5157_120821)"/>
</g>
<path d="M55.9338 59.5529C60.4877 54.2716 58.5994 48.8114 51.7047 47.4356C44.81 46.0598 35.5387 49.2321 31 54.5582C26.4461 59.8395 28.3344 65.2997 35.2291 66.6755C42.1238 68.0513 51.3951 64.879 55.9338 59.5529Z" stroke="#1A1A1A" stroke-width="0.6" stroke-miterlimit="10"/>
<defs>
<linearGradient id="paint0_linear_5157_120821" x1="28.6057" y1="54.1312" x2="47.7932" y2="71.4081" gradientUnits="userSpaceOnUse">
<stop stop-color="#FC829F"/>
<stop offset="0.336804" stop-color="#FF1C53"/>
<stop offset="0.435763" stop-color="#EA49F8"/>
<stop offset="0.529514" stop-color="#B250FF"/>
<stop offset="0.633681" stop-color="#5E5FF5"/>
<stop offset="1" stop-color="#323CFF"/>
</linearGradient>
<linearGradient id="paint1_linear_5157_120821" x1="28.6057" y1="54.1312" x2="47.7932" y2="71.4081" gradientUnits="userSpaceOnUse">
<stop stop-color="#FC829F"/>
<stop offset="0.336804" stop-color="#FF1C53"/>
<stop offset="0.435763" stop-color="#EA49F8"/>
<stop offset="0.529514" stop-color="#B250FF"/>
<stop offset="0.633681" stop-color="#5E5FF5"/>
<stop offset="1" stop-color="#323CFF"/>
</linearGradient>
<clipPath id="clip0_5157_120821">
<rect width="32.4763" height="18.0525" fill="white" transform="translate(25.2805 53.5367) rotate(-18.9311)"/>
</clipPath>
</defs>
</svg>
