<svg width="1em" height="1em" viewBox="0 0 61 60" fill="none" xmlns="http://www.w3.org/2000/svg"> 
<g clip-path="url(#clip0_5691_145618)">
<path d="M30.3637 30.4335L30.5046 30.3585L30.6456 30.4335L56.7092 44.3052L56.7092 27.5118L30.5046 13.3402L4.3 27.5118L4.3 44.3052L30.3637 30.4335Z" fill="black" stroke="black" stroke-width="0.6"/>
<path d="M27.4955 43.3765L29.0186 45.4053C27.9737 44.0135 27.8163 41.9553 28.8177 39.5435C30.8261 34.6788 36.6996 30.1953 41.9603 29.5654L40.4372 27.5366C35.1942 28.1901 29.303 32.65 27.2945 37.5147C26.2931 39.9265 26.4506 41.9847 27.4955 43.3765Z" fill="white"/>
<path d="M27.4831 43.3825L29.006 45.4108C28.6164 44.8919 28.3259 44.2618 28.2165 43.5326L26.6936 41.5042C26.8263 42.2159 27.0758 42.84 27.4831 43.3825Z" fill="white" stroke="#1A1A1A" stroke-width="0.6" stroke-miterlimit="10"/>
<path d="M26.6956 41.5023L28.2185 43.5307C28.1823 43.3366 28.1518 43.1013 28.1389 42.8897L26.616 40.8614C26.6289 41.073 26.6594 41.3082 26.6956 41.5023Z" fill="white" stroke="#1A1A1A" stroke-width="0.6" stroke-miterlimit="10"/>
<path d="M26.6149 40.8629L28.1378 42.8913C28.1193 42.7207 28.1419 42.5563 28.1234 42.3858L26.6005 40.3574C26.619 40.5279 26.5964 40.6924 26.6149 40.8629Z" fill="white" stroke="#1A1A1A" stroke-width="0.6" stroke-miterlimit="10"/>
<path d="M26.6224 40.3372L28.1453 42.3656C28.1446 42.2186 28.1671 42.0542 28.1664 41.9072L26.6434 39.8789C26.6209 40.0434 26.6216 40.1903 26.6224 40.3372Z" fill="white" stroke="#1A1A1A" stroke-width="0.6" stroke-miterlimit="10"/>
<path d="M26.6438 39.884L28.1667 41.9123C28.1659 41.7654 28.2062 41.6245 28.2288 41.46L26.7059 39.4317C26.6833 39.5961 26.6607 39.7606 26.6438 39.884Z" fill="white" stroke="#1A1A1A" stroke-width="0.6" stroke-miterlimit="10"/>
<path d="M26.7216 39.4501L28.2446 41.4784C28.2615 41.3551 28.3018 41.2142 28.3421 41.0733L26.8191 39.0449C26.7378 39.1798 26.7209 39.3031 26.7216 39.4501Z" fill="white" stroke="#1A1A1A" stroke-width="0.6" stroke-miterlimit="10"/>
<path d="M26.7841 39.038L28.3071 41.0663C28.324 40.943 28.3643 40.8021 28.4046 40.6612L26.8816 38.6328C26.8591 38.7973 26.8244 38.8971 26.7841 39.038Z" fill="white" stroke="#1A1A1A" stroke-width="0.6" stroke-miterlimit="10"/>
<path d="M26.8953 38.657L28.4183 40.6853C28.4585 40.5444 28.4932 40.4447 28.5335 40.3038L27.0105 38.2754C26.9525 38.3927 26.9123 38.5336 26.8953 38.657Z" fill="white" stroke="#1A1A1A" stroke-width="0.6" stroke-miterlimit="10"/>
<path d="M27.0104 38.2779L28.5334 40.3062C28.5736 40.1654 28.6083 40.0656 28.6663 39.9483L27.1434 37.9199C27.0854 38.0372 27.0274 38.1545 27.0104 38.2779Z" fill="white" stroke="#1A1A1A" stroke-width="0.6" stroke-miterlimit="10"/>
<path d="M27.1276 37.8931L28.6505 39.9215C28.7085 39.8042 28.7488 39.6633 28.8068 39.546L27.2839 37.5176C27.2025 37.6525 27.1856 37.7758 27.1276 37.8931Z" fill="white" stroke="#1A1A1A" stroke-width="0.6" stroke-miterlimit="10"/>
<path d="M27.2584 37.5414L28.7813 39.5698L28.8046 39.5522C28.8626 39.4349 28.8973 39.3352 28.9553 39.2179L27.4323 37.1895C27.3566 37.2832 27.322 37.383 27.2584 37.5414C27.2739 37.5297 27.2739 37.5297 27.2584 37.5414Z" fill="white"/>
<path d="M27.2584 37.5414L28.7813 39.5698L28.8046 39.5522C28.8626 39.4349 28.8973 39.3352 28.9553 39.2179L27.4323 37.1895C27.3566 37.2832 27.322 37.383 27.2584 37.5414C27.2739 37.5297 27.2739 37.5297 27.2584 37.5414" stroke="#1A1A1A" stroke-width="0.6" stroke-miterlimit="10"/>
<path d="M27.4146 37.1606L28.9375 39.1889C28.9955 39.0716 29.0535 38.9543 29.1115 38.837L27.5886 36.8087C27.5306 36.926 27.4726 37.0433 27.4146 37.1606Z" fill="white" stroke="#1A1A1A" stroke-width="0.6" stroke-miterlimit="10"/>
<path d="M27.5904 36.8129L29.1133 38.8413C29.1713 38.724 29.2293 38.6067 29.2873 38.4894L27.7644 36.461C27.7297 36.5608 27.6484 36.6956 27.5904 36.8129Z" fill="white" stroke="#1A1A1A" stroke-width="0.6" stroke-miterlimit="10"/>
<path d="M27.7857 36.4379L29.3086 38.4663C29.3666 38.349 29.4246 38.2317 29.5059 38.0968L27.983 36.0685C27.9017 36.2033 27.8437 36.3206 27.7857 36.4379Z" fill="white" stroke="#1A1A1A" stroke-width="0.6" stroke-miterlimit="10"/>
<path d="M27.9633 36.0881L29.4862 38.1165C29.5442 37.9992 29.6256 37.8644 29.7013 37.7707L28.1783 35.7423C28.1203 35.8596 28.0446 35.9533 27.9633 36.0881Z" fill="white" stroke="#1A1A1A" stroke-width="0.6" stroke-miterlimit="10"/>
<path d="M28.1977 35.7268L29.7206 37.7552C29.7786 37.6379 29.8776 37.5266 29.959 37.3918L28.4361 35.3634C28.337 35.4747 28.2557 35.6095 28.1977 35.7268Z" fill="white" stroke="#1A1A1A" stroke-width="0.6" stroke-miterlimit="10"/>
<path d="M28.4164 35.3831L29.9393 37.4114C30.0207 37.2766 30.0964 37.1829 30.1777 37.0481L28.6548 35.0197C28.5968 35.137 28.4978 35.2482 28.4164 35.3831Z" fill="white" stroke="#1A1A1A" stroke-width="0.6" stroke-miterlimit="10"/>
<path d="M28.6781 34.9944L30.2011 37.0228C30.2824 36.8879 30.3815 36.7767 30.4628 36.6419L28.9399 34.6135C28.8352 34.7659 28.7361 34.8771 28.6781 34.9944Z" fill="white" stroke="#1A1A1A" stroke-width="0.6" stroke-miterlimit="10"/>
<path d="M28.9143 34.6368L30.4373 36.6652C30.5363 36.5539 30.6177 36.4191 30.7167 36.3079L29.1938 34.2795C29.1124 34.4143 29.0134 34.5256 28.9143 34.6368Z" fill="white" stroke="#1A1A1A" stroke-width="0.6" stroke-miterlimit="10"/>
<path d="M29.1956 34.2774L30.7185 36.3058C30.8176 36.1946 30.8989 36.0597 30.998 35.9485L29.475 33.9201C29.3937 34.055 29.2946 34.1662 29.1956 34.2774Z" fill="white" stroke="#1A1A1A" stroke-width="0.6" stroke-miterlimit="10"/>
<path d="M29.4748 33.9199L30.9977 35.9482C31.0967 35.837 31.1958 35.7258 31.2948 35.6145L29.7719 33.5862C29.6729 33.6974 29.5738 33.8086 29.4748 33.9199Z" fill="white" stroke="#1A1A1A" stroke-width="0.6" stroke-miterlimit="10"/>
<path d="M29.7716 33.5898L31.2946 35.6182C31.3936 35.5069 31.4927 35.3957 31.5917 35.2844L30.0688 33.2561C29.9697 33.3673 29.8707 33.4786 29.7716 33.5898Z" fill="white" stroke="#1A1A1A" stroke-width="0.6" stroke-miterlimit="10"/>
<path d="M30.0646 33.2539L31.5875 35.2822C31.6866 35.171 31.7856 35.0597 31.8847 34.9485L30.3618 32.9201C30.2627 33.0314 30.1637 33.1426 30.0646 33.2539Z" fill="white" stroke="#1A1A1A" stroke-width="0.6" stroke-miterlimit="10"/>
<path d="M30.3789 32.9412L31.9018 34.9696C32.0009 34.8583 32.1 34.7471 32.2167 34.6594L30.6938 32.6311C30.577 32.7187 30.478 32.83 30.3789 32.9412Z" fill="white" stroke="#1A1A1A" stroke-width="0.6" stroke-miterlimit="10"/>
<path d="M30.6563 32.6248L32.1792 34.6532C32.2782 34.5419 32.395 34.4543 32.4941 34.343L30.9711 32.3147C30.8721 32.4259 30.773 32.5372 30.6563 32.6248Z" fill="white" stroke="#1A1A1A" stroke-width="0.6" stroke-miterlimit="10"/>
<path d="M30.9883 32.3377L32.5112 34.3661C32.6103 34.2548 32.727 34.1672 32.8261 34.0559L31.3032 32.0276C31.2041 32.1388 31.0873 32.2265 30.9883 32.3377Z" fill="white" stroke="#1A1A1A" stroke-width="0.6" stroke-miterlimit="10"/>
<path d="M31.3065 32.029L32.8294 34.0573C32.9518 33.9285 33.0686 33.8409 33.2087 33.7357L31.6858 31.7073C31.5457 31.8125 31.4466 31.9238 31.3065 32.029Z" fill="white" stroke="#1A1A1A" stroke-width="0.6" stroke-miterlimit="10"/>
<path d="M31.6815 31.7067L33.2044 33.7351C33.3446 33.6299 33.4903 33.4836 33.6304 33.3784L32.1075 31.35C31.944 31.4727 31.8039 31.5779 31.6815 31.7067Z" fill="white" stroke="#1A1A1A" stroke-width="0.6" stroke-miterlimit="10"/>
<path d="M32.1112 31.3473L33.6341 33.3757C33.8676 33.2004 34.0601 33.019 34.2936 32.8437L32.7707 30.8153C32.5372 30.9906 32.3037 31.1659 32.1112 31.3473Z" fill="white" stroke="#1A1A1A" stroke-width="0.6" stroke-miterlimit="10"/>
<path d="M32.7498 30.8374L34.2727 32.8658C34.5762 32.6379 34.9032 32.3924 35.2244 32.1881L33.7015 30.1597C33.398 30.3876 33.0767 30.592 32.7498 30.8374Z" fill="white" stroke="#1A1A1A" stroke-width="0.6" stroke-miterlimit="10"/>
<path d="M33.7185 30.1831L35.2414 32.2115C35.4926 32.0598 35.7495 31.8669 36.0185 31.7388L34.4955 29.7104C34.2266 29.8385 33.9754 29.9903 33.7185 30.1831Z" fill="white" stroke="#1A1A1A" stroke-width="0.6" stroke-miterlimit="10"/>
<path d="M34.4763 29.6851L35.9992 31.7134C36.1804 31.6143 36.3616 31.5152 36.5428 31.416L35.0198 29.3877C34.8387 29.4868 34.6575 29.5859 34.4763 29.6851Z" fill="white" stroke="#1A1A1A" stroke-width="0.6" stroke-miterlimit="10"/>
<path d="M35.0193 29.3901L36.5422 31.4185C36.7 31.3369 36.8345 31.2728 36.9923 31.1912L35.4694 29.1629C35.2939 29.2209 35.1594 29.2849 35.0193 29.3901Z" fill="white" stroke="#1A1A1A" stroke-width="0.6" stroke-miterlimit="10"/>
<path d="M35.449 29.1401L36.9719 31.1685C37.1297 31.0869 37.2642 31.0228 37.422 30.9412L35.8991 28.9129C35.7413 28.9945 35.6068 29.0585 35.449 29.1401Z" fill="white" stroke="#1A1A1A" stroke-width="0.6" stroke-miterlimit="10"/>
<path d="M35.906 28.9077L37.4289 30.9361C37.5634 30.872 37.7212 30.7904 37.8557 30.7263L36.3328 28.698C36.1983 28.762 36.0405 28.8436 35.906 28.9077Z" fill="white" stroke="#1A1A1A" stroke-width="0.6" stroke-miterlimit="10"/>
<path d="M36.3435 28.7261L37.8664 30.7544C38.0009 30.6904 38.1764 30.6323 38.3109 30.5683L36.788 28.5399C36.6358 28.5804 36.478 28.662 36.3435 28.7261Z" fill="white" stroke="#1A1A1A" stroke-width="0.6" stroke-miterlimit="10"/>
<path d="M36.7693 28.5171L38.2922 30.5455C38.4267 30.4814 38.6022 30.4234 38.7367 30.3593L37.2138 28.3309C37.0793 28.395 36.9448 28.4591 36.7693 28.5171Z" fill="white" stroke="#1A1A1A" stroke-width="0.6" stroke-miterlimit="10"/>
<path d="M37.2341 28.3511L38.7571 30.3794C38.9092 30.339 39.067 30.2574 39.2192 30.2169L37.6963 28.1885C37.5441 28.229 37.392 28.2695 37.2341 28.3511Z" fill="white" stroke="#1A1A1A" stroke-width="0.6" stroke-miterlimit="10"/>
<path d="M37.7224 28.1733L39.2453 30.2017C39.3975 30.1612 39.5553 30.0796 39.7075 30.0391L38.1846 28.0108C38.0091 28.0688 37.8569 28.1093 37.7224 28.1733Z" fill="white" stroke="#1A1A1A" stroke-width="0.6" stroke-miterlimit="10"/>
<path d="M38.1599 28.021L39.6828 30.0494C39.835 30.0089 39.9872 29.9684 40.1394 29.9279L38.6164 27.8995C38.4876 27.9225 38.3354 27.963 38.1599 28.021Z" fill="white" stroke="#1A1A1A" stroke-width="0.6" stroke-miterlimit="10"/>
<path d="M38.6404 27.8921L40.1633 29.9205C40.3155 29.88 40.4677 29.8395 40.5965 29.8165L39.0736 27.7882C38.9037 27.8051 38.7749 27.828 38.6404 27.8921Z" fill="white" stroke="#1A1A1A" stroke-width="0.6" stroke-miterlimit="10"/>
<path d="M39.074 27.7827L40.5969 29.8111C40.7491 29.7706 40.8779 29.7476 41.0301 29.7072L39.5072 27.6788C39.355 27.7193 39.2262 27.7422 39.074 27.7827Z" fill="white" stroke="#1A1A1A" stroke-width="0.6" stroke-miterlimit="10"/>
<path d="M39.5076 27.6772L41.0305 29.7056C41.1593 29.6827 41.3115 29.6422 41.4403 29.6192L39.9174 27.5909C39.7886 27.6138 39.6364 27.6543 39.5076 27.6772Z" fill="white" stroke="#1A1A1A" stroke-width="0.6" stroke-miterlimit="10"/>
<path d="M39.9099 27.5894L41.4328 29.6177C41.5617 29.5948 41.6905 29.5718 41.837 29.5724L40.3141 27.5441C40.1676 27.5434 40.0387 27.5664 39.9099 27.5894Z" fill="white" stroke="#1A1A1A" stroke-width="0.6" stroke-miterlimit="10"/>
<path d="M40.324 27.5483L41.8469 29.5767C41.888 29.5827 41.9113 29.5652 41.9524 29.5713L40.4295 27.5429C40.3884 27.5369 40.3473 27.5308 40.324 27.5483Z" fill="white" stroke="#1A1A1A" stroke-width="0.6" stroke-miterlimit="10"/>
<path d="M27.4955 43.3765L29.0186 45.4053C27.9737 44.0135 27.8163 41.9553 28.8177 39.5435C30.8261 34.6788 36.6996 30.1953 41.9603 29.5654L40.4372 27.5366C35.1942 28.1901 29.303 32.65 27.2945 37.5147C26.2931 39.9265 26.4506 41.9847 27.4955 43.3765Z" stroke="#1A1A1A" stroke-width="0.6" stroke-miterlimit="10"/>
<path d="M47.6444 31.3338L46.1213 29.3051C45.0586 27.8897 43.0794 27.1993 40.4373 27.5229L41.9604 29.5517C44.6026 29.228 46.5818 29.9184 47.6444 31.3338Z" fill="white"/>
<path d="M40.4294 27.5034L41.9524 29.5318C42.0578 29.5264 42.1456 29.4973 42.2511 29.4919L40.7282 27.4636C40.6404 27.4926 40.5349 27.498 40.4294 27.5034Z" fill="white" stroke="#1A1A1A" stroke-width="0.6" stroke-miterlimit="10"/>
<path d="M40.7263 27.4644L42.2492 29.4927C42.3781 29.4698 42.5013 29.4879 42.6301 29.465L41.1072 27.4366C40.9783 27.4596 40.8495 27.4825 40.7263 27.4644Z" fill="white" stroke="#1A1A1A" stroke-width="0.6" stroke-miterlimit="10"/>
<path d="M41.1091 27.4351L42.6321 29.4634C42.7609 29.4405 42.8841 29.4586 42.9895 29.4532L41.4666 27.4248C41.3611 27.4303 41.2323 27.4532 41.1091 27.4351Z" fill="white" stroke="#1A1A1A" stroke-width="0.6" stroke-miterlimit="10"/>
<path d="M41.4841 27.4487L43.0071 29.4771C43.1125 29.4717 43.2591 29.4723 43.3645 29.4669L41.8416 27.4385C41.7184 27.4204 41.613 27.4258 41.4841 27.4487Z" fill="white" stroke="#1A1A1A" stroke-width="0.6" stroke-miterlimit="10"/>
<path d="M41.8396 27.4351L43.3625 29.4634C43.4857 29.4816 43.5912 29.4762 43.7144 29.4943L42.1914 27.466C42.0683 27.4478 41.9451 27.4296 41.8396 27.4351Z" fill="white" stroke="#1A1A1A" stroke-width="0.6" stroke-miterlimit="10"/>
<path d="M42.1951 27.4683L43.718 29.4966C43.8412 29.5148 43.9467 29.5094 44.0698 29.5275L42.5469 27.4992C42.4471 27.4635 42.3239 27.4453 42.1951 27.4683Z" fill="white" stroke="#1A1A1A" stroke-width="0.6" stroke-miterlimit="10"/>
<path d="M42.531 27.4761L44.0539 29.5044C44.1771 29.5226 44.3003 29.5408 44.4058 29.5353L42.8828 27.507C42.7774 27.5124 42.6542 27.4942 42.531 27.4761Z" fill="white" stroke="#1A1A1A" stroke-width="0.6" stroke-miterlimit="10"/>
<path d="M42.8982 27.5288L44.4211 29.5572C44.5443 29.5753 44.6675 29.5935 44.7673 29.6292L43.2444 27.6008C43.1446 27.5651 43.0214 27.547 42.8982 27.5288Z" fill="white" stroke="#1A1A1A" stroke-width="0.6" stroke-miterlimit="10"/>
<path d="M43.2458 27.603L44.7688 29.6314C44.892 29.6495 44.9918 29.6852 45.1327 29.727L43.6098 27.6986C43.4922 27.6394 43.369 27.6212 43.2458 27.603Z" fill="white" stroke="#1A1A1A" stroke-width="0.6" stroke-miterlimit="10"/>
<path d="M43.5857 27.6753L45.1086 29.7036C45.2318 29.7218 45.3494 29.7811 45.4492 29.8168L43.9262 27.7884C43.8264 27.7527 43.7266 27.717 43.5857 27.6753Z" fill="white" stroke="#1A1A1A" stroke-width="0.6" stroke-miterlimit="10"/>
<path d="M43.9529 27.769L45.4758 29.7974C45.6167 29.8391 45.7165 29.8748 45.8341 29.9341L44.3111 27.9058C44.2113 27.8701 44.0704 27.8283 43.9529 27.769Z" fill="white" stroke="#1A1A1A" stroke-width="0.6" stroke-miterlimit="10"/>
<path d="M44.3279 27.9351L45.8508 29.9634C45.9917 30.0052 46.127 30.088 46.2445 30.1473L44.7216 28.1189C44.5863 28.0361 44.4454 27.9943 44.3279 27.9351Z" fill="white" stroke="#1A1A1A" stroke-width="0.6" stroke-miterlimit="10"/>
<path d="M44.7224 28.1187L46.2453 30.147C46.3806 30.2299 46.5158 30.3127 46.6511 30.3956L45.1282 28.3672C44.9929 28.2844 44.8577 28.2015 44.7224 28.1187Z" fill="white" stroke="#1A1A1A" stroke-width="0.6" stroke-miterlimit="10"/>
<path d="M45.1287 28.3667L46.6516 30.3951C46.8223 30.5251 46.9752 30.6315 47.1225 30.7791L45.5996 28.7508C45.4523 28.6032 45.2993 28.4967 45.1287 28.3667Z" fill="white" stroke="#1A1A1A" stroke-width="0.6" stroke-miterlimit="10"/>
<path d="M45.6013 28.7476L47.1243 30.7759C47.3126 30.9295 47.472 31.1418 47.6137 31.3305L46.0907 29.3021C45.9724 29.0959 45.7897 28.9012 45.6013 28.7476Z" fill="white" stroke="#1A1A1A" stroke-width="0.6" stroke-miterlimit="10"/>
<path d="M47.6444 31.3338L46.1213 29.3051C45.0586 27.8897 43.0794 27.1993 40.4373 27.5229L41.9604 29.5517C44.6026 29.228 46.5818 29.9184 47.6444 31.3338Z" stroke="#1A1A1A" stroke-width="0.6" stroke-miterlimit="10"/>
<path d="M27.2852 43.5405L28.8083 45.5693C29.8887 47.0082 31.9267 47.7283 34.6099 47.4107L33.0867 45.382C30.3858 45.676 28.3889 44.962 27.2852 43.5405Z" fill="white"/>
<path d="M27.2852 43.5405L28.8083 45.5693C29.8887 47.0082 31.9267 47.7283 34.6099 47.4107L33.0867 45.382C30.3858 45.676 28.3889 44.962 27.2852 43.5405Z" fill="white" stroke="#1A1A1A" stroke-width="0.6" stroke-miterlimit="10"/>
<path d="M47.8529 31.1963L46.3298 29.1676C47.3924 30.583 47.5442 32.6823 46.5549 35.1588C44.5118 40.1233 38.4982 44.712 33.1319 45.3473L34.655 47.3761C40.0036 46.7172 46.0349 42.152 48.078 37.1876C49.0673 34.7111 48.9155 32.6118 47.8529 31.1963Z" fill="#1A1A1A" stroke="#1A1A1A" stroke-width="0.6"/>
<path d="M47.8529 31.1963L46.3298 29.1676C47.3924 30.583 47.5442 32.6823 46.5549 35.1588C44.5118 40.1233 38.4982 44.712 33.1319 45.3473L34.655 47.3761C40.0036 46.7172 46.0349 42.152 48.078 37.1876C49.0673 34.7111 48.9155 32.6118 47.8529 31.1963Z" stroke="#1A1A1A" stroke-width="0.6" stroke-miterlimit="10"/>
<path d="M46.5169 35.1565C48.56 30.192 45.8567 26.6885 40.5081 27.3474C35.1595 28.0062 29.1282 32.5714 27.0851 37.5359C25.042 42.5003 27.7453 46.0038 33.0939 45.345C38.4602 44.7097 44.4738 40.1209 46.5169 35.1565Z" fill="white" stroke="#1A1A1A" stroke-width="0.6" stroke-miterlimit="10"/>
<path d="M44.3893 35.0518C46.0505 31.0381 43.8664 28.1776 39.5196 28.7114C35.1728 29.2453 30.3092 32.9337 28.6657 36.9711C27.0045 40.9849 29.1886 43.8453 33.5354 43.3115C37.8822 42.7776 42.7458 39.0892 44.3893 35.0518Z" fill="white" stroke="#1A1A1A" stroke-width="0.6" stroke-miterlimit="10"/>
<path d="M18.7552 25.2147L16.8413 26.8799C18.1543 25.7375 20.1958 25.4323 22.6734 26.2574C27.67 27.9103 32.5648 33.4457 33.5719 38.6475L35.4857 36.9822C34.4564 31.7998 29.5838 26.245 24.5872 24.5921C22.1096 23.767 20.0681 24.0722 18.7552 25.2147Z" fill="white"/>
<path d="M18.7476 25.2029L16.8341 26.8679C17.3236 26.442 17.9312 26.1068 18.6507 25.9453L20.5641 24.2802C19.8638 24.4639 19.2593 24.7576 18.7476 25.2029Z" fill="white" stroke="#1A1A1A" stroke-width="0.6" stroke-miterlimit="10"/>
<path d="M20.5656 24.2833L18.6523 25.9482C18.8434 25.8983 19.076 25.8511 19.2863 25.8233L21.1996 24.1584C20.9893 24.1862 20.7567 24.2334 20.5656 24.2833Z" fill="white" stroke="#1A1A1A" stroke-width="0.6" stroke-miterlimit="10"/>
<path d="M21.1963 24.1534L19.283 25.8182C19.4519 25.7877 19.6177 25.7986 19.7866 25.768L21.6999 24.1031C21.531 24.1337 21.3652 24.1228 21.1963 24.1534Z" fill="white" stroke="#1A1A1A" stroke-width="0.6" stroke-miterlimit="10"/>
<path d="M21.7213 24.1244L19.808 25.7893C19.9546 25.7781 20.1205 25.789 20.2671 25.7778L22.1804 24.1129C22.0146 24.102 21.8679 24.1132 21.7213 24.1244Z" fill="white" stroke="#1A1A1A" stroke-width="0.6" stroke-miterlimit="10"/>
<path d="M22.1772 24.1148L20.2639 25.7797C20.4105 25.7684 20.5541 25.7987 20.7199 25.8096L22.6332 24.1447C22.4674 24.1338 22.3015 24.123 22.1772 24.1148Z" fill="white" stroke="#1A1A1A" stroke-width="0.6" stroke-miterlimit="10"/>
<path d="M22.6123 24.162L20.699 25.8269C20.8234 25.835 20.967 25.8653 21.1105 25.8955L23.0238 24.2306C22.8833 24.159 22.7589 24.1508 22.6123 24.162Z" fill="white" stroke="#1A1A1A" stroke-width="0.6" stroke-miterlimit="10"/>
<path d="M23.0302 24.1913L21.117 25.8562C21.2414 25.8643 21.3849 25.8945 21.5285 25.9248L23.4418 24.2599C23.2759 24.2491 23.1738 24.2215 23.0302 24.1913Z" fill="white" stroke="#1A1A1A" stroke-width="0.6" stroke-miterlimit="10"/>
<path d="M23.4197 24.2755L21.5064 25.9403C21.65 25.9705 21.7521 25.9981 21.8957 26.0283L23.809 24.3634C23.6876 24.3139 23.544 24.2836 23.4197 24.2755Z" fill="white" stroke="#1A1A1A" stroke-width="0.6" stroke-miterlimit="10"/>
<path d="M23.8052 24.3616L21.892 26.0264C22.0355 26.0566 22.1377 26.0842 22.259 26.1338L24.1722 24.4689C24.0509 24.4193 23.9296 24.3697 23.8052 24.3616Z" fill="white" stroke="#1A1A1A" stroke-width="0.6" stroke-miterlimit="10"/>
<path d="M24.1958 24.4553L22.2826 26.1201C22.404 26.1697 22.5475 26.2 22.6689 26.2495L24.5821 24.5847C24.4415 24.5131 24.3172 24.5049 24.1958 24.4553Z" fill="white" stroke="#1A1A1A" stroke-width="0.6" stroke-miterlimit="10"/>
<path d="M24.5579 24.559L22.6447 26.2238L22.6639 26.2459C22.7853 26.2955 22.8874 26.323 23.0087 26.3726L24.9219 24.7078C24.8228 24.6388 24.7207 24.6113 24.5579 24.559C24.5707 24.5737 24.5707 24.5737 24.5579 24.559Z" fill="white"/>
<path d="M24.5579 24.559L22.6447 26.2238L22.6639 26.2459C22.7853 26.2955 22.8874 26.323 23.0087 26.3726L24.9219 24.7078C24.8228 24.6388 24.7207 24.6113 24.5579 24.559C24.5707 24.5737 24.5707 24.5737 24.5579 24.559" stroke="#1A1A1A" stroke-width="0.6" stroke-miterlimit="10"/>
<path d="M24.9486 24.6879L23.0353 26.3527C23.1567 26.4023 23.278 26.4519 23.3993 26.5015L25.3125 24.8367C25.1912 24.7871 25.0699 24.7375 24.9486 24.6879Z" fill="white" stroke="#1A1A1A" stroke-width="0.6" stroke-miterlimit="10"/>
<path d="M25.3079 24.8344L23.3947 26.4992C23.516 26.5488 23.6374 26.5984 23.7587 26.648L25.6719 24.9832C25.5698 24.9557 25.4293 24.884 25.3079 24.8344Z" fill="white" stroke="#1A1A1A" stroke-width="0.6" stroke-miterlimit="10"/>
<path d="M25.6946 25.0043L23.7815 26.6691C23.9028 26.7187 24.0241 26.7683 24.1647 26.8399L26.0778 25.1752C25.9373 25.1035 25.816 25.0539 25.6946 25.0043Z" fill="white" stroke="#1A1A1A" stroke-width="0.6" stroke-miterlimit="10"/>
<path d="M26.0567 25.1549L24.1436 26.8197C24.2649 26.8692 24.4054 26.9409 24.5045 27.0099L26.4177 25.3451C26.2964 25.2955 26.1973 25.2266 26.0567 25.1549Z" fill="white" stroke="#1A1A1A" stroke-width="0.6" stroke-miterlimit="10"/>
<path d="M26.4317 25.3639L24.5186 27.0286C24.6399 27.0782 24.7582 27.1692 24.8988 27.2409L26.8119 25.5762C26.6936 25.4851 26.5531 25.4135 26.4317 25.3639Z" fill="white" stroke="#1A1A1A" stroke-width="0.6" stroke-miterlimit="10"/>
<path d="M26.7911 25.5592L24.878 27.2239C25.0185 27.2956 25.1176 27.3645 25.2581 27.4362L27.1713 25.7715C27.0499 25.7219 26.9316 25.6309 26.7911 25.5592Z" fill="white" stroke="#1A1A1A" stroke-width="0.6" stroke-miterlimit="10"/>
<path d="M27.2013 25.7916L25.2882 27.4563C25.4287 27.528 25.547 27.619 25.6875 27.6906L27.6006 26.026C27.4409 25.9322 27.3226 25.8412 27.2013 25.7916Z" fill="white" stroke="#1A1A1A" stroke-width="0.6" stroke-miterlimit="10"/>
<path d="M27.5751 26.0027L25.662 27.6674C25.7803 27.7584 25.9208 27.8301 26.0391 27.9211L27.9522 26.2564C27.8117 26.1848 27.6934 26.0937 27.5751 26.0027Z" fill="white" stroke="#1A1A1A" stroke-width="0.6" stroke-miterlimit="10"/>
<path d="M27.9501 26.2547L26.037 27.9194C26.1553 28.0104 26.2958 28.082 26.4141 28.1731L28.3272 26.5084C28.1867 26.4367 28.0684 26.3457 27.9501 26.2547Z" fill="white" stroke="#1A1A1A" stroke-width="0.6" stroke-miterlimit="10"/>
<path d="M28.3278 26.5088L26.4147 28.1734C26.533 28.2645 26.6513 28.3555 26.7696 28.4465L28.6826 26.7818C28.5644 26.6908 28.4461 26.5998 28.3278 26.5088Z" fill="white" stroke="#1A1A1A" stroke-width="0.6" stroke-miterlimit="10"/>
<path d="M28.6794 26.7802L26.7663 28.4449C26.8846 28.5359 27.0028 28.627 27.1211 28.718L29.0342 27.0533C28.9159 26.9623 28.7976 26.8713 28.6794 26.7802Z" fill="white" stroke="#1A1A1A" stroke-width="0.6" stroke-miterlimit="10"/>
<path d="M29.0348 27.0517L27.1217 28.7164C27.24 28.8074 27.3583 28.8984 27.4766 28.9895L29.3897 27.3248C29.2714 27.2338 29.1531 27.1427 29.0348 27.0517Z" fill="white" stroke="#1A1A1A" stroke-width="0.6" stroke-miterlimit="10"/>
<path d="M29.3696 27.341L27.4565 29.0056C27.5748 29.0967 27.6931 29.1877 27.7891 29.2981L29.7022 27.6334C29.6061 27.523 29.4879 27.432 29.3696 27.341Z" fill="white" stroke="#1A1A1A" stroke-width="0.6" stroke-miterlimit="10"/>
<path d="M29.7055 27.5929L27.7924 29.2576C27.9107 29.3486 28.0068 29.459 28.125 29.55L30.0381 27.8853C29.9198 27.7943 29.8015 27.7033 29.7055 27.5929Z" fill="white" stroke="#1A1A1A" stroke-width="0.6" stroke-miterlimit="10"/>
<path d="M30.0141 27.9054L28.101 29.5701C28.2193 29.6611 28.3154 29.7715 28.4336 29.8625L30.3467 28.1978C30.2284 28.1068 30.1324 27.9964 30.0141 27.9054Z" fill="white" stroke="#1A1A1A" stroke-width="0.6" stroke-miterlimit="10"/>
<path d="M30.3449 28.1986L28.4315 29.8636C28.5687 29.9764 28.6646 30.0865 28.7796 30.2187L30.693 28.5537C30.578 28.4215 30.4599 28.3307 30.3449 28.1986Z" fill="white" stroke="#1A1A1A" stroke-width="0.6" stroke-miterlimit="10"/>
<path d="M30.6926 28.5482L28.7791 30.2132C28.8941 30.3453 29.0506 30.4802 29.1656 30.6124L31.079 28.9474C30.9449 28.7932 30.8298 28.661 30.6926 28.5482Z" fill="white" stroke="#1A1A1A" stroke-width="0.6" stroke-miterlimit="10"/>
<path d="M31.0832 28.9505L29.1698 30.6155C29.3614 30.8358 29.5562 31.0147 29.7479 31.235L31.6613 29.57C31.4697 29.3497 31.278 29.1294 31.0832 28.9505Z" fill="white" stroke="#1A1A1A" stroke-width="0.6" stroke-miterlimit="10"/>
<path d="M31.6406 29.5522L29.7272 31.2172C29.9763 31.5036 30.2447 31.812 30.4716 32.1177L32.3851 30.4528C32.1359 30.1664 31.909 29.8606 31.6406 29.5522Z" fill="white" stroke="#1A1A1A" stroke-width="0.6" stroke-miterlimit="10"/>
<path d="M32.3594 30.4722L30.4459 32.1372C30.6153 32.3768 30.8262 32.6191 30.9734 32.8781L32.8868 31.2131C32.7396 30.9541 32.5702 30.7145 32.3594 30.4722Z" fill="white" stroke="#1A1A1A" stroke-width="0.6" stroke-miterlimit="10"/>
<path d="M32.9141 31.1909L31.0006 32.8559C31.1125 33.0295 31.2245 33.203 31.3364 33.3766L33.2498 31.7116C33.1379 31.538 33.026 31.3645 32.9141 31.1909Z" fill="white" stroke="#1A1A1A" stroke-width="0.6" stroke-miterlimit="10"/>
<path d="M33.2461 31.7104L31.3326 33.3755C31.4254 33.527 31.499 33.6565 31.5917 33.808L33.5052 32.143C33.4347 31.9721 33.3611 31.8426 33.2461 31.7104Z" fill="white" stroke="#1A1A1A" stroke-width="0.6" stroke-miterlimit="10"/>
<path d="M33.5234 32.1245L31.61 33.7895C31.7027 33.9411 31.7763 34.0706 31.8691 34.2221L33.7825 32.5571C33.6898 32.4055 33.6162 32.276 33.5234 32.1245Z" fill="white" stroke="#1A1A1A" stroke-width="0.6" stroke-miterlimit="10"/>
<path d="M33.7891 32.5601L31.876 34.2247C31.9498 34.3544 32.0428 34.5062 32.1166 34.636L34.0297 32.9713C33.9559 32.8416 33.8629 32.6898 33.7891 32.5601Z" fill="white" stroke="#1A1A1A" stroke-width="0.6" stroke-miterlimit="10"/>
<path d="M34.0039 32.9839L32.0908 34.6485C32.1646 34.7783 32.2354 34.9494 32.3092 35.0792L34.2222 33.4145C34.1707 33.2654 34.0777 33.1136 34.0039 32.9839Z" fill="white" stroke="#1A1A1A" stroke-width="0.6" stroke-miterlimit="10"/>
<path d="M34.2422 33.394L32.3291 35.0587C32.4029 35.1884 32.4737 35.3596 32.5475 35.4893L34.4605 33.8247C34.3867 33.6949 34.3129 33.5652 34.2422 33.394Z" fill="white" stroke="#1A1A1A" stroke-width="0.6" stroke-miterlimit="10"/>
<path d="M34.4414 33.8452L32.5283 35.5099C32.5799 35.659 32.6729 35.8108 32.7244 35.9599L34.6375 34.2952C34.5859 34.1461 34.5344 33.997 34.4414 33.8452Z" fill="white" stroke="#1A1A1A" stroke-width="0.6" stroke-miterlimit="10"/>
<path d="M34.6523 34.3237L32.7393 35.9884C32.7908 36.1375 32.8838 36.2893 32.9354 36.4384L34.8484 34.7737C34.7777 34.6025 34.7261 34.4535 34.6523 34.3237Z" fill="white" stroke="#1A1A1A" stroke-width="0.6" stroke-miterlimit="10"/>
<path d="M34.8359 34.7437L32.9228 36.4084C32.9744 36.5574 33.0259 36.7065 33.0775 36.8556L34.9906 35.1909C34.9582 35.0639 34.9067 34.9148 34.8359 34.7437Z" fill="white" stroke="#1A1A1A" stroke-width="0.6" stroke-miterlimit="10"/>
<path d="M35 35.2144L33.0869 36.8791C33.1384 37.0282 33.19 37.1773 33.2223 37.3043L35.1354 35.6396C35.1061 35.4711 35.0738 35.3441 35 35.2144Z" fill="white" stroke="#1A1A1A" stroke-width="0.6" stroke-miterlimit="10"/>
<path d="M35.1406 35.6401L33.2275 37.3049C33.279 37.454 33.3114 37.581 33.3629 37.7301L35.2761 36.0653C35.2245 35.9162 35.1922 35.7892 35.1406 35.6401Z" fill="white" stroke="#1A1A1A" stroke-width="0.6" stroke-miterlimit="10"/>
<path d="M35.2734 36.0659L33.3603 37.7307C33.3926 37.8577 33.4442 38.0068 33.4765 38.1338L35.3897 36.4691C35.3573 36.342 35.3058 36.1929 35.2734 36.0659Z" fill="white" stroke="#1A1A1A" stroke-width="0.6" stroke-miterlimit="10"/>
<path d="M35.3945 36.4604L33.4813 38.1252C33.5137 38.2523 33.546 38.3793 33.5561 38.5257L35.4693 36.8609C35.4592 36.7145 35.4269 36.5875 35.3945 36.4604Z" fill="white" stroke="#1A1A1A" stroke-width="0.6" stroke-miterlimit="10"/>
<path d="M35.4648 36.8706L33.5514 38.5356C33.5483 38.577 33.5675 38.599 33.5644 38.6404L35.4778 36.9754C35.4809 36.934 35.484 36.8926 35.4648 36.8706Z" fill="white" stroke="#1A1A1A" stroke-width="0.6" stroke-miterlimit="10"/>
<path d="M18.7552 25.2147L16.8413 26.8799C18.1543 25.7375 20.1958 25.4323 22.6734 26.2574C27.67 27.9103 32.5648 33.4457 33.5719 38.6475L35.4857 36.9822C34.4564 31.7998 29.5838 26.245 24.5872 24.5921C22.1096 23.767 20.0681 24.0722 18.7552 25.2147Z" stroke="#1A1A1A" stroke-width="0.6" stroke-miterlimit="10"/>
<path d="M32.2024 44.4643L34.1162 42.799C35.4514 41.6372 35.9975 39.6134 35.4844 37.0015L33.5706 38.6667C34.0837 41.2787 33.5376 43.3024 32.2024 44.4643Z" fill="white"/>
<path d="M35.5039 36.9897L33.5905 38.6548C33.6035 38.7596 33.6387 38.845 33.6517 38.9498L35.5652 37.2848C35.5299 37.1994 35.5169 37.0946 35.5039 36.9897Z" fill="white" stroke="#1A1A1A" stroke-width="0.6" stroke-miterlimit="10"/>
<path d="M35.5664 37.2866L33.6532 38.9515C33.6855 39.0785 33.6764 39.2028 33.7087 39.3298L35.622 37.665C35.5896 37.538 35.5573 37.4109 35.5664 37.2866Z" fill="white" stroke="#1A1A1A" stroke-width="0.6" stroke-miterlimit="10"/>
<path d="M35.6211 37.6655L33.7078 39.3304C33.7402 39.4574 33.731 39.5817 33.7442 39.6867L35.6575 38.0218C35.6443 37.9169 35.612 37.7898 35.6211 37.6655Z" fill="white" stroke="#1A1A1A" stroke-width="0.6" stroke-miterlimit="10"/>
<path d="M35.6328 38.0405L33.7195 39.7054C33.7327 39.8103 33.7428 39.9567 33.7559 40.0617L35.6692 38.3968C35.6783 38.2725 35.6652 38.1676 35.6328 38.0405Z" fill="white" stroke="#1A1A1A" stroke-width="0.6" stroke-miterlimit="10"/>
<path d="M35.6719 38.3901L33.7584 40.0551C33.7492 40.1793 33.7622 40.2841 33.7529 40.4083L35.6664 38.7433C35.6756 38.6191 35.6849 38.4949 35.6719 38.3901Z" fill="white" stroke="#1A1A1A" stroke-width="0.6" stroke-miterlimit="10"/>
<path d="M35.6641 38.7476L33.7506 40.4126C33.7414 40.5367 33.7544 40.6415 33.7451 40.7657L35.6586 39.1007C35.687 38.9986 35.6962 38.8744 35.6641 38.7476Z" fill="white" stroke="#1A1A1A" stroke-width="0.6" stroke-miterlimit="10"/>
<path d="M35.6836 39.0835L33.7702 40.7485C33.7609 40.8727 33.7517 40.9968 33.7647 41.1016L35.6781 39.4366C35.6651 39.3318 35.6743 39.2077 35.6836 39.0835Z" fill="white" stroke="#1A1A1A" stroke-width="0.6" stroke-miterlimit="10"/>
<path d="M35.6562 39.4546L33.7428 41.1196C33.7336 41.2438 33.7243 41.3679 33.6959 41.4701L35.6093 39.8051C35.6378 39.7029 35.647 39.5788 35.6562 39.4546Z" fill="white" stroke="#1A1A1A" stroke-width="0.6" stroke-miterlimit="10"/>
<path d="M35.6094 39.8042L33.6959 41.4692C33.6867 41.5934 33.6583 41.6955 33.6268 41.839L35.5402 40.174C35.5909 40.0525 35.6001 39.9284 35.6094 39.8042Z" fill="white" stroke="#1A1A1A" stroke-width="0.6" stroke-miterlimit="10"/>
<path d="M35.5586 40.1499L33.6451 41.8149C33.6359 41.9391 33.5852 42.0606 33.5568 42.1627L35.4703 40.4977C35.4987 40.3956 35.5271 40.2934 35.5586 40.1499Z" fill="white" stroke="#1A1A1A" stroke-width="0.6" stroke-miterlimit="10"/>
<path d="M35.4922 40.5249L33.5787 42.1899C33.5472 42.3334 33.5188 42.4356 33.4682 42.5571L35.3816 40.8921C35.41 40.7899 35.4415 40.6464 35.4922 40.5249Z" fill="white" stroke="#1A1A1A" stroke-width="0.6" stroke-miterlimit="10"/>
<path d="M35.3555 40.9097L33.442 42.5747C33.4105 42.7182 33.3376 42.8591 33.287 42.9806L35.2004 41.3156C35.2733 41.1747 35.3048 41.0312 35.3555 40.9097Z" fill="white" stroke="#1A1A1A" stroke-width="0.6" stroke-miterlimit="10"/>
<path d="M35.1992 41.3179L33.2858 42.9829C33.2129 43.1237 33.1399 43.2646 33.067 43.4055L34.9805 41.7405C35.0534 41.5996 35.1263 41.4587 35.1992 41.3179Z" fill="white" stroke="#1A1A1A" stroke-width="0.6" stroke-miterlimit="10"/>
<path d="M34.9805 41.7378L33.067 43.4028C32.9496 43.5824 32.8545 43.7426 32.7179 43.9002L34.6313 42.2351C34.7679 42.0776 34.8631 41.9174 34.9805 41.7378Z" fill="white" stroke="#1A1A1A" stroke-width="0.6" stroke-miterlimit="10"/>
<path d="M34.6328 42.2378L32.7194 43.9028C32.5797 44.1018 32.3795 44.276 32.2015 44.4309L34.1149 42.7659C34.3121 42.633 34.4932 42.4367 34.6328 42.2378Z" fill="white" stroke="#1A1A1A" stroke-width="0.6" stroke-miterlimit="10"/>
<path d="M32.2024 44.4643L34.1162 42.799C35.4514 41.6372 35.9975 39.6134 35.4844 37.0015L33.5706 38.6667C34.0837 41.2787 33.5376 43.3024 32.2024 44.4643Z" stroke="#1A1A1A" stroke-width="0.6" stroke-miterlimit="10"/>
<path d="M18.5781 25.0171L16.6643 26.6824C15.3069 27.8636 14.7354 29.9481 15.2454 32.6014L17.1592 30.9361C16.6715 28.2634 17.2398 26.2203 18.5781 25.0171Z" fill="white"/>
<path d="M18.5781 25.0171L16.6643 26.6824C15.3069 27.8636 14.7354 29.9481 15.2454 32.6014L17.1592 30.9361C16.6715 28.2634 17.2398 26.2203 18.5781 25.0171Z" fill="white" stroke="#1A1A1A" stroke-width="0.6" stroke-miterlimit="10"/>
<path d="M32.3678 44.6426L34.2816 42.9773C32.9464 44.1391 30.8635 44.4417 28.3222 43.6333C23.2236 41.953 18.2137 36.2854 17.1937 30.9788L15.2798 32.6441C16.3222 37.9313 21.3098 43.6183 26.4084 45.2985C28.9497 46.107 31.0326 45.8044 32.3678 44.6426Z" fill="#1A1A1A" stroke="#1A1A1A" stroke-width="0.6"/>
<path d="M32.3678 44.6426L34.2816 42.9773C32.9464 44.1391 30.8635 44.4417 28.3222 43.6333C23.2236 41.953 18.2137 36.2854 17.1937 30.9788L15.2798 32.6441C16.3222 37.9313 21.3098 43.6183 26.4084 45.2985C28.9497 46.107 31.0326 45.8044 32.3678 44.6426Z" stroke="#1A1A1A" stroke-width="0.6" stroke-miterlimit="10"/>
<path d="M28.3267 43.5983C33.4253 45.2786 36.725 42.33 35.6827 37.0428C34.6404 31.7555 29.6528 26.0685 24.5542 24.3883C19.4556 22.708 16.1559 25.6566 17.1982 30.9438C18.2182 36.2504 23.228 41.918 28.3267 43.5983Z" fill="white" stroke="#1A1A1A" stroke-width="0.6" stroke-miterlimit="10"/>
<path d="M28.2748 41.4648C32.3977 42.8327 35.0935 40.4483 34.248 36.1512C33.4025 31.8541 29.3735 27.2688 25.2283 25.9203C21.1054 24.5524 18.4096 26.9368 19.2551 31.2339C20.1005 35.531 24.1296 40.1163 28.2748 41.4648Z" fill="white" stroke="#1A1A1A" stroke-width="0.6" stroke-miterlimit="10"/>
<path d="M30.3603 42.1103L30.5046 42.1895L30.6489 42.1103L56.7092 27.8172L56.7092 45.1391L30.5046 59.7431L4.3 45.1391L4.3 27.8172L30.3603 42.1103Z" fill="white" stroke="black" stroke-width="0.6"/>
<path d="M30.5039 42.1543L30.5039 59.6473" stroke="black" stroke-width="0.6" stroke-linecap="round"/>
<path d="M21.1793 7.51639L19.0666 10.1608C20.516 8.34661 23.1222 7.45664 26.5717 7.9457C33.5258 8.9174 41.277 15.0093 43.8456 21.5952L45.9583 18.9508C43.3651 12.3956 35.6385 6.27297 28.6844 5.30127C25.2348 4.81221 22.6286 5.70219 21.1793 7.51639Z" fill="white"/>
<path d="M21.1632 7.51046L19.0508 10.1543C19.5912 9.47799 20.3083 8.89249 21.2139 8.50795L23.3263 5.86406C22.4511 6.27292 21.7281 6.80337 21.1632 7.51046Z" fill="white" stroke="#1A1A1A" stroke-width="0.6" stroke-miterlimit="10"/>
<path d="M23.3304 5.86878L21.2181 8.51266C21.4568 8.40116 21.7505 8.28323 22.0196 8.19604L24.1319 5.55215C23.8628 5.63934 23.5691 5.75727 23.3304 5.86878Z" fill="white" stroke="#1A1A1A" stroke-width="0.6" stroke-miterlimit="10"/>
<path d="M24.129 5.54319L22.0167 8.18707C22.2308 8.10631 22.4508 8.0806 22.665 7.99983L24.7773 5.35596C24.5632 5.43672 24.3432 5.46243 24.129 5.54319Z" fill="white" stroke="#1A1A1A" stroke-width="0.6" stroke-miterlimit="10"/>
<path d="M24.811 5.3821L22.6986 8.02598C22.8882 7.97595 23.1082 7.95026 23.2978 7.90023L25.4101 5.25635C25.1901 5.28205 25.0005 5.33208 24.811 5.3821Z" fill="white" stroke="#1A1A1A" stroke-width="0.6" stroke-miterlimit="10"/>
<path d="M25.4058 5.25761L23.2935 7.90149C23.4831 7.85147 23.6785 7.85651 23.8985 7.8308L26.0109 5.18692C25.7908 5.21262 25.5708 5.23833 25.4058 5.25761Z" fill="white" stroke="#1A1A1A" stroke-width="0.6" stroke-miterlimit="10"/>
<path d="M25.9901 5.2176L23.8778 7.86149C24.0428 7.84221 24.2382 7.84725 24.4337 7.85229L26.546 5.2084C26.3447 5.14831 26.1797 5.16758 25.9901 5.2176Z" fill="white" stroke="#1A1A1A" stroke-width="0.6" stroke-miterlimit="10"/>
<path d="M26.5448 5.15315L24.4325 7.79703C24.5975 7.77776 24.7929 7.7828 24.9884 7.78784L27.1007 5.14395C26.8807 5.16965 26.7403 5.15819 26.5448 5.15315Z" fill="white" stroke="#1A1A1A" stroke-width="0.6" stroke-miterlimit="10"/>
<path d="M27.0733 5.17319L24.9609 7.81707C25.1564 7.82211 25.2968 7.83357 25.4923 7.83861L27.6046 5.19472C27.4337 5.15894 27.2383 5.15392 27.0733 5.17319Z" fill="white" stroke="#1A1A1A" stroke-width="0.6" stroke-miterlimit="10"/>
<path d="M27.6018 5.19127L25.4894 7.83515C25.6849 7.84019 25.8253 7.85165 25.9962 7.88744L28.1085 5.24356C27.9376 5.20778 27.7668 5.17199 27.6018 5.19127Z" fill="white" stroke="#1A1A1A" stroke-width="0.6" stroke-miterlimit="10"/>
<path d="M28.1369 5.22448L26.0246 7.86837C26.1954 7.90415 26.3909 7.90919 26.5618 7.94497L28.6741 5.30108C28.4728 5.24098 28.3078 5.26026 28.1369 5.22448Z" fill="white" stroke="#1A1A1A" stroke-width="0.6" stroke-miterlimit="10"/>
<path d="M28.638 5.27577L26.5257 7.91965L26.5561 7.94397C26.727 7.97975 26.8675 7.99122 27.0383 8.027L29.1507 5.38311C29.0044 5.31659 28.8639 5.30512 28.638 5.27577C28.6583 5.29198 28.6583 5.29198 28.638 5.27577Z" fill="white"/>
<path d="M28.638 5.27577L26.5257 7.91965L26.5561 7.94397C26.727 7.97975 26.8675 7.99122 27.0383 8.027L29.1507 5.38311C29.0044 5.31659 28.8639 5.30512 28.638 5.27577C28.6583 5.29198 28.6583 5.29198 28.638 5.27577" stroke="#1A1A1A" stroke-width="0.6" stroke-miterlimit="10"/>
<path d="M29.181 5.35194L27.0687 7.99582C27.2395 8.0316 27.4104 8.06738 27.5813 8.10316L29.6936 5.45928C29.5227 5.4235 29.3519 5.38772 29.181 5.35194Z" fill="white" stroke="#1A1A1A" stroke-width="0.6" stroke-miterlimit="10"/>
<path d="M29.6849 5.4535L27.5726 8.09739C27.7434 8.13317 27.9143 8.16895 28.0852 8.20473L30.1975 5.56085C30.0571 5.54938 29.8558 5.48928 29.6849 5.4535Z" fill="white" stroke="#1A1A1A" stroke-width="0.6" stroke-miterlimit="10"/>
<path d="M30.2357 5.58436L28.1233 8.22825C28.2942 8.26403 28.4651 8.29981 28.6664 8.3599L30.7788 5.71602C30.5774 5.65592 30.4066 5.62014 30.2357 5.58436Z" fill="white" stroke="#1A1A1A" stroke-width="0.6" stroke-miterlimit="10"/>
<path d="M30.7446 5.69424L28.6323 8.33813C28.8032 8.37391 29.0045 8.43401 29.1508 8.50054L31.2631 5.85665C31.0923 5.82087 30.9459 5.75434 30.7446 5.69424Z" fill="white" stroke="#1A1A1A" stroke-width="0.6" stroke-miterlimit="10"/>
<path d="M31.2954 5.87979L29.1831 8.52368C29.3539 8.55946 29.5307 8.65031 29.732 8.7104L31.8444 6.06651C31.6676 5.97567 31.4663 5.91557 31.2954 5.87979Z" fill="white" stroke="#1A1A1A" stroke-width="0.6" stroke-miterlimit="10"/>
<path d="M31.811 6.04971L29.6987 8.6936C29.9 8.7537 30.0463 8.82022 30.2476 8.88032L32.36 6.23643C32.1891 6.20065 32.0123 6.10981 31.811 6.04971Z" fill="white" stroke="#1A1A1A" stroke-width="0.6" stroke-miterlimit="10"/>
<path d="M32.4009 6.25869L30.2885 8.90258C30.4899 8.96268 30.6666 9.05352 30.8679 9.11362L32.9803 6.46973C32.7485 6.38532 32.5717 6.29448 32.4009 6.25869Z" fill="white" stroke="#1A1A1A" stroke-width="0.6" stroke-miterlimit="10"/>
<path d="M32.9411 6.44475L30.8287 9.08864C31.0055 9.17948 31.2068 9.23958 31.3836 9.33042L33.4959 6.68653C33.2946 6.62643 33.1178 6.53559 32.9411 6.44475Z" fill="white" stroke="#1A1A1A" stroke-width="0.6" stroke-miterlimit="10"/>
<path d="M33.4957 6.68303L31.3834 9.32692C31.5602 9.41776 31.7615 9.47786 31.9382 9.5687L34.0506 6.92481C33.8493 6.86471 33.6725 6.77387 33.4957 6.68303Z" fill="white" stroke="#1A1A1A" stroke-width="0.6" stroke-miterlimit="10"/>
<path d="M34.0555 6.92378L31.9431 9.56767C32.1199 9.65851 32.2966 9.74934 32.4734 9.84018L34.5857 7.19629C34.409 7.10545 34.2322 7.01462 34.0555 6.92378Z" fill="white" stroke="#1A1A1A" stroke-width="0.6" stroke-miterlimit="10"/>
<path d="M34.575 7.19721L32.4627 9.8411C32.6394 9.93194 32.8162 10.0228 32.9929 10.1136L35.1053 7.46973C34.9285 7.37889 34.7518 7.28805 34.575 7.19721Z" fill="white" stroke="#1A1A1A" stroke-width="0.6" stroke-miterlimit="10"/>
<path d="M35.1102 7.47064L32.9978 10.1145C33.1746 10.2054 33.3513 10.2962 33.5281 10.3871L35.6404 7.74317C35.4637 7.65233 35.2869 7.56148 35.1102 7.47064Z" fill="white" stroke="#1A1A1A" stroke-width="0.6" stroke-miterlimit="10"/>
<path d="M35.6191 7.76998L33.5068 10.4139C33.6835 10.5047 33.8603 10.5956 34.0125 10.7171L36.1248 8.07325C35.9726 7.95166 35.7958 7.86082 35.6191 7.76998Z" fill="white" stroke="#1A1A1A" stroke-width="0.6" stroke-miterlimit="10"/>
<path d="M36.1191 8.01999L34.0068 10.6639C34.1835 10.7547 34.3357 10.8763 34.5125 10.9671L36.6248 8.32325C36.448 8.23241 36.2713 8.14157 36.1191 8.01999Z" fill="white" stroke="#1A1A1A" stroke-width="0.6" stroke-miterlimit="10"/>
<path d="M36.5996 8.35787L34.4872 11.0018C34.664 11.0926 34.8162 11.2142 34.9929 11.305L37.1053 8.66114C36.9285 8.5703 36.7763 8.44871 36.5996 8.35787Z" fill="white" stroke="#1A1A1A" stroke-width="0.6" stroke-miterlimit="10"/>
<path d="M37.1085 8.66502L34.9962 11.3089C35.2034 11.4241 35.3556 11.5457 35.5382 11.6916L37.6505 9.04767C37.4679 8.90176 37.2911 8.81092 37.1085 8.66502Z" fill="white" stroke="#1A1A1A" stroke-width="0.6" stroke-miterlimit="10"/>
<path d="M37.6476 9.03612L35.5352 11.68C35.7179 11.8259 35.9555 11.9654 36.1381 12.1113L38.2504 9.46739C38.0374 9.29717 37.8547 9.15127 37.6476 9.03612Z" fill="white" stroke="#1A1A1A" stroke-width="0.6" stroke-miterlimit="10"/>
<path d="M38.2528 9.47166L36.1405 12.1156C36.4448 12.3587 36.7434 12.5468 37.0477 12.79L39.1601 10.1461C38.8557 9.90294 38.5513 9.65977 38.2528 9.47166Z" fill="white" stroke="#1A1A1A" stroke-width="0.6" stroke-miterlimit="10"/>
<path d="M39.125 10.1245L37.0127 12.7684C37.4084 13.0845 37.8345 13.425 38.2057 13.7719L40.318 11.1279C39.9223 10.8118 39.5511 10.4649 39.125 10.1245Z" fill="white" stroke="#1A1A1A" stroke-width="0.6" stroke-miterlimit="10"/>
<path d="M40.293 11.1597L38.1807 13.8036C38.4605 14.0775 38.7953 14.345 39.0506 14.6496L41.1629 12.0057C40.9076 11.7011 40.6278 11.4272 40.293 11.1597Z" fill="white" stroke="#1A1A1A" stroke-width="0.6" stroke-miterlimit="10"/>
<path d="M41.1953 11.9741L39.083 14.618C39.2715 14.819 39.46 15.0199 39.6485 15.2209L41.7608 12.577C41.5723 12.376 41.3838 12.1751 41.1953 11.9741Z" fill="white" stroke="#1A1A1A" stroke-width="0.6" stroke-miterlimit="10"/>
<path d="M41.7542 12.5757L39.6418 15.2196C39.7999 15.3962 39.9275 15.5485 40.0856 15.7252L42.1979 13.0813C42.0644 12.8739 41.9368 12.7216 41.7542 12.5757Z" fill="white" stroke="#1A1A1A" stroke-width="0.6" stroke-miterlimit="10"/>
<path d="M42.219 13.0522L40.1067 15.6961C40.2647 15.8728 40.3924 16.0251 40.5504 16.2018L42.6628 13.5579C42.5047 13.3812 42.3771 13.2289 42.219 13.0522Z" fill="white" stroke="#1A1A1A" stroke-width="0.6" stroke-miterlimit="10"/>
<path d="M42.6721 13.5659L40.5598 16.2098C40.6874 16.3621 40.8455 16.5388 40.9731 16.6911L43.0855 14.0472C42.9578 13.8949 42.7997 13.7182 42.6721 13.5659Z" fill="white" stroke="#1A1A1A" stroke-width="0.6" stroke-miterlimit="10"/>
<path d="M43.0549 14.0659L40.9426 16.7098C41.0702 16.8621 41.2037 17.0695 41.3314 17.2218L43.4437 14.578C43.3406 14.3949 43.1826 14.2182 43.0549 14.0659Z" fill="white" stroke="#1A1A1A" stroke-width="0.6" stroke-miterlimit="10"/>
<path d="M43.4651 14.5464L41.3528 17.1903C41.4804 17.3426 41.6139 17.55 41.7415 17.7023L43.8539 15.0584C43.7262 14.9061 43.5986 14.7538 43.4651 14.5464Z" fill="white" stroke="#1A1A1A" stroke-width="0.6" stroke-miterlimit="10"/>
<path d="M43.8362 15.0894L41.7238 17.7332C41.8269 17.9163 41.985 18.093 42.088 18.276L44.2004 15.6321C44.0973 15.4491 43.9943 15.266 43.8362 15.0894Z" fill="white" stroke="#1A1A1A" stroke-width="0.6" stroke-miterlimit="10"/>
<path d="M44.2268 15.6655L42.1145 18.3094C42.2175 18.4925 42.3756 18.6691 42.4787 18.8522L44.591 16.2083C44.4575 16.0009 44.3544 15.8179 44.2268 15.6655Z" fill="white" stroke="#1A1A1A" stroke-width="0.6" stroke-miterlimit="10"/>
<path d="M44.5667 16.1753L42.4543 18.8192C42.5574 19.0023 42.6605 19.1853 42.7635 19.3684L44.8759 16.7245C44.8032 16.5658 44.7002 16.3827 44.5667 16.1753Z" fill="white" stroke="#1A1A1A" stroke-width="0.6" stroke-miterlimit="10"/>
<path d="M44.8987 16.7534L42.7863 19.3973C42.8894 19.5804 42.9925 19.7634 43.0651 19.9222L45.1774 17.2783C45.0989 17.0645 45.0263 16.9057 44.8987 16.7534Z" fill="white" stroke="#1A1A1A" stroke-width="0.6" stroke-miterlimit="10"/>
<path d="M45.1799 17.2788L43.0676 19.9227C43.1707 20.1058 43.2433 20.2645 43.3464 20.4476L45.4587 17.8037C45.3556 17.6206 45.283 17.4619 45.1799 17.2788Z" fill="white" stroke="#1A1A1A" stroke-width="0.6" stroke-miterlimit="10"/>
<path d="M45.4612 17.8081L43.3488 20.452C43.4215 20.6107 43.5246 20.7938 43.5972 20.9526L45.7095 18.3087C45.6369 18.1499 45.5338 17.9669 45.4612 17.8081Z" fill="white" stroke="#1A1A1A" stroke-width="0.6" stroke-miterlimit="10"/>
<path d="M45.7112 18.2944L43.5989 20.9383C43.6715 21.0971 43.7441 21.2558 43.7922 21.4453L45.9045 18.8014C45.8564 18.6119 45.7838 18.4532 45.7112 18.2944Z" fill="white" stroke="#1A1A1A" stroke-width="0.6" stroke-miterlimit="10"/>
<path d="M45.9065 18.8179L43.7941 21.4617C43.8 21.5168 43.8305 21.5411 43.8363 21.5962L45.9487 18.9523C45.9428 18.8973 45.9369 18.8422 45.9065 18.8179Z" fill="white" stroke="#1A1A1A" stroke-width="0.6" stroke-miterlimit="10"/>
<path d="M21.1793 7.51639L19.0666 10.1608C20.516 8.34661 23.1222 7.45664 26.5717 7.9457C33.5258 8.9174 41.277 15.0093 43.8456 21.5952L45.9583 18.9508C43.3651 12.3956 35.6385 6.27297 28.6844 5.30127C25.2348 4.81221 22.6286 5.70219 21.1793 7.51639Z" stroke="#1A1A1A" stroke-width="0.6" stroke-miterlimit="10"/>
<path d="M43.4693 29.5306L45.582 26.8862C47.0559 25.0413 47.2876 22.2543 45.988 18.9492L43.8754 21.5936C45.1749 24.8987 44.9433 27.6857 43.4693 29.5306Z" fill="white"/>
<path d="M46.0156 18.9219L43.9033 21.5658C43.9455 21.7002 44.0122 21.8039 44.0544 21.9383L46.1668 19.2944C46.1 19.1907 46.0578 19.0563 46.0156 18.9219Z" fill="white" stroke="#1A1A1A" stroke-width="0.6" stroke-miterlimit="10"/>
<path d="M46.168 19.2949L44.0556 21.9388C44.1283 22.0976 44.1459 22.2627 44.2185 22.4215L46.3309 19.7776C46.2582 19.6189 46.1856 19.4601 46.168 19.2949Z" fill="white" stroke="#1A1A1A" stroke-width="0.6" stroke-miterlimit="10"/>
<path d="M46.332 19.7793L44.2197 22.4232C44.2923 22.5819 44.31 22.7471 44.3521 22.8815L46.4645 20.2377C46.4223 20.1032 46.3497 19.9445 46.332 19.7793Z" fill="white" stroke="#1A1A1A" stroke-width="0.6" stroke-miterlimit="10"/>
<path d="M46.4375 20.2637L44.3252 22.9076C44.3674 23.042 44.4154 23.2315 44.4576 23.3659L46.5699 20.722C46.5523 20.5569 46.5101 20.4224 46.4375 20.2637Z" fill="white" stroke="#1A1A1A" stroke-width="0.6" stroke-miterlimit="10"/>
<path d="M46.5742 20.7168L44.4619 23.3607C44.4795 23.5258 44.5217 23.6603 44.5393 23.8255L46.6517 21.1816C46.634 21.0164 46.6164 20.8512 46.5742 20.7168Z" fill="white" stroke="#1A1A1A" stroke-width="0.6" stroke-miterlimit="10"/>
<path d="M46.6484 21.1875L44.5361 23.8314C44.5537 23.9966 44.5959 24.131 44.6135 24.2962L46.7259 21.6523C46.7387 21.5114 46.7211 21.3463 46.6484 21.1875Z" fill="white" stroke="#1A1A1A" stroke-width="0.6" stroke-miterlimit="10"/>
<path d="M46.75 21.627L44.6377 24.2708C44.6553 24.436 44.6729 24.6012 44.7151 24.7356L46.8275 22.0917C46.7853 21.9573 46.7676 21.7921 46.75 21.627Z" fill="white" stroke="#1A1A1A" stroke-width="0.6" stroke-miterlimit="10"/>
<path d="M46.8047 22.1172L44.6923 24.7611C44.71 24.9262 44.7276 25.0914 44.7148 25.2323L46.8271 22.5884C46.84 22.4475 46.8223 22.2824 46.8047 22.1172Z" fill="white" stroke="#1A1A1A" stroke-width="0.6" stroke-miterlimit="10"/>
<path d="M46.8281 22.5898L44.7158 25.2337C44.7334 25.3989 44.7206 25.5398 44.7137 25.7357L46.826 23.0918C46.8634 22.9202 46.8458 22.755 46.8281 22.5898Z" fill="white" stroke="#1A1A1A" stroke-width="0.6" stroke-miterlimit="10"/>
<path d="M46.8438 23.0566L44.7314 25.7005C44.749 25.8657 44.7117 26.0373 44.6989 26.1782L46.8112 23.5343C46.824 23.3934 46.8368 23.2526 46.8438 23.0566Z" fill="white" stroke="#1A1A1A" stroke-width="0.6" stroke-miterlimit="10"/>
<path d="M46.8477 23.5645L44.7353 26.2083C44.7284 26.4043 44.7156 26.5451 44.6782 26.7167L46.7905 24.0728C46.8033 23.932 46.8103 23.7361 46.8477 23.5645Z" fill="white" stroke="#1A1A1A" stroke-width="0.6" stroke-miterlimit="10"/>
<path d="M46.7617 24.1035L44.6494 26.7474C44.6424 26.9433 44.5805 27.1457 44.5431 27.3173L46.6555 24.6734C46.7174 24.471 46.7243 24.2751 46.7617 24.1035Z" fill="white" stroke="#1A1A1A" stroke-width="0.6" stroke-miterlimit="10"/>
<path d="M46.6523 24.6777L44.54 27.3216C44.4781 27.524 44.4161 27.7263 44.3542 27.9287L46.4665 25.2848C46.5285 25.0824 46.5904 24.8801 46.6523 24.6777Z" fill="white" stroke="#1A1A1A" stroke-width="0.6" stroke-miterlimit="10"/>
<path d="M46.4688 25.2754L44.3564 27.9193C44.2453 28.1831 44.1588 28.4162 44.0174 28.6557L46.1297 26.0118C46.2712 25.7723 46.3577 25.5392 46.4688 25.2754Z" fill="white" stroke="#1A1A1A" stroke-width="0.6" stroke-miterlimit="10"/>
<path d="M46.1328 26.0195L44.0205 28.6634C43.8848 28.958 43.6638 29.2347 43.4673 29.4806L45.5796 26.8367C45.8066 26.6151 45.9972 26.3141 46.1328 26.0195Z" fill="white" stroke="#1A1A1A" stroke-width="0.6" stroke-miterlimit="10"/>
<path d="M43.4693 29.5306L45.582 26.8862C47.0559 25.0413 47.2876 22.2543 45.988 18.9492L43.8754 21.5936C45.1749 24.8987 44.9433 27.6857 43.4693 29.5306Z" stroke="#1A1A1A" stroke-width="0.6" stroke-miterlimit="10"/>
<path d="M20.8984 7.29688L18.7858 9.94124C17.2872 11.8169 17.0369 14.6897 18.3423 18.0499L20.455 15.4055C19.1741 12.0146 19.4304 9.19686 20.8984 7.29688Z" fill="white"/>
<path d="M20.8984 7.29688L18.7858 9.94124C17.2872 11.8169 17.0369 14.6897 18.3423 18.0499L20.455 15.4055C19.1741 12.0146 19.4304 9.19686 20.8984 7.29688Z" fill="white" stroke="#1A1A1A" stroke-width="0.6" stroke-miterlimit="10"/>
<path d="M43.7058 29.7542L45.8185 27.1098C44.3445 28.9547 41.6833 29.8511 38.1542 29.3992C31.0597 28.4161 23.1259 22.1782 20.515 15.4578L18.4024 18.1023C21.0378 24.7919 28.9471 31.0605 36.0416 32.0437C39.5707 32.4955 42.2319 31.5991 43.7058 29.7542Z" fill="#1A1A1A" stroke="#1A1A1A" stroke-width="0.6"/>
<path d="M43.7058 29.7542L45.8185 27.1098C44.3445 28.9547 41.6833 29.8511 38.1542 29.3992C31.0597 28.4161 23.1259 22.1782 20.515 15.4578L18.4024 18.1023C21.0378 24.7919 28.9471 31.0605 36.0416 32.0437C39.5707 32.4955 42.2319 31.5991 43.7058 29.7542Z" stroke="#1A1A1A" stroke-width="0.6" stroke-miterlimit="10"/>
<path d="M38.1472 29.3484C45.2418 30.3316 48.8658 25.6706 46.2304 18.9809C43.5949 12.2913 35.6857 6.02272 28.5911 5.03956C21.4965 4.05641 17.8726 8.71741 20.508 15.407C23.1188 22.1274 31.0527 28.3652 38.1472 29.3484Z" fill="white" stroke="#1A1A1A" stroke-width="0.6" stroke-miterlimit="10"/>
<ellipse cx="12.7897" cy="7.67793" rx="12.7897" ry="7.67793" transform="matrix(0.779955 0.625836 -0.625825 0.779964 28.3423 2.84473)" fill="#7246ee"/>
<path fill-rule="evenodd" clip-rule="evenodd" d="M30.2868 10.6394L28.2917 9.03857L28.7947 18.63L31.9522 18.1009L31.8516 16.1826L31.5359 16.2355L30.5886 16.3943L30.5383 15.4351L30.2868 10.6394ZM32.4831 16.0768L32.5334 17.036L32.5837 17.9951L32.6591 19.4338L32.7849 21.8317L42.2573 20.2445L40.2622 18.6437L35.526 19.4372L34.5788 19.5959L34.5285 18.6368L34.4782 17.6777L34.3776 15.7594L34.277 13.8411L32.2819 12.2403L32.4831 16.0768ZM38.2671 17.0428L35.1097 17.5719L35.0091 15.6536L36.272 15.442L38.2671 17.0428Z" fill="white"/>
<path d="M37.5686 26.5656C43.3077 27.3726 46.2742 23.5969 44.1345 18.1596C41.9948 12.7224 35.6077 7.66988 29.844 6.89363C24.1049 6.08664 21.1383 9.86233 23.2781 15.2996C25.4178 20.7368 31.8049 25.7893 37.5686 26.5656Z" stroke="#1A1A1A" stroke-width="0.6" stroke-miterlimit="10"/>
</g>
<defs>
<clipPath id="clip0_5691_145618">
<rect width="60" height="60" fill="white" transform="translate(0.5)"/>
</clipPath>
</defs>
</svg>
