<svg width="1em" height="1em" viewBox="0 0 88 88" fill="none" xmlns="http://www.w3.org/2000/svg">
<path d="M35.7722 38.4704L38.3045 37.0967C40.9008 35.6883 44.4967 35.8873 48.4662 38.0266L45.9339 39.4004C41.9643 37.261 38.3685 37.062 35.7722 38.4704V38.4704Z" fill="white"/>
<path d="M35.7722 38.4704L38.3045 37.0967C40.9008 35.6883 44.4967 35.8873 48.4662 38.0266L45.9339 39.4004C41.9643 37.261 38.3685 37.062 35.7722 38.4704V38.4704Z" stroke="black" stroke-width="0.6" stroke-miterlimit="10" stroke-linejoin="bevel"/>
<path d="M58.5377 69.5862L56.0054 70.9599C58.5689 69.5693 60.1586 66.6125 60.1713 62.4106C60.197 53.9492 53.8234 43.647 45.9377 39.3972L48.4701 38.0234C56.3557 42.2733 62.7294 52.5754 62.7037 61.0368C62.6909 65.2388 61.1012 68.1956 58.5377 69.5862H58.5377Z" fill="white"/>
<path d="M58.5377 69.5862L56.0054 70.9599C58.5689 69.5693 60.1586 66.6125 60.1713 62.4106C60.197 53.9492 53.8234 43.647 45.9377 39.3972L48.4701 38.0234C56.3557 42.2733 62.7294 52.5754 62.7037 61.0368C62.6909 65.2388 61.1012 68.1956 58.5377 69.5862H58.5377Z" fill="black" stroke="black" stroke-width="0.6" stroke-miterlimit="10" stroke-linejoin="bevel"/>
<path d="M56.0016 70.9613C61.5692 67.9411 61.5543 58.2189 55.9684 49.2463C50.3824 40.2737 41.3407 35.4484 35.7731 38.4687C30.2056 41.489 30.2204 51.2111 35.8064 60.1837C41.3923 69.1563 50.434 73.9816 56.0016 70.9613Z" fill="white" stroke="black" stroke-width="0.6" stroke-miterlimit="10" stroke-linejoin="bevel"/>
<ellipse cx="44.9939" cy="55.4121" rx="15.1293" ry="9.02493" transform="rotate(55.9099 44.9939 55.4121)" fill="#7246EE"/>
<path fill-rule="evenodd" clip-rule="evenodd" d="M43.4943 47.2926L41.7983 44.7867L39.0625 55.7727L42.8011 56.2872L43.3483 54.09L42.9744 54.0385L41.8528 53.8842L42.1264 52.7856L43.4943 47.2926ZM44.096 54.1929L43.8224 55.2915L43.5488 56.3901L43.1384 58.038L42.4545 60.7845L53.6702 62.328L51.9742 59.8221L46.3664 59.0503L45.2448 58.896L45.5184 57.7974L45.792 56.6988L46.3391 54.5016L46.8863 52.3044L45.1903 49.7985L44.096 54.1929ZM50.2783 57.3162L46.5397 56.8017L47.0868 54.6045L48.5823 54.8103L50.2783 57.3162Z" fill="white"/>
<path d="M52.8418 67.9026C57.1814 65.5485 57.1698 57.9706 52.8159 50.977C48.462 43.9834 41.4145 40.2223 37.0749 42.5765C32.7352 44.9306 32.7468 52.5084 37.1007 59.5021C41.4547 66.4957 48.5022 70.2567 52.8418 67.9026Z" stroke="black" stroke-width="0.6" stroke-miterlimit="10" stroke-linejoin="bevel"/>
<path d="M32.948 54L22.4807 59.6222L53.8824 77L69.5833 68.3111L64.873 65.7556L62.0897 64L57.2724 70.5L46.5554 64.7333L41.8451 62.1778L34.518 58.0889L32.948 54Z" fill="black"/>
<rect opacity="0.6" width="4.48346" height="4.48346" transform="matrix(0.730764 0.68263 -0.730764 0.68263 47.3052 11.2563)" fill="#7246EE"/>
<rect width="3.39222" height="3.39222" transform="matrix(0.730764 0.68263 -0.730764 0.68263 60.8455 31.1367)" fill="#D0C4F2"/>
<rect width="6.24595" height="6.24595" transform="matrix(0.730764 0.68263 -0.730764 0.68263 37.4468 22.4922)" fill="#7246EE"/>
</svg>
 