<svg width="1em" height="1em" viewBox="0 0 88 88" fill="none" xmlns="http://www.w3.org/2000/svg">
<path d="M25.987 63.7416L27.2868 67.6012C26.3951 64.9534 27.1918 61.7369 29.933 58.5651C35.4447 52.1618 46.656 48.2863 54.9921 49.9761L53.6923 46.1165C45.3713 44.4716 34.1449 48.3022 28.6332 54.7056C25.892 57.8773 25.0953 61.0938 25.987 63.7416Z" fill="white"/>
<path d="M25.9872 63.7438L27.287 67.6034C26.9545 66.6161 26.8291 65.509 27.0297 64.3421L25.73 60.4826C25.5737 61.6345 25.6396 62.7116 25.9872 63.7438Z" fill="white" stroke="#1A1A1A" stroke-width="0.6" stroke-miterlimit="10"/>
<path d="M25.7286 60.4801L27.0284 64.3397C27.071 64.0256 27.1429 63.6516 27.23 63.3224L25.9302 59.4628C25.8431 59.792 25.7712 60.166 25.7286 60.4801Z" fill="white" stroke="#1A1A1A" stroke-width="0.6" stroke-miterlimit="10"/>
<path d="M25.9264 59.4606L27.2262 63.3202C27.284 63.0509 27.4012 62.8115 27.459 62.5422L26.1592 58.6826C26.1014 58.9519 25.9842 59.1913 25.9264 59.4606Z" fill="white" stroke="#1A1A1A" stroke-width="0.6" stroke-miterlimit="10"/>
<path d="M26.2048 58.6682L27.5046 62.5278C27.5774 62.3034 27.6947 62.064 27.7676 61.8396L26.4678 57.98C26.3505 58.2194 26.2776 58.4438 26.2048 58.6682Z" fill="white" stroke="#1A1A1A" stroke-width="0.6" stroke-miterlimit="10"/>
<path d="M26.467 57.9854L27.7668 61.845C27.8397 61.6206 27.9721 61.4261 28.0893 61.1867L26.7895 57.3271C26.6723 57.5665 26.555 57.8058 26.467 57.9854Z" fill="white" stroke="#1A1A1A" stroke-width="0.6" stroke-miterlimit="10"/>
<path d="M26.802 57.3685L28.1018 61.2281C28.1898 61.0486 28.3222 60.8541 28.4546 60.6596L27.1548 56.8C26.9628 56.9646 26.8749 57.1441 26.802 57.3685Z" fill="white" stroke="#1A1A1A" stroke-width="0.6" stroke-miterlimit="10"/>
<path d="M27.0989 56.7674L28.3987 60.627C28.4867 60.4475 28.6191 60.253 28.7514 60.0585L27.4517 56.1989C27.3344 56.4383 27.2313 56.5729 27.0989 56.7674Z" fill="white" stroke="#1A1A1A" stroke-width="0.6" stroke-miterlimit="10"/>
<path d="M27.4666 56.2419L28.7664 60.1014C28.8988 59.9069 29.0019 59.7723 29.1342 59.5778L27.8345 55.7182C27.6869 55.8678 27.5546 56.0623 27.4666 56.2419Z" fill="white" stroke="#1A1A1A" stroke-width="0.6" stroke-miterlimit="10"/>
<path d="M27.8363 55.7209L29.1361 59.5805C29.2684 59.386 29.3715 59.2513 29.519 59.1017L28.2192 55.2421C28.0717 55.3918 27.9242 55.5414 27.8363 55.7209Z" fill="white" stroke="#1A1A1A" stroke-width="0.6" stroke-miterlimit="10"/>
<path d="M28.2015 55.2031L29.5013 59.0627C29.6488 58.9131 29.7812 58.7186 29.9287 58.5689L28.6289 54.7094C28.437 54.8739 28.349 55.0535 28.2015 55.2031Z" fill="white" stroke="#1A1A1A" stroke-width="0.6" stroke-miterlimit="10"/>
<path d="M28.5887 54.719L29.8885 58.5786L29.933 58.5636C30.0805 58.414 30.1835 58.2793 30.331 58.1297L29.0312 54.2701C28.8686 54.3749 28.7656 54.5095 28.5887 54.719C28.6184 54.709 28.6184 54.709 28.5887 54.719Z" fill="white"/>
<path d="M28.5887 54.719L29.8885 58.5786L29.933 58.5636C30.0805 58.414 30.1835 58.2793 30.331 58.1297L29.0312 54.2701C28.8686 54.3749 28.7656 54.5095 28.5887 54.719C28.6184 54.709 28.6184 54.709 28.5887 54.719" stroke="#1A1A1A" stroke-width="0.6" stroke-miterlimit="10"/>
<path d="M29.0184 54.2244L30.3182 58.0839C30.4657 57.9343 30.6132 57.7847 30.7607 57.6351L29.4609 53.7755C29.3134 53.9251 29.1659 54.0747 29.0184 54.2244Z" fill="white" stroke="#1A1A1A" stroke-width="0.6" stroke-miterlimit="10"/>
<path d="M29.452 53.7805L30.7518 57.6401C30.8993 57.4905 31.0468 57.3409 31.1943 57.1913L29.8945 53.3317C29.7915 53.4663 29.5995 53.6309 29.452 53.7805Z" fill="white" stroke="#1A1A1A" stroke-width="0.6" stroke-miterlimit="10"/>
<path d="M29.9383 53.3137L31.2381 57.1733C31.3856 57.0237 31.5331 56.8741 31.7251 56.7095L30.4253 52.8499C30.2333 53.0145 30.0858 53.1641 29.9383 53.3137Z" fill="white" stroke="#1A1A1A" stroke-width="0.6" stroke-miterlimit="10"/>
<path d="M30.3842 52.8665L31.684 56.7261C31.8315 56.5765 32.0234 56.4119 32.186 56.3071L30.8862 52.4476C30.7387 52.5972 30.5761 52.7019 30.3842 52.8665Z" fill="white" stroke="#1A1A1A" stroke-width="0.6" stroke-miterlimit="10"/>
<path d="M30.931 52.4319L32.2308 56.2915C32.3783 56.1419 32.5854 56.0222 32.7773 55.8576L31.4775 51.998C31.2705 52.1177 31.0785 52.2823 30.931 52.4319Z" fill="white" stroke="#1A1A1A" stroke-width="0.6" stroke-miterlimit="10"/>
<path d="M31.4389 52.0205L32.7386 55.8801C32.9306 55.7156 33.0932 55.6108 33.2851 55.4462L31.9853 51.5867C31.8378 51.7363 31.6308 51.856 31.4389 52.0205Z" fill="white" stroke="#1A1A1A" stroke-width="0.6" stroke-miterlimit="10"/>
<path d="M32.0306 51.5583L33.3304 55.4178C33.5224 55.2533 33.7294 55.1336 33.9214 54.969L32.6216 51.1094C32.3852 51.2889 32.1782 51.4086 32.0306 51.5583Z" fill="white" stroke="#1A1A1A" stroke-width="0.6" stroke-miterlimit="10"/>
<path d="M32.5741 51.1297L33.8739 54.9893C34.081 54.8696 34.2729 54.705 34.48 54.5853L33.1802 50.7257C32.9882 50.8903 32.7812 51.01 32.5741 51.1297Z" fill="white" stroke="#1A1A1A" stroke-width="0.6" stroke-miterlimit="10"/>
<path d="M33.1796 50.7276L34.4794 54.5872C34.6864 54.4675 34.8784 54.3029 35.0854 54.1832L33.7856 50.3236C33.5937 50.4882 33.3866 50.6079 33.1796 50.7276Z" fill="white" stroke="#1A1A1A" stroke-width="0.6" stroke-miterlimit="10"/>
<path d="M33.7856 50.3221L35.0854 54.1817C35.2924 54.062 35.4995 53.9423 35.7065 53.8226L34.4067 49.963C34.1997 50.0827 33.9926 50.2024 33.7856 50.3221Z" fill="white" stroke="#1A1A1A" stroke-width="0.6" stroke-miterlimit="10"/>
<path d="M34.4047 49.9662L35.7045 53.8258C35.9116 53.7061 36.1186 53.5864 36.3257 53.4667L35.0259 49.6071C34.8188 49.7268 34.6118 49.8465 34.4047 49.9662Z" fill="white" stroke="#1A1A1A" stroke-width="0.6" stroke-miterlimit="10"/>
<path d="M35.0239 49.6055L36.3236 53.465C36.5307 53.3453 36.7377 53.2256 36.9448 53.1059L35.645 49.2464C35.438 49.3661 35.2309 49.4858 35.0239 49.6055Z" fill="white" stroke="#1A1A1A" stroke-width="0.6" stroke-miterlimit="10"/>
<path d="M35.6611 49.2877L36.9609 53.1473C37.1679 53.0276 37.375 52.908 37.5971 52.8331L36.2973 48.9735C36.0752 49.0484 35.8681 49.1681 35.6611 49.2877Z" fill="white" stroke="#1A1A1A" stroke-width="0.6" stroke-miterlimit="10"/>
<path d="M36.2392 48.9457L37.539 52.8053C37.7461 52.6856 37.9682 52.6108 38.1753 52.4911L36.8755 48.6315C36.6684 48.7512 36.4614 48.8709 36.2392 48.9457Z" fill="white" stroke="#1A1A1A" stroke-width="0.6" stroke-miterlimit="10"/>
<path d="M36.8955 48.6776L38.1952 52.5372C38.4023 52.4175 38.6245 52.3427 38.8315 52.223L37.5317 48.3634C37.3247 48.4831 37.1025 48.5579 36.8955 48.6776Z" fill="white" stroke="#1A1A1A" stroke-width="0.6" stroke-miterlimit="10"/>
<path d="M37.5307 48.3601L38.8305 52.2196C39.082 52.085 39.3042 52.0102 39.5708 51.9204L38.271 48.0608C38.0044 48.1506 37.7973 48.2703 37.5307 48.3601Z" fill="white" stroke="#1A1A1A" stroke-width="0.6" stroke-miterlimit="10"/>
<path d="M38.2612 48.0595L39.561 51.9191C39.8276 51.8293 40.1235 51.6797 40.3901 51.5899L39.0903 47.7303C38.7793 47.8351 38.5127 47.9249 38.2612 48.0595Z" fill="white" stroke="#1A1A1A" stroke-width="0.6" stroke-miterlimit="10"/>
<path d="M39.103 47.7314L40.4028 51.591C40.8471 51.4414 41.2319 51.2618 41.6762 51.1122L40.3764 47.2526C39.9321 47.4022 39.4878 47.5519 39.103 47.7314Z" fill="white" stroke="#1A1A1A" stroke-width="0.6" stroke-miterlimit="10"/>
<path d="M40.3281 47.2749L41.6279 51.1345C42.2055 50.94 42.8276 50.7305 43.4203 50.5808L42.1205 46.7212C41.5429 46.9158 40.9502 47.0654 40.3281 47.2749Z" fill="white" stroke="#1A1A1A" stroke-width="0.6" stroke-miterlimit="10"/>
<path d="M42.1348 46.7665L43.4346 50.6261C43.894 50.5213 44.3828 50.3567 44.8573 50.2968L43.5575 46.4372C43.083 46.4971 42.6235 46.6019 42.1348 46.7665Z" fill="white" stroke="#1A1A1A" stroke-width="0.6" stroke-miterlimit="10"/>
<path d="M43.541 46.3875L44.8408 50.247C45.1669 50.1872 45.4931 50.1273 45.8192 50.0674L44.5194 46.2079C44.1933 46.2677 43.8672 46.3276 43.541 46.3875Z" fill="white" stroke="#1A1A1A" stroke-width="0.6" stroke-miterlimit="10"/>
<path d="M44.5156 46.2117L45.8154 50.0713C46.0971 50.0264 46.3344 49.9964 46.6161 49.9515L45.3163 46.0919C45.0195 46.0919 44.7822 46.1219 44.5156 46.2117Z" fill="white" stroke="#1A1A1A" stroke-width="0.6" stroke-miterlimit="10"/>
<path d="M45.3008 46.0452L46.6006 49.9048C46.8823 49.8599 47.1196 49.8299 47.4013 49.785L46.1015 45.9254C45.8198 45.9703 45.5825 46.0003 45.3008 46.0452Z" fill="white" stroke="#1A1A1A" stroke-width="0.6" stroke-miterlimit="10"/>
<path d="M46.1113 45.925L47.4111 49.7846C47.6484 49.7547 47.9301 49.7098 48.1674 49.6799L46.8676 45.8203C46.6303 45.8502 46.3486 45.8951 46.1113 45.925Z" fill="white" stroke="#1A1A1A" stroke-width="0.6" stroke-miterlimit="10"/>
<path d="M46.8733 45.865L48.1731 49.7246C48.4104 49.6946 48.7072 49.6946 48.9445 49.6647L47.6447 45.8051C47.3923 45.7901 47.1106 45.8351 46.8733 45.865Z" fill="white" stroke="#1A1A1A" stroke-width="0.6" stroke-miterlimit="10"/>
<path d="M47.6309 45.7632L48.9306 49.6228C49.1679 49.5928 49.4648 49.5928 49.702 49.5629L48.4022 45.7033C48.165 45.7332 47.9277 45.7632 47.6309 45.7632Z" fill="white" stroke="#1A1A1A" stroke-width="0.6" stroke-miterlimit="10"/>
<path d="M48.418 45.7449L49.7178 49.6045C49.9701 49.6194 50.2518 49.5745 50.5042 49.5894L49.2045 45.7299C48.9521 45.7149 48.6997 45.7 48.418 45.7449Z" fill="white" stroke="#1A1A1A" stroke-width="0.6" stroke-miterlimit="10"/>
<path d="M49.2542 45.717L50.5539 49.5766C50.8063 49.5916 51.088 49.5467 51.3404 49.5616L50.0406 45.702C49.7438 45.702 49.4914 45.6871 49.2542 45.717Z" fill="white" stroke="#1A1A1A" stroke-width="0.6" stroke-miterlimit="10"/>
<path d="M49.9941 45.7124L51.2939 49.572C51.5463 49.5869 51.7987 49.6019 52.0511 49.6168L50.7513 45.7572C50.5434 45.7273 50.291 45.7124 49.9941 45.7124Z" fill="white" stroke="#1A1A1A" stroke-width="0.6" stroke-miterlimit="10"/>
<path d="M50.793 45.7449L52.0928 49.6045C52.3451 49.6194 52.5975 49.6343 52.8055 49.6642L51.5057 45.8047C51.2382 45.7448 51.0302 45.7149 50.793 45.7449Z" fill="white" stroke="#1A1A1A" stroke-width="0.6" stroke-miterlimit="10"/>
<path d="M51.5098 45.8049L52.8096 49.6645C53.0619 49.6795 53.2699 49.7094 53.5223 49.7243L52.2225 45.8647C51.9701 45.8498 51.7622 45.8199 51.5098 45.8049Z" fill="white" stroke="#1A1A1A" stroke-width="0.6" stroke-miterlimit="10"/>
<path d="M52.2227 45.865L53.5224 49.7246C53.7304 49.7545 53.9828 49.7694 54.1908 49.7993L52.891 45.9397C52.683 45.9098 52.4306 45.8949 52.2227 45.865Z" fill="white" stroke="#1A1A1A" stroke-width="0.6" stroke-miterlimit="10"/>
<path d="M52.8828 45.9343L54.1826 49.7939C54.3906 49.8238 54.5985 49.8537 54.8216 49.9285L53.5218 46.0689C53.2987 45.9941 53.0908 45.9642 52.8828 45.9343Z" fill="white" stroke="#1A1A1A" stroke-width="0.6" stroke-miterlimit="10"/>
<path d="M53.5312 46.073L54.831 49.9326C54.8906 49.9625 54.935 49.9475 54.9946 49.9775L53.6948 46.1179C53.6352 46.088 53.5757 46.058 53.5312 46.073Z" fill="white" stroke="#1A1A1A" stroke-width="0.6" stroke-miterlimit="10"/>
<path d="M25.987 63.7416L27.2868 67.6012C26.3951 64.9534 27.1918 61.7369 29.933 58.5651C35.4447 52.1618 46.656 48.2863 54.9921 49.9761L53.6923 46.1165C45.3713 44.4716 34.1449 48.3022 28.6332 54.7056C25.892 57.8773 25.0953 61.0938 25.987 63.7416Z" stroke="#1A1A1A" stroke-width="0.6" stroke-miterlimit="10"/>
<path d="M62.7635 55.5569L61.4637 51.6973C60.5568 49.0045 57.8878 46.9552 53.6975 46.1178L54.9973 49.9774C59.1876 50.8148 61.8566 52.8641 62.7635 55.5569Z" fill="white"/>
<path d="M53.6858 46.0775L54.9856 49.9371C55.1491 49.982 55.2975 49.982 55.461 50.0268L54.1613 46.1672C54.0128 46.1672 53.8493 46.1224 53.6858 46.0775Z" fill="white" stroke="#1A1A1A" stroke-width="0.6" stroke-miterlimit="10"/>
<path d="M54.1565 46.1654L55.4563 50.025C55.6642 50.0549 55.8429 50.1446 56.0508 50.1745L54.7511 46.315C54.5431 46.2851 54.3351 46.2552 54.1565 46.1654Z" fill="white" stroke="#1A1A1A" stroke-width="0.6" stroke-miterlimit="10"/>
<path d="M54.7581 46.3134L56.0578 50.1729C56.2658 50.2028 56.4444 50.2926 56.608 50.3375L55.3082 46.4779C55.1447 46.433 54.9367 46.4031 54.7581 46.3134Z" fill="white" stroke="#1A1A1A" stroke-width="0.6" stroke-miterlimit="10"/>
<path d="M55.3223 46.5305L56.6221 50.3901C56.7856 50.435 57.0087 50.5097 57.1722 50.5546L55.8724 46.695C55.6938 46.6053 55.5302 46.5604 55.3223 46.5305Z" fill="white" stroke="#1A1A1A" stroke-width="0.6" stroke-miterlimit="10"/>
<path d="M55.8674 46.6876L57.1672 50.5472C57.3459 50.6369 57.5094 50.6818 57.688 50.7716L56.3882 46.912C56.2096 46.8222 56.031 46.7325 55.8674 46.6876Z" fill="white" stroke="#1A1A1A" stroke-width="0.6" stroke-miterlimit="10"/>
<path d="M56.3948 46.9143L57.6946 50.7739C57.8732 50.8636 58.0367 50.9085 58.2154 50.9982L56.9156 47.1387C56.7814 47.034 56.6027 46.9442 56.3948 46.9143Z" fill="white" stroke="#1A1A1A" stroke-width="0.6" stroke-miterlimit="10"/>
<path d="M56.8987 47.0991L58.1985 50.9587C58.3771 51.0484 58.5557 51.1382 58.7193 51.1831L57.4195 47.3235C57.256 47.2786 57.0773 47.1889 56.8987 47.0991Z" fill="white" stroke="#1A1A1A" stroke-width="0.6" stroke-miterlimit="10"/>
<path d="M57.4358 47.3627L58.7356 51.2223C58.9142 51.312 59.0929 51.4017 59.2271 51.5065L57.9273 47.6469C57.7931 47.5422 57.6144 47.4524 57.4358 47.3627Z" fill="white" stroke="#1A1A1A" stroke-width="0.6" stroke-miterlimit="10"/>
<path d="M57.9241 47.6447L59.2239 51.5042C59.4025 51.594 59.5367 51.6987 59.7305 51.8333L58.4307 47.9737C58.2813 47.8241 58.1027 47.7344 57.9241 47.6447Z" fill="white" stroke="#1A1A1A" stroke-width="0.6" stroke-miterlimit="10"/>
<path d="M58.4104 47.9313L59.7102 51.7909C59.8888 51.8806 60.0382 52.0302 60.1724 52.1349L58.8726 48.2753C58.7384 48.1706 58.6042 48.0659 58.4104 47.9313Z" fill="white" stroke="#1A1A1A" stroke-width="0.6" stroke-miterlimit="10"/>
<path d="M58.9241 48.2596L60.2239 52.1192C60.4176 52.2539 60.5518 52.3586 60.7011 52.5082L59.4013 48.6486C59.2671 48.5439 59.0734 48.4092 58.9241 48.2596Z" fill="white" stroke="#1A1A1A" stroke-width="0.6" stroke-miterlimit="10"/>
<path d="M59.4143 48.6986L60.7141 52.5582C60.9079 52.6928 61.0723 52.8873 61.2216 53.0369L59.9218 49.1773C59.7574 48.9828 59.5636 48.8482 59.4143 48.6986Z" fill="white" stroke="#1A1A1A" stroke-width="0.6" stroke-miterlimit="10"/>
<path d="M59.9221 49.1794L61.2219 53.039C61.3863 53.2335 61.5508 53.428 61.7152 53.6224L60.4154 49.7628C60.251 49.5684 60.0866 49.3739 59.9221 49.1794Z" fill="white" stroke="#1A1A1A" stroke-width="0.6" stroke-miterlimit="10"/>
<path d="M60.4121 49.7573L61.7119 53.6169C61.9066 53.9011 62.0861 54.1405 62.2363 54.4397L60.9365 50.5801C60.7863 50.2809 60.6068 50.0415 60.4121 49.7573Z" fill="white" stroke="#1A1A1A" stroke-width="0.6" stroke-miterlimit="10"/>
<path d="M60.9397 50.5802L62.2395 54.4398C62.4493 54.7689 62.5853 55.1728 62.7062 55.5318L61.4064 51.6722C61.3299 51.2983 61.1495 50.9093 60.9397 50.5802Z" fill="white" stroke="#1A1A1A" stroke-width="0.6" stroke-miterlimit="10"/>
<path d="M62.7635 55.5569L61.4637 51.6973C60.5568 49.0045 57.8878 46.9552 53.6975 46.1178L54.9973 49.9774C59.1876 50.8148 61.8566 52.8641 62.7635 55.5569Z" stroke="#1A1A1A" stroke-width="0.6" stroke-miterlimit="10"/>
<path d="M25.5898 63.8801L26.8896 67.7397C27.8116 70.4773 30.5552 72.6014 34.8051 73.4688L33.5053 69.6092C29.2403 68.697 26.5562 66.6028 25.5898 63.8801Z" fill="white"/>
<path d="M25.5898 63.8801L26.8896 67.7397C27.8116 70.4773 30.5552 72.6014 34.8051 73.4688L33.5053 69.6092C29.2403 68.697 26.5562 66.6028 25.5898 63.8801Z" fill="white" stroke="#1A1A1A" stroke-width="0.6" stroke-miterlimit="10"/>
<path d="M63.1536 55.4185L61.8539 51.5589C62.7607 54.2516 61.9347 57.5279 59.1793 60.8044C53.5645 67.3424 42.0866 71.3077 33.5869 69.573L34.8867 73.4326C43.3713 75.1224 54.8643 71.202 60.479 64.664C63.2344 61.3875 64.0605 58.1112 63.1536 55.4185Z" fill="#1A1A1A" stroke="#1A1A1A" stroke-width="0.6"/>
<path d="M63.1536 55.4185L61.8539 51.5589C62.7607 54.2516 61.9347 57.5279 59.1793 60.8044C53.5645 67.3424 42.0866 71.3077 33.5869 69.573L34.8867 73.4326C43.3713 75.1224 54.8643 71.202 60.479 64.664C63.2344 61.3875 64.0605 58.1112 63.1536 55.4185Z" stroke="#1A1A1A" stroke-width="0.6" stroke-miterlimit="10"/>
<path d="M59.1291 60.7815C64.7439 54.2435 62.3879 47.5416 53.9033 45.8518C45.4187 44.162 33.9258 48.0824 28.311 54.6204C22.6962 61.1584 25.0522 67.8603 33.5368 69.5501C42.0365 71.2848 53.5143 67.3195 59.1291 60.7815Z" fill="white" stroke="#1A1A1A" stroke-width="0.6" stroke-miterlimit="10"/>
<ellipse cx="43.5362" cy="56.9782" rx="15.2665" ry="8.9408" transform="rotate(-18.9193 43.5362 56.9782)" fill="#7246EE"/>
<path fill-rule="evenodd" clip-rule="evenodd" d="M35.2524 56.3519L32.364 57.3419L42.2905 62.7609L43.7956 59.3046L41.8103 58.2208L41.6598 58.5664L41.2083 59.6033L40.2156 59.0614L35.2524 56.3519ZM42.1113 57.5295L43.104 58.0714L44.0966 58.6133L45.5856 59.4262L48.0672 60.7809L52.5824 50.412L49.6941 51.402L47.4365 56.5864L46.985 57.6233L45.9923 57.0814L44.9997 56.5395L43.0144 55.4557L41.029 54.372L38.1407 55.3619L42.1113 57.5295ZM46.8057 52.392L45.3007 55.8483L43.3154 54.7645L43.9174 53.382L46.8057 52.392Z" fill="white"/>
<path d="M55.9338 59.5529C60.4877 54.2716 58.5994 48.8114 51.7047 47.4356C44.81 46.0598 35.5387 49.2321 31 54.5582C26.4461 59.8395 28.3344 65.2997 35.2291 66.6755C42.1238 68.0513 51.3951 64.879 55.9338 59.5529Z" stroke="#1A1A1A" stroke-width="0.6" stroke-miterlimit="10"/>
<path fill-rule="evenodd" clip-rule="evenodd" d="M31.2218 31H29.7773V33.7782H27V35.2227H29.7773V38H31.2218V35.2227H34V33.7782H31.2218V31Z" fill="#7246EE" fill-opacity="0.6"/>
<path fill-rule="evenodd" clip-rule="evenodd" d="M50.0303 17H47.9668V20.9689H44V23.0324H47.9668V27H50.0303V23.0324H54V20.9689H50.0303V17Z" fill="#7246EE"/>
<path fill-rule="evenodd" clip-rule="evenodd" d="M62.0161 38H60.9844V39.9844H59V41.0162H60.9844V43H62.0161V41.0162H64V39.9844H62.0161V38Z" fill="#7246EE" fill-opacity="0.4"/>
</svg>

 