<svg width="1em" height="1em" viewBox="0 0 88 88" fill="none" xmlns="http://www.w3.org/2000/svg">
<path d="M45.3637 48.3459L45.5046 48.2709L45.6456 48.3459L71.7092 62.2175L71.7092 45.4242L45.5046 31.2526L19.3 45.4242L19.3 62.2175L45.3637 48.3459Z" fill="black" stroke="black" stroke-width="0.6"/>
<path d="M42.4945 61.2737L44.0177 63.3024C42.9727 61.9107 42.8152 59.8525 43.8165 57.4408C45.8248 52.5761 51.6982 48.0924 56.959 47.4624L55.4358 45.4337C50.1927 46.0873 44.3016 50.5474 42.2933 55.4121C41.292 57.8238 41.4495 59.882 42.4945 61.2737Z" fill="white"/>
<path d="M42.4829 61.2783L44.0058 63.3067C43.6162 62.7878 43.3257 62.1577 43.2163 61.4284L41.6933 59.4001C41.8261 60.1118 42.0756 60.7359 42.4829 61.2783Z" fill="white" stroke="#1A1A1A" stroke-width="0.6" stroke-miterlimit="10"/>
<path d="M41.6963 59.3987L43.2193 61.427C43.1831 61.2329 43.1525 60.9977 43.1397 60.786L41.6167 58.7577C41.6296 58.9693 41.6601 59.2046 41.6963 59.3987Z" fill="white" stroke="#1A1A1A" stroke-width="0.6" stroke-miterlimit="10"/>
<path d="M41.6124 58.759L43.1354 60.7874C43.1169 60.6168 43.1394 60.4524 43.1209 60.2818L41.598 58.2535C41.6165 58.424 41.5939 58.5885 41.6124 58.759Z" fill="white" stroke="#1A1A1A" stroke-width="0.6" stroke-miterlimit="10"/>
<path d="M41.6212 58.2335L43.1441 60.2618C43.1434 60.1149 43.1659 59.9504 43.1651 59.8035L41.6422 57.7751C41.6196 57.9396 41.6204 58.0865 41.6212 58.2335Z" fill="white" stroke="#1A1A1A" stroke-width="0.6" stroke-miterlimit="10"/>
<path d="M41.6433 57.7792L43.1662 59.8076C43.1654 59.6606 43.2057 59.5197 43.2283 59.3553L41.7053 57.3269C41.6828 57.4914 41.6602 57.6559 41.6433 57.7792Z" fill="white" stroke="#1A1A1A" stroke-width="0.6" stroke-miterlimit="10"/>
<path d="M41.7229 57.3469L43.2458 59.3753C43.2627 59.2519 43.303 59.111 43.3433 58.9701L41.8203 56.9418C41.739 57.0766 41.7221 57.2 41.7229 57.3469Z" fill="white" stroke="#1A1A1A" stroke-width="0.6" stroke-miterlimit="10"/>
<path d="M41.7817 56.9348L43.3046 58.9631C43.3216 58.8398 43.3618 58.6989 43.4021 58.558L41.8792 56.5297C41.8566 56.6941 41.822 56.7939 41.7817 56.9348Z" fill="white" stroke="#1A1A1A" stroke-width="0.6" stroke-miterlimit="10"/>
<path d="M41.8946 56.5531L43.4175 58.5814C43.4578 58.4405 43.4924 58.3408 43.5327 58.1999L42.0098 56.1715C41.9518 56.2888 41.9115 56.4297 41.8946 56.5531Z" fill="white" stroke="#1A1A1A" stroke-width="0.6" stroke-miterlimit="10"/>
<path d="M42.0082 56.1733L43.5312 58.2016C43.5715 58.0607 43.6061 57.961 43.6641 57.8437L42.1411 55.8153C42.0832 55.9326 42.0252 56.0499 42.0082 56.1733Z" fill="white" stroke="#1A1A1A" stroke-width="0.6" stroke-miterlimit="10"/>
<path d="M42.1279 55.7902L43.6508 57.8186C43.7088 57.7013 43.7491 57.5604 43.8071 57.4431L42.2841 55.4147C42.2028 55.5496 42.1859 55.6729 42.1279 55.7902Z" fill="white" stroke="#1A1A1A" stroke-width="0.6" stroke-miterlimit="10"/>
<path d="M42.2593 55.4374L43.7823 57.4658L43.8056 57.4482C43.8636 57.3309 43.8982 57.2312 43.9562 57.1139L42.4333 55.0855C42.3576 55.1792 42.323 55.279 42.2593 55.4374C42.2749 55.4257 42.2749 55.4257 42.2593 55.4374Z" fill="white"/>
<path d="M42.2593 55.4374L43.7823 57.4658L43.8056 57.4482C43.8636 57.3309 43.8982 57.2312 43.9562 57.1139L42.4333 55.0855C42.3576 55.1792 42.323 55.279 42.2593 55.4374C42.2749 55.4257 42.2749 55.4257 42.2593 55.4374" stroke="#1A1A1A" stroke-width="0.6" stroke-miterlimit="10"/>
<path d="M42.4151 55.0564L43.938 57.0848C43.996 56.9675 44.054 56.8502 44.112 56.7329L42.589 54.7045C42.5311 54.8218 42.4731 54.9391 42.4151 55.0564Z" fill="white" stroke="#1A1A1A" stroke-width="0.6" stroke-miterlimit="10"/>
<path d="M42.5884 54.7085L44.1114 56.7369C44.1694 56.6196 44.2273 56.5023 44.2853 56.385L42.7624 54.3566C42.7278 54.4564 42.6464 54.5912 42.5884 54.7085Z" fill="white" stroke="#1A1A1A" stroke-width="0.6" stroke-miterlimit="10"/>
<path d="M42.7852 54.3337L44.3082 56.362C44.3661 56.2447 44.4241 56.1274 44.5055 55.9926L42.9825 53.9642C42.9012 54.0991 42.8432 54.2164 42.7852 54.3337Z" fill="white" stroke="#1A1A1A" stroke-width="0.6" stroke-miterlimit="10"/>
<path d="M42.9616 53.985L44.4845 56.0133C44.5425 55.896 44.6239 55.7612 44.6996 55.6675L43.1766 53.6391C43.1186 53.7564 43.0429 53.8502 42.9616 53.985Z" fill="white" stroke="#1A1A1A" stroke-width="0.6" stroke-miterlimit="10"/>
<path d="M43.1977 53.6227L44.7206 55.651C44.7786 55.5337 44.8777 55.4225 44.959 55.2876L43.436 53.2593C43.337 53.3705 43.2557 53.5054 43.1977 53.6227Z" fill="white" stroke="#1A1A1A" stroke-width="0.6" stroke-miterlimit="10"/>
<path d="M43.4167 53.2789L44.9396 55.3073C45.0209 55.1725 45.0966 55.0787 45.178 54.9439L43.655 52.9156C43.597 53.0329 43.498 53.1441 43.4167 53.2789Z" fill="white" stroke="#1A1A1A" stroke-width="0.6" stroke-miterlimit="10"/>
<path d="M43.6786 52.8897L45.2016 54.918C45.2829 54.7832 45.382 54.6719 45.4633 54.5371L43.9404 52.5087C43.8357 52.6611 43.7366 52.7724 43.6786 52.8897Z" fill="white" stroke="#1A1A1A" stroke-width="0.6" stroke-miterlimit="10"/>
<path d="M43.9151 52.5327L45.438 54.561C45.5371 54.4498 45.6184 54.315 45.7174 54.2037L44.1945 52.1754C44.1132 52.3102 44.0141 52.4214 43.9151 52.5327Z" fill="white" stroke="#1A1A1A" stroke-width="0.6" stroke-miterlimit="10"/>
<path d="M44.1936 52.1744L45.7166 54.2028C45.8156 54.0915 45.897 53.9567 45.996 53.8454L44.4731 51.8171C44.3917 51.9519 44.2927 52.0632 44.1936 52.1744Z" fill="white" stroke="#1A1A1A" stroke-width="0.6" stroke-miterlimit="10"/>
<path d="M44.475 51.8154L45.9979 53.8437C46.097 53.7325 46.196 53.6212 46.2951 53.51L44.7721 51.4816C44.6731 51.5929 44.5741 51.7041 44.475 51.8154Z" fill="white" stroke="#1A1A1A" stroke-width="0.6" stroke-miterlimit="10"/>
<path d="M44.7697 51.4862L46.2926 53.5145C46.3917 53.4033 46.4907 53.292 46.5898 53.1808L45.0668 51.1524C44.9678 51.2637 44.8687 51.3749 44.7697 51.4862Z" fill="white" stroke="#1A1A1A" stroke-width="0.6" stroke-miterlimit="10"/>
<path d="M45.0658 51.1507L46.5888 53.1791C46.6878 53.0678 46.7869 52.9566 46.8859 52.8453L45.363 50.817C45.2639 50.9282 45.1649 51.0395 45.0658 51.1507Z" fill="white" stroke="#1A1A1A" stroke-width="0.6" stroke-miterlimit="10"/>
<path d="M45.3799 50.8372L46.9028 52.8656C47.0019 52.7543 47.1009 52.6431 47.2177 52.5554L45.6947 50.5271C45.578 50.6147 45.4789 50.726 45.3799 50.8372Z" fill="white" stroke="#1A1A1A" stroke-width="0.6" stroke-miterlimit="10"/>
<path d="M45.6548 50.5204L47.1777 52.5488C47.2768 52.4375 47.3935 52.3499 47.4926 52.2386L45.9696 50.2103C45.8706 50.3215 45.7716 50.4328 45.6548 50.5204Z" fill="white" stroke="#1A1A1A" stroke-width="0.6" stroke-miterlimit="10"/>
<path d="M45.9885 50.2347L47.5115 52.263C47.6105 52.1518 47.7273 52.0641 47.8263 51.9529L46.3034 49.9245C46.2043 50.0358 46.0876 50.1234 45.9885 50.2347Z" fill="white" stroke="#1A1A1A" stroke-width="0.6" stroke-miterlimit="10"/>
<path d="M46.3053 49.9253L47.8282 51.9537C47.9506 51.8249 48.0674 51.7372 48.2075 51.632L46.6846 49.6037C46.5445 49.7089 46.4454 49.8201 46.3053 49.9253Z" fill="white" stroke="#1A1A1A" stroke-width="0.6" stroke-miterlimit="10"/>
<path d="M46.6791 49.6023L48.202 51.6307C48.3421 51.5255 48.4879 51.3792 48.628 51.274L47.105 49.2456C46.9416 49.3683 46.8015 49.4735 46.6791 49.6023Z" fill="white" stroke="#1A1A1A" stroke-width="0.6" stroke-miterlimit="10"/>
<path d="M47.1093 49.244L48.6322 51.2724C48.8657 51.0971 49.0582 50.9157 49.2917 50.7404L47.7687 48.712C47.5352 48.8873 47.3017 49.0627 47.1093 49.244Z" fill="white" stroke="#1A1A1A" stroke-width="0.6" stroke-miterlimit="10"/>
<path d="M47.748 48.7339L49.271 50.7622C49.5746 50.5343 49.9015 50.2889 50.2227 50.0845L48.6998 48.0562C48.3962 48.2841 48.075 48.4884 47.748 48.7339Z" fill="white" stroke="#1A1A1A" stroke-width="0.6" stroke-miterlimit="10"/>
<path d="M48.717 48.0796L50.24 50.1079C50.4912 49.9562 50.7481 49.7633 51.017 49.6352L49.494 47.6068C49.2251 47.735 48.9739 47.8867 48.717 48.0796Z" fill="white" stroke="#1A1A1A" stroke-width="0.6" stroke-miterlimit="10"/>
<path d="M49.4749 47.5806L50.9978 49.6089C51.179 49.5098 51.3601 49.4106 51.5413 49.3115L50.0184 47.2831C49.8372 47.3823 49.656 47.4814 49.4749 47.5806Z" fill="white" stroke="#1A1A1A" stroke-width="0.6" stroke-miterlimit="10"/>
<path d="M50.0173 47.2865L51.5403 49.3148C51.6981 49.2332 51.8326 49.1692 51.9904 49.0875L50.4674 47.0592C50.2919 47.1172 50.1574 47.1813 50.0173 47.2865Z" fill="white" stroke="#1A1A1A" stroke-width="0.6" stroke-miterlimit="10"/>
<path d="M50.4492 47.036L51.9722 49.0644C52.13 48.9827 52.2644 48.9187 52.4223 48.8371L50.8993 46.8087C50.7415 46.8903 50.607 46.9544 50.4492 47.036Z" fill="white" stroke="#1A1A1A" stroke-width="0.6" stroke-miterlimit="10"/>
<path d="M50.9043 46.8041L52.4272 48.8324C52.5617 48.7683 52.7195 48.6867 52.854 48.6227L51.331 46.5943C51.1966 46.6584 51.0388 46.74 50.9043 46.8041Z" fill="white" stroke="#1A1A1A" stroke-width="0.6" stroke-miterlimit="10"/>
<path d="M51.3416 46.6218L52.8645 48.6502C52.999 48.5861 53.1745 48.5281 53.3089 48.464L51.786 46.4356C51.6338 46.4761 51.476 46.5577 51.3416 46.6218Z" fill="white" stroke="#1A1A1A" stroke-width="0.6" stroke-miterlimit="10"/>
<path d="M51.7683 46.4127L53.2913 48.4411C53.4257 48.377 53.6012 48.319 53.7357 48.2549L52.2128 46.2265C52.0783 46.2906 51.9438 46.3547 51.7683 46.4127Z" fill="white" stroke="#1A1A1A" stroke-width="0.6" stroke-miterlimit="10"/>
<path d="M52.2319 46.2471L53.7549 48.2754C53.907 48.2349 54.0649 48.1533 54.217 48.1128L52.6941 46.0845C52.5419 46.125 52.3897 46.1655 52.2319 46.2471Z" fill="white" stroke="#1A1A1A" stroke-width="0.6" stroke-miterlimit="10"/>
<path d="M52.7234 46.069L54.2463 48.0973C54.3985 48.0568 54.5563 47.9752 54.7085 47.9347L53.1855 45.9064C53.01 45.9644 52.8579 46.0049 52.7234 46.069Z" fill="white" stroke="#1A1A1A" stroke-width="0.6" stroke-miterlimit="10"/>
<path d="M53.1577 45.9178L54.6807 47.9462C54.8328 47.9057 54.985 47.8652 55.1372 47.8247L53.6142 45.7964C53.4854 45.8193 53.3332 45.8598 53.1577 45.9178Z" fill="white" stroke="#1A1A1A" stroke-width="0.6" stroke-miterlimit="10"/>
<path d="M53.6379 45.7874L55.1609 47.8157C55.3131 47.7752 55.4652 47.7347 55.594 47.7118L54.0711 45.6834C53.9012 45.7003 53.7724 45.7233 53.6379 45.7874Z" fill="white" stroke="#1A1A1A" stroke-width="0.6" stroke-miterlimit="10"/>
<path d="M54.0728 45.6797L55.5957 47.708C55.7479 47.6675 55.8767 47.6446 56.0289 47.6041L54.5059 45.5757C54.3537 45.6162 54.2249 45.6392 54.0728 45.6797Z" fill="white" stroke="#1A1A1A" stroke-width="0.6" stroke-miterlimit="10"/>
<path d="M54.5071 45.5741L56.03 47.6024C56.1588 47.5795 56.311 47.539 56.4398 47.516L54.9169 45.4877C54.7881 45.5106 54.6359 45.5511 54.5071 45.5741Z" fill="white" stroke="#1A1A1A" stroke-width="0.6" stroke-miterlimit="10"/>
<path d="M54.9099 45.485L56.4329 47.5133C56.5617 47.4904 56.6905 47.4674 56.837 47.468L55.3141 45.4397C55.1675 45.4391 55.0387 45.462 54.9099 45.485Z" fill="white" stroke="#1A1A1A" stroke-width="0.6" stroke-miterlimit="10"/>
<path d="M55.322 45.4436L56.845 47.4719C56.886 47.478 56.9094 47.4605 56.9504 47.4665L55.4275 45.4382C55.3864 45.4321 55.3454 45.4261 55.322 45.4436Z" fill="white" stroke="#1A1A1A" stroke-width="0.6" stroke-miterlimit="10"/>
<path d="M42.4945 61.2737L44.0177 63.3024C42.9727 61.9107 42.8152 59.8525 43.8165 57.4408C45.8248 52.5761 51.6982 48.0924 56.959 47.4624L55.4358 45.4337C50.1927 46.0873 44.3016 50.5474 42.2933 55.4121C41.292 57.8238 41.4495 59.882 42.4945 61.2737Z" stroke="#1A1A1A" stroke-width="0.6" stroke-miterlimit="10"/>
<path d="M62.6471 49.247L61.1239 47.2183C60.0612 45.803 58.082 45.1126 55.4399 45.4364L56.9631 47.4651C59.6052 47.1413 61.5844 47.8317 62.6471 49.247Z" fill="white"/>
<path d="M55.4292 45.4165L56.9521 47.4448C57.0576 47.4394 57.1454 47.4104 57.2508 47.405L55.7279 45.3766C55.6401 45.4057 55.5347 45.4111 55.4292 45.4165Z" fill="white" stroke="#1A1A1A" stroke-width="0.6" stroke-miterlimit="10"/>
<path d="M55.7278 45.3772L57.2507 47.4055C57.3795 47.3826 57.5027 47.4007 57.6315 47.3778L56.1086 45.3494C55.9798 45.3724 55.851 45.3954 55.7278 45.3772Z" fill="white" stroke="#1A1A1A" stroke-width="0.6" stroke-miterlimit="10"/>
<path d="M56.1104 45.3481L57.6333 47.3765C57.7621 47.3535 57.8853 47.3717 57.9908 47.3663L56.4678 45.3379C56.3623 45.3433 56.2335 45.3663 56.1104 45.3481Z" fill="white" stroke="#1A1A1A" stroke-width="0.6" stroke-miterlimit="10"/>
<path d="M56.4846 45.3627L58.0076 47.391C58.113 47.3856 58.2596 47.3862 58.365 47.3808L56.8421 45.3524C56.7189 45.3343 56.6134 45.3397 56.4846 45.3627Z" fill="white" stroke="#1A1A1A" stroke-width="0.6" stroke-miterlimit="10"/>
<path d="M56.8379 45.3481L58.3608 47.3765C58.484 47.3946 58.5895 47.3892 58.7127 47.4074L57.1897 45.379C57.0665 45.3609 56.9434 45.3427 56.8379 45.3481Z" fill="white" stroke="#1A1A1A" stroke-width="0.6" stroke-miterlimit="10"/>
<path d="M57.1934 45.3813L58.7163 47.4097C58.8395 47.4279 58.9449 47.4224 59.0681 47.4406L57.5452 45.4122C57.4454 45.3765 57.3222 45.3584 57.1934 45.3813Z" fill="white" stroke="#1A1A1A" stroke-width="0.6" stroke-miterlimit="10"/>
<path d="M57.5298 45.3895L59.0527 47.4179C59.1759 47.436 59.2991 47.4542 59.4046 47.4488L57.8816 45.4204C57.7761 45.4258 57.653 45.4077 57.5298 45.3895Z" fill="white" stroke="#1A1A1A" stroke-width="0.6" stroke-miterlimit="10"/>
<path d="M57.8984 45.4414L59.4214 47.4698C59.5446 47.4879 59.6677 47.5061 59.7676 47.5418L58.2446 45.5134C58.1448 45.4777 58.0216 45.4596 57.8984 45.4414Z" fill="white" stroke="#1A1A1A" stroke-width="0.6" stroke-miterlimit="10"/>
<path d="M58.2444 45.5159L59.7673 47.5442C59.8905 47.5624 59.9903 47.5981 60.1312 47.6398L58.6083 45.6115C58.4907 45.5522 58.3676 45.534 58.2444 45.5159Z" fill="white" stroke="#1A1A1A" stroke-width="0.6" stroke-miterlimit="10"/>
<path d="M58.585 45.5884L60.1079 47.6167C60.2311 47.6349 60.3486 47.6942 60.4485 47.7298L58.9255 45.7015C58.8257 45.6658 58.7258 45.6301 58.585 45.5884Z" fill="white" stroke="#1A1A1A" stroke-width="0.6" stroke-miterlimit="10"/>
<path d="M58.9534 45.6815L60.4763 47.7099C60.6172 47.7516 60.717 47.7873 60.8346 47.8466L59.3116 45.8182C59.2118 45.7825 59.0709 45.7408 58.9534 45.6815Z" fill="white" stroke="#1A1A1A" stroke-width="0.6" stroke-miterlimit="10"/>
<path d="M59.3293 45.8472L60.8523 47.8755C60.9932 47.9173 61.1284 48.0001 61.246 48.0594L59.723 46.031C59.5878 45.9482 59.4469 45.9064 59.3293 45.8472Z" fill="white" stroke="#1A1A1A" stroke-width="0.6" stroke-miterlimit="10"/>
<path d="M59.7239 46.0315L61.2468 48.0598C61.3821 48.1427 61.5173 48.2256 61.6526 48.3084L60.1296 46.2801C59.9944 46.1972 59.8591 46.1144 59.7239 46.0315Z" fill="white" stroke="#1A1A1A" stroke-width="0.6" stroke-miterlimit="10"/>
<path d="M60.1265 46.28L61.6494 48.3084C61.8201 48.4384 61.973 48.5449 62.1203 48.6924L60.5974 46.6641C60.4501 46.5165 60.2971 46.4101 60.1265 46.28Z" fill="white" stroke="#1A1A1A" stroke-width="0.6" stroke-miterlimit="10"/>
<path d="M60.6013 46.661L62.1243 48.6894C62.3126 48.843 62.472 49.0552 62.6137 49.2439L61.0907 47.2156C60.9724 47.0094 60.7897 46.8146 60.6013 46.661Z" fill="white" stroke="#1A1A1A" stroke-width="0.6" stroke-miterlimit="10"/>
<path d="M62.6471 49.247L61.1239 47.2183C60.0612 45.803 58.082 45.1126 55.4399 45.4364L56.9631 47.4651C59.6052 47.1413 61.5844 47.8317 62.6471 49.247Z" stroke="#1A1A1A" stroke-width="0.6" stroke-miterlimit="10"/>
<path d="M42.2864 61.4381L43.8096 63.4668C44.89 64.9058 46.928 65.6258 49.6111 65.308L48.0879 63.2793C45.387 63.5735 43.3901 62.8595 42.2864 61.4381Z" fill="white"/>
<path d="M42.2864 61.4381L43.8096 63.4668C44.89 64.9058 46.928 65.6258 49.6111 65.308L48.0879 63.2793C45.387 63.5735 43.3901 62.8595 42.2864 61.4381Z" fill="white" stroke="#1A1A1A" stroke-width="0.6" stroke-miterlimit="10"/>
<path d="M62.8543 49.0939L61.3311 47.0652C62.3938 48.4805 62.5457 50.5798 61.5565 53.0563C59.5136 58.0207 53.5001 62.6096 48.1338 63.2451L49.657 65.2738C55.0056 64.6147 61.0368 60.0494 63.0797 55.085C64.0689 52.6085 63.9171 50.5092 62.8543 49.0939Z" fill="#1A1A1A" stroke="#1A1A1A" stroke-width="0.6"/>
<path d="M62.8544 49.0939L61.3311 47.0652C62.3938 48.4805 62.5457 50.5798 61.5565 53.0563C59.5136 58.0207 53.5001 62.6096 48.1338 63.2451L49.657 65.2738C55.0056 64.6147 61.0368 60.0494 63.0797 55.085C64.0689 52.6085 63.9171 50.5092 62.8544 49.0939Z" stroke="#1A1A1A" stroke-width="0.6" stroke-miterlimit="10"/>
<path d="M61.5198 53.0535C63.5627 48.089 60.8593 44.5857 55.5107 45.2447C50.1621 45.9038 44.1309 50.4691 42.088 55.4336C40.0451 60.398 42.7486 63.9014 48.0972 63.2423C53.4634 62.6068 59.4769 58.0179 61.5198 53.0535Z" fill="white" stroke="#1A1A1A" stroke-width="0.6" stroke-miterlimit="10"/>
<path d="M59.3912 52.9484C61.0523 48.9347 58.8681 46.0743 54.5213 46.6083C50.1745 47.1423 45.311 50.8308 43.6676 54.8682C42.0066 58.882 44.1908 61.7423 48.5376 61.2083C52.8844 60.6743 57.7479 56.9858 59.3912 52.9484Z" fill="white" stroke="#1A1A1A" stroke-width="0.6" stroke-miterlimit="10"/>
<path d="M33.7533 43.1273L31.8396 44.7926C33.1525 43.6501 35.194 43.3448 37.6715 44.1699C42.6682 45.8227 47.5631 51.3581 48.5702 56.5599L50.484 54.8945C49.4546 49.7121 44.5819 44.1574 39.5853 42.5046C37.1077 41.6795 35.0663 41.9848 33.7533 43.1273Z" fill="white"/>
<path d="M33.7466 43.1149L31.8332 44.7799C32.3226 44.354 32.9302 44.0188 33.6497 43.8572L35.5632 42.1922C34.8628 42.3758 34.2583 42.6696 33.7466 43.1149Z" fill="white" stroke="#1A1A1A" stroke-width="0.6" stroke-miterlimit="10"/>
<path d="M35.5651 42.196L33.6516 43.861C33.8426 43.8109 34.075 43.7635 34.2852 43.7355L36.1986 42.0704C35.9885 42.0985 35.7561 42.1459 35.5651 42.196Z" fill="white" stroke="#1A1A1A" stroke-width="0.6" stroke-miterlimit="10"/>
<path d="M36.1968 42.0661L34.2834 43.7311C34.4521 43.7004 34.6178 43.7111 34.7865 43.6803L36.7 42.0153C36.5312 42.046 36.3656 42.0354 36.1968 42.0661Z" fill="white" stroke="#1A1A1A" stroke-width="0.6" stroke-miterlimit="10"/>
<path d="M36.7218 42.0376L34.8083 43.7026C34.9548 43.6913 35.1205 43.702 35.267 43.6906L37.1805 42.0256C37.0148 42.0149 36.8683 42.0263 36.7218 42.0376Z" fill="white" stroke="#1A1A1A" stroke-width="0.6" stroke-miterlimit="10"/>
<path d="M37.1771 42.0266L35.2637 43.6916C35.4102 43.6802 35.5536 43.7103 35.7193 43.7209L37.6327 42.0559C37.4671 42.0452 37.3014 42.0346 37.1771 42.0266Z" fill="white" stroke="#1A1A1A" stroke-width="0.6" stroke-miterlimit="10"/>
<path d="M37.6125 42.0749L35.6991 43.7399C35.8233 43.7479 35.9667 43.7779 36.1102 43.808L38.0236 42.1429C37.8833 42.0715 37.759 42.0635 37.6125 42.0749Z" fill="white" stroke="#1A1A1A" stroke-width="0.6" stroke-miterlimit="10"/>
<path d="M38.029 42.1039L36.1156 43.7689C36.2398 43.777 36.3832 43.807 36.5267 43.837L38.4401 42.172C38.2744 42.1613 38.1724 42.134 38.029 42.1039Z" fill="white" stroke="#1A1A1A" stroke-width="0.6" stroke-miterlimit="10"/>
<path d="M38.4177 42.1881L36.5043 43.8531C36.6477 43.8831 36.7497 43.9105 36.8931 43.9405L38.8065 42.2755C38.6854 42.2261 38.542 42.1961 38.4177 42.1881Z" fill="white" stroke="#1A1A1A" stroke-width="0.6" stroke-miterlimit="10"/>
<path d="M38.804 42.2743L36.8905 43.9393C37.034 43.9694 37.136 43.9967 37.2571 44.0461L39.1706 42.3811C39.0494 42.3317 38.9282 42.2823 38.804 42.2743Z" fill="white" stroke="#1A1A1A" stroke-width="0.6" stroke-miterlimit="10"/>
<path d="M39.1941 42.3675L37.2807 44.0325C37.4018 44.0819 37.5453 44.1119 37.6664 44.1613L39.5799 42.4963C39.4395 42.4249 39.3153 42.4169 39.1941 42.3675Z" fill="white" stroke="#1A1A1A" stroke-width="0.6" stroke-miterlimit="10"/>
<path d="M39.5577 42.4724L37.6442 44.1374L37.6634 44.1594C37.7846 44.2088 37.8866 44.2362 38.0077 44.2856L39.9212 42.6205C39.8223 42.5518 39.7203 42.5244 39.5577 42.4724C39.5704 42.4871 39.5704 42.4871 39.5577 42.4724Z" fill="white"/>
<path d="M39.5577 42.4724L37.6442 44.1374L37.6634 44.1594C37.7846 44.2088 37.8866 44.2362 38.0077 44.2856L39.9212 42.6205C39.8223 42.5518 39.7203 42.5244 39.5577 42.4724C39.5704 42.4871 39.5704 42.4871 39.5577 42.4724" stroke="#1A1A1A" stroke-width="0.6" stroke-miterlimit="10"/>
<path d="M39.9473 42.6008L38.0339 44.2658C38.155 44.3152 38.2762 44.3646 38.3974 44.414L40.3108 42.749C40.1897 42.6996 40.0685 42.6502 39.9473 42.6008Z" fill="white" stroke="#1A1A1A" stroke-width="0.6" stroke-miterlimit="10"/>
<path d="M40.3072 42.7478L38.3937 44.4128C38.5149 44.4622 38.6361 44.5116 38.7573 44.5609L40.6707 42.8959C40.5687 42.8686 40.4283 42.7971 40.3072 42.7478Z" fill="white" stroke="#1A1A1A" stroke-width="0.6" stroke-miterlimit="10"/>
<path d="M40.6944 42.9176L38.7809 44.5826C38.9021 44.632 39.0233 44.6814 39.1636 44.7528L41.0771 43.0878C40.9367 43.0163 40.8156 42.9669 40.6944 42.9176Z" fill="white" stroke="#1A1A1A" stroke-width="0.6" stroke-miterlimit="10"/>
<path d="M41.0553 43.068L39.1418 44.733C39.263 44.7824 39.4033 44.8538 39.5023 44.9226L41.4157 43.2576C41.2945 43.2082 41.1956 43.1394 41.0553 43.068Z" fill="white" stroke="#1A1A1A" stroke-width="0.6" stroke-miterlimit="10"/>
<path d="M41.4337 43.2771L39.5202 44.9421C39.6414 44.9915 39.7595 45.0823 39.8998 45.1537L41.8133 43.4887C41.6952 43.3979 41.5548 43.3265 41.4337 43.2771Z" fill="white" stroke="#1A1A1A" stroke-width="0.6" stroke-miterlimit="10"/>
<path d="M41.7923 43.4718L39.8789 45.1368C40.0192 45.2082 40.1181 45.277 40.2585 45.3484L42.1719 43.6834C42.0507 43.634 41.9327 43.5432 41.7923 43.4718Z" fill="white" stroke="#1A1A1A" stroke-width="0.6" stroke-miterlimit="10"/>
<path d="M42.2003 43.7037L40.2868 45.3688C40.4272 45.4402 40.5453 45.531 40.6856 45.6024L42.599 43.9374C42.4395 43.8439 42.3214 43.7531 42.2003 43.7037Z" fill="white" stroke="#1A1A1A" stroke-width="0.6" stroke-miterlimit="10"/>
<path d="M42.5736 43.9141L40.6602 45.5791C40.7782 45.6699 40.9186 45.7413 41.0367 45.8321L42.9501 44.1671C42.8098 44.0957 42.6917 44.0049 42.5736 43.9141Z" fill="white" stroke="#1A1A1A" stroke-width="0.6" stroke-miterlimit="10"/>
<path d="M42.9508 44.1668L41.0374 45.8318C41.1554 45.9226 41.2958 45.994 41.4139 46.0848L43.3273 44.4198C43.187 44.3484 43.0689 44.2576 42.9508 44.1668Z" fill="white" stroke="#1A1A1A" stroke-width="0.6" stroke-miterlimit="10"/>
<path d="M43.3292 44.4208L41.4158 46.0858C41.5339 46.1766 41.652 46.2673 41.7701 46.3581L43.6835 44.6931C43.5654 44.6023 43.4473 44.5115 43.3292 44.4208Z" fill="white" stroke="#1A1A1A" stroke-width="0.6" stroke-miterlimit="10"/>
<path d="M43.6776 44.692L41.7642 46.357C41.8823 46.4478 42.0004 46.5386 42.1185 46.6293L44.0319 44.9643C43.9138 44.8736 43.7957 44.7828 43.6776 44.692Z" fill="white" stroke="#1A1A1A" stroke-width="0.6" stroke-miterlimit="10"/>
<path d="M44.0338 44.9632L42.1204 46.6282C42.2385 46.719 42.3566 46.8098 42.4747 46.9006L44.3881 45.2356C44.27 45.1448 44.1519 45.054 44.0338 44.9632Z" fill="white" stroke="#1A1A1A" stroke-width="0.6" stroke-miterlimit="10"/>
<path d="M44.3698 45.2525L42.4564 46.9175C42.5745 47.0083 42.6925 47.099 42.7884 47.2092L44.7018 45.5442C44.606 45.434 44.4879 45.3432 44.3698 45.2525Z" fill="white" stroke="#1A1A1A" stroke-width="0.6" stroke-miterlimit="10"/>
<path d="M44.7043 45.505L42.7908 47.17C42.9089 47.2608 43.0048 47.371 43.1229 47.4617L45.0363 45.7967C44.9182 45.706 44.8001 45.6152 44.7043 45.505Z" fill="white" stroke="#1A1A1A" stroke-width="0.6" stroke-miterlimit="10"/>
<path d="M45.0143 45.8178L43.1009 47.4828C43.219 47.5736 43.3148 47.6837 43.4329 47.7745L45.3464 46.1095C45.2283 46.0187 45.1324 45.9086 45.0143 45.8178Z" fill="white" stroke="#1A1A1A" stroke-width="0.6" stroke-miterlimit="10"/>
<path d="M45.3462 46.111L43.4327 47.776C43.57 47.8889 43.6658 47.999 43.7808 48.1312L45.6943 46.4662C45.5793 46.334 45.4612 46.2432 45.3462 46.111Z" fill="white" stroke="#1A1A1A" stroke-width="0.6" stroke-miterlimit="10"/>
<path d="M45.6945 46.461L43.7811 48.126C43.8961 48.2582 44.0525 48.393 44.1675 48.5252L46.081 46.8602C45.9468 46.706 45.8318 46.5738 45.6945 46.461Z" fill="white" stroke="#1A1A1A" stroke-width="0.6" stroke-miterlimit="10"/>
<path d="M46.0832 46.8627L44.1698 48.5278C44.3615 48.748 44.5562 48.9269 44.7479 49.1472L46.6613 47.4822C46.4697 47.2619 46.278 47.0416 46.0832 46.8627Z" fill="white" stroke="#1A1A1A" stroke-width="0.6" stroke-miterlimit="10"/>
<path d="M46.6387 47.4646L44.7252 49.1296C44.9744 49.416 45.2428 49.7244 45.4697 50.0301L47.3831 48.3651C47.134 48.0787 46.907 47.773 46.6387 47.4646Z" fill="white" stroke="#1A1A1A" stroke-width="0.6" stroke-miterlimit="10"/>
<path d="M47.3599 48.3839L45.4464 50.0489C45.6159 50.2886 45.8267 50.5309 45.9739 50.7899L47.8873 49.1249C47.7401 48.8659 47.5707 48.6262 47.3599 48.3839Z" fill="white" stroke="#1A1A1A" stroke-width="0.6" stroke-miterlimit="10"/>
<path d="M47.9133 49.1024L45.9999 50.7674C46.1118 50.941 46.2237 51.1146 46.3357 51.2881L48.2491 49.6231C48.1372 49.4495 48.0253 49.276 47.9133 49.1024Z" fill="white" stroke="#1A1A1A" stroke-width="0.6" stroke-miterlimit="10"/>
<path d="M48.2456 49.6222L46.3322 51.2872C46.4249 51.4387 46.4985 51.5682 46.5913 51.7198L48.5047 50.0548C48.4342 49.8839 48.3606 49.7544 48.2456 49.6222Z" fill="white" stroke="#1A1A1A" stroke-width="0.6" stroke-miterlimit="10"/>
<path d="M48.5251 50.0363L46.6117 51.7013C46.7045 51.8528 46.778 51.9823 46.8708 52.1338L48.7842 50.4688C48.6915 50.3173 48.6179 50.1878 48.5251 50.0363Z" fill="white" stroke="#1A1A1A" stroke-width="0.6" stroke-miterlimit="10"/>
<path d="M48.7896 50.4733L46.8761 52.1383C46.9497 52.2678 47.0425 52.4193 47.1161 52.5488L49.0295 50.8838C48.9559 50.7543 48.8631 50.6028 48.7896 50.4733Z" fill="white" stroke="#1A1A1A" stroke-width="0.6" stroke-miterlimit="10"/>
<path d="M49.0039 50.8956L47.0905 52.5606C47.1641 52.6901 47.2346 52.861 47.3082 52.9905L49.2216 51.3255C49.1703 51.1767 49.0775 51.0251 49.0039 50.8956Z" fill="white" stroke="#1A1A1A" stroke-width="0.6" stroke-miterlimit="10"/>
<path d="M49.2422 51.3057L47.3287 52.9707C47.4023 53.1002 47.4728 53.2711 47.5464 53.4006L49.4599 51.7356C49.3863 51.6061 49.3127 51.4766 49.2422 51.3057Z" fill="white" stroke="#1A1A1A" stroke-width="0.6" stroke-miterlimit="10"/>
<path d="M49.4414 51.7571L47.528 53.4221C47.5793 53.571 47.6721 53.7225 47.7234 53.8713L49.6368 52.2063C49.5855 52.0575 49.5342 51.9086 49.4414 51.7571Z" fill="white" stroke="#1A1A1A" stroke-width="0.6" stroke-miterlimit="10"/>
<path d="M49.6536 52.2354L47.7401 53.9004C47.7915 54.0492 47.8842 54.2008 47.9356 54.3496L49.849 52.6846C49.7785 52.5137 49.7272 52.3649 49.6536 52.2354Z" fill="white" stroke="#1A1A1A" stroke-width="0.6" stroke-miterlimit="10"/>
<path d="M49.8364 52.6558L47.923 54.3208C47.9743 54.4696 48.0257 54.6185 48.077 54.7674L49.9905 53.1023C49.9583 52.9755 49.9069 52.8267 49.8364 52.6558Z" fill="white" stroke="#1A1A1A" stroke-width="0.6" stroke-miterlimit="10"/>
<path d="M50.001 53.1257L48.0875 54.7907C48.1389 54.9396 48.1902 55.0885 48.2224 55.2153L50.1358 53.5503C50.1067 53.3821 50.0746 53.2552 50.001 53.1257Z" fill="white" stroke="#1A1A1A" stroke-width="0.6" stroke-miterlimit="10"/>
<path d="M50.1396 53.5524L48.2262 55.2174C48.2775 55.3662 48.3097 55.4931 48.3611 55.6419L50.2745 53.9769C50.2232 53.8281 50.191 53.7012 50.1396 53.5524Z" fill="white" stroke="#1A1A1A" stroke-width="0.6" stroke-miterlimit="10"/>
<path d="M50.2754 53.9789L48.3619 55.6439C48.3941 55.7707 48.4455 55.9196 48.4776 56.0464L50.3911 54.3814C50.3589 54.2546 50.3076 54.1057 50.2754 53.9789Z" fill="white" stroke="#1A1A1A" stroke-width="0.6" stroke-miterlimit="10"/>
<path d="M50.3945 54.3723L48.4811 56.0373C48.5133 56.1642 48.5454 56.291 48.5554 56.4372L50.4688 54.7722C50.4589 54.626 50.4267 54.4991 50.3945 54.3723Z" fill="white" stroke="#1A1A1A" stroke-width="0.6" stroke-miterlimit="10"/>
<path d="M50.4653 54.7823L48.5519 56.4474C48.5488 56.4888 48.568 56.5108 48.5649 56.5522L50.4783 54.8872C50.4814 54.8458 50.4845 54.8044 50.4653 54.7823Z" fill="white" stroke="#1A1A1A" stroke-width="0.6" stroke-miterlimit="10"/>
<path d="M33.7533 43.1273L31.8396 44.7926C33.1525 43.6501 35.194 43.3448 37.6715 44.1699C42.6682 45.8227 47.5631 51.3581 48.5702 56.5599L50.484 54.8945C49.4546 49.7121 44.5819 44.1574 39.5853 42.5046C37.1077 41.6795 35.0663 41.9848 33.7533 43.1273Z" stroke="#1A1A1A" stroke-width="0.6" stroke-miterlimit="10"/>
<path d="M47.201 62.3609L49.1148 60.6956C50.45 59.5337 50.9961 57.51 50.4829 54.8981L48.5691 56.5634C49.0823 59.1753 48.5362 61.199 47.201 62.3609Z" fill="white"/>
<path d="M50.5039 54.8873L48.5905 56.5523C48.6035 56.6572 48.6387 56.7426 48.6517 56.8474L50.5652 55.1824C50.5299 55.0969 50.5169 54.9921 50.5039 54.8873Z" fill="white" stroke="#1A1A1A" stroke-width="0.6" stroke-miterlimit="10"/>
<path d="M50.5654 55.1835L48.652 56.8485C48.6842 56.9753 48.6749 57.0995 48.7071 57.2263L50.6205 55.5613C50.5884 55.4345 50.5562 55.3076 50.5654 55.1835Z" fill="white" stroke="#1A1A1A" stroke-width="0.6" stroke-miterlimit="10"/>
<path d="M50.6213 55.5624L48.7079 57.2274C48.7401 57.3542 48.7308 57.4784 48.7438 57.5832L50.6573 55.9182C50.6443 55.8134 50.6121 55.6865 50.6213 55.5624Z" fill="white" stroke="#1A1A1A" stroke-width="0.6" stroke-miterlimit="10"/>
<path d="M50.6343 55.9371L48.7208 57.6022C48.7338 57.707 48.7438 57.8531 48.7568 57.958L50.6702 56.2929C50.6795 56.1688 50.6665 56.064 50.6343 55.9371Z" fill="white" stroke="#1A1A1A" stroke-width="0.6" stroke-miterlimit="10"/>
<path d="M50.6736 56.2871L48.7601 57.9521C48.7509 58.0763 48.7639 58.1811 48.7547 58.3053L50.6681 56.6402C50.6773 56.5161 50.6866 56.3919 50.6736 56.2871Z" fill="white" stroke="#1A1A1A" stroke-width="0.6" stroke-miterlimit="10"/>
<path d="M50.6655 56.6454L48.7521 58.3104C48.7428 58.4346 48.7558 58.5394 48.7466 58.6635L50.66 56.9985C50.6885 56.8964 50.6977 56.7722 50.6655 56.6454Z" fill="white" stroke="#1A1A1A" stroke-width="0.6" stroke-miterlimit="10"/>
<path d="M50.6826 56.9808L48.7692 58.6458C48.7599 58.77 48.7507 58.8942 48.7637 58.999L50.6771 57.334C50.6641 57.2292 50.6734 57.105 50.6826 56.9808Z" fill="white" stroke="#1A1A1A" stroke-width="0.6" stroke-miterlimit="10"/>
<path d="M50.656 57.3514L48.7426 59.0165C48.7333 59.1406 48.7241 59.2648 48.6957 59.3669L50.6091 57.7019C50.6375 57.5998 50.6468 57.4756 50.656 57.3514Z" fill="white" stroke="#1A1A1A" stroke-width="0.6" stroke-miterlimit="10"/>
<path d="M50.6079 57.7014L48.6945 59.3664C48.6852 59.4906 48.6568 59.5927 48.6253 59.7363L50.5388 58.0712C50.5894 57.9497 50.5987 57.8256 50.6079 57.7014Z" fill="white" stroke="#1A1A1A" stroke-width="0.6" stroke-miterlimit="10"/>
<path d="M50.5598 58.0471L48.6464 59.7121C48.6371 59.8363 48.5865 59.9578 48.5581 60.0599L50.4715 58.3949C50.4999 58.2928 50.5283 58.1906 50.5598 58.0471Z" fill="white" stroke="#1A1A1A" stroke-width="0.6" stroke-miterlimit="10"/>
<path d="M50.4929 58.422L48.5795 60.087C48.548 60.2305 48.5196 60.3327 48.4689 60.4542L50.3823 58.7892C50.4108 58.687 50.4423 58.5435 50.4929 58.422Z" fill="white" stroke="#1A1A1A" stroke-width="0.6" stroke-miterlimit="10"/>
<path d="M50.356 58.8071L48.4425 60.4721C48.411 60.6157 48.3381 60.7565 48.2875 60.878L50.2009 59.213C50.2738 59.0722 50.3053 58.9286 50.356 58.8071Z" fill="white" stroke="#1A1A1A" stroke-width="0.6" stroke-miterlimit="10"/>
<path d="M50.2 59.2151L48.2865 60.8801C48.2136 61.021 48.1407 61.1618 48.0678 61.3027L49.9812 59.6377C50.0541 59.4968 50.127 59.3559 50.2 59.2151Z" fill="white" stroke="#1A1A1A" stroke-width="0.6" stroke-miterlimit="10"/>
<path d="M49.9817 59.6354L48.0682 61.3004C47.9508 61.48 47.8557 61.6402 47.7191 61.7977L49.6325 60.1327C49.7691 59.9752 49.8643 59.815 49.9817 59.6354Z" fill="white" stroke="#1A1A1A" stroke-width="0.6" stroke-miterlimit="10"/>
<path d="M49.6343 60.1344L47.7208 61.7994C47.5812 61.9984 47.3809 62.1726 47.2029 62.3275L49.1164 60.6625C49.3135 60.5296 49.4946 60.3333 49.6343 60.1344Z" fill="white" stroke="#1A1A1A" stroke-width="0.6" stroke-miterlimit="10"/>
<path d="M47.201 62.3609L49.1148 60.6956C50.45 59.5337 50.9961 57.51 50.4829 54.8981L48.5691 56.5634C49.0823 59.1753 48.5362 61.199 47.201 62.3609Z" stroke="#1A1A1A" stroke-width="0.6" stroke-miterlimit="10"/>
<path d="M33.5767 42.9291L31.6629 44.5944C30.3054 45.7756 29.734 47.8601 30.2441 50.5134L32.1579 48.8481C31.6701 46.1754 32.2384 44.1323 33.5767 42.9291Z" fill="white"/>
<path d="M33.5767 42.9291L31.6629 44.5944C30.3054 45.7756 29.734 47.8601 30.2441 50.5134L32.1579 48.8481C31.6701 46.1754 32.2384 44.1323 33.5767 42.9291Z" fill="white" stroke="#1A1A1A" stroke-width="0.6" stroke-miterlimit="10"/>
<path d="M47.3678 62.5548L49.2816 60.8895C47.9464 62.0514 45.8635 62.354 43.3222 61.5456C38.2236 59.8654 33.2137 54.1978 32.1935 48.8912L30.2797 50.5566C31.3221 55.8438 36.3098 61.5307 41.4085 63.2109C43.9497 64.0193 46.0326 63.7167 47.3678 62.5548Z" fill="#1A1A1A" stroke="#1A1A1A" stroke-width="0.6"/>
<path d="M47.3678 62.5548L49.2816 60.8895C47.9464 62.0514 45.8635 62.354 43.3222 61.5456C38.2236 59.8654 33.2137 54.1978 32.1935 48.8912L30.2797 50.5566C31.3221 55.8438 36.3098 61.5307 41.4085 63.2109C43.9497 64.0193 46.0326 63.7167 47.3678 62.5548Z" stroke="#1A1A1A" stroke-width="0.6" stroke-miterlimit="10"/>
<path d="M43.3244 61.5097C48.4231 63.1899 51.7227 60.2412 50.6803 54.954C49.6379 49.6667 44.6502 43.9798 39.5516 42.2996C34.4529 40.6194 31.1533 43.5681 32.1957 48.8553C33.2159 54.1619 38.2258 59.8295 43.3244 61.5097Z" fill="white" stroke="#1A1A1A" stroke-width="0.6" stroke-miterlimit="10"/>
<path d="M43.2751 59.3771C47.398 60.7448 50.0938 58.3604 49.2482 54.0633C48.4026 49.7662 44.3735 45.1809 40.2283 43.8325C36.1054 42.4647 33.4097 44.8491 34.2553 49.1462C35.1008 53.4433 39.1299 58.0286 43.2751 59.3771Z" fill="white" stroke="#1A1A1A" stroke-width="0.6" stroke-miterlimit="10"/>
<path d="M36.1719 24.2965L34.0592 26.9408C35.5086 25.1267 38.1149 24.2368 41.5644 24.726C48.5185 25.6979 56.2696 31.7899 58.838 38.3758L60.9508 35.7315C58.3577 29.1763 50.6313 23.0535 43.6772 22.0817C40.2276 21.5925 37.6214 22.4824 36.1719 24.2965Z" fill="white"/>
<path d="M36.1575 24.2913L34.0452 26.9352C34.5856 26.2589 35.3027 25.6734 36.2083 25.2888L38.3206 22.645C37.4455 23.0538 36.7225 23.5842 36.1575 24.2913Z" fill="white" stroke="#1A1A1A" stroke-width="0.6" stroke-miterlimit="10"/>
<path d="M38.3243 22.648L36.212 25.2918C36.4507 25.1803 36.7443 25.0624 37.0135 24.9752L39.1258 22.3313C38.8567 22.4185 38.563 22.5364 38.3243 22.648Z" fill="white" stroke="#1A1A1A" stroke-width="0.6" stroke-miterlimit="10"/>
<path d="M39.1224 22.3231L37.0101 24.967C37.2242 24.8862 37.4442 24.8605 37.6583 24.7797L39.7707 22.1359C39.5566 22.2166 39.3366 22.2423 39.1224 22.3231Z" fill="white" stroke="#1A1A1A" stroke-width="0.6" stroke-miterlimit="10"/>
<path d="M39.8034 22.1629L37.691 24.8067C37.8806 24.7567 38.1006 24.731 38.2902 24.681L40.4025 22.0371C40.1825 22.0628 39.993 22.1128 39.8034 22.1629Z" fill="white" stroke="#1A1A1A" stroke-width="0.6" stroke-miterlimit="10"/>
<path d="M40.3988 22.0385L38.2864 24.6824C38.476 24.6323 38.6714 24.6374 38.8914 24.6117L41.0038 21.9678C40.7838 21.9935 40.5638 22.0192 40.3988 22.0385Z" fill="white" stroke="#1A1A1A" stroke-width="0.6" stroke-miterlimit="10"/>
<path d="M40.9835 21.9982L38.8712 24.6421C39.0362 24.6228 39.2316 24.6279 39.427 24.6329L41.5394 21.9891C41.3381 21.929 41.1731 21.9482 40.9835 21.9982Z" fill="white" stroke="#1A1A1A" stroke-width="0.6" stroke-miterlimit="10"/>
<path d="M41.537 21.9329L39.4246 24.5768C39.5896 24.5575 39.7851 24.5626 39.9805 24.5676L42.0929 21.9238C41.8729 21.9494 41.7324 21.938 41.537 21.9329Z" fill="white" stroke="#1A1A1A" stroke-width="0.6" stroke-miterlimit="10"/>
<path d="M42.0659 21.9533L39.9536 24.5972C40.149 24.6023 40.2895 24.6137 40.4849 24.6188L42.5973 21.9749C42.4264 21.9391 42.2309 21.9341 42.0659 21.9533Z" fill="white" stroke="#1A1A1A" stroke-width="0.6" stroke-miterlimit="10"/>
<path d="M42.5942 21.972L40.4818 24.6159C40.6773 24.6209 40.8177 24.6324 40.9886 24.6682L43.1009 22.0243C42.93 21.9885 42.7592 21.9528 42.5942 21.972Z" fill="white" stroke="#1A1A1A" stroke-width="0.6" stroke-miterlimit="10"/>
<path d="M43.1293 22.0038L41.017 24.6476C41.1878 24.6834 41.3833 24.6885 41.5542 24.7243L43.6665 22.0804C43.4652 22.0203 43.3002 22.0396 43.1293 22.0038Z" fill="white" stroke="#1A1A1A" stroke-width="0.6" stroke-miterlimit="10"/>
<path d="M43.6317 22.056L41.5193 24.6999L41.5498 24.7242C41.7206 24.76 41.8611 24.7715 42.0319 24.8073L44.1443 22.1634C43.998 22.0969 43.8575 22.0854 43.6317 22.056C43.652 22.0723 43.652 22.0723 43.6317 22.056Z" fill="white"/>
<path d="M43.6317 22.056L41.5193 24.6999L41.5498 24.7242C41.7206 24.76 41.8611 24.7715 42.0319 24.8073L44.1443 22.1634C43.998 22.0969 43.8575 22.0854 43.6317 22.056C43.652 22.0723 43.652 22.0723 43.6317 22.056" stroke="#1A1A1A" stroke-width="0.6" stroke-miterlimit="10"/>
<path d="M44.1744 22.1318L42.0621 24.7757C42.2329 24.8115 42.4038 24.8473 42.5747 24.8831L44.687 22.2392C44.5161 22.2034 44.3453 22.1676 44.1744 22.1318Z" fill="white" stroke="#1A1A1A" stroke-width="0.6" stroke-miterlimit="10"/>
<path d="M44.6803 22.2343L42.5679 24.8781C42.7388 24.9139 42.9097 24.9497 43.0805 24.9855L45.1929 22.3416C45.0524 22.3302 44.8511 22.27 44.6803 22.2343Z" fill="white" stroke="#1A1A1A" stroke-width="0.6" stroke-miterlimit="10"/>
<path d="M45.2286 22.3648L43.1162 25.0086C43.2871 25.0444 43.458 25.0802 43.6593 25.1403L45.7717 22.4964C45.5703 22.4363 45.3995 22.4005 45.2286 22.3648Z" fill="white" stroke="#1A1A1A" stroke-width="0.6" stroke-miterlimit="10"/>
<path d="M45.7397 22.4752L43.6274 25.1191C43.7983 25.1549 43.9996 25.215 44.1459 25.2815L46.2582 22.6377C46.0874 22.6019 45.941 22.5354 45.7397 22.4752Z" fill="white" stroke="#1A1A1A" stroke-width="0.6" stroke-miterlimit="10"/>
<path d="M46.2878 22.6605L44.1755 25.3044C44.3463 25.3402 44.5231 25.4311 44.7244 25.4912L46.8368 22.8473C46.66 22.7564 46.4587 22.6963 46.2878 22.6605Z" fill="white" stroke="#1A1A1A" stroke-width="0.6" stroke-miterlimit="10"/>
<path d="M46.803 22.8299L44.6906 25.4737C44.8919 25.5338 45.0382 25.6004 45.2395 25.6605L47.3519 23.0166C47.181 22.9808 47.0043 22.89 46.803 22.8299Z" fill="white" stroke="#1A1A1A" stroke-width="0.6" stroke-miterlimit="10"/>
<path d="M47.394 23.0381L45.2817 25.682C45.483 25.7421 45.6597 25.8329 45.861 25.893L47.9734 23.2492C47.7417 23.1647 47.5649 23.0739 47.394 23.0381Z" fill="white" stroke="#1A1A1A" stroke-width="0.6" stroke-miterlimit="10"/>
<path d="M47.9357 23.2244L45.8233 25.8683C46.0001 25.9591 46.2014 26.0192 46.3781 26.1101L48.4905 23.4662C48.2892 23.4061 48.1124 23.3153 47.9357 23.2244Z" fill="white" stroke="#1A1A1A" stroke-width="0.6" stroke-miterlimit="10"/>
<path d="M48.4899 23.4627L46.3775 26.1066C46.5543 26.1974 46.7556 26.2575 46.9323 26.3484L49.0447 23.7045C48.8434 23.6444 48.6666 23.5535 48.4899 23.4627Z" fill="white" stroke="#1A1A1A" stroke-width="0.6" stroke-miterlimit="10"/>
<path d="M49.0474 23.7037L46.935 26.3476C47.1118 26.4384 47.2885 26.5292 47.4653 26.6201L49.5776 23.9762C49.4009 23.8854 49.2241 23.7945 49.0474 23.7037Z" fill="white" stroke="#1A1A1A" stroke-width="0.6" stroke-miterlimit="10"/>
<path d="M49.5701 23.9771L47.4578 26.621C47.6345 26.7118 47.8113 26.8027 47.988 26.8935L50.1004 24.2497C49.9236 24.1588 49.7469 24.068 49.5701 23.9771Z" fill="white" stroke="#1A1A1A" stroke-width="0.6" stroke-miterlimit="10"/>
<path d="M50.1031 24.2507L47.9907 26.8945C48.1675 26.9854 48.3442 27.0762 48.521 27.1671L50.6333 24.5232C50.4566 24.4324 50.2798 24.3415 50.1031 24.2507Z" fill="white" stroke="#1A1A1A" stroke-width="0.6" stroke-miterlimit="10"/>
<path d="M50.6145 24.5499L48.5021 27.1938C48.6788 27.2846 48.8556 27.3755 49.0078 27.497L51.1201 24.8532C50.9679 24.7316 50.7912 24.6407 50.6145 24.5499Z" fill="white" stroke="#1A1A1A" stroke-width="0.6" stroke-miterlimit="10"/>
<path d="M51.1113 24.8005L48.9989 27.4444C49.1757 27.5352 49.3279 27.6568 49.5046 27.7477L51.617 25.1038C51.4402 25.0129 51.2635 24.9221 51.1113 24.8005Z" fill="white" stroke="#1A1A1A" stroke-width="0.6" stroke-miterlimit="10"/>
<path d="M51.5925 25.1375L49.4801 27.7814C49.6569 27.8722 49.8091 27.9938 49.9858 28.0847L52.0982 25.4408C51.9214 25.35 51.7692 25.2284 51.5925 25.1375Z" fill="white" stroke="#1A1A1A" stroke-width="0.6" stroke-miterlimit="10"/>
<path d="M52.1002 25.4457L49.9878 28.0895C50.195 28.2047 50.3472 28.3263 50.5298 28.4722L52.6422 25.8283C52.4596 25.6824 52.2828 25.5916 52.1002 25.4457Z" fill="white" stroke="#1A1A1A" stroke-width="0.6" stroke-miterlimit="10"/>
<path d="M52.6424 25.8161L50.5301 28.46C50.7127 28.6059 50.9503 28.7454 51.1329 28.8913L53.2453 26.2474C53.0322 26.0772 52.8496 25.9313 52.6424 25.8161Z" fill="white" stroke="#1A1A1A" stroke-width="0.6" stroke-miterlimit="10"/>
<path d="M53.2472 26.2521L51.1348 28.8959C51.4392 29.1391 51.7377 29.3272 52.042 29.5704L54.1544 26.9265C53.85 26.6834 53.5457 26.4402 53.2472 26.2521Z" fill="white" stroke="#1A1A1A" stroke-width="0.6" stroke-miterlimit="10"/>
<path d="M54.1206 26.9042L52.0082 29.548C52.4039 29.8642 52.83 30.2046 53.2012 30.5515L55.3135 27.9076C54.9178 27.5915 54.5467 27.2446 54.1206 26.9042Z" fill="white" stroke="#1A1A1A" stroke-width="0.6" stroke-miterlimit="10"/>
<path d="M55.2883 27.9401L53.176 30.5839C53.4558 30.8579 53.7906 31.1254 54.0458 31.43L56.1582 28.7861C55.9029 28.4815 55.6231 28.2076 55.2883 27.9401Z" fill="white" stroke="#1A1A1A" stroke-width="0.6" stroke-miterlimit="10"/>
<path d="M56.1882 28.7535L54.0759 31.3974C54.2644 31.5984 54.4529 31.7994 54.6414 32.0003L56.7537 29.3565C56.5652 29.1555 56.3767 28.9545 56.1882 28.7535Z" fill="white" stroke="#1A1A1A" stroke-width="0.6" stroke-miterlimit="10"/>
<path d="M56.7471 29.3552L54.6347 31.9991C54.7928 32.1757 54.9204 32.3281 55.0785 32.5047L57.1908 29.8609C57.0573 29.6535 56.9297 29.5011 56.7471 29.3552Z" fill="white" stroke="#1A1A1A" stroke-width="0.6" stroke-miterlimit="10"/>
<path d="M57.2134 29.8317L55.101 32.4755C55.2591 32.6522 55.3867 32.8045 55.5448 32.9812L57.6571 30.3373C57.4991 30.1607 57.3714 30.0083 57.2134 29.8317Z" fill="white" stroke="#1A1A1A" stroke-width="0.6" stroke-miterlimit="10"/>
<path d="M57.6648 30.3452L55.5524 32.9891C55.6801 33.1414 55.8381 33.3181 55.9657 33.4704L58.0781 30.8265C57.9505 30.6742 57.7924 30.4975 57.6648 30.3452Z" fill="white" stroke="#1A1A1A" stroke-width="0.6" stroke-miterlimit="10"/>
<path d="M58.0469 30.8463L55.9345 33.4902C56.0621 33.6425 56.1956 33.8499 56.3233 34.0022L58.4356 31.3584C58.3326 31.1753 58.1745 30.9986 58.0469 30.8463Z" fill="white" stroke="#1A1A1A" stroke-width="0.6" stroke-miterlimit="10"/>
<path d="M58.458 31.3263L56.3457 33.9702C56.4733 34.1225 56.6068 34.3299 56.7344 34.4822L58.8467 31.8384C58.7191 31.686 58.5915 31.5337 58.458 31.3263Z" fill="white" stroke="#1A1A1A" stroke-width="0.6" stroke-miterlimit="10"/>
<path d="M58.8293 31.8698L56.717 34.5136C56.82 34.6967 56.9781 34.8733 57.0812 35.0564L59.1935 32.4125C59.0905 32.2295 58.9874 32.0464 58.8293 31.8698Z" fill="white" stroke="#1A1A1A" stroke-width="0.6" stroke-miterlimit="10"/>
<path d="M59.2212 32.4451L57.1088 35.0889C57.2119 35.272 57.37 35.4487 57.473 35.6317L59.5854 32.9879C59.4519 32.7805 59.3488 32.5974 59.2212 32.4451Z" fill="white" stroke="#1A1A1A" stroke-width="0.6" stroke-miterlimit="10"/>
<path d="M59.5623 32.9551L57.4499 35.5989C57.553 35.782 57.656 35.9651 57.7591 36.1482L59.8714 33.5043C59.7988 33.3455 59.6958 33.1625 59.5623 32.9551Z" fill="white" stroke="#1A1A1A" stroke-width="0.6" stroke-miterlimit="10"/>
<path d="M59.8926 33.5338L57.7802 36.1777C57.8833 36.3608 57.9863 36.5438 58.059 36.7026L60.1713 34.0587C60.0928 33.8449 60.0202 33.6861 59.8926 33.5338Z" fill="white" stroke="#1A1A1A" stroke-width="0.6" stroke-miterlimit="10"/>
<path d="M60.1753 34.0597L58.0629 36.7036C58.166 36.8866 58.2386 37.0454 58.3417 37.2285L60.454 34.5846C60.351 34.4015 60.2784 34.2428 60.1753 34.0597Z" fill="white" stroke="#1A1A1A" stroke-width="0.6" stroke-miterlimit="10"/>
<path d="M60.4546 34.5873L58.3422 37.2312C58.4149 37.3899 58.5179 37.573 58.5906 37.7317L60.7029 35.0879C60.6303 34.9291 60.5272 34.746 60.4546 34.5873Z" fill="white" stroke="#1A1A1A" stroke-width="0.6" stroke-miterlimit="10"/>
<path d="M60.7061 35.0743L58.5937 37.7182C58.6663 37.877 58.7389 38.0357 58.787 38.2252L60.8994 35.5813C60.8513 35.3918 60.7787 35.2331 60.7061 35.0743Z" fill="white" stroke="#1A1A1A" stroke-width="0.6" stroke-miterlimit="10"/>
<path d="M60.8984 35.5984L58.7861 38.2423C58.792 38.2973 58.8224 38.3216 58.8283 38.3767L60.9406 35.7328C60.9348 35.6778 60.9289 35.6227 60.8984 35.5984Z" fill="white" stroke="#1A1A1A" stroke-width="0.6" stroke-miterlimit="10"/>
<path d="M36.1719 24.2965L34.0592 26.9408C35.5086 25.1267 38.1149 24.2368 41.5644 24.726C48.5185 25.6979 56.2696 31.7899 58.838 38.3758L60.9508 35.7315C58.3577 29.1763 50.6313 23.0535 43.6772 22.0817C40.2276 21.5925 37.6214 22.4824 36.1719 24.2965Z" stroke="#1A1A1A" stroke-width="0.6" stroke-miterlimit="10"/>
<path d="M58.4327 46.3091L60.5454 43.6648C62.0194 41.8199 62.2511 39.0329 60.9517 35.7278L58.8389 38.3721C60.1384 41.6772 59.9067 44.4643 58.4327 46.3091Z" fill="white"/>
<path d="M60.9773 35.7013L58.8649 38.3452C58.9071 38.4796 58.9739 38.5833 59.0161 38.7177L61.1284 36.0739C61.0617 35.9702 61.0195 35.8357 60.9773 35.7013Z" fill="white" stroke="#1A1A1A" stroke-width="0.6" stroke-miterlimit="10"/>
<path d="M61.1279 36.0735L59.0156 38.7174C59.0882 38.8761 59.1058 39.0413 59.1785 39.2001L61.2908 36.5562C61.2182 36.3974 61.1456 36.2387 61.1279 36.0735Z" fill="white" stroke="#1A1A1A" stroke-width="0.6" stroke-miterlimit="10"/>
<path d="M61.2942 36.5587L59.1818 39.2026C59.2545 39.3613 59.2721 39.5265 59.3143 39.661L61.4266 37.0171C61.3844 36.8826 61.3118 36.7239 61.2942 36.5587Z" fill="white" stroke="#1A1A1A" stroke-width="0.6" stroke-miterlimit="10"/>
<path d="M61.3997 37.0422L59.2873 39.6861C59.3295 39.8205 59.3776 40.01 59.4197 40.1445L61.5321 37.5006C61.5145 37.3354 61.4723 37.201 61.3997 37.0422Z" fill="white" stroke="#1A1A1A" stroke-width="0.6" stroke-miterlimit="10"/>
<path d="M61.5352 37.4957L59.4228 40.1396C59.4404 40.3048 59.4826 40.4392 59.5002 40.6044L61.6126 37.9605C61.595 37.7953 61.5773 37.6302 61.5352 37.4957Z" fill="white" stroke="#1A1A1A" stroke-width="0.6" stroke-miterlimit="10"/>
<path d="M61.6101 37.9669L59.4978 40.6108C59.5154 40.776 59.5576 40.9104 59.5752 41.0756L61.6875 38.4317C61.7004 38.2909 61.6827 38.1257 61.6101 37.9669Z" fill="white" stroke="#1A1A1A" stroke-width="0.6" stroke-miterlimit="10"/>
<path d="M61.7124 38.4064L59.6001 41.0502C59.6177 41.2154 59.6353 41.3806 59.6775 41.515L61.7898 38.8712C61.7477 38.7367 61.73 38.5716 61.7124 38.4064Z" fill="white" stroke="#1A1A1A" stroke-width="0.6" stroke-miterlimit="10"/>
<path d="M61.7666 38.8969L59.6542 41.5407C59.6719 41.7059 59.6895 41.8711 59.6767 42.012L61.789 39.3681C61.8019 39.2272 61.7842 39.062 61.7666 38.8969Z" fill="white" stroke="#1A1A1A" stroke-width="0.6" stroke-miterlimit="10"/>
<path d="M61.7883 39.3698L59.676 42.0136C59.6936 42.1788 59.6808 42.3197 59.6738 42.5156L61.7862 39.8717C61.8236 39.7001 61.806 39.5349 61.7883 39.3698Z" fill="white" stroke="#1A1A1A" stroke-width="0.6" stroke-miterlimit="10"/>
<path d="M61.8064 39.8357L59.694 42.4796C59.7117 42.6447 59.6743 42.8164 59.6615 42.9572L61.7738 40.3133C61.7866 40.1725 61.7995 40.0316 61.8064 39.8357Z" fill="white" stroke="#1A1A1A" stroke-width="0.6" stroke-miterlimit="10"/>
<path d="M61.8096 40.3439L59.6972 42.9877C59.6903 43.1837 59.6775 43.3245 59.6401 43.4961L61.7524 40.8523C61.7653 40.7114 61.7722 40.5155 61.8096 40.3439Z" fill="white" stroke="#1A1A1A" stroke-width="0.6" stroke-miterlimit="10"/>
<path d="M61.7217 40.8838L59.6093 43.5277C59.6024 43.7236 59.5405 43.9259 59.5031 44.0975L61.6154 41.4537C61.6774 41.2513 61.6843 41.0554 61.7217 40.8838Z" fill="white" stroke="#1A1A1A" stroke-width="0.6" stroke-miterlimit="10"/>
<path d="M61.6152 41.4573L59.5029 44.1011C59.4409 44.3035 59.379 44.5058 59.3171 44.7082L61.4294 42.0643C61.4914 41.862 61.5533 41.6596 61.6152 41.4573Z" fill="white" stroke="#1A1A1A" stroke-width="0.6" stroke-miterlimit="10"/>
<path d="M61.4297 42.0555L59.3173 44.6994C59.2063 44.9632 59.1198 45.1963 58.9783 45.4359L61.0906 42.792C61.2321 42.5525 61.3186 42.3194 61.4297 42.0555Z" fill="white" stroke="#1A1A1A" stroke-width="0.6" stroke-miterlimit="10"/>
<path d="M61.0925 42.7985L58.9802 45.4423C58.8445 45.7369 58.6235 46.0136 58.427 46.2595L60.5393 43.6157C60.7663 43.394 60.9569 43.093 61.0925 42.7985Z" fill="white" stroke="#1A1A1A" stroke-width="0.6" stroke-miterlimit="10"/>
<path d="M58.4327 46.3091L60.5454 43.6648C62.0194 41.8199 62.2511 39.0329 60.9517 35.7278L58.8389 38.3721C60.1384 41.6772 59.9067 44.4643 58.4327 46.3091Z" stroke="#1A1A1A" stroke-width="0.6" stroke-miterlimit="10"/>
<path d="M35.8955 24.0771L33.7828 26.7215C32.2842 28.5971 32.0338 31.4699 33.3391 34.8301L35.4518 32.1858C34.1711 28.7949 34.4274 25.9771 35.8955 24.0771Z" fill="white"/>
<path d="M35.8955 24.0771L33.7828 26.7215C32.2842 28.5971 32.0338 31.4699 33.3391 34.8301L35.4518 32.1858C34.1711 28.7949 34.4274 25.9771 35.8955 24.0771Z" fill="white" stroke="#1A1A1A" stroke-width="0.6" stroke-miterlimit="10"/>
<path d="M58.7008 46.5335L60.8135 43.8892C59.3395 45.7341 56.6782 46.6304 53.1491 46.1784C46.0545 45.195 38.1209 38.9571 35.5102 32.2367L33.3975 34.881C36.0327 41.5707 43.9418 47.8394 51.0364 48.8227C54.5655 49.2747 57.2268 48.3784 58.7008 46.5335Z" fill="#1A1A1A" stroke="#1A1A1A" stroke-width="0.6"/>
<path d="M58.7008 46.5335L60.8135 43.8892C59.3395 45.7341 56.6782 46.6304 53.1491 46.1784C46.0545 45.195 38.1209 38.9571 35.5102 32.2367L33.3975 34.881C36.0327 41.5707 43.9418 47.8394 51.0364 48.8227C54.5655 49.2747 57.2268 48.3784 58.7008 46.5335Z" stroke="#1A1A1A" stroke-width="0.6" stroke-miterlimit="10"/>
<path d="M53.142 46.1276C60.2366 47.1109 63.8607 42.4501 61.2255 35.7605C58.5903 29.0708 50.6811 22.8021 43.5866 21.8187C36.492 20.8354 32.8679 25.4962 35.5031 32.1859C38.1138 38.9062 46.0475 45.1442 53.142 46.1276Z" fill="white" stroke="#1A1A1A" stroke-width="0.6" stroke-miterlimit="10"/>
<ellipse cx="48.4256" cy="33.5518" rx="12.6827" ry="7.67789" transform="rotate(38.7448 48.4256 33.5518)" fill="#7246EE"/>
<path fill-rule="evenodd" clip-rule="evenodd" d="M45.2418 27.3873L43.2634 25.7998L43.7244 35.3576L46.868 34.8175L46.7758 32.9059L46.4614 32.96L45.5184 33.122L45.4723 32.1662L45.2418 27.3873ZM47.4045 32.7979L47.4506 33.7537L47.4967 34.7095L47.5659 36.1432L47.6811 38.5326L57.1118 36.9123L55.1335 35.3248L50.4181 36.1349L49.4751 36.297L49.429 35.3412L49.3829 34.3854L49.2907 32.4739L49.1985 30.5623L47.2201 28.9748L47.4045 32.7979ZM53.1552 33.7373L50.0116 34.2774L49.9194 32.3658L51.1768 32.1498L53.1552 33.7373Z" fill="white"/>
<path d="M52.563 43.3449C58.3022 44.152 61.2688 40.3764 59.1293 34.9392C56.9897 29.5019 50.6027 24.4493 44.839 23.6729C39.0999 22.8658 36.1332 26.6413 38.2728 32.0786C40.4124 37.5158 46.7994 42.5685 52.563 43.3449Z" stroke="#1A1A1A" stroke-width="0.6" stroke-miterlimit="10"/>
<path d="M45.3603 60.0238L45.5046 60.1029L45.6489 60.0238L71.7092 45.7307L71.7092 63.0526L45.5046 77.6566L19.3 63.0526L19.3 45.7307L45.3603 60.0238Z" fill="white" stroke="black" stroke-width="0.6"/>
<path d="M45.5046 60.0665L45.5046 77.5596" stroke="black" stroke-width="0.6" stroke-linecap="round"/>
</svg>
 