<svg width="1em" height="0.8em" viewBox="0 0 121 97" fill="none" xmlns="http://www.w3.org/2000/svg">
<path d="M120.383 58.8835L60.5952 0.109375L1.21624 58.8835H120.383Z" fill="white"/>
<path d="M119.953 58.612C120.879 59.1416 120.883 60.001 119.964 60.5306L62.6834 93.5425C61.7647 94.0721 60.2697 94.0721 59.3439 93.5425L1.68686 60.5306C0.762503 60.001 0.756866 59.1416 1.677 58.612L58.9578 25.6001C59.8765 25.0705 61.3716 25.0705 62.2973 25.6001L119.953 58.612Z" fill="white"/>
<path d="M60.4273 35.1267L103.447 59.7626L60.4554 84.4125L17.4078 59.7626L60.4273 35.1267Z" fill="white"/>
<path d="M47.1104 41.3171L48.3927 40.5764C49.2945 40.0594 50.5486 40.1293 51.9295 40.9118L50.6472 41.6524C49.2663 40.8699 48.0122 40.8 47.1104 41.3171Z" fill="white"/>
<path d="M47.1104 41.3171L48.3927 40.5764C49.2945 40.0594 50.5486 40.1293 51.9295 40.9118L50.6472 41.6524C49.2663 40.8699 48.0122 40.8 47.1104 41.3171Z" fill="white"/>
<path d="M50.6482 41.6673C47.9005 40.0882 45.66 41.3598 45.6459 44.49C45.6318 47.6201 47.8723 51.449 50.6059 53.014C53.3536 54.5931 55.5941 53.3215 55.6082 50.1913C55.6222 47.0612 53.3959 43.2323 50.6482 41.6673Z" fill="white"/>
<path d="M60.517 15.1317L103.607 59.7642L60.5452 84.4561L60.517 15.1317Z" fill="white"/>
<path d="M59.4115 93.5319L1.75587 60.5214V60.534C1.72487 60.5158 1.69387 60.4976 1.66428 60.4781C1.65441 60.4725 1.64596 60.4655 1.6361 60.4599C1.61637 60.4473 1.59805 60.4347 1.57973 60.4208C1.56987 60.4138 1.5586 60.4054 1.54873 60.3984C1.53182 60.3858 1.51632 60.3733 1.50082 60.3607C1.49096 60.3523 1.4811 60.3453 1.47123 60.3369C1.45573 60.3243 1.44164 60.3118 1.42755 60.2992C1.41769 60.2894 1.40642 60.281 1.39655 60.2712C1.39092 60.2657 1.38528 60.2601 1.37964 60.2545C1.36696 60.2419 1.35287 60.2279 1.3416 60.214C1.33737 60.2098 1.33314 60.2042 1.32892 60.2C1.31201 60.1818 1.29651 60.1636 1.28242 60.1455C1.2796 60.1413 1.27678 60.1385 1.27396 60.1343C1.26269 60.1203 1.25282 60.1064 1.24296 60.0938C1.22464 60.0686 1.20773 60.0449 1.19364 60.0197V60.0169C1.17814 59.9932 1.16405 59.968 1.15278 59.9443C1.14855 59.9359 1.14573 59.9289 1.14151 59.9205C1.13305 59.9037 1.12601 59.8856 1.11896 59.8688C1.11614 59.8604 1.11192 59.852 1.1091 59.8436C1.10205 59.8241 1.09642 59.8045 1.09078 59.785C1.08937 59.7794 1.08796 59.7738 1.08655 59.7682C1.07951 59.743 1.07528 59.7179 1.07105 59.6927C1.07105 59.6857 1.06964 59.6802 1.06823 59.6732C1.06542 59.6536 1.06401 59.6354 1.0626 59.6159C1.0626 59.6005 1.06119 59.5851 1.06119 59.5684L1.05273 62.4791C1.05273 62.4903 1.05273 62.5029 1.05273 62.514C1.05273 62.5182 1.05273 62.5224 1.05273 62.5266C1.05273 62.5462 1.05555 62.5644 1.05837 62.5839C1.05837 62.5909 1.05837 62.5965 1.06119 62.6035C1.06542 62.6286 1.06964 62.6538 1.07669 62.6789V62.6817C1.07669 62.6817 1.07951 62.6901 1.08092 62.6943C1.08655 62.7139 1.09219 62.7334 1.09923 62.753C1.10205 62.7614 1.10487 62.7698 1.1091 62.7782C1.11614 62.7949 1.12319 62.8131 1.13164 62.8299C1.13446 62.8354 1.13587 62.8396 1.13869 62.8452C1.13869 62.848 1.14151 62.8508 1.14292 62.8536C1.1556 62.8788 1.16828 62.9025 1.18237 62.9263V62.9291C1.19928 62.9542 1.21619 62.9794 1.2331 63.0031C1.23451 63.0059 1.23592 63.0087 1.23873 63.0115C1.24719 63.0227 1.25564 63.0339 1.2641 63.0451C1.26692 63.0492 1.26973 63.052 1.27255 63.0562C1.28664 63.0744 1.30355 63.0926 1.31905 63.1107C1.32328 63.1149 1.32751 63.1205 1.33173 63.1247C1.34442 63.1387 1.3571 63.1513 1.37119 63.1652C1.37682 63.1708 1.38246 63.1764 1.3881 63.182C1.39232 63.1862 1.39655 63.1904 1.40219 63.196C1.40782 63.2016 1.41346 63.2058 1.4191 63.2113C1.43319 63.2239 1.44728 63.2365 1.46278 63.2491C1.47264 63.2575 1.48251 63.2658 1.49237 63.2728C1.50787 63.2854 1.52478 63.298 1.54028 63.3106C1.55014 63.3175 1.56001 63.3259 1.57128 63.3329C1.5896 63.3455 1.60932 63.3595 1.62905 63.372C1.63891 63.3776 1.64737 63.3846 1.65723 63.3902C1.68682 63.4084 1.71641 63.4279 1.74882 63.4461V63.4335L59.4044 96.4454L59.4129 93.5346L59.4115 93.5319Z" fill="#7246EE"/>
<path d="M62.4597 96.56C62.4723 96.5544 62.485 96.5488 62.4977 96.5432C62.5174 96.5335 62.5372 96.5237 62.5583 96.5139C62.5682 96.5083 62.578 96.5041 62.5879 96.4985C62.6175 96.4832 62.6471 96.4678 62.6752 96.451L62.6837 93.5403C62.6555 93.557 62.6259 93.5724 62.5963 93.5878C62.5865 93.5934 62.5766 93.5976 62.5667 93.6017C62.547 93.6115 62.5259 93.6227 62.5061 93.6325C62.4935 93.6381 62.4822 93.6437 62.4695 93.6493C62.4512 93.6576 62.4329 93.666 62.4132 93.6744C62.3991 93.68 62.3864 93.6856 62.3723 93.6912C62.354 93.6982 62.3371 93.7052 62.3187 93.7121C62.2722 93.7303 62.2243 93.7471 62.1764 93.7625C62.1666 93.7652 62.1553 93.7694 62.1454 93.7722C62.0975 93.7876 62.0482 93.8016 61.9989 93.8142C61.9904 93.8169 61.9806 93.8183 61.9721 93.8211C61.9383 93.8295 61.9031 93.8379 61.8678 93.8463C61.8552 93.8491 61.8425 93.8519 61.8284 93.8547C61.7917 93.8631 61.7537 93.8701 61.7157 93.877C61.7086 93.877 61.7016 93.8798 61.6945 93.8812C61.6522 93.8882 61.61 93.8952 61.5663 93.9008C61.555 93.9022 61.5437 93.9036 61.5311 93.905C61.4987 93.9092 61.4677 93.9134 61.4352 93.9162C61.4212 93.9176 61.4057 93.919 61.3916 93.9204C61.3606 93.9232 61.3282 93.9259 61.2957 93.9273C61.2831 93.9273 61.2704 93.9287 61.2577 93.9301C61.214 93.9329 61.1703 93.9343 61.1252 93.9357C61.121 93.9357 61.1168 93.9357 61.1126 93.9357C61.0703 93.9357 61.028 93.9357 60.9857 93.9357C60.9717 93.9357 60.959 93.9357 60.9449 93.9357C60.9097 93.9357 60.873 93.9343 60.8378 93.9329C60.8265 93.9329 60.8153 93.9329 60.804 93.9329C60.7518 93.9301 60.6997 93.9259 60.6476 93.9217C60.6363 93.9217 60.625 93.919 60.6137 93.919C60.563 93.9134 60.5137 93.9078 60.4644 93.9022H60.4545C60.4137 93.8952 60.3714 93.8882 60.3305 93.8812C60.3192 93.8798 60.3066 93.877 60.2953 93.8742C60.2657 93.8687 60.2375 93.8631 60.2079 93.8575C60.1938 93.8547 60.1783 93.8519 60.1642 93.8477C60.1375 93.8421 60.1107 93.8351 60.0853 93.8295C60.0712 93.8253 60.0572 93.8225 60.0431 93.8183C60.0149 93.8114 59.9867 93.803 59.9599 93.796C59.9487 93.7932 59.9374 93.7904 59.9261 93.7862C59.8796 93.7722 59.8345 93.7583 59.7894 93.7415C59.7796 93.7373 59.7683 93.7345 59.7584 93.7303C59.7176 93.7149 59.6767 93.6996 59.6373 93.6842C59.6316 93.6828 59.6274 93.68 59.6218 93.6786C59.5781 93.6604 59.5358 93.6409 59.4949 93.6213C59.4851 93.6171 59.4752 93.6115 59.4653 93.6073C59.4245 93.5878 59.385 93.5668 59.347 93.5445L59.3413 93.5417L59.3329 96.4524H59.3343L59.3371 96.4552C59.3752 96.4776 59.416 96.4985 59.4569 96.5181C59.4668 96.5223 59.4766 96.5279 59.4865 96.5321C59.5273 96.5516 59.5696 96.5712 59.6133 96.5894C59.6189 96.5922 59.6232 96.5936 59.6288 96.595C59.6683 96.6117 59.7091 96.6271 59.75 96.6411C59.7598 96.6453 59.7711 96.6481 59.781 96.6522C59.8261 96.6676 59.8712 96.683 59.9177 96.697C59.9205 96.697 59.9219 96.6984 59.9247 96.6998C59.9332 96.7025 59.943 96.704 59.9515 96.7067C59.9797 96.7151 60.0064 96.7221 60.0346 96.7291C60.0487 96.7333 60.0628 96.7361 60.0769 96.7403C60.1037 96.7473 60.129 96.7529 60.1558 96.7585C60.1699 96.7612 60.184 96.7654 60.1995 96.7682C60.2291 96.7738 60.2572 96.7794 60.2868 96.785C60.2981 96.7878 60.3108 96.7892 60.3221 96.792C60.3629 96.799 60.4038 96.806 60.4461 96.8116H60.4489C60.4489 96.8116 60.4545 96.8116 60.4573 96.8116C60.5067 96.8185 60.5574 96.8241 60.6067 96.8283C60.618 96.8283 60.6293 96.8311 60.6405 96.8311C60.6927 96.8353 60.7434 96.8395 60.7955 96.8423C60.7983 96.8423 60.8012 96.8423 60.8054 96.8423C60.8138 96.8423 60.8223 96.8423 60.8293 96.8423C60.8646 96.8437 60.9012 96.8451 60.9364 96.8451C60.9505 96.8451 60.9632 96.8451 60.9773 96.8451C61.0196 96.8451 61.0618 96.8451 61.1027 96.8451C61.1069 96.8451 61.1097 96.8451 61.114 96.8451H61.1168C61.1605 96.8451 61.2042 96.8423 61.2492 96.8395C61.2619 96.8395 61.2746 96.8381 61.2873 96.8367C61.3197 96.8339 61.3507 96.8325 61.3831 96.8297C61.3902 96.8297 61.3986 96.8297 61.4057 96.8283C61.4127 96.8283 61.4197 96.8269 61.4268 96.8255C61.4592 96.8227 61.4916 96.8185 61.524 96.8143C61.5353 96.8129 61.5466 96.8116 61.5578 96.8102C61.6001 96.8046 61.6438 96.7976 61.6861 96.7906H61.6903C61.6903 96.7906 61.7016 96.7878 61.7072 96.7864C61.7452 96.7794 61.7819 96.7724 61.8199 96.764C61.8326 96.7612 61.8453 96.7584 61.8594 96.7557C61.8946 96.7473 61.9284 96.7403 61.9637 96.7305C61.9707 96.7291 61.9777 96.7277 61.9848 96.7249C61.9862 96.7249 61.989 96.7249 61.9904 96.7235C62.0397 96.7109 62.0891 96.697 62.137 96.6816C62.1468 96.6788 62.1581 96.6746 62.168 96.6718C62.2159 96.6564 62.2638 96.6397 62.3103 96.6215H62.3131C62.33 96.6145 62.3469 96.6075 62.3638 96.6005C62.3779 96.595 62.392 96.5894 62.4061 96.5838C62.4244 96.5754 62.4427 96.567 62.4611 96.5586L62.4597 96.56Z" fill="#7246EE"/>
<path d="M38.0508 63.0045C39.4317 63.801 40.559 65.7294 40.559 67.3084L40.5449 73.0377L35.5286 70.1591L35.5427 64.4298C35.5286 62.8508 36.6699 62.208 38.0508 63.0045Z" fill="#7246EE"/>
<path d="M60.7048 0L60.4863 0.00037189L1.38153 58.5031H1.82056L60.5961 0.326227L119.776 58.5031H120.217L60.7048 0Z" fill="#1A1A1A"/>
<path d="M1.02666 63.0503C1.15881 63.243 1.35654 63.4174 1.61012 63.5627L59.2672 96.5746C59.7591 96.856 60.3926 96.9924 61.017 96.9924C61.6413 96.9924 62.2733 96.856 62.7619 96.5744L120.043 63.5625C120.295 63.4173 120.836 63.05 120.805 62.4873L120.219 63.0503C120.131 63.136 120.021 63.2189 119.887 63.2964L62.6063 96.3083C62.1762 96.5562 61.6013 96.6847 61.017 96.6847C60.4327 96.6847 59.8559 96.5562 59.422 96.308L1.76501 63.2962C1.62992 63.2188 1.5191 63.1359 1.43048 63.0503H1.02666Z" fill="#1A1A1A"/>
<path d="M81.5362 36.7931L119.876 58.7455C120.311 58.9942 120.494 59.2991 120.496 59.5724C120.497 59.8453 120.318 60.1494 119.887 60.3978L62.6063 93.4096C62.1762 93.6576 61.6013 93.786 61.017 93.786C60.4328 93.786 59.8559 93.6576 59.422 93.4094L1.76501 60.3975C1.33098 60.1488 1.21895 59.86 1.21742 59.5867C1.2159 59.3138 1.32406 58.9936 1.75553 58.7453L59.0363 25.7334C59.367 25.5427 59.7833 25.4227 60.2237 25.3774V25.0682C59.7364 25.1145 59.2643 25.2461 58.8807 25.4673L1.59988 58.4791C1.11126 58.7604 0.8336 59.1507 0.835952 59.5724C0.838302 59.9935 1.11982 60.3832 1.61012 60.6641L59.2672 93.676C59.7591 93.9574 60.3926 94.0938 61.017 94.0938C61.6413 94.0938 62.2733 93.9574 62.7619 93.6757L120.043 60.6639C120.531 60.3826 120.808 59.9922 120.806 59.5706C120.804 59.1495 120.522 58.7598 120.031 58.4789L80.8088 36.0214L81.5362 36.7931Z" fill="#1A1A1A"/>
<path d="M119.965 60.5295L62.6844 93.5414L62.676 96.4521L119.957 63.4403C120.413 63.1776 120.804 62.8324 120.805 62.4873L120.806 59.5706C120.806 59.9158 120.422 60.2654 119.965 60.5295Z" fill="#1A1A1A"/>
<path fill-rule="evenodd" clip-rule="evenodd" d="M0.906873 59.5688L1.21687 59.5692C1.21687 59.5737 1.21706 59.5785 1.21742 59.5867L1.21748 59.588C1.21774 59.5938 1.21811 59.6018 1.21823 59.6106C1.21934 59.6256 1.22031 59.637 1.22178 59.6481L1.22374 59.6585C1.2246 59.6636 1.22545 59.6697 1.22603 59.6766C1.22973 59.6984 1.23257 59.7136 1.23657 59.7279L1.23765 59.7317L1.2412 59.746C1.24669 59.765 1.25086 59.7792 1.25573 59.7927L1.25641 59.7946L1.25777 59.7979L1.26141 59.8067C1.26229 59.8089 1.26332 59.8116 1.2644 59.8145C1.26636 59.8192 1.26804 59.8233 1.26953 59.8269C1.27421 59.8382 1.27705 59.8451 1.2808 59.8525C1.28422 59.8593 1.287 59.8654 1.28869 59.8691L1.29207 59.8763L1.29372 59.8796C1.30192 59.8968 1.31256 59.916 1.32442 59.9342L1.32816 59.9467L1.32979 59.9458C1.33866 59.9617 1.35018 59.9783 1.3677 60.0024C1.37679 60.014 1.38022 60.0188 1.38306 60.0227C1.386 60.0267 1.3883 60.0299 1.39563 60.039L1.40406 60.0495C1.40524 60.051 1.40637 60.0529 1.40782 60.0549C1.41804 60.068 1.42944 60.0813 1.4421 60.095C1.44474 60.0977 1.44694 60.1001 1.44857 60.102L1.45358 60.1077C1.45471 60.109 1.45492 60.1092 1.45492 60.1092L1.45183 60.106L1.46327 60.1187C1.4682 60.1248 1.47588 60.1326 1.48988 60.1465L1.50677 60.1633C1.50677 60.1633 1.50721 60.1637 1.50837 60.1647L1.51419 60.1698L1.51502 60.1705C1.51923 60.1741 1.52659 60.1804 1.53433 60.1879C1.54763 60.1997 1.55848 60.2093 1.57001 60.2187L1.57276 60.2209L1.58241 60.2287C1.5867 60.232 1.59386 60.2376 1.6008 60.2434C1.61586 60.2556 1.62843 60.2658 1.64174 60.2757L1.67045 60.2964L1.67492 60.2996C1.68846 60.3099 1.7023 60.3196 1.71808 60.3297C1.7271 60.3351 1.73463 60.3403 1.73826 60.3428C1.74047 60.3443 1.74291 60.3459 1.74291 60.3459L1.75109 60.3506C1.77325 60.3652 1.7966 60.3796 1.82316 60.3952L1.834 60.389L59.4896 93.3995L59.5508 93.4639L59.5522 93.4667L59.5686 93.536L59.5601 96.4467L59.3277 96.5796L1.6842 63.5746L1.67329 63.581C1.64722 63.5663 1.62027 63.5494 1.59842 63.5357C1.59096 63.531 1.58409 63.5267 1.57805 63.523C1.56841 63.5173 1.56028 63.5117 1.55645 63.5091C1.55424 63.5076 1.55179 63.5059 1.55179 63.5059L1.54586 63.5026C1.52795 63.4911 1.5095 63.4781 1.49474 63.4679C1.4917 63.4658 1.48883 63.4638 1.48615 63.462C1.47612 63.4555 1.46779 63.4494 1.46231 63.4452L1.45093 63.4367L1.44265 63.4308C1.43643 63.4258 1.42988 63.4203 1.42153 63.4138C1.41479 63.4086 1.40639 63.402 1.39849 63.3957C1.38466 63.3856 1.37211 63.3749 1.36407 63.368L1.36264 63.3668L1.46346 63.25L1.36536 63.3691C1.34704 63.3542 1.33067 63.3396 1.31712 63.3275L1.31008 63.3212L1.30932 63.3204C1.30664 63.3181 1.29991 63.3122 1.29332 63.3057L1.26127 63.2739C1.24845 63.2612 1.23402 63.2469 1.21928 63.2308C1.21692 63.2283 1.21494 63.2262 1.21344 63.2245L1.20843 63.2188L1.20105 63.2114C1.19872 63.2087 1.19574 63.2045 1.19169 63.1998C1.17998 63.1865 1.16283 63.167 1.15042 63.151L1.14401 63.1427C1.1426 63.1409 1.14096 63.1386 1.13918 63.1361L1.11867 63.109C1.11133 63.1002 1.1058 63.0919 1.10194 63.0854C1.08563 63.0622 1.06961 63.0384 1.05468 63.0162L1.0508 63.0045L1.04949 63.0052C1.03439 62.9798 1.02101 62.9549 1.0083 62.9299C1.00547 62.9253 1.00066 62.9169 0.996252 62.9062C0.995609 62.9046 0.994946 62.9029 0.994277 62.9011L0.993582 62.8995L0.99306 62.8983C0.983771 62.8797 0.975195 62.8588 0.969826 62.8458C0.96923 62.8443 0.968675 62.843 0.968162 62.8417C0.960583 62.8256 0.955705 62.811 0.953356 62.804L0.952885 62.8026L1.09991 62.7539L0.953963 62.8057C0.945459 62.7821 0.938786 62.7591 0.933499 62.7407L0.930465 62.7317L0.928632 62.7209C0.920272 62.691 0.914481 62.6622 0.91062 62.6394C0.906016 62.622 0.904607 62.6069 0.904195 62.5968C0.901714 62.5797 0.898418 62.5546 0.898418 62.5275V62.4803L0.906873 59.5688ZM0.963366 59.895C0.954836 59.8712 0.948169 59.848 0.942907 59.8298L0.941015 59.8232L0.937318 59.8082C0.9284 59.7758 0.923162 59.7446 0.919263 59.7214L0.918849 59.7189L0.918095 59.7099M0.918095 59.7099L0.916736 59.6936L0.916904 59.6956C0.91697 59.6989 0.917361 59.7018 0.917612 59.7041C0.91784 59.7062 0.918095 59.7099 0.918095 59.7099ZM1.21474 60.3042L1.21575 60.3053L1.21795 60.3076L1.22331 60.3137C1.22331 60.3137 1.22485 60.3155 1.22578 60.3165C1.24142 60.3351 1.25847 60.352 1.26908 60.3625L1.28768 60.381C1.29664 60.3899 1.30562 60.3976 1.31045 60.4017L1.31128 60.4024L1.31709 60.4075C1.31838 60.4086 1.31868 60.4089 1.31868 60.4089L1.32558 60.4154C1.33881 60.4272 1.35474 60.4414 1.37254 60.4559C1.37951 60.4617 1.38607 60.4669 1.39038 60.4702L1.40069 60.4784L1.40438 60.4815C1.41934 60.4936 1.43696 60.5079 1.45647 60.5224L1.45938 60.5245L1.48755 60.5448C1.50941 60.5614 1.5309 60.5761 1.55302 60.5902L1.55883 60.5938C1.55883 60.5938 1.56049 60.5949 1.5627 60.5964C1.56619 60.5988 1.57405 60.6042 1.58259 60.6093C1.61462 60.6303 1.64737 60.6495 1.67632 60.6665L1.67775 60.6673L1.68879 60.6611L59.2583 93.6223L59.2509 96.1804L1.82695 63.3011L1.81595 63.3074C1.80097 63.2988 1.78741 63.2902 1.77192 63.2805C1.76214 63.2743 1.7516 63.2677 1.73944 63.2602L1.73586 63.2581C1.73586 63.2581 1.7342 63.257 1.73198 63.2555C1.72835 63.253 1.72008 63.2473 1.71109 63.2419C1.69949 63.2345 1.68825 63.2267 1.67528 63.2177C1.6705 63.2144 1.66549 63.2109 1.66013 63.2073L1.65415 63.2034C1.65415 63.2034 1.65289 63.2025 1.64956 63.2L1.6422 63.1944L1.6364 63.1902C1.62821 63.1836 1.62003 63.1772 1.61304 63.1718C1.60469 63.1653 1.59738 63.1596 1.59115 63.1546L1.58309 63.1485C1.57982 63.1462 1.57527 63.1424 1.56428 63.1331L1.56156 63.1308C1.54997 63.1214 1.53908 63.1118 1.52569 63.0999C1.52053 63.0949 1.51599 63.091 1.51381 63.0891L1.51151 63.0871L1.48142 63.0573C1.46689 63.0429 1.45709 63.0331 1.44758 63.0226L1.44407 63.0188L1.43871 63.0127C1.43769 63.0116 1.43645 63.0102 1.43502 63.0087C1.42747 62.9999 1.42159 62.9932 1.41661 62.9876C1.40928 62.9793 1.40387 62.9732 1.39787 62.9656C1.39529 62.962 1.39303 62.9591 1.39156 62.9573L1.36337 62.92L1.36037 62.9152C1.34661 62.8959 1.33265 62.8753 1.31771 62.8531L1.31662 62.8491C1.30485 62.8292 1.29387 62.8088 1.28221 62.7856C1.28084 62.7829 1.27947 62.7804 1.2782 62.7782C1.2771 62.7756 1.27443 62.7688 1.27094 62.7619C1.26719 62.7544 1.26435 62.7476 1.25967 62.7362C1.25776 62.7316 1.25554 62.7263 1.25284 62.7198L1.24928 62.7119L1.24695 62.7052L1.24587 62.7021C1.24079 62.688 1.23647 62.6732 1.23062 62.6529L1.22721 62.6423L1.22671 62.6386C1.22221 62.6226 1.21919 62.6054 1.21476 62.579L1.21326 62.5737L1.21249 62.563C1.20922 62.5403 1.20842 62.5339 1.20842 62.5275V62.4803L1.21474 60.3042ZM1.21257 62.5713C1.21213 62.5687 1.21158 62.566 1.21092 62.5632C1.20965 62.558 1.20796 62.5526 1.20577 62.5472L1.21257 62.5713ZM1.27892 62.7792C1.2799 62.7811 1.28118 62.7833 1.28221 62.7856C1.28282 62.787 1.2828 62.7888 1.28342 62.7903C1.28812 62.8017 1.29437 62.8212 1.29437 62.8461L1.27892 62.7792ZM1.36091 62.9172L1.36037 62.9152C1.35732 62.9113 1.35308 62.9076 1.34897 62.9036L1.36091 62.9172ZM1.36481 62.9226C1.37064 62.9311 1.37322 62.9368 1.37239 62.9352L1.36481 62.9226Z" fill="#1A1A1A"/>
<path d="M60.4271 15.0047L17.2386 59.763L45.6497 43.5028C45.7688 43.0786 45.9596 42.4608 46.1421 42.1344C46.5127 41.4712 47.3666 41.225 47.3666 41.225L48.2849 40.6187L49.2033 40.3156H50.4278L50.8951 40.5007L60.4553 35.0292V25.4625L60.4271 15.0047Z" fill="#1A1A1A"/>
<path d="M60.456 84.2358L102.881 59.9106L103.081 60.0187L103.525 59.7257L103.525 59.8968L60.5336 84.5467L60.3786 84.5467L17.331 59.8968L17.331 59.6303L45.7584 43.3507L45.6536 43.766L17.7186 59.7636L60.456 84.2358Z" fill="#1A1A1A"/>
<path d="M51.1728 40.6053L60.4278 35.3053L60.5298 35.3637V35.0084L60.5053 34.9944H60.3504L50.8846 40.4151L51.1728 40.6053Z" fill="#1A1A1A"/>
<path d="M55.4531 52.6213L54.1708 53.3619C55.0726 52.8449 55.6222 51.7549 55.6222 50.1899C55.6363 47.0597 53.4099 43.2309 50.6481 41.6518L51.9304 40.9112C54.6781 42.4903 56.9044 46.3051 56.9044 49.4493C56.9044 51.0143 56.3408 52.1043 55.4531 52.6213Z" fill="#1A1A1A"/>
<path fill-rule="evenodd" clip-rule="evenodd" d="M48.471 40.71L48.2524 40.8362C48.9761 40.7983 49.7932 41.0066 50.6467 41.4755L51.6141 40.9167C50.3606 40.2754 49.2586 40.2585 48.471 40.71ZM47.0337 41.1841L47.1887 41.4506C48.0261 40.9705 49.2186 41.0199 50.5711 41.7864L50.7259 41.7857L52.0082 41.0451L52.0071 40.7785C50.5978 39.9799 49.2821 39.8896 48.3159 40.4435L47.0337 41.1841Z" fill="#1A1A1A"/>
<path fill-rule="evenodd" clip-rule="evenodd" d="M51.8523 40.7782L52.008 40.778C53.4107 41.5841 54.6718 42.9549 55.5819 44.5162C56.492 46.0775 57.0594 47.8437 57.0594 49.4492C57.0594 51.0483 56.4821 52.2003 55.5315 52.754L54.2623 53.487C54.2576 53.4897 54.2529 53.4924 54.2483 53.4951L54.0928 53.2289C54.097 53.2265 54.1017 53.2238 54.1059 53.2213C54.9358 52.7383 55.4671 51.7144 55.4671 50.1898V50.1891C55.474 48.6578 54.9319 46.9447 54.0418 45.4161C53.1519 43.8876 51.9225 42.558 50.5707 41.7851L50.5701 41.5188L51.8523 40.7782ZM55.1698 52.6068L55.3746 52.4886C56.1993 52.0081 56.7494 50.9802 56.7494 49.4492C56.7494 47.9106 56.2036 46.1972 55.3136 44.6703C54.4406 43.1727 53.2445 41.8682 51.9299 41.0894L50.9525 41.6539C52.2709 42.4736 53.4492 43.7834 54.3102 45.2621C55.2203 46.8251 55.7842 48.5914 55.7771 50.1902C55.7771 51.1777 55.5622 51.9954 55.1698 52.6068Z" fill="#1A1A1A"/>
<path fill-rule="evenodd" clip-rule="evenodd" d="M47.0312 41.1547C48.0132 40.5996 49.3331 40.701 50.7404 41.5097C52.1489 42.3121 53.4133 43.6872 54.3234 45.2515C55.2335 46.816 55.7994 48.5872 55.7922 50.1921C55.785 51.7959 55.2057 52.9713 54.2236 53.5265C53.2416 54.0816 51.9216 53.9801 50.5141 53.1713C49.1129 52.369 47.8486 50.994 46.9368 49.4298C46.025 47.8655 45.4554 46.0942 45.4626 44.4891C45.4698 42.8853 46.0491 41.7099 47.0312 41.1547ZM47.2134 41.4706C46.3848 41.939 45.8368 42.9645 45.83 44.4907C45.8231 46.0158 46.3667 47.724 47.255 49.2479C48.1432 50.7718 49.3659 52.0938 50.6982 52.8565C52.0384 53.6267 53.2128 53.6791 54.0415 53.2106C54.87 52.7422 55.418 51.7167 55.4249 50.1905C55.4317 48.6652 54.8915 46.9569 54.0051 45.4331C53.1186 43.9094 51.8961 42.5876 50.557 41.8249L50.5564 41.8245C49.2161 41.0543 48.0421 41.0021 47.2134 41.4706Z" fill="#1A1A1A"/>
<path fill-rule="evenodd" clip-rule="evenodd" d="M47.5033 42.4351C48.3005 41.9847 49.3729 42.0683 50.5142 42.7202L50.5148 42.7206C51.6566 43.3799 52.6817 44.4955 53.4192 45.7617C54.1565 47.0277 54.6149 48.4586 54.6078 49.7571C54.6077 51.0615 54.1401 52.0161 53.3423 52.4668C52.545 52.9173 51.4727 52.8336 50.3314 52.1817C49.1963 51.5293 48.1709 50.4133 47.4317 49.1455C46.6927 47.878 46.2307 46.4435 46.2378 45.1449C46.2379 43.8404 46.7055 42.8859 47.5033 42.4351ZM47.6566 42.7026C46.9891 43.0797 46.5478 43.9067 46.5478 45.1453V45.1461C46.541 46.3766 46.9807 47.7577 47.7 48.9914C48.4192 50.2248 49.409 51.2958 50.486 51.915C51.5711 52.5348 52.5208 52.5769 53.1889 52.1994C53.8565 51.8222 54.2978 50.9952 54.2978 49.7567L54.2978 49.7558C54.3046 48.5251 53.8683 47.1475 53.1508 45.9157C52.4335 44.6842 51.4437 43.613 50.3593 42.9867C49.2743 42.3672 48.3248 42.3251 47.6566 42.7026Z" fill="#1A1A1A"/>
<path d="M57.6089 55.6126C60.3989 57.2196 60.4271 59.8048 57.6371 61.4118C54.8612 63.0188 50.338 63.0188 47.548 61.4118C44.758 59.8048 44.744 57.2196 47.5199 55.6126C50.2958 54.0056 54.8189 54.0056 57.6089 55.6126Z" fill="#1A1A1A"/>
<path fill-rule="evenodd" clip-rule="evenodd" d="M60.3627 15.1319L60.6296 15.0254L103.719 59.658L103.685 59.8976L60.6234 84.5895L60.3909 84.4563L60.3627 15.1319ZM60.6729 15.5149L60.7008 84.1897L103.359 59.7293L60.6729 15.5149Z" fill="#1A1A1A"/>
<path fill-rule="evenodd" clip-rule="evenodd" d="M36.3509 62.9604C35.96 63.1819 35.6913 63.6732 35.698 64.4289L35.6981 64.4307L35.6842 70.0709L40.391 72.7719L40.4044 67.3089C40.4044 66.553 40.1335 65.7025 39.689 64.9406C39.2445 64.1786 38.635 63.5196 37.9734 63.138C37.3115 62.7562 36.7425 62.7385 36.3509 62.9604ZM36.1972 62.6932C36.7179 62.3981 37.41 62.4572 38.1291 62.8719C38.8484 63.2868 39.4929 63.9903 39.9573 64.7864C40.4216 65.5824 40.7144 66.4857 40.7144 67.3089L40.7003 73.0386L40.4677 73.1714L35.4514 70.2928L35.374 70.1592L35.3881 64.4308C35.3809 63.6078 35.6759 62.9886 36.1972 62.6932Z" fill="#1A1A1A"/>
<path d="M120.53 59.1094L120.218 58.5031H119.918L120.53 59.1094Z" fill="#1A1A1A"/>
<path d="M1.14214 59.1094L1.38696 58.5031H1.75439L1.14214 59.1094Z" fill="#1A1A1A"/>
</svg>
