<svg width="1em" height="0.8em" viewBox="0 0 121 97" fill="none" xmlns="http://www.w3.org/2000/svg">
<g clip-path="url(#clip0_415_144180)">
<g clip-path="url(#clip1_415_144180)">
<path fill-rule="evenodd" clip-rule="evenodd" d="M63.4813 0.974736L67.1306 3.07229L68.4834 5.92786L67.1846 8.74349V11.0092C67.9357 12.7592 67.0821 14.6921 64.6563 16.0292C61.0426 18.0211 55.2929 17.9682 51.8216 15.9058C50.9238 15.3724 50.2665 14.7553 49.848 14.099C50.4177 15.0232 51.4394 15.8442 52.837 16.4681C53.638 16.8383 54.3679 17.0322 54.4035 17.0322C54.6527 17.1027 54.991 17.1909 55.2579 17.2437C55.7413 17.3453 55.8752 17.3632 56.2644 17.4156C56.3483 17.4268 56.4439 17.4397 56.5575 17.4553C56.7514 17.4827 57.0102 17.4994 57.2329 17.5139C57.2962 17.5179 57.3568 17.5219 57.4119 17.5258C57.9816 17.561 58.0528 17.561 58.6224 17.561C58.9428 17.561 59.5125 17.5258 60.3313 17.4376C60.3708 17.4305 60.432 17.4213 60.5113 17.4093C60.8252 17.3618 61.4221 17.2716 62.0759 17.1027C62.9481 16.8735 63.5711 16.6268 63.6779 16.5739C63.8916 16.4858 64.1764 16.3624 64.3722 16.2567C64.7744 16.0409 64.8453 15.997 65.2087 15.772L65.2801 15.7278L65.2926 15.7196C65.3903 15.6563 65.8922 15.3313 66.3303 14.8641C66.5617 14.6349 66.7576 14.4058 66.9177 14.1414C66.9356 14.1061 66.9623 14.0619 66.9891 14.0178C67.0158 13.9738 67.0424 13.9298 67.0602 13.8946C67.0736 13.868 67.0883 13.8395 67.1037 13.8098L67.1042 13.8087C67.1702 13.6809 67.2484 13.5294 67.2916 13.4011C67.3005 13.3658 67.3138 13.3218 67.3272 13.2778C67.3405 13.2337 67.3539 13.1896 67.3628 13.1543C67.3984 13.0133 67.434 12.8193 67.4518 12.6784C67.4518 12.6674 67.4534 12.648 67.4555 12.6214C67.4627 12.5309 67.4765 12.3563 67.4595 12.1415C68.0411 18.2244 68.6995 24.2517 69.3717 30.2677L89.0395 41.5117V39.0847L89.7593 37.6592L91.9187 36.2337H93.3583L95.1578 36.9464L98.3969 42.6484L99.0593 47.24L119.496 58.9234C120.414 59.4487 120.418 60.2976 119.506 60.8229L62.6866 93.5189C61.7758 94.0442 60.2913 94.0442 59.3746 93.5189L2.18319 60.8229C1.26647 60.2976 1.26056 59.4487 2.17333 58.9234L47.1919 33.0176L47.2542 32.4488C47.9394 26.1903 48.6349 19.8384 49.2988 12.4302C49.2797 11.9666 49.3675 11.5018 49.5616 11.0493V8.03367L48.5641 5.92828L48.5855 5.91966L49.8989 3.07229L49.9025 3.07029L49.8817 3.07307L53.5132 0.975449L53.5252 0.97773L53.5304 0.974736L58.568 0.216797L63.4813 0.974736ZM49.9888 8.8146V10.3012C50.23 9.96661 50.5341 9.64374 50.9007 9.33877L49.9888 8.8146ZM66.0136 9.44945C66.3064 9.70992 66.5543 9.98224 66.7573 10.2628V9.01985L66.0136 9.44945Z" fill="white"/>
<path d="M67.4518 12.0614L67.4595 12.1415C67.4574 12.1154 67.4549 12.0887 67.4518 12.0614Z" fill="white"/>
<path d="M70.8645 54.5813L70.3256 53.3388L69.6058 52.9824L68.5261 53.3388L66.7266 54.7643L65.6665 57.2589V63.5618L65.6012 63.6031L65.6665 63.5796V63.5931L65.7194 63.5604C65.9355 63.4812 66.1703 63.3872 66.4557 63.2681C66.7583 63.1619 67.3457 62.8975 67.9866 62.5454C69.4594 61.7407 70.3043 60.9203 70.7511 60.4022L70.8645 60.3309L70.8645 54.5813Z" fill="#7246EE"/>
<path d="M59.3756 93.5068L2.18419 60.8107V60.8221C2.16465 60.8115 2.14588 60.8 2.12739 60.7886C2.11603 60.7815 2.10475 60.7744 2.0935 60.768C2.08364 60.7616 2.07575 60.7558 2.06589 60.748L2.03735 60.7288L2.00873 60.7088L1.97915 60.686C1.97127 60.6796 1.96339 60.6732 1.9555 60.6675C1.94762 60.6611 1.93971 60.6546 1.93184 60.6489L1.90227 60.6254C1.89193 60.6176 1.88243 60.609 1.87323 60.6005L1.85889 60.5883L1.84411 60.5741L1.82932 60.5605L1.81158 60.5434C1.79778 60.5292 1.78595 60.5178 1.77412 60.5042L1.76032 60.4907C1.74455 60.4729 1.72878 60.4551 1.71498 60.438C1.71301 60.4337 1.70907 60.4301 1.7071 60.428C1.70217 60.4209 1.69674 60.4144 1.69132 60.4073L1.67555 60.3874C1.65781 60.3638 1.64205 60.3382 1.62628 60.3125L1.60505 60.2726C1.59868 60.2612 1.59252 60.2498 1.58684 60.2384L1.57501 60.2149C1.56712 60.1978 1.55923 60.1799 1.55332 60.1643L1.54745 60.15L1.54346 60.1393C1.53558 60.1193 1.52966 60.1001 1.52572 60.0809L1.52178 60.0652C1.51587 60.0395 1.50995 60.0139 1.50601 59.9889C1.50601 59.9832 1.50601 59.9754 1.50403 59.969L1.49812 59.9127V59.8656L1.49023 62.7473V62.7943C1.49023 62.8064 1.49191 62.8185 1.49363 62.8307L1.49615 62.8506C1.49615 62.8563 1.49615 62.8642 1.49812 62.8699C1.50206 62.8955 1.50798 62.9212 1.51389 62.9461V62.9504C1.51389 62.9504 1.51784 62.9582 1.51784 62.9639L1.53558 63.0224C1.53696 63.0281 1.53931 63.0331 1.54195 63.0395L1.54544 63.048C1.55135 63.0651 1.55923 63.083 1.56712 63.0986L1.57304 63.1143L1.57501 63.1179L1.57698 63.1222C1.58881 63.1457 1.60261 63.1706 1.61641 63.1942C1.63218 63.2212 1.64795 63.2448 1.66569 63.2704L1.67161 63.2783L1.69723 63.311C1.69921 63.3153 1.70315 63.3189 1.70512 63.321C1.71891 63.3388 1.73466 63.3559 1.75042 63.3738L1.75427 63.378L1.76427 63.3873C1.7761 63.4008 1.78989 63.4144 1.80369 63.4265L1.83524 63.4579L1.84468 63.4657L1.85101 63.4714C1.86481 63.4849 1.87861 63.4971 1.89438 63.5085L1.92395 63.532C1.93182 63.5377 1.9397 63.5441 1.94757 63.5505C1.95545 63.5569 1.96339 63.5633 1.97127 63.569C1.98111 63.5769 1.991 63.5847 2.00084 63.5904C2.0119 63.599 2.02373 63.6068 2.03586 63.6147L2.05801 63.6296L2.08561 63.6467C2.11519 63.6667 2.14475 63.6838 2.1763 63.7016V63.6902L59.3592 96.3812L59.3591 96.3941H59.3631C59.3964 96.4169 59.4328 96.4347 59.4683 96.4518L59.4814 96.4582L59.4881 96.4611L59.4961 96.4653L59.5109 96.4725C59.5524 96.4917 59.5938 96.511 59.6371 96.5288L59.645 96.5316L59.648 96.533L59.6529 96.5345C59.6923 96.5502 59.7318 96.5658 59.7732 96.5815L59.7837 96.5858L59.7899 96.5879L59.8047 96.5929C59.8499 96.6086 59.8951 96.6221 59.9402 96.6357L59.9466 96.6364L59.9579 96.6407L59.9723 96.6457L60.0551 96.6692C60.0689 96.6734 60.0827 96.677 60.0984 96.6792L60.1378 96.6877C60.1511 96.6906 60.1645 96.6934 60.1773 96.697C60.185 96.6991 60.1927 96.7005 60.2008 96.702L60.2121 96.7041L60.2207 96.7062C60.2502 96.7119 60.2779 96.7184 60.3074 96.724L60.3429 96.7298L60.3688 96.7347L60.383 96.7369L60.4652 96.7497H60.475C60.5243 96.7568 60.5736 96.7633 60.6229 96.7668L60.6423 96.7683L60.6564 96.7711L60.8102 96.7825H60.8437C60.8791 96.7825 60.9144 96.7846 60.9498 96.7868H61.1296C61.1584 96.7868 61.1874 96.7846 61.2162 96.7832C61.2307 96.7818 61.2452 96.7811 61.2596 96.7804C61.2714 96.7804 61.2852 96.7804 61.2971 96.7789C61.3286 96.7768 61.3602 96.7747 61.3917 96.7711H61.4154C61.4213 96.7711 61.4292 96.7711 61.4351 96.769L61.5317 96.7568H61.538L61.5537 96.7554L61.5652 96.7533C61.6086 96.7476 61.65 96.7419 61.6914 96.734H61.6953C61.6953 96.734 61.7071 96.7298 61.7131 96.7298C61.7505 96.724 61.788 96.7162 61.8255 96.7084L61.8299 96.7077L61.8452 96.7048C61.8515 96.7027 61.858 96.7012 61.8649 96.7005C61.9004 96.6927 61.9339 96.6848 61.9674 96.6749C61.9718 96.6749 61.9773 96.6727 61.983 96.6713L61.9891 96.6692H61.995C62.0229 96.6613 62.0503 96.6535 62.0773 96.6449C62.0979 96.6385 62.1184 96.6321 62.1389 96.6264L62.1565 96.6207L62.1705 96.6164C62.2178 96.6007 62.265 96.5851 62.3124 96.5679H62.3144L62.3221 96.5644L62.3332 96.5601L62.347 96.5537L62.3637 96.5466L62.405 96.5287L62.4176 96.523C62.4318 96.5173 62.4466 96.5109 62.4602 96.5031L62.4642 96.5095L62.4829 96.5002L62.5016 96.4917L62.5608 96.4625L62.5756 96.4546L62.5904 96.4468L62.6771 96.3997L62.685 93.5188C62.6574 93.5345 62.6278 93.5495 62.5982 93.5651C62.5884 93.5716 62.5785 93.5751 62.5687 93.5794C62.5489 93.5887 62.5293 93.5986 62.5075 93.6086C62.4957 93.6143 62.4839 93.62 62.4701 93.6243C62.4523 93.6321 62.4327 93.6414 62.4149 93.6492C62.4011 93.6549 62.3873 93.6614 62.3735 93.6649L62.3557 93.672L62.3469 93.6756L62.3203 93.6863C62.2749 93.7041 62.2276 93.7198 62.1783 93.7355L62.1745 93.7369L62.1634 93.7405L62.1468 93.7447C62.0995 93.7604 62.0502 93.774 62.0029 93.7861L61.9753 93.7918L61.9244 93.8046L61.8728 93.8175C61.8659 93.8182 61.8595 93.8196 61.853 93.821L61.8418 93.8239L61.8333 93.8253C61.7959 93.8331 61.7585 93.841 61.723 93.8467C61.7151 93.8467 61.7092 93.8488 61.7012 93.8502C61.6645 93.8574 61.6262 93.8631 61.5891 93.8681L61.5751 93.8702C61.5653 93.8702 61.5554 93.8716 61.5468 93.873L61.5416 93.8738L61.4469 93.8859L61.4257 93.8866L61.4036 93.8895C61.3878 93.8902 61.3721 93.8916 61.3563 93.8937L61.3344 93.8952L61.3089 93.8973C61.2971 93.8973 61.2833 93.8973 61.2715 93.8994L61.1414 93.9051H60.962C60.9265 93.9051 60.891 93.9051 60.8556 93.9009H60.822C60.7708 93.8994 60.7195 93.8952 60.6683 93.8895C60.6564 93.8895 60.6465 93.8873 60.6347 93.8859C60.6183 93.8838 60.6019 93.8816 60.5855 93.8802C60.5526 93.8766 60.5198 93.8731 60.4869 93.8681H60.477C60.4356 93.8602 60.3942 93.8545 60.3548 93.8488L60.3193 93.8424L60.3074 93.8403L60.2922 93.8374C60.2724 93.8339 60.2529 93.8303 60.2326 93.8253L60.2206 93.8225L60.2108 93.8203C60.2035 93.8189 60.1961 93.8175 60.1892 93.8153C60.1636 93.8096 60.136 93.8039 60.1104 93.7975C60.0965 93.794 60.0827 93.7897 60.067 93.7883L59.9842 93.7647L59.9675 93.7597L59.9619 93.7583L59.9506 93.7548C59.9054 93.7412 59.8598 93.7277 59.8146 93.712L59.8013 93.7063L59.7831 93.6999C59.7417 93.6863 59.7022 93.6707 59.6628 93.6536L59.6549 93.6507L59.647 93.6471C59.6037 93.63 59.5623 93.6101 59.5208 93.5908C59.511 93.5873 59.5011 93.5809 59.4913 93.5773C59.4528 93.558 59.4142 93.5374 59.3756 93.516L59.3756 93.5068Z" fill="#7246EE"/>
<path d="M94.241 55.2661V57.609L91.4813 55.939L94.241 55.2661Z" fill="#7246EE"/>
<path d="M51.127 9.43L50.7602 9.17575C49.6958 10.0616 49.1212 11.1095 49.0816 12.1874C49.0289 13.6266 49.9327 15.0333 51.7097 16.089C53.4864 17.1446 55.8319 17.6792 58.1826 17.7015C60.5337 17.7238 62.9135 17.2339 64.7605 16.2159C66.6061 15.1985 67.6089 13.8156 67.6616 12.3792C67.7016 11.2877 67.1914 10.2149 66.1674 9.29973L65.8211 9.56642C66.8123 10.4285 67.2649 11.4111 67.23 12.3637C67.1848 13.5978 66.3184 14.8677 64.5504 15.8422C62.7837 16.816 60.4818 17.2956 58.1868 17.2738C55.8914 17.2521 53.6264 16.7291 51.9319 15.7223C50.2376 14.7157 49.4681 13.4343 49.5132 12.2029C49.5482 11.249 50.0737 10.2737 51.127 9.43Z" fill="#1A1A1A"/>
<path fill-rule="evenodd" clip-rule="evenodd" d="M93.4825 55.3971C94.8868 53.4474 95.8341 51.3211 95.9586 49.0622H96.3919C96.2739 51.2932 95.3871 53.3869 94.0771 55.2987L93.4825 55.3971ZM92.6101 56.519C92.2941 56.8967 91.963 57.2666 91.6197 57.6287C91.3303 57.9345 91.0323 58.2338 90.7271 58.5268L91.1043 58.7599C91.3872 58.4862 91.6643 58.2061 91.9342 57.9217C92.274 57.5639 92.6022 57.1975 92.9167 56.8226L92.6101 56.519ZM89.6337 60.0963L89.4855 59.6565C86.6012 62.1504 83.3679 64.1126 81.1595 65.3692C78.181 67.0655 72.7509 68.4518 66.4474 69.367C60.4625 70.2351 53.7186 70.6742 47.5988 70.5566C47.2824 70.5502 46.9677 70.5423 46.6548 70.5338C40.2433 70.347 35.7002 71.6521 32.7547 73.0106C31.2825 73.6899 30.2108 74.3812 29.5051 74.9051C29.1523 75.1674 28.891 75.3876 28.717 75.543C28.63 75.6207 28.5649 75.682 28.521 75.7248C28.499 75.7461 28.4824 75.7632 28.4709 75.7746L28.4578 75.7882L28.4542 75.7917L28.4531 75.7925L28.4527 75.7932C28.4527 75.7932 28.505 75.8421 28.6098 75.94C28.7147 76.0374 28.767 76.0868 28.767 76.0868L28.7673 76.0861L28.7695 76.084L28.7797 76.0733C28.7891 76.064 28.8037 76.049 28.8236 76.0298C28.8632 75.9913 28.924 75.9336 29.0064 75.8602C29.1712 75.7133 29.4224 75.5009 29.7642 75.2472C30.4478 74.7397 31.494 74.064 32.9371 73.3983C35.7628 72.0954 40.115 70.8296 46.2532 70.9515C46.382 70.9543 46.5117 70.9572 46.6421 70.9607C53.0329 71.1468 60.192 70.707 66.5099 69.7897C72.8192 68.8745 78.3199 67.4796 81.3748 65.7398C83.5529 64.5011 86.7495 62.5645 89.6337 60.0963Z" fill="#1A1A1A"/>
<path fill-rule="evenodd" clip-rule="evenodd" d="M89.0507 41.7643L69.4671 30.5685L69.5622 30.129L88.9528 41.2144L89.0507 41.7643ZM98.696 47.2788L119.387 59.1077C119.807 59.3479 119.969 59.6323 119.97 59.8732C119.972 60.1134 119.813 60.3971 119.396 60.6365L62.5771 93.3333C62.1626 93.572 61.6036 93.6982 61.032 93.6982C60.4604 93.6982 59.8995 93.572 59.4817 93.3326L2.29046 60.6365C1.87109 60.3964 1.70866 60.112 1.70728 59.8711C1.7059 59.6309 1.86427 59.3472 2.28097 59.107L47.189 33.2649L47.1185 32.8109L2.06399 58.7378C1.56793 59.0229 1.27284 59.4263 1.27541 59.8732C1.27796 60.3194 1.57685 60.7221 2.0742 61.0072L59.2656 93.7032C59.7645 93.989 60.4044 94.1259 61.032 94.1259C61.6594 94.1259 62.298 93.989 62.7943 93.7032L119.613 61.0065C120.109 60.7214 120.404 60.318 120.402 59.8711C120.4 59.4242 120.101 59.0222 119.603 58.7371L98.8637 46.8807L98.696 47.2788Z" fill="#1A1A1A"/>
<path d="M119.505 60.8217L62.6859 93.5177L62.818 96.5777L119.497 63.7026C119.95 63.4411 120.402 63.1018 120.402 62.7597V59.8787C120.402 60.2201 119.956 60.5615 119.505 60.8217Z" fill="#1A1A1A"/>
<path fill-rule="evenodd" clip-rule="evenodd" d="M1.28064 59.8648L1.71252 59.8655V59.9004L1.71606 59.9354C1.71829 59.9475 1.71916 59.9575 1.71961 59.9639L1.71986 59.9674C1.72219 59.9796 1.72536 59.9938 1.72966 60.0123L1.7312 60.0173C1.73331 60.0245 1.73542 60.0337 1.73706 60.043L1.74241 60.0594L1.74799 60.0744L1.7487 60.0758L1.74998 60.0786L1.75397 60.0893C1.75692 60.0972 1.76142 60.1071 1.76881 60.1235L1.77843 60.1428L1.79427 60.1727L1.81329 60.2084C1.82739 60.2305 1.83702 60.2454 1.84675 60.2582L1.84977 60.2625L1.85957 60.2754L1.86035 60.2761L1.87241 60.2918L1.87342 60.2925C1.87679 60.2967 1.8824 60.3032 1.88877 60.3124C1.89581 60.321 1.9044 60.3302 1.91597 60.3438L1.93114 60.3588L1.93653 60.3645C1.94211 60.3709 1.94809 60.3773 1.96273 60.3915L1.98046 60.4094L1.98181 60.4108L1.98703 60.4151L1.98778 60.4158L2.00376 60.4307L2.01242 60.4386L2.02245 60.4471L2.02841 60.4521L2.03028 60.4535L2.03568 60.4578L2.06286 60.4799C2.07304 60.487 2.08252 60.4949 2.08914 60.4999L2.09012 60.5013L2.10717 60.5141L2.11257 60.5184L2.13475 60.5362L59.482 93.3213L59.3754 93.5045H59.59V93.8773L59.589 93.8766L59.5811 96.7561L2.39069 64.0601V64.0672L2.06888 63.8876C2.03514 63.869 2.00188 63.8491 1.96793 63.827L1.95116 63.8163L1.94537 63.8127L1.93885 63.8084L1.93263 63.8042L1.93152 63.8035C1.92555 63.7999 1.89708 63.7814 1.87679 63.7664C1.85908 63.755 1.84418 63.7429 1.83698 63.7372C1.82687 63.7301 1.81746 63.7222 1.81088 63.7172L1.80989 63.7165L1.78744 63.6987L1.76033 63.6773C1.74045 63.6623 1.72172 63.6466 1.70311 63.6288L1.681 63.6089L1.65458 63.5825C1.63947 63.569 1.62473 63.5547 1.611 63.5397L1.59457 63.5233L1.5858 63.5134C1.57294 63.4991 1.5561 63.4806 1.53985 63.4606L1.53564 63.4556C1.53171 63.4513 1.52472 63.4428 1.51702 63.4314L1.51576 63.43L1.51498 63.4292L1.50191 63.4129L1.50046 63.4107C1.49639 63.4057 1.48783 63.3958 1.47918 63.3808C1.46256 63.3573 1.44539 63.3309 1.42785 63.301C1.4124 63.2746 1.39718 63.2468 1.38388 63.2204L1.38256 63.2183L1.37622 63.2054L1.37424 63.2012L1.35949 63.1719V63.167C1.35347 63.1534 1.3474 63.1392 1.34187 63.1235L1.33855 63.1156C1.33601 63.1092 1.33085 63.0971 1.32634 63.0807L1.31037 63.028L1.29641 63.0002V62.9702C1.29248 62.9531 1.28826 62.9332 1.28476 62.9125C1.2812 62.8961 1.28 62.8826 1.27946 62.8754L1.27891 62.8648M1.44912 63.2896L1.42834 63.3017L1.42785 63.301L1.42737 63.3002L1.44896 63.2881L1.44912 63.2896ZM1.4803 63.2703L1.44896 63.2881L1.44821 63.2703H1.4803ZM2.10924 63.4057L59.1512 96.0162L59.1577 93.6299L2.39857 61.1805V61.1877L2.07677 61.0088C2.05387 60.9959 2.02336 60.9767 2.00191 60.9639C1.99286 60.9582 1.98542 60.9532 1.98085 60.951C1.96211 60.9396 1.94731 60.9289 1.93541 60.9197L1.91384 60.9047C1.90468 60.899 1.89416 60.8919 1.88334 60.884L1.87768 60.8805L1.84504 60.8541C1.83486 60.8463 1.82538 60.8391 1.81876 60.8334L1.81778 60.8327L1.80073 60.8192L1.79533 60.8156L1.76799 60.7935C1.75389 60.7828 1.74212 60.7728 1.73414 60.7657L1.72405 60.7565L1.71682 60.75L1.71052 60.745L1.70463 62.7472V62.7914L1.705 62.7942L1.70574 62.7992L1.70681 62.807L1.70947 62.8291L1.71055 62.8398C1.71308 62.8555 1.71695 62.8733 1.72275 62.8983L1.72299 62.899L1.72694 62.9147L1.73975 62.9567L1.74438 62.9681L1.74675 62.9738L1.74875 62.9802C1.75042 62.9852 1.7537 62.9931 1.75872 63.0023L1.76558 63.0166L1.76897 63.0266L1.7707 63.0301L1.77237 63.0337C1.78134 63.0508 1.79145 63.0693 1.80139 63.0864L1.80236 63.0879C1.81203 63.105 1.82205 63.12 1.83517 63.1392L1.83787 63.1413L1.84775 63.1563L1.84999 63.1592L1.85077 63.1599L1.86687 63.1805L1.87403 63.1898C1.88115 63.1984 1.88976 63.2083 1.90192 63.2219L1.90729 63.2254L1.92667 63.2482C1.93129 63.2532 1.93726 63.2596 1.94268 63.2639L1.94898 63.2689L1.98202 63.3017L1.98566 63.3053C1.98901 63.3081 1.99517 63.3131 2.00216 63.3202C2.00813 63.3259 2.0141 63.3309 2.0224 63.3373L2.0278 63.3409L2.05498 63.363C2.06516 63.3708 2.07463 63.378 2.08125 63.3837L2.08224 63.3844L2.09928 63.3979L2.10468 63.4015L2.10924 63.4057ZM1.72355 59.9952L1.7226 59.9931Z" fill="#1A1A1A"/>
<path fill-rule="evenodd" clip-rule="evenodd" d="M62.9001 93.149L62.8908 96.5282L62.7769 96.5887C62.7636 96.5952 62.7507 96.6023 62.7362 96.6101C62.7233 96.6173 62.7086 96.6258 62.6937 96.6336C62.6838 96.6386 62.675 96.6436 62.6711 96.6451L62.6703 96.6458L62.6678 96.6472L62.6629 96.65L62.5963 96.6828L62.5724 96.6942H62.5716L62.5589 96.7006L62.3884 96.7848L62.3798 96.7719L62.3583 96.7812H62.3487C62.3107 96.7947 62.2734 96.8076 62.2385 96.819H62.2369L62.2206 96.8239L62.215 96.8261L62.2125 96.8268L62.2075 96.8282L62.1975 96.8318C62.1858 96.8347 62.168 96.8404 62.148 96.8461C62.1159 96.856 62.0784 96.8674 62.0513 96.8753L62.0228 96.8831H62.0177L62.0129 96.8838C61.977 96.8938 61.9425 96.9016 61.9099 96.9088L61.9017 96.9109L61.8959 96.9116L61.8918 96.9123L61.8907 96.913C61.8858 96.9138 61.8753 96.9166 61.8629 96.9188C61.8293 96.9252 61.7908 96.9337 61.7513 96.9401L61.7284 96.9473H61.7092C61.6711 96.9544 61.634 96.9594 61.5985 96.9644C61.5862 96.9665 61.5679 96.9694 61.5465 96.9701L61.4702 96.9793C61.4565 96.9822 61.4455 96.9829 61.4388 96.9836L61.414 96.9843H61.4029C61.3719 96.9879 61.3417 96.99 61.3164 96.9914C61.2937 96.9943 61.2728 96.9943 61.2627 96.9943C61.2554 96.9943 61.2466 96.995 61.2369 96.9957C61.2052 96.9979 61.1632 97 61.1277 97H60.9363C60.8998 96.9979 60.8703 96.9964 60.8418 96.9964H60.8L60.6284 96.9829L60.619 96.9815L60.6131 96.9808L60.6038 96.98C60.5546 96.9758 60.5055 96.9701 60.4565 96.9629H60.448L60.4328 96.9608C60.3915 96.9551 60.3488 96.9487 60.3031 96.9401L60.2632 96.9337L60.1765 96.9159L60.1714 96.9152L60.1665 96.9138L60.1541 96.9109H60.1526C60.1464 96.9095 60.1356 96.9073 60.1233 96.9038L60.0892 96.8967C60.0789 96.8938 60.0676 96.8917 60.0568 96.8895C60.0298 96.8853 60.0076 96.8788 59.9961 96.8753L59.9939 96.8746L59.9124 96.8518L59.8934 96.8461L59.8739 96.8396C59.8302 96.8268 59.7819 96.8118 59.7331 96.7954C59.7162 96.7897 59.7021 96.784 59.6928 96.7805C59.6516 96.7648 59.6124 96.7491 59.575 96.7349L59.5638 96.7306L59.5602 96.7292L59.5536 96.7263C59.5055 96.7071 59.4603 96.6857 59.4207 96.6671L59.4091 96.6622L59.3977 96.6565L59.3959 96.6557L59.391 96.6536L59.383 96.6493L59.3709 96.6436C59.3516 96.6344 59.327 96.6222 59.3009 96.608L59.1407 96.422L59.1498 93.3008H59.4266L59.4752 93.3272C59.5132 93.3479 59.5472 93.3664 59.5804 93.3828L59.5895 93.3871L59.6008 93.3928L59.6026 93.3935L59.6056 93.3949L59.6119 93.3978C59.6524 93.417 59.6872 93.4327 59.7225 93.4476L59.7323 93.4512L59.7395 93.4534L59.7496 93.4583C59.7834 93.4733 59.816 93.4861 59.8495 93.4968L59.8882 93.5111C59.9274 93.5246 59.9673 93.5367 60.0116 93.5503L60.017 93.5517L60.0224 93.5531H60.0232L60.1117 93.5788C60.133 93.5824 60.1508 93.5873 60.162 93.5902L60.1947 93.5973L60.2358 93.6066L60.2412 93.608L60.2448 93.6087L60.2514 93.6102L60.2665 93.6137C60.2721 93.6144 60.2794 93.6166 60.2875 93.6187C60.2993 93.6216 60.307 93.623 60.3198 93.6251C60.3286 93.6265 60.3397 93.6287 60.3563 93.6322L60.3866 93.6372L60.3999 93.6394C60.4284 93.6429 60.4612 93.6479 60.4948 93.6543H60.5022L60.5191 93.6565C60.5468 93.6608 60.5704 93.6636 60.5991 93.6665C60.6164 93.6686 60.6356 93.67 60.6586 93.6729L60.6684 93.6743L60.6743 93.6757H60.6787L60.6911 93.6771C60.7356 93.6821 60.78 93.6857 60.8244 93.6871H60.8656L60.8775 93.6885C60.8991 93.6907 60.9227 93.6914 60.9601 93.6914H61.1341L61.2508 93.6857C61.2711 93.6836 61.2896 93.6836 61.3 93.6836C61.31 93.6828 61.3208 93.6814 61.3342 93.68H61.3354C61.3482 93.6793 61.3635 93.6779 61.3795 93.6764C61.3918 93.675 61.4094 93.6729 61.4287 93.6722L61.5059 93.6622C61.5175 93.66 61.5343 93.6579 61.5539 93.6565L61.5567 93.6558C61.5919 93.6515 61.623 93.6465 61.6525 93.6415L61.6649 93.6387C61.6733 93.6365 61.6835 93.6351 61.6953 93.6337C61.7228 93.6287 61.7527 93.623 61.787 93.6159L61.7939 93.6144L61.7985 93.6137L61.8026 93.6123H61.8037L61.8282 93.6073L61.8684 93.5973H61.8694C61.8859 93.5931 61.905 93.5881 61.924 93.5838L61.931 93.5816L61.9405 93.5802L61.953 93.5774C61.995 93.5667 62.0372 93.5553 62.0767 93.5417L62.0929 93.5367L62.0986 93.5353L62.101 93.5346L62.1034 93.5339L62.1106 93.5318C62.1574 93.5168 62.1982 93.5032 62.236 93.4883C62.2476 93.4833 62.2584 93.4797 62.2656 93.4769L62.2668 93.4762L62.284 93.4698L62.2978 93.4633L62.3113 93.4598L62.3134 93.4591L62.3265 93.4534L62.3482 93.4434L62.3491 93.4427L62.3806 93.4284L62.3944 93.422L62.4033 93.4199L62.4091 93.417L62.4163 93.4135C62.4338 93.4056 62.4502 93.3978 62.4703 93.3878L62.4783 93.3835L62.4866 93.3807L62.4905 93.3785L62.4948 93.3764C62.525 93.3607 62.5517 93.3464 62.576 93.3329L62.9001 93.149ZM59.5802 93.8518L59.5736 96.2659L59.5796 96.2687L59.5909 96.2737L59.5928 96.2751L59.5957 96.2758L59.602 96.2787C59.6424 96.2979 59.6773 96.3143 59.7126 96.3286L59.7225 96.3329L59.7253 96.3336L59.7312 96.3357C59.7709 96.3514 59.8087 96.3664 59.8481 96.3813L59.8515 96.3828C59.8617 96.3871 59.8661 96.3885 59.8711 96.3899L59.8738 96.3913C59.9052 96.402 59.937 96.412 59.9711 96.422H59.9906L60.0322 96.4405H60.0331L60.0349 96.4419L60.1125 96.4633L60.1207 96.4662L60.1248 96.4669L60.1343 96.4683L60.1451 96.4704L60.1828 96.479C60.1959 96.4818 60.2103 96.4847 60.224 96.4883L60.2294 96.4897L60.2339 96.4904L60.2402 96.4918L60.2422 96.4925L60.2661 96.4975L60.345 96.5132L60.3814 96.5196C60.4132 96.5253 60.4442 96.5303 60.4788 96.5353H60.4903L60.5073 96.5381C60.5492 96.5446 60.5909 96.5496 60.6326 96.5531C60.653 96.5538 60.6711 96.5567 60.6815 96.5581L60.8166 96.5688H60.8413C60.8813 96.5688 60.921 96.5709 60.9543 96.5724H61.1277C61.1506 96.5724 61.1689 96.5717 61.1927 96.5695C61.208 96.5688 61.2256 96.5681 61.2479 96.5667H61.2658L61.2707 96.5659L61.2818 96.5652C61.3143 96.5631 61.3392 96.5617 61.363 96.5588L61.3764 96.5567H61.4064L61.503 96.5446L61.5163 96.5431H61.5222L61.5275 96.5424L61.5341 96.541C61.5772 96.5353 61.6137 96.5303 61.6491 96.5232L61.6544 96.5225C61.6613 96.521 61.6713 96.5189 61.6832 96.5175C61.7125 96.5125 61.7429 96.5068 61.7791 96.4989L61.786 96.4975L61.7907 96.4968L61.7948 96.4961L61.7958 96.4954L61.8222 96.4904C61.8537 96.4833 61.8798 96.4768 61.9046 96.4697L61.9344 96.4612H61.937L61.9606 96.4555H61.9627L62.0062 96.4419C62.0239 96.4369 62.043 96.4305 62.0693 96.4227L62.0927 96.4155L62.0995 96.4141L62.1005 96.4134C62.1483 96.3977 62.1918 96.3835 62.2347 96.3671L62.2435 96.3642L62.2545 96.3599L62.2652 96.355L62.2708 96.3521L62.318 96.3322L62.3426 96.3215L62.3535 96.3165L62.4596 96.258L62.4663 93.8589L62.4467 93.8653L62.4244 93.8746H62.4233L62.4061 93.8817L62.3972 93.8853C62.3471 93.9052 62.2962 93.9216 62.2474 93.9373C62.2356 93.9416 62.2257 93.9444 62.2208 93.9459L62.214 93.9473L62.2132 93.948C62.1593 93.9651 62.1046 93.9808 62.0534 93.9936L62.0483 93.9943L62.0433 93.9958L62.034 93.9972L62.0198 94.0007C62.0065 94.0036 61.9923 94.0072 61.9759 94.0114H61.975C61.9584 94.0157 61.9393 94.0207 61.9204 94.025L61.9109 94.0271L61.9038 94.0286L61.8998 94.0293H61.8987C61.8937 94.0307 61.8833 94.0328 61.8707 94.035C61.8354 94.0428 61.7954 94.0506 61.7565 94.0571L61.7474 94.0585L61.7458 94.0592L61.7398 94.0606C61.6977 94.0685 61.654 94.0742 61.6175 94.0799L61.6037 94.0813L61.5885 94.0834H61.5808L61.5743 94.0849L61.4585 94.0991H61.4448L61.4322 94.1013L61.4151 94.1027C61.4033 94.1034 61.3909 94.1048 61.3745 94.1062H61.3733C61.3583 94.1077 61.3397 94.1091 61.3205 94.1105L61.3138 94.1112H61.299L61.2924 94.112L61.1395 94.1191H60.9564C60.9262 94.1191 60.8856 94.1191 60.8428 94.1148H60.8118C60.758 94.1127 60.7041 94.1084 60.6504 94.1027C60.6284 94.1013 60.6096 94.0984 60.6014 94.097C60.5918 94.0963 60.5807 94.0948 60.5686 94.0934C60.5385 94.0906 60.5025 94.0863 60.4688 94.082H60.4547L60.4347 94.0777C60.4033 94.072 60.372 94.067 60.337 94.062L60.3208 94.0599L60.3174 94.0592L60.275 94.0521L60.2612 94.0492C60.2402 94.0457 60.2047 94.0392 60.175 94.0314L60.1731 94.0307L60.1665 94.03L60.1514 94.0264L60.1352 94.0229L60.101 94.015C60.088 94.0122 60.0736 94.0093 60.0598 94.0057L60.0544 94.0043L60.0491 94.0029L60.0409 94.0008L60.0368 94L60.0218 93.9979L59.9139 93.9673L59.9086 93.9658H59.9078M59.8837 93.9587C59.8396 93.9452 59.791 93.9309 59.7418 93.9138L59.7324 93.9102L59.7129 93.9031C59.6664 93.8874 59.6227 93.8703 59.5802 93.8518" fill="#1A1A1A"/>
<path d="M51.3138 9.80647L53.1009 10.6913L58.8593 11.7604L63.8979 10.6913L65.4634 9.80543C67.3339 11.5612 66.848 13.847 64.0501 15.3226C60.7748 17.0501 55.5768 16.9972 52.4438 15.2169C49.8357 13.7348 49.4727 11.5077 51.3138 9.80647Z" fill="#1A1A1A"/>
<path fill-rule="evenodd" clip-rule="evenodd" d="M70.9817 60.4608C70.5392 60.9903 69.6643 61.872 68.0896 62.7323C67.447 63.0858 66.8516 63.3552 66.5321 63.4678C66.195 63.6083 65.9254 63.7145 65.6722 63.8043L65.5269 63.4016C65.7707 63.3153 66.0336 63.2113 66.3702 63.0708L66.3761 63.0687L66.3822 63.0666C66.6693 62.9661 67.2452 62.708 67.8801 62.3581C69.4026 61.5263 70.2371 60.681 70.649 60.1878L70.9817 60.4608Z" fill="#1A1A1A"/>
<path d="M49.3448 7.8855L49.8618 8.90938L50.2039 9.02229V12.0764L50.2017 12.0914C50.1727 12.2926 50.0145 12.4865 49.7744 12.4865C49.5601 12.4865 49.3448 12.314 49.3448 12.0612V7.8855Z" fill="#1A1A1A"/>
<path fill-rule="evenodd" clip-rule="evenodd" d="M67.3647 22.3337L67.3469 19.3768C67.3468 18.8823 67.1687 18.4758 66.8177 18.2768C66.4669 18.0779 66.0204 18.1294 65.5811 18.3808C65.1407 18.6328 64.7555 19.0512 64.4829 19.5189C64.2108 19.9857 64.0396 20.5213 64.049 21.0187L64.0669 24.2783L64.0689 24.2775L64.0687 24.2798C64.2182 24.2604 64.5502 24.1721 64.746 24.1016L64.8181 24.0701C64.9955 23.9931 65.2913 23.8646 65.6004 23.6962C66.4549 23.2203 67.1155 22.6158 67.3647 22.3337ZM66.931 22.1508L66.9151 19.378V19.3768C66.9151 18.9726 66.7727 18.7441 66.6031 18.648C66.4333 18.5517 66.1588 18.5442 65.7971 18.7511C65.4364 18.9575 65.1007 19.3145 64.857 19.7327C64.6131 20.1511 64.4729 20.6108 64.4809 21.0119L64.481 21.0149L64.4816 21.1181L66.931 22.1508Z" fill="#1A1A1A"/>
<path fill-rule="evenodd" clip-rule="evenodd" d="M96.2212 61.9819L94.3569 59.1423L91.8642 60.8522L92.0867 61.22L94.2374 59.7446L95.7325 62.0218L96.2212 61.9819ZM93.4665 62.2093L92.8533 62.1052L92.9972 62.2478L93.4665 62.2093Z" fill="#1A1A1A"/>
<path fill-rule="evenodd" clip-rule="evenodd" d="M93.4824 60.0722L87.9493 56.2419L92.0313 61.0986L93.4824 60.0722ZM95.1466 60.6267L96.0823 62.2482H96.2363L100.705 61.4735L95.1466 60.6267Z" fill="#1A1A1A"/>
<path fill-rule="evenodd" clip-rule="evenodd" d="M92.9692 61.8426L87.213 55.147L90.4665 62.1598L95.1567 64.3864L97.8178 65.1177L101.249 61.1762L94.3116 62.2118L92.9692 61.8426ZM93.4695 62.4242L94.3318 63.427L95.1567 64.03L97.6781 64.623L100.161 61.7713L94.2843 62.6487L93.4695 62.4242ZM90.794 61.8419L88.9218 57.8056L93.4731 63.1255L90.794 61.8419Z" fill="#1A1A1A"/>
<path fill-rule="evenodd" clip-rule="evenodd" d="M94.7968 54.4078H94.077V55.0856L91.4274 55.7314L91.3662 56.1213L94.077 57.7613V59.3971L94.7968 60.1098V54.4078ZM94.023 57.2274L92.0335 56.0243L94.023 55.5389V57.2274Z" fill="#1A1A1A"/>
<path fill-rule="evenodd" clip-rule="evenodd" d="M90.3472 37.412C91.1037 36.9777 92.2187 37.0259 93.4805 37.7454L93.5892 37.807L95.2382 36.8589L94.9208 36.6732C93.5769 35.8869 92.3086 35.8018 91.3527 36.3396L90.1305 37.042L90.1284 37.0433L90.3457 37.4131L90.3472 37.412ZM91.5716 36.708C92.1985 36.7297 92.8845 36.9314 93.587 37.3137L94.3716 36.8626C93.2545 36.3046 92.2813 36.3117 91.5716 36.708Z" fill="#1A1A1A"/>
<path d="M98.1416 47.9256L96.9194 48.6284C97.7673 48.1404 98.2993 47.1058 98.2993 45.6222C98.2993 42.6549 96.1903 39.024 93.5875 37.5403L94.8097 36.8375C97.4125 38.3212 99.5215 41.9521 99.5215 44.9194C99.5215 46.403 98.9896 47.4376 98.1416 47.9256Z" fill="#1A1A1A"/>
<path d="M98.1416 47.9256L96.9194 48.6284C97.7673 48.1404 98.2993 47.1058 98.2993 45.6222C98.2993 42.6549 96.1903 39.024 93.5875 37.5403L94.8097 36.8375C97.4125 38.3212 99.5215 41.9521 99.5215 44.9194C99.5215 46.403 98.9896 47.4376 98.1416 47.9256Z" fill="#1A1A1A"/>
<path fill-rule="evenodd" clip-rule="evenodd" d="M98.2151 47.8814C99.0198 47.3767 99.5215 46.3597 99.5215 44.9194C99.5215 41.9521 97.8379 38.3434 95.2358 36.8598L93.5875 37.5403C93.7271 37.6198 93.8653 37.7054 94.0014 37.7968C96.4098 39.4111 98.2993 42.8139 98.2993 45.6222C98.2993 46.4025 98.1525 47.0585 97.889 47.5763C97.6522 48.0429 96.9561 48.3493 96.9561 48.7057L97.6759 48.3493C98.0358 47.993 98.1913 47.8966 98.2151 47.8814ZM98.5829 46.9263C98.6808 46.5286 98.7312 46.0917 98.7312 45.6221C98.7312 44.0457 98.174 42.3229 97.2937 40.8111C96.5451 39.526 95.546 38.3638 94.4138 37.5599L94.8061 37.3343C95.9441 38.0451 96.9907 39.2014 97.7673 40.5357C98.5922 41.9522 99.0896 43.5285 99.0896 44.9193C99.0896 45.7931 98.8945 46.4574 98.5829 46.9263Z" fill="#1A1A1A"/>
<path fill-rule="evenodd" clip-rule="evenodd" d="M90.1389 37.0423C91.0869 36.5085 92.3552 36.6104 93.6954 37.3746C95.0371 38.1396 96.2442 39.4494 97.1137 40.9374C97.9825 42.4251 98.5253 44.1116 98.5152 45.6425C98.5152 47.1718 97.9645 48.2997 97.0158 48.8339C96.0686 49.3677 94.8003 49.2657 93.4601 48.5015L93.4593 48.5009C92.1176 47.7263 90.9156 46.4168 90.0489 44.9313C89.1823 43.4458 88.6403 41.7645 88.6403 40.2344C88.6403 38.7047 89.1909 37.5765 90.1389 37.0423ZM90.3527 37.414C89.5861 37.846 89.0722 38.7968 89.0722 40.2344C89.0722 41.6715 89.5839 43.2795 90.4232 44.7174C91.2618 46.155 92.4149 47.4027 93.676 48.1312C94.9378 48.8503 96.0348 48.8947 96.8028 48.4622C97.5694 48.0302 98.0833 47.0794 98.0833 45.6417V45.6404C98.0927 44.2041 97.5809 42.5918 96.7395 41.1516C95.8987 39.7114 94.7406 38.4639 93.4795 37.7453C92.2177 37.0258 91.1207 36.9814 90.3527 37.414Z" fill="#1A1A1A"/>
<path fill-rule="evenodd" clip-rule="evenodd" d="M90.5773 38.2355C91.3618 37.7918 92.4041 37.8792 93.4982 38.5071C94.593 39.1353 95.5741 40.2009 96.2781 41.4085C96.982 42.6159 97.4211 43.9856 97.411 45.2335C97.4002 46.4794 96.9482 47.4115 96.1636 47.8552C95.3783 48.2989 94.3368 48.2115 93.242 47.5836C92.1471 46.9552 91.1711 45.8894 90.47 44.682C89.7682 43.4746 89.3298 42.1057 89.3298 40.8589V40.8572C89.3399 39.6113 89.792 38.6793 90.5773 38.2355ZM89.7617 40.8599C89.7617 42.014 90.1706 43.3095 90.8443 44.4687C91.518 45.6283 92.4444 46.6317 93.4586 47.2136C94.4743 47.7961 95.3445 47.8257 95.9491 47.4838C96.5545 47.1418 96.9691 46.3853 96.9792 45.23C96.9885 44.0769 96.5797 42.7818 95.9038 41.6223C95.2279 40.4629 94.2965 39.4592 93.2815 38.8771C92.2666 38.2947 91.3964 38.265 90.791 38.6069C90.1864 38.9488 89.7711 39.7051 89.7617 40.8599Z" fill="#1A1A1A"/>
<path d="M66.7559 60.2249C66.6771 60.2249 66.5982 60.1472 66.5982 60.0688V59.0346C66.5982 58.9562 66.6771 58.8778 66.7559 58.8778C66.8348 58.8778 66.9136 58.9562 66.9136 59.0346V60.0688C66.9136 60.1472 66.8545 60.2249 66.7559 60.2249Z" fill="#1A1A1A"/>
<path fill-rule="evenodd" clip-rule="evenodd" d="M58.5677 0L63.5537 0.769201L67.238 2.887L67.1296 3.07196L67.3251 2.98108L68.7204 5.92631L67.3332 8.93355L63.6072 11.0858L58.5673 11.855L53.5098 11.0858L49.7668 8.9344L48.3428 5.92866L49.73 2.92142L53.4563 0.769058L58.5677 0ZM66.9628 3.22327L63.407 1.17939L58.5668 0.432711L53.6026 1.1796L50.066 3.22249L48.8187 5.92631L50.1005 8.6317L53.656 10.6754L58.5672 11.4223L63.4604 10.6755L66.9972 8.63255L68.2446 5.92866L66.9628 3.22327Z" fill="#1A1A1A"/>
<path fill-rule="evenodd" clip-rule="evenodd" d="M58.7829 0.220436L58.3511 0.211598L58.3246 1.48821L57.8127 1.08165L58.1194 1.63083L53.5531 0.764978L53.4718 1.185L57.1865 1.88934L49.8524 2.86061L49.9096 3.28448L56.871 2.36261L48.4823 5.72971L48.6446 6.126L57.2518 2.67116L49.7811 8.61671L50.0516 8.95007L57.8206 2.76717L53.3934 10.7781L53.7722 10.9833L58.3187 2.75683L58.3512 11.6394L58.7831 11.6378L58.7505 2.76054L63.3447 10.9846L63.7225 10.7776L59.2503 2.77166L67.03 8.95035L67.3002 8.61671L59.8189 2.67501L68.4013 6.12608L68.5638 5.72986L60.1926 2.36375L67.1009 3.28427L67.1584 2.86047L59.8607 1.88799L63.5213 1.18386L63.439 0.764051L59.3491 1.55071L59.8125 1.18187L58.7541 1.60674L58.7829 0.220436Z" fill="#1A1A1A"/>
<path d="M58.6764 64.9118C58.3411 64.9118 58.0357 64.9021 57.7204 64.8923C57.196 64.8909 56.5732 64.8367 56.3936 64.8199C56.3153 64.8123 56.2214 64.8012 56.1234 64.7893C55.9972 64.7747 55.8647 64.7594 55.7543 64.7497C55.3533 64.7135 54.8057 64.6223 54.417 64.5527C52.8916 64.3014 51.5786 63.8476 51.2127 63.7139C50.6732 63.5072 50.2497 63.345 49.5373 63.0012C49.3696 62.9274 49.1714 62.8369 49.0192 62.7436C48.8502 62.6552 48.628 62.5195 48.4196 62.3914L48.1325 62.2174C47.8604 62.0553 47.5462 61.8144 47.2728 61.6021C47.2007 61.5506 47.0011 61.4045 46.8626 61.2687C46.6025 61.0724 46.307 60.7439 46.1558 60.5671C45.9435 60.3151 45.7084 60.0284 45.5671 59.8015L45.5207 59.7339C45.4504 59.6323 45.371 59.5175 45.3211 59.4026C45.2888 59.3337 45.2484 59.2537 45.2065 59.1708C45.1169 58.9933 45.0224 58.8047 44.9601 58.6328C44.9394 58.5625 44.9183 58.4998 44.8972 58.4379C44.8737 58.3676 44.8501 58.2973 44.8312 58.2319C44.7746 58.007 44.7194 57.7001 44.6832 57.4655C44.6614 57.3368 44.627 56.931 44.6635 56.5147C45.3903 47.4766 46.1906 40.1667 47.0384 32.4274C47.7279 26.1295 48.4407 19.6173 49.1141 12.0597L49.545 12.0785V12.4839C49.6121 13.9595 50.844 15.344 52.9247 16.2728C53.6926 16.6278 54.3685 16.8088 54.4318 16.8203C54.7059 16.8951 55.0373 16.9818 55.2992 17.0336C55.7775 17.1342 55.9076 17.1516 56.2935 17.2031L56.5859 17.2428C56.776 17.2696 57.0284 17.2859 57.2456 17.2999L57.4262 17.312C57.9872 17.3469 58.0596 17.3469 58.6212 17.3469C58.8279 17.3469 59.3213 17.3308 60.3065 17.2243L60.4766 17.1975C60.7912 17.1499 61.3763 17.0615 62.0199 16.8955C62.8676 16.6727 63.482 16.4308 63.5804 16.3821C63.7575 16.3087 64.0633 16.1789 64.2678 16.0682C64.6629 15.8566 64.7346 15.8124 65.0875 15.5935L65.1641 15.5462C65.5479 15.2966 65.9022 15.005 66.1714 14.7182C66.4216 14.4694 66.5931 14.2592 66.7316 14.0309C66.7436 14.0058 66.7724 13.9571 66.8019 13.9087C66.8258 13.869 66.8504 13.8297 66.8666 13.7981L66.9123 13.709C66.9727 13.5906 67.0458 13.4514 67.0859 13.3331C67.0901 13.3112 67.1049 13.2635 67.1189 13.2158C67.1316 13.1754 67.1435 13.1351 67.152 13.1027C67.1857 12.9684 67.2194 12.785 67.2363 12.6517L67.2356 12.6545L67.2391 12.6036C67.2454 12.5208 67.2588 12.359 67.2433 12.1627C67.2412 12.1356 67.2384 12.1081 67.2356 12.0813L67.6651 12.0374C67.6686 12.0677 67.6714 12.098 67.6742 12.1272C68.3856 19.5676 69.2256 27.0462 70.0375 34.2792C70.8487 41.5017 71.6873 48.971 72.3979 56.3957C72.4197 56.4625 72.4197 56.5301 72.4197 56.5864V56.7458C72.4197 56.8217 72.4176 56.8857 72.4239 56.9212L72.3276 56.9379L72.4724 56.9922C72.4534 57.2094 72.4176 57.499 72.381 57.7147C72.3466 57.9361 72.2728 58.2611 72.1709 58.5019C72.064 58.7811 71.9452 59.0734 71.8201 59.285C71.6992 59.5091 71.4989 59.8175 71.326 60.0458C71.2451 60.1544 71.1608 60.2671 71.0497 60.3938L70.6708 60.2539L70.6526 54.9653C70.6526 54.2526 70.4192 53.7271 69.9953 53.4855C69.5707 53.2433 68.9894 53.3074 68.3603 53.6693C66.9861 54.4579 65.8684 56.3755 65.8684 57.9437L65.8867 63.5309L65.7426 63.7334C65.4361 63.8399 65.1662 63.9297 64.807 64.0355C64.5068 64.1343 64.0689 64.2492 63.5108 64.3745C63.3189 64.4267 63.0441 64.4817 62.8423 64.5172C62.4297 64.5889 61.8927 64.678 61.4983 64.7302L61.3433 64.7462C61.0354 64.7789 60.3947 64.8471 59.5224 64.891C59.2106 64.9063 58.9344 64.9118 58.6764 64.9118ZM49.3991 13.7034C48.769 20.5897 48.1082 26.6237 47.4675 32.4733C46.6205 40.2095 45.8202 47.5169 45.0937 56.5502C45.0582 56.9602 45.0979 57.3284 45.1095 57.3973C45.1447 57.6235 45.1963 57.9152 45.2484 58.1219C45.2638 58.1741 45.2853 58.2388 45.307 58.3029C45.3299 58.3704 45.3527 58.4386 45.371 58.5019C45.4237 58.646 45.5109 58.8172 45.5928 58.9794C45.6367 59.0664 45.6793 59.1507 45.7158 59.2286C45.7545 59.3184 45.8209 59.411 45.8771 59.4924L45.9313 59.5718C46.0789 59.8084 46.3541 60.1349 46.4866 60.2922C46.5983 60.423 46.8883 60.7509 47.1466 60.9472C47.2475 61.0446 47.3842 61.1546 47.5322 61.2597C47.8028 61.4706 48.1047 61.7017 48.3546 61.8506C48.4439 61.9035 48.5437 61.9648 48.647 62.0281C48.8473 62.1506 49.0603 62.2815 49.2347 62.3734C49.3763 62.4597 49.5591 62.5425 49.72 62.6142C50.4223 62.9525 50.8384 63.1119 51.3652 63.3144C51.7188 63.4425 52.9995 63.8859 54.4912 64.1316C54.8743 64.2005 55.4081 64.2889 55.7926 64.3237C55.9058 64.3334 56.0436 64.3494 56.1743 64.3647L56.4351 64.394C56.7943 64.4274 57.3099 64.4636 57.6779 64.4636L57.7338 64.465C58.2824 64.4817 58.8005 64.497 59.5009 64.4636C60.361 64.4204 60.9932 64.3536 61.2973 64.3216L61.4495 64.3056C61.8294 64.2548 62.3608 64.1671 62.7671 64.0961C62.9569 64.0627 63.2163 64.0104 63.4061 63.9596C63.96 63.835 64.3838 63.7244 64.677 63.6283C64.9764 63.5392 65.2105 63.4634 65.4544 63.3798L65.4368 57.9444C65.4368 56.2113 66.6255 54.1711 68.1438 53.299C68.9121 52.8584 69.646 52.793 70.2111 53.1152C70.7742 53.4361 71.0841 54.0932 71.0841 54.9646L71.1003 59.6226C71.2346 59.4305 71.3597 59.2307 71.4433 59.0762C71.5713 58.859 71.7055 58.511 71.7702 58.3433C71.844 58.1679 71.9157 57.8971 71.9544 57.6465C71.9832 57.4802 72.0106 57.2713 72.0296 57.0883C71.9881 57.0062 71.9881 56.8885 71.9881 56.7458V56.5864C71.9881 56.5642 71.9895 56.5419 71.986 56.5238L71.9705 56.4653C71.2599 49.0343 70.4206 41.5574 69.6087 34.3265C68.8523 27.5913 68.0721 20.6437 67.3931 13.7104C67.3607 13.7793 67.327 13.8444 67.2968 13.9032L67.2525 13.9895C67.2321 14.0299 67.2026 14.0793 67.1724 14.1287C67.1485 14.1677 67.1253 14.2063 67.1091 14.2373C66.9467 14.507 66.7499 14.7496 66.4821 15.0148C66.1953 15.3207 65.8136 15.6356 65.4115 15.8966L65.3166 15.9562C64.9532 16.1813 64.8801 16.2266 64.4738 16.4441C64.2636 16.5575 63.9691 16.6846 63.7596 16.7709C63.6493 16.8262 63.0033 17.0796 62.1302 17.3089C61.4639 17.4812 60.8639 17.5717 60.5416 17.6204L60.3684 17.6475C59.6081 17.73 58.9931 17.7742 58.6212 17.7742C58.0476 17.7742 57.9738 17.7742 57.3974 17.7387L57.2171 17.7269C56.9894 17.7119 56.7244 17.6945 56.5258 17.6663L56.2355 17.627C55.8485 17.5752 55.7037 17.5557 55.2117 17.4523C54.9425 17.3987 54.5977 17.3093 54.3432 17.2376C54.1242 17.193 53.4259 16.9766 52.7444 16.6616C51.0714 15.9144 49.9084 14.8734 49.3991 13.7034Z" fill="#1A1A1A"/>
<path d="M52.8876 10.48L53.1009 10.6913L53.7466 10.9044V15.9396C53.7466 16.0625 53.694 16.1709 53.6207 16.2475C53.5488 16.3227 53.4416 16.3825 53.3171 16.3825C53.1029 16.3825 52.8876 16.21 52.8876 15.9572V10.48Z" fill="#1A1A1A"/>
<path d="M57.9434 11.5768L58.4994 11.7604H58.8025V16.9098C58.8025 17.1627 58.5872 17.3352 58.373 17.3352C58.1587 17.3352 57.9434 17.1627 57.9434 16.9098V11.5768Z" fill="#1A1A1A"/>
<path d="M62.9802 11.0476H63.538L63.8393 10.8487V15.9396C63.8393 16.158 63.6755 16.3825 63.4097 16.3825C63.1954 16.3825 62.9802 16.21 62.9802 15.9572V11.0476Z" fill="#1A1A1A"/>
<path d="M66.5405 9.14359V12.0612C66.5405 12.314 66.7558 12.4865 66.9701 12.4865C67.2103 12.4865 67.3685 12.2925 67.3975 12.0914L67.3997 12.0764V8.08735L66.7771 8.90937L66.5405 9.14359Z" fill="#1A1A1A"/>
<path d="M58.533 3.65366C59.8995 3.65366 61.0073 3.0697 61.0073 2.34926C61.0073 1.62888 59.8995 1.04492 58.533 1.04492C57.1664 1.04492 56.0586 1.62888 56.0586 2.34926C56.0586 3.0697 57.1664 3.65366 58.533 3.65366Z" fill="#7246EE"/>
<path fill-rule="evenodd" clip-rule="evenodd" d="M56.8839 1.61663C56.4638 1.83808 56.2737 2.10764 56.2737 2.35019C56.2737 2.59281 56.4638 2.86237 56.8839 3.08382C57.2947 3.30036 57.877 3.44077 58.5321 3.44077C59.1871 3.44077 59.7695 3.30036 60.1802 3.08382C60.6004 2.86237 60.7905 2.59281 60.7905 2.35019C60.7905 2.10764 60.6004 1.83808 60.1802 1.61663C59.7695 1.40009 59.1871 1.25968 58.5321 1.25968C57.877 1.25968 57.2947 1.40009 56.8839 1.61663ZM56.6809 1.23915C57.1657 0.983562 57.8206 0.832031 58.5321 0.832031C59.2436 0.832031 59.8984 0.983562 60.3832 1.23915C60.8586 1.48976 61.2224 1.87243 61.2224 2.35019C61.2224 2.82802 60.8586 3.21069 60.3832 3.4613C59.8984 3.71689 59.2436 3.86842 58.5321 3.86842C57.8206 3.86842 57.1657 3.71689 56.6809 3.4613C56.2056 3.21069 55.8418 2.82802 55.8418 2.35019C55.8418 1.87243 56.2056 1.48976 56.6809 1.23915V1.23915Z" fill="#1A1A1A"/>
</g>
</g>
<defs>
<clipPath id="clip0_415_144180">
<rect width="120" height="97" fill="white" transform="translate(0.664062)"/>
</clipPath>
<clipPath id="clip1_415_144180">
<rect width="120" height="97" fill="white" transform="translate(0.664062)"/>
</clipPath>
</defs>
</svg>
