<svg width="1em" height="0.603em" viewBox="0 0 121 73" fill="none" xmlns="http://www.w3.org/2000/svg">
<path d="M119.391 34.4335C120.317 34.9625 120.321 35.8194 119.402 36.3463L62.1822 69.2737C61.2651 69.8027 59.7701 69.8027 58.847 69.2737L1.25249 36.3484C0.329339 35.8194 0.323388 34.9625 1.24256 34.4356L58.4619 1.50788C59.381 0.979116 60.8739 0.979116 61.7971 1.50788L119.391 34.4356L119.391 34.4335Z" fill="white"/>
<path d="M94.0276 21.6873L93.9848 34.272L60.7285 15.2556L60.7718 2.67087L94.0276 21.6873Z" fill="white"/>
<path d="M60.7718 2.67087L60.7285 15.2556L27.6885 34.272L27.7102 21.6873L60.7718 2.67087Z" fill="white"/>
<path d="M60.9878 40.7037L60.9445 53.2859L27.6885 34.272L27.7102 21.6873L60.9878 40.7037Z" fill="white"/>
<path d="M94.0276 21.6873L93.984 34.272L60.9445 53.2859L60.9878 40.7037L94.0276 21.6873Z" fill="white"/>
<path d="M38.3737 12.546L59.8982 0.855469L60.6747 2.73626L27.7193 21.6932L38.3737 12.546Z" fill="white"/>
<path d="M60.0787 0.855469L81.4797 12.7597L94.0268 21.6932L60.8561 2.73626L60.0787 0.855469Z" fill="white"/>
<path d="M46.0482 38.0895L46.0266 38.6012L33.3174 31.3362V30.8194L46.0482 38.0895Z" fill="white"/>
<path d="M48.6248 36.588V37.1005L46.0266 38.6012L46.0482 38.0895L48.6248 36.588Z" fill="white"/>
<path d="M48.6031 36.6068L46.0266 38.0882L33.2958 30.7758L35.8723 29.2984L48.6031 36.6068Z" fill="white"/>
<path d="M39.3795 49.6239V50.1386L26.6486 42.8706V42.3539L39.3795 49.6239Z" fill="white"/>
<path d="M41.9776 48.1407V48.6575L39.3795 50.1368V49.6221L41.9776 48.1407Z" fill="white"/>
<path d="M41.956 48.1646L39.3578 49.6418L26.6271 42.3121L29.2035 40.8328L41.956 48.1646Z" fill="white"/>
<path d="M41.5879 45.7821V46.2988L28.8788 39.0287V38.5163L41.5879 45.7821Z" fill="white"/>
<path d="M44.1858 44.2821V44.7982L41.5879 46.2988V45.7821L44.1858 44.2821Z" fill="white"/>
<path d="M44.1646 44.3056L41.5664 45.7827L28.8356 38.4739L31.4337 36.9925L44.1646 44.3056Z" fill="white"/>
<path d="M43.818 41.9235V42.4596L31.1089 35.1701V34.6577L43.818 41.9235Z" fill="white"/>
<path d="M46.4158 40.4459V40.9584L43.818 42.4596V41.9235L46.4158 40.4459Z" fill="white"/>
<path d="M46.3946 40.4657L43.7965 41.9471L31.0657 34.6146L33.6638 33.1332L46.3946 40.4657Z" fill="white"/>
<path d="M58.846 69.2619L1.25154 36.3365V36.348C1.21978 36.3301 1.19001 36.3107 1.16022 36.2928C1.1503 36.287 1.14235 36.2813 1.13243 36.2734L1.07486 36.2339L1.04508 36.2102C1.0292 36.1987 1.01332 36.1851 0.997435 36.1729L0.967651 36.1492C0.95177 36.1377 0.937874 36.1241 0.923979 36.1119C0.914049 36.1026 0.904126 36.0947 0.894202 36.0846L0.876335 36.0667C0.862432 36.053 0.850523 36.0415 0.838614 36.0279L0.824711 36.0136C0.80883 35.9963 0.792949 35.9784 0.779053 35.9612C0.777067 35.9568 0.773095 35.9533 0.771116 35.9511C0.761186 35.9375 0.749277 35.9231 0.739346 35.9095C0.721479 35.8858 0.705597 35.8607 0.689716 35.8348C0.675821 35.8076 0.661925 35.7839 0.650009 35.7602L0.6381 35.7365C0.630163 35.7193 0.622218 35.7013 0.61626 35.6855C0.612295 35.6776 0.610309 35.6698 0.606337 35.6597C0.598392 35.6403 0.592441 35.6209 0.588469 35.6009C0.588469 35.5951 0.584497 35.5915 0.584497 35.5851C0.578539 35.5599 0.572588 35.5341 0.568616 35.509C0.568616 35.5025 0.568616 35.4946 0.56663 35.4889L0.560671 35.4322V35.3848L0.552734 38.2881V38.3355C0.552734 38.3549 0.556707 38.3728 0.558693 38.3929C0.558693 38.3986 0.558693 38.4065 0.560671 38.4123C0.564644 38.4381 0.570602 38.4632 0.57656 38.4891V38.4927C0.57656 38.4927 0.580525 38.5006 0.580525 38.5063L0.598392 38.5659C0.600379 38.5731 0.604351 38.5809 0.608323 38.591C0.614274 38.6089 0.622218 38.6262 0.630163 38.642L0.636114 38.6577L0.640086 38.6656C0.651995 38.6893 0.665897 38.7152 0.679793 38.7389C0.695674 38.7661 0.711556 38.7898 0.729423 38.8149L0.735381 38.8228C0.743318 38.835 0.753249 38.8444 0.761186 38.8566L0.76913 38.8666C0.783025 38.8838 0.798907 38.9018 0.814788 38.9197C0.81876 38.9233 0.822733 38.9291 0.828684 38.9334C0.8406 38.947 0.854495 38.9606 0.868391 38.9721L0.886258 38.9901L0.900153 39.0037C0.906112 39.0102 0.91207 39.0138 0.918021 39.0173C0.931916 39.0317 0.945819 39.0432 0.9617 39.0554C0.971623 39.0626 0.981554 39.0705 0.991477 39.0784C1.00736 39.0906 1.02324 39.1042 1.03912 39.1157C1.04905 39.1236 1.05897 39.1315 1.0689 39.1379C1.08677 39.1516 1.10662 39.163 1.12647 39.1767C1.1364 39.1831 1.14434 39.1889 1.15427 39.1946C1.18405 39.214 1.21382 39.232 1.24559 39.2499V39.2377L58.8401 72.1637L58.848 69.2597L58.846 69.2619Z" fill="#7246EE"/>
<path d="M61.9585 72.285C61.9705 72.2793 61.9843 72.2736 61.9963 72.2678L62.0558 72.2377C62.0657 72.2319 62.0757 72.2283 62.0856 72.2226C62.1154 72.2068 62.1431 72.191 62.1729 72.1752L62.1809 69.2719C62.1531 69.287 62.1234 69.3028 62.0936 69.3186C62.0836 69.3243 62.0737 69.3286 62.0638 69.3322C62.0439 69.3423 62.0241 69.3523 62.0022 69.3624C61.9903 69.3681 61.9784 69.3738 61.9645 69.3774C61.9466 69.3853 61.9268 69.3954 61.9089 69.4033C61.895 69.409 61.8811 69.4148 61.8672 69.4191C61.8494 69.427 61.8315 69.4327 61.8136 69.4406C61.768 69.4585 61.7203 69.4743 61.6707 69.4901C61.6608 69.4937 61.6508 69.4959 61.6389 69.4995C61.5912 69.5152 61.5417 69.5289 61.494 69.5411L61.4662 69.5468C61.4324 69.5547 61.3967 69.5648 61.363 69.5727C61.3491 69.5741 61.3372 69.5784 61.3233 69.5806C61.2855 69.5877 61.2478 69.5956 61.2121 69.6021C61.2042 69.6021 61.1982 69.6035 61.1903 69.6057C61.1486 69.6136 61.1049 69.6193 61.0632 69.6258C61.0513 69.6258 61.0393 69.6272 61.0294 69.6294C60.9977 69.633 60.9659 69.6373 60.9342 69.6409C60.9203 69.6409 60.9044 69.643 60.8905 69.6452C60.8587 69.6473 60.827 69.6509 60.7951 69.6531C60.7833 69.6531 60.7693 69.6531 60.7575 69.6552C60.7138 69.6566 60.6701 69.6588 60.6264 69.661H60.4458C60.41 69.661 60.3743 69.661 60.3386 69.6566H60.3048C60.2532 69.6552 60.2016 69.6509 60.15 69.6452C60.1381 69.6452 60.1281 69.643 60.1163 69.6409C60.0666 69.6351 60.017 69.6315 59.9673 69.6236H59.9574C59.9157 69.6157 59.874 69.61 59.8343 69.6035C59.8224 69.6021 59.8105 69.6 59.7986 69.5978C59.7688 69.592 59.741 69.5878 59.7112 69.5806C59.6974 69.5763 59.6814 69.5741 59.6676 69.5705L59.5881 69.5526C59.5742 69.549 59.5604 69.5447 59.5445 69.5432L59.4611 69.5196C59.4492 69.5153 59.4393 69.5131 59.4274 69.5095C59.3817 69.4959 59.336 69.4822 59.2904 69.4664C59.2804 69.4621 59.2705 69.4586 59.2586 69.4542C59.2169 69.4406 59.1772 69.4248 59.1375 69.4076L59.1216 69.4011C59.0779 69.3839 59.0362 69.3638 58.9946 69.3444C58.9846 69.3401 58.9747 69.3344 58.9648 69.3308C58.925 69.3107 58.8854 69.2892 58.8457 69.2676H58.8397L58.8318 72.1673H58.8357C58.8734 72.1932 58.9151 72.2126 58.9548 72.2319C58.9648 72.2362 58.9747 72.242 58.9846 72.2456C59.0263 72.2657 59.068 72.285 59.1117 72.303L59.1276 72.3087C59.1673 72.3245 59.207 72.3403 59.2487 72.3561C59.2586 72.3597 59.2685 72.364 59.2804 72.3676C59.3261 72.3834 59.3718 72.397 59.4174 72.4114H59.4234C59.4234 72.4114 59.4412 72.4185 59.4492 72.4207L59.5325 72.4444C59.5465 72.4487 59.5604 72.4523 59.5762 72.4544C59.6021 72.4602 59.6298 72.4659 59.6556 72.4717C59.6695 72.476 59.6835 72.4781 59.6993 72.4817C59.7291 72.4875 59.7569 72.4939 59.7867 72.4997L59.8224 72.5054C59.8641 72.5133 59.9038 72.519 59.9455 72.5248H59.9554C60.0051 72.5327 60.0547 72.5391 60.1043 72.5427C60.1163 72.5427 60.1261 72.5449 60.1381 72.547C60.1897 72.5506 60.2413 72.5542 60.2929 72.5585H60.3267C60.3624 72.5585 60.3981 72.5607 60.4339 72.5621H60.6145C60.6582 72.5621 60.7019 72.5585 60.7456 72.5564C60.7575 72.5564 60.7714 72.5564 60.7833 72.5542C60.815 72.5528 60.8468 72.5506 60.8786 72.547H60.9024C60.9084 72.547 60.9163 72.5463 60.9222 72.5449C60.954 72.5406 60.9877 72.537 61.0195 72.5327C61.0314 72.5327 61.0433 72.5312 61.0533 72.5291C61.097 72.5233 61.1387 72.5169 61.1803 72.509H61.1843C61.1843 72.509 61.1962 72.5054 61.2021 72.5054C61.2399 72.4997 61.2776 72.4918 61.3153 72.4839C61.3292 72.4817 61.3411 72.4781 61.355 72.476C61.3908 72.4681 61.4245 72.4602 61.4582 72.4501C61.4643 72.4501 61.4722 72.4465 61.4801 72.4444H61.4861C61.5356 72.4307 61.5833 72.4149 61.631 72.4013C61.6409 72.397 61.6508 72.3956 61.6627 72.3913C61.7104 72.3755 61.758 72.3597 61.8057 72.3425H61.8077C61.8255 72.3346 61.8414 72.3281 61.8573 72.3209C61.8712 72.3145 61.8851 72.3087 61.899 72.303C61.9168 72.2951 61.9367 72.2872 61.9546 72.2771L61.9585 72.285Z" fill="#7246EE"/>
<path d="M66.8276 15.0054L64.4007 16.3855L53.3278 10.1181L55.7547 8.71875L66.8276 15.0054Z" fill="#7246EE"/>
<path d="M60.5163 69.8832C59.8728 69.8832 59.2287 69.7423 58.7374 69.4605L1.14325 36.5352C0.624388 36.238 0.338769 35.83 0.338769 35.387C0.338769 34.9476 0.62085 34.5431 1.13298 34.2494L58.352 1.32199C59.3458 0.750025 60.9074 0.748977 61.9058 1.32163L119.5 34.2473C120.019 34.5445 120.305 34.9518 120.305 35.3948C120.306 35.8342 120.023 36.2387 119.51 36.5331L62.2909 69.4605C61.8024 69.7423 61.1597 69.8832 60.5163 69.8832ZM60.1273 1.32444C59.5628 1.32444 58.9993 1.44781 58.5707 1.69418L1.35136 34.6223C0.978671 34.8354 0.773394 35.1074 0.773742 35.387C0.773742 35.6702 0.982208 35.945 1.36091 36.1623L58.9551 69.0876C59.8173 69.5818 61.2149 69.5818 62.0721 69.0883L119.292 36.1602C119.665 35.9464 119.87 35.6744 119.87 35.3948C119.87 35.1312 119.688 34.874 119.356 34.6644L61.6878 1.69453C61.2574 1.4478 60.6918 1.32444 60.1273 1.32444Z" fill="#1A1A1A"/>
<path d="M119.4 36.3488L62.1813 69.277L62.2781 72.3647L119.392 39.2528C119.849 38.9894 120.305 38.647 120.305 38.3032V35.3999C120.305 35.7437 119.855 36.0875 119.4 36.3488Z" fill="#1A1A1A"/>
<path d="M58.7321 72.3514L1.1475 39.431L1.13759 39.4373C1.10149 39.4169 1.06787 39.3966 1.03424 39.3749L1.07388 39.2508H1.04345L0.983276 39.3419L0.857631 39.2487C0.802065 39.2053 0.780472 39.1877 0.759241 39.1646L0.738358 39.1478C0.707211 39.1197 0.685625 39.0987 0.667925 39.0784L0.661198 39.0728L0.661908 39.0714L0.661553 39.0707L0.662611 39.07L0.769497 38.8674L0.602442 39.0055L0.567048 38.9305L0.552891 38.941C0.53095 38.9102 0.511481 38.8814 0.492019 38.8478C0.475384 38.819 0.458748 38.7882 0.444947 38.7602L0.438576 38.7321L0.43327 38.7342C0.423361 38.7139 0.411677 38.6873 0.402123 38.6585L0.359654 38.4938C0.35682 38.5057 0.351514 38.4798 0.346557 38.4476L0.341954 38.3936C0.338416 38.3817 0.335938 38.3592 0.335938 38.3361L0.343722 35.3852L0.778348 35.3859L0.782951 35.4602C0.786488 35.4826 0.786488 35.5002 0.786488 35.51L0.836393 35.6488L0.777645 35.7006V35.7672L0.884886 35.7399C0.888068 35.7434 0.899752 35.763 0.913198 35.7798L0.947527 35.8261C0.940445 35.817 0.946817 35.8226 0.956022 35.8352L0.988227 35.8724L0.86683 36.0581L1.03247 35.9179L0.914612 36.1037L1.07246 35.9551L1.24376 36.0882L1.20696 36.2445L1.25049 36.2179L1.30606 36.1296L1.35136 36.1569L1.36057 36.1513L58.9551 69.0767L58.8832 69.2L59.0659 69.261L59.0581 72.1657L58.7321 72.3514ZM1.3549 39.0525L58.6242 71.7928L58.6309 69.3886L1.15175 36.5291L1.14219 36.5347L1.07636 36.4955C1.0307 36.4681 1.01336 36.4562 0.991416 36.4373L0.826485 36.3132C0.820469 36.3104 0.800999 36.2929 0.782595 36.2761L0.776224 36.2698L0.770563 38.2898L0.553957 38.3501L0.772332 38.3452L0.788967 38.4419L0.781885 38.444L0.784009 38.4518L0.790735 38.4497L0.784364 38.4532L0.79852 38.5071H0.672165L0.592533 38.5457L0.807726 38.5064L0.83498 38.573L0.836393 38.5723L0.868954 38.6326C0.880986 38.6529 0.893374 38.6718 0.906827 38.6901L0.918504 38.7069L0.913901 38.7118L0.934784 38.7763L0.963097 38.7609L1.07777 38.8716L0.962386 39.0567L1.12661 38.9095L1.00981 39.0931L1.1705 38.9452L1.06927 39.1387L1.22146 38.9817L1.27561 39.016C1.29827 39.0314 1.32092 39.0447 1.34498 39.0588L1.3549 39.0525ZM1.10255 39.1618L1.053 39.2361L1.08486 39.2165L1.10255 39.1618ZM0.817634 38.8155L0.769497 38.8674L0.86364 38.8155H0.817634Z" fill="#1A1A1A"/>
<path d="M60.615 72.7783L60.1209 72.7621C60.0335 72.7544 59.9779 72.7474 59.9224 72.7383L59.6966 72.7019L59.6421 72.6906L59.469 72.6514L59.3911 72.629L59.0457 72.5084C58.982 72.4839 58.9356 72.4621 58.8893 72.4397L58.8397 72.4166C58.7969 72.3956 58.753 72.3731 58.7126 72.3458L58.7466 72.2967L58.615 72.1678L58.6231 69.268L58.8404 69.0535L58.948 69.0788L59.0655 69.1405C59.1388 69.1741 59.1689 69.1888 59.2007 69.2014C59.2591 69.226 59.2917 69.2393 59.3256 69.2505L59.4644 69.2961L59.4616 69.5204L59.52 69.3129L59.5451 69.5442L59.6371 69.343L59.6283 69.5624L59.5783 69.772L59.5649 69.547L59.5178 69.7573L59.3893 69.7236L59.4279 69.5105L59.3366 69.7082C59.297 69.6963 59.2577 69.6837 59.218 69.6696C59.1473 69.6458 59.1013 69.6276 59.057 69.608L59.0499 72.0388C59.1235 72.0738 59.1575 72.09 59.1936 72.104L59.6796 72.2575L59.7404 72.2708L59.825 72.2883L59.9567 72.31C60.0331 72.3199 60.0767 72.3255 60.1202 72.329L60.1765 72.3353L60.4175 72.3465L60.4759 72.3479L60.7559 72.3423C60.7998 72.3388 60.8249 72.3374 60.8504 72.3339L61.0202 72.3185C61.0656 72.3115 61.1031 72.3051 61.1413 72.2981L61.2029 72.2911C61.2029 72.2883 61.2354 72.282 61.2687 72.2743L61.3232 72.2638C61.3381 72.2603 61.3657 72.2547 61.3926 72.2456L61.5717 72.1951L61.8187 72.104L61.8683 72.1173L61.8569 72.0956L61.8952 72.078L61.956 72.1411L61.9631 69.6143C61.949 69.6199 61.9398 69.6234 61.9298 69.6262C61.8421 69.6619 61.7904 69.6795 61.7366 69.6963C61.6552 69.7222 61.6021 69.7362 61.5511 69.7503L60.81 69.8694L60.4879 69.8771C60.4019 69.8771 60.3577 69.8764 60.3135 69.8715C60.2409 69.8715 60.1821 69.8666 60.1237 69.8596L60.0668 69.6367L60.0452 69.8505C60.0084 69.847 59.9712 69.8435 59.934 69.8379L59.6615 69.7909L59.6283 69.5624L59.715 69.3613L59.824 69.3844L59.8668 69.6094L59.8997 69.3963L60.1545 69.4292C60.2218 69.4377 60.2664 69.4412 60.3113 69.4426C60.392 69.4468 60.4186 69.4468 60.4462 69.4468L60.8765 69.4306C60.8822 69.4292 60.9102 69.4264 60.9346 69.4264L61.4181 69.3381C61.4818 69.3227 61.5278 69.3101 61.5724 69.2961C61.6517 69.2715 61.6948 69.2568 61.7366 69.2407L61.8739 69.1825L61.9638 69.308L61.9794 69.2722L61.9489 69.1496L62.0544 69.0956L62.3984 69.2736L62.2781 72.3647L62.1939 72.411L62.0714 72.472L62.058 72.4671L61.8775 72.5407L61.8796 72.5463L61.5242 72.6563C61.4846 72.6682 61.4443 72.678 61.4025 72.6872C61.3204 72.704 61.2779 72.7131 61.2354 72.7194L61.1809 72.725C61.1753 72.7299 61.1293 72.7376 61.0811 72.7439L61.0202 72.7488L60.9516 72.7593C60.9466 72.7614 60.9201 72.7629 60.9027 72.7629C60.8695 72.7664 60.8316 72.7685 60.7934 72.7706L60.7215 72.7748C60.6861 72.7762 60.6508 72.7783 60.615 72.7783Z" fill="#1A1A1A"/>
<path d="M44.5516 24.4101L60.8606 15.4382L83.3309 27.9988L60.9865 40.5594L38.7528 27.9988L44.5516 24.4101Z" fill="#1A1A1A"/>
<path d="M82.6858 28.0607L60.6193 15.4424L60.5106 15.2553L60.5142 14.1941L60.948 14.5162L60.9459 15.1319L83.1245 27.8141L82.6858 28.0607Z" fill="#1A1A1A"/>
<path d="M94.1903 21.5951L94.136 21.5012L60.8798 2.48508L60.5538 2.67083L60.5245 11.2191L60.9584 11.4769L60.987 3.04372L93.8069 21.8105L94.1903 21.5951Z" fill="#1A1A1A"/>
<path d="M38.9968 28.0126L60.8369 15.4417L60.9452 15.2563L60.9478 14.4797L60.5135 14.2886L60.5106 15.1316L38.5672 27.7617L38.9968 28.0126Z" fill="#1A1A1A"/>
<path d="M28.154 21.6807L60.552 3.04619L60.5234 11.3848L60.9576 11.6237L60.9884 2.67188L60.6613 2.48508L27.724 21.4296L28.154 21.6807Z" fill="#1A1A1A"/>
<path d="M60.8352 53.4726L27.5793 34.4593L27.4706 34.2721L27.4922 21.687L27.8182 21.5012L61.096 40.5181L61.2043 40.7052L61.1611 53.2869L60.8352 53.4726ZM27.9056 34.1488L60.7276 52.914L60.769 40.8286L27.9265 22.0599L27.9056 34.1488Z" fill="#1A1A1A"/>
<path d="M61.0528 53.4726L60.7265 53.2855L60.7697 40.7038L60.8776 40.5181L93.918 21.5012L94.2443 21.6884L94.2011 34.2735L94.0928 34.4593L61.0528 53.4726ZM61.2043 40.8286L61.1625 52.9112L93.7665 34.1488L93.8083 22.0627L61.2043 40.8286Z" fill="#1A1A1A"/>
<path d="M59.2336 18.2502C57.8529 17.468 56.5809 17.3292 55.6448 17.857L55.5974 17.8844L55.3758 17.5143C55.3932 17.5038 55.4105 17.4939 55.4278 17.4834L56.7852 16.6977C57.9099 16.0689 59.3543 16.1997 60.8578 17.0615L60.8585 17.4337L59.4513 18.2488L59.2336 18.2502ZM56.9324 17.1112C57.6728 17.1161 58.4897 17.3523 59.3395 17.815L60.306 17.2549C59.0648 16.6336 57.9029 16.5666 57.0018 17.0706L56.9324 17.1112Z" fill="#1A1A1A"/>
<path d="M63.2613 30.9631L63.0426 30.5909L63.0433 30.5902L63.044 30.5895L63.0631 30.5789C63.9869 30.0378 64.5157 28.8617 64.5157 27.3463C64.5157 24.0085 62.1366 19.9375 59.212 18.2707L59.2106 17.8985L60.6179 17.084L60.8366 17.0833C63.8807 18.8307 66.3575 23.0692 66.3575 26.5311C66.3575 28.2407 65.758 29.5255 64.6686 30.1479L63.2854 30.949L63.2613 30.9631ZM59.7447 18.0877C62.6427 19.927 64.9503 23.9923 64.9503 27.3463C64.9503 28.3128 64.7478 29.1589 64.3713 29.8205L64.4505 29.775C65.3998 29.2325 65.9229 28.0801 65.9229 26.5311C65.9229 23.2472 63.6018 19.2358 60.7268 17.5193L59.7447 18.0877Z" fill="#1A1A1A"/>
<path d="M64.5599 29.9616L63.1526 30.7765C64.1269 30.2189 64.7331 29.0184 64.7331 27.3461C64.7331 23.9373 62.3299 19.7995 59.3203 18.0844L60.7277 17.2697C63.7155 18.9849 66.1404 23.144 66.1404 26.5314C66.1404 28.2251 65.5342 29.4042 64.5599 29.9616Z" fill="#1A1A1A"/>
<path d="M27.8281 21.8804L27.5764 21.5314L38.2686 12.3576L59.1448 1.01928L60.214 0.916199V1.05332L60.9474 2.82889L60.7835 2.92281L27.8281 21.8804ZM38.498 12.7242L29.6034 20.3608L60.4012 2.64454L59.8551 1.32199H59.5391L59.3792 1.38339L38.498 12.7242Z" fill="#1A1A1A"/>
<path d="M64.401 16.6347L64.2934 16.5734L52.8933 10.121L55.7545 8.471L67.265 15.0064L64.401 16.6347ZM53.7633 10.1175L64.401 16.1384L66.3915 15.0064L55.7559 8.96866L53.7633 10.1175Z" fill="#1A1A1A"/>
<path d="M93.9173 21.8804L60.6826 2.88637L60.2347 0.893897L81.5857 12.5725L94.153 21.5195L93.9173 21.8804ZM61.0288 2.58707L90.3695 19.3557L81.3528 12.9352L60.5159 1.34643L61.0288 2.58707Z" fill="#1A1A1A"/>
<path d="M45.9174 38.7882L33.2082 31.5231L33.0995 31.3367V30.8201L33.4255 30.6336L46.1563 37.9036L46.265 38.0992L46.2434 38.6109L45.9174 38.7882ZM33.5341 31.2126L45.8236 38.2373L45.825 38.2113L33.5341 31.193V31.2126Z" fill="#1A1A1A"/>
<path d="M46.1358 38.7875L45.9174 38.7882L45.8303 38.0803L45.9376 37.9036L48.7117 36.4212L48.8416 36.5887V37.1011L48.734 37.2868L46.1358 38.7875ZM46.26 38.2155V38.2176L48.4069 36.9651L46.26 38.2155Z" fill="#1A1A1A"/>
<path d="M45.9171 38.2751L33.0995 30.8201L33.1862 30.5902L35.7628 29.1126H35.9808L48.7117 36.4212V36.7941L46.1351 38.2751L45.9171 38.2751ZM33.7288 30.7766L46.0261 37.8398L48.1695 36.6076L35.8718 29.5479L33.7288 30.7766Z" fill="#1A1A1A"/>
<path d="M39.2703 50.3255L26.5394 43.0576L26.4308 42.8711V42.3545L26.5175 42.126L39.4876 49.4381L39.5962 49.6245V50.139L39.2703 50.3255ZM26.8654 42.7471L39.1616 49.7661V49.7486L26.8654 42.7274V42.7471Z" fill="#1A1A1A"/>
<path d="M39.4872 50.3241L39.2703 50.3255L39.1616 49.6231L39.2703 49.4367L42.0645 47.9788L42.1944 48.1414V48.6587L42.0854 48.8451L39.4872 50.3241ZM39.5962 49.7479V49.7654L41.7598 48.5136L39.5962 49.7479Z" fill="#1A1A1A"/>
<path d="M39.4656 49.8285H39.248L26.5171 42.4989L26.5175 42.126L29.0941 40.6471H29.3121L42.0645 47.9788L42.0638 48.3516L39.4656 49.8285ZM27.0597 42.3125L39.358 49.3932L41.5206 48.1638L29.2031 41.0823L27.0597 42.3125Z" fill="#1A1A1A"/>
<path d="M41.4788 46.4865L28.7695 39.2165L28.6609 39.03V38.5169L28.9869 38.3305L41.6961 45.5963L41.8047 45.7828V46.3L41.4788 46.4865ZM29.0955 38.906L41.3701 45.9272V45.9068L29.0955 38.8898V38.906Z" fill="#1A1A1A"/>
<path d="M41.6968 46.4858L41.4788 46.4865L41.3698 45.7828L41.4777 45.597L44.273 44.1195L44.4026 44.2828V44.7994L44.295 44.9851L41.6968 46.4858ZM41.8044 45.9061V45.925L43.968 44.6578L41.8044 45.9061Z" fill="#1A1A1A"/>
<path d="M41.6741 45.9692H41.4568L28.6609 38.5169L28.7264 38.2877L31.3246 36.8067H31.5422L44.273 44.1195L44.2723 44.4923L41.6741 45.9692ZM29.2696 38.4749L41.5666 45.5339L43.7291 44.3052L31.4329 37.242L29.2696 38.4749Z" fill="#1A1A1A"/>
<path d="M43.7085 42.6468L30.9993 35.3579L30.891 35.1714V34.6583L31.217 34.4719L43.9262 41.7377L44.0349 41.9242V42.4604L43.7085 42.6468ZM31.3256 35.0474L43.6002 42.0868V42.0482L31.3256 35.0312V35.0474Z" fill="#1A1A1A"/>
<path d="M43.9269 42.6454L43.7085 42.6468L43.5999 41.9235L43.7089 41.737L46.5035 40.2805L46.6327 40.4466V40.959L46.5251 41.1447L43.9269 42.6454ZM44.0345 42.0482V42.0847L46.1981 40.8188L44.0345 42.0482Z" fill="#1A1A1A"/>
<path d="M43.9046 42.1344H43.6866L30.891 34.6583L30.9565 34.4291L33.5547 32.9474H33.7727L46.5035 40.2805L46.5028 40.6534L43.9046 42.1344ZM31.4994 34.6163L43.7967 41.6991L45.9599 40.4662L33.6626 33.3826L31.4994 34.6163Z" fill="#1A1A1A"/>
<path d="M55.9283 8.71983H55.4937V11.4717H55.9283V8.71983Z" fill="#1A1A1A"/>
<path d="M59.3409 18.0632L60.7481 17.2485C59.2542 16.391 57.8902 16.3267 56.8943 16.8841L55.6374 17.6116C54.5738 18.1341 53.9062 19.3595 53.9062 21.1289C53.9062 24.5163 56.3095 28.6755 59.2974 30.3906C61.1785 31.4706 62.845 31.3181 63.8216 30.2116L64.4712 29.8354C64.3833 29.8857 64.2925 29.9308 64.1991 29.9705L64.4713 29.813C64.446 29.8255 64.4199 29.8389 64.3931 29.8525C64.2824 29.9091 64.1603 29.9714 64.0383 30.0059L63.9477 30.0583L63.9489 30.0568L64.0382 30.0051C64.0157 30.014 63.9922 30.0229 63.968 30.0317C64.4527 29.3854 64.7318 28.4688 64.7318 27.3248C64.7534 23.9375 62.3287 19.7785 59.3409 18.0632Z" fill="white"/>
<path d="M61.0721 40.78C61.0345 40.78 60.9977 40.7709 60.9638 40.7512L27.6112 21.8031C27.55 21.7687 27.5097 21.707 27.5029 21.6369C27.4962 21.5676 27.5242 21.4996 27.5773 21.454L38.2239 12.4995C38.2943 12.4395 38.3955 12.4308 38.4745 12.4756L60.3807 24.6636C60.4455 24.7001 60.4865 24.7674 60.4897 24.8417L61.2894 40.5564C61.2922 40.6342 61.2526 40.7085 61.1846 40.7491C61.1499 40.7695 61.111 40.78 61.0721 40.78ZM28.094 21.5809L60.8392 40.1842L60.0601 24.9777L38.3916 12.9253L28.094 21.5809Z" fill="#1A1A1A"/>
<path d="M61.076 40.7779C61.0399 40.7779 61.0038 40.7695 60.9712 40.7512C60.9043 40.7148 60.8618 40.6468 60.8586 40.5711L60.0601 24.9777C60.0569 24.8985 60.0979 24.8235 60.1673 24.7835L81.2818 12.5554C81.3562 12.5127 81.4482 12.5165 81.5197 12.5663L94.1541 21.4317C94.2135 21.4744 94.2475 21.5438 94.2439 21.6167C94.2404 21.6896 94.1994 21.7562 94.1356 21.7927L61.1846 40.7491C61.1513 40.7681 61.1138 40.7779 61.076 40.7779ZM60.5 25.0898L61.2691 40.1583L93.6267 21.5866L81.3802 12.9981L60.5 25.0898Z" fill="#1A1A1A"/>
<path d="M59.2345 18.2493C57.8538 17.4671 56.5818 17.3283 55.6457 17.8561L55.5983 17.8834L55.3767 17.5134C55.394 17.5028 55.4114 17.493 55.4287 17.4825L56.786 16.6968C57.9108 16.068 59.3552 16.1988 60.8587 17.0606L60.8594 17.4327L59.4522 18.2479L59.2345 18.2493ZM56.9333 17.1103C57.6737 17.1152 58.4906 17.3514 59.3403 17.8141L60.3069 17.254C59.0657 16.6326 57.9038 16.5657 57.0027 17.0697L56.9333 17.1103Z" fill="#1A1A1A"/>
<path d="M63.2622 30.9621L63.0435 30.59L63.0442 30.5893L63.0449 30.5886L63.064 30.578C63.9878 30.0369 64.5166 28.8608 64.5166 27.3454C64.5166 24.0075 62.1374 19.9366 59.2129 18.2698L59.2115 17.8976L60.6187 17.0831L60.8375 17.0824C63.8816 18.8298 66.3584 23.0683 66.3584 26.5302C66.3584 28.2397 65.7589 29.5245 64.6695 30.147L63.2863 30.9481L63.2622 30.9621ZM59.7456 18.0868C62.6436 19.9261 64.9512 23.9914 64.9512 27.3454C64.9512 28.3119 64.7487 29.158 64.3722 29.8196L64.4514 29.7741C65.4007 29.2316 65.9238 28.0792 65.9238 26.5302C65.9238 23.2463 63.6027 19.2349 60.7277 17.5184L59.7456 18.0868Z" fill="#1A1A1A"/>
<path d="M61.7226 31.3426C60.9398 31.3426 60.0776 31.0854 59.1899 30.5758C56.1575 28.8347 53.6906 24.5962 53.6906 21.1273C53.6906 19.4122 54.2933 18.1239 55.388 17.4993C56.4895 16.8685 57.9331 17.0038 59.4511 17.875C62.5062 19.6287 64.9731 23.868 64.9505 27.3249C64.9505 29.0387 64.3474 30.327 63.253 30.9515C62.795 31.213 62.279 31.3426 61.7226 31.3426ZM56.9195 17.54C56.4381 17.54 55.995 17.65 55.6053 17.8722C54.6508 18.4168 54.1252 19.5727 54.1252 21.1273C54.1252 24.4595 56.4951 28.5312 59.408 30.2029C60.7847 30.9936 62.0745 31.1282 63.0357 30.5786C63.9899 30.034 64.5159 28.8782 64.5159 27.3235C64.5371 24.0032 62.1672 19.9322 59.2331 18.2479C58.4138 17.7776 57.6259 17.54 56.9195 17.54Z" fill="#1A1A1A"/>
<path d="M61.0551 30.1811C60.4124 30.1811 59.7038 29.9694 58.9733 29.5496C56.5018 28.1295 54.4915 24.6795 54.4915 21.8597C54.4915 20.4452 54.9856 19.3847 55.8828 18.8731C56.7832 18.3586 57.966 18.47 59.2119 19.185C61.6837 20.584 63.6947 24.0347 63.6947 26.8762C63.6947 28.2907 63.2007 29.3512 62.3038 29.8629C61.9308 30.0753 61.5096 30.1811 61.0551 30.1811ZM57.1329 18.9852C56.7535 18.9852 56.4052 19.0721 56.0998 19.246C55.3431 19.6777 54.9262 20.6058 54.9262 21.8597C54.9262 24.5429 56.8395 27.8253 59.1914 29.1767C60.2984 29.8124 61.3256 29.9239 62.0872 29.4893C62.8432 29.0582 63.2601 28.1302 63.2601 26.8763C63.2601 24.1721 61.3475 20.8896 58.996 19.5593L58.9949 19.5586C58.3327 19.178 57.6985 18.9852 57.1329 18.9852Z" fill="#1A1A1A"/>
</svg>
